<svg width="72" height="72" viewBox="0 0 72 72" fill="none" xmlns="http://www.w3.org/2000/svg">
<path d="M27.0865 27.5286C25.861 26.4241 24.2986 27.3731 23.4634 28.0096C22.6282 28.6461 22.2481 29.559 22.0407 30.4576C21.8333 31.3561 21.7671 32.2806 21.4258 33.1533C21.0125 34.2102 20.2018 35.1693 20.0161 36.2709C19.8188 37.4329 20.3401 38.6598 19.9153 39.7801C19.669 40.4296 19.1276 40.9782 18.6769 41.5542C18.2261 42.1302 17.8561 42.7969 18.0001 43.4709C18.2089 44.4601 19.4401 45.1369 20.6569 45.5142C21.649 45.8238 22.7204 46.0168 23.7716 45.9304C24.8228 45.844 25.8524 45.4552 26.4327 44.7784C26.9309 44.2024 27.0634 43.4824 27.085 42.7811C27.1556 40.5203 26.221 38.3013 25.8106 36.0534C25.3153 33.3102 26.0079 30.1336 27.0908 27.5243" fill="#263238"/>
<path d="M19.8403 45.2907C19.8303 45.2772 19.8216 45.2627 19.8144 45.2475C19.7985 45.2187 19.7712 45.177 19.7438 45.1179C19.666 44.9452 19.6174 44.7608 19.5998 44.5722C19.5777 44.2732 19.6044 43.9726 19.679 43.6822C19.7767 43.2994 19.9042 42.9248 20.0606 42.5619C20.9274 40.4544 21.5806 38.2652 22.0104 36.0272C22.2461 34.7957 22.4134 33.552 22.5115 32.3019C22.5561 31.7259 22.595 31.1744 22.68 30.6646C22.7511 30.1899 22.8857 29.7269 23.0803 29.288C23.2492 28.9284 23.4776 28.5998 23.7556 28.316C23.9649 28.1029 24.2082 27.9262 24.4756 27.7933C24.6464 27.7124 24.827 27.6538 25.0128 27.619C25.0761 27.609 25.1251 27.6046 25.1568 27.6003C25.1735 27.5987 25.1904 27.5987 25.2072 27.6003L25.1582 27.6118L25.0142 27.6363C24.8317 27.6768 24.6547 27.7391 24.4872 27.8221C24.2243 27.9581 23.9851 28.1355 23.7787 28.3477C23.5073 28.6303 23.2854 28.9564 23.122 29.3125C22.933 29.7484 22.8028 30.2074 22.7347 30.6776C22.6526 31.1845 22.6166 31.7331 22.5734 32.3106C22.4797 33.5637 22.3139 34.8104 22.0766 36.0445C21.647 38.2872 20.9854 40.4791 20.1024 42.585C19.9451 42.9449 19.8147 43.316 19.7121 43.6952C19.6359 43.9809 19.6053 44.2769 19.6214 44.5722C19.6454 44.8239 19.7198 45.0683 19.8403 45.2907Z" fill="#455A64"/>
<path d="M19.8764 42.1388L25.046 41.9199L32.0213 44.2714L36.5012 46.1089L30.986 65.582L31.827 68.3036H16.0229L16.7343 53.5335L19.8764 42.1388Z" fill="#FF725E"/>
<g opacity="0.3">
<path d="M30.5826 65.7475C30.0959 62.4585 29.6097 59.1695 29.1239 55.8806C29.0346 55.2758 28.9237 54.6263 28.486 54.2001C28.0713 53.794 27.4564 53.686 26.879 53.614C25.5829 53.4556 24.2005 53.4095 23.0572 54.0359C22.0895 54.5659 21.4271 55.5091 20.8223 56.4335C18.9935 59.2315 17.8501 60.4569 16.3785 63.4579L16.1409 65.8295C17.6313 65.3716 19.054 63.9115 19.8849 62.5967C20.7157 61.282 21.3119 59.8219 22.0852 58.4639C22.6165 57.5337 23.2905 56.6121 24.2769 56.1959C24.8341 55.9598 25.5628 55.9425 25.9588 56.3975C26.1189 56.6073 26.2309 56.8496 26.2871 57.1075C26.7306 58.6799 26.8631 60.3244 27.2447 61.9127C27.6263 63.5011 28.3146 65.098 29.602 66.1046C29.7389 66.2262 29.9035 66.3122 30.0815 66.3551C30.1709 66.3742 30.2639 66.3659 30.3484 66.3312C30.433 66.2965 30.5051 66.2371 30.5553 66.1607C30.6065 66.029 30.6161 65.8848 30.5826 65.7475Z" fill="black"/>
</g>
<path d="M13.4338 49.5431C13.4338 49.3991 15.7134 42.1387 19.8764 42.1387L18.5991 50.832L13.4338 49.5431Z" fill="#FF725E"/>
<path d="M36.501 46.1089C36.501 46.1089 37.797 47.2177 37.9943 48.1465C38.1916 49.0753 38.4191 53.63 38.4191 53.63L33.3604 53.2801L36.501 46.1089Z" fill="#FF725E"/>
<path d="M19.054 45.936C19.0575 45.9681 19.0575 46.0005 19.054 46.0325L19.0194 46.3047C18.9892 46.5408 18.9373 46.8807 18.8682 47.304C18.7242 48.1464 18.5068 49.3042 18.2447 50.5786C17.9826 51.853 17.7522 53.0093 17.601 53.8474C17.529 54.2607 17.4685 54.5976 17.4268 54.8424L17.3778 55.1132C17.3739 55.145 17.3667 55.1764 17.3562 55.2068C17.3526 55.1747 17.3526 55.1423 17.3562 55.1103C17.3649 55.0397 17.3764 54.9504 17.3908 54.8381C17.421 54.6005 17.4729 54.2621 17.5348 53.8388C17.6788 52.9964 17.8962 51.8386 18.1569 50.5628C18.4175 49.2869 18.6508 48.1335 18.8005 47.294C18.874 46.8821 18.933 46.5437 18.9762 46.3004C18.9964 46.1895 19.0122 46.0988 19.0252 46.0296C19.0312 45.9974 19.0409 45.966 19.054 45.936Z" fill="#263238"/>
<path d="M34.619 49.2983C34.6201 49.3683 34.6143 49.4383 34.6017 49.5071C34.5859 49.6425 34.5585 49.8355 34.5225 50.0745C34.4491 50.5526 34.3295 51.2107 34.1899 51.935C34.0502 52.6593 33.9249 53.3015 33.8299 53.7897C33.7867 54.0172 33.7521 54.2059 33.7233 54.3527C33.7143 54.4223 33.6984 54.4908 33.6758 54.5572C33.6758 54.4867 33.682 54.4164 33.6945 54.347C33.7118 54.2131 33.7406 54.0201 33.778 53.7811C33.8543 53.303 33.9753 52.6449 34.1164 51.9206C34.2575 51.1963 34.3771 50.554 34.4692 50.0659C34.511 49.8383 34.547 49.6497 34.5729 49.5028C34.5829 49.4336 34.5983 49.3652 34.619 49.2983Z" fill="#263238"/>
<path d="M36.6234 46.3162C36.6234 46.3162 36.6105 46.3305 36.5831 46.3536L36.4564 46.4558C36.287 46.5788 36.105 46.6836 35.9135 46.7683C35.6089 46.8997 35.285 46.9809 34.9545 47.0088C34.5148 47.0465 34.0723 46.9865 33.6585 46.8331C33.1962 46.6618 32.7714 46.3262 32.2905 46.0282C32.0454 45.8698 31.7766 45.7517 31.4942 45.6782C31.1929 45.611 30.8815 45.6022 30.5769 45.6523C29.9462 45.7445 29.327 46.0224 28.6574 46.2283C27.962 46.4483 27.223 46.4932 26.5061 46.3591C25.7891 46.2249 25.1164 45.9159 24.5476 45.4594C24.2874 45.2341 24.0408 44.9937 23.8089 44.7394C23.5897 44.4994 23.3323 44.2975 23.0471 44.1418C22.7691 44.008 22.4657 43.9353 22.1572 43.9286C21.865 43.9214 21.5729 43.946 21.286 44.0021C20.7287 44.1101 20.2233 44.28 19.7452 44.3765C19.317 44.4797 18.8727 44.4974 18.4377 44.4283C18.1097 44.3677 17.8013 44.2284 17.5391 44.0222C17.3734 43.8915 17.2399 43.7245 17.1489 43.5341C17.1253 43.4853 17.1055 43.4347 17.0898 43.3829C17.0798 43.3483 17.0754 43.3296 17.0754 43.3296C17.0843 43.3458 17.092 43.3627 17.0985 43.38C17.1157 43.4296 17.1369 43.4777 17.1618 43.524C17.2573 43.7079 17.392 43.8687 17.5564 43.9949C17.8177 44.1935 18.1229 44.3264 18.4463 44.3822C18.8758 44.4467 19.3138 44.4257 19.7351 44.3203C20.2074 44.221 20.7114 44.0482 21.2745 43.9373C21.5658 43.8776 21.8628 43.8511 22.1601 43.8581C22.4783 43.8643 22.7915 43.9385 23.0788 44.0755C23.3718 44.2337 23.6362 44.4401 23.8607 44.6861C24.091 44.9372 24.3358 45.1747 24.5937 45.3974C25.1534 45.846 25.815 46.1496 26.5201 46.2815C27.2251 46.4133 27.9518 46.3694 28.6358 46.1534C29.2996 45.9533 29.9231 45.6739 30.5668 45.5774C30.8801 45.5262 31.2004 45.536 31.51 45.6062C31.7986 45.683 32.0732 45.805 32.3236 45.9677C32.8074 46.2715 33.225 46.6056 33.6772 46.777C34.0836 46.9299 34.5186 46.9923 34.9516 46.9598C35.2787 46.9355 35.6 46.8597 35.9034 46.7352C36.0945 46.6535 36.2772 46.5537 36.4492 46.4371L36.5788 46.3406L36.6234 46.3162Z" fill="#FAFAFA"/>
<path d="M18.2692 49.0463C18.2692 49.0463 18.2533 49.055 18.2217 49.0622C18.1746 49.0749 18.1263 49.0826 18.0777 49.0852C17.9031 49.0963 17.7281 49.0693 17.565 49.006C17.3237 48.9135 17.1022 48.7757 16.9127 48.5999C16.6953 48.407 16.4879 48.1679 16.2589 47.9318C16.0502 47.7063 15.8036 47.5192 15.5303 47.3788C15.3076 47.2682 15.0555 47.2309 14.8103 47.2722C14.6442 47.2992 14.4887 47.3714 14.361 47.481C14.2717 47.5602 14.2372 47.625 14.23 47.615C14.2347 47.599 14.242 47.5839 14.2516 47.5703C14.2766 47.5298 14.3066 47.4926 14.3409 47.4594C14.4668 47.3358 14.6267 47.2526 14.8002 47.2204C15.0577 47.1688 15.325 47.2022 15.562 47.3154C15.8452 47.4564 16.1004 47.6476 16.3151 47.8799C16.5469 48.1175 16.7471 48.358 16.9617 48.5481C17.1432 48.7215 17.3551 48.8601 17.5866 48.957C17.8031 49.0432 18.0378 49.0739 18.2692 49.0463Z" fill="#FAFAFA"/>
<path d="M33.2366 53.0122C33.0534 53.1262 32.8565 53.2167 32.6506 53.2814C32.0872 53.4658 31.4851 53.4981 30.9053 53.375C30.5044 53.2938 30.1227 53.1369 29.7806 52.9128C29.3998 52.6427 29.051 52.3301 28.7409 51.9811C28.403 51.5983 28.0288 51.2492 27.6235 50.9385C27.1758 50.6239 26.6399 50.4591 26.0928 50.4677C25.5448 50.492 25.0025 50.5888 24.48 50.7557C23.9673 50.8997 23.472 51.0581 22.9925 51.156C21.554 51.4489 20.0625 51.3368 18.684 50.832C18.4896 50.7557 18.3398 50.6966 18.2419 50.6477L18.1296 50.5958C18.1037 50.5829 18.0907 50.5771 18.0921 50.5757C18.1062 50.578 18.1197 50.5823 18.1325 50.5886L18.2477 50.6347C18.3485 50.6779 18.4982 50.7326 18.6941 50.8046C19.2464 50.9955 19.8174 51.1268 20.3976 51.1963C21.2579 51.3017 22.1296 51.2653 22.9781 51.0883C23.4562 50.989 23.9457 50.8306 24.4598 50.6851C24.9888 50.5166 25.538 50.4197 26.0928 50.3971C26.3762 50.3943 26.6584 50.4351 26.9294 50.5181C27.1923 50.6001 27.4407 50.723 27.6653 50.8824C28.0746 51.1956 28.4514 51.5493 28.7899 51.9379C29.096 52.2843 29.4399 52.5953 29.8152 52.8653C30.15 53.0873 30.5238 53.2441 30.9168 53.3275C31.4891 53.4536 32.0843 53.4298 32.6448 53.2584C32.7963 53.2114 32.9445 53.1541 33.0883 53.087L33.1992 53.0323C33.2107 53.0239 33.2233 53.0171 33.2366 53.0122Z" fill="#FAFAFA"/>
<path d="M38.2881 50.2749C38.2881 50.2749 38.2881 50.2907 38.2693 50.3167C38.2478 50.3547 38.2238 50.3913 38.1973 50.4261C38.0983 50.5541 37.9779 50.6642 37.8417 50.7515C37.6379 50.8832 37.4051 50.9633 37.1634 50.9848C36.8686 50.9956 36.5748 50.9466 36.2994 50.8408C36.032 50.7395 35.751 50.6788 35.4656 50.6608C35.2326 50.6573 35.0013 50.7014 34.786 50.7904C34.5885 50.8773 34.4042 50.9917 34.2388 51.1303C34.2388 51.1303 34.2388 51.1159 34.2661 51.0928C34.2952 51.06 34.3264 51.0292 34.3597 51.0007C34.481 50.8939 34.6179 50.8065 34.7658 50.7415C34.9862 50.6442 35.2248 50.5951 35.4656 50.5975C35.7612 50.6113 36.0528 50.6716 36.3296 50.776C36.5965 50.8779 36.8807 50.9268 37.1663 50.92C37.3976 50.9029 37.6216 50.8313 37.8201 50.7112C37.9996 50.5933 38.1579 50.4458 38.2881 50.2749Z" fill="#FAFAFA"/>
<path d="M32.7743 57.3348C32.7595 57.3371 32.7445 57.3371 32.7297 57.3348L32.5972 57.3262C32.4275 57.3189 32.2576 57.3251 32.0889 57.3449C31.8228 57.3798 31.5605 57.4396 31.3055 57.5235C31.0046 57.6171 30.6734 57.7524 30.3076 57.9051C29.9114 58.0824 29.5034 58.232 29.0865 58.3529C28.6047 58.5005 28.0946 58.5301 27.599 58.4393C27.3325 58.3786 27.0783 58.2729 26.8473 58.1268C26.6097 57.9828 26.3879 57.81 26.1561 57.6459C25.9267 57.4717 25.6766 57.3266 25.4116 57.2139C25.1363 57.1088 24.8417 57.0641 24.5476 57.0828C23.9471 57.1145 23.3956 57.3319 22.87 57.5609C22.3751 57.802 21.8582 57.9949 21.3263 58.1369C20.8341 58.2466 20.3225 58.2347 19.8359 58.1023C19.4152 57.9876 19.0138 57.8109 18.645 57.5782C18.3399 57.3876 18.051 57.1723 17.781 56.9345C17.542 56.7271 17.349 56.5371 17.1906 56.3801C17.0322 56.2231 16.9142 56.0993 16.8335 56.0158L16.7428 55.9179C16.7226 55.8963 16.7126 55.8847 16.714 55.8833L16.7486 55.9121L16.8436 56.0043L17.2108 56.3599C17.6535 56.8012 18.1415 57.1945 18.6666 57.5335C19.0329 57.7598 19.4302 57.9316 19.846 58.0433C20.323 58.1698 20.8235 58.1787 21.3047 58.0692C21.8319 57.9256 22.3444 57.7328 22.8354 57.4932C23.3553 57.2628 23.9212 57.0396 24.5375 57.0079C24.8423 56.9892 25.1476 57.0354 25.4332 57.1433C25.7032 57.255 25.9582 57.4001 26.1921 57.5753C26.4254 57.7409 26.6471 57.9123 26.879 58.0534C27.1025 58.1967 27.3489 58.3004 27.6076 58.3601C28.0927 58.4507 28.5925 58.4235 29.0649 58.2809C29.4798 58.1646 29.8863 58.0202 30.2817 57.8489C30.6489 57.7049 30.983 57.5609 31.2897 57.4759C31.5481 57.3946 31.8138 57.3386 32.0831 57.3089C32.3135 57.2815 32.5467 57.2903 32.7743 57.3348Z" fill="#FAFAFA"/>
<path d="M31.1141 64.4214C30.9813 64.2454 30.8231 64.0901 30.6447 63.9606C30.4347 63.8151 30.2 63.7092 29.952 63.6481C29.6219 63.5634 29.2762 63.559 28.944 63.6352C28.542 63.7373 28.1795 63.9568 27.9029 64.2659C27.7445 64.4229 27.5875 64.5957 27.4119 64.7613C27.2349 64.9408 27.0271 65.0871 26.7984 65.1933C26.552 65.2967 26.2807 65.3258 26.0179 65.2768C25.7477 65.224 25.4901 65.1199 25.2591 64.97C24.7781 64.682 24.4037 64.2342 23.9832 63.8382C23.7796 63.6377 23.5523 63.4626 23.3064 63.3169C23.0671 63.1798 22.8027 63.0921 22.5288 63.0592C22.0052 63.0135 21.4782 63.0884 20.988 63.278C20.5157 63.4465 20.0866 63.6654 19.6762 63.854C19.2985 64.036 18.904 64.1807 18.4983 64.286C17.8989 64.4454 17.2623 64.3846 16.704 64.1147C16.5566 64.0398 16.4216 63.9426 16.3037 63.8267C16.2733 63.7965 16.2444 63.7648 16.2173 63.7316C16.2075 63.7207 16.1984 63.7091 16.1899 63.6971C16.3418 63.8574 16.52 63.9904 16.717 64.0902C17.2691 64.3368 17.89 64.3827 18.4723 64.2198C18.8738 64.1142 19.264 63.9695 19.6373 63.7878C20.0448 63.602 20.4739 63.3803 20.952 63.2118C21.4524 63.0167 21.9909 62.9394 22.5259 62.9857C22.8093 63.0193 23.083 63.1094 23.3309 63.2507C23.5817 63.3996 23.8137 63.578 24.0221 63.782C24.4541 64.1838 24.817 64.623 25.285 64.9067C25.5083 65.0514 25.757 65.1526 26.0179 65.2048C26.2674 65.2527 26.5254 65.2256 26.7595 65.127C26.9805 65.027 27.1818 64.8886 27.3543 64.718C27.5285 64.5553 27.6855 64.384 27.8467 64.2256C28.1328 63.9108 28.5064 63.6887 28.9195 63.5876C29.2606 63.5122 29.6149 63.5206 29.952 63.6121C30.2059 63.6784 30.4448 63.7922 30.6562 63.9476C30.6989 63.9756 30.7389 64.0074 30.7757 64.0427C30.8103 64.0744 30.8463 64.1032 30.8751 64.132C30.9298 64.1953 30.9802 64.2443 31.0191 64.2889L31.0925 64.3955C31.1004 64.4035 31.1076 64.4122 31.1141 64.4214Z" fill="#FAFAFA"/>
<g opacity="0.3">
<path d="M34.9057 45.1641C34.7581 44.9766 34.5667 44.8283 34.3484 44.7321C32.4577 43.7111 30.1724 42.477 28.0527 42.1646C27.4925 43.7702 27.1484 45.6206 26.342 47.1081C26.234 47.3082 26.1173 47.5285 26.1634 47.7517C26.2167 48.0081 26.4658 48.1693 26.702 48.2831C27.8667 48.8352 29.2004 48.9132 30.4215 48.5006L30.4388 49.1903C30.9638 49.3439 31.5169 49.3758 32.0562 49.2837C32.5954 49.1915 33.1065 48.9777 33.5507 48.6584C33.9949 48.3391 34.3605 47.9228 34.6197 47.4411C34.879 46.9594 35.025 46.4249 35.0468 45.8783C35.0742 45.6314 35.0249 45.382 34.9057 45.1641Z" fill="black"/>
</g>
<path d="M31.9981 29.1962C32.2588 29.2377 32.4946 29.3752 32.659 29.5817C32.8234 29.7882 32.9046 30.0488 32.8866 30.3122L31.5647 44.5106C31.4567 46.1911 28.954 47.0148 27.1568 46.8852C25.3424 46.7556 25.3266 45.8613 25.3828 44.2615C25.4735 41.5888 25.5268 40.5852 25.5268 40.601C25.5268 40.6168 23.2516 40.1028 22.9276 37.0831C22.7663 35.5812 22.9664 33.1432 23.194 31.1532C23.3956 29.3618 24.6973 27.2162 26.4786 27.5042L31.9981 29.1962Z" fill="#FFBE9D"/>
<path d="M24.3993 33.4082C24.3937 33.5082 24.4272 33.6065 24.4928 33.6823C24.5583 33.7581 24.6508 33.8054 24.7507 33.8142C24.7993 33.8205 24.8488 33.8169 24.8961 33.8037C24.9433 33.7906 24.9875 33.7681 25.026 33.7377C25.0645 33.7073 25.0965 33.6694 25.1202 33.6264C25.1439 33.5834 25.1588 33.5362 25.1639 33.4874C25.1699 33.3874 25.1367 33.2891 25.0714 33.2133C25.0061 33.1375 24.9137 33.0901 24.814 33.0813C24.7652 33.0749 24.7156 33.0783 24.6682 33.0913C24.6207 33.1044 24.5764 33.1268 24.5377 33.1572C24.4991 33.1877 24.4669 33.2256 24.4431 33.2687C24.4193 33.3118 24.4044 33.3592 24.3993 33.4082Z" fill="#263238"/>
<path d="M23.6505 32.5572C23.6951 32.6105 23.9975 32.4132 24.4108 32.4319C24.8241 32.4506 25.1164 32.6753 25.1639 32.6278C25.187 32.6062 25.1438 32.5126 25.0199 32.4103C24.8478 32.277 24.6384 32.2005 24.4209 32.1914C24.2057 32.1798 23.9924 32.2367 23.8118 32.3542C23.6764 32.4449 23.6289 32.5342 23.6505 32.5572Z" fill="#263238"/>
<path d="M28.3263 33.771C28.3207 33.871 28.3542 33.9693 28.4198 34.0451C28.4853 34.1209 28.5778 34.1682 28.6777 34.177C28.7263 34.1832 28.7758 34.1797 28.8231 34.1665C28.8703 34.1534 28.9145 34.1309 28.953 34.1005C28.9915 34.07 29.0235 34.0322 29.0472 33.9892C29.0709 33.9462 29.0858 33.899 29.0909 33.8502C29.0969 33.7502 29.0638 33.6519 28.9984 33.5761C28.9331 33.5002 28.8407 33.4529 28.741 33.4441C28.6922 33.4376 28.6426 33.4411 28.5952 33.4541C28.5477 33.4672 28.5034 33.4896 28.4647 33.52C28.4261 33.5505 28.3939 33.5884 28.3701 33.6315C28.3463 33.6746 28.3314 33.722 28.3263 33.771Z" fill="#263238"/>
<path d="M27.746 32.8622C27.7906 32.9141 28.093 32.7182 28.5063 32.7355C28.9196 32.7528 29.2119 32.9803 29.2594 32.9314C29.2824 32.9098 29.2392 32.8176 29.1154 32.7154C28.9434 32.5815 28.7341 32.5045 28.5164 32.495C28.3011 32.4838 28.0877 32.5413 27.9072 32.6592C27.7719 32.7499 27.7244 32.832 27.746 32.8622Z" fill="#263238"/>
<path d="M26.0641 35.7238C26.0641 35.7007 25.8135 35.6431 25.3988 35.5682C25.2951 35.5524 25.1958 35.5265 25.1814 35.453C25.1783 35.3435 25.2084 35.2356 25.2678 35.1434C25.3801 34.8929 25.4977 34.6303 25.6206 34.3558C26.113 33.234 26.4745 32.3081 26.4284 32.2894C26.3823 32.2706 25.9489 33.1634 25.4564 34.2866L25.1166 35.0801C25.0433 35.2035 25.0163 35.349 25.0402 35.4905C25.0531 35.528 25.0741 35.5621 25.1017 35.5905C25.1294 35.6189 25.1629 35.6408 25.2001 35.6546C25.2581 35.6726 25.318 35.6837 25.3786 35.6878C25.7962 35.7324 26.0641 35.7468 26.0641 35.7238Z" fill="#263238"/>
<path d="M25.524 40.6081C26.9334 40.702 28.3411 40.4029 29.5906 39.7441C29.5906 39.7441 28.4703 41.8077 25.4866 41.3742L25.524 40.6081Z" fill="#EB996E"/>
<path d="M26.1836 36.7287C26.2672 36.6338 26.3736 36.5617 26.4927 36.5192C26.6119 36.4766 26.7399 36.465 26.8647 36.4854C26.9555 36.4984 27.0427 36.5296 27.1211 36.5771C27.1995 36.6246 27.2676 36.6875 27.3212 36.7618C27.3729 36.8334 27.4015 36.9191 27.4031 37.0074C27.4046 37.0958 27.3791 37.1824 27.3298 37.2558C27.2595 37.3268 27.1696 37.3751 27.0715 37.3947C26.9735 37.4142 26.8719 37.4039 26.7797 37.3652C26.5885 37.2863 26.4148 37.1703 26.2685 37.0239C26.2237 36.9883 26.1856 36.9449 26.1562 36.8958C26.1429 36.8719 26.1366 36.8448 26.1382 36.8175C26.1397 36.7902 26.149 36.7639 26.1649 36.7417" fill="#EB996E"/>
<path d="M27.2605 36.0719C27.1942 36.0633 27.1698 36.5125 26.7694 36.8121C26.3691 37.1116 25.8939 37.0367 25.8882 37.1001C25.8795 37.1289 25.9904 37.1937 26.192 37.2095C26.4545 37.2256 26.7144 37.1492 26.9264 36.9935C27.1305 36.8442 27.2679 36.6209 27.3094 36.3714C27.3354 36.1842 27.2922 36.0705 27.2605 36.0719Z" fill="#263238"/>
<path d="M27.5745 31.2207C27.622 31.3301 28.031 31.2538 28.5191 31.284C29.0073 31.3143 29.4076 31.428 29.4652 31.3186C29.4911 31.2696 29.4177 31.1674 29.2535 31.068C29.035 30.9468 28.7917 30.877 28.5422 30.864C28.2926 30.8511 28.0434 30.8952 27.8135 30.9932C27.6378 31.0752 27.5543 31.1688 27.5745 31.2207Z" fill="#263238"/>
<path d="M23.7039 32.0301C23.7658 32.1338 24.0725 32.0777 24.4239 32.1237C24.7753 32.1698 25.0676 32.2778 25.1439 32.19C25.1813 32.1482 25.1439 32.046 25.0287 31.9409C24.8677 31.8079 24.6706 31.7261 24.4628 31.7061C24.2561 31.6796 24.0463 31.7163 23.8609 31.8113C23.7313 31.889 23.6765 31.9797 23.7039 32.0301Z" fill="#263238"/>
<path d="M31.6137 34.8551C31.6757 34.2186 32.3913 33.827 32.9285 34.174C33.2165 34.3641 33.4382 34.727 33.3763 35.4023C33.215 37.2038 31.4409 36.6695 31.4424 36.6177C31.4438 36.5658 31.536 35.5996 31.6137 34.8551Z" fill="#FFBE9D"/>
<path d="M32.0529 35.9858C32.0615 35.9858 32.0831 36.0103 32.1335 36.0391C32.2048 36.0783 32.2887 36.0876 32.3668 36.065C32.5641 36.0117 32.7513 35.7251 32.7887 35.4011C32.8078 35.247 32.7921 35.0905 32.7426 34.9432C32.7304 34.8856 32.7046 34.8317 32.6672 34.7861C32.6299 34.7405 32.5822 34.7045 32.5281 34.6811C32.4927 34.6683 32.454 34.6684 32.4188 34.6813C32.3835 34.6942 32.3539 34.7191 32.3351 34.7517C32.3063 34.7992 32.3149 34.8367 32.3049 34.8381C32.2948 34.8395 32.2689 34.805 32.2905 34.7315C32.3042 34.6878 32.3327 34.6501 32.3711 34.625C32.4241 34.5925 32.4875 34.5817 32.5482 34.5947C32.6209 34.6161 32.6869 34.6558 32.7399 34.71C32.7929 34.7642 32.831 34.8311 32.8506 34.9043C32.9141 35.0668 32.9359 35.2425 32.914 35.4155C32.8708 35.777 32.6533 36.0995 32.3869 36.1514C32.3365 36.1621 32.2843 36.161 32.2344 36.1483C32.1844 36.1356 32.1381 36.1115 32.0989 36.0779C32.0529 36.029 32.0471 35.9872 32.0529 35.9858Z" fill="#EB996E"/>
<path d="M35.391 42.4613C35.247 41.2229 35.7438 40.4266 35.7337 39.1795C35.7222 37.6517 35.3766 35.9453 35.0799 34.4448C34.7919 32.9688 34.3354 31.6829 33.807 30.2688C33.2785 28.8547 31.9062 27.4479 30.5094 26.8128C29.2767 26.2541 27.6668 26.4082 26.7178 27.3082C26.6483 27.3125 26.5786 27.3125 26.509 27.3082C24.3966 27.1282 24.1042 28.6805 24.1042 28.6805C25.4161 27.4551 26.3118 28.5365 26.3118 28.5365C27.1095 27.7099 28.4372 28.4242 28.8951 29.2075C29.5402 30.312 29.6007 30.9701 29.7692 31.5475C30.1926 32.9947 31.4972 33.2827 31.4137 34.789C31.3172 36.7186 30.2185 38.2061 30.0687 40.1328C30.0355 40.6984 29.957 41.2603 29.834 41.8133C29.6655 42.4037 27.0274 46.8533 28.7094 47.2277C28.7715 47.2301 28.8337 47.2267 28.8951 47.2176L30.7671 47.1154L32.2762 46.1477L32.2287 47.137L34.7041 47.304C35.306 46.7943 35.4774 45.9389 35.4154 45.1613C35.3535 44.3837 35.4846 43.236 35.391 42.4613Z" fill="#263238"/>
<path d="M26.2339 28.3825C26.2401 28.3605 26.2488 28.3393 26.2598 28.3192C26.28 28.2789 26.3088 28.2198 26.3505 28.1464C26.4635 27.9329 26.6092 27.7386 26.7825 27.5704C26.9054 27.4545 27.0532 27.3683 27.2145 27.3184C27.4034 27.2641 27.6043 27.2686 27.7905 27.3313C28.188 27.4624 28.5206 27.7907 28.7985 28.1565C29.2744 28.789 29.6796 29.4718 30.0067 30.1926C30.1363 30.4677 30.2356 30.6909 30.3033 30.8464C30.3321 30.9184 30.358 30.9774 30.3782 31.0264C30.3984 31.0753 30.4027 31.0897 30.3998 31.0912C30.3855 31.0733 30.3739 31.0534 30.3652 31.0321L30.276 30.8593L29.9592 30.2171C29.6198 29.5067 29.2113 28.8314 28.7395 28.2011C28.4616 27.8397 28.139 27.5214 27.766 27.3961C27.5922 27.3349 27.4037 27.3284 27.226 27.3774C27.0712 27.4223 26.9284 27.5015 26.8084 27.6093C26.6331 27.7687 26.4822 27.9531 26.3606 28.1565C26.3223 28.234 26.28 28.3094 26.2339 28.3825Z" fill="#455A64"/>
<path d="M28.993 29.3761C28.9815 29.3761 28.8951 29.1831 28.718 28.885C28.6131 28.7119 28.4982 28.5451 28.3738 28.3854C28.2246 28.189 28.0481 28.0149 27.8497 27.8684C27.7513 27.7921 27.6372 27.7385 27.5156 27.7114C27.4028 27.6961 27.2881 27.7162 27.1873 27.769C27.0118 27.8662 26.8533 27.9912 26.7178 28.1391C26.595 28.282 26.459 28.4132 26.3118 28.5308C26.3395 28.488 26.3719 28.4484 26.4082 28.4127C26.4716 28.3393 26.5623 28.2313 26.6804 28.1017C26.8154 27.9437 26.9766 27.8102 27.157 27.7071C27.2705 27.6456 27.4007 27.6219 27.5286 27.6394C27.6609 27.6674 27.7853 27.7245 27.8929 27.8065C28.0968 27.9577 28.2773 28.1382 28.4286 28.3422C28.552 28.5066 28.6641 28.6794 28.7641 28.8591C28.8305 28.9803 28.8905 29.1047 28.9441 29.2321C28.967 29.2776 28.9835 29.326 28.993 29.3761Z" fill="#455A64"/>
<path d="M31.834 46.1216C31.839 46.1037 31.8468 46.0867 31.857 46.0712C31.8743 46.0352 31.8988 45.9877 31.929 45.9272C31.9593 45.8667 32.0039 45.7832 32.05 45.6954C32.0961 45.6075 32.145 45.4938 32.2026 45.3743C32.5171 44.6868 32.7631 43.9701 32.937 43.2344C33.1921 42.1426 33.3202 41.0249 33.3186 39.9037C33.3108 38.5305 33.1661 37.1615 32.8866 35.817C32.5986 34.377 32.2185 33.0435 31.8527 31.8296C31.4869 30.6157 31.1745 29.5141 30.7122 28.6746C30.3689 27.999 29.852 27.427 29.2146 27.0171C29.0396 26.9102 28.8544 26.8209 28.6617 26.7507C28.5969 26.7248 28.5436 26.7119 28.5177 26.7003C28.4997 26.6955 28.4823 26.6888 28.4658 26.6802L28.5191 26.6917C28.5537 26.7018 28.6069 26.7133 28.6732 26.7363C28.87 26.8013 29.0592 26.8872 29.2377 26.9927C29.8834 27.4006 30.4073 27.9752 30.754 28.6559C31.2263 29.5011 31.5388 30.6099 31.9146 31.8167C32.2905 33.0234 32.6677 34.3727 32.9557 35.8098C33.2383 37.1586 33.3831 38.5328 33.3877 39.9109C33.3866 41.0368 33.2527 42.1586 32.9889 43.2531C32.8093 43.9905 32.5545 44.7076 32.2285 45.393L32.0701 45.7127L31.9434 45.9416C31.9089 45.9992 31.8829 46.0453 31.8628 46.0856C31.8541 46.0983 31.8445 46.1104 31.834 46.1216Z" fill="#455A64"/>
<path d="M32.3539 46.9009L32.3885 46.8563C32.4134 46.8246 32.448 46.7828 32.4922 46.731L32.6621 46.5279L32.8752 46.2399C33.3165 45.6118 33.6611 44.9211 33.8976 44.1908C34.2498 43.1071 34.4248 41.9737 34.416 40.8342C34.389 39.4405 34.1956 38.055 33.84 36.7071C33.4901 35.2671 33.0638 33.9164 32.7154 32.6751C32.3669 31.4339 32.0846 30.3121 31.7146 29.4121C31.5526 29.0064 31.3601 28.6136 31.1386 28.2371C30.9693 27.9541 30.7766 27.6858 30.5626 27.435C30.4288 27.2757 30.2844 27.1257 30.1306 26.9857L30.011 26.8748C29.9967 26.8634 29.9836 26.8503 29.9722 26.8359C29.9877 26.8455 30.0021 26.8566 30.0154 26.8691L30.1406 26.9742C30.3002 27.1098 30.4494 27.2571 30.587 27.4148C30.8051 27.6647 31.0016 27.9325 31.1746 28.2155C31.3999 28.5919 31.5959 28.9853 31.7606 29.3919C32.1379 30.2934 32.4302 31.4195 32.7787 32.6564C33.1272 33.8934 33.5592 35.2484 33.9106 36.6884C34.2619 38.1284 34.4866 39.5411 34.4736 40.8327C34.4833 41.9791 34.3053 43.1193 33.9466 44.2081C33.7048 44.9411 33.3512 45.6323 32.8982 46.2572C32.8162 46.3652 32.7427 46.4603 32.6794 46.5452L32.5022 46.7439L32.3928 46.8649L32.3539 46.9009Z" fill="#455A64"/>
<path d="M31.0479 42.3157C30.956 42.1703 30.8888 42.0107 30.8492 41.8434C30.7408 41.3851 30.7482 40.907 30.8708 40.4523C30.9514 40.1392 31.0619 39.8344 31.2005 39.5423C31.3445 39.2255 31.5202 38.8986 31.7002 38.553C31.8924 38.1956 32.058 37.8245 32.1956 37.4427C32.3437 37.0349 32.4102 36.6019 32.3914 36.1683C32.3574 35.7342 32.2604 35.3073 32.1034 34.9011C31.9594 34.5051 31.788 34.1336 31.6253 33.7794C31.2984 33.0738 31.0032 32.4373 30.7613 31.9002L30.1853 30.6315L30.0312 30.2845L29.9924 30.1938C29.9837 30.1736 29.9808 30.1621 29.9823 30.1621C29.9895 30.1708 29.9953 30.1805 29.9996 30.1909C30.0125 30.2139 30.0269 30.2427 30.0442 30.2787L30.2127 30.6186C30.3567 30.9224 30.5626 31.3515 30.8146 31.8786C31.0666 32.4056 31.3676 33.0464 31.7002 33.7506C31.8644 34.1034 32.0372 34.4706 32.184 34.8767C32.3424 35.2894 32.4395 35.7231 32.472 36.164C32.4917 36.6075 32.4232 37.0504 32.2704 37.4672C32.1308 37.8519 31.9624 38.2254 31.7664 38.5847C31.585 38.9303 31.4079 39.2543 31.2624 39.5682C31.1233 39.8563 31.011 40.1566 30.9269 40.4653C30.8016 40.912 30.7868 41.3825 30.8837 41.8362C30.9133 41.9585 30.9523 42.0784 31.0004 42.1947C31.0192 42.2338 31.0351 42.2743 31.0479 42.3157Z" fill="#455A64"/>
<path d="M14.1566 49.7246C14.1566 49.7246 12.8001 55.368 12.6129 56.8123C12.3652 58.7203 11.8137 61.7457 12.3134 62.9438C12.8131 64.1419 14.4532 64.8619 15.4526 64.6128C16.452 64.3637 22.4957 55.7352 22.4957 55.5292L20.5473 53.3318L17.3001 55.5292L18.1526 50.7225L14.1566 49.7246Z" fill="#FFBE9D"/>
<path d="M27.7618 44.2368H23.7039C23.4223 44.2368 23.1941 44.465 23.1941 44.7466V53.4024C23.1941 53.6839 23.4223 53.9122 23.7039 53.9122H27.7618C28.0433 53.9122 28.2715 53.6839 28.2715 53.4024V44.7466C28.2715 44.465 28.0433 44.2368 27.7618 44.2368Z" fill="#455A64"/>
<path d="M26.4961 49.8239C26.1217 49.7605 25.3887 49.8872 25.3887 49.8872L22.7938 50.2559L23.5729 49.2925C23.5729 49.2925 25.6983 48.9123 26.1433 48.7856C26.1772 48.7789 26.2094 48.7656 26.2381 48.7464C26.2669 48.7271 26.2915 48.7024 26.3107 48.6737C26.3298 48.6449 26.343 48.6126 26.3497 48.5787C26.3563 48.5448 26.3561 48.5099 26.3492 48.476C26.3333 48.3656 26.2771 48.265 26.1916 48.1935C26.106 48.122 25.997 48.0847 25.8855 48.0887L22.971 48.1506L20.9722 49.8959V52.4648L20.3962 53.4397L22.3921 55.5839C22.3921 55.5839 23.7644 54.8423 23.8911 54.5571C23.967 54.3883 23.9996 54.2032 23.9862 54.0186L25.6854 53.4426C25.7798 53.4113 25.861 53.3491 25.9159 53.266C25.9707 53.183 25.996 53.0839 25.9878 52.9847V52.9371L23.8278 52.7773L26.1793 52.3712C26.2518 52.3587 26.3174 52.3203 26.3638 52.2631C26.4101 52.2059 26.4341 52.1338 26.4313 52.0602C26.4285 51.9866 26.399 51.9165 26.3484 51.863C26.2978 51.8095 26.2295 51.7762 26.1562 51.7693L23.4202 51.5087L25.6954 50.7455C26.0764 50.6331 26.4497 50.496 26.8129 50.3351C27.0174 50.2285 26.918 49.9002 26.4961 49.8239Z" fill="#FFBE9D"/>
<path d="M17.7119 55.2485C17.6679 55.2939 17.6197 55.3349 17.5679 55.3709C17.47 55.4458 17.3245 55.5509 17.1445 55.6805C16.786 55.9383 16.2805 56.2839 15.7592 56.7058C15.4972 56.9189 15.2596 57.1378 15.0536 57.338C14.8727 57.5191 14.7034 57.7115 14.5468 57.914C14.2804 58.2653 14.1565 58.5101 14.1436 58.5029C14.1636 58.4419 14.1907 58.3835 14.2242 58.3287C14.2583 58.2613 14.2963 58.1959 14.338 58.1329C14.3889 58.0466 14.4442 57.963 14.5036 57.8823C14.6558 57.6711 14.8233 57.4714 15.0047 57.2847C15.2282 57.0576 15.4643 56.8432 15.7117 56.6425C16.2388 56.2177 16.7485 55.8778 17.1143 55.6345L17.5463 55.3465C17.5978 55.3079 17.6533 55.2751 17.7119 55.2485Z" fill="#EB996E"/>
<path d="M25.9993 45.3959C25.9993 45.442 25.9856 45.4871 25.96 45.5255C25.9343 45.5638 25.8979 45.5937 25.8553 45.6114C25.8126 45.6291 25.7657 45.6337 25.7205 45.6247C25.6752 45.6157 25.6337 45.5935 25.601 45.5608C25.5684 45.5282 25.5462 45.4866 25.5372 45.4414C25.5282 45.3961 25.5328 45.3492 25.5505 45.3066C25.5681 45.264 25.598 45.2275 25.6364 45.2019C25.6748 45.1763 25.7199 45.1626 25.766 45.1626C25.8279 45.1626 25.8872 45.1872 25.9309 45.2309C25.9747 45.2747 25.9993 45.334 25.9993 45.3959Z" fill="#E0E0E0"/>
<path d="M30.7196 50.2792L29.4322 48.3021C29.4322 48.3021 26.5148 47.3373 26.1461 47.4064C25.8668 47.4582 25.8264 47.8614 25.8236 48.0501C25.8236 48.1091 25.8236 48.1465 25.8236 48.1465L26.1994 48.4L27.9144 48.7153L28.9224 49.4051L28.2341 49.0825L26.2181 48.7701C26.0802 48.7454 25.9381 48.7624 25.8099 48.8188C25.6816 48.8752 25.5731 48.9685 25.4981 49.0869C25.4664 49.1401 25.4981 49.1617 25.488 49.2165C25.4636 49.4742 26.3031 49.7248 26.3031 49.7248L27.8165 50.1726L28.3464 51.1518L26.486 50.5758C26.486 50.5758 25.3426 50.9545 25.2677 51.1029C25.1928 51.2512 26.0468 51.6256 26.1159 51.6285C26.185 51.6313 27.5717 52.2721 27.5717 52.2721L26.2066 52.3283L24.7378 52.6019L25.3412 52.8899L26.4932 53.0339L27.481 53.5163L27.4349 54.412C27.4349 54.412 27.8669 55.3321 28.273 55.564C28.6791 55.7958 30.3308 53.548 30.3308 53.548L30.446 52.468L30.721 51.46L30.577 50.8437L30.7196 50.2792Z" fill="#FFBE9D"/>
<path d="M28.2715 55.564L30.384 65.4597C30.384 65.4597 31.0262 67.5433 33.346 67.5433C35.4758 67.5433 36.2563 63.5243 36.2563 63.5243L38.1096 53.6085L33.958 53.2441L32.819 59.1136L30.3307 53.5422L28.2715 55.564Z" fill="#FFBE9D"/>
<path d="M34.2504 64.6733C34.2482 64.5919 34.2535 64.5104 34.2662 64.4299C34.2749 64.3522 34.2835 64.2571 34.2878 64.1419C34.2921 64.0267 34.3051 63.9043 34.3022 63.7647C34.3081 63.4382 34.2942 63.1117 34.2605 62.7869C34.2154 62.3892 34.1428 61.9951 34.043 61.6075C33.9392 61.2211 33.8083 60.8424 33.6513 60.4743C33.5205 60.1748 33.3719 59.8834 33.2064 59.6016C33.1387 59.4792 33.0624 59.3755 33.0077 59.2819C32.9529 59.1883 32.8953 59.1092 32.8493 59.0458C32.7984 58.9819 32.7536 58.9135 32.7153 58.8413C32.7729 58.8991 32.8254 58.9617 32.8723 59.0285C32.9331 59.1021 32.9898 59.1791 33.0422 59.2589C33.1056 59.3511 33.1862 59.4533 33.2525 59.5743C33.4256 59.8546 33.58 60.1461 33.7147 60.4469C33.8762 60.8173 34.0105 61.1989 34.1165 61.5888C34.2172 61.9798 34.2879 62.3779 34.3281 62.7797C34.3599 63.1075 34.369 63.4371 34.3555 63.7661C34.3555 63.9101 34.3382 64.034 34.3296 64.1448C34.3209 64.2557 34.308 64.3508 34.295 64.4328C34.2856 64.5139 34.2707 64.5943 34.2504 64.6733Z" fill="#EB996E"/>
<path d="M38.4191 53.6301C38.411 53.6 38.4061 53.5691 38.4047 53.538C38.398 53.4688 38.3893 53.3796 38.3788 53.2701C38.3586 53.0282 38.3312 52.6941 38.2967 52.2852C38.2276 51.4543 38.1412 50.3037 38.026 49.0365C37.9885 48.6592 37.9597 48.2892 37.9007 47.945C37.8079 47.6281 37.6411 47.3379 37.414 47.0983C37.064 46.7029 36.6741 46.3449 36.2504 46.0298L35.6312 45.7648L35.4671 45.6914C35.448 45.6834 35.4297 45.6737 35.4124 45.6626C35.4124 45.6626 35.434 45.6626 35.4728 45.6799L35.6399 45.7418L36.2677 45.988C36.7017 46.2969 37.1001 46.6528 37.4557 47.0493C37.6932 47.2962 37.8672 47.5972 37.9626 47.9263C38.0245 48.2776 38.0533 48.6463 38.0908 49.0236C38.206 50.2922 38.2852 51.4428 38.3399 52.2751C38.3644 52.6855 38.3845 53.0196 38.3989 53.2629L38.4104 53.5308C38.4165 53.5635 38.4194 53.5968 38.4191 53.6301Z" fill="#263238"/>
<path d="M13.5935 27.6365C17.22 27.6365 20.1599 24.707 20.1599 21.0932C20.1599 17.4794 17.22 14.5498 13.5935 14.5498C9.96698 14.5498 7.0271 17.4794 7.0271 21.0932C7.0271 24.707 9.96698 27.6365 13.5935 27.6365Z" fill="#FAFAFA"/>
<path d="M20.4925 25.8295C20.4296 25.8454 20.3676 25.8646 20.3068 25.8871C20.144 25.9561 20.0067 26.0738 19.9136 26.2241C19.8487 26.3261 19.8069 26.4411 19.7912 26.5611C19.7768 26.6977 19.8018 26.8356 19.8632 26.9585C19.9269 27.1044 20.0338 27.2273 20.1695 27.3105C20.3052 27.3937 20.4631 27.4333 20.622 27.4239C20.7809 27.4145 20.9331 27.3565 21.058 27.2578C21.183 27.1591 21.2746 27.0245 21.3205 26.8721C21.3672 26.7428 21.3752 26.6027 21.3436 26.4689C21.3146 26.3518 21.26 26.2426 21.1837 26.1492C21.0731 26.0107 20.9221 25.91 20.7517 25.8612C20.6887 25.8453 20.6247 25.8333 20.5602 25.8252C20.5602 25.8252 20.5775 25.8252 20.612 25.8252C20.6326 25.8232 20.6534 25.8232 20.674 25.8252C20.7022 25.8277 20.7301 25.8325 20.7575 25.8396C20.9373 25.8834 21.0981 25.9844 21.2154 26.1276C21.2985 26.2242 21.3586 26.3385 21.3911 26.4617C21.4265 26.6045 21.42 26.7545 21.3724 26.8937C21.3192 27.0475 21.2251 27.184 21.1002 27.2883C20.9686 27.4064 20.8008 27.4764 20.6243 27.4868C20.4477 27.4973 20.2729 27.4476 20.1282 27.3459C19.9913 27.2575 19.8816 27.1329 19.8114 26.9859C19.746 26.8519 19.7214 26.7017 19.7408 26.5539C19.7582 26.4303 19.803 26.3122 19.8719 26.2083C19.9725 26.0537 20.1206 25.936 20.2938 25.8727C20.3205 25.8625 20.348 25.8544 20.3759 25.8483C20.3957 25.8433 20.416 25.8399 20.4364 25.8382C20.4752 25.8281 20.4925 25.8267 20.4925 25.8295Z" fill="#263238"/>
<path d="M20.1499 21.6303C20.1499 21.6303 20.1499 21.5943 20.1499 21.5238C20.1499 21.4532 20.1499 21.3481 20.1499 21.2127C20.1499 21.1436 20.1499 21.0687 20.1499 20.9823C20.1499 20.8959 20.1369 20.8067 20.1312 20.7073C20.1254 20.6079 20.1139 20.4999 20.1053 20.3847C20.1025 20.3256 20.0947 20.2669 20.0822 20.2091C20.0707 20.1486 20.0606 20.0867 20.0491 20.0219C19.9447 19.399 19.7466 18.7955 19.4616 18.2319C19.0901 17.4826 18.5777 16.8118 17.9525 16.2563L17.6875 16.0259C17.5939 15.9524 17.4945 15.8819 17.3995 15.8142L17.2555 15.7076C17.2071 15.6693 17.1556 15.6351 17.1014 15.6054L16.776 15.4167C16.7213 15.3851 16.6665 15.3519 16.6104 15.3217L16.4361 15.2425L16.0805 15.0798C15.9595 15.0294 15.8313 14.9934 15.7046 14.9473L15.5145 14.8825C15.4829 14.8724 15.4512 14.8595 15.4181 14.8508L15.3187 14.8278C15.0509 14.7564 14.7786 14.703 14.5037 14.6679C14.3597 14.6521 14.2243 14.6276 14.0817 14.619L13.6497 14.6075C13.5777 14.6075 13.5057 14.6075 13.4309 14.6075L13.212 14.6233C13.068 14.6363 12.924 14.642 12.7699 14.6607C12.4705 14.7031 12.1741 14.7652 11.8829 14.8465L11.6611 14.9099C11.6237 14.9199 11.5862 14.9286 11.5502 14.9415L11.4422 14.9833L11.0102 15.1532C10.8662 15.2166 10.7222 15.2972 10.5869 15.3635C10.5177 15.4009 10.4429 15.4311 10.3766 15.4743L10.1736 15.6025C9.89945 15.7775 9.63683 15.9699 9.38734 16.1785L9.02877 16.5169L8.93949 16.6019C8.91069 16.6321 8.88477 16.6638 8.85597 16.694L8.69181 16.8827L8.52765 17.0699L8.38365 17.2743L8.23965 17.4788L8.16621 17.5811C8.14317 17.6171 8.12301 17.6545 8.10141 17.6905C8.01645 17.8345 7.93005 17.9785 7.84509 18.1326C7.76013 18.2867 7.70109 18.4436 7.63053 18.5991C7.07942 19.8942 6.96715 21.334 7.31085 22.6988L7.45485 23.1942C7.51629 23.3545 7.57821 23.5129 7.64061 23.6694L7.68669 23.7875L7.74429 23.9012L7.85805 24.1259L7.97181 24.3505L8.10573 24.5622L8.23821 24.7724L8.30589 24.8775L8.38221 24.9755L8.68317 25.3657C8.89499 25.6038 9.121 25.8288 9.35997 26.0396L9.53997 26.1966C9.60045 26.2499 9.66813 26.2916 9.73149 26.3406C9.86109 26.4327 9.98637 26.5292 10.1174 26.6142L10.5221 26.8503L10.6214 26.9079L10.7265 26.9569L10.9368 27.0534C11.2115 27.1793 11.4943 27.2866 11.7835 27.3745C11.9275 27.4163 12.0715 27.4451 12.2155 27.4796L12.4286 27.53C12.5006 27.5459 12.5726 27.5502 12.6446 27.5617L13.0766 27.6164C13.2206 27.6294 13.3646 27.6265 13.5086 27.6337C13.7855 27.642 14.0626 27.6314 14.3381 27.602H14.4403L14.5397 27.5847L14.7384 27.5502C14.8694 27.5257 15.0019 27.5099 15.1301 27.4782L15.5059 27.3731L15.6917 27.3212L15.8702 27.2535L16.2201 27.1167C16.2782 27.0957 16.3345 27.0702 16.3886 27.0404L16.5513 26.9583C16.6593 26.9036 16.7673 26.8518 16.871 26.7942L17.1691 26.607C17.8734 26.1557 18.4837 25.5723 18.9662 24.8891C19.0209 24.8142 19.0742 24.7451 19.1246 24.6687L19.2571 24.4427L19.3838 24.2252C19.404 24.1892 19.427 24.1547 19.4443 24.1187C19.4616 24.0827 19.4789 24.0467 19.4947 24.0107L19.6848 23.5988C19.7409 23.4663 19.7784 23.3339 19.8288 23.2115C19.8504 23.151 19.8705 23.0905 19.8907 23.0329C19.9126 22.9779 19.9294 22.921 19.9411 22.863C19.9685 22.7507 19.9929 22.6455 20.016 22.5491C20.039 22.4526 20.0635 22.3619 20.0779 22.2783L20.1096 22.0523C20.1283 21.9169 20.1427 21.8147 20.1528 21.7441C20.1629 21.6735 20.1686 21.639 20.1686 21.639C20.1686 21.639 20.1686 21.6735 20.1585 21.7441C20.1485 21.8147 20.1369 21.9183 20.1211 22.0537C20.1125 22.1214 20.1038 22.1977 20.0937 22.2812C20.0837 22.3647 20.0549 22.454 20.0347 22.5519C20.0145 22.6499 19.9872 22.755 19.9613 22.8687C19.9501 22.9272 19.9337 22.9846 19.9123 23.0401C19.8921 23.0977 19.872 23.1582 19.8518 23.2201C19.8072 23.3425 19.7712 23.475 19.715 23.6089C19.6589 23.7428 19.5926 23.8782 19.5264 24.0236C19.5105 24.0596 19.4933 24.0956 19.4774 24.1331C19.4616 24.1705 19.4371 24.2036 19.4169 24.2396L19.2902 24.4585L19.1577 24.686C19.1088 24.7609 19.0541 24.83 19.0008 24.9092C18.5165 25.5958 17.9044 26.1825 17.1979 26.6372L16.8998 26.8273C16.7947 26.8849 16.6853 26.9367 16.5773 26.9929L16.4131 27.0764C16.3584 27.1064 16.3016 27.1324 16.2432 27.1542L15.8918 27.291C15.8313 27.314 15.7723 27.3385 15.7118 27.3601L15.5261 27.4134L15.1473 27.5199C15.0177 27.5516 14.8853 27.5689 14.7528 27.5934L14.5526 27.6294C14.5195 27.6294 14.4864 27.6423 14.4518 27.6452L14.3496 27.6539C14.0718 27.6838 13.7922 27.6949 13.5129 27.687C13.3689 27.687 13.2249 27.687 13.0809 27.6711L12.6489 27.615C12.5769 27.6049 12.5049 27.5991 12.4315 27.5847L12.2155 27.5343C12.0715 27.4983 11.9275 27.471 11.7835 27.4292C11.4919 27.3404 11.2067 27.2321 10.9296 27.1052L10.7179 27.0087L10.6113 26.9598L10.5105 26.9007L10.08 26.6617C9.94749 26.5753 9.82077 26.4774 9.68973 26.3852C9.62637 26.3377 9.55725 26.2959 9.49677 26.2412L9.31533 26.0814C9.06869 25.8669 8.83635 25.6365 8.61981 25.3916L8.31453 24.9985L8.23821 24.9006L8.17053 24.794L8.03661 24.5823L7.90125 24.3692L7.78605 24.1431L7.67085 23.9156L7.61325 23.8004L7.56573 23.6823C7.50381 23.5225 7.44189 23.3627 7.37853 23.2014C7.31517 23.0401 7.28637 22.8702 7.23453 22.7017C6.8875 21.3243 7.00131 19.8711 7.55853 18.5646L7.77453 18.0923C7.86093 17.9483 7.94733 17.7956 8.03229 17.6473C8.05533 17.6113 8.07549 17.5739 8.09853 17.5379L8.17197 17.4342L8.31597 17.2268L8.45997 17.0209L8.63997 16.8337L8.80557 16.6436C8.83437 16.6134 8.86029 16.5803 8.88909 16.55L8.97981 16.4651L9.34845 16.1281C9.59951 15.9183 9.86461 15.7258 10.1419 15.5521L10.3464 15.4225C10.4141 15.3793 10.4904 15.3491 10.5581 15.3116C10.7021 15.2411 10.8461 15.1676 10.9901 15.0999L11.4307 14.9286L11.5387 14.8868C11.5761 14.8739 11.6136 14.8652 11.651 14.8537L11.8757 14.7918C12.1693 14.7098 12.468 14.6473 12.7699 14.6046C12.9139 14.5859 13.068 14.5801 13.2163 14.5686L13.4366 14.5527C13.5101 14.5527 13.5806 14.5527 13.6569 14.5527L14.0889 14.5643C14.2329 14.5743 14.3769 14.5988 14.5209 14.6161C14.798 14.6503 15.0723 14.7042 15.3417 14.7774L15.4411 14.8019C15.4742 14.8105 15.5059 14.8235 15.539 14.8335L15.7305 14.8998C15.8573 14.9444 15.9869 14.9819 16.1093 15.0337L16.4664 15.1979L16.6421 15.2785C16.6997 15.3087 16.7544 15.3433 16.8091 15.375L17.136 15.5665C17.1895 15.5972 17.241 15.6314 17.2901 15.6687L17.4341 15.7767C17.5334 15.8487 17.6328 15.9207 17.7221 15.9913C17.8113 16.0619 17.9006 16.1483 17.9885 16.2246C18.6161 16.7853 19.1295 17.462 19.5005 18.2175C19.7831 18.7852 19.9773 19.3927 20.0765 20.019C20.0865 20.0823 20.0981 20.1443 20.1081 20.2062C20.1201 20.2646 20.1278 20.3238 20.1312 20.3833C20.1312 20.4985 20.1456 20.6051 20.1528 20.7059C20.16 20.8067 20.1686 20.8974 20.1701 20.9823L20.1614 21.2127C20.1614 21.3481 20.1528 21.4518 20.1499 21.5238C20.147 21.5958 20.1499 21.6303 20.1499 21.6303Z" fill="#263238"/>
<path d="M11.5603 19.5208H12.7123C12.7123 19.5208 12.7123 18.5589 13.7116 18.5416C13.9043 18.5346 14.0945 18.5878 14.2555 18.6939C14.4166 18.8 14.5405 18.9536 14.6102 19.1334C14.6705 19.2835 14.6946 19.4458 14.6803 19.607C14.666 19.7681 14.6139 19.9236 14.5281 20.0608C14.3337 20.3819 13.9089 20.6728 13.1356 20.5374V23.1208H14.2689V21.6074C14.2689 21.6074 15.8529 21.197 15.8529 19.4474C15.8529 17.7726 14.3495 17.3838 13.7073 17.3838C13.2148 17.381 11.5387 17.499 11.5603 19.5208Z" fill="#263238"/>
<path d="M14.2775 23.6533H13.127V24.7276H14.2775V23.6533Z" fill="#263238"/>
</svg>
