<svg width="68" height="68" viewBox="0 0 68 68" fill="none" xmlns="http://www.w3.org/2000/svg">
<path d="M33.9999 67.4952C52.4988 67.4952 67.4952 52.4988 67.4952 33.9999C67.4952 15.5011 52.4988 0.504737 33.9999 0.504737C15.5011 0.504737 0.504737 15.5011 0.504737 33.9999C0.504737 52.4988 15.5011 67.4952 33.9999 67.4952Z" fill="white" stroke="#263238" stroke-linecap="round" stroke-linejoin="round"/>
<path d="M44.4276 3.70096C44.4276 3.70096 43.4832 1.54394 40.9183 2.75657C38.3533 3.96919 38.4875 5.86356 38.4875 5.86356C38.4875 5.86356 34.844 8.2944 35.1346 9.91495C35.4252 11.5355 37.029 14.3855 37.029 14.3855C37.029 14.3855 35.1346 17.4924 35.4084 18.9733C35.6822 20.4542 36.4869 24.1032 36.621 24.5111C36.7551 24.9191 33.3799 26.2658 33.922 28.0205C34.464 29.7751 35.8108 31.9322 36.3528 32.0719C36.8949 32.2116 38.2416 32.748 38.2416 32.748C38.2416 32.748 39.0519 36.9335 39.9963 38.2803C40.517 39.0565 41.2091 39.7027 42.0192 40.1691C42.0192 40.1691 44.1818 44.2204 50.5299 45.4387C56.878 46.6569 59.9347 38.5373 59.9347 38.5373C59.9347 38.5373 61.8235 36.1065 62.0917 34.8883C62.3599 33.6701 61.8235 29.2219 61.9576 28.814C62.794 27.1918 63.1672 25.3704 63.0361 23.55C62.7679 20.7112 61.1473 16.2854 59.8006 15.1678C59.0335 14.5428 58.1167 14.1287 57.1406 13.9663C57.1406 13.9663 53.4972 8.83086 51.8766 8.02058C50.9996 7.55531 50.034 7.28106 49.0434 7.21589L44.4276 3.70096Z" fill="#92E3A9" stroke="#263238" stroke-linecap="round" stroke-linejoin="round"/>
<path d="M46.2155 8.36708C46.6536 7.92372 47.0502 7.44112 47.4002 6.92535" stroke="#263238" stroke-linecap="round" stroke-linejoin="round"/>
<path d="M37.9507 13.8265C40.4016 12.6835 42.7149 11.2662 44.8464 9.60183" stroke="#263238" stroke-linecap="round" stroke-linejoin="round"/>
<path d="M38.219 23.5502C38.219 23.5502 52.5302 17.61 55.6372 14.9109" stroke="#263238" stroke-linecap="round" stroke-linejoin="round"/>
<path d="M53.8994 28.6075C56.0781 28.2506 58.2898 28.1381 60.4934 28.2722" stroke="#263238" stroke-linecap="round" stroke-linejoin="round"/>
<path d="M40.1079 31.921C44.1044 30.6402 48.1791 29.6173 52.3067 28.8587" stroke="#263238" stroke-linecap="round" stroke-linejoin="round"/>
<path d="M52.4687 39.0008C55.151 38.8499 57.9172 38.6823 59.9568 38.537" stroke="#263238" stroke-linecap="round" stroke-linejoin="round"/>
<path d="M43.483 39.4818C43.483 39.4818 46.5956 39.3254 50.3453 39.1186" stroke="#263238" stroke-linecap="round" stroke-linejoin="round"/>
<path d="M20.2866 28.5852C26.8017 28.5852 32.0831 23.3037 32.0831 16.7887C32.0831 10.2737 26.8017 4.99216 20.2866 4.99216C13.7716 4.99216 8.49008 10.2737 8.49008 16.7887C8.49008 23.3037 13.7716 28.5852 20.2866 28.5852Z" fill="white" stroke="#263238" stroke-linecap="round" stroke-linejoin="round"/>
<path d="M32.3212 17.6335C33.9059 10.9869 29.8023 4.31408 23.1557 2.7294C16.5091 1.14473 9.83629 5.24825 8.25161 11.8949C6.66693 18.5415 10.7705 25.2143 17.4171 26.799C24.0637 28.3836 30.7365 24.2801 32.3212 17.6335Z" fill="white" stroke="#263238" stroke-linecap="round" stroke-linejoin="round"/>
<path d="M20.2868 25.5394C26.237 25.5394 31.0607 20.7157 31.0607 14.7655C31.0607 8.8152 26.237 3.99156 20.2868 3.99156C14.3365 3.99156 9.51286 8.8152 9.51286 14.7655C9.51286 20.7157 14.3365 25.5394 20.2868 25.5394Z" fill="#D1D1D1" stroke="#263238" stroke-linecap="round" stroke-linejoin="round"/>
<path d="M27.6181 25.5113L25.9417 26.886C25.9417 26.886 30.4737 30.8759 31.6919 30.8759C32.9101 30.8759 34.1171 29.6633 34.0165 28.853C33.916 28.0428 29.7584 23.6896 29.7584 23.6896L27.6181 25.5113Z" fill="white" stroke="#263238" stroke-linecap="round" stroke-linejoin="round"/>
<path d="M27.6181 25.5109L31.3621 29.3555" stroke="#263238" stroke-linecap="round" stroke-linejoin="round"/>
<path d="M16.1293 10.0271C16.5491 10.0271 16.8893 9.6868 16.8893 9.26707C16.8893 8.84734 16.5491 8.50709 16.1293 8.50709C15.7096 8.50709 15.3693 8.84734 15.3693 9.26707C15.3693 9.6868 15.7096 10.0271 16.1293 10.0271Z" fill="#263238"/>
<path d="M19.9291 8.70796C20.1513 8.70796 20.3315 8.52783 20.3315 8.30562C20.3315 8.08341 20.1513 7.90327 19.9291 7.90327C19.7069 7.90327 19.5268 8.08341 19.5268 8.30562C19.5268 8.52783 19.7069 8.70796 19.9291 8.70796Z" fill="#263238"/>
<path d="M19.3701 13.871C19.6232 13.871 19.8283 13.6659 19.8283 13.4128C19.8283 13.1597 19.6232 12.9546 19.3701 12.9546C19.117 12.9546 18.9119 13.1597 18.9119 13.4128C18.9119 13.6659 19.117 13.871 19.3701 13.871Z" fill="#263238"/>
<path d="M23.8742 12.9096C23.8742 13.0201 23.8414 13.1282 23.78 13.22C23.7186 13.3119 23.6313 13.3836 23.5292 13.4259C23.4271 13.4682 23.3147 13.4792 23.2063 13.4577C23.0979 13.4361 22.9984 13.3829 22.9202 13.3047C22.8421 13.2266 22.7888 13.127 22.7673 13.0186C22.7457 12.9102 22.7568 12.7979 22.7991 12.6957C22.8414 12.5936 22.913 12.5064 23.0049 12.445C23.0968 12.3835 23.2048 12.3508 23.3154 12.3508C23.4636 12.3508 23.6057 12.4097 23.7105 12.5144C23.8153 12.6192 23.8742 12.7614 23.8742 12.9096Z" fill="#263238"/>
<path d="M23.2653 11.6471C23.6017 11.6471 23.8744 11.3744 23.8744 11.038C23.8744 10.7016 23.6017 10.4289 23.2653 10.4289C22.9289 10.4289 22.6562 10.7016 22.6562 11.038C22.6562 11.3744 22.9289 11.6471 23.2653 11.6471Z" fill="#263238"/>
<path d="M21.801 7.79714C22.2207 7.79714 22.5609 7.45689 22.5609 7.03716C22.5609 6.61743 22.2207 6.27717 21.801 6.27717C21.3812 6.27717 21.041 6.61743 21.041 7.03716C21.041 7.45689 21.3812 7.79714 21.801 7.79714Z" fill="#263238"/>
<path d="M26.0986 10.3281C26.435 10.3281 26.7077 10.0554 26.7077 9.71902C26.7077 9.38262 26.435 9.10991 26.0986 9.10991C25.7622 9.10991 25.4895 9.38262 25.4895 9.71902C25.4895 10.0554 25.7622 10.3281 26.0986 10.3281Z" fill="#263238"/>
<path d="M26.607 14.0722C26.7736 14.0722 26.9087 13.9371 26.9087 13.7704C26.9087 13.6038 26.7736 13.4687 26.607 13.4687C26.4403 13.4687 26.3052 13.6038 26.3052 13.7704C26.3052 13.9371 26.4403 14.0722 26.607 14.0722Z" fill="white" stroke="#263238" stroke-linecap="round" stroke-linejoin="round"/>
<path d="M23.064 16.3022C23.4004 16.3022 23.6731 16.0295 23.6731 15.6931C23.6731 15.3567 23.4004 15.0839 23.064 15.0839C22.7276 15.0839 22.4549 15.3567 22.4549 15.6931C22.4549 16.0295 22.7276 16.3022 23.064 16.3022Z" fill="#263238"/>
<path d="M15.6763 12.9098C15.6749 13.0037 15.6365 13.0933 15.5696 13.1591C15.5027 13.225 15.4126 13.2619 15.3187 13.2619C15.2253 13.2619 15.1358 13.2248 15.0697 13.1588C15.0037 13.0928 14.9666 13.0032 14.9666 12.9098C14.9666 12.8165 15.0037 12.7269 15.0697 12.6609C15.1358 12.5949 15.2253 12.5578 15.3187 12.5578C15.4126 12.5578 15.5027 12.5947 15.5696 12.6606C15.6365 12.7264 15.6749 12.816 15.6763 12.9098Z" fill="#263238"/>
<path d="M17.5989 11.9539C17.5989 12.0544 17.5691 12.1527 17.5132 12.2364C17.4574 12.32 17.3779 12.3852 17.285 12.4237C17.1921 12.4622 17.0898 12.4722 16.9912 12.4526C16.8926 12.433 16.802 12.3846 16.7308 12.3134C16.6597 12.2423 16.6113 12.1517 16.5917 12.0531C16.572 11.9544 16.5821 11.8522 16.6206 11.7593C16.6591 11.6663 16.7243 11.5869 16.8079 11.531C16.8915 11.4752 16.9898 11.4453 17.0904 11.4453C17.1574 11.4446 17.2239 11.4572 17.2859 11.4825C17.3479 11.5078 17.4043 11.5452 17.4517 11.5926C17.499 11.64 17.5365 11.6963 17.5617 11.7584C17.587 11.8204 17.5997 11.8869 17.5989 11.9539Z" fill="#263238"/>
<path d="M14.056 9.92582C14.0443 10.0251 13.9966 10.1166 13.9219 10.183C13.8473 10.2494 13.7508 10.2861 13.6509 10.2861C13.5509 10.2861 13.4545 10.2494 13.3798 10.183C13.3051 10.1166 13.2574 10.0251 13.2457 9.92582C13.239 9.86862 13.2445 9.81065 13.2618 9.75571C13.279 9.70077 13.3078 9.65012 13.346 9.60708C13.3843 9.56404 13.4313 9.5296 13.4838 9.50601C13.5363 9.48242 13.5933 9.47023 13.6509 9.47023C13.7085 9.47023 13.7654 9.48242 13.8179 9.50601C13.8705 9.5296 13.9174 9.56404 13.9557 9.60708C13.994 9.65012 14.0227 9.70077 14.04 9.75571C14.0573 9.81065 14.0627 9.86862 14.056 9.92582Z" fill="#263238"/>
<path d="M12.5359 12.2512C12.5359 12.2512 16.9114 18.2584 21.5664 17.8393C26.2213 17.4202 27.5177 14.3635 28.4286 16.1629C29.3394 17.9623 28.6968 20.6334 25.3942 22.5389C20.2867 25.5006 14.1118 22.6339 12.1839 19.9014C10.256 17.1688 9.30042 12.4524 12.5359 12.2512Z" fill="#263238" stroke="#263238" stroke-linecap="round" stroke-linejoin="round"/>
<path d="M14.2573 34.4294C14.2573 34.4294 12.363 34.0214 8.7195 35.3738C5.07604 36.7261 5.47839 43.4765 7.90922 45.4994C9.58139 46.8182 11.45 47.8666 13.4471 48.6064C13.4471 48.6064 12.7709 51.3055 14.2573 52.384C15.7438 53.4625 19.7896 54.8148 19.7896 54.8148C19.7437 55.608 19.8642 56.402 20.1433 57.1459C20.4224 57.8898 20.8539 58.5672 21.4101 59.1345C23.2989 61.0232 26.54 61.0232 27.2162 60.4868C27.8924 59.9503 28.8368 59.2686 28.8368 59.2686C28.8368 59.2686 33.0223 62.5097 34.6428 61.9676C36.2634 61.4256 37.9957 60.6209 37.9957 60.6209C37.9957 60.6209 41.7733 62.9176 44.8803 62.6438C47.9872 62.37 51.4966 61.2971 51.6307 59.0003C51.7648 56.7036 49.876 53.1943 49.4681 52.5181C49.0565 51.686 48.6963 50.8294 48.3896 49.9532C48.3896 49.9532 48.9484 49.0088 47.5793 47.3882C46.2102 45.7677 42.6115 42.6886 42.3377 42.1298C42.0638 41.571 41.9297 38.8887 41.1194 37.6593C40.3092 36.4299 31.804 32.2556 29.3844 32.1215C27.786 32.0846 26.2041 32.4517 24.7854 33.1888C24.7854 33.1888 24.2265 32.9206 20.4657 32.2444C16.7049 31.5682 14.6708 32.5406 14.2573 34.4294Z" fill="#92E3A9" stroke="#263238" stroke-linecap="round" stroke-linejoin="round"/>
<path d="M14.257 42.1751C14.1601 43.8325 13.9735 45.4834 13.6981 47.1206" stroke="#263238" stroke-linecap="round" stroke-linejoin="round"/>
<path d="M14.3912 36.3189C14.3912 36.3189 14.4359 38.3194 14.3241 40.89" stroke="#263238" stroke-linecap="round" stroke-linejoin="round"/>
<path d="M23.55 46.2263C21.5551 51.9877 19.7892 54.8153 19.7892 54.8153" stroke="#263238" stroke-linecap="round" stroke-linejoin="round"/>
<path d="M25.0535 34.6982C25.0535 34.6982 26.1376 38.3472 23.975 44.958" stroke="#263238" stroke-linecap="round" stroke-linejoin="round"/>
<path d="M39.1689 46.0868C37.1516 49.5906 33.6199 55.2961 30.3229 58.593" stroke="#263238" stroke-linecap="round" stroke-linejoin="round"/>
<path d="M40.851 43.0692C40.851 43.0692 40.5214 43.6951 39.9514 44.7177" stroke="#263238" stroke-linecap="round" stroke-linejoin="round"/>
<path d="M45.3158 54.3125C43.2761 56.5477 40.1412 59.7721 38.0177 60.6214" stroke="#263238" stroke-linecap="round" stroke-linejoin="round"/>
<path d="M47.333 51.9825C47.333 51.9825 46.8804 52.5413 46.1595 53.3628" stroke="#263238" stroke-linecap="round" stroke-linejoin="round"/>
</svg>
