<svg width="108" height="108" viewBox="0 0 108 108" fill="none" xmlns="http://www.w3.org/2000/svg">
<g clip-path="url(#clip0_80_31520)">
<path d="M101.593 102.192C101.593 102.224 80.2829 102.248 54.0022 102.248C27.7215 102.248 6.40662 102.224 6.40662 102.192C6.40662 102.159 27.7129 102.136 54.0022 102.136C80.2916 102.136 101.593 102.168 101.593 102.192Z" fill="#263238"/>
<path d="M97.969 102.192C97.8803 102.057 97.8078 101.912 97.753 101.76C97.6363 101.486 97.4851 101.112 97.321 100.68C97.1568 100.248 97.0186 99.9174 96.889 99.5999C96.8201 99.454 96.7624 99.303 96.7162 99.1484C96.819 99.274 96.9021 99.4146 96.9624 99.5653C97.0942 99.8353 97.2562 100.213 97.4225 100.645C97.5888 101.077 97.7292 101.455 97.8264 101.725C97.8905 101.875 97.9383 102.032 97.969 102.192Z" fill="#263238"/>
<path d="M98.9626 102.235C98.9302 102.235 98.8201 101.516 98.6192 100.634C98.4183 99.7531 98.2088 99.0533 98.239 99.0425C98.3187 99.183 98.3796 99.3333 98.4204 99.4896C98.5155 99.7726 98.6364 100.168 98.7293 100.611C98.8222 101.053 98.8956 101.46 98.9324 101.753C98.9635 101.912 98.9737 102.074 98.9626 102.235Z" fill="#263238"/>
<path d="M100.725 99.2349C100.755 99.2521 100.431 99.9001 100.103 100.727C99.7747 101.555 99.5608 102.239 99.5284 102.239C99.5426 102.081 99.576 101.925 99.6278 101.775C99.8393 101.039 100.124 100.325 100.477 99.6453C100.542 99.4984 100.625 99.3604 100.725 99.2349Z" fill="#263238"/>
<path d="M48.7901 102.192C48.2891 101.46 47.8498 100.689 47.4768 99.8848C47.9799 100.615 48.4193 101.386 48.7901 102.192Z" fill="#263238"/>
<path d="M49.7232 102.168C49.4572 101.273 49.265 100.358 49.1487 99.4312C49.412 100.327 49.6041 101.242 49.7232 102.168Z" fill="#263238"/>
<path d="M51.6909 99.7251C51.504 100.157 51.2814 100.574 51.0257 100.969C50.8034 101.384 50.5484 101.781 50.2632 102.155C50.4505 101.724 50.673 101.308 50.9285 100.913C51.1517 100.498 51.4066 100.101 51.6909 99.7251Z" fill="#263238"/>
<path d="M12.0269 102.191C11.7835 101.876 11.5709 101.537 11.3918 101.181C11.1791 100.844 10.999 100.487 10.854 100.116C11.0965 100.432 11.3091 100.771 11.489 101.127C11.7008 101.464 11.8808 101.821 12.0269 102.191Z" fill="#263238"/>
<path d="M12.5475 98.8418C12.6674 99.3924 12.7518 99.9501 12.8002 100.511C12.885 101.068 12.9312 101.629 12.9384 102.192C12.7347 101.085 12.604 99.9659 12.5475 98.8418Z" fill="#263238"/>
<path d="M14.5778 99.9062C14.5155 100.301 14.4157 100.69 14.2797 101.066C14.1801 101.453 14.0442 101.83 13.8737 102.192C13.9364 101.797 14.0362 101.409 14.1717 101.034C14.2739 100.647 14.4098 100.27 14.5778 99.9062Z" fill="#263238"/>
<path d="M30.6115 95.0398C30.7735 95.1168 30.9182 95.2258 31.037 95.3602C31.1558 95.4945 31.2462 95.6515 31.3027 95.8217C31.4135 96.1637 31.4453 96.5263 31.3956 96.8823C31.3157 97.5713 30.9247 98.2647 30.5057 98.8155C29.9246 98.31 29.7929 97.4266 29.7519 96.9752C29.6892 96.2602 30.0111 94.9318 30.6159 95.0312" fill="#455A64"/>
<path d="M31.1775 99.9411C31.1378 99.7445 31.1512 99.5409 31.2161 99.3511C31.281 99.1613 31.3951 98.9922 31.5468 98.8611C31.7 98.7324 31.8772 98.6354 32.0682 98.5757C32.2591 98.516 32.46 98.4948 32.6592 98.5133C32.7518 98.5114 32.8436 98.5298 32.9283 98.5671C33.013 98.6044 33.0885 98.6598 33.1496 98.7293C33.1936 98.8043 33.2168 98.8897 33.2168 98.9766C33.2168 99.0636 33.1936 99.149 33.1496 99.224C33.0622 99.374 32.9361 99.4978 32.7845 99.5825C32.2834 99.8979 31.7391 100.11 31.171 99.9389" fill="#455A64"/>
<path d="M30.4344 102.052C30.4381 102.004 30.4453 101.957 30.456 101.911C30.4733 101.812 30.4971 101.682 30.5252 101.529C30.5903 101.103 30.7238 100.691 30.9204 100.308C31.1247 99.9255 31.4274 99.6041 31.7974 99.3774C31.9093 99.3104 32.029 99.2574 32.1538 99.2198C32.1876 99.2083 32.2223 99.1996 32.2575 99.1938C32.2812 99.1938 32.292 99.1938 32.2942 99.1938C32.1271 99.2485 31.9663 99.3209 31.8147 99.4098C31.458 99.6418 31.1654 99.9597 30.9637 100.334C30.7711 100.714 30.635 101.119 30.5597 101.537C30.5252 101.697 30.4971 101.827 30.4755 101.918C30.4677 101.964 30.4539 102.009 30.4344 102.052Z" fill="#263238"/>
<path d="M30.456 96.064C30.4583 96.0848 30.4583 96.1058 30.456 96.1266L30.4668 96.3037C30.4668 96.4571 30.4841 96.6796 30.4927 96.9517C30.51 97.5025 30.523 98.265 30.5208 99.1117C30.5187 99.9584 30.4971 100.714 30.4733 101.272C30.4625 101.548 30.4517 101.771 30.4409 101.92C30.4409 101.991 30.4409 102.049 30.4301 102.097C30.4322 102.117 30.4322 102.137 30.4301 102.157C30.4278 102.137 30.4278 102.116 30.4301 102.095C30.4301 102.049 30.4301 101.991 30.4301 101.918C30.4301 101.758 30.4409 101.535 30.4474 101.27C30.4604 100.719 30.4755 99.9563 30.4798 99.1096C30.4841 98.2628 30.4798 97.5068 30.4647 96.9496C30.4647 96.6796 30.4647 96.4571 30.4647 96.3016V96.1201C30.456 96.0856 30.456 96.064 30.456 96.064Z" fill="#263238"/>
<path d="M30.1752 100.36C30.1046 99.9441 29.9362 99.5509 29.6838 99.2129C29.4315 98.8749 29.1024 98.6018 28.7237 98.416C28.5293 98.3231 28.2765 98.2626 28.1167 98.416C27.9569 98.5693 27.9936 98.8177 28.0713 99.0186C28.2417 99.434 28.5311 99.7897 28.9032 100.041C29.2752 100.292 29.7132 100.428 30.1622 100.431" fill="#455A64"/>
<path d="M28.8166 99.064C28.8594 99.0776 28.9007 99.0957 28.9397 99.118C28.9875 99.1392 29.0337 99.1637 29.078 99.1914C29.1388 99.2259 29.198 99.2633 29.2551 99.3037C29.3257 99.3501 29.3935 99.4006 29.4581 99.4549C29.5339 99.5162 29.606 99.5818 29.6741 99.6515C29.8295 99.8106 29.9664 99.9866 30.0824 100.176C30.1945 100.369 30.2851 100.573 30.3524 100.785C30.3809 100.878 30.4032 100.973 30.4193 101.068C30.4362 101.151 30.4477 101.235 30.4539 101.319C30.458 101.391 30.458 101.463 30.4539 101.535C30.4539 101.595 30.4539 101.649 30.4539 101.693C30.4523 101.738 30.4473 101.782 30.4388 101.827C30.4388 101.827 30.4388 101.634 30.4128 101.33C30.4036 101.247 30.3899 101.165 30.3718 101.084C30.3534 100.99 30.3296 100.898 30.3005 100.807C30.2333 100.598 30.1435 100.398 30.0327 100.209C29.9184 100.022 29.7844 99.8484 29.6331 99.6904C29.5656 99.6201 29.4934 99.5544 29.4171 99.4938C29.3552 99.4384 29.2903 99.3865 29.2227 99.3383C28.9851 99.1439 28.8123 99.0748 28.8166 99.064Z" fill="#263238"/>
<path d="M88.9553 92.962C89.169 93.0644 89.3598 93.2088 89.5164 93.3865C89.6731 93.5643 89.7922 93.7718 89.8668 93.9967C90.0145 94.4477 90.0566 94.9265 89.9899 95.3964C89.8863 96.3057 89.37 97.2237 88.8128 97.9495C88.0481 97.282 87.8732 96.1156 87.8192 95.5195C87.7371 94.5777 88.1604 92.8216 88.9553 92.962Z" fill="#455A64"/>
<path d="M89.7027 99.4486C89.6517 99.1889 89.6697 98.9204 89.755 98.6698C89.8403 98.4193 89.9898 98.1955 90.1887 98.0208C90.3913 97.8507 90.6256 97.7224 90.8781 97.6434C91.1306 97.5645 91.3962 97.5364 91.6597 97.5608C91.7824 97.5591 91.904 97.5843 92.016 97.6347C92.128 97.6851 92.2275 97.7594 92.3077 97.8524C92.3662 97.9499 92.398 98.0612 92.3999 98.1749C92.4018 98.2887 92.3737 98.4009 92.3185 98.5004C92.2028 98.6986 92.0366 98.8626 91.8368 98.9756C91.1737 99.3925 90.4544 99.6732 89.7049 99.4464" fill="#455A64"/>
<path d="M88.722 102.235C88.7263 102.172 88.7357 102.11 88.7501 102.049L88.8408 101.544C88.928 100.982 89.1045 100.438 89.3636 99.9324C89.6326 99.4273 90.0315 99.003 90.5192 98.7034C90.6677 98.6128 90.8265 98.5403 90.9922 98.4874C91.037 98.4736 91.0824 98.4621 91.1283 98.4528C91.144 98.45 91.1601 98.45 91.1758 98.4528C90.797 98.575 90.4465 98.7717 90.1449 99.0314C89.8433 99.291 89.5968 99.6084 89.4197 99.9648C89.1652 100.466 88.9861 101.001 88.8884 101.555C88.8408 101.771 88.8041 101.937 88.7739 102.056C88.763 102.117 88.7457 102.177 88.722 102.235Z" fill="#263238"/>
<path d="M88.7501 94.3271C88.7569 94.354 88.7605 94.3815 88.7609 94.4092C88.7609 94.4697 88.7653 94.5475 88.7739 94.6425C88.7847 94.8455 88.7977 95.1415 88.8085 95.5065C88.8322 96.2366 88.8495 97.2345 88.8452 98.3534C88.8409 99.4723 88.8128 100.472 88.7847 101.2C88.7696 101.565 88.7545 101.859 88.7415 102.064C88.7415 102.159 88.7415 102.237 88.7264 102.298C88.7295 102.325 88.7295 102.352 88.7264 102.38C88.724 102.352 88.724 102.325 88.7264 102.298C88.7264 102.237 88.7264 102.159 88.7264 102.064C88.7264 101.848 88.7393 101.559 88.748 101.2C88.7653 100.472 88.7847 99.4723 88.7912 98.3555C88.7977 97.2388 88.7912 96.2387 88.7717 95.5108C88.7717 95.1523 88.7717 94.8628 88.7588 94.6468C88.7588 94.5496 88.7588 94.4719 88.7588 94.4114C88.7539 94.3835 88.751 94.3554 88.7501 94.3271Z" fill="#263238"/>
<path d="M88.3785 100.008C88.2872 99.4568 88.0654 98.9357 87.7318 98.4878C87.3981 98.0399 86.9622 97.6783 86.4604 97.4331C86.2034 97.3099 85.8708 97.23 85.6591 97.4201C85.4474 97.6102 85.4971 97.9515 85.5986 98.2171C85.8235 98.766 86.2059 99.2359 86.6975 99.5677C87.1892 99.8995 87.7681 100.078 88.3612 100.081" fill="#455A64"/>
<path d="M86.5836 98.2905C86.6402 98.3071 86.6945 98.3303 86.7456 98.3596C86.8085 98.3897 86.8697 98.4228 86.9292 98.459C87.0098 98.5034 87.0877 98.5524 87.1625 98.6059C87.2557 98.6674 87.3452 98.7345 87.4303 98.8068C87.5302 98.887 87.6254 98.9728 87.7155 99.0638C88.1317 99.4832 88.4394 99.9977 88.6119 100.563C88.649 100.686 88.6793 100.812 88.7026 100.939C88.7241 101.048 88.7392 101.158 88.7479 101.269C88.7609 101.371 88.7479 101.464 88.7609 101.546C88.7648 101.618 88.7648 101.69 88.7609 101.762C88.7599 101.82 88.7534 101.879 88.7415 101.937C88.7263 101.937 88.7523 101.684 88.7069 101.289C88.6939 101.189 88.681 101.073 88.6551 100.962C88.6291 100.852 88.5967 100.725 88.56 100.597C88.4709 100.323 88.3521 100.058 88.2058 99.809C88.0541 99.5626 87.8775 99.3324 87.6788 99.1221C87.591 99.0311 87.4987 98.9446 87.4023 98.8629C87.3137 98.783 87.223 98.7182 87.1431 98.6577C86.8083 98.4072 86.5771 98.3035 86.5836 98.2905Z" fill="#263238"/>
<path d="M90.6249 19.4745C90.6249 19.4745 90.4673 19.4205 90.1757 19.3557C89.7636 19.2649 89.3385 19.2489 88.9207 19.3082C88.3011 19.3896 87.7163 19.6416 87.2316 20.0361C86.6371 20.5201 86.2176 21.1854 86.0371 21.9304V21.952L86.0025 22.0859L85.9507 21.9585C85.6596 21.2519 85.162 20.6496 84.5229 20.2305C83.998 19.8935 83.3959 19.6957 82.7733 19.6559C82.3544 19.6258 81.9334 19.6645 81.527 19.7704C81.2397 19.846 81.095 19.913 81.0842 19.9043C81.1183 19.8833 81.1545 19.8659 81.1922 19.8525C81.2983 19.8066 81.4073 19.7677 81.5184 19.7358C82.0274 19.5862 82.5627 19.5473 83.088 19.6218C83.6133 19.6963 84.1166 19.8825 84.564 20.1678C85.222 20.5902 85.7341 21.2048 86.0306 21.9282H85.9442V21.9066C86.1281 21.1408 86.5603 20.4572 87.1733 19.9626C87.6698 19.563 88.2685 19.3108 88.9013 19.2347C89.3265 19.1815 89.7579 19.2079 90.1735 19.3125C90.2859 19.3396 90.3963 19.3743 90.504 19.4162C90.5459 19.4322 90.5863 19.4517 90.6249 19.4745Z" fill="#263238"/>
<path d="M91.8561 11.1754C91.8561 11.1754 91.7676 11.1495 91.6077 11.1171C91.3816 11.0714 91.1492 11.0648 90.9208 11.0977C90.5833 11.1431 90.2652 11.2823 90.0028 11.4994C89.6797 11.7626 89.4521 12.1246 89.3548 12.5298V12.5406L89.3203 12.6766L89.2684 12.5492C89.1109 12.1642 88.8406 11.8359 88.493 11.6074C88.2081 11.4227 87.8812 11.3127 87.5426 11.2878C87.3135 11.2691 87.083 11.2881 86.86 11.3439C86.7002 11.3828 86.616 11.4174 86.6138 11.4087C86.6116 11.4001 86.6332 11.3958 86.6721 11.3763C86.7293 11.3494 86.7885 11.327 86.8492 11.3094C87.0748 11.2394 87.3111 11.2101 87.5469 11.223C87.8993 11.2396 88.2411 11.3483 88.5384 11.5383C88.9037 11.7723 89.1881 12.1132 89.3527 12.5146H89.2663C89.3678 12.0889 89.6079 11.709 89.9488 11.4346C90.1806 11.251 90.452 11.1238 90.7414 11.0631C91.0308 11.0024 91.3303 11.0098 91.6164 11.0847C91.6781 11.1009 91.7387 11.1211 91.7978 11.1452C91.8367 11.1625 91.8583 11.1711 91.8561 11.1754Z" fill="#263238"/>
<path d="M77.7967 10.6572C77.7967 10.6572 77.7103 10.7544 77.5548 10.9294C77.3369 11.1774 77.1404 11.4433 76.9672 11.7243C76.3898 12.6522 76.0865 13.7245 76.0924 14.8174V14.8563H76.0017C75.835 13.7846 75.3355 12.7924 74.574 12.0202C74.3468 11.7855 74.0972 11.5735 73.8288 11.3873C73.6387 11.2555 73.5285 11.1886 73.5328 11.1713C73.5627 11.1801 73.5911 11.1932 73.6171 11.2102C73.6689 11.2426 73.751 11.2815 73.8482 11.3463C74.1275 11.5237 74.3868 11.7308 74.6215 11.964C74.973 12.3072 75.2721 12.7002 75.5092 13.1304C75.8037 13.6584 76.0012 14.2349 76.0924 14.8325H76.0017V14.8174C75.9944 13.7086 76.3104 12.6217 76.9111 11.6897C77.0915 11.4093 77.2984 11.1467 77.5288 10.9056C77.6088 10.8192 77.6779 10.7609 77.7232 10.7177C77.7444 10.6938 77.7692 10.6734 77.7967 10.6572Z" fill="#263238"/>
<path d="M53.4247 31.7084C51.6816 30.1374 49.4593 31.4872 48.2713 32.3925C47.0833 33.2978 46.5425 34.5965 46.2476 35.8746C45.9526 37.1527 45.8584 38.4677 45.3729 39.7089C44.7851 41.2124 43.6319 42.5765 43.3677 44.1435C43.0871 45.7964 43.8285 47.5416 43.2243 49.1351C42.874 50.0589 42.1039 50.8393 41.4628 51.6586C40.8217 52.4779 40.2953 53.4263 40.5001 54.3848C40.7971 55.792 42.5484 56.7547 44.2792 57.2913C45.6904 57.7317 47.2143 58.0062 48.7096 57.8833C50.2048 57.7604 51.6693 57.2074 52.4948 56.2447C53.2035 55.4254 53.3919 54.4012 53.4227 53.4037C53.523 50.1879 52.1937 47.0315 51.6099 43.8342C50.9053 39.9322 51.8906 35.4137 53.4309 31.7022" fill="#263238"/>
<path d="M43.1178 56.9739C43.1035 56.9546 43.0912 56.934 43.0809 56.9124C43.0584 56.8714 43.0194 56.812 42.9805 56.7281C42.8699 56.4824 42.8007 56.2201 42.7757 55.9518C42.7443 55.5265 42.7823 55.099 42.8884 54.6859C43.0273 54.1414 43.2088 53.6085 43.4311 53.0924C44.6641 50.0946 45.5932 46.9806 46.2045 43.7973C46.5398 42.0455 46.7778 40.2765 46.9173 38.4984C46.9808 37.6791 47.0361 36.8946 47.157 36.1695C47.2581 35.4942 47.4497 34.8356 47.7264 34.2114C47.9667 33.6999 48.2915 33.2325 48.687 32.8288C48.9846 32.5257 49.3308 32.2744 49.7112 32.0853C49.9541 31.9702 50.2109 31.8869 50.4752 31.8374C50.5653 31.8231 50.6349 31.8169 50.68 31.8108C50.7038 31.8085 50.7278 31.8085 50.7517 31.8108L50.682 31.8272L50.4772 31.862C50.2176 31.9195 49.9659 32.0082 49.7275 32.1262C49.3536 32.3196 49.0133 32.5721 48.7198 32.8738C48.3338 33.2758 48.0181 33.7397 47.7858 34.2462C47.5169 34.8662 47.3317 35.5192 47.2348 36.188C47.118 36.9089 47.0668 37.6893 47.0054 38.5107C46.8722 40.2932 46.6362 42.0665 46.2987 43.8219C45.6877 47.0119 44.7466 50.1298 43.4905 53.1251C43.2669 53.6372 43.0814 54.165 42.9355 54.7044C42.8271 55.1108 42.7835 55.5318 42.8064 55.9518C42.8405 56.3099 42.9464 56.6575 43.1178 56.9739Z" fill="#455A64"/>
<path d="M43.1689 52.4901L50.5222 52.1787L60.4441 55.5235L66.8163 58.1372L58.9714 85.836L60.1676 89.7072H37.6877L38.6996 68.6981L43.1689 52.4901Z" fill="#FF725E"/>
<g opacity="0.3">
<path d="M58.3979 86.0718C57.7056 81.3936 57.0139 76.7153 56.323 72.0371C56.196 71.1768 56.0383 70.253 55.4156 69.6467C54.8257 69.0691 53.9511 68.9155 53.1297 68.8131C51.2863 68.5878 49.3199 68.5222 47.6936 69.4132C46.3171 70.167 45.3749 71.5086 44.5147 72.8236C41.9133 76.8034 40.287 78.5465 38.1937 82.8151L37.8557 86.1886C39.9757 85.5372 41.9994 83.4603 43.1812 81.5902C44.3631 79.7201 45.2111 77.6432 46.311 75.7117C47.0668 74.3885 48.0254 73.0776 49.4285 72.4856C50.2212 72.1497 51.2576 72.1251 51.8209 72.7724C52.0485 73.0708 52.208 73.4155 52.2879 73.7822C52.9187 76.0189 53.1072 78.358 53.65 80.6173C54.1928 82.8765 55.1718 85.1481 57.003 86.5798C57.1977 86.7528 57.4319 86.8752 57.6851 86.9362C57.8122 86.9634 57.9445 86.9515 58.0648 86.9021C58.185 86.8528 58.2875 86.7683 58.359 86.6597C58.4318 86.4724 58.4454 86.2672 58.3979 86.0718Z" fill="black"/>
</g>
<path d="M34.005 63.0225C34.005 62.8176 37.2474 52.4902 43.169 52.4902L41.3522 64.8557L34.005 63.0225Z" fill="#FF725E"/>
<path d="M66.8163 58.1372C66.8163 58.1372 68.6597 59.7144 68.9404 61.0355C69.221 62.3567 69.5446 68.8353 69.5446 68.8353L62.349 68.3376L66.8163 58.1372Z" fill="#FF725E"/>
<path d="M41.9995 57.8916C42.0045 57.9372 42.0045 57.9832 41.9995 58.0288L41.9503 58.416C41.9073 58.7519 41.8335 59.2353 41.7352 59.8375C41.5304 61.0357 41.2211 62.6825 40.8483 64.4952C40.4755 66.308 40.1478 67.9527 39.9327 69.1448C39.8303 69.7327 39.7443 70.212 39.6849 70.5602L39.6153 70.9453C39.6097 70.9906 39.5994 71.0352 39.5845 71.0784C39.5794 71.0328 39.5794 70.9868 39.5845 70.9412C39.5968 70.8408 39.6132 70.7138 39.6337 70.554C39.6767 70.2161 39.7504 69.7347 39.8385 69.1325C40.0433 67.9343 40.3526 66.2875 40.7234 64.4727C41.0941 62.6579 41.4259 61.0173 41.639 59.8231C41.7434 59.2373 41.8274 58.756 41.8888 58.4098C41.9175 58.2521 41.94 58.1231 41.9585 58.0247C41.967 57.9789 41.9808 57.9343 41.9995 57.8916Z" fill="#263238"/>
<path d="M64.1392 62.6743C64.1408 62.7739 64.1325 62.8734 64.1146 62.9713C64.0921 63.1639 64.0532 63.4383 64.002 63.7783C63.8975 64.4584 63.7275 65.3944 63.5288 66.4247C63.3302 67.455 63.152 68.3685 63.0168 69.0629C62.9553 69.3865 62.9062 69.6548 62.8652 69.8638C62.8524 69.9627 62.8297 70.0601 62.7976 70.1546C62.7976 70.0543 62.8065 69.9543 62.8242 69.8556C62.8488 69.6651 62.8898 69.3906 62.943 69.0506C63.0516 68.3706 63.2236 67.4345 63.4244 66.4042C63.6251 65.3739 63.7951 64.4604 63.9262 63.766C63.9856 63.4424 64.0368 63.1741 64.0737 62.9652C64.0879 62.8667 64.1098 62.7694 64.1392 62.6743Z" fill="#263238"/>
<path d="M66.9904 58.4322C66.9904 58.4322 66.972 58.4527 66.9331 58.4855L66.7528 58.6309C66.5118 58.8058 66.2529 58.9548 65.9806 59.0754C65.5473 59.2622 65.0866 59.3778 64.6165 59.4174C63.9911 59.471 63.3616 59.3857 62.773 59.1675C62.1155 58.9238 61.5113 58.4465 60.8271 58.0226C60.4785 57.7973 60.0961 57.6293 59.6944 57.5248C59.2659 57.4292 58.823 57.4167 58.3897 57.488C57.4925 57.619 56.6118 58.0144 55.6593 58.3073C54.6702 58.6202 53.6191 58.6841 52.5993 58.4932C51.5796 58.3024 50.6227 57.8629 49.8136 57.2135C49.4435 56.893 49.0926 56.5511 48.7628 56.1893C48.4511 55.848 48.0849 55.5608 47.6793 55.3393C47.2838 55.149 46.8522 55.0456 46.4134 55.0362C45.9978 55.0259 45.5823 55.0609 45.1742 55.1406C44.3815 55.2943 43.6626 55.5359 42.9826 55.6732C42.3735 55.8201 41.7415 55.8451 41.1227 55.7469C40.6562 55.6607 40.2176 55.4625 39.8446 55.1693C39.6088 54.9834 39.4189 54.7459 39.2895 54.4749C39.2559 54.4056 39.2278 54.3336 39.2055 54.2599C39.1912 54.2107 39.1851 54.1841 39.1851 54.1841C39.1976 54.2072 39.2086 54.2311 39.2178 54.2558C39.2424 54.3263 39.2725 54.3948 39.308 54.4606C39.4438 54.7222 39.6354 54.9509 39.8692 55.1304C40.2408 55.413 40.675 55.602 41.135 55.6814C41.7459 55.7731 42.3689 55.7431 42.9682 55.5933C43.6401 55.452 44.357 55.2062 45.1578 55.0485C45.5722 54.9636 45.9947 54.9259 46.4175 54.9358C46.8702 54.9447 47.3157 55.0502 47.7243 55.2451C48.1411 55.4702 48.5171 55.7637 48.8365 56.1136C49.1641 56.4708 49.5122 56.8086 49.8791 57.1254C50.6752 57.7634 51.6164 58.1953 52.6192 58.3829C53.6221 58.5704 54.6557 58.5079 55.6286 58.2008C56.5729 57.916 57.4598 57.5187 58.3754 57.3814C58.821 57.3086 59.2766 57.3225 59.717 57.4224C60.1274 57.5317 60.518 57.7052 60.8743 57.9365C61.5625 58.3687 62.1565 58.8439 62.7996 59.0877C63.3778 59.3052 63.9964 59.394 64.6124 59.3478C65.0777 59.3132 65.5346 59.2054 65.9663 59.0283C66.238 58.9121 66.4979 58.7701 66.7426 58.6043L66.9269 58.467L66.9904 58.4322Z" fill="#FAFAFA"/>
<path d="M40.8831 62.3159C40.8831 62.3159 40.8606 62.3282 40.8155 62.3384C40.7486 62.3565 40.6799 62.3675 40.6107 62.3712C40.3623 62.387 40.1135 62.3486 39.8815 62.2585C39.5382 62.127 39.2232 61.9309 38.9536 61.6809C38.6443 61.4064 38.3494 61.0664 38.0237 60.7305C37.7268 60.4098 37.376 60.1437 36.9873 59.944C36.6705 59.7866 36.312 59.7335 35.9632 59.7924C35.7269 59.8307 35.5057 59.9335 35.3241 60.0894C35.1971 60.2021 35.1479 60.2942 35.1377 60.2799C35.1444 60.2572 35.1548 60.2357 35.1684 60.2164C35.2041 60.1588 35.2467 60.1058 35.2954 60.0587C35.4745 59.8829 35.702 59.7645 35.9488 59.7187C36.3151 59.6453 36.6953 59.6928 37.0324 59.8538C37.4352 60.0543 37.7982 60.3264 38.1036 60.6568C38.4334 60.9947 38.7181 61.3368 39.0233 61.6072C39.2815 61.8538 39.5828 62.0509 39.9122 62.1889C40.2202 62.3115 40.554 62.3551 40.8831 62.3159Z" fill="#FAFAFA"/>
<path d="M62.1729 67.9567C61.9122 68.119 61.6321 68.2477 61.3392 68.3397C60.5379 68.602 59.6815 68.6479 58.8567 68.4728C58.2865 68.3573 57.7436 68.1341 57.257 67.8154C56.7153 67.4312 56.2192 66.9865 55.7781 66.4901C55.2974 65.9457 54.7651 65.449 54.1887 65.0072C53.5518 64.5597 52.7896 64.3252 52.0114 64.3374C51.2319 64.3719 50.4605 64.5097 49.7173 64.747C48.9881 64.9519 48.2835 65.1772 47.6014 65.3165C45.5553 65.7331 43.4337 65.5736 41.473 64.8556C41.1965 64.747 40.9834 64.6631 40.8442 64.5934L40.6844 64.5197C40.6475 64.5012 40.6291 64.493 40.6311 64.491C40.6511 64.4943 40.6704 64.5005 40.6885 64.5094L40.8523 64.575C40.9957 64.6364 41.2088 64.7143 41.4873 64.8167C42.2729 65.0881 43.0852 65.2749 43.9104 65.3738C45.1341 65.5238 46.3741 65.4719 47.5809 65.2202C48.261 65.0789 48.9574 64.8535 49.6886 64.6467C50.4411 64.407 51.2223 64.2692 52.0114 64.237C52.4145 64.233 52.8159 64.291 53.2014 64.4091C53.5754 64.5257 53.9286 64.7006 54.2481 64.9273C54.8303 65.3728 55.3662 65.8758 55.8478 66.4287C56.2832 66.9213 56.7724 67.3638 57.3062 67.7478C57.7825 68.0635 58.3141 68.2866 58.8731 68.4053C59.6872 68.5846 60.5338 68.5507 61.331 68.3069C61.5466 68.2401 61.7574 68.1586 61.9619 68.0632L62.1196 67.9854C62.136 67.9734 62.1539 67.9638 62.1729 67.9567Z" fill="#FAFAFA"/>
<path d="M69.3583 64.063C69.3583 64.063 69.3583 64.0855 69.3316 64.1224C69.301 64.1765 69.2668 64.2285 69.2292 64.2781C69.0883 64.4602 68.9172 64.6167 68.7233 64.741C68.4334 64.9282 68.1023 65.0421 67.7586 65.0728C67.3393 65.0881 66.9212 65.0184 66.5296 64.868C66.1493 64.7238 65.7495 64.6375 65.3436 64.6119C65.0122 64.6069 64.6832 64.6697 64.3769 64.7963C64.0959 64.9199 63.8339 65.0826 63.5985 65.2797C63.5985 65.2797 63.5985 65.2592 63.6374 65.2264C63.6787 65.1797 63.7232 65.1359 63.7706 65.0953C63.943 64.9435 64.1378 64.8191 64.3482 64.7266C64.6617 64.5883 65.001 64.5185 65.3436 64.5218C65.7641 64.5415 66.1788 64.6272 66.5726 64.7758C66.9522 64.9207 67.3564 64.9903 67.7627 64.9806C68.0917 64.9562 68.4103 64.8544 68.6926 64.6836C68.948 64.5159 69.1731 64.3061 69.3583 64.063Z" fill="#FAFAFA"/>
<path d="M61.5154 74.1057C61.4944 74.109 61.4729 74.109 61.4519 74.1057L61.2634 74.0934C61.0221 74.083 60.7803 74.0919 60.5404 74.12C60.1619 74.1697 59.7888 74.2547 59.4261 74.374C58.9981 74.5071 58.527 74.6997 58.0067 74.9168C57.4431 75.169 56.8628 75.3819 56.2698 75.5538C55.5845 75.7638 54.8588 75.8059 54.1539 75.6767C53.7748 75.5903 53.4133 75.44 53.0847 75.2322C52.7467 75.0274 52.4313 74.7816 52.1015 74.5481C51.7752 74.3004 51.4195 74.094 51.0426 73.9336C50.651 73.7842 50.2319 73.7207 49.8136 73.7472C48.9595 73.7923 48.175 74.1016 47.4273 74.4273C46.7234 74.7702 45.9881 75.0446 45.2316 75.2466C44.5314 75.4026 43.8038 75.3857 43.1116 75.1974C42.5132 75.0342 41.9423 74.7829 41.4177 74.4518C40.9837 74.1807 40.5727 73.8745 40.1887 73.5363C39.8487 73.2413 39.5743 72.9709 39.3489 72.7477C39.1236 72.5244 38.9557 72.3483 38.841 72.2295L38.7119 72.0902C38.6833 72.0595 38.6689 72.0431 38.671 72.041L38.7201 72.082L38.8553 72.2131L39.3776 72.719C40.0074 73.3466 40.7015 73.9062 41.4484 74.3883C41.9694 74.7102 42.5345 74.9545 43.126 75.1134C43.8044 75.2933 44.5164 75.306 45.2009 75.1503C45.9507 74.946 46.6797 74.6717 47.3782 74.331C48.1176 74.0033 48.9226 73.6858 49.7992 73.6407C50.2328 73.6141 50.667 73.6797 51.0733 73.8333C51.4574 73.9921 51.82 74.1986 52.1527 74.4477C52.4845 74.6833 52.8 74.927 53.1297 75.1278C53.4476 75.3316 53.7982 75.4792 54.1662 75.5641C54.8562 75.6929 55.567 75.6542 56.239 75.4514C56.8292 75.2859 57.4074 75.0806 57.9698 74.8369C58.4921 74.6321 58.9673 74.4273 59.4036 74.3064C59.7712 74.1906 60.1492 74.1111 60.5322 74.0688C60.8599 74.0299 61.1916 74.0423 61.5154 74.1057Z" fill="#FAFAFA"/>
<path d="M59.1537 84.1852C58.9648 83.9349 58.7398 83.714 58.486 83.5298C58.1874 83.3229 57.8535 83.1722 57.5008 83.0853C57.0312 82.9648 56.5395 82.9585 56.067 83.0669C55.4952 83.2121 54.9796 83.5244 54.5861 83.964C54.3608 84.1873 54.1375 84.4331 53.8876 84.6686C53.6359 84.9241 53.3404 85.1322 53.0151 85.2831C52.6646 85.4303 52.2786 85.4716 51.9049 85.4019C51.5205 85.3269 51.154 85.1788 50.8255 84.9656C50.1413 84.556 49.6088 83.919 49.0107 83.3557C48.721 83.0704 48.3978 82.8214 48.048 82.6142C47.7076 82.4192 47.3314 82.2945 46.9419 82.2476C46.1972 82.1826 45.4475 82.2891 44.7503 82.5589C44.0784 82.7986 43.468 83.1099 42.8843 83.3782C42.3471 83.6371 41.786 83.8429 41.2088 83.9927C40.3563 84.2194 39.4508 84.1329 38.6566 83.749C38.447 83.6424 38.2549 83.5042 38.0872 83.3393C38.0439 83.2964 38.0029 83.2513 37.9643 83.2041C37.9504 83.1885 37.9375 83.1721 37.9254 83.155C38.1414 83.383 38.395 83.5721 38.6751 83.7141C39.4604 84.0649 40.3436 84.1302 41.1719 83.8985C41.743 83.7483 42.298 83.5425 42.829 83.284C43.4086 83.0198 44.019 82.7043 44.6991 82.4647C45.4108 82.1872 46.1768 82.0772 46.9378 82.1431C47.3409 82.1908 47.7302 82.319 48.0828 82.52C48.4395 82.7318 48.7696 82.9855 49.066 83.2758C49.6805 83.8473 50.1966 84.472 50.8623 84.8755C51.1799 85.0814 51.5337 85.2253 51.9049 85.2995C52.2597 85.3676 52.6268 85.3291 52.9598 85.1889C53.274 85.0467 53.5604 84.8497 53.8057 84.6072C54.0535 84.3757 54.2768 84.132 54.5062 83.9067C54.9132 83.459 55.4445 83.143 56.0322 82.9993C56.5173 82.892 57.0213 82.9039 57.5008 83.0341C57.8619 83.1283 58.2018 83.2903 58.5024 83.5114C58.5631 83.5511 58.62 83.5963 58.6724 83.6465C58.7216 83.6916 58.7728 83.7326 58.8137 83.7735C58.8916 83.8637 58.9633 83.9333 59.0186 83.9968L59.123 84.1484C59.1342 84.1598 59.1445 84.1722 59.1537 84.1852Z" fill="#FAFAFA"/>
<g opacity="0.3">
<path d="M64.5468 56.7939C64.3369 56.5273 64.0647 56.3163 63.7541 56.1794C61.0648 54.7272 57.8141 52.9718 54.7991 52.5273C54.0023 54.8112 53.5128 57.4432 52.3657 59.5591C52.2121 59.8438 52.0462 60.1572 52.1118 60.4747C52.1875 60.8392 52.5419 61.0687 52.8778 61.2305C54.5345 62.0158 56.4316 62.1267 58.1685 61.5398L58.1931 62.5209C58.9399 62.7394 59.7267 62.7848 60.4937 62.6537C61.2607 62.5226 61.9877 62.2184 62.6195 61.7643C63.2514 61.3101 63.7714 60.718 64.1402 60.0328C64.5089 59.3476 64.7166 58.5874 64.7476 57.8098C64.7866 57.4586 64.7165 57.1039 64.5468 56.7939Z" fill="black"/>
</g>
<path d="M60.4113 34.0802C60.7822 34.1392 61.1175 34.3348 61.3514 34.6285C61.5853 34.9223 61.7007 35.293 61.6751 35.6676L59.7948 55.8636C59.6412 58.2539 56.0813 59.4255 53.525 59.2412C50.9442 59.0569 50.9217 57.7849 51.0015 55.5092C51.1306 51.7076 51.2064 50.28 51.2064 50.3025C51.2064 50.3251 47.9701 49.5938 47.5092 45.2986C47.2798 43.1622 47.5645 39.6945 47.8882 36.8638C48.1749 34.3157 50.0266 31.2638 52.5603 31.6735L60.4113 34.0802Z" fill="#FFBE9D"/>
<path d="M49.6026 40.0715C49.5946 40.2138 49.6422 40.3537 49.7355 40.4615C49.8288 40.5693 49.9603 40.6366 50.1023 40.6491C50.1716 40.658 50.2419 40.6529 50.3092 40.6342C50.3764 40.6155 50.4393 40.5835 50.494 40.5402C50.5488 40.4969 50.5943 40.4431 50.628 40.382C50.6617 40.3208 50.6828 40.2536 50.6902 40.1841C50.6987 40.042 50.6515 39.9022 50.5586 39.7943C50.4656 39.6864 50.3343 39.6191 50.1925 39.6065C50.123 39.5974 50.0525 39.6023 49.985 39.6208C49.9175 39.6394 49.8544 39.6713 49.7994 39.7146C49.7445 39.7579 49.6987 39.8118 49.6649 39.8731C49.6311 39.9344 49.6099 40.0019 49.6026 40.0715Z" fill="#263238"/>
<path d="M48.5375 38.8613C48.601 38.937 49.0311 38.6564 49.619 38.6831C50.2068 38.7097 50.6226 39.0292 50.6902 38.9616C50.723 38.9309 50.6616 38.7978 50.4854 38.6523C50.2405 38.4627 49.9428 38.3539 49.6333 38.341C49.3273 38.3244 49.0239 38.4054 48.7669 38.5724C48.5744 38.7015 48.5068 38.8285 48.5375 38.8613Z" fill="#263238"/>
<path d="M55.1882 40.5876C55.1802 40.7299 55.2279 40.8698 55.3212 40.9776C55.4145 41.0854 55.546 41.1527 55.688 41.1652C55.7573 41.1741 55.8276 41.169 55.8948 41.1503C55.9621 41.1316 56.025 41.0997 56.0797 41.0564C56.1345 41.013 56.18 40.9592 56.2137 40.8981C56.2474 40.8369 56.2685 40.7697 56.2759 40.7003C56.2844 40.5581 56.2372 40.4183 56.1443 40.3104C56.0513 40.2026 55.92 40.1352 55.7781 40.1226C55.7087 40.1135 55.6382 40.1184 55.5707 40.1369C55.5032 40.1555 55.4401 40.1874 55.3851 40.2307C55.3301 40.274 55.2844 40.3279 55.2506 40.3892C55.2168 40.4505 55.1956 40.518 55.1882 40.5876Z" fill="#263238"/>
<path d="M54.3628 39.2953C54.4263 39.369 54.8565 39.0905 55.4443 39.115C56.0322 39.1396 56.448 39.4632 56.5156 39.3936C56.5483 39.3629 56.4869 39.2318 56.3107 39.0864C56.0661 38.896 55.7683 38.7865 55.4586 38.773C55.1524 38.757 54.849 38.8387 54.5922 39.0065C54.3997 39.1355 54.3321 39.2523 54.3628 39.2953Z" fill="#263238"/>
<path d="M51.9704 43.365C51.9704 43.3323 51.614 43.2503 51.0241 43.1438C50.8766 43.1213 50.7353 43.0844 50.7148 42.98C50.7105 42.8241 50.7533 42.6707 50.8377 42.5396C50.9974 42.1832 51.1647 41.8097 51.3395 41.4192C52.04 39.8236 52.5541 38.5065 52.4886 38.4799C52.423 38.4533 51.8065 39.7232 51.106 41.3209L50.6226 42.4495C50.5184 42.6251 50.48 42.8319 50.514 43.0332C50.5323 43.0865 50.5622 43.1351 50.6015 43.1755C50.6408 43.2159 50.6886 43.247 50.7414 43.2667C50.8239 43.2923 50.9092 43.3081 50.9954 43.3138C51.5894 43.3773 51.9704 43.3978 51.9704 43.365Z" fill="#263238"/>
<path d="M51.2023 50.3129C53.207 50.4464 55.2094 50.021 56.9866 49.084C56.9866 49.084 55.3931 52.0192 51.149 51.4026L51.2023 50.3129Z" fill="#EB996E"/>
<path d="M52.1404 44.7951C52.2594 44.6601 52.4107 44.5576 52.5801 44.497C52.7496 44.4365 52.9316 44.42 53.1092 44.449C53.2383 44.4675 53.3623 44.5119 53.4739 44.5795C53.5854 44.6471 53.6822 44.7364 53.7585 44.8422C53.8321 44.944 53.8728 45.066 53.875 45.1916C53.8772 45.3172 53.8408 45.4405 53.7708 45.5448C53.6708 45.6458 53.5428 45.7146 53.4034 45.7423C53.264 45.7701 53.1194 45.7555 52.9884 45.7005C52.7163 45.5882 52.4692 45.4232 52.2612 45.215C52.1974 45.1644 52.1433 45.1027 52.1015 45.0327C52.0825 44.9988 52.0736 44.9602 52.0758 44.9214C52.0779 44.8826 52.0911 44.8452 52.1137 44.8136" fill="#EB996E"/>
<path d="M53.6725 43.861C53.5783 43.8487 53.5435 44.4878 52.9741 44.9138C52.4046 45.3399 51.7287 45.2334 51.7205 45.3235C51.7082 45.3645 51.8659 45.4566 52.1527 45.4792C52.5261 45.502 52.8958 45.3933 53.1973 45.1719C53.4876 44.9595 53.6831 44.6419 53.7422 44.2871C53.779 44.0208 53.7176 43.859 53.6725 43.861Z" fill="#263238"/>
<path d="M54.1191 36.9602C54.1867 37.1158 54.7684 37.0073 55.4627 37.0503C56.1571 37.0933 56.7265 37.2551 56.8084 37.0994C56.8453 37.0298 56.7409 36.8844 56.5074 36.743C56.1966 36.5706 55.8505 36.4713 55.4955 36.4529C55.1406 36.4344 54.7861 36.4972 54.4591 36.6365C54.2092 36.7533 54.0904 36.8864 54.1191 36.9602Z" fill="#263238"/>
<path d="M48.6133 38.1115C48.7014 38.2589 49.1377 38.1791 49.6374 38.2446C50.1372 38.3101 50.553 38.4638 50.6616 38.3388C50.7148 38.2794 50.6616 38.134 50.4977 37.9845C50.2687 37.7953 49.9884 37.679 49.6927 37.6506C49.3988 37.6129 49.1003 37.665 48.8366 37.8001C48.6522 37.9107 48.5744 38.0398 48.6133 38.1115Z" fill="#263238"/>
<path d="M59.8645 42.1302C59.9525 41.2249 60.9705 40.6677 61.7345 41.1614C62.1442 41.4317 62.4596 41.9479 62.3716 42.9085C62.1422 45.4709 59.6187 44.711 59.6207 44.6373C59.6228 44.5635 59.7539 43.1892 59.8645 42.1302Z" fill="#FFBE9D"/>
<path d="M60.4892 43.7378C60.5015 43.7378 60.5322 43.7726 60.6039 43.8135C60.7052 43.8693 60.8246 43.8826 60.9357 43.8504C61.2163 43.7746 61.4826 43.367 61.5359 42.9062C61.563 42.6869 61.5406 42.4643 61.4703 42.2548C61.453 42.1728 61.4162 42.0961 61.3631 42.0313C61.31 41.9664 61.2421 41.9152 61.1651 41.882C61.1149 41.8638 61.0598 41.8639 61.0096 41.8823C60.9594 41.9006 60.9173 41.9361 60.8907 41.9824C60.8497 42.05 60.862 42.1032 60.8476 42.1053C60.8333 42.1073 60.7964 42.0582 60.8272 41.9537C60.8468 41.8915 60.8873 41.8379 60.9419 41.8021C61.0172 41.756 61.1074 41.7406 61.1938 41.7591C61.2972 41.7895 61.3911 41.846 61.4664 41.9231C61.5418 42.0002 61.596 42.0954 61.6239 42.1995C61.7142 42.4306 61.7452 42.6805 61.7141 42.9266C61.6526 43.4408 61.3433 43.8996 60.9644 43.9733C60.8927 43.9885 60.8184 43.987 60.7474 43.9689C60.6763 43.9508 60.6104 43.9166 60.5547 43.8688C60.4892 43.7992 60.481 43.7398 60.4892 43.7378Z" fill="#EB996E"/>
<path d="M65.2371 52.9491C65.0323 51.1876 65.739 50.0549 65.7246 48.2811C65.7082 46.1079 65.2166 43.6806 64.7947 41.5463C64.385 39.4469 63.7357 37.6178 62.984 35.6063C62.2323 33.5949 60.2803 31.5938 58.2935 30.6905C56.5401 29.8958 54.2502 30.1149 52.9004 31.3951C52.8015 31.4012 52.7023 31.4012 52.6034 31.3951C49.5985 31.1391 49.1827 33.3471 49.1827 33.3471C51.0487 31.604 52.3227 33.1423 52.3227 33.1423C53.4575 31.9666 55.346 32.9825 55.9974 34.0968C56.915 35.6678 57.001 36.6039 57.2407 37.4252C57.8428 39.4837 59.6986 39.8934 59.5798 42.0359C59.4426 44.7806 57.8797 46.8964 57.6667 49.637C57.6194 50.4415 57.5078 51.2408 57.3328 52.0274C57.0932 52.8672 53.3407 59.1963 55.7331 59.7289C55.8215 59.7323 55.9099 59.7275 55.9974 59.7145L58.6601 59.5691L60.8067 58.1927L60.7391 59.5998L64.2601 59.8374C65.1163 59.1124 65.36 57.8957 65.2719 56.7896C65.1839 55.6835 65.3703 54.0511 65.2371 52.9491Z" fill="#263238"/>
<path d="M52.2122 32.9232C52.221 32.8918 52.2334 32.8616 52.249 32.833C52.2777 32.7757 52.3187 32.6917 52.3781 32.5872C52.5387 32.2836 52.7461 32.0071 52.9926 31.7679C53.1674 31.6031 53.3776 31.4805 53.607 31.4095C53.8757 31.3323 54.1614 31.3387 54.4263 31.4279C54.9917 31.6143 55.4648 32.0813 55.8601 32.6016C56.5371 33.5013 57.1134 34.4725 57.5786 35.4978C57.763 35.8891 57.9043 36.2065 58.0006 36.4278C58.0416 36.5302 58.0784 36.6141 58.1071 36.6838C58.1358 36.7534 58.1419 36.7739 58.1378 36.776C58.1175 36.7505 58.1009 36.7222 58.0887 36.692L57.9617 36.4462L57.511 35.5327C57.0283 34.5221 56.4472 33.5616 55.7762 32.6651C55.3808 32.151 54.922 31.6983 54.3915 31.5201C54.1442 31.433 53.8762 31.4237 53.6234 31.4935C53.4031 31.5572 53.2 31.6699 53.0294 31.8232C52.7801 32.05 52.5654 32.3123 52.3924 32.6016C52.338 32.7118 52.2778 32.8192 52.2122 32.9232Z" fill="#455A64"/>
<path d="M56.1366 34.3366C56.1203 34.3366 55.9974 34.0622 55.7454 33.6382C55.5962 33.3919 55.4328 33.1546 55.2559 32.9274C55.0436 32.6481 54.7926 32.4005 54.5103 32.1921C54.3703 32.0835 54.208 32.0073 54.0351 31.9688C53.8747 31.9471 53.7115 31.9757 53.5681 32.0508C53.3185 32.189 53.093 32.3668 52.9004 32.5772C52.7256 32.7805 52.5322 32.967 52.3228 33.1343C52.3622 33.0735 52.4082 33.0171 52.46 32.9663C52.5501 32.8619 52.6792 32.7083 52.8471 32.5239C53.0391 32.2992 53.2685 32.1094 53.5251 31.9627C53.6865 31.8752 53.8716 31.8414 54.0535 31.8664C54.2418 31.9063 54.4188 31.9874 54.5718 32.104C54.8618 32.3192 55.1186 32.5759 55.3337 32.866C55.5093 33.1 55.6688 33.3456 55.811 33.6013C55.9054 33.7736 55.9908 33.9507 56.067 34.1318C56.0996 34.1965 56.123 34.2655 56.1366 34.3366Z" fill="#455A64"/>
<path d="M60.1779 58.1557C60.185 58.1303 60.1961 58.1061 60.2107 58.084C60.2352 58.0328 60.2701 57.9652 60.3131 57.8792C60.3561 57.7932 60.4196 57.6744 60.4851 57.5494C60.5507 57.4245 60.6203 57.2627 60.7022 57.0927C61.1496 56.1149 61.4995 55.0954 61.7469 54.0489C62.1097 52.4959 62.2918 50.9061 62.2897 49.3113C62.2786 47.358 62.0727 45.4107 61.6752 43.4983C61.2655 41.45 60.7248 39.5533 60.2045 37.8266C59.6842 36.0999 59.2398 34.533 58.5823 33.3388C58.0939 32.3779 57.3587 31.5642 56.4521 30.9812C56.2031 30.8291 55.9397 30.7022 55.6655 30.6023C55.5734 30.5655 55.4976 30.547 55.4607 30.5306C55.4351 30.5238 55.4104 30.5142 55.387 30.502L55.4628 30.5183C55.5119 30.5327 55.5877 30.5491 55.6819 30.5818C55.9619 30.6742 56.2311 30.7964 56.4848 30.9464C57.4034 31.5268 58.1485 32.344 58.6417 33.3122C59.3135 34.5145 59.758 36.0917 60.2926 37.8082C60.8272 39.5246 61.3638 41.4438 61.7735 43.488C62.1754 45.4067 62.3813 47.3612 62.388 49.3215C62.3864 50.923 62.1959 52.5187 61.8206 54.0756C61.5651 55.1245 61.2027 56.1444 60.7391 57.1193L60.5138 57.574L60.3336 57.8997C60.2844 57.9816 60.2475 58.0472 60.2188 58.1045C60.2065 58.1226 60.1928 58.1397 60.1779 58.1557Z" fill="#455A64"/>
<path d="M60.9173 59.2638L60.9664 59.2003C61.0019 59.1553 61.0511 59.0959 61.1139 59.0221L61.3556 58.7333L61.6587 58.3237C62.2864 57.4302 62.7766 56.4477 63.113 55.409C63.6139 53.8675 63.8629 52.2552 63.8504 50.6344C63.812 48.652 63.5369 46.6813 63.0311 44.7641C62.5334 42.7158 61.9271 40.7945 61.4314 39.0289C60.9357 37.2633 60.5342 35.6677 60.0078 34.3875C59.7775 33.8104 59.5036 33.2517 59.1885 32.7161C58.9477 32.3136 58.6736 31.932 58.3692 31.5752C58.1789 31.3487 57.9736 31.1352 57.7547 30.9362L57.5847 30.7784C57.5643 30.7622 57.5457 30.7436 57.5294 30.7231C57.5515 30.7367 57.572 30.7525 57.5909 30.7703L57.7691 30.9198C57.996 31.1127 58.2082 31.3222 58.404 31.5466C58.7142 31.9019 58.9937 32.2829 59.2397 32.6854C59.5603 33.2209 59.839 33.7804 60.0734 34.3588C60.61 35.6411 61.0258 37.2428 61.5215 39.0023C62.0172 40.7617 62.6317 42.6892 63.1315 44.7374C63.6312 46.7857 63.9508 48.7951 63.9323 50.6324C63.9462 52.263 63.6929 53.8848 63.1827 55.4335C62.8388 56.4762 62.3358 57.4593 61.6915 58.3482C61.5748 58.5019 61.4703 58.637 61.3802 58.7579L61.1282 59.0406L60.9726 59.2126L60.9173 59.2638Z" fill="#455A64"/>
<path d="M59.0594 52.742C58.9287 52.5353 58.8332 52.3082 58.7768 52.0702C58.6226 51.4183 58.6332 50.7383 58.8075 50.0916C58.9223 49.6461 59.0793 49.2126 59.2766 48.7971C59.4814 48.3464 59.7313 47.8815 59.9873 47.3899C60.2607 46.8816 60.4962 46.3537 60.6919 45.8107C60.9026 45.2305 60.9973 44.6146 60.9705 43.9979C60.9221 43.3804 60.7841 42.7732 60.5608 42.1955C60.356 41.6322 60.1123 41.1037 59.8808 40.5999C59.4158 39.5962 58.9959 38.6909 58.6518 37.9269L57.8325 36.1223L57.6134 35.6287L57.5581 35.4996C57.5458 35.471 57.5417 35.4546 57.5437 35.4546C57.5539 35.4669 57.5622 35.4807 57.5683 35.4956C57.5867 35.5283 57.6072 35.5693 57.6318 35.6205L57.8714 36.1039C58.0763 36.5361 58.3692 37.1465 58.7276 37.8961C59.0861 38.6458 59.5142 39.5573 59.9873 40.5589C60.2208 41.0607 60.4666 41.583 60.6755 42.1606C60.9008 42.7477 61.0389 43.3647 61.0852 43.9918C61.1132 44.6226 61.0157 45.2526 60.7984 45.8455C60.5999 46.3926 60.3602 46.924 60.0815 47.435C59.8234 47.9265 59.5715 48.3874 59.3646 48.8339C59.1667 49.2437 59.007 49.6709 58.8874 50.11C58.7091 50.7454 58.688 51.4146 58.8259 52.06C58.868 52.234 58.9235 52.4045 58.9918 52.57C59.0186 52.6256 59.0412 52.6831 59.0594 52.742Z" fill="#455A64"/>
<path d="M35.0332 63.2808C35.0332 63.2808 33.1037 71.308 32.8375 73.3624C32.4852 76.0763 31.7007 80.3798 32.4114 82.0839C33.1222 83.7881 35.4552 84.8122 36.8767 84.4579C38.2982 84.1035 46.8948 71.8303 46.8948 71.5374L44.1235 68.4117L39.5046 71.5374L40.7172 64.7002L35.0332 63.2808Z" fill="#FFBE9D"/>
<path d="M54.3853 55.4746H48.6133C48.2128 55.4746 47.8882 55.7992 47.8882 56.1997V68.5119C47.8882 68.9123 48.2128 69.237 48.6133 69.237H54.3853C54.7858 69.237 55.1104 68.9123 55.1104 68.5119V56.1997C55.1104 55.7992 54.7858 55.4746 54.3853 55.4746Z" fill="#455A64"/>
<path d="M52.5849 63.4217C52.0524 63.3316 51.0098 63.5118 51.0098 63.5118L47.3188 64.0362L48.4269 62.6659C48.4269 62.6659 51.4502 62.1251 52.0831 61.9449C52.1313 61.9354 52.1772 61.9164 52.2181 61.889C52.2589 61.8617 52.294 61.8266 52.3212 61.7856C52.3484 61.7447 52.3673 61.6988 52.3767 61.6506C52.3861 61.6023 52.3859 61.5527 52.376 61.5045C52.3534 61.3475 52.2735 61.2044 52.1518 61.1027C52.03 61.001 51.875 60.9479 51.7165 60.9535L47.5708 61.0416L44.7278 63.5241V67.1782L43.9084 68.5649L46.7474 71.6148C46.7474 71.6148 48.6994 70.5599 48.8796 70.1544C48.9875 69.9142 49.034 69.6509 49.0148 69.3883L51.4318 68.569C51.5661 68.5245 51.6816 68.436 51.7597 68.3179C51.8377 68.1997 51.8737 68.0588 51.8619 67.9177V67.8501L48.7895 67.6227L52.1343 67.0451C52.2375 67.0273 52.3308 66.9726 52.3967 66.8913C52.4627 66.8099 52.4968 66.7073 52.4928 66.6027C52.4888 66.498 52.4469 66.3984 52.3749 66.3223C52.303 66.2462 52.2058 66.1988 52.1016 66.1889L48.2098 65.8182L51.4461 64.7326C51.988 64.5727 52.519 64.3777 53.0356 64.1488C53.3264 63.9973 53.1851 63.5303 52.5849 63.4217Z" fill="#FFBE9D"/>
<path d="M40.0904 71.1377C40.0279 71.2022 39.9593 71.2605 39.8856 71.3118C39.7463 71.4183 39.5394 71.5678 39.2834 71.7522C38.7734 72.1188 38.0544 72.6104 37.3129 73.2105C36.9401 73.5137 36.6022 73.825 36.3093 74.1097C36.0519 74.3674 35.8111 74.641 35.5883 74.929C35.2094 75.4288 35.0332 75.777 35.0148 75.7668C35.0433 75.68 35.0818 75.5969 35.1295 75.519C35.1779 75.423 35.232 75.33 35.2913 75.2404C35.3638 75.1177 35.4424 74.9987 35.5268 74.884C35.7434 74.5836 35.9816 74.2995 36.2396 74.034C36.5576 73.711 36.8934 73.406 37.2453 73.1204C37.995 72.5162 38.7201 72.0328 39.2404 71.6866L39.8548 71.277C39.9281 71.2222 40.0071 71.1755 40.0904 71.1377Z" fill="#EB996E"/>
<path d="M51.8782 57.1233C51.8782 57.189 51.8588 57.2531 51.8223 57.3077C51.7859 57.3622 51.734 57.4048 51.6734 57.4299C51.6128 57.455 51.5461 57.4616 51.4817 57.4488C51.4173 57.436 51.3582 57.4044 51.3118 57.358C51.2654 57.3115 51.2338 57.2524 51.221 57.1881C51.2082 57.1237 51.2147 57.057 51.2399 56.9963C51.265 56.9357 51.3075 56.8839 51.3621 56.8474C51.4166 56.811 51.4808 56.7915 51.5464 56.7915C51.6344 56.7915 51.7188 56.8265 51.7811 56.8887C51.8433 56.9509 51.8782 57.0353 51.8782 57.1233Z" fill="#E0E0E0"/>
<path d="M58.5925 64.0694L56.7614 61.2571C56.7614 61.2571 52.6116 59.8848 52.0872 59.9831C51.6898 60.0568 51.6325 60.6303 51.6284 60.8986C51.6284 60.9826 51.6284 61.0359 51.6284 61.0359L52.163 61.3964L54.6025 61.845L56.0363 62.8261L55.0572 62.3673L52.1896 61.9228C51.9935 61.8877 51.7913 61.9119 51.6089 61.9921C51.4265 62.0724 51.2722 62.2051 51.1655 62.3734C51.1204 62.4492 51.1655 62.4799 51.1511 62.5578C51.1163 62.9244 52.3105 63.2808 52.3105 63.2808L54.4632 63.9178L55.217 65.3106L52.5706 64.4913C52.5706 64.4913 50.9443 65.03 50.8378 65.241C50.7312 65.452 51.9459 65.9845 52.0442 65.9886C52.1425 65.9927 54.115 66.9042 54.115 66.9042L52.1732 66.9841L50.084 67.3733L50.9422 67.7829L52.5808 67.9877L53.986 68.6739L53.9204 69.9479C53.9204 69.9479 54.5349 71.2568 55.1125 71.5865C55.6901 71.9163 58.0395 68.719 58.0395 68.719L58.2033 67.1828L58.5946 65.749L58.3897 64.8723L58.5925 64.0694Z" fill="#FFBE9D"/>
<path d="M55.1105 71.5864L58.1153 85.6621C58.1153 85.6621 59.0288 88.626 62.3286 88.626C65.358 88.626 66.4682 82.9093 66.4682 82.9093L69.1043 68.8048L63.1991 68.2866L61.5789 76.6354L58.0395 68.7106L55.1105 71.5864Z" fill="#FFBE9D"/>
<path d="M63.6149 84.5436C63.6117 84.4277 63.6193 84.3119 63.6374 84.1974C63.6497 84.0868 63.662 83.9516 63.6681 83.7877C63.6743 83.6239 63.6927 83.4498 63.6886 83.2511C63.697 82.7867 63.6771 82.3223 63.6292 81.8603C63.5652 81.2946 63.4618 80.7341 63.3199 80.1828C63.1722 79.633 62.9861 79.0944 62.7628 78.5708C62.5766 78.1448 62.3653 77.7304 62.1299 77.3295C62.0336 77.1554 61.925 77.008 61.8472 76.8748C61.7694 76.7417 61.6874 76.629 61.6219 76.5389C61.5495 76.448 61.4858 76.3507 61.4314 76.248C61.5133 76.3302 61.588 76.4193 61.6547 76.5143C61.7412 76.6191 61.8218 76.7285 61.8964 76.842C61.9865 76.9731 62.1012 77.1186 62.1954 77.2906C62.4417 77.6894 62.6614 78.1041 62.8529 78.5319C63.0826 79.0587 63.2736 79.6016 63.4244 80.1562C63.5676 80.7123 63.6683 81.2786 63.7255 81.8501C63.7706 82.3163 63.7836 82.7851 63.7644 83.2532C63.7644 83.458 63.7398 83.6341 63.7275 83.7919C63.7152 83.9496 63.6968 84.0848 63.6784 84.2015C63.665 84.3168 63.6438 84.4311 63.6149 84.5436Z" fill="#EB996E"/>
<path d="M69.5446 68.8355C69.5331 68.7927 69.5262 68.7488 69.5241 68.7045C69.5146 68.6061 69.5023 68.4791 69.4873 68.3235C69.4586 67.9794 69.4197 67.5042 69.3705 66.9225C69.2722 65.7406 69.1493 64.104 68.9854 62.3016C68.9322 61.7649 68.8912 61.2385 68.8072 60.749C68.6753 60.2983 68.438 59.8854 68.1149 59.5446C67.6172 58.9822 67.0626 58.4729 66.4599 58.0247L65.5792 57.6479L65.3457 57.5434C65.3186 57.532 65.2925 57.5183 65.2678 57.5024C65.2678 57.5024 65.2985 57.5024 65.3538 57.527L65.5915 57.6151L66.4845 57.9653C67.1017 58.4047 67.6685 58.9109 68.1743 59.4749C68.5122 59.8262 68.7596 60.2542 68.8953 60.7223C68.9834 61.2221 69.0244 61.7465 69.0776 62.2831C69.2415 64.0876 69.3541 65.7242 69.432 66.9081C69.4668 67.4919 69.4955 67.9671 69.5159 68.3132L69.5323 68.6942C69.541 68.7408 69.5451 68.7882 69.5446 68.8355Z" fill="#263238"/>
<path d="M34.2324 31.8623C39.3908 31.8623 43.5725 27.6952 43.5725 22.5549C43.5725 17.4146 39.3908 13.2476 34.2324 13.2476C29.0739 13.2476 24.8922 17.4146 24.8922 22.5549C24.8922 27.6952 29.0739 31.8623 34.2324 31.8623Z" fill="#FAFAFA"/>
<path d="M44.0457 29.2915C43.9562 29.314 43.868 29.3414 43.7815 29.3734C43.55 29.4714 43.3546 29.6389 43.2223 29.8527C43.1299 29.9978 43.0704 30.1614 43.0482 30.332C43.0277 30.5263 43.0632 30.7225 43.1506 30.8973C43.2411 31.1049 43.3931 31.2796 43.5862 31.398C43.7792 31.5164 44.0039 31.5727 44.2299 31.5593C44.4559 31.5459 44.6724 31.4634 44.8501 31.3231C45.0278 31.1827 45.1581 30.9912 45.2234 30.7744C45.2899 30.5905 45.3013 30.3912 45.2562 30.2009C45.215 30.0344 45.1374 29.8791 45.0289 29.7462C44.8715 29.5492 44.6568 29.406 44.4144 29.3365C44.3247 29.3139 44.2337 29.2968 44.142 29.2853C44.142 29.2853 44.1665 29.2853 44.2157 29.2853C44.245 29.2825 44.2745 29.2825 44.3038 29.2853C44.3439 29.2888 44.3836 29.2957 44.4226 29.3058C44.6784 29.368 44.907 29.5118 45.0739 29.7155C45.1921 29.8529 45.2776 30.0154 45.3238 30.1906C45.3742 30.3938 45.365 30.6071 45.2972 30.8051C45.2216 31.024 45.0878 31.218 44.9101 31.3664C44.7228 31.5344 44.4842 31.6339 44.2331 31.6488C43.982 31.6637 43.7332 31.593 43.5275 31.4483C43.3327 31.3226 43.1767 31.1453 43.0769 30.9362C42.9838 30.7457 42.9489 30.532 42.9765 30.3217C43.0012 30.146 43.0649 29.9781 43.1629 29.8302C43.306 29.6103 43.5166 29.4429 43.763 29.3529C43.801 29.3384 43.84 29.3268 43.8798 29.3181C43.908 29.311 43.9368 29.3062 43.9658 29.3037C44.0211 29.2894 44.0457 29.2874 44.0457 29.2915Z" fill="#263238"/>
<path d="M43.5581 23.3187C43.5581 23.3187 43.5581 23.2675 43.5581 23.1672C43.5581 23.0668 43.5581 22.9173 43.5581 22.7247C43.5581 22.6264 43.5581 22.5199 43.5581 22.397C43.5581 22.2741 43.5397 22.1471 43.5315 22.0058C43.5233 21.8645 43.5069 21.7108 43.4946 21.547C43.4906 21.4629 43.4796 21.3793 43.4618 21.2971C43.4454 21.2111 43.4311 21.123 43.4147 21.0308C43.2662 20.1448 42.9844 19.2865 42.579 18.4848C42.0506 17.4189 41.3218 16.4648 40.4324 15.6746L40.0555 15.3469C39.9224 15.2424 39.7811 15.142 39.6459 15.0458L39.4411 14.8942C39.3722 14.8396 39.2989 14.791 39.2219 14.7488L38.759 14.4804C38.6811 14.4354 38.6033 14.3883 38.5234 14.3452L38.2756 14.2326L37.7697 14.0011C37.5976 13.9294 37.4153 13.8782 37.2351 13.8127L36.9647 13.7205C36.9196 13.7062 36.8746 13.6877 36.8275 13.6755L36.6861 13.6427C36.3052 13.5412 35.9179 13.4652 35.5268 13.4153C35.322 13.3928 35.1294 13.358 34.9267 13.3457L34.3122 13.3293C34.2098 13.3293 34.1073 13.3293 34.0008 13.3293L33.6895 13.3518C33.4847 13.3703 33.2798 13.3785 33.0607 13.4051C32.6348 13.4654 32.2133 13.5537 31.7989 13.6693L31.4835 13.7594C31.4303 13.7738 31.377 13.7861 31.3258 13.8045L31.1722 13.8639L30.5577 14.1056C30.3529 14.1957 30.148 14.3104 29.9555 14.4046C29.8572 14.4579 29.7507 14.5009 29.6564 14.5624L29.3676 14.7447C28.9777 14.9936 28.6042 15.2672 28.2493 15.564L27.7393 16.0453L27.6123 16.1662C27.5713 16.2092 27.5344 16.2542 27.4935 16.2973L27.26 16.5656L27.0265 16.8319L26.8216 17.1227L26.6168 17.4136L26.5123 17.559C26.4796 17.6102 26.4509 17.6635 26.4202 17.7147C26.2993 17.9195 26.1764 18.1243 26.0556 18.3435C25.9347 18.5626 25.8507 18.7859 25.7504 19.0071C24.9665 20.8492 24.8068 22.8972 25.2957 24.8386L25.5005 25.5432C25.5879 25.7712 25.676 25.9965 25.7647 26.2191L25.8303 26.3871L25.9122 26.5489L26.074 26.8684L26.2358 27.1879L26.4263 27.489L26.6148 27.7881L26.711 27.9376L26.8196 28.0769L27.2477 28.632C27.549 28.9706 27.8704 29.2907 28.2104 29.5906L28.4664 29.8138C28.5524 29.8896 28.6487 29.949 28.7388 30.0187C28.9232 30.1497 29.1014 30.287 29.2878 30.4078L29.8633 30.7437L30.0047 30.8257L30.1542 30.8953L30.4532 31.0325C30.8439 31.2117 31.2463 31.3643 31.6576 31.4893C31.8624 31.5487 32.0673 31.5897 32.2721 31.6388L32.5752 31.7105C32.6777 31.7331 32.7801 31.7392 32.8825 31.7556L33.497 31.8334C33.7018 31.8519 33.9066 31.8478 34.1114 31.858C34.5053 31.8699 34.8995 31.8548 35.2913 31.8129H35.4367L35.578 31.7884L35.8607 31.7392C36.0471 31.7044 36.2355 31.6819 36.4178 31.6368L36.9524 31.4873L37.2166 31.4135L37.4706 31.3173L37.9683 31.1227C38.0509 31.0928 38.1311 31.0565 38.208 31.0141L38.4395 30.8974C38.5931 30.8195 38.7467 30.7458 38.8942 30.6639L39.3182 30.3976C40.32 29.7557 41.188 28.9259 41.8744 27.954C41.9522 27.8475 42.028 27.7492 42.0997 27.6406L42.2882 27.319L42.4684 27.0097C42.4971 26.9585 42.5299 26.9094 42.5544 26.8582C42.579 26.807 42.6036 26.7557 42.6261 26.7045L42.8965 26.1187C42.9764 25.9303 43.0296 25.7419 43.1013 25.5677C43.132 25.4817 43.1607 25.3957 43.1894 25.3138C43.2205 25.2355 43.2445 25.1546 43.2611 25.0721C43.3 24.9123 43.3348 24.7628 43.3676 24.6255C43.4004 24.4883 43.4352 24.3593 43.4557 24.2405L43.5007 23.9189C43.5274 23.7263 43.5478 23.5809 43.5622 23.4806C43.5765 23.3802 43.5847 23.331 43.5847 23.331C43.5847 23.331 43.5847 23.3802 43.5704 23.4806C43.556 23.5809 43.5397 23.7284 43.5171 23.9209C43.5048 24.0172 43.4925 24.1258 43.4782 24.2446C43.4639 24.3634 43.4229 24.4904 43.3942 24.6296C43.3656 24.7689 43.3266 24.9184 43.2898 25.0803C43.2739 25.1634 43.2506 25.245 43.2201 25.324C43.1915 25.4059 43.1628 25.492 43.1341 25.58C43.0706 25.7541 43.0194 25.9426 42.9395 26.1331C42.8596 26.3236 42.7654 26.5161 42.6712 26.723C42.6487 26.7742 42.6241 26.8254 42.6015 26.8786C42.579 26.9319 42.5442 26.979 42.5155 27.0302L42.3353 27.3416L42.1468 27.6652C42.0772 27.7717 41.9994 27.87 41.9236 27.9827C41.2347 28.9592 40.364 29.7938 39.3591 30.4406L38.9351 30.711C38.7856 30.7929 38.6299 30.8666 38.4763 30.9465L38.2428 31.0653C38.165 31.108 38.0842 31.1449 38.0011 31.1759L37.5013 31.3705C37.4153 31.4033 37.3313 31.4381 37.2453 31.4688L36.9811 31.5446L36.4424 31.6962C36.258 31.7413 36.0696 31.7658 35.8812 31.8006L35.5964 31.8519C35.5493 31.8519 35.5022 31.8703 35.4531 31.8744L35.3076 31.8867C34.9125 31.9293 34.5149 31.945 34.1176 31.9338C33.9128 31.9338 33.7079 31.9338 33.5031 31.9113L32.8886 31.8314C32.7862 31.817 32.6838 31.8088 32.5793 31.7884L32.2721 31.7167C32.0673 31.6655 31.8624 31.6265 31.6576 31.5671C31.2429 31.4408 30.8371 31.2868 30.443 31.1063L30.1419 30.969L29.9903 30.8994L29.8469 30.8154L29.2345 30.4754C29.0461 30.3525 28.8658 30.2132 28.6794 30.0821C28.5893 30.0146 28.491 29.9552 28.4049 29.8773L28.1469 29.65C27.796 29.3449 27.4656 29.0171 27.1575 28.6688L26.7233 28.1097L26.6148 27.9704L26.5185 27.8188L26.328 27.5177L26.1355 27.2146L25.9716 26.893L25.8077 26.5694L25.7258 26.4055L25.6582 26.2375C25.5701 26.0102 25.4821 25.7828 25.3919 25.5534C25.3018 25.324 25.2608 25.0823 25.1871 24.8427C24.6935 22.8834 24.8554 20.8164 25.648 18.958L25.9552 18.2861C26.0781 18.0813 26.201 17.8642 26.3219 17.6532C26.3546 17.602 26.3833 17.5487 26.4161 17.4975L26.5205 17.3501L26.7254 17.0551L26.9302 16.7622L27.1862 16.4959L27.4218 16.2256C27.4627 16.1825 27.4996 16.1354 27.5406 16.0924L27.6696 15.9716L28.194 15.4923C28.5511 15.1938 28.9282 14.9201 29.3226 14.673L29.6134 14.4886C29.7097 14.4272 29.8183 14.3842 29.9145 14.3309C30.1194 14.2305 30.3242 14.1261 30.529 14.0298L31.1558 13.7861L31.3094 13.7267C31.3627 13.7082 31.4159 13.6959 31.4692 13.6796L31.7887 13.5915C32.2064 13.4749 32.6313 13.386 33.0607 13.3252C33.2655 13.2986 33.4847 13.2904 33.6956 13.274L34.009 13.2515C34.1135 13.2515 34.2139 13.2515 34.3224 13.2515L34.9369 13.2679C35.1417 13.2822 35.3466 13.317 35.5514 13.3416C35.9455 13.3902 36.3357 13.4669 36.7189 13.571L36.8602 13.6058C36.9073 13.6181 36.9524 13.6365 36.9995 13.6509L37.2719 13.7451C37.4522 13.8086 37.6365 13.8619 37.8106 13.9356L38.3186 14.1691L38.5685 14.2838C38.6504 14.3268 38.7283 14.376 38.8061 14.421L39.2711 14.6935C39.3472 14.7371 39.4204 14.7857 39.4902 14.8389L39.695 14.9925C39.8364 15.0949 39.9777 15.1973 40.1047 15.2977C40.2317 15.3981 40.3587 15.521 40.4836 15.6295C41.3764 16.4271 42.1067 17.3897 42.6343 18.4643C43.0363 19.2718 43.3126 20.1359 43.4536 21.0267C43.468 21.1168 43.4844 21.2049 43.4987 21.293C43.5156 21.3761 43.5266 21.4603 43.5315 21.5449C43.5315 21.7088 43.5519 21.8604 43.5622 22.0037C43.5724 22.1471 43.5847 22.2762 43.5868 22.397L43.5745 22.7247C43.5745 22.9173 43.5622 23.0648 43.5581 23.1672C43.554 23.2696 43.5581 23.3187 43.5581 23.3187Z" fill="#263238"/>
<path d="M31.3401 20.318H32.9788C32.9788 20.318 32.9788 18.9498 34.4003 18.9252C34.6744 18.9152 34.9448 18.9909 35.1739 19.1418C35.403 19.2927 35.5793 19.5112 35.6784 19.767C35.7642 19.9806 35.7984 20.2113 35.7781 20.4406C35.7578 20.6698 35.6836 20.891 35.5616 21.0861C35.2851 21.5429 34.6809 21.9567 33.581 21.7641V25.4387H35.1929V23.286C35.1929 23.286 37.446 22.7022 37.446 20.2136C37.446 17.8314 35.3076 17.2784 34.3941 17.2784C33.6936 17.2743 31.3094 17.4423 31.3401 20.318Z" fill="#263238"/>
<path d="M35.2053 26.1968H33.5687V27.7248H35.2053V26.1968Z" fill="#263238"/>
</g>
<defs>
<clipPath id="clip0_80_31520">
<rect width="108" height="108" fill="white"/>
</clipPath>
</defs>
</svg>
