<svg width="64" height="64" viewBox="0 0 64 64" fill="none" xmlns="http://www.w3.org/2000/svg">
<path d="M54.2695 54.2695C66.5685 41.9704 66.5685 22.0296 54.2695 9.73053C41.9704 -2.56855 22.0296 -2.56855 9.73053 9.73054C-2.56855 22.0296 -2.56856 41.9704 9.73053 54.2695C22.0296 66.5685 41.9704 66.5686 54.2695 54.2695Z" fill="white" stroke="#263238" stroke-linecap="round" stroke-linejoin="round"/>
<path d="M38.0568 33.1797C37.1733 33.6412 36.4054 34.2962 35.8104 35.0959C35.2154 35.8956 34.8086 36.8193 34.6205 37.7982C33.8849 41.2344 35.293 48.4485 39.5227 49.967C43.7523 51.4854 48.7071 51.1492 52.0855 46.9248C55.464 42.7004 55.3536 42.4744 56.1418 40.2782C56.9299 38.0819 54.7336 32.5597 51.7493 30.6997C48.7649 28.8398 43.8679 28.4457 43.4634 29.2916C43.0588 30.1375 43.1271 30.5894 42.5071 30.9835C41.8871 31.3775 39.0708 32.5335 38.0568 33.1797Z" fill="white" stroke="#263238" stroke-linecap="round" stroke-linejoin="round"/>
<path d="M43.747 34.504C43.2547 34.4197 42.7488 34.4732 42.2851 34.6587C41.8214 34.8441 41.4181 35.1543 41.1198 35.5548C40.1636 36.963 39.9376 38.7652 40.5576 39.6111C41.1776 40.457 40.7836 41.5289 41.7976 42.4274C42.8117 43.3258 45.7383 44.1717 47.6561 42.7111C49.5739 41.2504 51.5442 36.5689 48.9486 34.9348C46.353 33.3008 44.1988 32.024 43.747 34.504Z" fill="#92E3A9" stroke="#263238" stroke-linecap="round" stroke-linejoin="round"/>
<path d="M37.2105 37.0419C37.2105 37.0419 32.9283 35.2397 29.8861 35.4656C26.8439 35.6915 23.4655 37.0419 22.0048 39.669C20.5441 42.2961 20.1448 44.8496 20.8226 46.82C21.5004 48.7903 22.7929 49.1318 23.0767 50.9918C23.3604 52.8518 26.3973 56.0621 30.8477 55.8362C35.298 55.6103 39.0758 53.9762 40.258 48.4015C41.4402 42.8267 40.1949 39.1225 37.2105 37.0419Z" fill="white" stroke="#263238" stroke-linecap="round" stroke-linejoin="round"/>
<path d="M30.2804 41.5495C30.2804 41.5495 28.0263 41.7702 27.1804 43.6512C26.3345 45.5322 26.8441 48.1593 28.1945 49.1734C29.5448 50.1875 32.3085 50.9178 33.2648 50.3031C34.221 49.6883 35.9707 48.4431 36.1388 46.5253C36.307 44.6075 35.6922 42.6372 34.6204 42.0749C33.5485 41.5127 31.1841 41.1502 30.2804 41.5495Z" fill="#92E3A9" stroke="#263238" stroke-linecap="round" stroke-linejoin="round"/>
<path d="M18.2061 45.5005C17.6795 45.4964 17.1635 45.3514 16.7118 45.0807C16.26 44.8101 15.8889 44.4235 15.6368 43.9611C9.41054 32.5174 7.00936 23.2384 6.90953 22.8496C6.71653 22.0915 6.83258 21.2879 7.23214 20.6154C7.6317 19.9428 8.28205 19.4566 9.04012 19.2636C9.79819 19.0706 10.6019 19.1867 11.2744 19.5862C11.9469 19.9858 12.4331 20.6361 12.6261 21.3942C14.6195 28.2581 17.3667 34.8802 20.8174 41.1395C21.0627 41.5883 21.1869 42.0932 21.178 42.6045C21.169 43.1158 21.0272 43.616 20.7664 44.056C20.5056 44.4959 20.1349 44.8604 19.6906 45.1137C19.2463 45.3669 18.7438 45.5003 18.2324 45.5005H18.2061Z" fill="#92E3A9" stroke="#263238" stroke-linecap="round" stroke-linejoin="round"/>
<path d="M15.9575 32.1971L10.7032 28.2827C11.7978 28.6495 12.8537 29.1229 13.8558 29.696C14.4791 30.1558 15.0484 30.6846 15.5529 31.2723" stroke="#263238" stroke-width="0.75" stroke-linecap="round" stroke-linejoin="round"/>
<path d="M18.0801 38.2345L12.8258 34.3201C13.9217 34.6835 14.978 35.1571 15.9784 35.7335C16.6035 36.1929 17.1746 36.7217 17.6807 37.3097" stroke="#263238" stroke-width="0.75" stroke-linecap="round" stroke-linejoin="round"/>
<path d="M19.9192 43.5147L14.665 39.6003C15.7609 39.9637 16.8171 40.4373 17.8175 41.0137C18.4417 41.4724 19.0112 42.0012 19.5146 42.5899" stroke="#263238" stroke-width="0.75" stroke-linecap="round" stroke-linejoin="round"/>
<path d="M12.6578 24.6049L7.40355 20.6957C8.49906 21.0601 9.5552 21.5336 10.5561 22.1091C11.1803 22.5678 11.7497 23.0967 12.2532 23.6854" stroke="#263238" stroke-width="0.75" stroke-linecap="round" stroke-linejoin="round"/>
<path d="M22.8352 37.9509C22.304 37.952 21.7823 37.8095 21.3254 37.5385C20.8685 37.2675 20.4934 36.8781 20.2396 36.4114C14.0133 24.9677 11.6122 15.6887 11.5123 15.3157C11.3564 14.5738 11.4924 13.8003 11.892 13.156C12.2916 12.5117 12.924 12.0462 13.6579 11.8561C14.3919 11.666 15.1708 11.766 15.8329 12.1354C16.495 12.5047 16.9893 13.1149 17.2132 13.8393C19.2059 20.7051 21.9531 27.329 25.4045 33.5899C25.6497 34.0386 25.7739 34.5435 25.765 35.0548C25.756 35.5662 25.6142 36.0664 25.3534 36.5063C25.0927 36.9462 24.7219 37.3107 24.2776 37.564C23.8333 37.8173 23.3308 37.9506 22.8194 37.9509H22.8352Z" fill="#92E3A9" stroke="#263238" stroke-linecap="round" stroke-linejoin="round"/>
<path d="M20.5865 24.6467L15.3323 20.7323C16.4278 21.0967 17.4839 21.5702 18.4848 22.1457C19.1076 22.6061 19.6769 23.1348 20.1819 23.722" stroke="#263238" stroke-width="0.75" stroke-linecap="round" stroke-linejoin="round"/>
<path d="M22.7091 30.6787L17.4549 26.7643C18.5506 27.1303 19.6068 27.6056 20.6074 28.1829C21.233 28.6399 21.8026 29.169 22.3045 29.7592" stroke="#263238" stroke-width="0.75" stroke-linecap="round" stroke-linejoin="round"/>
<path d="M24.569 35.9594L19.3148 32.045C20.4105 32.411 21.4667 32.8863 22.4673 33.4636C23.0929 33.9206 23.6625 34.4497 24.1644 35.0399" stroke="#263238" stroke-width="0.75" stroke-linecap="round" stroke-linejoin="round"/>
<path d="M17.2868 17.0548L12.0326 13.1404C13.1271 13.5072 14.183 13.9806 15.1851 14.5538C15.8084 15.0136 16.3777 15.5424 16.8822 16.1301" stroke="#263238" stroke-width="0.75" stroke-linecap="round" stroke-linejoin="round"/>
<path d="M33.5011 25.8764C33.5011 25.8764 35.897 30.4265 35.9969 31.0623C36.0967 31.6981 37.4155 31.2567 37.4155 31.2567C37.4155 31.2567 48.3232 26.8537 50.3776 25.2406C52.432 23.6276 56.4463 22.7449 56.2992 21.5627C56.152 20.3805 52.4846 13.2925 50.9188 10.8966C49.3531 8.50068 47.7663 4.23951 46.6156 3.80341C45.465 3.36731 43.2372 5.12222 40.547 6.58815C37.8569 8.05407 30.3486 10.0244 29.8652 12.0788C29.3818 14.1332 33.5011 25.8764 33.5011 25.8764Z" fill="white" stroke="#263238" stroke-linecap="round" stroke-linejoin="round"/>
<path d="M56.2834 21.573C56.1415 20.4381 52.7263 13.7968 51.0764 11.1802C52.7052 14.5587 54.9383 19.2297 55.0591 19.6605C55.2588 20.3488 55.5005 21.3734 55.0118 21.8147C54.5232 22.2561 53.1046 22.5503 51.833 23.039C50.5615 23.5276 37.8883 29.7906 37.8883 29.7906C37.8883 29.7906 36.7639 30.2793 36.517 29.8379C36.27 29.3966 31.9248 18.8829 30.4011 14.8214C30.1594 14.1751 29.9913 13.6444 29.8757 13.2136C30.3118 16.8022 33.4853 25.8763 33.4853 25.8763C33.4853 25.8763 35.8812 30.4264 35.9811 31.0622C36.0809 31.6979 37.3997 31.2566 37.3997 31.2566C37.3997 31.2566 48.3075 26.8535 50.3619 25.2405C52.4163 23.6274 56.4305 22.7447 56.2834 21.573Z" fill="#D1D1D1" stroke="#263238" stroke-linecap="round" stroke-linejoin="round"/>
<path d="M23.413 5.08019C23.413 5.08019 21.6266 4.75443 21.6266 6.78782C21.6266 8.8212 21.1379 25.6242 21.8683 26.6015C22.5986 27.5788 23.97 27.6523 24.7108 27.5735C25.4517 27.4947 37.5416 26.8432 39.5697 27.006C41.5979 27.1689 41.8448 26.7643 41.8448 25.2984C41.8448 23.8325 42.738 6.29917 42.3335 5.81053C42.1879 5.55444 41.9745 5.34342 41.7168 5.20067C41.4592 5.05792 41.1671 4.98897 40.8728 5.00138C40.0584 5.00138 31.9406 5.08019 29.4238 5.08019H23.413Z" fill="white" stroke="#263238" stroke-linecap="round" stroke-linejoin="round"/>
<path d="M41.8449 25.2985C41.8449 23.8379 42.7382 6.2993 42.3336 5.81065C42.1352 5.51719 41.8659 5.27861 41.5507 5.11709H41.4614C41.5861 5.48442 41.6844 5.86017 41.7556 6.2415C41.9027 6.97709 41.1672 24.5419 41.0673 25.4194C40.9675 26.2968 39.7485 26.0079 36.8114 26.0079C33.8743 26.0079 28.1525 25.908 26.303 26.3967C25.0508 26.803 23.6928 26.7338 22.4884 26.2023C21.963 25.9291 21.6425 24.295 21.5427 23.6645C21.6057 25.2407 21.7108 26.3546 21.8789 26.5858C22.6093 27.5579 23.9806 27.6367 24.7215 27.5579C25.4623 27.479 37.5523 26.8275 39.5804 26.9904C41.6085 27.1533 41.8449 26.7645 41.8449 25.2985Z" fill="#D1D1D1" stroke="#263238" stroke-linecap="round" stroke-linejoin="round"/>
<path d="M24.4008 7.22372C24.4008 7.31643 24.3733 7.40704 24.3216 7.48405C24.27 7.56106 24.1967 7.621 24.1109 7.65623C24.0252 7.69146 23.9309 7.70041 23.84 7.68193C23.7492 7.66346 23.6659 7.6184 23.6007 7.55248C23.5355 7.48655 23.4914 7.40274 23.4739 7.31169C23.4565 7.22063 23.4665 7.12645 23.5027 7.04109C23.5389 6.95574 23.5997 6.88308 23.6772 6.83233C23.7548 6.78159 23.8458 6.75505 23.9385 6.7561C24.0616 6.75748 24.1792 6.80735 24.2657 6.8949C24.3523 6.98245 24.4008 7.1006 24.4008 7.22372Z" stroke="#263238" stroke-width="0.75" stroke-linecap="round" stroke-linejoin="round"/>
<path d="M27.4115 9.54073C27.7452 9.54073 28.0158 9.27021 28.0158 8.9365C28.0158 8.60279 27.7452 8.33227 27.4115 8.33227C27.0778 8.33227 26.8073 8.60279 26.8073 8.9365C26.8073 9.27021 27.0778 9.54073 27.4115 9.54073Z" stroke="#263238" stroke-width="0.75" stroke-linecap="round" stroke-linejoin="round"/>
<path d="M24.8632 11.6693C25.0693 11.6693 25.2363 11.5023 25.2363 11.2962C25.2363 11.0902 25.0693 10.9232 24.8632 10.9232C24.6572 10.9232 24.4902 11.0902 24.4902 11.2962C24.4902 11.5023 24.6572 11.6693 24.8632 11.6693Z" stroke="#263238" stroke-width="0.75" stroke-linecap="round" stroke-linejoin="round"/>
<path d="M27.3642 12.8778C27.5702 12.8778 27.7372 12.7107 27.7372 12.5047C27.7372 12.2987 27.5702 12.1317 27.3642 12.1317C27.1582 12.1317 26.9911 12.2987 26.9911 12.5047C26.9911 12.7107 27.1582 12.8778 27.3642 12.8778Z" stroke="#263238" stroke-width="0.75" stroke-linecap="round" stroke-linejoin="round"/>
<path d="M37.8358 8.84187C37.8358 8.94579 37.805 9.04738 37.7472 9.13378C37.6895 9.22019 37.6074 9.28754 37.5114 9.3273C37.4154 9.36707 37.3098 9.37747 37.2079 9.3572C37.1059 9.33693 37.0123 9.28688 36.9388 9.2134C36.8654 9.13992 36.8153 9.0463 36.795 8.94438C36.7748 8.84246 36.7852 8.73682 36.8249 8.64081C36.8647 8.5448 36.9321 8.46274 37.0185 8.405C37.1049 8.34727 37.2065 8.31645 37.3104 8.31645C37.4497 8.31645 37.5834 8.37182 37.6819 8.47035C37.7804 8.56889 37.8358 8.70252 37.8358 8.84187Z" stroke="#263238" stroke-width="0.75" stroke-linecap="round" stroke-linejoin="round"/>
<path d="M52.0118 21.7676C52.3194 21.7676 52.5688 21.5183 52.5688 21.2107C52.5688 20.9031 52.3194 20.6537 52.0118 20.6537C51.7042 20.6537 51.4549 20.9031 51.4549 21.2107C51.4549 21.5183 51.7042 21.7676 52.0118 21.7676Z" stroke="#263238" stroke-width="0.75" stroke-linecap="round" stroke-linejoin="round"/>
<path d="M49.8366 18.7096C50.0658 18.7096 50.2517 18.5238 50.2517 18.2945C50.2517 18.0653 50.0658 17.8794 49.8366 17.8794C49.6073 17.8794 49.4215 18.0653 49.4215 18.2945C49.4215 18.5238 49.6073 18.7096 49.8366 18.7096Z" stroke="#263238" stroke-width="0.75" stroke-linecap="round" stroke-linejoin="round"/>
<path d="M46.9152 13.6605C46.9152 13.7252 46.8959 13.7883 46.8599 13.842C46.8239 13.8957 46.7727 13.9374 46.7128 13.9619C46.653 13.9864 46.5872 13.9926 46.5239 13.9796C46.4606 13.9666 46.4025 13.935 46.3572 13.8889C46.3119 13.8428 46.2813 13.7843 46.2693 13.7208C46.2573 13.6572 46.2645 13.5916 46.29 13.5322C46.3155 13.4727 46.358 13.4222 46.4123 13.3871C46.4665 13.3519 46.53 13.3337 46.5947 13.3347C46.6372 13.3347 46.6793 13.3432 46.7186 13.3596C46.7578 13.3761 46.7934 13.4001 46.8232 13.4305C46.853 13.4608 46.8765 13.4967 46.8923 13.5362C46.9081 13.5757 46.9159 13.618 46.9152 13.6605Z" stroke="#263238" stroke-width="0.75" stroke-linecap="round" stroke-linejoin="round"/>
<path d="M49.5107 14.5429C49.5107 14.6344 49.4836 14.7238 49.4328 14.7998C49.382 14.8758 49.3097 14.9351 49.2253 14.9701C49.1408 15.0051 49.0478 15.0142 48.9581 14.9964C48.8684 14.9786 48.786 14.9345 48.7214 14.8699C48.6567 14.8052 48.6127 14.7228 48.5948 14.6331C48.577 14.5434 48.5861 14.4505 48.6211 14.366C48.6561 14.2815 48.7154 14.2093 48.7914 14.1585C48.8675 14.1077 48.9569 14.0805 49.0483 14.0805C49.1709 14.0805 49.2886 14.1293 49.3753 14.216C49.462 14.3027 49.5107 14.4203 49.5107 14.5429Z" stroke="#263238" stroke-width="0.75" stroke-linecap="round" stroke-linejoin="round"/>
</svg>
