<svg width="88" height="88" viewBox="0 0 88 88" fill="none" xmlns="http://www.w3.org/2000/svg">
<path d="M82.7799 83.2674C82.7799 83.2938 65.4157 83.3132 44.0018 83.3132C22.5879 83.3132 5.22021 83.2938 5.22021 83.2674C5.22021 83.241 22.5809 83.2217 44.0018 83.2217C65.4228 83.2217 82.7799 83.2481 82.7799 83.2674Z" fill="#263238"/>
<path d="M79.8265 83.2669C79.7542 83.1569 79.6951 83.0388 79.6505 82.9149C79.5554 82.6914 79.4322 82.3869 79.2985 82.0349C79.1647 81.6829 79.0521 81.4137 78.9465 81.1549C78.8904 81.036 78.8433 80.9131 78.8057 80.7871C78.8895 80.8894 78.9571 81.004 79.0063 81.1268C79.1137 81.3468 79.2457 81.6548 79.3812 82.0068C79.5167 82.3588 79.6311 82.6668 79.7103 82.8868C79.7625 83.009 79.8015 83.1364 79.8265 83.2669Z" fill="#263238"/>
<path d="M80.6362 83.3025C80.6098 83.3025 80.52 82.7164 80.3563 81.9983C80.1927 81.2802 80.0219 80.71 80.0466 80.7012C80.1115 80.8157 80.1612 80.9381 80.1944 81.0655C80.2719 81.2961 80.3704 81.6181 80.4461 81.9789C80.5218 82.3397 80.5816 82.6706 80.6115 82.91C80.6369 83.0392 80.6452 83.1711 80.6362 83.3025Z" fill="#263238"/>
<path d="M82.0722 80.8579C82.0968 80.872 81.8328 81.4 81.5653 82.0741C81.2978 82.7481 81.1236 83.3061 81.0972 83.3061C81.1087 83.1771 81.1359 83.05 81.1781 82.9277C81.3504 82.3277 81.5821 81.7463 81.8698 81.1923C81.9226 81.0726 81.9907 80.9602 82.0722 80.8579Z" fill="#263238"/>
<path d="M39.7549 83.2674C39.3467 82.6716 38.9888 82.0428 38.6848 81.3877C39.0947 81.9824 39.4527 82.6113 39.7549 83.2674Z" fill="#263238"/>
<path d="M40.5153 83.248C40.2985 82.5187 40.1419 81.7729 40.0471 81.0181C40.2617 81.7479 40.4182 82.4935 40.5153 83.248Z" fill="#263238"/>
<path d="M42.1184 81.2573C41.9661 81.6096 41.7848 81.9487 41.5764 82.2711C41.3952 82.6091 41.1875 82.9322 40.9551 83.2373C41.1077 82.8857 41.289 82.5472 41.4972 82.2253C41.6791 81.8872 41.8868 81.5636 42.1184 81.2573Z" fill="#263238"/>
<path d="M9.79967 83.267C9.60136 83.0096 9.4281 82.7338 9.28223 82.4434C9.10888 82.1687 8.96214 81.8782 8.84399 81.5757C9.04158 81.8336 9.21481 82.1094 9.36143 82.3994C9.53395 82.6745 9.68066 82.9649 9.79967 83.267Z" fill="#263238"/>
<path d="M10.2239 80.5376C10.3216 80.9862 10.3904 81.4406 10.4298 81.8981C10.4989 82.3514 10.5365 82.8089 10.5424 83.2674C10.3764 82.3654 10.27 81.4535 10.2239 80.5376Z" fill="#263238"/>
<path d="M11.8782 81.4053C11.8275 81.7273 11.7461 82.0438 11.6353 82.3504C11.5542 82.6658 11.4434 82.9728 11.3044 83.2674C11.3555 82.946 11.4368 82.6301 11.5473 82.324C11.6306 82.0087 11.7413 81.7013 11.8782 81.4053Z" fill="#263238"/>
<path d="M24.9426 77.4401C25.0746 77.5028 25.1925 77.5916 25.2893 77.7011C25.3861 77.8106 25.4597 77.9385 25.5058 78.0772C25.5961 78.3558 25.6219 78.6513 25.5815 78.9413C25.5164 79.5028 25.1978 80.0677 24.8564 80.5165C24.3829 80.1047 24.2756 79.3848 24.2421 79.017C24.1911 78.4344 24.4533 77.352 24.9461 77.433" fill="#455A64"/>
<path d="M25.4039 81.4333C25.3716 81.2731 25.3825 81.1072 25.4354 80.9526C25.4882 80.798 25.5813 80.6602 25.7049 80.5533C25.8297 80.4484 25.9741 80.3694 26.1297 80.3208C26.2853 80.2721 26.449 80.2549 26.6113 80.2699C26.6867 80.2684 26.7615 80.2833 26.8305 80.3137C26.8995 80.3441 26.9611 80.3893 27.0108 80.4459C27.0467 80.507 27.0656 80.5766 27.0656 80.6475C27.0656 80.7183 27.0467 80.7879 27.0108 80.849C26.9396 80.9712 26.8369 81.0721 26.7134 81.1411C26.3051 81.3981 25.8615 81.5706 25.3987 81.4315" fill="#455A64"/>
<path d="M24.7983 83.1527C24.8013 83.1142 24.8072 83.0759 24.8159 83.0383C24.83 82.9573 24.8494 82.8517 24.8723 82.7268C24.9254 82.3801 25.0341 82.0443 25.1943 81.7324C25.3607 81.4204 25.6074 81.1585 25.9089 80.9738C26 80.9192 26.0976 80.876 26.1993 80.8453C26.2268 80.836 26.2551 80.8289 26.2838 80.8242C26.3031 80.8242 26.3119 80.8242 26.3137 80.8242C26.1775 80.8687 26.0465 80.9277 25.923 81.0002C25.6323 81.1892 25.3939 81.4482 25.2295 81.7535C25.0726 82.0625 24.9617 82.3927 24.9004 82.7338C24.8723 82.8641 24.8494 82.9697 24.8318 83.0436C24.8254 83.0813 24.8142 83.1179 24.7983 83.1527Z" fill="#263238"/>
<path d="M24.816 78.2739C24.8178 78.2909 24.8178 78.308 24.816 78.325L24.8248 78.4693C24.8248 78.5942 24.8389 78.7755 24.8459 78.9973C24.86 79.4461 24.8706 80.0674 24.8688 80.7573C24.8671 81.4472 24.8495 82.0632 24.8301 82.5173C24.8213 82.7426 24.8125 82.9238 24.8037 83.0453C24.8037 83.1034 24.8037 83.1509 24.7949 83.1896C24.7966 83.206 24.7966 83.2225 24.7949 83.2389C24.793 83.2219 24.793 83.2048 24.7949 83.1878C24.7949 83.1509 24.7949 83.1034 24.7949 83.0435C24.7949 82.9133 24.8037 82.732 24.809 82.5155C24.8195 82.0667 24.8319 81.4454 24.8354 80.7555C24.8389 80.0656 24.8354 79.4496 24.8231 78.9955C24.8231 78.7755 24.8231 78.5942 24.8231 78.4675V78.3197C24.816 78.2915 24.816 78.2739 24.816 78.2739Z" fill="#263238"/>
<path d="M24.5872 81.7746C24.5297 81.4357 24.3925 81.1154 24.1869 80.84C23.9812 80.5646 23.7131 80.342 23.4045 80.1906C23.2461 80.1149 23.0402 80.0656 22.91 80.1906C22.7797 80.3156 22.8096 80.518 22.873 80.6816C23.0118 81.0201 23.2476 81.31 23.5508 81.5148C23.8539 81.7196 24.2108 81.8302 24.5767 81.8327" fill="#455A64"/>
<path d="M23.48 80.7188C23.5149 80.7299 23.5485 80.7446 23.5804 80.7627C23.6193 80.78 23.6569 80.8 23.693 80.8226C23.7426 80.8507 23.7908 80.8812 23.8373 80.9141C23.8949 80.9519 23.9501 80.993 24.0028 81.0373C24.0645 81.0872 24.1233 81.1407 24.1788 81.1975C24.3053 81.3271 24.4169 81.4706 24.5114 81.6251C24.6028 81.782 24.6766 81.9484 24.7314 82.1215C24.7546 82.197 24.7728 82.2741 24.786 82.352C24.7997 82.4194 24.8091 82.4876 24.8141 82.5562C24.8175 82.6148 24.8175 82.6736 24.8141 82.7322C24.8141 82.7815 24.8141 82.8255 24.8141 82.8607C24.8129 82.8973 24.8087 82.9338 24.8018 82.9698C24.8018 82.9698 24.8018 82.8131 24.7807 82.565C24.7731 82.4976 24.762 82.4306 24.7472 82.3644C24.7322 82.2882 24.7128 82.213 24.6892 82.1391C24.6344 81.9691 24.5612 81.8056 24.4709 81.6515C24.3778 81.4995 24.2686 81.3579 24.1453 81.2291C24.0903 81.1719 24.0315 81.1184 23.9693 81.069C23.9189 81.0239 23.866 80.9816 23.8109 80.9423C23.6173 80.7839 23.4765 80.7275 23.48 80.7188Z" fill="#263238"/>
<path d="M72.4821 75.7467C72.6562 75.8301 72.8117 75.9477 72.9393 76.0926C73.0669 76.2374 73.164 76.4065 73.2248 76.5897C73.3451 76.9572 73.3794 77.3474 73.3251 77.7302C73.2406 78.4712 72.82 79.2192 72.3659 79.8105C71.7429 79.2667 71.6003 78.3163 71.5563 77.8305C71.4894 77.0632 71.8344 75.6323 72.4821 75.7467Z" fill="#455A64"/>
<path d="M73.091 81.032C73.0494 80.8204 73.0641 80.6016 73.1336 80.3974C73.2031 80.1933 73.3249 80.0109 73.487 79.8686C73.6521 79.73 73.843 79.6255 74.0487 79.5611C74.2545 79.4968 74.4709 79.4739 74.6856 79.4938C74.7856 79.4924 74.8847 79.513 74.9759 79.554C75.0671 79.5951 75.1483 79.6556 75.2136 79.7314C75.2612 79.8109 75.2872 79.9015 75.2887 79.9942C75.2902 80.0869 75.2674 80.1783 75.2224 80.2594C75.1281 80.4209 74.9927 80.5545 74.8299 80.6466C74.2896 80.9862 73.7035 81.215 73.0928 81.0302" fill="#455A64"/>
<path d="M72.292 83.3023C72.2955 83.2513 72.3031 83.2007 72.3149 83.1509L72.3888 82.7391C72.4598 82.2815 72.6036 81.8382 72.8147 81.4261C73.034 81.0145 73.359 80.6688 73.7563 80.4247C73.8773 80.3508 74.0067 80.2918 74.1418 80.2487C74.1782 80.2374 74.2152 80.228 74.2526 80.2205C74.2654 80.2182 74.2785 80.2182 74.2913 80.2205C73.9827 80.32 73.6971 80.4803 73.4514 80.6919C73.2056 80.9035 73.0047 81.1621 72.8605 81.4525C72.6531 81.8606 72.5072 82.2971 72.4275 82.7479C72.3888 82.9239 72.3589 83.0594 72.3342 83.1562C72.3254 83.2063 72.3112 83.2552 72.292 83.3023Z" fill="#263238"/>
<path d="M72.315 76.8589C72.3205 76.8808 72.3235 76.9032 72.3238 76.9258C72.3238 76.975 72.3273 77.0384 72.3343 77.1158C72.3431 77.2813 72.3537 77.5224 72.3625 77.8198C72.3819 78.4147 72.396 79.2278 72.3924 80.1395C72.3889 81.0512 72.366 81.8661 72.3432 82.4592C72.3308 82.7566 72.3185 82.996 72.308 83.1632C72.308 83.2406 72.3079 83.304 72.2956 83.3533C72.2982 83.3755 72.2982 83.3979 72.2956 83.4202C72.2937 83.3979 72.2937 83.3755 72.2956 83.3533C72.2956 83.304 72.2956 83.2406 72.2956 83.1632C72.2956 82.9872 72.3062 82.7514 72.3132 82.4592C72.3273 81.8661 72.3432 81.0512 72.3484 80.1413C72.3537 79.2314 72.3484 78.4165 72.3326 77.8234C72.3326 77.5312 72.3326 77.2954 72.322 77.1194C72.322 77.0402 72.322 76.9768 72.322 76.9275C72.3181 76.9048 72.3157 76.8819 72.315 76.8589Z" fill="#263238"/>
<path d="M72.0122 81.488C71.9378 81.0391 71.7571 80.6145 71.4853 80.2495C71.2134 79.8846 70.8582 79.5899 70.4494 79.3901C70.2399 79.2898 69.9689 79.2247 69.7964 79.3796C69.6239 79.5344 69.6644 79.8125 69.7471 80.029C69.9303 80.4762 70.2419 80.8591 70.6425 81.1295C71.0432 81.3998 71.5149 81.5454 71.9981 81.5479" fill="#455A64"/>
<path d="M70.5497 80.0884C70.5957 80.1019 70.64 80.1208 70.6817 80.1447C70.7329 80.1692 70.7828 80.1962 70.8313 80.2257C70.8969 80.2618 70.9604 80.3018 71.0213 80.3453C71.0973 80.3955 71.1702 80.4501 71.2396 80.509C71.3209 80.5744 71.3985 80.6443 71.4719 80.7185C71.8111 81.0602 72.0618 81.4794 72.2023 81.9399C72.2326 82.0405 72.2573 82.1428 72.2762 82.2461C72.2938 82.3351 72.3061 82.425 72.3132 82.5154C72.3237 82.5981 72.3132 82.6738 72.3237 82.7407C72.3269 82.7993 72.3269 82.8581 72.3237 82.9167C72.3229 82.9646 72.3176 83.0123 72.3079 83.0593C72.2956 83.0593 72.3167 82.8533 72.2797 82.5313C72.2692 82.4503 72.2586 82.3553 72.2375 82.2655C72.2164 82.1757 72.19 82.0719 72.1601 81.9681C72.0874 81.7441 71.9906 81.5287 71.8714 81.3257C71.7478 81.1249 71.6039 80.9373 71.442 80.766C71.3705 80.6918 71.2953 80.6214 71.2167 80.5548C71.1446 80.4897 71.0706 80.4369 71.0055 80.3876C70.7327 80.1834 70.5444 80.0989 70.5497 80.0884Z" fill="#263238"/>
<path d="M73.8425 15.8685C73.8425 15.8685 73.714 15.8245 73.4764 15.7717C73.1406 15.6978 72.7943 15.6846 72.4539 15.733C71.949 15.7993 71.4725 16.0047 71.0776 16.3261C70.5932 16.7204 70.2513 17.2626 70.1043 17.8696V17.8872L70.0761 17.9963L70.0339 17.8925C69.7967 17.3167 69.3912 16.826 68.8705 16.4845C68.4428 16.2099 67.9522 16.0488 67.4449 16.0163C67.1036 15.9918 66.7606 16.0233 66.4294 16.1096C66.1953 16.1712 66.0774 16.2258 66.0686 16.2187C66.0964 16.2016 66.1259 16.1874 66.1566 16.1765C66.243 16.1391 66.3318 16.1074 66.4224 16.0815C66.8371 15.9595 67.2732 15.9278 67.7013 15.9886C68.1294 16.0493 68.5394 16.201 68.904 16.4335C69.4401 16.7776 69.8574 17.2784 70.099 17.8679H70.0286V17.8503C70.1784 17.2262 70.5306 16.6693 71.03 16.2663C71.4346 15.9406 71.9224 15.7351 72.438 15.6731C72.7845 15.6298 73.1361 15.6513 73.4747 15.7365C73.5662 15.7586 73.6562 15.7868 73.744 15.821C73.7781 15.8341 73.811 15.85 73.8425 15.8685Z" fill="#263238"/>
<path d="M74.8456 9.10658C74.8456 9.10658 74.7735 9.08546 74.6432 9.05906C74.4589 9.02181 74.2696 9.01645 74.0835 9.04322C73.8085 9.08023 73.5493 9.19365 73.3355 9.37058C73.0723 9.58498 72.8868 9.87995 72.8075 10.2101V10.2189L72.7794 10.3298L72.7371 10.2259C72.6088 9.91224 72.3885 9.64473 72.1053 9.45858C71.8732 9.30803 71.6068 9.21844 71.3309 9.1981C71.1443 9.18293 70.9564 9.19839 70.7747 9.24386C70.6445 9.27554 70.5759 9.3037 70.5741 9.29666C70.5723 9.28962 70.5899 9.2861 70.6216 9.27026C70.6682 9.24831 70.7165 9.23007 70.7659 9.2157C70.9497 9.15867 71.1422 9.13483 71.3344 9.1453C71.6215 9.15885 71.9001 9.24745 72.1423 9.40226C72.4399 9.59292 72.6716 9.8707 72.8058 10.1978H72.7354C72.8181 9.85091 73.0137 9.54136 73.2915 9.31778C73.4804 9.16818 73.7015 9.06454 73.9373 9.01506C74.1731 8.96558 74.4172 8.9716 74.6503 9.03266C74.7006 9.04582 74.7499 9.06229 74.7981 9.08194C74.8298 9.09602 74.8474 9.10306 74.8456 9.10658Z" fill="#263238"/>
<path d="M63.3899 8.68408C63.3899 8.68408 63.3195 8.76328 63.1927 8.90584C63.0153 9.10791 62.8551 9.32457 62.714 9.55352C62.2435 10.3096 61.9964 11.1833 62.0012 12.0738V12.1055H61.9273C61.7915 11.2323 61.3845 10.4239 60.7639 9.79464C60.5788 9.60338 60.3755 9.43066 60.1567 9.27896C60.0019 9.1716 59.9121 9.11704 59.9156 9.10296C59.9399 9.1101 59.9631 9.12078 59.9843 9.13464C60.0265 9.16104 60.0934 9.19272 60.1726 9.24552C60.4002 9.3901 60.6114 9.55887 60.8027 9.74888C61.0891 10.0285 61.3328 10.3487 61.526 10.6993C61.766 11.1295 61.9269 11.5992 62.0012 12.0862H61.9273V12.0738C61.9214 11.1704 62.1789 10.2848 62.6683 9.52536C62.8153 9.29684 62.9839 9.08291 63.1716 8.88648C63.2367 8.81608 63.2931 8.76856 63.33 8.73336C63.3473 8.71392 63.3675 8.6973 63.3899 8.68408Z" fill="#263238"/>
<path d="M56.6367 78.3113L57.9409 81.6782L60.8114 81.0041L61.4433 79.4641L60.4718 76.2715L56.6367 78.3113Z" fill="#FFBF9D"/>
<path d="M61.5894 79.0684L61.6914 79.3236C61.6914 79.3236 66.7954 79.3236 67.1633 80.1349L58.3826 83.537L57.3865 80.6189C58.923 80.7069 60.3151 80.244 61.5894 79.0684Z" fill="#455A64"/>
<g opacity="0.6">
<path d="M58.631 81.1923C58.5569 81.2493 58.5065 81.3318 58.4896 81.4237C58.4727 81.5157 58.4905 81.6107 58.5395 81.6903C58.5961 81.7657 58.6792 81.8167 58.772 81.833C58.8648 81.8494 58.9604 81.8298 59.0393 81.7783C59.1182 81.7181 59.1716 81.6303 59.1889 81.5325C59.2062 81.4347 59.1861 81.334 59.1326 81.2503C59.0657 81.1782 58.9738 81.1344 58.8756 81.1278C58.7774 81.1213 58.6805 81.1525 58.6046 81.2151" fill="white"/>
</g>
<g opacity="0.6">
<path d="M58.3827 83.5369L58.1433 82.8329L66.6476 79.8286C66.6476 79.8286 67.1035 79.8444 67.1633 80.1331L58.3827 83.5369Z" fill="white"/>
</g>
<path d="M61.732 79.336C61.7461 79.3782 61.5384 79.4803 61.38 79.6985C61.2216 79.9168 61.1776 80.135 61.1318 80.135C61.0861 80.135 61.0544 79.864 61.2515 79.607C61.4486 79.35 61.7249 79.2937 61.732 79.336Z" fill="#263238"/>
<path d="M62.7984 79.3535C62.8231 79.3905 62.6647 79.5295 62.589 79.7689C62.5133 80.0082 62.5432 80.2089 62.501 80.223C62.4588 80.237 62.3373 80.01 62.4376 79.7196C62.538 79.4292 62.7808 79.313 62.7984 79.3535Z" fill="#263238"/>
<path d="M63.742 80.2333C63.7068 80.2579 63.566 80.0696 63.5853 79.7968C63.6047 79.524 63.7701 79.3533 63.8018 79.3814C63.8335 79.4096 63.7578 79.5821 63.7455 79.8056C63.7332 80.0291 63.7824 80.2139 63.742 80.2333Z" fill="#263238"/>
<path d="M45.7125 57.2409C45.7882 57.4415 50.498 62.6969 51.5469 64.2281C52.7332 65.9599 52.9831 67.4243 53.0412 67.7675C53.3685 69.7299 53.6132 71.1115 54.5037 73.2499C55.3943 75.3883 57.1525 79.9044 57.1525 79.9044L61.3114 78.8326C61.3114 78.8326 58.8597 68.3711 58.638 66.6287C58.4162 64.8863 58.0431 63.5364 57.0768 61.9348C56.1106 60.3332 51.8479 51.5913 51.8479 51.5913L45.1106 54.4231L45.7125 57.2409Z" fill="#263238"/>
<path d="M42.6922 42.3741C42.6922 42.3741 44.0545 42.3934 44.2551 42.5184C44.4557 42.6434 45.2565 43.2594 45.2565 43.3984C45.2557 43.4827 45.275 43.566 45.3129 43.6413C45.3129 43.6413 45.8162 44.3453 45.5892 44.6462C45.3621 44.9472 45.1949 45.0458 45.2002 45.139C45.2055 45.2323 45.1333 45.5562 44.9415 45.6442C44.7564 45.7245 44.5853 45.8338 44.4346 45.968C44.3489 46.1013 44.2466 46.2231 44.1301 46.3306C43.9939 46.4163 43.8472 46.4844 43.6937 46.533C43.6508 46.6153 43.5864 46.6844 43.5074 46.733C43.4284 46.7817 43.3377 46.808 43.2449 46.8093C42.9562 46.7829 42.43 46.2338 42.2593 46.0296C42.0463 45.7744 41.5042 45.3256 41.4338 45.0986C41.3913 44.9593 41.3371 44.8239 41.2719 44.6938L39.9519 43.4459L42.0111 41.3779L42.6922 42.3741Z" fill="#FFBF9D"/>
<path d="M45.3552 43.7536C45.1998 43.6303 45.055 43.4943 44.9222 43.347C44.769 43.2212 44.627 43.0822 44.498 42.9316C44.858 43.1158 45.156 43.4016 45.3552 43.7536Z" fill="#FF9A6C"/>
<path d="M41.969 28.4839C41.969 28.4839 40.4026 29.8109 40.033 30.1436C39.6634 30.4762 34.8481 34.5207 34.526 36.3511C34.3218 37.5232 35.23 38.4402 35.7175 39.2093C36.0695 39.7831 38.2378 43.7255 40.2636 43.8399C40.3833 43.8399 40.994 44.5932 40.994 44.5932L43.1922 42.7188C42.8822 42.331 42.6038 41.9191 42.3598 41.4868C41.4798 39.8359 39.5631 37.2628 39.623 37.1466C40.0506 36.3458 39.0351 36.5359 39.0351 36.5359L43.2486 32.6727L41.969 28.4839Z" fill="#FF725E"/>
<path d="M35.0047 35.1368C35.0047 35.1368 34.7002 34.5929 35.0047 34.1389C35.3092 33.6848 39.6001 30.2158 39.6001 30.2158C39.6001 30.2158 39.8095 30.2704 39.9626 30.6153C40.1157 30.9603 35.2106 35.3005 35.2106 35.3005L35.0047 35.1368Z" fill="#263238"/>
<path d="M36.5042 33.8483C36.5042 33.8483 38.9682 36.6273 39.3202 36.5358C39.6722 36.4443 41.3794 35.1559 41.4568 34.7371C41.5342 34.3182 39.1107 31.3931 39.1107 31.3931L36.5042 33.8483Z" fill="#263238"/>
<path d="M33.0124 16.162C33.5527 16.2905 33.9751 16.727 34.4697 16.9963C35.3972 17.4996 36.5219 17.3659 37.4054 16.9558C38.2889 16.5457 39.007 15.8998 39.8007 15.3542C40.5945 14.8086 41.2246 14.2595 42.3703 14.1556C44.3926 13.9796 46.4183 15.759 45.4996 17.2708L43.8012 17.864C43.0077 20.2367 41.3996 22.2519 39.2622 23.5523C38.8363 23.811 38.354 24.0504 37.8243 23.9835C37.2945 23.9166 36.7559 23.4115 36.8686 22.9275C36.0273 23.1035 35.1614 23.2654 34.2814 23.1334C33.4014 23.0014 32.4879 22.5104 32.0972 21.7254C31.7065 20.9404 32.0515 19.8809 32.8998 19.7278C32.1166 19.2473 31.446 18.4641 31.3967 17.6158C31.3475 16.7675 32.1324 15.9526 33.0124 16.162Z" fill="#263238"/>
<path d="M49.889 12.7584C48.7943 12.461 47.777 12.7954 46.772 13.3304C45.7517 13.9085 44.9317 14.7837 44.4213 15.8396C43.911 16.8955 43.7346 18.0818 43.9156 19.2405C44.0207 19.8307 44.2442 20.3936 44.5727 20.8951C44.9012 21.3966 45.3278 21.8264 45.8269 22.1586C47.205 23.0386 49.0829 22.9576 50.4733 22.104C51.8637 21.2504 52.7613 19.7016 52.9848 18.0842C53.1536 16.9637 52.9658 15.8185 52.448 14.8106C52.1854 14.3114 51.8228 13.8716 51.3828 13.5185C50.9429 13.1655 50.435 12.9068 49.8908 12.7584" fill="#263238"/>
<path d="M46.3532 16.2379C46.5574 15.8278 46.5398 15.3456 46.6489 14.9003C46.8883 13.92 47.3423 13.0523 48.3068 12.7549C49.2044 12.4785 50.674 12.8077 51.679 13.2441C52.3791 13.5328 52.9823 14.0151 53.4179 14.6345C53.6925 15.053 53.8631 15.5311 53.9155 16.0289C53.9678 16.5267 53.9004 17.0298 53.7188 17.4963L48.7028 16.2643C48.1889 16.6163 47.6609 16.9683 47.0625 17.1285C46.8884 17.1864 46.7021 17.1979 46.5222 17.1619C46.4332 17.1423 46.3517 17.0976 46.2874 17.033C46.2231 16.9684 46.1788 16.8867 46.1596 16.7976C46.1315 16.5952 46.2635 16.4157 46.3532 16.2379Z" fill="#263238"/>
<path d="M45.3816 25.5202L46.2616 15.9018C46.2857 15.6944 46.3868 15.5035 46.5449 15.367C46.7029 15.2304 46.9064 15.1582 47.1152 15.1644L51.6489 14.6558C53.0728 14.6998 53.761 16.5548 53.6659 17.9751C53.5515 19.5591 53.3473 21.4758 53.0024 22.618C52.3089 24.9148 50.4698 24.9676 50.4698 24.9676C50.4698 24.9676 50.4592 25.0591 50.3325 25.9092C50.3325 25.9092 50.1019 27.6692 48.1395 27.2838C46.8653 27.0338 45.3816 25.5202 45.3816 25.5202Z" fill="#FFBF9D"/>
<path d="M52.8282 19.8109C52.8184 19.8894 52.7784 19.961 52.7165 20.0103C52.6547 20.0597 52.576 20.0828 52.4973 20.0749C52.4586 20.0727 52.4207 20.0627 52.3859 20.0457C52.351 20.0287 52.3199 20.0049 52.2944 19.9758C52.2688 19.9466 52.2493 19.9127 52.237 19.8759C52.2247 19.8391 52.2199 19.8003 52.2227 19.7616C52.2333 19.683 52.2738 19.6115 52.3357 19.562C52.3977 19.5125 52.4764 19.4888 52.5554 19.4958C52.5942 19.4981 52.6321 19.508 52.667 19.5252C52.7019 19.5423 52.7329 19.5663 52.7584 19.5957C52.7838 19.6251 52.8031 19.6592 52.8151 19.6962C52.8271 19.7332 52.8315 19.7722 52.8282 19.8109Z" fill="#263238"/>
<path d="M53.1167 18.9182C53.0745 18.9516 52.8686 18.7528 52.5447 18.7088C52.2209 18.6648 51.9604 18.795 51.9305 18.751C51.9006 18.707 51.9639 18.6648 52.0783 18.6032C52.2322 18.5261 52.406 18.4978 52.5764 18.5222C52.7446 18.5439 52.9013 18.6192 53.0234 18.7369C53.1132 18.832 53.1378 18.9024 53.1167 18.9182Z" fill="#263238"/>
<path d="M50.0069 19.3848C49.9967 19.4634 49.9563 19.535 49.8942 19.5843C49.8321 19.6336 49.7531 19.6568 49.6742 19.6488C49.6357 19.6463 49.598 19.6362 49.5634 19.6191C49.5287 19.602 49.4978 19.5782 49.4725 19.5491C49.4471 19.5199 49.4278 19.486 49.4156 19.4494C49.4034 19.4127 49.3986 19.374 49.4014 19.3355C49.4116 19.2567 49.452 19.1849 49.514 19.1353C49.5761 19.0858 49.655 19.0622 49.7341 19.0697C49.7729 19.0719 49.8108 19.0819 49.8457 19.0991C49.8806 19.1162 49.9117 19.1402 49.9371 19.1696C49.9625 19.1989 49.9818 19.2331 49.9938 19.2701C50.0058 19.3071 50.0102 19.3461 50.0069 19.3848Z" fill="#263238"/>
<path d="M50.0174 18.3816C49.9751 18.4168 49.7692 18.2162 49.4454 18.1722C49.1215 18.1282 48.861 18.2584 48.8311 18.2144C48.8012 18.1704 48.8646 18.1282 48.979 18.0683C49.1324 17.9899 49.3064 17.961 49.477 17.9856C49.6454 18.0078 49.8022 18.0838 49.9241 18.2021C50.0138 18.2919 50.0385 18.3675 50.0174 18.3816Z" fill="#263238"/>
<path d="M50.7708 21.1078C50.9485 21.0768 51.1295 21.0685 51.3093 21.0831C51.3938 21.0831 51.4748 21.0831 51.4959 21.0268C51.5148 20.9421 51.5074 20.8537 51.4748 20.7734C51.4237 20.5622 51.3709 20.3422 51.3164 20.1098C51.0981 19.1665 50.9538 18.3956 50.9925 18.3868C51.0312 18.378 51.2372 19.1366 51.4536 20.0799C51.5047 20.3122 51.5557 20.534 51.6015 20.7452C51.6411 20.8519 51.6411 20.9693 51.6015 21.0761C51.5859 21.1037 51.5641 21.1273 51.5378 21.145C51.5116 21.1627 51.4815 21.1741 51.4501 21.1782C51.4021 21.1834 51.3538 21.1834 51.3058 21.1782C51.1253 21.1764 50.9456 21.1527 50.7708 21.1078Z" fill="#263238"/>
<path d="M50.4696 24.9713C49.362 24.8378 48.3133 24.3991 47.4407 23.7041C47.4407 23.7041 48.0092 25.4377 50.3887 25.538L50.4696 24.9713Z" fill="#FF9A6C"/>
<path d="M50.5278 21.87C50.4767 21.7838 50.4044 21.7121 50.3179 21.6616C50.2314 21.6111 50.1334 21.5835 50.0332 21.5814C49.961 21.5774 49.8888 21.5883 49.8209 21.6135C49.7531 21.6386 49.6912 21.6774 49.639 21.7274C49.5878 21.7754 49.5527 21.838 49.5385 21.9067C49.5243 21.9754 49.5318 22.0468 49.5598 22.1111C49.6041 22.1762 49.6667 22.2266 49.7397 22.2561C49.8127 22.2855 49.8928 22.2926 49.9699 22.2766C50.1303 22.2426 50.2827 22.1781 50.4187 22.0865C50.4583 22.0643 50.4939 22.0358 50.5243 22.002C50.538 21.9856 50.5468 21.9656 50.5496 21.9445C50.5524 21.9233 50.5491 21.9017 50.5401 21.8823" fill="#FF9A6C"/>
<path d="M49.7868 21.2009C49.8396 21.2009 49.7868 21.5529 50.0596 21.8468C50.3324 22.1408 50.7055 22.1513 50.702 22.1988C50.702 22.2217 50.6087 22.2552 50.4503 22.2376C50.244 22.2125 50.0532 22.1152 49.9117 21.963C49.7749 21.8176 49.7009 21.6241 49.7058 21.4244C49.7111 21.2766 49.7621 21.1956 49.7868 21.2009Z" fill="#263238"/>
<path d="M50.2955 17.0917C50.2515 17.1744 49.9329 17.0917 49.5475 17.0917C49.162 17.0917 48.8435 17.1462 48.7995 17.0618C48.7819 17.0195 48.847 16.9438 48.9755 16.8858C49.1546 16.8014 49.3513 16.7609 49.5492 16.7678C49.7463 16.7719 49.9398 16.8219 50.1142 16.9139C50.2532 16.972 50.3148 17.0512 50.2955 17.0917Z" fill="#263238"/>
<path d="M53.2172 17.4892C53.1486 17.5543 52.9374 17.4469 52.6681 17.4065C52.3988 17.366 52.1665 17.3889 52.1243 17.3044C52.1067 17.2639 52.1524 17.1953 52.2616 17.1389C52.4064 17.0735 52.5673 17.0526 52.7241 17.0789C52.8808 17.1053 53.0261 17.1776 53.1416 17.2868C53.226 17.3765 53.2472 17.4557 53.2172 17.4892Z" fill="#263238"/>
<path d="M45.6051 15.4722C46.1982 14.1645 48.3876 12.5171 49.7974 12.7829L51.9094 14.4126C51.7899 14.7916 51.5704 15.1313 51.2739 15.3958C50.9775 15.6604 50.6151 15.84 50.2251 15.9157C49.8097 15.9896 49.3222 15.9667 49.0423 16.2835C48.7625 16.6003 48.8399 17.1389 48.5689 17.475C48.1958 17.9432 47.3369 17.8182 47.0395 18.3357C46.9075 18.561 46.9286 18.8531 46.7931 19.0766C46.6171 19.3741 45.7687 19.6803 45.4519 19.536C45.1351 19.3917 45.1985 18.832 45.1263 18.5258C45.0291 18.1757 45.0552 17.8029 45.2003 17.4698C45.422 16.8274 45.3235 16.097 45.6051 15.4722Z" fill="#263238"/>
<path d="M46.3917 19.9288C46.4146 19.7528 46.2685 19.3146 46.0996 19.2635C45.649 19.1298 44.813 19.0523 44.6441 20.2227C44.4153 21.8226 46.0679 21.7223 46.0785 21.6765C46.089 21.6307 46.3108 20.5325 46.3917 19.9288Z" fill="#FFBF9D"/>
<path d="M45.6772 21.0004C45.6772 21.0004 45.6455 21.0163 45.5962 21.0304C45.5258 21.0489 45.451 21.0401 45.3868 21.0057C45.2266 20.9195 45.1228 20.6308 45.1562 20.3404C45.172 20.2029 45.2183 20.0706 45.2917 19.9532C45.3146 19.9069 45.3483 19.8666 45.3899 19.836C45.4316 19.8054 45.48 19.7852 45.5311 19.7772C45.5643 19.7732 45.598 19.7807 45.6262 19.7987C45.6545 19.8167 45.6756 19.844 45.686 19.8758C45.7001 19.9251 45.686 19.955 45.686 19.9585C45.686 19.962 45.7247 19.9374 45.7212 19.8688C45.718 19.8278 45.7006 19.7891 45.6719 19.7596C45.6326 19.7203 45.5797 19.6976 45.5241 19.6963C45.4565 19.7001 45.3911 19.7212 45.3341 19.7575C45.2771 19.7939 45.2304 19.8443 45.1985 19.904C45.1095 20.0319 45.0544 20.1802 45.0383 20.3352C45.0013 20.659 45.1228 20.9846 45.3445 21.0832C45.3851 21.1031 45.4296 21.1134 45.4748 21.1134C45.5199 21.1134 45.5645 21.1031 45.605 21.0832C45.6684 21.0392 45.6807 21.004 45.6772 21.0004Z" fill="#FF9A6C"/>
<path d="M51.4905 13.8813C51.575 14.5501 52.4866 15.4865 52.8738 16.0373C53.6113 17.0933 53.745 17.4295 53.525 19.5996C53.9914 18.8956 54.3628 18.1916 54.4156 17.3327C54.4811 16.4756 54.2306 15.6243 53.7116 14.9391C53.4491 14.6028 53.1119 14.3322 52.7267 14.1489C52.3414 13.9656 51.9188 13.8746 51.4922 13.8831" fill="#263238"/>
<path d="M44.7886 15.3722C44.8743 15.4113 44.9632 15.4431 45.0543 15.4673C45.1406 15.4954 45.2479 15.5271 45.3747 15.5553C45.5014 15.5834 45.6422 15.6239 45.8041 15.6468C46.18 15.7165 46.5607 15.7576 46.9428 15.77C47.4105 15.7826 47.8784 15.7573 48.342 15.6943C48.8053 15.6259 49.2621 15.5193 49.7078 15.3757C50.0698 15.2566 50.4228 15.1113 50.7638 14.941C50.9134 14.8724 51.0383 14.7949 51.151 14.7316C51.2636 14.6682 51.3587 14.6084 51.4326 14.5556C51.5137 14.5067 51.5908 14.4514 51.6631 14.3901C51.576 14.4272 51.4924 14.4719 51.4132 14.5239C51.3358 14.5697 51.2372 14.626 51.1246 14.6823C51.0119 14.7386 50.8835 14.8143 50.7356 14.8777C50.393 15.0378 50.0402 15.1754 49.6796 15.2895C49.2368 15.4257 48.7844 15.5287 48.3262 15.5975C47.8677 15.6592 47.4053 15.6868 46.9428 15.6802C46.5643 15.672 46.1868 15.6379 45.8129 15.5781C45.6527 15.5588 45.5102 15.5253 45.3852 15.5007C45.2603 15.4761 45.1511 15.4514 45.0631 15.4285C44.9736 15.401 44.8817 15.3821 44.7886 15.3722Z" fill="#455A64"/>
<path d="M44.5085 16.5074C44.5639 16.5368 44.6232 16.5581 44.6845 16.5707C44.853 16.6193 45.024 16.6587 45.1967 16.6887C46.3433 16.8877 47.5224 16.7734 48.6093 16.3578C48.7784 16.297 48.9436 16.2259 49.1039 16.1448C49.1634 16.1207 49.2192 16.0881 49.2693 16.048C49.2693 16.0339 49.0159 16.1519 48.6005 16.2944C47.5156 16.6678 46.3577 16.7793 45.2213 16.62C44.7778 16.5602 44.5121 16.4915 44.5085 16.5074Z" fill="#455A64"/>
<path d="M27.4418 60.5247L23.9781 59.1167L22.4839 61.7585L23.2108 63.3284L26.4245 64.4301L27.4418 60.5247Z" fill="#FFBF9D"/>
<path d="M23.408 63.721L23.144 63.6172C23.144 63.6172 19.5765 67.4575 18.707 67.1653L22.2587 58.126L25.168 59.4513C24.0293 60.5442 23.408 61.9241 23.408 63.721Z" fill="#455A64"/>
<g opacity="0.6">
<path d="M23.8656 59.9811C23.8741 59.8843 23.8467 59.7878 23.7886 59.7099C23.7305 59.632 23.6458 59.5782 23.5506 59.5587C23.4544 59.5475 23.3575 59.5737 23.2801 59.6321C23.2028 59.6904 23.1509 59.7764 23.1352 59.872C23.1259 59.9744 23.155 60.0767 23.2168 60.159C23.2786 60.2412 23.3687 60.2976 23.4696 60.3173C23.5714 60.3187 23.6697 60.2807 23.7439 60.2111C23.8181 60.1415 23.8624 60.0458 23.8674 59.9441" fill="white"/>
</g>
<g opacity="0.6">
<path d="M22.2603 58.126L22.9643 58.4445L19.3018 66.9929C19.3018 66.9929 18.9726 67.3255 18.7122 67.1689L22.2603 58.126Z" fill="white"/>
</g>
<path d="M23.1087 63.6382C23.0647 63.6188 23.1316 63.39 23.0788 63.1102C23.026 62.8303 22.887 62.6456 22.9204 62.6121C22.9539 62.5787 23.1774 62.7459 23.2372 63.0785C23.2971 63.4111 23.1439 63.6646 23.1087 63.6382Z" fill="#263238"/>
<path d="M22.352 64.4302C22.3062 64.4302 22.3062 64.2014 22.176 63.9779C22.0457 63.7544 21.8733 63.6259 21.8926 63.5872C21.912 63.5485 22.1689 63.6154 22.3185 63.8987C22.4681 64.1821 22.3925 64.4461 22.352 64.4302Z" fill="#263238"/>
<path d="M21.0233 64.5148C21.0233 64.4708 21.2697 64.499 21.4633 64.7084C21.6569 64.9179 21.6692 65.1625 21.6269 65.166C21.5847 65.1696 21.5055 64.99 21.3453 64.814C21.1852 64.638 21.0092 64.5606 21.0233 64.5148Z" fill="#263238"/>
<path d="M25.6572 59.68C25.6572 59.68 28.3606 60.4175 30.2156 60.7624C32.0706 61.1074 34.2002 61.6037 35.6716 61.9944C37.2222 62.3975 37.9103 62.6263 37.9103 62.6263C37.9103 62.6263 38.2623 63.0856 38.5263 61.264C38.7903 59.4424 39.5999 52.8636 39.5999 52.8636L40.4905 50.0335L45.8374 49.0972L48.6745 52.8407C48.6745 52.8407 46.1102 61.1655 45.2372 62.8885C44.3642 64.6116 43.1252 69.6329 40.1086 68.8496C38.3239 68.3868 24.3865 64.0097 24.3865 64.0097L25.6572 59.68Z" fill="#263238"/>
<path opacity="0.3" d="M39.3166 55.2257L39.2937 55.4123L39.2356 55.8751L43.3311 53.9022C43.3311 53.9022 43.3575 55.7836 47.2031 57.2462L47.6924 56.3944V53.9022L44.7198 51.5913H42.6641L39.3887 54.0553" fill="black"/>
<path d="M47.5921 56.417C47.4702 56.9036 47.3198 57.3825 47.1415 57.8514C46.9909 58.331 46.8117 58.8012 46.6047 59.2594C46.7256 58.7725 46.8761 58.2935 47.0553 57.825C47.204 57.3447 47.3833 56.8744 47.5921 56.417Z" fill="#455A64"/>
<path d="M39.4029 64.3918C39.2262 64.0555 39.0207 63.7352 38.7887 63.4344C38.5321 63.1549 38.2518 62.8981 37.9509 62.667C38.0594 62.7021 38.1608 62.7563 38.2501 62.8272C38.4774 62.9814 38.6823 63.1662 38.8591 63.3763C39.0352 63.5864 39.1826 63.819 39.2973 64.068C39.3512 64.1689 39.387 64.2785 39.4029 64.3918Z" fill="#455A64"/>
<path d="M39.8728 48.0024C39.8728 48.0024 38.9822 50.3256 39.0139 51.6368C39.0456 52.948 38.5334 55.5757 38.5334 55.5757C38.5334 55.5757 43.3435 52.9938 43.7026 52.6805C43.7026 52.6805 43.3506 55.2712 47.4373 56.4786L47.7893 56.6141L49.0442 52.8301C49.4761 52.1638 49.8411 51.4564 50.1336 50.7181C50.4645 49.7642 50.9256 48.006 50.9256 48.006L41.7947 45.4082L39.8728 48.0024Z" fill="#455A64"/>
<path d="M50.9308 50.625C50.9308 50.625 53.1766 53.7244 53.2082 54.2312L47.4988 55.3629L46.9708 53.1876L46.7402 50.9224L50.9308 50.625Z" fill="#455A64"/>
<path d="M42.2154 30.1369C42.2752 30.3023 43.4474 34.3486 43.4474 34.3486L44.1514 40.2217C44.1514 40.2217 42.9669 43.6977 41.969 44.8347C38.8749 48.3705 39.2093 49.335 39.2093 49.335C39.2093 49.335 44.4435 47.927 47.0219 48.3142C49.6003 48.7014 48.8981 53.1348 52.6539 52.0823L52.624 48.4673C52.624 48.4673 53.0957 45.1321 53.2136 43.967C53.3315 42.8019 53.1714 38.6148 53.1714 38.6148C53.1714 38.6148 54.4615 34.514 54.4615 33.1852C54.4615 31.8564 54.7695 31.7983 53.7064 29.9697C52.6434 28.1411 51.0664 25.7035 51.0664 25.7035L45.1475 25.2036L41.8669 28.5846L42.2154 30.1369Z" fill="#E0E0E0"/>
<path d="M49.5792 51.482C49.6021 51.482 49.2712 52.5802 48.8382 53.9161C48.4053 55.2519 48.0357 56.3308 48.0111 56.322C47.9864 56.3132 48.319 55.2255 48.752 53.8879C49.185 52.5503 49.5546 51.4732 49.5792 51.482Z" fill="#263238"/>
<path d="M42.013 30.3021C41.2333 30.5116 40.5434 30.7527 39.6916 30.3021C38.8397 29.8516 38.1269 29.0068 38.1076 28.0423C38.097 27.2538 38.0952 25.8 38.7288 25.3301C39.3624 24.8602 42.277 24.3815 43.9085 24.3868C50.19 24.4061 50.9996 25.4428 52.0045 25.9584C52.0465 26.141 52.0329 26.3318 51.9655 26.5066C51.898 26.6813 51.7798 26.8318 51.6261 26.9388" fill="#FF725E"/>
<path d="M41.478 29.1282C41.478 29.1282 41.654 32.5884 41.9127 33.896C42.1715 35.2037 43.2116 39.118 43.2116 39.118C43.2116 39.118 42.6343 39.3344 42.7206 40.1176C42.7206 40.1176 42.0958 40.6615 42.0254 41.8583C41.955 43.0551 42.3017 43.576 42.3017 43.576L41.6259 44.9348L52.9532 47.0767L53.1433 45.7971C53.1433 45.7971 53.9635 46.3252 54.1131 43.8612C54.2627 41.3972 53.9687 39.558 54.099 37.2964C54.2292 35.0348 55.0723 34.153 54.8558 32.1096C54.7361 30.9093 50.9257 25.8722 50.9257 25.8722C50.9257 25.8722 45.3887 24.9306 44.8326 25.536C44.2764 26.1415 41.478 29.1282 41.478 29.1282Z" fill="#FF725E"/>
<g opacity="0.3">
<path d="M53.5039 39.7922C50.7794 38.261 48.8012 35.7142 46.8986 33.2326L46.698 32.7363C46.8934 33.773 46.9479 35.2179 47.145 36.2563C47.2759 37.1036 47.4917 37.9356 47.7892 38.7397C48.0889 39.5487 48.6248 40.249 49.3274 40.7496C50.5594 41.561 52.2314 41.4272 53.525 40.732C53.7151 40.6299 53.921 40.4768 53.9175 40.2621C53.914 40.0474 53.6922 39.9013 53.5039 39.7922Z" fill="black"/>
</g>
<path d="M41.2332 31.3721C41.2768 31.468 41.3122 31.5675 41.3388 31.6695C41.4004 31.8614 41.4831 32.143 41.5799 32.4914C41.7752 33.1954 42.0111 34.1599 42.261 35.2353C42.5109 36.3106 42.7397 37.2839 42.921 37.9826C43.0108 38.3223 43.0847 38.6004 43.1392 38.8116C43.1709 38.9117 43.1951 39.0141 43.2114 39.1178C43.1687 39.0215 43.1334 38.9221 43.1058 38.8204C43.0407 38.6286 42.958 38.3487 42.8594 38.0002C42.6605 37.2962 42.4194 36.3318 42.1712 35.2564C41.9231 34.181 41.696 33.2077 41.5183 32.5073C41.4303 32.1693 41.3581 31.8895 41.3036 31.6783C41.2728 31.578 41.2493 31.4757 41.2332 31.3721Z" fill="#263238"/>
<path d="M46.7279 41.1402C46.5315 41.0808 46.3392 41.0084 46.1524 40.9237C45.8004 40.7847 45.3146 40.5911 44.7637 40.4204C44.2936 40.2749 43.812 40.1695 43.324 40.1053C42.9492 40.0596 42.7151 40.056 42.7151 40.0402C42.7691 40.0263 42.825 40.0215 42.8805 40.0261C43.0309 40.0222 43.1814 40.0274 43.3311 40.042C43.8265 40.087 44.3156 40.1849 44.7901 40.3341C45.2633 40.4817 45.7271 40.6581 46.1788 40.8621C46.3548 40.9413 46.4903 41.0065 46.5853 41.0557C46.6363 41.0775 46.6843 41.1059 46.7279 41.1402Z" fill="#263238"/>
<path d="M53.7275 45.6582C53.6951 45.6814 53.661 45.702 53.6254 45.7198C53.5229 45.7735 53.4157 45.8177 53.3051 45.8518C52.8937 45.9607 52.4651 45.9882 52.0432 45.9327C50.6675 45.7248 49.3035 45.4463 47.9564 45.0985C46.3724 44.713 44.9451 44.3505 43.9084 44.1111L42.6764 43.8366L42.3403 43.7626C42.3006 43.7561 42.2617 43.7454 42.2241 43.731C42.2644 43.7313 42.3045 43.736 42.3438 43.745L42.6835 43.8014C42.9774 43.8524 43.3998 43.9369 43.9155 44.0478C44.9592 44.2713 46.3918 44.625 47.9723 45.0105C49.5528 45.3959 50.9924 45.7145 52.0449 45.8676C52.4598 45.9284 52.8825 45.9111 53.291 45.8166C53.4393 45.7718 53.585 45.719 53.7275 45.6582Z" fill="#263238"/>
<g opacity="0.3">
<path d="M40.114 30.4184C40.5329 31.1224 41.434 31.4638 42.2507 31.3565C43.0673 31.2491 43.7959 30.7634 44.3521 30.1544C44.9083 29.5454 45.3131 28.8186 45.7126 28.0987L46.7985 26.1416C45.5102 26.6784 45.0719 28.1691 44.0969 29.1688C43.1219 30.1685 41.2334 30.8302 40.114 30.4184Z" fill="black"/>
</g>
<path d="M46.9074 26.1519C46.9074 26.1519 46.7789 26.1835 46.5554 26.2821C46.2533 26.4294 45.9831 26.6345 45.7599 26.8858C45.4348 27.2664 45.1494 27.6792 44.908 28.1178C44.7555 28.3735 44.5892 28.6209 44.41 28.8587C44.2106 29.1117 43.9793 29.3376 43.7218 29.5311C43.2242 29.9022 42.6655 30.1833 42.0709 30.3618C41.5885 30.5165 41.083 30.5868 40.5767 30.5695C40.2332 30.5627 39.8963 30.4733 39.5946 30.309C39.5138 30.2635 39.4388 30.2086 39.3711 30.1453C39.3463 30.1243 39.3239 30.1007 39.3042 30.0749C39.403 30.1486 39.5058 30.2168 39.6122 30.2791C39.9138 30.4261 40.2447 30.5031 40.5802 30.5043C41.078 30.5127 41.5736 30.4371 42.0463 30.2808C42.6293 30.1007 43.1774 29.8227 43.6672 29.4589C43.9177 29.2695 44.1436 29.0496 44.3396 28.8042C44.5177 28.5696 44.6834 28.3258 44.8359 28.0738C45.0845 27.633 45.3795 27.22 45.7159 26.8418C45.9479 26.5898 46.2296 26.3885 46.5431 26.2504C46.6285 26.2153 46.7169 26.1876 46.8071 26.1677C46.8396 26.1576 46.8734 26.1523 46.9074 26.1519Z" fill="#263238"/>
<path d="M45.8937 39.6671C45.8814 39.6953 45.3076 39.4242 44.5473 39.2746C44.0851 39.1989 43.6192 39.1472 43.1516 39.1198C43.2872 39.0889 43.4265 39.0777 43.5652 39.0863C43.9008 39.0867 44.2357 39.1197 44.5649 39.1849C44.8935 39.2504 45.2148 39.3482 45.5241 39.477C45.6554 39.5233 45.7797 39.5872 45.8937 39.6671Z" fill="#263238"/>
<path d="M42.7681 40.0193C42.7804 40.0316 42.6326 40.1953 42.4566 40.4839C42.3543 40.6568 42.2671 40.8381 42.1961 41.026C42.1147 41.2574 42.0558 41.4961 42.0201 41.7388C41.9867 41.9819 41.9773 42.2277 41.9919 42.4727C42.0073 42.6734 42.0397 42.8724 42.0887 43.0676C42.1732 43.4002 42.2647 43.5956 42.2542 43.5956C42.2228 43.5557 42.1968 43.5119 42.1767 43.4654C42.1488 43.4126 42.1247 43.3579 42.1046 43.3017C42.0743 43.2292 42.0479 43.1552 42.0254 43.0799C41.9664 42.8825 41.9274 42.6797 41.9092 42.4745C41.8879 42.2228 41.8944 41.9696 41.9286 41.7194C41.967 41.4704 42.0319 41.2261 42.1222 40.9908C42.1987 40.7993 42.2942 40.6159 42.4073 40.4434C42.4496 40.3776 42.4954 40.3142 42.5446 40.2534C42.5805 40.2059 42.6193 40.1606 42.6607 40.1178C42.7276 40.0527 42.7681 40.0158 42.7681 40.0193Z" fill="#263238"/>
<g opacity="0.3">
<path d="M41.2879 31.4619C41.1725 32.3247 41.3861 33.1994 41.8864 33.9118C41.7121 33.0882 41.471 32.2891 41.2879 31.4619Z" fill="black"/>
</g>
<path d="M59.9244 36.6858C59.9244 36.6858 60.8519 35.5998 61.086 35.5206C61.32 35.4414 62.3567 35.2091 62.4728 35.3059C62.5401 35.3637 62.6205 35.4042 62.7069 35.4238C62.7069 35.4238 63.6063 35.4819 63.7031 35.8726C63.7999 36.2634 63.7629 36.4587 63.8404 36.5168C63.9178 36.5749 64.1343 36.8494 64.0744 37.0642C64.0161 37.2671 63.99 37.4779 63.997 37.689C64.0477 37.8475 64.0773 38.012 64.085 38.1782C64.0634 38.3454 64.0209 38.5092 63.9583 38.6658C63.9954 38.7557 64.0077 38.854 63.9937 38.9503C63.9798 39.0466 63.9402 39.1374 63.8791 39.2131C63.6644 39.4278 62.8706 39.4859 62.5908 39.4877C62.2388 39.4877 61.5224 39.6285 61.2866 39.5299C61.1456 39.4716 61.0003 39.4245 60.8519 39.3891L58.9599 39.6144L58.6677 36.5696L59.9244 36.6858Z" fill="#FFBF9D"/>
<path d="M62.8197 35.4607C62.616 35.501 62.4095 35.5258 62.202 35.5346C61.9982 35.5732 61.7916 35.5955 61.5842 35.6015C61.7731 35.5062 61.9801 35.4522 62.1914 35.4431C62.3997 35.4038 62.614 35.4098 62.8197 35.4607Z" fill="#FF9A6C"/>
<path d="M46.4641 32.0553C47.1681 33.9614 47.8352 36.5222 48.3297 38.0023C49.0003 40.014 51.0806 40.762 52.1436 40.843C53.5041 40.9451 60.134 39.6902 60.134 39.6902L59.8278 36.3462L59.0763 36.3655C58.9293 36.2306 58.7455 36.1424 58.5483 36.1121C57.1526 35.783 53.3915 36.0575 53.3915 36.0575C53.3915 36.0575 52.3795 31.9902 52.1595 29.9926C51.9835 28.4086 51.9835 25.8249 49.5072 25.6753C47.8968 25.751 46.8566 26.3459 46.4641 28.0707" fill="#FF725E"/>
<path d="M46.464 28.0775C46.464 28.0775 46.464 28.0529 46.4781 28.0071C46.4922 27.9614 46.5063 27.8892 46.5292 27.7994C46.6013 27.5316 46.7053 27.2734 46.8389 27.0303C47.0545 26.6348 47.3764 26.3074 47.7682 26.0852C48.3065 25.8102 48.9009 25.6632 49.5053 25.6558L49.7746 25.6892C49.8675 25.6975 49.9595 25.7146 50.0492 25.7402L50.3272 25.8177L50.5965 25.9426C50.9641 26.1446 51.2687 26.4443 51.4765 26.8086C51.6991 27.2047 51.8554 27.6345 51.9394 28.081C52.0324 28.5569 52.0988 29.0375 52.1383 29.5207C52.2506 30.572 52.4215 31.6161 52.6504 32.6482C52.8792 33.7394 53.1397 34.8782 53.4284 36.0538L53.3826 36.0222C54.2837 35.9606 55.2218 35.9183 56.1845 35.913C56.6668 35.913 57.156 35.913 57.6506 35.9535C57.8996 35.9696 58.1476 35.9996 58.3933 36.0433C58.5187 36.0632 58.6423 36.0932 58.7629 36.133C58.8876 36.1774 59.0016 36.2476 59.0973 36.339L59.0639 36.3266L59.8154 36.3073H59.8576V36.3513V36.397C59.9615 37.5252 60.0636 38.6322 60.1604 39.6882V39.7287H60.1199C58.7735 39.9804 57.464 40.2092 56.2021 40.4116C55.5697 40.5137 54.9508 40.6058 54.3453 40.6879C53.7381 40.7706 53.145 40.8428 52.5607 40.8745C51.9889 40.9004 51.4183 40.8013 50.8887 40.5841C50.3876 40.3928 49.92 40.1231 49.5036 39.785C49.1195 39.4655 48.7978 39.0776 48.5549 38.641C48.3495 38.2333 48.1879 37.805 48.0727 37.3633C47.5728 35.7036 47.1927 34.3713 46.904 33.4561C46.7597 32.9985 46.6418 32.6482 46.5608 32.4106C46.5221 32.2945 46.4904 32.2047 46.4693 32.1414C46.4583 32.1114 46.4489 32.0808 46.4412 32.0498C46.4412 32.0498 46.4535 32.078 46.4764 32.1378C46.4992 32.1977 46.5344 32.2892 46.5767 32.4054C46.6629 32.6412 46.7861 32.9897 46.9287 33.4455C47.2314 34.3537 47.6168 35.6895 48.1237 37.3457C48.2406 37.7826 48.4028 38.2062 48.6077 38.6094C48.8477 39.0378 49.1652 39.418 49.544 39.7305C49.9556 40.0613 50.4164 40.3256 50.9098 40.5137C51.4306 40.7242 51.9908 40.8196 52.5519 40.7935C53.1309 40.7618 53.724 40.6879 54.3295 40.6052C54.9349 40.5225 55.5527 40.4292 56.1828 40.3254C57.4429 40.1212 58.7524 39.8924 60.097 39.6407L60.06 39.6882C59.9632 38.6322 59.8612 37.527 59.7573 36.3988V36.353L59.8031 36.3935L59.0533 36.4129H59.034L59.0199 36.3988C58.834 36.2422 58.6039 36.1475 58.3616 36.1278C58.1195 36.0844 57.875 36.055 57.6295 36.0398C57.1402 36.0046 56.6527 35.9975 56.1722 35.9975C55.2112 35.9975 54.2749 36.0433 53.3756 36.1031H53.3386L53.3298 36.0662C53.0412 34.8887 52.7824 33.75 52.5572 32.657C52.328 31.6216 52.1588 30.5739 52.0503 29.519C52.0121 29.0382 51.9474 28.56 51.8567 28.0863C51.7761 27.6465 51.6245 27.2226 51.4079 26.8314C51.2043 26.476 50.9064 26.1836 50.5472 25.9866L50.2868 25.8634L50.0157 25.786C49.928 25.7595 49.8378 25.7424 49.7464 25.735L49.4807 25.6998C48.8834 25.704 48.295 25.8455 47.7612 26.1134C47.3737 26.3292 47.0538 26.6485 46.8372 27.0356C46.7017 27.2754 46.5942 27.5299 46.5168 27.7942L46.4588 28.0001L46.464 28.0775Z" fill="#263238"/>
<path d="M52.4956 38.016C53.0084 37.4519 53.3181 36.7328 53.3756 35.9727C53.4015 36.0834 53.4063 36.1981 53.3897 36.3106C53.3675 36.5841 53.3009 36.8522 53.1926 37.1043C53.0848 37.3569 52.9362 37.59 52.7526 37.7943C52.6826 37.8846 52.5952 37.96 52.4956 38.016Z" fill="#263238"/>
<path d="M59.3119 39.7761C59.2184 39.2173 59.1555 38.6539 59.1236 38.0882C59.0619 37.5248 59.0302 36.9584 59.0286 36.3916C59.1219 36.9509 59.1842 37.515 59.2151 38.0812C59.2778 38.644 59.3101 39.2098 59.3119 39.7761Z" fill="#263238"/>
</svg>
