<svg width="254" height="254" viewBox="0 0 254 254" fill="none" xmlns="http://www.w3.org/2000/svg">
<path d="M72.8067 121.696C92.6441 138.897 95.2958 180.929 125.222 183.799C151.369 186.304 148.524 147.64 175.773 159.751C192.309 167.102 224.292 199.481 225.471 161.341C226.187 138.186 212.075 98.9584 195.225 83.1596C169.129 58.6893 161.072 101.224 137.216 98.1151C126.492 96.7181 123.353 87.5538 117.196 79.6595C108.143 68.0568 95.5854 54.0106 82.5908 47.3761C61.9152 36.8199 34.0717 50.6019 26.2028 72.4967C12.4868 110.708 54.5238 105.837 72.8067 121.696Z" fill="#01AB6C"/>
<path opacity="0.9" d="M72.8067 121.696C92.6441 138.897 95.2958 180.929 125.222 183.799C151.369 186.304 148.524 147.64 175.773 159.751C192.309 167.102 224.292 199.481 225.471 161.341C226.187 138.186 212.075 98.9584 195.225 83.1596C169.129 58.6893 161.072 101.224 137.216 98.1151C126.492 96.7181 123.353 87.5538 117.196 79.6595C108.143 68.0568 95.5854 54.0106 82.5908 47.3761C61.9152 36.8199 34.0717 50.6019 26.2028 72.4967C12.4868 110.708 54.5238 105.837 72.8067 121.696Z" fill="white"/>
<path d="M127 217.201C181.398 217.201 225.496 214.626 225.496 211.45C225.496 208.274 181.398 205.699 127 205.699C72.6021 205.699 28.5039 208.274 28.5039 211.45C28.5039 214.626 72.6021 217.201 127 217.201Z" fill="#F5F5F5"/>
<path d="M69.5096 71.562C68.9356 74.102 68.2548 76.5759 67.4776 79.0397C67.0864 80.2691 66.6597 81.4832 66.2178 82.7024C65.9942 83.312 65.7606 83.9165 65.5218 84.5211L65.151 85.4456C64.9116 86.0863 64.5453 86.6721 64.074 87.1677C63.4518 87.8083 62.6359 88.226 61.7524 88.3565C61.0711 88.4518 60.377 88.3946 59.7204 88.1888C58.8625 87.9129 58.0558 87.4975 57.3328 86.9595C56.1971 86.105 55.1534 85.1346 54.2188 84.0639C52.4679 82.0915 50.9065 79.9586 49.5554 77.6935C49.3623 77.3839 49.2898 77.014 49.3515 76.6544C49.4133 76.2947 49.605 75.9703 49.8903 75.7427C50.1755 75.5151 50.5344 75.4003 50.8988 75.4199C51.2632 75.4396 51.6077 75.5925 51.8668 75.8495L51.9176 75.8952C52.7862 76.7385 53.6702 77.6377 54.5795 78.4352C55.4888 79.2328 56.3829 80.0964 57.2973 80.8533C58.1454 81.5806 59.0586 82.2285 60.0252 82.7888C60.3373 82.9842 60.6812 83.1234 61.0412 83.2003C61.1276 83.2003 61.092 83.1495 60.8888 83.1647C60.6347 83.1962 60.3967 83.3063 60.2081 83.4797C60.0608 83.6219 60.0659 83.6524 60.076 83.5762L60.33 82.7075L60.838 80.9295C61.1784 79.7408 61.4934 78.5368 61.8185 77.343L63.7082 70.165V70.1193C63.9152 69.3678 64.4066 68.7265 65.0785 68.3314C65.7503 67.9363 66.5496 67.8184 67.3069 68.0028C68.0642 68.1872 68.7198 68.6593 69.1349 69.319C69.5499 69.9787 69.6916 70.7741 69.5299 71.5366L69.5096 71.562Z" fill="#FFC3BD"/>
<path d="M65.0645 64.3891C62.2197 66.9291 61.6101 74.2545 61.6101 74.2545L70.1039 79.5072C70.1039 79.5072 70.8862 75.4432 71.4297 70.5105C72.0444 65.1613 68.5087 61.3005 65.0645 64.3891Z" fill="#01AB6C"/>
<path d="M84.4296 60.1675C78.5723 60.137 72.7456 60.8076 66.929 63.058C65.6711 63.5623 64.6171 64.4714 63.9335 65.6416C63.25 66.8118 62.9759 68.1764 63.1545 69.5198C63.8556 74.9859 65.8012 85.2017 71.2012 99.2581L91.5974 93.6701C90.932 90.5052 85.0849 75.6158 84.4296 60.1675Z" fill="#01AB6C"/>
<path d="M52.2377 76.3271L50.8915 73.1013L47.3101 75.8191C47.3101 75.8191 47.9451 78.5268 50.607 77.9832L52.2377 76.3271Z" fill="#FFC3BD"/>
<path d="M47.8485 71.8059L46.5988 73.4569C46.4992 73.5685 46.4342 73.7067 46.4117 73.8546C46.3891 74.0025 46.41 74.1538 46.4718 74.29L47.31 75.814L50.8914 73.0962L49.1236 71.5011C48.9139 71.3731 48.6621 71.3334 48.4232 71.3905C48.1843 71.4476 47.9777 71.5969 47.8485 71.8059Z" fill="#FFC3BD"/>
<path opacity="0.2" d="M82.1487 67.564C82.2401 69.0473 84.7496 75.2195 86.7207 76.3473C86.2482 74.2746 85.8114 72.0953 85.4456 69.8398L82.1487 67.564Z" fill="black"/>
<path d="M73.9292 51.1709C74.0765 54.0868 74.8131 59.3294 77.2667 60.7772C76.1085 62.6161 74.5337 64.7904 71.1961 65.6235C67.8586 66.4566 67.8687 64.0436 68.4529 62.6517C71.4298 61.2344 70.7643 58.9331 69.6671 56.8757L73.9292 51.1709Z" fill="#FFC3BD"/>
<path opacity="0.2" d="M72.1919 53.4976L69.6519 56.8758C69.9158 57.3495 70.1368 57.8459 70.3123 58.3591C71.4756 57.9324 72.8065 56.2712 72.6237 54.9962C72.5702 54.4749 72.424 53.9673 72.1919 53.4976Z" fill="black"/>
<path d="M66.4311 45.0088C68.7425 45.8216 68.3056 47.7063 67.3861 48.5648C68.8238 49.0728 69.8347 50.9981 69.8347 50.9981L67.3963 52.9539C67.3963 52.9539 63.9978 52.8472 63.4034 50.9219C62.8091 48.9966 59.502 46.7055 63.0834 44.4652C66.6648 42.2249 66.4311 45.0088 66.4311 45.0088Z" fill="#263238"/>
<path d="M73.66 46.7615C74.2696 50.6324 74.8233 52.8575 73.3247 55.24C71.0641 58.796 65.9485 58.0594 64.1807 54.4424C62.5957 51.1811 61.8642 45.4 65.278 43.0835C66.0347 42.5699 66.9094 42.2567 67.8201 42.1732C68.7308 42.0897 69.6479 42.2387 70.4854 42.6062C71.3229 42.9736 72.0534 43.5476 72.6086 44.2744C73.1638 45.0011 73.5256 45.8568 73.66 46.7615Z" fill="#FFC3BD"/>
<path d="M70.9116 43.7338C70.5509 44.9784 66.9899 43.7338 64.46 44.9835C63.3069 45.5525 61.5593 48.0315 58.364 46.3551C58.364 46.3551 60.5383 45.461 60.7973 43.7135C61.1021 41.6815 61.7321 39.0602 65.3084 39.7054C68.8847 40.3506 69.4791 38.8265 71.7955 39.3498C74.7165 40.0051 75.8037 45.6439 70.9116 43.7338Z" fill="#263238"/>
<path d="M70.1904 43.5001C69.0881 45.72 70.7391 46.736 72.0091 46.736C71.3537 48.1178 71.9684 50.1904 71.9684 50.1904L75.0774 49.8704C75.0774 49.8704 77.4294 47.4167 76.4947 45.6184C75.56 43.8201 76.3271 39.878 72.2021 40.7873C68.0771 41.6967 70.1904 43.5001 70.1904 43.5001Z" fill="#263238"/>
<path d="M71.1606 41.7424C73.3196 40.64 74.168 39.116 74.2645 37.5361C75.4075 39.5935 74.8132 41.7678 71.1606 41.7424Z" fill="#263238"/>
<path d="M75.8494 50.231C75.5586 51.1179 74.941 51.8608 74.1222 52.3087C73.0757 52.8167 72.4153 51.8007 72.5982 50.6069C72.7557 49.5046 73.4923 47.9044 74.5947 47.884C75.697 47.8637 76.2355 49.0982 75.8494 50.231Z" fill="#FFC3BD"/>
<path d="M67.9958 181.981L72.9438 181.351L73.406 172.253L68.0416 172.781L67.9958 181.981Z" fill="#FFC3BD"/>
<path d="M76.6774 134.996C82.1486 120.99 87.1117 94.8994 87.1117 94.8994L71.2164 99.253C71.2164 99.253 67.3048 123.596 66.8984 135.631C66.4717 148.148 66.8222 175.214 66.8222 175.214H74.3914C74.3914 175.214 78.1201 144.78 76.6774 134.996Z" fill="#263238"/>
<path opacity="0.2" d="M83.3119 107.655C79.319 111.775 78.7043 120.02 79.3139 127.33C81.2697 120.939 83.0528 113.716 84.4193 107.711L83.3119 107.655Z" fill="black"/>
<path d="M66.6243 176.129L74.5694 176.459L75.0875 173.894L66.228 173.391L66.6243 176.129Z" fill="#01AB6C"/>
<path d="M68.7019 48.6562C68.773 48.9712 68.6612 49.2556 68.458 49.3014C68.2548 49.3471 68.0313 49.1236 67.95 48.7934C67.8687 48.4632 67.9907 48.1939 68.1939 48.1533C68.3971 48.1126 68.6358 48.3463 68.7019 48.6562Z" fill="#263238"/>
<path d="M64.831 49.3928C64.9021 49.7077 64.7904 49.9922 64.5872 50.0379C64.384 50.0837 64.1605 49.8601 64.0792 49.5299C63.9979 49.1997 64.1198 48.9305 64.323 48.8899C64.5262 48.8492 64.765 49.0829 64.831 49.3928Z" fill="#263238"/>
<path d="M65.4863 49.5198C65.326 50.5489 65.0234 51.5508 64.5872 52.4967C64.8292 52.5996 65.0906 52.6492 65.3536 52.6422C65.6165 52.6352 65.8749 52.5717 66.1112 52.456L65.4863 49.5198Z" fill="#ED847E"/>
<path d="M67.122 53.4823C67.4783 53.459 67.8261 53.3632 68.1441 53.2008C68.462 53.0383 68.7435 52.8125 68.9711 52.5374C68.9817 52.5278 68.9901 52.516 68.9956 52.5027C69.0011 52.4895 69.0036 52.4752 69.0029 52.4608C69.0022 52.4465 68.9983 52.4325 68.9915 52.4199C68.9847 52.4073 68.9752 52.3963 68.9636 52.3878C68.952 52.3793 68.9387 52.3735 68.9246 52.3709C68.9105 52.3682 68.896 52.3686 68.8821 52.3723C68.8683 52.3759 68.8554 52.3826 68.8444 52.3918C68.8334 52.401 68.8246 52.4126 68.8187 52.4256C68.5624 52.7275 68.2381 52.9641 67.8724 53.116C67.5068 53.2679 67.1103 53.3308 66.7156 53.2994C66.6908 53.2994 66.667 53.3088 66.649 53.3259C66.6311 53.3429 66.6203 53.3661 66.619 53.3908C66.6183 53.4033 66.6202 53.4157 66.6245 53.4274C66.6288 53.4391 66.6354 53.4498 66.644 53.4588C66.6525 53.4679 66.6628 53.475 66.6743 53.48C66.6857 53.4849 66.698 53.4874 66.7105 53.4874C66.8476 53.4959 66.9851 53.4942 67.122 53.4823Z" fill="#263238"/>
<path d="M68.7528 46.9137C68.7821 46.9035 68.8083 46.8861 68.829 46.8629C68.8626 46.8272 68.8813 46.7799 68.8813 46.7309C68.8813 46.6818 68.8626 46.6346 68.829 46.5988C68.6068 46.3992 68.3401 46.2555 68.0513 46.1795C67.7624 46.1035 67.4595 46.0975 67.1679 46.1619C67.1211 46.1761 67.0818 46.2078 67.0581 46.2505C67.0344 46.2932 67.0282 46.3434 67.0409 46.3905C67.0551 46.4385 67.0874 46.4792 67.131 46.5038C67.1746 46.5284 67.2261 46.5352 67.2745 46.5226C67.5059 46.4735 67.7457 46.4806 67.9738 46.5433C68.2018 46.6061 68.4115 46.7227 68.5852 46.8833C68.6083 46.902 68.6358 46.9146 68.6651 46.9199C68.6944 46.9252 68.7245 46.9231 68.7528 46.9137Z" fill="#263238"/>
<path d="M62.6516 48.5192C62.6818 48.5121 62.7095 48.4971 62.7318 48.4756C62.7542 48.4542 62.7703 48.4271 62.7786 48.3973C62.8372 48.1665 62.9511 47.9534 63.1104 47.7764C63.2697 47.5994 63.4696 47.4638 63.693 47.3813C63.7171 47.3749 63.7396 47.3637 63.7592 47.3483C63.7788 47.3329 63.795 47.3137 63.8069 47.2918C63.8188 47.2699 63.8261 47.2458 63.8283 47.2211C63.8306 47.1963 63.8278 47.1713 63.82 47.1476C63.8059 47.1009 63.7741 47.0615 63.7314 47.0378C63.6888 47.0141 63.6386 47.0079 63.5914 47.0206C63.3109 47.1173 63.0581 47.2806 62.8546 47.4965C62.6511 47.7124 62.503 47.9744 62.423 48.2601C62.412 48.2922 62.4101 48.3267 62.4176 48.3598C62.425 48.3929 62.4415 48.4232 62.4652 48.4475C62.489 48.4717 62.5189 48.4889 62.5519 48.4971C62.5848 48.5052 62.6193 48.5041 62.6516 48.4938V48.5192Z" fill="#263238"/>
<path d="M107.559 167.599L111.364 164.374L106.802 156.49L102.591 159.858L107.559 167.599Z" fill="#FFC3BD"/>
<path d="M96.012 133.152C91.5263 115.814 98.7704 102.393 91.5822 93.6753L78.105 97.3634C78.105 97.3634 83.0732 124.191 87.2845 135.585C91.6737 147.427 102.616 162.56 102.616 162.56L109.093 158.618C109.093 158.618 102.956 143.993 96.012 133.152Z" fill="#263238"/>
<path d="M110.5 163.627C110.778 163.532 111.078 163.524 111.361 163.603C111.644 163.682 111.896 163.844 112.085 164.069L115.032 167.406C115.092 167.48 115.137 167.566 115.164 167.658C115.19 167.75 115.198 167.846 115.186 167.942C115.174 168.037 115.143 168.128 115.095 168.211C115.046 168.294 114.982 168.365 114.905 168.422C113.121 169.713 113.441 169.296 111.699 170.515C109.667 171.943 109.54 172.654 106.807 173.843C105.186 174.549 104.303 173.716 104.602 173.004C105.999 169.702 106.126 167.879 106.837 167.035C106.837 167.035 104.618 166.314 104.917 165.003C105.217 163.693 107.63 162.138 108.585 162.667C108.917 162.809 109.199 163.046 109.398 163.348C109.596 163.649 109.702 164.002 109.703 164.363C109.865 164.025 110.15 163.762 110.5 163.627Z" fill="#263238"/>
<path d="M72.197 180.096C72.4909 180.094 72.7787 180.18 73.0226 180.345C73.2664 180.509 73.455 180.743 73.5636 181.016L75.3009 185.12C75.3351 185.211 75.3504 185.308 75.346 185.404C75.3416 185.501 75.3174 185.596 75.2751 185.683C75.2328 185.77 75.1732 185.847 75.0998 185.91C75.0265 185.973 74.9411 186.021 74.8488 186.05C72.7508 186.705 73.97 186.248 71.9278 186.853C69.5402 187.559 65.8318 189.357 63.0378 190.185C61.3462 190.693 60.5943 189.139 61.2141 188.687C65.1714 185.801 66.7157 182.753 67.6454 182.174C67.6454 182.174 65.7658 180.787 66.4668 179.634C67.1678 178.481 68.2346 178.069 68.9712 178.872C69.237 179.114 69.4265 179.429 69.5167 179.777C69.6069 180.125 69.5939 180.492 69.4792 180.833C70.3648 180.518 71.2735 180.271 72.197 180.096Z" fill="#263238"/>
<path d="M102.987 163.779L109.794 159.669L108.814 157.246L101.148 161.712L102.987 163.779Z" fill="#01AB6C"/>
<path d="M85.7299 61.7625C86.9949 62.6312 88.1328 63.505 89.2859 64.4143C90.4391 65.3236 91.572 66.2736 92.6896 67.2439C94.9711 69.2221 97.077 71.3943 98.9837 73.7361C99.2275 74.0307 99.4917 74.3457 99.6949 74.6759C99.8981 75.0061 100.167 75.3211 100.381 75.6563L101 76.6723L101.564 77.6883C102.264 79.0204 102.891 80.3888 103.444 81.7879C104.541 84.5235 105.421 87.3415 106.075 90.2156C106.151 90.568 106.097 90.9361 105.923 91.2518C105.749 91.5676 105.467 91.8097 105.128 91.9335C104.79 92.0573 104.418 92.0544 104.081 91.9254C103.744 91.7964 103.466 91.55 103.297 91.2316V91.191C101.996 88.7119 100.665 86.1973 99.2834 83.8047C98.5824 82.6109 97.8762 81.4374 97.1346 80.335C96.4166 79.2617 95.6203 78.2429 94.752 77.287C92.9064 75.3095 90.9255 73.4627 88.8237 71.76C87.762 70.871 86.6748 70.0125 85.5826 69.1539C84.4904 68.2954 83.3576 67.4471 82.2959 66.6546L82.2552 66.6292C81.9347 66.4007 81.6623 66.1113 81.4536 65.7776C81.2449 65.4438 81.1039 65.0722 81.0388 64.684C80.9737 64.2957 80.9857 63.8985 81.0742 63.5149C81.1626 63.1313 81.3257 62.7689 81.5542 62.4483C82.0156 61.801 82.7154 61.3634 83.4994 61.2319C83.8876 61.1668 84.2849 61.1789 84.6685 61.2673C85.0521 61.3557 85.4145 61.5188 85.735 61.7473L85.7299 61.7625Z" fill="#FFC3BD"/>
<path d="M84.4297 60.1675C88.2498 60.2336 92.4002 66.2127 92.4002 66.2127L88.6918 73.1012C85.7474 72.1145 83.1589 70.2822 81.2496 67.8332C78.034 63.5 79.8018 60.0913 84.4297 60.1675Z" fill="#01AB6C"/>
<path d="M102.844 89.9161L103.906 93.7718L107.97 91.2318C107.97 91.2318 106.583 87.8587 104.673 88.3057L102.844 89.9161Z" fill="#FFC3BD"/>
<path d="M107.503 95.8393L108.783 94.7167C109.03 94.4993 109.192 94.2015 109.241 93.876C109.289 93.5505 109.221 93.2184 109.047 92.9387L107.986 91.2419L103.922 93.7819L105.542 95.7123C105.662 95.8497 105.809 95.962 105.972 96.0428C106.136 96.1236 106.314 96.1712 106.496 96.183C106.678 96.1948 106.861 96.1705 107.034 96.1116C107.207 96.0526 107.366 95.9601 107.503 95.8393Z" fill="#FFC3BD"/>
<path d="M189.128 82.1283C190.586 77.5969 201.163 85.3033 201.884 88.1785C202.606 91.0538 193.797 93.2585 199.532 97.4089C205.268 101.559 194.493 100.091 196.647 102.9C198.801 105.71 199.898 111.379 189.535 107.442C179.172 103.505 171.501 99.3139 178.105 97.1955C184.709 95.0772 173.873 91.6075 180.604 88.8847C187.335 86.1618 179.177 83.0579 189.128 82.1283Z" fill="#01AB6C"/>
<path d="M197.292 112.974C197.871 114.97 198.547 117.063 199.258 119.07C199.624 120.086 200.005 121.041 200.411 121.986C200.63 122.448 200.838 122.921 201.066 123.357C201.173 123.586 201.29 123.799 201.407 124.003L201.585 124.318L201.63 124.399V124.439C201.507 124.335 201.361 124.262 201.204 124.226C201.093 124.181 200.969 124.181 200.858 124.226C201.116 124.178 201.358 124.065 201.559 123.896C202.34 123.328 203.06 122.681 203.708 121.966C205.13 120.442 206.522 118.724 207.838 117.018L207.869 116.982C208.058 116.739 208.329 116.573 208.632 116.515C208.934 116.458 209.248 116.513 209.513 116.67C209.778 116.827 209.976 117.076 210.071 117.369C210.166 117.662 210.15 117.98 210.028 118.262C209.109 120.4 207.981 122.442 206.66 124.358C205.949 125.409 205.115 126.371 204.175 127.223C203.54 127.798 202.791 128.231 201.976 128.493C201.327 128.693 200.636 128.708 199.979 128.539C199.286 128.345 198.663 127.955 198.186 127.416C198.074 127.3 197.998 127.193 197.907 127.081L197.815 126.949L197.744 126.852L197.475 126.461C197.292 126.197 197.124 125.953 196.967 125.674C196.627 125.166 196.347 124.622 196.058 124.089C195.509 123.027 195.011 121.96 194.569 120.878C193.68 118.732 192.945 116.525 192.369 114.274C192.216 113.633 192.317 112.957 192.653 112.389C192.989 111.821 193.532 111.406 194.168 111.232C194.805 111.058 195.484 111.138 196.062 111.455C196.64 111.773 197.072 112.303 197.267 112.933L197.292 112.974Z" fill="#FF8B7B"/>
<path d="M209.189 119.319L211.44 117.988L209.169 114.645C209.169 114.645 207.35 116.566 207.335 118.491L209.189 119.319Z" fill="#FF8B7B"/>
<path d="M212.308 114.229L212.207 114.127C211.949 113.821 211.582 113.626 211.183 113.583C210.785 113.541 210.385 113.654 210.068 113.899L209.169 114.645L211.44 117.988L212.405 117.079C212.758 116.682 212.945 116.165 212.927 115.634C212.909 115.104 212.687 114.601 212.308 114.229Z" fill="#FF8B7B"/>
<path d="M189.992 109.824C190.053 111.155 190.825 113.761 191.47 115.712C191.938 117.124 192.329 118.186 192.329 118.186L193.106 117.958L199.547 116.042C199.476 112.613 199.146 108.854 195.697 106.721C193.512 105.379 189.87 107.447 189.992 109.824Z" fill="#263238"/>
<path opacity="0.3" d="M191.455 115.712C191.922 117.124 192.314 118.186 192.314 118.186L193.091 117.958C193.147 116.616 193.131 114.488 192.532 113.447C192.014 114.115 191.646 114.888 191.455 115.712Z" fill="black"/>
<path d="M160.97 207.376L164.998 207.762L167.178 198.364L163.149 197.978L160.97 207.376Z" fill="#FF8B7B"/>
<path d="M132.359 196.255L135.717 198.623L142.016 191.526L138.659 189.164L132.359 196.255Z" fill="#FF8B7B"/>
<path d="M136.352 198.257L133.868 194.366C133.828 194.299 133.764 194.249 133.689 194.226C133.613 194.204 133.533 194.21 133.462 194.244L130.18 195.819C130.099 195.864 130.028 195.925 129.971 195.998C129.915 196.072 129.874 196.156 129.851 196.246C129.828 196.336 129.824 196.43 129.839 196.521C129.853 196.613 129.887 196.701 129.936 196.779C130.825 198.125 131.323 198.724 132.41 200.436C133.086 201.493 134.442 203.921 135.346 205.379C136.251 206.837 137.724 205.969 137.465 205.278C136.302 202.174 136.352 200.396 136.515 198.978C136.545 198.726 136.488 198.472 136.352 198.257Z" fill="#263238"/>
<path d="M165.552 206.543H160.701C160.614 206.544 160.531 206.574 160.463 206.627C160.395 206.68 160.347 206.754 160.325 206.837L159.38 210.673C159.357 210.765 159.356 210.861 159.377 210.954C159.397 211.047 159.439 211.133 159.498 211.208C159.558 211.282 159.633 211.341 159.719 211.381C159.805 211.422 159.9 211.442 159.995 211.44C161.701 211.44 162.535 211.323 164.648 211.323C165.958 211.323 169.352 211.45 171.165 211.45C172.979 211.45 173.258 209.657 172.522 209.494C169.21 208.768 167.289 207.762 166.248 206.807C166.058 206.634 165.809 206.539 165.552 206.543Z" fill="#263238"/>
<path opacity="0.2" d="M167.173 198.364L165.959 203.616L161.935 203.21L163.144 197.978L167.173 198.364Z" fill="black"/>
<path opacity="0.2" d="M138.654 189.164L142.017 191.526L138.765 195.184L135.407 192.816L138.654 189.164Z" fill="black"/>
<path d="M169.733 121.798L184.714 128.986C198.003 108.783 196.601 107.417 196.601 107.417C196.601 107.417 194.285 105.623 191.836 104.054C191.465 103.82 191.089 103.586 190.718 103.363C188.533 102.108 186.262 101.009 183.921 100.076C183.576 99.9287 183.23 99.7915 182.905 99.6544C181.039 98.9455 179.133 98.3484 177.195 97.8662C176.611 100.843 176.083 103.353 175.575 105.527C174.915 108.361 174.29 110.607 173.665 112.558C172.603 115.738 171.288 118.828 169.733 121.798Z" fill="#263238"/>
<path opacity="0.3" d="M173.65 112.578C175.392 110.627 177.404 105.832 177.251 103.906L175.56 105.547C174.899 108.382 174.274 110.642 173.65 112.578Z" fill="black"/>
<path d="M187.076 95.8798C186.34 97.7898 185.288 99.6288 183.916 100.096C183.916 100.096 182.286 104.099 187.518 108.585C193.03 105.76 190.719 103.363 190.719 103.363C188.539 101.6 189.225 99.9387 191.105 97.5206L189.484 95.834C189.38 95.5986 189.209 95.3992 188.992 95.2607C188.775 95.1223 188.522 95.051 188.265 95.0559C188.008 95.0608 187.758 95.1416 187.546 95.2882C187.335 95.4348 187.171 95.6406 187.076 95.8798Z" fill="#FF8B7B"/>
<path opacity="0.2" d="M189.484 95.8341C189.388 95.6094 189.231 95.4162 189.031 95.2763C188.831 95.1364 188.595 95.0555 188.351 95.0428C188.107 95.0301 187.864 95.0861 187.651 95.2044C187.437 95.3228 187.261 95.4987 187.142 95.7122C187.423 97.4468 188.23 99.0532 189.453 100.315C189.822 99.2906 190.377 98.3434 191.089 97.5207L189.484 95.8341Z" fill="black"/>
<path d="M185.928 88.7576C185.75 92.852 185.588 94.5792 187.381 96.9211C190.078 100.442 195.047 99.8726 196.423 95.9407C197.663 92.3847 197.754 86.2887 194.02 84.1906C193.209 83.7181 192.287 83.4663 191.348 83.4601C190.408 83.4539 189.484 83.6935 188.666 84.1552C187.847 84.6169 187.164 85.2846 186.684 86.092C186.204 86.8993 185.943 87.8183 185.928 88.7576Z" fill="#FF8B7B"/>
<path d="M197.785 89.7482C197.793 89.75 197.802 89.75 197.81 89.7482C197.838 89.704 197.847 89.6509 197.837 89.5999C197.827 89.5488 197.797 89.5037 197.754 89.4739C197.509 89.2912 197.224 89.1712 196.922 89.1243C196.62 89.0774 196.311 89.105 196.022 89.2047C195.974 89.2249 195.935 89.2635 195.915 89.3121C195.895 89.3607 195.895 89.4152 195.915 89.4637C195.936 89.5122 195.974 89.5507 196.023 89.5707C196.071 89.5907 196.126 89.5906 196.174 89.5704C196.404 89.4935 196.65 89.4742 196.889 89.514C197.128 89.5539 197.354 89.6517 197.546 89.799C197.585 89.8214 197.631 89.8287 197.675 89.8193C197.719 89.8099 197.758 89.7846 197.785 89.7482Z" fill="#263238"/>
<path d="M188.112 84.9528C191.267 89.4943 187.061 88.0008 187.838 90.5408C188.346 92.2527 184.45 95.8697 183.393 92.8217C182.336 89.7737 182.971 84.3279 188.112 84.9528Z" fill="#01AB6C"/>
<path d="M186.832 84.9224C187.401 89.1845 191.318 84.6938 192.629 86.9544C193.939 89.215 200.421 87.8992 198.542 85.278C196.662 82.6567 189.281 80.3555 186.832 84.9224Z" fill="#01AB6C"/>
<path d="M184.445 92.1969C184.558 93.052 184.998 93.8297 185.674 94.3661C186.568 95.0671 187.421 94.3661 187.508 93.2891C187.584 92.3188 187.213 90.7898 186.151 90.5104C185.09 90.231 184.312 91.1454 184.445 92.1969Z" fill="#FF8B7B"/>
<path d="M184.714 128.986C184.714 128.986 180.497 149.372 177.363 165.054C174.869 177.52 167.467 201.31 167.467 201.31L161.544 200.721C161.544 200.721 163.434 172.552 168.839 164.338C168.742 146.05 166.334 128.219 172.73 123.124L184.714 128.986Z" fill="#01AB6C"/>
<path d="M160.701 198.912L168.488 199.872L167.818 202.504L160.523 201.717L160.701 198.912Z" fill="#263238"/>
<path opacity="0.3" d="M174.214 138.923L168.626 133.558C167.96 139.893 168.407 148.173 168.656 156.962C172.116 150.911 174.681 144.328 174.214 138.923Z" fill="black"/>
<path d="M181.422 127.462C181.422 127.462 170.018 147.417 164.15 162.235C163.441 164.054 162.573 165.807 161.554 167.472C154.442 178.963 140.884 193.934 140.884 193.934L136.551 190.312C136.551 190.312 150.023 164.993 155.413 159.253C159.09 141.742 161.905 126.233 169.718 121.798L181.422 127.462Z" fill="#01AB6C"/>
<path d="M140.746 195.301L135.128 190.952L136.469 188.458L142.636 193.528L140.746 195.301Z" fill="#263238"/>
<path d="M169.906 120.797L168.626 121.813C168.529 121.889 168.6 122.057 168.778 122.143L184.485 129.687C184.622 129.748 184.76 129.738 184.81 129.657L185.547 128.361C185.603 128.275 185.517 128.138 185.369 128.067L170.18 120.802C170.138 120.78 170.091 120.768 170.043 120.767C169.996 120.766 169.949 120.777 169.906 120.797Z" fill="#01AB6C"/>
<path opacity="0.2" d="M169.906 120.797L168.626 121.813C168.529 121.889 168.6 122.057 168.778 122.143L184.485 129.687C184.622 129.748 184.76 129.738 184.81 129.657L185.547 128.361C185.603 128.275 185.517 128.138 185.369 128.067L170.18 120.802C170.138 120.78 170.091 120.768 170.043 120.767C169.996 120.766 169.949 120.777 169.906 120.797Z" fill="black"/>
<path d="M171.196 123.495L170.79 123.297C170.708 123.261 170.663 123.19 170.693 123.139L171.668 121.468C171.699 121.417 171.79 121.412 171.867 121.468L172.273 121.666C172.354 121.701 172.4 121.778 172.369 121.823L171.394 123.495C171.367 123.518 171.331 123.531 171.295 123.531C171.259 123.531 171.224 123.518 171.196 123.495Z" fill="#01AB6C"/>
<path d="M183.276 129.306L182.87 129.108C182.789 129.073 182.748 128.996 182.778 128.951L183.754 127.279C183.784 127.228 183.871 127.223 183.952 127.279L184.358 127.477C184.44 127.513 184.48 127.584 184.455 127.635L183.474 129.306C183.449 129.337 183.358 129.342 183.276 129.306Z" fill="#01AB6C"/>
<path d="M177.226 126.4L176.819 126.202C176.743 126.167 176.698 126.096 176.728 126.045L177.703 124.374C177.734 124.323 177.82 124.318 177.902 124.374L178.308 124.572C178.389 124.607 178.435 124.678 178.404 124.729L177.429 126.4C177.399 126.431 177.292 126.436 177.226 126.4Z" fill="#01AB6C"/>
<path d="M191.679 90.6676C191.643 90.9978 191.785 91.2874 191.999 91.3179C192.212 91.3484 192.41 91.0994 192.446 90.7692C192.481 90.439 192.334 90.1444 192.126 90.119C191.917 90.0936 191.714 90.3374 191.679 90.6676Z" fill="#263238"/>
<path d="M195.346 91.1403C195.311 91.4705 195.453 91.7601 195.666 91.7905C195.88 91.821 196.078 91.5721 196.113 91.2368C196.149 90.9015 196.007 90.6171 195.793 90.5917C195.58 90.5663 195.382 90.8101 195.346 91.1403Z" fill="#263238"/>
<path d="M195.697 90.5967L196.499 90.4697C196.499 90.4697 196.037 91.0387 195.697 90.5967Z" fill="#263238"/>
<path d="M191.897 93.2434C191.738 93.2431 191.579 93.2226 191.425 93.1824C191.118 93.1009 190.833 92.9506 190.593 92.7429C190.353 92.5351 190.163 92.2755 190.038 91.9835C189.756 91.3334 189.697 90.6085 189.87 89.9213C190.042 89.2342 190.437 88.6234 190.993 88.1837C191.238 87.9807 191.528 87.8384 191.839 87.7682C192.15 87.698 192.473 87.7019 192.782 87.7795C193.091 87.8571 193.377 88.0063 193.618 88.2151C193.859 88.4238 194.047 88.6863 194.168 88.9812C194.462 89.6281 194.522 90.3577 194.335 91.0437C194.175 91.736 193.778 92.3505 193.213 92.7811C192.836 93.0731 192.374 93.2353 191.897 93.2434ZM192.308 87.9601C191.883 87.9682 191.472 88.1124 191.135 88.3716C190.622 88.7783 190.258 89.3425 190.098 89.977C189.938 90.6115 189.992 91.281 190.251 91.8819C190.357 92.145 190.523 92.3793 190.737 92.5658C190.95 92.7522 191.205 92.8856 191.48 92.9549C191.755 93.0243 192.042 93.0276 192.319 92.9648C192.595 92.9019 192.853 92.7745 193.07 92.5931C193.583 92.1865 193.948 91.6223 194.107 90.9878C194.267 90.3532 194.213 89.6837 193.954 89.0828C193.843 88.8233 193.675 88.5922 193.462 88.4066C193.249 88.221 192.997 88.0858 192.725 88.0109C192.589 87.9766 192.449 87.9595 192.308 87.9601Z" fill="white"/>
<path d="M196.342 93.9037C196.231 93.903 196.12 93.8894 196.012 93.8631C194.996 93.604 194.488 92.1867 194.838 90.6982C195.189 89.2098 196.362 88.2039 197.378 88.4579C198.394 88.7119 198.902 90.1343 198.547 91.6279C198.388 92.3008 198.035 92.9121 197.531 93.3855C197.212 93.6997 196.789 93.8843 196.342 93.9037ZM197.038 88.6561C196.22 88.6561 195.377 89.5298 195.072 90.7541C194.727 92.1155 195.174 93.4059 196.088 93.6294C196.323 93.6744 196.567 93.6594 196.795 93.5857C197.023 93.512 197.229 93.382 197.394 93.2077C197.86 92.7651 198.186 92.1942 198.328 91.5669C198.669 90.2055 198.222 88.9151 197.312 88.6916C197.223 88.6673 197.131 88.6554 197.038 88.6561Z" fill="white"/>
<path d="M194.935 90.9319C194.916 90.9329 194.897 90.9287 194.88 90.9198C194.863 90.9108 194.848 90.8975 194.838 90.8811C194.701 90.7033 194.33 90.8201 194.33 90.8201C194.316 90.8251 194.3 90.8272 194.285 90.8262C194.269 90.8252 194.254 90.8212 194.24 90.8143C194.226 90.8075 194.214 90.798 194.203 90.7863C194.193 90.7747 194.185 90.7612 194.18 90.7465C194.175 90.7318 194.173 90.7163 194.174 90.7008C194.175 90.6853 194.179 90.6702 194.186 90.6563C194.193 90.6424 194.203 90.6299 194.214 90.6197C194.226 90.6095 194.239 90.6016 194.254 90.5966C194.254 90.5966 194.798 90.4188 195.036 90.7389C195.058 90.7615 195.07 90.7915 195.07 90.8227C195.07 90.8539 195.058 90.8839 195.036 90.9065C195.007 90.9267 194.971 90.9357 194.935 90.9319Z" fill="white"/>
<path d="M194.589 91.5771C194.799 92.3674 195.113 93.126 195.524 93.8327C195.345 93.9328 195.146 93.9916 194.941 94.0048C194.736 94.018 194.531 93.9852 194.341 93.9089L194.589 91.5771Z" fill="#FF5652"/>
<path d="M193.01 95.0721C193.028 95.0657 193.045 95.0542 193.057 95.039C193.07 95.0237 193.078 95.0053 193.081 94.9857C193.082 94.9604 193.074 94.9353 193.058 94.9156C193.042 94.8959 193.02 94.8828 192.994 94.8791C192.585 94.8328 192.191 94.6917 191.846 94.4668C191.5 94.2419 191.211 93.9395 191.003 93.5837C190.999 93.5697 190.993 93.5568 190.983 93.5458C190.974 93.5348 190.962 93.5261 190.949 93.5203C190.936 93.5144 190.921 93.5116 190.907 93.512C190.893 93.5124 190.878 93.5161 190.866 93.5227C190.853 93.5293 190.842 93.5387 190.833 93.5502C190.824 93.5617 190.818 93.575 190.815 93.5891C190.812 93.6033 190.813 93.6179 190.816 93.6319C190.82 93.6459 190.826 93.6589 190.835 93.67C191.054 94.0579 191.362 94.3877 191.734 94.6317C192.106 94.8757 192.531 95.0267 192.974 95.0721H193.01Z" fill="#263238"/>
<path d="M191.45 89.3572C191.481 89.3482 191.51 89.3306 191.531 89.3064C191.691 89.1257 191.891 88.9854 192.115 88.8971C192.34 88.8088 192.582 88.775 192.822 88.7984C192.846 88.8035 192.872 88.8036 192.897 88.7987C192.921 88.7937 192.945 88.7839 192.966 88.7696C192.987 88.7554 193.004 88.7371 193.018 88.7159C193.032 88.6946 193.041 88.6709 193.045 88.646C193.054 88.5942 193.043 88.541 193.013 88.4974C192.984 88.4538 192.939 88.4233 192.888 88.4123C192.586 88.3712 192.28 88.4048 191.994 88.5102C191.709 88.6157 191.454 88.7896 191.252 89.0168C191.223 89.0485 191.205 89.0887 191.201 89.1315C191.196 89.1742 191.206 89.2172 191.229 89.2539C191.251 89.2906 191.285 89.319 191.325 89.3349C191.365 89.3508 191.409 89.3532 191.45 89.3419V89.3572Z" fill="#263238"/>
<path d="M137.053 200.365H137.114C137.205 200.386 137.299 200.383 137.388 200.356C137.477 200.329 137.558 200.28 137.622 200.213C137.668 200.175 137.702 200.126 137.724 200.071C137.745 200.016 137.752 199.956 137.744 199.898C137.663 199.39 136.332 198.77 136.18 198.699C136.162 198.691 136.142 198.689 136.123 198.693C136.104 198.696 136.087 198.705 136.073 198.719C136.059 198.733 136.05 198.75 136.046 198.769C136.043 198.788 136.045 198.808 136.053 198.826C136.23 199.339 136.591 200.177 137.053 200.365ZM136.317 198.999C136.825 199.258 137.516 199.674 137.561 199.949C137.565 199.975 137.56 200.001 137.55 200.026C137.539 200.05 137.522 200.07 137.5 200.086C137.459 200.132 137.406 200.165 137.347 200.184C137.288 200.203 137.226 200.206 137.165 200.192C136.896 200.121 136.586 199.684 136.317 198.999Z" fill="#01AB6C"/>
<path d="M136.2 198.943C136.657 199.126 137.648 199.222 137.958 198.912C138.011 198.856 138.044 198.784 138.052 198.707C138.06 198.63 138.043 198.552 138.003 198.486C137.972 198.419 137.926 198.359 137.869 198.312C137.812 198.265 137.745 198.23 137.673 198.211C137.109 198.049 136.149 198.719 136.093 198.719C136.079 198.729 136.069 198.742 136.061 198.757C136.054 198.772 136.051 198.789 136.053 198.806C136.053 198.823 136.057 198.839 136.066 198.854C136.075 198.868 136.088 198.88 136.103 198.887L136.2 198.943ZM137.663 198.41C137.738 198.44 137.798 198.498 137.831 198.572C137.886 198.684 137.856 198.74 137.831 198.77C137.632 198.973 136.815 198.953 136.367 198.796C136.735 198.53 137.179 198.391 137.632 198.399L137.663 198.41Z" fill="#01AB6C"/>
<path d="M167.726 207.34C168.055 207.365 168.384 207.287 168.666 207.117C168.738 207.062 168.797 206.991 168.837 206.91C168.878 206.829 168.899 206.74 168.9 206.649C168.904 206.597 168.894 206.545 168.871 206.499C168.847 206.452 168.812 206.413 168.768 206.385C168.321 206.09 166.69 206.837 166.37 206.99C166.352 206.999 166.337 207.014 166.328 207.032C166.319 207.05 166.316 207.071 166.319 207.091C166.322 207.111 166.331 207.129 166.344 207.144C166.358 207.158 166.376 207.168 166.395 207.172C166.832 207.276 167.278 207.332 167.726 207.34ZM168.473 206.507C168.54 206.501 168.607 206.515 168.666 206.548C168.666 206.548 168.707 206.583 168.707 206.639C168.707 206.702 168.693 206.763 168.664 206.819C168.636 206.875 168.595 206.923 168.544 206.959C168.265 207.178 167.599 207.203 166.726 207.045C167.277 206.776 167.866 206.595 168.473 206.507Z" fill="#01AB6C"/>
<path d="M166.416 207.177H166.451C166.995 206.954 168.072 206.07 167.975 205.613C167.975 205.511 167.889 205.384 167.64 205.354C166.67 205.242 166.314 206.995 166.299 207.066C166.294 207.083 166.295 207.101 166.3 207.118C166.306 207.135 166.316 207.151 166.329 207.162C166.342 207.171 166.356 207.177 166.371 207.179C166.386 207.182 166.401 207.181 166.416 207.177ZM167.574 205.537H167.64C167.742 205.537 167.797 205.567 167.808 205.628C167.848 205.892 167.107 206.593 166.558 206.898C166.675 206.476 166.995 205.537 167.574 205.537Z" fill="#01AB6C"/>
<path d="M192.024 90.1241L192.827 89.9971C192.827 89.9971 192.369 90.566 192.024 90.1241Z" fill="#263238"/>
<path d="M177.109 104.821C176.134 105.694 175.164 106.456 174.163 107.244C173.162 108.031 172.131 108.768 171.074 109.479C170.004 110.212 168.896 110.89 167.757 111.511C166.513 112.226 165.183 112.781 163.8 113.162L163.678 113.192C163.377 113.266 163.064 113.266 162.763 113.192C161.732 112.93 160.74 112.534 159.812 112.014C158.974 111.558 158.167 111.049 157.394 110.49C156.642 109.938 155.922 109.357 155.235 108.747C154.549 108.123 153.899 107.513 153.259 106.807C153.062 106.586 152.949 106.303 152.939 106.008C152.928 105.712 153.022 105.422 153.202 105.188C153.383 104.954 153.64 104.79 153.928 104.725C154.217 104.659 154.519 104.697 154.783 104.831H154.828C155.565 105.227 156.327 105.664 157.084 106.05C157.841 106.436 158.608 106.832 159.35 107.188C160.091 107.544 160.874 107.869 161.58 108.138C162.234 108.394 162.916 108.575 163.612 108.676L162.596 108.717C163.551 108.341 164.465 107.868 165.324 107.305C166.279 106.7 167.239 106.03 168.189 105.339C169.139 104.648 170.084 103.916 171.023 103.18C171.963 102.443 172.903 101.656 173.797 100.95H173.822C174.338 100.538 174.994 100.343 175.651 100.406C176.307 100.469 176.914 100.785 177.342 101.287C177.77 101.79 177.985 102.439 177.943 103.098C177.9 103.756 177.603 104.372 177.114 104.816L177.109 104.821Z" fill="#FF8B7B"/>
<path d="M155.504 105.989L154.163 102.941L151.526 105.156C151.526 105.156 152.974 107.284 154.605 107.645L155.504 105.989Z" fill="#FF8B7B"/>
<path d="M152.949 100.843L151.973 101.747C151.696 102.005 151.488 102.329 151.368 102.688C151.248 103.048 151.22 103.432 151.288 103.805L151.526 105.166L154.163 102.926L152.949 100.843Z" fill="#FF8B7B"/>
<path d="M177.175 97.8865C175.168 97.5106 170.602 102.017 170.602 102.017L173.909 108.971C173.909 108.971 179.801 105.415 179.776 102.875C179.756 100.584 179.74 98.3691 177.175 97.8865Z" fill="#263238"/>
<path d="M151.069 95.8545C150.503 95.8549 149.942 95.7434 149.419 95.5263C148.896 95.3092 148.421 94.9909 148.021 94.5896C142.446 89.0176 134.887 85.8875 127.005 85.8875C119.123 85.8875 111.564 89.0176 105.989 94.5896C105.166 95.3212 104.094 95.7106 102.994 95.6782C101.893 95.6457 100.846 95.194 100.067 94.4153C99.2888 93.6366 98.837 92.5898 98.8046 91.4891C98.7722 90.3883 99.1616 89.3168 99.8931 88.4936C107.087 81.3023 116.843 77.2625 127.015 77.2625C137.187 77.2625 146.943 81.3023 154.137 88.4936C154.741 89.0972 155.152 89.8661 155.319 90.7032C155.485 91.5402 155.4 92.408 155.074 93.1967C154.748 93.9855 154.195 94.6599 153.486 95.1347C152.777 95.6096 151.943 95.8636 151.089 95.8647L151.069 95.8545Z" fill="#01AB6C"/>
<path opacity="0.4" d="M151.069 95.8545C150.503 95.8549 149.942 95.7434 149.419 95.5263C148.896 95.3092 148.421 94.9909 148.021 94.5896C142.446 89.0176 134.887 85.8875 127.005 85.8875C119.123 85.8875 111.564 89.0176 105.989 94.5896C105.166 95.3212 104.094 95.7106 102.994 95.6782C101.893 95.6457 100.846 95.194 100.067 94.4153C99.2888 93.6366 98.837 92.5898 98.8046 91.4891C98.7722 90.3883 99.1616 89.3168 99.8931 88.4936C107.087 81.3023 116.843 77.2625 127.015 77.2625C137.187 77.2625 146.943 81.3023 154.137 88.4936C154.741 89.0972 155.152 89.8661 155.319 90.7032C155.485 91.5402 155.4 92.408 155.074 93.1967C154.748 93.9855 154.195 94.6599 153.486 95.1347C152.777 95.6096 151.943 95.8636 151.089 95.8647L151.069 95.8545Z" fill="white"/>
<path d="M154.122 142.748C154.854 141.925 155.243 140.853 155.211 139.753C155.178 138.652 154.727 137.605 153.948 136.826C153.169 136.048 152.122 135.596 151.022 135.564C149.921 135.531 148.849 135.921 148.026 136.652C142.43 142.119 134.905 145.159 127.082 145.113C119.259 145.068 111.77 141.94 106.238 136.408C100.706 130.877 97.5786 123.387 97.533 115.564C97.4873 107.742 100.528 100.216 105.994 94.6202C106.726 93.7971 107.115 92.7255 107.083 91.6248C107.05 90.524 106.599 89.4772 105.82 88.6986C105.041 87.9199 103.995 87.4681 102.894 87.4357C101.793 87.4033 100.721 87.7927 99.8983 88.5242C94.7937 93.6272 91.2328 100.067 89.6252 107.104C88.0175 114.14 88.4284 121.488 90.8105 128.301C93.1925 135.115 97.4491 141.118 103.091 145.62C108.732 150.122 115.53 152.941 122.702 153.751V168.565H113.96C112.815 168.565 111.716 169.02 110.906 169.829C110.097 170.639 109.642 171.738 109.642 172.883C109.642 174.028 110.097 175.126 110.906 175.936C111.716 176.746 112.815 177.201 113.96 177.201H122.682V185.877C122.682 187.023 123.137 188.121 123.947 188.931C124.757 189.74 125.855 190.195 127 190.195C128.145 190.195 129.244 189.74 130.053 188.931C130.863 188.121 131.318 187.023 131.318 185.877V177.16H140.04C141.186 177.16 142.284 176.705 143.094 175.895C143.904 175.086 144.358 173.987 144.358 172.842C144.358 171.697 143.904 170.599 143.094 169.789C142.284 168.979 141.186 168.524 140.04 168.524H131.318V153.711C139.946 152.761 147.992 148.893 154.122 142.748Z" fill="#01AB6C"/>
<path d="M182.946 64.3332C182.949 64.2994 182.949 64.2654 182.946 64.2316C182.946 64.1046 182.946 63.9725 182.946 63.8455C182.946 63.7185 182.946 63.7439 182.946 63.6931C182.946 63.6423 182.946 63.4493 182.91 63.3324C182.913 63.2902 182.913 63.2477 182.91 63.2054C182.855 62.8806 182.761 62.5635 182.631 62.2606L182.585 62.1691C182.534 62.0483 182.475 61.9312 182.408 61.8186C182.408 61.778 182.362 61.7424 182.336 61.7018C182.273 61.5943 182.204 61.4908 182.128 61.3919L182.047 61.2852C181.946 61.1517 181.836 61.0261 181.717 60.9093C181.6 60.7911 181.477 60.6808 181.346 60.5791L181.234 60.4978C181.132 60.4216 181.031 60.3556 180.929 60.2895L180.802 60.2133C180.694 60.1514 180.582 60.0954 180.467 60.0457L180.36 59.9949C180.061 59.8646 179.747 59.7708 179.426 59.7155H179.283C179.172 59.7155 179.055 59.685 178.938 59.6799H178.775C178.653 59.6799 178.526 59.6799 178.405 59.6799H178.288C178.117 59.6928 177.947 59.7166 177.78 59.7511L152.253 65.1206C151.132 65.3564 150.15 66.0278 149.524 66.9872C148.899 67.9465 148.679 69.1152 148.915 70.2362C149.151 71.3571 149.822 72.3385 150.782 72.9644C151.741 73.5903 152.91 73.8095 154.031 73.5737L165.344 71.1912L148.036 88.4988C147.829 88.7064 147.644 88.9344 147.483 89.1795C147.402 89.2966 147.329 89.4188 147.264 89.5453C147.133 89.7928 147.027 90.0532 146.949 90.3225C146.87 90.5896 146.816 90.8634 146.787 91.1404C146.787 91.2792 146.787 91.4164 146.787 91.5519C146.787 91.6941 146.787 91.8312 146.787 91.9684C146.884 92.9659 147.326 93.8982 148.036 94.6049C153.6 100.184 156.724 107.742 156.724 115.621C156.724 123.5 153.6 131.058 148.036 136.637C147.596 137.028 147.241 137.504 146.992 138.038C146.743 138.571 146.606 139.149 146.589 139.737C146.571 140.326 146.674 140.911 146.891 141.458C147.109 142.005 147.435 142.502 147.851 142.918C148.267 143.334 148.764 143.66 149.311 143.878C149.858 144.095 150.444 144.198 151.032 144.181C151.62 144.163 152.198 144.026 152.732 143.777C153.265 143.528 153.741 143.173 154.132 142.733C160.784 136.062 164.752 127.179 165.282 117.774C165.812 108.368 162.868 99.0956 157.008 91.7195L171.44 77.2872L169.057 88.6004C168.824 89.7211 169.044 90.8886 169.67 91.8473C170.295 92.8061 171.275 93.4779 172.395 93.7159C172.689 93.7762 172.989 93.8069 173.289 93.8074C174.279 93.8065 175.239 93.4653 176.007 92.841C176.776 92.2167 177.307 91.3473 177.51 90.3784L182.88 64.8463C182.913 64.6768 182.935 64.5054 182.946 64.3332Z" fill="#01AB6C"/>
<path opacity="0.4" d="M182.946 64.3332C182.949 64.2994 182.949 64.2654 182.946 64.2316C182.946 64.1046 182.946 63.9725 182.946 63.8455C182.946 63.7185 182.946 63.7439 182.946 63.6931C182.946 63.6423 182.946 63.4493 182.91 63.3324C182.913 63.2902 182.913 63.2477 182.91 63.2054C182.855 62.8806 182.761 62.5635 182.631 62.2606L182.585 62.1691C182.534 62.0483 182.475 61.9312 182.408 61.8186C182.408 61.778 182.362 61.7424 182.336 61.7018C182.273 61.5943 182.204 61.4908 182.128 61.3919L182.047 61.2852C181.946 61.1517 181.836 61.0261 181.717 60.9093C181.6 60.7911 181.477 60.6808 181.346 60.5791L181.234 60.4978C181.132 60.4216 181.031 60.3556 180.929 60.2895L180.802 60.2133C180.694 60.1514 180.582 60.0954 180.467 60.0457L180.36 59.9949C180.061 59.8646 179.747 59.7708 179.426 59.7155H179.283C179.172 59.7155 179.055 59.685 178.938 59.6799H178.775C178.653 59.6799 178.526 59.6799 178.405 59.6799H178.288C178.117 59.6928 177.947 59.7166 177.78 59.7511L152.253 65.1206C151.132 65.3564 150.15 66.0278 149.524 66.9872C148.899 67.9465 148.679 69.1152 148.915 70.2362C149.151 71.3571 149.822 72.3385 150.782 72.9644C151.741 73.5903 152.91 73.8095 154.031 73.5737L165.344 71.1912L148.036 88.4988C147.829 88.7064 147.644 88.9344 147.483 89.1795C147.402 89.2966 147.329 89.4188 147.264 89.5453C147.133 89.7928 147.027 90.0532 146.949 90.3225C146.87 90.5896 146.816 90.8634 146.787 91.1404C146.787 91.2792 146.787 91.4164 146.787 91.5519C146.787 91.6941 146.787 91.8312 146.787 91.9684C146.884 92.9659 147.326 93.8982 148.036 94.6049C153.6 100.184 156.724 107.742 156.724 115.621C156.724 123.5 153.6 131.058 148.036 136.637C147.596 137.028 147.241 137.504 146.992 138.038C146.743 138.571 146.606 139.149 146.589 139.737C146.571 140.326 146.674 140.911 146.891 141.458C147.109 142.005 147.435 142.502 147.851 142.918C148.267 143.334 148.764 143.66 149.311 143.878C149.858 144.095 150.444 144.198 151.032 144.181C151.62 144.163 152.198 144.026 152.732 143.777C153.265 143.528 153.741 143.173 154.132 142.733C160.784 136.062 164.752 127.179 165.282 117.774C165.812 108.368 162.868 99.0956 157.008 91.7195L171.44 77.2872L169.057 88.6004C168.824 89.7211 169.044 90.8886 169.67 91.8473C170.295 92.8061 171.275 93.4779 172.395 93.7159C172.689 93.7762 172.989 93.8069 173.289 93.8074C174.279 93.8065 175.239 93.4653 176.007 92.841C176.776 92.2167 177.307 91.3473 177.51 90.3784L182.88 64.8463C182.913 64.6768 182.935 64.5054 182.946 64.3332Z" fill="white"/>
</svg>
