<svg width="51" height="51" viewBox="0 0 51 51" fill="none" xmlns="http://www.w3.org/2000/svg">
<path d="M25.5 50.5C39.3071 50.5 50.5 39.3071 50.5 25.5C50.5 11.6929 39.3071 0.5 25.5 0.5C11.6929 0.5 0.5 11.6929 0.5 25.5C0.5 39.3071 11.6929 50.5 25.5 50.5Z" fill="white" stroke="#263238" stroke-linecap="round" stroke-linejoin="round"/>
<path d="M33.2829 2.88624C33.2829 2.88624 32.578 1.27629 30.6636 2.18136C28.7492 3.08644 28.8493 4.50035 28.8493 4.50035C28.8493 4.50035 26.1299 6.31466 26.3468 7.52421C26.5637 8.73375 27.7607 10.8609 27.7607 10.8609C27.7607 10.8609 26.3468 13.1799 26.5512 14.2851C26.7556 15.3904 27.3562 18.114 27.4563 18.4184C27.5564 18.7229 25.0372 19.7281 25.4417 21.0377C25.8463 22.3474 26.8515 23.9573 27.2561 24.0616C27.6606 24.1658 28.6658 24.5662 28.6658 24.5662C28.6658 24.5662 29.2706 27.6902 29.9754 28.6954C30.3641 29.2747 30.8807 29.757 31.4853 30.1051C31.4853 30.1051 33.0994 33.129 37.8375 34.0382C42.5755 34.9475 44.857 28.8872 44.857 28.8872C44.857 28.8872 46.2667 27.0729 46.4669 26.1637C46.6671 25.2544 46.2667 21.9345 46.3668 21.63C46.9911 20.4192 47.2696 19.0598 47.1718 17.7011C46.9716 15.5823 45.7621 12.279 44.7569 11.4448C44.1844 10.9783 43.5001 10.6692 42.7716 10.5481C42.7716 10.5481 40.0522 6.71506 38.8426 6.11029C38.1881 5.76303 37.4674 5.55833 36.728 5.50969L33.2829 2.88624Z" fill="#92E3A9" stroke="#263238" stroke-linecap="round" stroke-linejoin="round"/>
<path d="M34.6174 6.36905C34.9444 6.03813 35.2404 5.67793 35.5017 5.29297" stroke="#263238" stroke-linecap="round" stroke-linejoin="round"/>
<path d="M28.4487 10.4432C30.278 9.59011 32.0047 8.5323 33.5955 7.29004" stroke="#263238" stroke-linecap="round" stroke-linejoin="round"/>
<path d="M28.6489 17.701C28.6489 17.701 39.3304 13.2674 41.6494 11.2529" stroke="#263238" stroke-linecap="round" stroke-linejoin="round"/>
<path d="M40.3525 21.4757C41.9786 21.2093 43.6294 21.1253 45.2741 21.2254" stroke="#263238" stroke-linecap="round" stroke-linejoin="round"/>
<path d="M30.0588 23.9487C33.0418 22.9927 36.083 22.2293 39.1638 21.6631" stroke="#263238" stroke-linecap="round" stroke-linejoin="round"/>
<path d="M39.2847 29.2329C41.2867 29.1203 43.3512 28.9952 44.8736 28.8867" stroke="#263238" stroke-linecap="round" stroke-linejoin="round"/>
<path d="M32.5779 29.5914C32.5779 29.5914 34.901 29.4746 37.6997 29.3203" stroke="#263238" stroke-linecap="round" stroke-linejoin="round"/>
<path d="M15.2646 21.4589C20.1273 21.4589 24.0692 17.5169 24.0692 12.6542C24.0692 7.79158 20.1273 3.84961 15.2646 3.84961C10.4019 3.84961 6.45996 7.79158 6.45996 12.6542C6.45996 17.5169 10.4019 21.4589 15.2646 21.4589Z" fill="white" stroke="#263238" stroke-linecap="round" stroke-linejoin="round"/>
<path d="M24.2469 13.2851C25.4297 8.32419 22.3669 3.34379 17.406 2.16102C12.4451 0.978262 7.46473 4.04103 6.28196 9.00191C5.0992 13.9628 8.16197 18.9432 13.1228 20.126C18.0837 21.3087 23.0641 18.246 24.2469 13.2851Z" fill="white" stroke="#263238" stroke-linecap="round" stroke-linejoin="round"/>
<path d="M15.2648 19.1863C19.7059 19.1863 23.3061 15.586 23.3061 11.1449C23.3061 6.70376 19.7059 3.10352 15.2648 3.10352C10.8236 3.10352 7.22339 6.70376 7.22339 11.1449C7.22339 15.586 10.8236 19.1863 15.2648 19.1863Z" fill="#D1D1D1" stroke="#263238" stroke-linecap="round" stroke-linejoin="round"/>
<path d="M20.7368 19.1644L19.4856 20.1904C19.4856 20.1904 22.8681 23.1684 23.7774 23.1684C24.6866 23.1684 25.5875 22.2633 25.5125 21.6585C25.4374 21.0538 22.3343 17.8047 22.3343 17.8047L20.7368 19.1644Z" fill="white" stroke="#263238" stroke-linecap="round" stroke-linejoin="round"/>
<path d="M20.7368 19.165L23.5313 22.0346" stroke="#263238" stroke-linecap="round" stroke-linejoin="round"/>
<path d="M12.1617 7.60712C12.475 7.60712 12.729 7.35316 12.729 7.03989C12.729 6.72661 12.475 6.47266 12.1617 6.47266C11.8484 6.47266 11.5945 6.72661 11.5945 7.03989C11.5945 7.35316 11.8484 7.60712 12.1617 7.60712Z" fill="#263238"/>
<path d="M14.9978 6.62306C15.1637 6.62306 15.2981 6.48861 15.2981 6.32276C15.2981 6.15691 15.1637 6.02246 14.9978 6.02246C14.832 6.02246 14.6975 6.15691 14.6975 6.32276C14.6975 6.48861 14.832 6.62306 14.9978 6.62306Z" fill="#263238"/>
<path d="M14.5805 10.477C14.7694 10.477 14.9225 10.3239 14.9225 10.135C14.9225 9.94609 14.7694 9.79297 14.5805 9.79297C14.3917 9.79297 14.2385 9.94609 14.2385 10.135C14.2385 10.3239 14.3917 10.477 14.5805 10.477Z" fill="#263238"/>
<path d="M17.9423 9.75888C17.9423 9.84137 17.9179 9.92201 17.872 9.9906C17.8262 10.0592 17.7611 10.1126 17.6848 10.1442C17.6086 10.1758 17.5248 10.184 17.4439 10.168C17.363 10.1519 17.2886 10.1121 17.2303 10.0538C17.172 9.99547 17.1323 9.92116 17.1162 9.84025C17.1001 9.75934 17.1083 9.67548 17.1399 9.59927C17.1715 9.52306 17.2249 9.45792 17.2935 9.41209C17.3621 9.36626 17.4427 9.3418 17.5252 9.3418C17.6359 9.3418 17.7419 9.38574 17.8202 9.46396C17.8984 9.54218 17.9423 9.64826 17.9423 9.75888Z" fill="#263238"/>
<path d="M17.4881 8.81647C17.7392 8.81647 17.9427 8.61293 17.9427 8.36185C17.9427 8.11077 17.7392 7.90723 17.4881 7.90723C17.237 7.90723 17.0334 8.11077 17.0334 8.36185C17.0334 8.61293 17.237 8.81647 17.4881 8.81647Z" fill="#263238"/>
<path d="M16.3949 5.94306C16.7081 5.94306 16.9621 5.6891 16.9621 5.37583C16.9621 5.06255 16.7081 4.80859 16.3949 4.80859C16.0816 4.80859 15.8276 5.06255 15.8276 5.37583C15.8276 5.6891 16.0816 5.94306 16.3949 5.94306Z" fill="#263238"/>
<path d="M19.6026 7.83209C19.8536 7.83209 20.0572 7.62855 20.0572 7.37747C20.0572 7.12639 19.8536 6.92285 19.6026 6.92285C19.3515 6.92285 19.1479 7.12639 19.1479 7.37747C19.1479 7.62855 19.3515 7.83209 19.6026 7.83209Z" fill="#263238"/>
<path d="M19.9821 10.6272C20.1064 10.6272 20.2073 10.5264 20.2073 10.402C20.2073 10.2776 20.1064 10.1768 19.9821 10.1768C19.8577 10.1768 19.7568 10.2776 19.7568 10.402C19.7568 10.5264 19.8577 10.6272 19.9821 10.6272Z" fill="white" stroke="#263238" stroke-linecap="round" stroke-linejoin="round"/>
<path d="M17.3377 12.2911C17.5888 12.2911 17.7923 12.0875 17.7923 11.8365C17.7923 11.5854 17.5888 11.3818 17.3377 11.3818C17.0866 11.3818 16.8831 11.5854 16.8831 11.8365C16.8831 12.0875 17.0866 12.2911 17.3377 12.2911Z" fill="#263238"/>
<path d="M11.8236 9.75886C11.8225 9.82893 11.7939 9.89575 11.744 9.94492C11.6941 9.99408 11.6268 10.0216 11.5567 10.0216C11.487 10.0216 11.4202 9.99393 11.3709 9.94466C11.3216 9.89538 11.2939 9.82854 11.2939 9.75886C11.2939 9.68917 11.3216 9.62233 11.3709 9.57305C11.4202 9.52378 11.487 9.49609 11.5567 9.49609C11.6268 9.49609 11.6941 9.52363 11.744 9.5728C11.7939 9.62196 11.8225 9.68879 11.8236 9.75886Z" fill="#263238"/>
<path d="M13.2586 9.04656C13.2586 9.12163 13.2363 9.19501 13.1946 9.25743C13.1529 9.31984 13.0937 9.36849 13.0243 9.39722C12.9549 9.42594 12.8786 9.43346 12.805 9.41881C12.7314 9.40417 12.6638 9.36802 12.6107 9.31494C12.5576 9.26186 12.5214 9.19423 12.5068 9.12061C12.4922 9.04698 12.4997 8.97067 12.5284 8.90132C12.5571 8.83196 12.6058 8.77269 12.6682 8.73098C12.7306 8.68928 12.804 8.66702 12.8791 8.66702C12.9291 8.66646 12.9787 8.67589 13.025 8.69477C13.0713 8.71364 13.1133 8.74158 13.1487 8.77694C13.184 8.81229 13.212 8.85436 13.2309 8.90066C13.2497 8.94696 13.2592 8.99656 13.2586 9.04656Z" fill="#263238"/>
<path d="M10.6144 7.53243C10.6057 7.60651 10.5701 7.67481 10.5144 7.72438C10.4586 7.77394 10.3866 7.80132 10.312 7.80132C10.2375 7.80132 10.1655 7.77394 10.1097 7.72438C10.054 7.67481 10.0184 7.60651 10.0097 7.53243C10.0046 7.48974 10.0087 7.44647 10.0216 7.40546C10.0345 7.36446 10.056 7.32665 10.0845 7.29453C10.1131 7.26241 10.1481 7.2367 10.1873 7.21909C10.2266 7.20148 10.2691 7.19238 10.312 7.19238C10.355 7.19238 10.3975 7.20148 10.4367 7.21909C10.476 7.2367 10.511 7.26241 10.5396 7.29453C10.5681 7.32665 10.5896 7.36446 10.6025 7.40546C10.6154 7.44647 10.6194 7.48974 10.6144 7.53243Z" fill="#263238"/>
<path d="M9.47989 9.26758C9.47989 9.26758 12.7457 13.7512 16.22 13.4384C19.6943 13.1256 20.6619 10.8442 21.3418 12.1872C22.0216 13.5302 21.542 15.5238 19.077 16.9461C15.2648 19.1566 10.6561 17.017 9.21713 14.9775C7.77819 12.9379 7.06497 9.41773 9.47989 9.26758Z" fill="#263238" stroke="#263238" stroke-linecap="round" stroke-linejoin="round"/>
<path d="M10.7647 25.8204C10.7647 25.8204 9.35079 25.5159 6.6314 26.5253C3.91201 27.5346 4.21232 32.573 6.02663 34.0828C7.27469 35.0672 8.6694 35.8497 10.1599 36.4018C10.1599 36.4018 9.65526 38.4163 10.7647 39.2213C11.8741 40.0263 14.8938 41.0356 14.8938 41.0356C14.8596 41.6276 14.9495 42.2203 15.1578 42.7755C15.3661 43.3307 15.6882 43.8363 16.1034 44.2597C17.5131 45.6694 19.9322 45.6694 20.4369 45.269C20.9415 44.8686 21.6464 44.3598 21.6464 44.3598C21.6464 44.3598 24.7704 46.7789 25.9799 46.3743C27.1895 45.9697 28.4824 45.3691 28.4824 45.3691C28.4824 45.3691 31.3019 47.0833 33.6209 46.879C35.9399 46.6746 38.5592 45.8738 38.6593 44.1596C38.7594 42.4454 37.3496 39.8261 37.0452 39.3214C36.7379 38.7003 36.4691 38.061 36.2402 37.407C36.2402 37.407 36.6573 36.7021 35.6354 35.4926C34.6136 34.283 31.9275 31.9849 31.7232 31.5678C31.5188 31.1507 31.4187 29.1487 30.8139 28.2312C30.2091 27.3136 23.8611 24.198 22.0552 24.0979C20.8622 24.0703 19.6815 24.3443 18.6226 24.8945C18.6226 24.8945 18.2055 24.6943 15.3985 24.1896C12.5915 23.6849 11.0733 24.4107 10.7647 25.8204Z" fill="#92E3A9" stroke="#263238" stroke-linecap="round" stroke-linejoin="round"/>
<path d="M10.7643 31.6025C10.6919 32.8396 10.5527 34.0718 10.3472 35.2937" stroke="#263238" stroke-linecap="round" stroke-linejoin="round"/>
<path d="M10.8645 27.2314C10.8645 27.2314 10.8979 28.7246 10.8145 30.6432" stroke="#263238" stroke-linecap="round" stroke-linejoin="round"/>
<path d="M17.7005 34.626C16.2115 38.9261 14.8936 41.0366 14.8936 41.0366" stroke="#263238" stroke-linecap="round" stroke-linejoin="round"/>
<path d="M18.8226 26.0215C18.8226 26.0215 19.6317 28.745 18.0176 33.6791" stroke="#263238" stroke-linecap="round" stroke-linejoin="round"/>
<path d="M29.3581 34.5225C27.8524 37.1376 25.2164 41.396 22.7556 43.8568" stroke="#263238" stroke-linecap="round" stroke-linejoin="round"/>
<path d="M30.6134 32.2695C30.6134 32.2695 30.3673 32.7367 29.9419 33.4999" stroke="#263238" stroke-linecap="round" stroke-linejoin="round"/>
<path d="M33.9459 40.6611C32.4235 42.3295 30.0837 44.736 28.4988 45.37" stroke="#263238" stroke-linecap="round" stroke-linejoin="round"/>
<path d="M35.4516 38.9219C35.4516 38.9219 35.1137 39.339 34.5757 39.9521" stroke="#263238" stroke-linecap="round" stroke-linejoin="round"/>
</svg>
