<svg width="23" height="23" viewBox="0 0 23 23" fill="none" xmlns="http://www.w3.org/2000/svg">
<path d="M11.5 0C5.1405 0 0 5.1405 0 11.5C0 17.8595 5.1405 23 11.5 23C17.8595 23 23 17.8595 23 11.5C23 5.1405 17.8595 0 11.5 0ZM11.5 20.7C6.4285 20.7 2.3 16.5715 2.3 11.5C2.3 6.4285 6.4285 2.3 11.5 2.3C16.5715 2.3 20.7 6.4285 20.7 11.5C20.7 16.5715 16.5715 20.7 11.5 20.7ZM15.6285 5.75L11.5 9.8785L7.3715 5.75L5.75 7.3715L9.8785 11.5L5.75 15.6285L7.3715 17.25L11.5 13.1215L15.6285 17.25L17.25 15.6285L13.1215 11.5L17.25 7.3715L15.6285 5.75Z" fill="#898989"/>
</svg>
