<svg width="19" height="70" viewBox="0 0 19 70" fill="none" xmlns="http://www.w3.org/2000/svg">
<mask id="path-1-inside-1_0_12" fill="white">
<path fill-rule="evenodd" clip-rule="evenodd" d="M0 53.8691H16C16 56.9512 15.1286 59.8298 13.6186 62.2718C14.9936 64.8136 16.8053 67.1759 19 69.2431C15.7236 70.331 12.0545 70.2851 8.61947 68.8483C8.12799 68.6427 7.65342 68.4138 7.19651 68.1632C5.03322 69.2545 2.58838 69.8691 0 69.8691V53.8691Z"/>
</mask>
<path fill-rule="evenodd" clip-rule="evenodd" d="M0 53.8691H16C16 56.9512 15.1286 59.8298 13.6186 62.2718C14.9936 64.8136 16.8053 67.1759 19 69.2431C15.7236 70.331 12.0545 70.2851 8.61947 68.8483C8.12799 68.6427 7.65342 68.4138 7.19651 68.1632C5.03322 69.2545 2.58838 69.8691 0 69.8691V53.8691Z" fill="#E7FECC"/>
<path d="M16 53.8691V53.3691H16.5V53.8691H16ZM0 53.8691H-0.5V53.3691H0V53.8691ZM13.6186 62.2718L13.1788 62.5097L13.0411 62.2551L13.1933 62.0088L13.6186 62.2718ZM19 69.2431L19.3428 68.8791L19.9527 69.4536L19.1576 69.7176L19 69.2431ZM8.61947 68.8483L8.8124 68.387L8.61947 68.8483ZM7.19651 68.1632L6.97131 67.7168L7.20621 67.5983L7.4369 67.7248L7.19651 68.1632ZM0 69.8691V70.3691H-0.5V69.8691H0ZM16 54.3691H0V53.3691H16V54.3691ZM13.1933 62.0088C14.6558 59.6435 15.5 56.8557 15.5 53.8691H16.5C16.5 57.0467 15.6013 60.016 14.0439 62.5347L13.1933 62.0088ZM14.0584 62.0339C15.4077 64.5282 17.1865 66.848 19.3428 68.8791L18.6572 69.6071C16.4242 67.5037 14.5795 65.0991 13.1788 62.5097L14.0584 62.0339ZM19.1576 69.7176C15.7709 70.8421 11.9772 70.7947 8.42653 69.3096L8.8124 68.387C12.1319 69.7754 15.6763 69.8198 18.8424 68.7686L19.1576 69.7176ZM8.42653 69.3096C7.91881 69.0972 7.4284 68.8606 6.95611 68.6017L7.4369 67.7248C7.87844 67.9669 8.33716 68.1883 8.8124 68.387L8.42653 69.3096ZM0 69.3691C2.50839 69.3691 4.87627 68.7737 6.97131 67.7168L7.4217 68.6097C5.19017 69.7354 2.66838 70.3691 0 70.3691V69.3691ZM0.5 53.8691V69.8691H-0.5V53.8691H0.5Z" fill="#9BA9B0" mask="url(#path-1-inside-1_0_12)"/>
<mask id="path-3-inside-2_0_12" fill="white">
<path d="M16 16C16 7.16344 8.83656 0 0 0V54.8695H16V16Z"/>
</mask>
<path d="M16 16C16 7.16344 8.83656 0 0 0V54.8695H16V16Z" fill="#E7FECC"/>
<path d="M16.5 16C16.5 6.8873 9.1127 -0.5 0 -0.5H-0.5L0.5 0.5H0C8.56041 0.5 15.5 7.43959 15.5 16H16.5ZM0 54.8695H16H0ZM16.5 54.8695V16C16.5 6.8873 9.1127 -0.5 0 -0.5V0.5C8.56041 0.5 15.5 7.43959 15.5 16V54.8695H16.5ZM-0.5 -0.5V54.8695H0.5V0.00766395C0.33338 0.00260505 0.166695 -1.4573e-08 -1.90735e-06 0L-0.5 -0.5Z" fill="#9BA9B0" mask="url(#path-3-inside-2_0_12)"/>
</svg>
