<svg width="19" height="156" viewBox="0 0 19 156" fill="none" xmlns="http://www.w3.org/2000/svg">
<mask id="path-1-inside-1_0_61" fill="white">
<path fill-rule="evenodd" clip-rule="evenodd" d="M19 139.869H3C3 142.951 3.87145 145.83 5.38139 148.272C4.00641 150.814 2.19466 153.176 0 155.243C3.27641 156.331 6.94548 156.285 10.3805 154.848C10.872 154.643 11.3466 154.414 11.8035 154.163C13.9668 155.255 16.4116 155.869 19 155.869V139.869Z"/>
</mask>
<path fill-rule="evenodd" clip-rule="evenodd" d="M19 139.869H3C3 142.951 3.87145 145.83 5.38139 148.272C4.00641 150.814 2.19466 153.176 0 155.243C3.27641 156.331 6.94548 156.285 10.3805 154.848C10.872 154.643 11.3466 154.414 11.8035 154.163C13.9668 155.255 16.4116 155.869 19 155.869V139.869Z" fill="white"/>
<path d="M3 139.869V139.369H2.5V139.869H3ZM19 139.869H19.5V139.369H19V139.869ZM5.38139 148.272L5.82117 148.51L5.95891 148.255L5.80666 148.009L5.38139 148.272ZM0 155.243L-0.342829 154.879L-0.952715 155.454L-0.157557 155.718L0 155.243ZM10.3805 154.848L10.1876 154.387L10.3805 154.848ZM11.8035 154.163L12.0287 153.717L11.7938 153.598L11.5631 153.725L11.8035 154.163ZM19 155.869V156.369H19.5V155.869H19ZM3 140.369H19V139.369H3V140.369ZM5.80666 148.009C4.34416 145.644 3.5 142.856 3.5 139.869H2.5C2.5 143.047 3.39874 146.016 4.95612 148.535L5.80666 148.009ZM4.94161 148.034C3.59234 150.528 1.8135 152.848 -0.342829 154.879L0.342829 155.607C2.57582 153.504 4.42048 151.099 5.82117 148.51L4.94161 148.034ZM-0.157557 155.718C3.22907 156.842 7.02283 156.795 10.5735 155.31L10.1876 154.387C6.86813 155.775 3.32375 155.82 0.157557 154.769L-0.157557 155.718ZM10.5735 155.31C11.0812 155.097 11.5716 154.861 12.0439 154.602L11.5631 153.725C11.1216 153.967 10.6628 154.188 10.1876 154.387L10.5735 155.31ZM19 155.369C16.4916 155.369 14.1237 154.774 12.0287 153.717L11.5783 154.61C13.8098 155.735 16.3316 156.369 19 156.369V155.369ZM18.5 139.869V155.869H19.5V139.869H18.5Z" fill="#9BA9B0" mask="url(#path-1-inside-1_0_61)"/>
<mask id="path-3-inside-2_0_61" fill="white">
<path d="M3 16C3 7.16343 10.1634 0 19 0V140.869H3V16Z"/>
</mask>
<path d="M3 16C3 7.16343 10.1634 0 19 0V140.869H3V16Z" fill="white"/>
<path d="M2.5 16C2.5 6.8873 9.8873 -0.5 19 -0.5H19.5L18.5 0.5H19C10.4396 0.5 3.5 7.43959 3.5 16H2.5ZM19 140.869H3H19ZM2.5 140.869V16C2.5 6.8873 9.8873 -0.5 19 -0.5V0.5C10.4396 0.5 3.5 7.43959 3.5 16V140.869H2.5ZM19.5 -0.5V140.869H18.5V0.00766395C18.6666 0.00260505 18.8333 -1.4573e-08 19 0L19.5 -0.5Z" fill="#9BA9B0" mask="url(#path-3-inside-2_0_61)"/>
</svg>
