<svg width="16" height="16" viewBox="0 0 16 16" fill="none" xmlns="http://www.w3.org/2000/svg">
<path d="M9.35064 5.3573L3.75064 10.8573C3.65712 10.9493 3.53119 11.0008 3.40001 11.0008C3.26883 11.0008 3.14291 10.9493 3.04939 10.8573L0.649389 8.50042C0.602564 8.45438 0.565267 8.39956 0.539628 8.3391C0.513988 8.27864 0.500508 8.21373 0.499957 8.14806C0.499405 8.08239 0.511794 8.01725 0.536414 7.95637C0.561035 7.89549 0.597406 7.84006 0.643451 7.79323C0.689496 7.74641 0.744313 7.70911 0.804771 7.68347C0.86523 7.65783 0.930147 7.64435 0.995815 7.6438C1.06148 7.64325 1.12662 7.65564 1.1875 7.68026C1.24838 7.70488 1.30381 7.74125 1.35064 7.7873L3.40001 9.7998L8.65001 4.64355C8.74466 4.55055 8.87237 4.49897 9.00506 4.50014C9.07075 4.50072 9.13569 4.51424 9.19617 4.53992C9.25664 4.56559 9.31147 4.60293 9.35751 4.6498C9.40356 4.69666 9.43992 4.75214 9.46453 4.81306C9.48913 4.87397 9.5015 4.93914 9.50092 5.00484C9.50034 5.07054 9.48682 5.13548 9.46114 5.19595C9.43547 5.25643 9.39813 5.31125 9.35126 5.3573H9.35064ZM15.3569 4.6498C15.3109 4.6029 15.256 4.56553 15.1956 4.53983C15.1351 4.51413 15.0701 4.5006 15.0044 4.50002C14.9387 4.49944 14.8735 4.51182 14.8126 4.53644C14.7517 4.56107 14.6962 4.59747 14.6494 4.64355L9.39939 9.7998L8.22251 8.64355C8.12786 8.55064 8.00018 8.49913 7.86756 8.50036C7.73494 8.50159 7.60823 8.55546 7.51533 8.65011C7.42242 8.74476 7.37091 8.87244 7.37214 9.00506C7.37337 9.13768 7.42724 9.26439 7.52189 9.3573L9.04876 10.8573C9.14228 10.9493 9.26821 11.0008 9.39939 11.0008C9.53057 11.0008 9.65649 10.9493 9.75001 10.8573L15.35 5.3573C15.397 5.31131 15.4344 5.25653 15.4601 5.19607C15.4859 5.13562 15.4995 5.07068 15.5001 5.00497C15.5007 4.93926 15.4884 4.87407 15.4638 4.81313C15.4393 4.75218 15.4029 4.69668 15.3569 4.6498Z" fill="#439636"/>
</svg>
