<svg width="202" height="202" viewBox="0 0 202 202" fill="none" xmlns="http://www.w3.org/2000/svg">
<path d="M72.982 41.3363C63.7026 42.5613 54.7544 45.1692 46.8182 49.26C37.4646 54.0814 27.9075 61.5926 30.7303 71.4172C35.9416 89.5548 60.9415 89.8852 55.9499 102.081C50.2959 115.894 54.0876 132.098 79.4583 136.604C127.646 145.163 185.898 95.0851 169.538 67.5679C159.352 50.4368 122.254 34.8322 72.982 41.3363Z" fill="#01AB6C"/>
<path opacity="0.9" d="M72.982 41.3363C63.7026 42.5613 54.7544 45.1692 46.8182 49.26C37.4646 54.0814 27.9075 61.5926 30.7303 71.4172C35.9416 89.5548 60.9415 89.8852 55.9499 102.081C50.2959 115.894 54.0876 132.098 79.4583 136.604C127.646 145.163 185.898 95.0851 169.538 67.5679C159.352 50.4368 122.254 34.8322 72.982 41.3363Z" fill="white"/>
<path d="M184.748 187.508C184.748 188.866 147.253 189.966 101 189.966C54.7472 189.966 17.252 188.866 17.252 187.508C17.252 186.15 54.7472 185.049 101 185.049C147.253 185.049 184.748 186.15 184.748 187.508Z" fill="#F5F5F5"/>
<path d="M56.1728 169.719C53.2544 169.719 50.7069 168.733 48.5301 166.762C46.3533 164.791 45.2649 162.034 45.2649 158.49C45.2649 155.346 46.3174 152.701 48.4224 150.555C50.5275 148.41 53.1109 147.336 56.1728 147.336C59.1868 147.336 61.7224 148.41 63.7796 150.555C65.8368 152.701 66.8654 155.346 66.8654 158.49C66.8654 161.983 65.789 164.729 63.6361 166.724C61.4832 168.72 58.9954 169.719 56.1728 169.719Z" fill="#01AB6C"/>
<path d="M22.562 90.5672C22.562 85.95 23.9831 81.272 26.8253 76.5333C29.6675 71.7946 33.8143 67.8699 39.2657 64.7593C44.7171 61.6498 51.0771 60.0935 58.3456 60.0935C65.1016 60.0935 71.0655 61.3946 76.2374 63.9938C81.4092 66.5941 85.4046 70.1299 88.2235 74.6014C91.0424 79.0738 92.4518 83.933 92.4518 89.1821C92.4518 93.3133 91.6481 96.9352 90.0406 100.045C88.4331 103.155 86.5228 105.841 84.3097 108.101C82.0965 110.361 78.1244 114.164 72.3934 119.51C70.8093 121.017 69.5396 122.342 68.5844 123.483C67.6293 124.625 66.9188 125.67 66.4528 126.618C65.9869 127.566 65.6258 128.514 65.3695 129.461C65.1132 130.409 64.7289 132.075 64.2163 134.455C63.3311 139.511 60.5588 142.037 55.8995 142.037C53.4766 142.037 51.4382 141.211 49.7841 139.558C48.13 137.907 47.303 135.452 47.303 132.195C47.303 128.113 47.9087 124.577 49.1201 121.588C50.3316 118.599 51.939 115.974 53.9425 113.714C55.946 111.454 58.6484 108.769 62.0497 105.658C65.0317 102.937 67.1866 100.883 68.5145 99.4979C69.8425 98.1128 70.9607 96.5706 71.8692 94.8685C72.7778 93.1675 73.2321 91.3216 73.2321 89.3279C73.2321 85.4397 71.846 82.159 69.0737 79.4859C66.3014 76.8138 62.7254 75.4762 58.3456 75.4762C53.2203 75.4762 49.4463 76.8249 47.0234 79.5224C44.6006 82.2198 42.5505 86.193 40.8732 91.4421C39.2889 96.9352 36.2837 99.6802 31.8574 99.6802C29.2481 99.6802 27.0466 98.7213 25.2528 96.8005C23.4589 94.8807 22.562 92.803 22.562 90.5672Z" fill="#01AB6C"/>
<g opacity="0.3">
<path d="M56.1728 169.719C53.2544 169.719 50.7069 168.733 48.5301 166.762C46.3533 164.791 45.2649 162.034 45.2649 158.49C45.2649 155.346 46.3174 152.701 48.4224 150.555C50.5275 148.41 53.1109 147.336 56.1728 147.336C59.1868 147.336 61.7224 148.41 63.7796 150.555C65.8368 152.701 66.8654 155.346 66.8654 158.49C66.8654 161.983 65.789 164.729 63.6361 166.724C61.4832 168.72 58.9954 169.719 56.1728 169.719Z" fill="black"/>
<path d="M22.562 90.5672C22.562 85.95 23.9831 81.272 26.8253 76.5333C29.6675 71.7946 33.8143 67.8699 39.2657 64.7593C44.7171 61.6498 51.0771 60.0935 58.3456 60.0935C65.1016 60.0935 71.0655 61.3946 76.2374 63.9938C81.4092 66.5941 85.4046 70.1299 88.2235 74.6014C91.0424 79.0738 92.4518 83.933 92.4518 89.1821C92.4518 93.3133 91.6481 96.9352 90.0406 100.045C88.4331 103.155 86.5228 105.841 84.3097 108.101C82.0965 110.361 78.1244 114.164 72.3934 119.51C70.8093 121.017 69.5396 122.342 68.5844 123.483C67.6293 124.625 66.9188 125.67 66.4528 126.618C65.9869 127.566 65.6258 128.514 65.3695 129.461C65.1132 130.409 64.7289 132.075 64.2163 134.455C63.3311 139.511 60.5588 142.037 55.8995 142.037C53.4766 142.037 51.4382 141.211 49.7841 139.558C48.13 137.907 47.303 135.452 47.303 132.195C47.303 128.113 47.9087 124.577 49.1201 121.588C50.3316 118.599 51.939 115.974 53.9425 113.714C55.946 111.454 58.6484 108.769 62.0497 105.658C65.0317 102.937 67.1866 100.883 68.5145 99.4979C69.8425 98.1128 70.9607 96.5706 71.8692 94.8685C72.7778 93.1675 73.2321 91.3216 73.2321 89.3279C73.2321 85.4397 71.846 82.159 69.0737 79.4859C66.3014 76.8138 62.7254 75.4762 58.3456 75.4762C53.2203 75.4762 49.4463 76.8249 47.0234 79.5224C44.6006 82.2198 42.5505 86.193 40.8732 91.4421C39.2889 96.9352 36.2837 99.6802 31.8574 99.6802C29.2481 99.6802 27.0466 98.7213 25.2528 96.8005C23.4589 94.8807 22.562 92.803 22.562 90.5672Z" fill="black"/>
</g>
<path d="M56.1728 166.778C53.2544 166.778 50.7069 165.793 48.5301 163.821C46.3533 161.85 45.2649 159.094 45.2649 155.55C45.2649 152.406 46.3174 149.761 48.4224 147.615C50.5275 145.47 53.1109 144.396 56.1728 144.396C59.1868 144.396 61.7224 145.47 63.7796 147.615C65.8368 149.761 66.8654 152.406 66.8654 155.55C66.8654 159.043 65.789 161.789 63.6361 163.784C61.4832 165.779 58.9954 166.778 56.1728 166.778Z" fill="#01AB6C"/>
<path d="M22.562 87.6268C22.562 83.0096 23.9831 78.3316 26.8253 73.5928C29.6675 68.8541 33.8143 64.9295 39.2657 61.8189C44.7171 58.7094 51.0771 57.1531 58.3456 57.1531C65.1016 57.1531 71.0655 58.4542 76.2374 61.0534C81.4092 63.6536 85.4046 67.1895 88.2235 71.6609C91.0424 76.1333 92.4518 80.9925 92.4518 86.2416C92.4518 90.3728 91.6481 93.9947 90.0406 97.1043C88.4331 100.215 86.5228 102.9 84.3097 105.16C82.0965 107.42 78.1244 111.223 72.3934 116.57C70.8093 118.076 69.5396 119.402 68.5844 120.543C67.6293 121.685 66.9188 122.73 66.4528 123.678C65.9869 124.625 65.6258 125.573 65.3695 126.521C65.1132 127.469 64.7289 129.134 64.2163 131.515C63.3311 136.57 60.5588 139.097 55.8995 139.097C53.4766 139.097 51.4382 138.271 49.7841 136.618C48.13 134.967 47.303 132.511 47.303 129.255C47.303 125.172 47.9087 121.636 49.1201 118.647C50.3316 115.658 51.939 113.034 53.9425 110.774C55.946 108.514 58.6484 105.828 62.0497 102.718C65.0317 99.9961 67.1866 97.9426 68.5145 96.5575C69.8425 95.1723 70.9607 93.6302 71.8692 91.9281C72.7778 90.227 73.2321 88.3811 73.2321 86.3874C73.2321 82.4992 71.846 79.2186 69.0737 76.5454C66.3014 73.8733 62.7254 72.5357 58.3456 72.5357C53.2203 72.5357 49.4463 73.8845 47.0234 76.5819C44.6006 79.2793 42.5505 83.2526 40.8732 88.5016C39.2889 93.9947 36.2837 96.7397 31.8574 96.7397C29.2481 96.7397 27.0466 95.7809 25.2528 93.8601C23.4589 91.9403 22.562 89.8625 22.562 87.6268Z" fill="#01AB6C"/>
<path d="M154.753 34.6575C150.36 31.4156 144.17 32.3491 140.929 36.7424C138.426 40.1341 138.421 44.5913 140.566 47.9413L139.768 50.8011L142.887 50.4631C142.93 50.4966 142.969 50.5342 143.014 50.567C147.407 53.8088 153.596 52.8753 156.838 48.482C160.08 44.0886 159.146 37.8992 154.753 34.6575Z" fill="#01AB6C"/>
<path opacity="0.7" d="M154.753 34.6575C150.36 31.4156 144.17 32.3491 140.929 36.7424C138.426 40.1341 138.421 44.5913 140.566 47.9413L139.768 50.8011L142.887 50.4631C142.93 50.4966 142.969 50.5342 143.014 50.567C147.407 53.8088 153.596 52.8753 156.838 48.482C160.08 44.0886 159.146 37.8992 154.753 34.6575Z" fill="white"/>
<path d="M160.016 42.3534H160.013C159.957 42.3516 159.913 42.3051 159.915 42.2494C160.009 39.0827 158.377 35.8845 155.759 34.1014C155.712 34.07 155.701 34.0073 155.732 33.9611C155.763 33.9148 155.826 33.9033 155.872 33.9345C158.546 35.7553 160.212 39.0214 160.117 42.2554C160.115 42.3102 160.07 42.3534 160.016 42.3534Z" fill="#01AB6C"/>
<path d="M159.685 45.2663C159.673 45.2663 159.661 45.2641 159.649 45.2596C159.597 45.2395 159.571 45.1811 159.591 45.129C159.761 44.6867 159.84 44.2025 159.819 43.7286C159.817 43.6728 159.86 43.6257 159.916 43.6231C159.973 43.6215 160.019 43.6639 160.021 43.7196C160.044 44.2212 159.96 44.7337 159.78 45.2016C159.764 45.2417 159.726 45.2663 159.685 45.2663Z" fill="#01AB6C"/>
<path d="M148.242 43.0976C148.408 42.8149 148.651 42.5029 148.969 42.1616C149.203 41.9119 149.375 41.7018 149.485 41.5314C149.595 41.361 149.649 41.1675 149.649 40.9507C149.649 40.6432 149.545 40.3998 149.336 40.2208C149.127 40.0419 148.849 39.9525 148.502 39.9525C148.169 39.9525 147.873 40.0337 147.615 40.196C147.357 40.3579 147.139 40.585 146.962 40.8759L145.677 39.99C145.974 39.4575 146.376 39.0454 146.882 38.7542C147.388 38.463 147.989 38.3174 148.683 38.3174C149.497 38.3174 150.15 38.5215 150.642 38.9291C151.134 39.3367 151.381 39.9025 151.381 40.6266C151.381 40.9678 151.333 41.2672 151.237 41.5251C151.142 41.783 151.025 42.0016 150.887 42.1801C150.749 42.3591 150.57 42.5652 150.35 42.7983C150.088 43.0728 149.897 43.3037 149.777 43.4908C149.656 43.6779 149.596 43.9047 149.596 44.1711H147.992C147.992 43.7383 148.075 43.3807 148.242 43.0976ZM148.072 46.8806C147.877 46.6833 147.78 46.4431 147.78 46.1599C147.78 45.877 147.875 45.6405 148.066 45.4504C148.258 45.2607 148.502 45.1655 148.799 45.1655C149.097 45.1655 149.341 45.2607 149.532 45.4504C149.724 45.6405 149.819 45.877 149.819 46.1599C149.819 46.4431 149.722 46.6833 149.527 46.8806C149.332 47.078 149.09 47.1765 148.799 47.1765C148.509 47.1765 148.267 47.078 148.072 46.8806Z" fill="#01AB6C"/>
<path d="M61.8171 32.9442C58.93 37.5784 60.3462 43.6755 64.9803 46.5626C68.558 48.7915 73.0018 48.4462 76.1731 46.0449L79.0868 46.6168L78.5051 43.5338C78.535 43.4876 78.5695 43.4462 78.5987 43.3992C81.4858 38.7651 80.0695 32.668 75.4354 29.781C70.8012 26.8939 64.7041 28.3101 61.8171 32.9442Z" fill="#01AB6C"/>
<path opacity="0.7" d="M61.8171 32.9442C58.93 37.5784 60.3462 43.6755 64.9803 46.5626C68.558 48.7915 73.0018 48.4462 76.1731 46.0449L79.0868 46.6168L78.5051 43.5338C78.535 43.4876 78.5695 43.4462 78.5987 43.3992C81.4858 38.7651 80.0695 32.668 75.4354 29.781C70.8012 26.8939 64.7041 28.3101 61.8171 32.9442Z" fill="white"/>
<path d="M61.0962 32.0367C61.079 32.0367 61.0619 32.0323 61.0461 32.0235C60.9976 31.9956 60.9808 31.9339 61.0084 31.8856C62.614 29.0765 65.7392 27.1593 68.9706 27.0011C69.0225 26.9963 69.0736 27.0411 69.0764 27.0969C69.0791 27.1526 69.0361 27.2001 68.9805 27.2027C65.8164 27.3577 62.756 29.2351 61.184 31.9858C61.1652 32.0183 61.1311 32.0367 61.0962 32.0367Z" fill="#01AB6C"/>
<path d="M71.9058 27.3038C71.8964 27.3038 71.8867 27.3024 71.877 27.2996C71.4221 27.1643 70.9331 27.1231 70.463 27.1819C70.407 27.1895 70.3571 27.1493 70.3504 27.0941C70.3435 27.0386 70.3827 26.9883 70.4382 26.9814C70.9351 26.9195 71.4533 26.9623 71.9346 27.1059C71.9881 27.1219 72.0185 27.1781 72.0027 27.2316C71.9897 27.2754 71.9494 27.3038 71.9058 27.3038Z" fill="#01AB6C"/>
<path d="M69.9212 38.5205C70.0876 38.2377 70.3303 37.9258 70.6489 37.5845C70.8828 37.3348 71.0543 37.1247 71.1639 36.9542C71.274 36.7838 71.3288 36.5904 71.3288 36.3736C71.3288 36.066 71.2244 35.8226 71.0154 35.6436C70.8064 35.4647 70.5285 35.3754 70.1817 35.3754C69.8486 35.3754 69.5529 35.4565 69.2946 35.6188C69.036 35.7807 68.8185 36.0079 68.6414 36.2988L67.356 35.4128C67.6535 34.8803 68.0552 34.4683 68.5617 34.1771C69.0678 33.8858 69.6681 33.7402 70.3621 33.7402C71.1766 33.7402 71.8298 33.9444 72.3219 34.3519C72.814 34.7596 73.06 35.3253 73.06 36.0494C73.06 36.3906 73.0122 36.69 72.9166 36.9479C72.821 37.2058 72.7043 37.4244 72.5661 37.603C72.4282 37.782 72.2492 37.988 72.0299 38.2211C71.7679 38.4956 71.5767 38.7265 71.4563 38.9136C71.3359 39.1007 71.2755 39.3275 71.2755 39.5939H69.6718C69.6718 39.1611 69.7548 38.8036 69.9212 38.5205ZM69.7515 42.3034C69.5566 42.1061 69.4592 41.866 69.4592 41.5827C69.4592 41.2998 69.5547 41.0633 69.7459 40.8733C69.9371 40.6836 70.1817 40.5884 70.4788 40.5884C70.7764 40.5884 71.0206 40.6836 71.2118 40.8733C71.4029 41.0633 71.4986 41.2998 71.4986 41.5827C71.4986 41.866 71.4015 42.1061 71.2066 42.3034C71.0117 42.5008 70.7694 42.5993 70.4788 42.5993C70.1887 42.5993 69.946 42.5008 69.7515 42.3034Z" fill="#01AB6C"/>
<path d="M162.058 171.19C162.051 170.965 161.295 148.631 157.662 145.099C154.128 141.664 150.073 144.971 149.903 145.113L149.538 144.677C149.584 144.638 154.161 140.902 158.058 144.691C161.854 148.382 162.597 170.243 162.626 171.172L162.058 171.19Z" fill="#263238"/>
<path d="M162.37 175.579C162.344 175.312 159.887 148.767 169.582 137.642L170.01 138.015C160.477 148.956 162.911 175.259 162.936 175.523L162.37 175.579Z" fill="#263238"/>
<path d="M162.012 172.771L161.444 172.733C161.464 172.432 163.342 142.556 156.231 136.015L156.616 135.597C163.926 142.321 162.093 171.531 162.012 172.771Z" fill="#263238"/>
<path d="M162.937 172.754L162.369 172.75C162.376 171.927 162.603 152.569 168.102 149.418C169.324 148.717 170.521 148.601 171.66 149.071C174.985 150.447 176.632 156.364 176.701 156.615L176.152 156.765C176.136 156.706 174.509 150.865 171.442 149.597C170.475 149.197 169.447 149.303 168.385 149.911C163.167 152.901 162.939 172.556 162.937 172.754Z" fill="#263238"/>
<path d="M160.796 172.768L160.229 172.736C160.237 172.583 161.058 157.439 156.971 152.103C155.981 150.81 154.906 150.194 153.77 150.274C151.092 150.461 148.846 154.38 148.824 154.419L148.329 154.139C148.426 153.967 150.746 149.915 153.729 149.707C155.064 149.612 156.308 150.303 157.422 151.758C161.638 157.261 160.832 172.138 160.796 172.768Z" fill="#263238"/>
<path d="M161.692 174.828C161.581 173.359 159.02 138.779 163.526 132.686L163.983 133.024C159.602 138.949 162.232 174.427 162.259 174.785L161.692 174.828Z" fill="#263238"/>
<path d="M173.701 150.981C173.701 150.981 170.826 152.043 171.802 154.33C174.552 160.771 181.107 161.458 181.107 161.458C181.107 161.458 184.183 156.588 181.662 152.806C178.186 147.592 173.774 149.297 173.701 150.981Z" fill="#01AB6C"/>
<path d="M161.136 148.098C161.136 148.098 164.014 147.978 164.177 150.458C164.341 152.938 157.942 159.801 157.942 159.801C157.942 159.801 153.376 158.15 154.357 151.96C155.338 145.771 160.42 146.572 161.136 148.098Z" fill="#01AB6C"/>
<path d="M162.531 133.643C162.531 133.643 161.322 133.494 160.868 132.407C159.512 129.162 164.171 125.663 170.402 127.512C170.402 127.512 170.567 132.994 167.214 135.157C163.861 137.319 162.531 133.643 162.531 133.643Z" fill="#01AB6C"/>
<path d="M151.854 150.646C151.854 150.646 152.857 149.271 151.341 149.136C149.826 149.001 143.266 151.941 144.991 158.67C144.991 158.67 153.429 155.918 153.721 153.1C154.014 150.283 151.854 150.646 151.854 150.646Z" fill="#01AB6C"/>
<path d="M169.844 136.051C169.844 136.051 170.223 134.802 171.652 134.28C173.082 133.758 178.391 134.086 178.464 141.032C178.464 141.032 170.297 142.39 169.286 139.743C168.275 137.098 169.844 136.051 169.844 136.051Z" fill="#01AB6C"/>
<path d="M165.436 141.823C165.436 141.823 165.985 140.871 167.034 141.38C168.084 141.89 171.177 145.073 168.227 148.916C168.227 148.916 162.745 145.62 163.193 143.306C163.606 141.174 165.436 141.823 165.436 141.823Z" fill="#01AB6C"/>
<path d="M152.006 143.498C152.006 143.498 152.797 142.461 151.638 142.332C150.479 142.204 145.283 143.591 146.493 148.778C146.493 148.778 152.823 148.302 153.094 146.147C153.365 143.993 152.006 143.498 152.006 143.498Z" fill="#01AB6C"/>
<path d="M170.104 186.628H154.633L152.964 170.619H171.773L170.104 186.628Z" fill="#263238"/>
<path d="M174.375 168.426H150.363V172.813H174.375V168.426Z" fill="#263238"/>
<path opacity="0.3" d="M157.377 157.615C157.327 157.615 157.284 157.579 157.277 157.528C156.824 154.306 158.347 150.486 161.068 148.023C161.109 147.986 161.173 147.989 161.211 148.03C161.248 148.072 161.245 148.135 161.203 148.173C158.531 150.593 157.033 154.341 157.477 157.5C157.485 157.555 157.446 157.607 157.391 157.614C157.386 157.615 157.382 157.615 157.377 157.615Z" fill="black"/>
<path opacity="0.3" d="M168.015 146.919C167.968 146.919 167.926 146.886 167.916 146.837C167.561 145.054 166.655 143.366 165.365 142.085C165.325 142.045 165.325 141.982 165.364 141.942C165.403 141.902 165.467 141.903 165.507 141.941C166.825 143.251 167.751 144.976 168.114 146.798C168.126 146.853 168.09 146.906 168.035 146.917C168.028 146.918 168.022 146.919 168.015 146.919Z" fill="black"/>
<path opacity="0.3" d="M180.018 157.261C179.98 157.261 179.945 157.24 179.927 157.204C178.664 154.609 176.203 152.202 173.66 151.073C173.609 151.051 173.586 150.991 173.608 150.94C173.631 150.889 173.691 150.866 173.742 150.888C176.326 152.036 178.825 154.481 180.109 157.116C180.133 157.166 180.112 157.227 180.062 157.251C180.048 157.258 180.033 157.261 180.018 157.261Z" fill="black"/>
<path opacity="0.3" d="M176.939 139.307C176.905 139.307 176.873 139.29 176.853 139.26C176.113 138.086 174.992 137.167 173.695 136.673C172.321 136.148 171.165 135.777 169.872 136.147C169.816 136.164 169.762 136.132 169.747 136.078C169.732 136.025 169.763 135.969 169.816 135.953C171.172 135.565 172.357 135.946 173.767 136.484C175.104 136.994 176.261 137.941 177.025 139.152C177.054 139.199 177.04 139.262 176.993 139.292C176.976 139.302 176.958 139.307 176.939 139.307Z" fill="black"/>
<path d="M158.389 137.221C158.389 137.221 160.305 137.45 160.416 136.276C160.527 135.102 154.081 130.535 148.792 134.311C148.792 134.311 150.42 139.549 154.294 140.502C158.168 141.456 158.389 137.221 158.389 137.221Z" fill="#01AB6C"/>
<path opacity="0.3" d="M158.329 137.417C158.299 137.417 158.268 137.403 158.248 137.377C156.313 134.776 151.407 133.822 149.717 134.433C149.665 134.451 149.607 134.425 149.588 134.373C149.569 134.32 149.596 134.262 149.648 134.243C151.363 133.623 156.352 134.489 158.41 137.256C158.444 137.301 158.434 137.364 158.39 137.397C158.372 137.411 158.35 137.417 158.329 137.417Z" fill="black"/>
<path opacity="0.3" d="M147.75 146.857C147.732 146.857 147.714 146.852 147.697 146.842C147.65 146.813 147.635 146.751 147.664 146.703C148.75 144.922 150.864 143.93 152.029 143.497C152.08 143.478 152.139 143.504 152.158 143.557C152.178 143.609 152.151 143.667 152.099 143.687C150.959 144.11 148.89 145.079 147.836 146.808C147.817 146.839 147.784 146.857 147.75 146.857Z" fill="black"/>
<path opacity="0.3" d="M145.892 156.217C145.876 156.217 145.86 156.213 145.846 156.206C145.796 156.18 145.777 156.119 145.803 156.069C147.109 153.565 149.259 151.577 151.858 150.472C151.909 150.452 151.968 150.474 151.99 150.526C152.012 150.577 151.988 150.636 151.937 150.658C149.418 151.729 147.248 153.735 145.982 156.163C145.964 156.197 145.928 156.217 145.892 156.217Z" fill="black"/>
<path opacity="0.3" d="M162.785 133.613C162.77 133.613 162.756 133.61 162.742 133.604C162.691 133.58 162.67 133.52 162.693 133.469C163.727 131.262 165.732 129.503 168.057 128.766C168.109 128.75 168.166 128.778 168.183 128.832C168.2 128.885 168.171 128.941 168.117 128.958C165.846 129.679 163.887 131.397 162.876 133.555C162.859 133.592 162.823 133.613 162.785 133.613Z" fill="black"/>
<path opacity="0.3" d="M153.193 172.813L153.493 175.686H171.245L171.545 172.809L153.193 172.813Z" fill="black"/>
<path d="M101.551 171.476L103.126 183.031L106.892 183.222L108.111 172.082L101.551 171.476Z" fill="#263238"/>
<path d="M110.098 188.396H101.675C101.675 188.396 101.491 188.042 101.701 187.101C101.733 186.954 101.775 186.792 101.829 186.617C101.832 186.608 101.834 186.599 101.837 186.59C101.916 186.33 102.006 186.009 102.102 185.663C102.488 184.253 102.942 182.41 102.942 182.41C102.942 182.41 104.343 179.41 105.983 180.159C107.421 180.816 107.08 182.697 107.08 182.697C107.08 182.697 107.221 183.801 108.312 184.775C108.986 185.376 109.657 185.842 109.979 186.59C110.04 186.73 110.087 186.879 110.121 187.04C110.125 187.06 110.129 187.08 110.132 187.101C110.199 187.461 110.195 187.884 110.098 188.396Z" fill="#263238"/>
<path opacity="0.3" d="M101.701 187.101C101.491 188.042 101.675 188.396 101.675 188.396H110.098C110.195 187.884 110.199 187.461 110.132 187.101H101.701Z" fill="white"/>
<path d="M106.741 183.169C106.267 182.8 105.646 182.848 105.219 183.264C105.105 183.375 104.929 183.2 105.044 183.088C105.576 182.569 106.335 182.54 106.917 182.993C107.043 183.092 106.866 183.266 106.741 183.169Z" fill="#01AB6C"/>
<path d="M106.979 183.956C106.505 183.587 105.883 183.635 105.457 184.05C105.343 184.162 105.167 183.987 105.281 183.875C105.813 183.356 106.573 183.327 107.155 183.78C107.281 183.878 107.104 184.053 106.979 183.956Z" fill="#01AB6C"/>
<path d="M107.218 184.679C106.744 184.31 106.122 184.358 105.696 184.774C105.582 184.885 105.406 184.71 105.521 184.598C106.052 184.079 106.812 184.05 107.394 184.503C107.52 184.602 107.343 184.776 107.218 184.679Z" fill="#01AB6C"/>
<path d="M85.7404 170.753L84.1654 182.308L80.3996 182.498L79.1802 171.359L85.7404 170.753Z" fill="#263238"/>
<path d="M77.1932 187.673H85.6166C85.6166 187.673 85.8004 187.319 85.5904 186.377C85.5584 186.231 85.5166 186.069 85.4622 185.893C85.4592 185.885 85.4574 185.876 85.4544 185.867C85.3757 185.607 85.2853 185.286 85.1891 184.94C84.8033 183.53 84.3494 181.687 84.3494 181.687C84.3494 181.687 82.9479 178.687 81.3083 179.436C79.8698 180.093 80.211 181.974 80.211 181.974C80.211 181.974 80.0701 183.078 78.9795 184.052C78.3051 184.653 77.6345 185.119 77.3118 185.867C77.2515 186.007 77.2039 186.156 77.1699 186.317C77.1661 186.337 77.162 186.357 77.1592 186.377C77.0921 186.738 77.096 187.161 77.1932 187.673Z" fill="#263238"/>
<path opacity="0.3" d="M85.5904 186.377C85.8004 187.319 85.6166 187.673 85.6166 187.673H77.1932C77.096 187.161 77.0921 186.738 77.1592 186.377H85.5904Z" fill="white"/>
<path d="M80.5502 182.446C81.0239 182.077 81.6455 182.125 82.0717 182.54C82.1863 182.652 82.3622 182.476 82.2475 182.364C81.7156 181.846 80.9562 181.817 80.3744 182.27C80.2483 182.368 80.4254 182.543 80.5502 182.446Z" fill="#01AB6C"/>
<path d="M80.3123 183.233C80.7862 182.863 81.4078 182.911 81.8339 183.327C81.9485 183.439 82.1244 183.263 82.0097 183.151C81.4778 182.632 80.7185 182.603 80.1366 183.057C80.0105 183.155 80.1876 183.33 80.3123 183.233Z" fill="#01AB6C"/>
<path d="M80.0736 183.956C80.5473 183.587 81.169 183.634 81.5952 184.05C81.7097 184.162 81.8857 183.986 81.7709 183.874C81.239 183.356 80.4796 183.327 79.8979 183.78C79.7717 183.878 79.9488 184.053 80.0736 183.956Z" fill="#01AB6C"/>
<path d="M109.799 95.6183L92.2818 96.6623L81.5651 94.8115C81.5651 94.8115 80.8375 107.05 79.922 136.131C79.7222 142.473 78.0464 180.171 78.0464 180.171L87.4668 181.131C87.4668 181.131 92.1458 142.031 92.8609 138.617C93.2911 136.563 94.8969 121.144 96.1734 113.773C96.7917 119.92 97.3022 134.756 97.7695 138.747C97.7695 138.747 100.108 170.834 100.439 179.936L109.22 179.5C110.304 167.004 110.671 121.486 110.671 121.486L110.67 121.486C111.278 111.953 109.799 95.6183 109.799 95.6183Z" fill="#263238"/>
<path opacity="0.4" d="M109.799 95.6183L92.2818 96.6623L81.5651 94.8115C81.5651 94.8115 80.8375 107.05 79.922 136.131C79.7222 142.473 78.0464 180.171 78.0464 180.171L87.4668 181.131C87.4668 181.131 92.1458 142.031 92.8609 138.617C93.2911 136.563 94.8969 121.144 96.1734 113.773C96.7917 119.92 97.3022 134.756 97.7695 138.747C97.7695 138.747 100.108 170.834 100.439 179.936L109.22 179.5C110.304 167.004 110.671 121.486 110.671 121.486L110.67 121.486C111.278 111.953 109.799 95.6183 109.799 95.6183Z" fill="white"/>
<path d="M88.5749 54.4343C90.202 54.3332 94.3834 53.4771 100.394 54.1171C103.523 54.4502 106.078 54.3771 109.288 55.8512L110.875 94.3771C110.899 97.5608 110.387 98.0064 110.387 98.0064C110.387 98.0064 110.479 99.8141 110.486 99.8701C99.9224 103.953 87.756 103.686 81.0271 99.4931C81.1857 99.5195 81.0271 98.1873 81.0271 98.1873C81.0271 98.1873 80.0127 97.1592 80.36 93.8873C81.5188 82.9707 84.0584 65.3752 85.8599 55.5575C85.9078 55.3152 88.3283 54.4496 88.5749 54.4343Z" fill="#01AB6C"/>
<path opacity="0.3" d="M88.5749 54.4343C90.202 54.3332 94.3834 53.4771 100.394 54.1171C103.523 54.4502 106.078 54.3771 109.288 55.8512L110.875 94.3771C110.899 97.5608 110.387 98.0064 110.387 98.0064C110.387 98.0064 110.479 99.8141 110.486 99.8701C99.9224 103.953 87.756 103.686 81.0271 99.4931C81.1857 99.5195 81.0271 98.1873 81.0271 98.1873C81.0271 98.1873 80.0127 97.1592 80.36 93.8873C81.5188 82.9707 84.0584 65.3752 85.8599 55.5575C85.9078 55.3152 88.3283 54.4496 88.5749 54.4343Z" fill="black"/>
<path opacity="0.3" d="M108.133 57.9597C107.716 57.9597 106.02 61.8938 104.937 66.6645C103.853 71.4353 101.063 80.4137 101.063 80.4137L84.4194 83.0395L83.4636 90.9739C83.4636 90.9739 105.676 93.0083 108.26 90.2254C110.843 87.4425 110.139 86.907 111.076 81.9603C111.912 77.549 112.356 66.4706 112.224 63.5299C112.037 59.3344 108.708 57.971 108.133 57.9597Z" fill="black"/>
<path d="M76.9538 83.0393C76.9538 83.0393 74.8185 86.2697 76.242 87.091C77.6656 87.9122 83.0022 89.3358 83.0022 89.3358V83.2869L76.9538 83.0393Z" fill="#EBB373"/>
<path d="M109.147 55.7878C108.73 55.7878 106.422 60.0694 105.339 64.8401C104.255 69.6108 102.005 80.981 102.005 80.981L83.0022 83.2869V90.1249C83.0022 90.1249 105.922 91.7152 108.506 88.9322C111.09 86.1493 111.153 84.7351 112.09 79.7884C112.926 75.377 113.369 64.2987 113.238 61.358C113.05 57.1625 109.722 55.7991 109.147 55.7878Z" fill="#01AB6C"/>
<path opacity="0.3" d="M109.147 55.7878C108.73 55.7878 106.422 60.0694 105.339 64.8401C104.255 69.6108 102.005 80.981 102.005 80.981L83.0022 83.2869V90.1249C83.0022 90.1249 105.922 91.7152 108.506 88.9322C111.09 86.1493 111.153 84.7351 112.09 79.7884C112.926 75.377 113.369 64.2987 113.238 61.358C113.05 57.1625 109.722 55.7991 109.147 55.7878Z" fill="black"/>
<path opacity="0.3" d="M105.426 61.1025C106.064 58.856 108.148 57.1342 110.478 56.9442C110.671 56.9285 110.673 56.6254 110.478 56.6412C108.012 56.8423 105.811 58.6387 105.134 61.0219C105.08 61.2098 105.373 61.29 105.426 61.1025Z" fill="black"/>
<path d="M89.8602 53.2928C89.8602 53.2928 90.163 54.2171 89.9452 54.5158C89.7274 54.8145 89.4613 54.8837 89.4613 54.8837C89.4613 54.8837 89.9272 55.5762 89.7426 56.0148C89.7426 56.0148 90.4416 56.7996 90.024 57.3305C89.6065 57.8615 89.1467 57.5614 89.0016 57.3305C88.8564 57.0997 88.2273 58.7301 87.4288 58.3766C86.6303 58.023 87.4046 57.0766 87.6466 56.7304L86.8723 56.8458C86.8723 56.8458 85.7351 59.3849 84.8882 59.5004C84.0414 59.6158 81.7227 59.3764 81.5149 58.3766C81.5149 58.3766 85.1346 51.758 85.3859 51.6142C85.5709 51.5083 87.7158 51.0389 88.8361 50.7982C89.2529 50.7087 89.6792 50.8879 89.8947 51.2399C90.2517 51.8229 90.6821 52.6655 90.3629 52.9091L89.8602 53.2928Z" fill="#EBB373"/>
<path opacity="0.3" d="M81.2431 58.9275C81.0469 59.2082 75.1496 77.462 76.1305 80.8308C77.1114 84.1997 78.5828 85.4162 81.035 84.9483C83.4873 84.4804 84.7625 83.7318 85.0568 80.6437C85.351 77.5556 87.4327 60.4196 85.9949 59.527C85.3046 59.0985 81.2431 58.9275 81.2431 58.9275Z" fill="black"/>
<path d="M80.2876 58.2109C80.0914 58.4917 74.194 76.7455 75.1749 80.1143C76.1558 83.4831 77.6272 84.6996 80.0795 84.2317C82.5317 83.7639 83.8069 83.0152 84.1012 79.9271C84.3955 76.8391 86.8946 59.6646 86.1425 59.3573C85.3904 59.0499 80.2876 58.2109 80.2876 58.2109Z" fill="#01AB6C"/>
<path opacity="0.3" d="M80.2876 58.2109C80.0914 58.4917 74.194 76.7455 75.1749 80.1143C76.1558 83.4831 77.6272 84.6996 80.0795 84.2317C82.5317 83.7639 83.8069 83.0152 84.1012 79.9271C84.3955 76.8391 86.8946 59.6646 86.1425 59.3573C85.3904 59.0499 80.2876 58.2109 80.2876 58.2109Z" fill="black"/>
<path d="M100.577 55.4408C100.577 55.4408 97.8334 57.7698 97.1174 57.9471C96.1548 58.1856 93.1716 54.9678 93.1716 54.9678C94.3557 53.4302 93.7818 52.2493 93.5166 50.4799L101.063 43.1915C101.063 43.1915 100.277 43.1732 100.273 43.1915C100.08 43.8251 100.035 47.6646 100.173 52.521L100.577 55.4408Z" fill="#EBB373"/>
<g opacity="0.2">
<path d="M97.3489 50.1212C96.7154 51.3577 95.3163 52.3142 93.9102 52.697C93.8993 52.566 93.8483 52.378 93.8318 52.2491C93.8067 52.0462 93.7296 51.7456 93.689 51.5358C93.637 51.2787 93.5725 51.0015 93.4936 50.7417C93.4553 50.6404 93.4172 50.6659 93.379 50.5646L93.3003 50.3562L97.2191 47.8345C97.6296 48.0012 97.8582 49.1181 97.3489 50.1212Z" fill="black"/>
</g>
<path d="M100.522 38.1688C100.401 33.3163 95.3516 30.0801 90.8603 32.3754C86.3017 34.7052 86.2629 41.9273 87.6749 46.1743C89.2435 50.893 95.3929 52.5879 98.7375 48.5438C100.961 45.8553 100.643 43.0214 100.522 38.1688Z" fill="#EBB373"/>
<path d="M93.7532 41.1338C93.8305 41.6236 93.6327 42.059 93.3116 42.1065C92.9905 42.154 92.6675 41.7953 92.5902 41.3055C92.5129 40.8157 92.7107 40.3802 93.0318 40.3328C93.3529 40.2854 93.6759 40.644 93.7532 41.1338Z" fill="#263238"/>
<path d="M88.7724 41.6355C88.8498 42.1253 88.6521 42.5608 88.331 42.6082C88.0099 42.6556 87.6869 42.2971 87.6095 41.8072C87.5322 41.3175 87.7299 40.882 88.051 40.8345C88.3722 40.7872 88.6952 41.1457 88.7724 41.6355Z" fill="#263238"/>
<path d="M90.6369 40.7712C90.6369 40.7712 89.4703 43.4494 89.1296 44.5188C89.9085 45.0271 91.0381 44.5579 91.0381 44.5579L90.6369 40.7712Z" fill="#C15854"/>
<path d="M94.268 38.5613C94.2046 38.6114 94.1163 38.6272 94.0351 38.5945C93.0926 38.2167 92.4236 38.644 92.3543 38.6903C92.2489 38.7631 92.1035 38.7373 92.0297 38.6329C91.9561 38.5282 91.9821 38.3842 92.0868 38.3114C92.1239 38.2856 93.0122 37.6866 94.2091 38.1668C94.3286 38.2146 94.3865 38.3493 94.3385 38.4674C94.323 38.5058 94.2984 38.5374 94.268 38.5613Z" fill="#263238"/>
<path d="M87.2988 40.4903C87.2594 40.4705 87.2252 40.4391 87.2017 40.3977C87.1379 40.286 87.1756 40.1435 87.2862 40.0797C88.3948 39.4398 89.3444 39.9263 89.3898 39.9426C89.5034 40.0016 89.5489 40.142 89.4911 40.2563C89.4336 40.3704 89.2956 40.4155 89.1822 40.3581C89.1435 40.3363 88.4071 39.9709 87.5173 40.4846C87.4477 40.5248 87.3657 40.5242 87.2988 40.4903Z" fill="#263238"/>
<path d="M99.0896 41.1024C99.0896 41.1024 98.3593 32.8844 95.7915 32.5733C93.2238 32.2621 92.8312 34.6536 91.1496 34.7174C89.468 34.7812 89.4925 33.5374 89.4925 33.5374C88.5134 34.2368 87.8539 36.2399 87.1707 37.7865C87.1707 37.7865 87.5184 33.2727 89.3024 31.8959C92.7743 29.2163 97.6503 29.7081 99.8572 31.7478C102.025 33.7513 102.05 38.0954 102.05 38.0954C101.831 41.4306 101.585 43.3027 100.291 45.4424L99.0896 41.1024Z" fill="#263238"/>
<path d="M102.639 41.1903C102.444 42.5305 101.645 43.6501 100.737 44.2942C99.3729 45.2633 98.5655 43.7314 98.4592 42.146C98.3637 40.7191 98.504 38.9404 100.107 38.6009C101.687 38.2665 102.862 39.6583 102.639 41.1903Z" fill="#EBB373"/>
<path opacity="0.2" d="M99.2582 41.9418C99.2044 41.9418 99.1596 41.8994 99.1572 41.8451C99.1375 41.392 99.2373 40.9395 99.4458 40.5367C99.5865 40.265 99.8392 39.9054 100.245 39.735C100.642 39.5683 101.101 39.6476 101.363 39.9285C101.401 39.9693 101.399 40.0332 101.358 40.0713C101.317 40.109 101.253 40.107 101.215 40.0662C101.014 39.8496 100.639 39.7886 100.323 39.9212C99.9733 40.0683 99.7504 40.3875 99.6253 40.6294C99.433 41.001 99.3409 41.4184 99.3592 41.8364C99.3616 41.8921 99.3184 41.9392 99.2626 41.9418L99.2582 41.9418Z" fill="black"/>
<path d="M97.8766 34.3585C97.509 33.2407 96.7709 32.1895 95.6922 31.7195C95.1823 31.4974 94.6233 31.4145 94.0692 31.368C92.5948 31.2443 93.5717 30.7499 92.0971 30.8693L90.7203 31.2128C89.6732 31.6296 87.7423 32.7315 86.8513 33.4216C85.4368 34.5171 83.817 35.3478 82.1002 35.8518C81.8095 35.9371 81.4638 36.0676 81.4116 36.3659C81.3586 36.6678 81.6496 36.9118 81.9182 37.0596C83.643 38.0092 85.8863 37.9311 87.5409 36.8637C87.1663 37.9621 85.0215 38.4974 85.8126 38.5793C88.2338 39.106 90.9134 38.1853 92.4996 36.2818C92.4975 36.6027 92.4975 36.9342 92.6245 37.2289C92.7514 37.5236 93.0412 37.7733 93.3611 37.7489C93.6196 37.7291 93.8337 37.5419 93.9989 37.3422C94.5807 36.639 94.7927 35.71 94.9871 34.8183C96.0227 35.9117 97.5705 40.0098 98.7619 40.931C100.804 38.2058 98.2442 35.4762 97.8766 34.3585Z" fill="#263238"/>
<path d="M91.9203 46.1995C92.4291 45.9112 93.0706 45.8744 93.6054 46.1167C93.6798 46.1504 93.7684 46.138 93.8126 46.0623C93.8506 45.9973 93.8332 45.889 93.7583 45.855C93.1219 45.5667 92.3772 45.5923 91.7673 45.9379C91.5977 46.034 91.7502 46.2958 91.9203 46.1995Z" fill="#263238"/>
<path d="M97.9051 30.591C97.7893 30.0873 97.5864 29.5976 97.3139 29.1586C97.1885 28.9567 96.9021 28.8601 96.692 28.9955C96.4896 29.126 96.3948 29.4013 96.529 29.6174C96.6494 29.8113 96.7543 30.0137 96.8435 30.2238L96.7977 30.1152C96.8949 30.3476 96.9721 30.5872 97.0285 30.8327C97.0818 31.0646 97.361 31.2234 97.5876 31.1501C97.8302 31.0716 97.9622 30.8395 97.9051 30.591Z" fill="#263238"/>
<path d="M98.367 31.636C98.3674 31.5891 98.3687 31.5423 98.3715 31.4955C98.3731 31.4693 98.3671 31.3702 98.3842 31.3555C98.3758 31.3628 98.3686 31.4544 98.3809 31.3836C98.3845 31.3631 98.3877 31.3425 98.3915 31.3221C98.4 31.276 98.4099 31.2302 98.421 31.1847C98.4432 31.0937 98.4705 31.0039 98.5026 30.9158C98.5098 30.8963 98.5171 30.8768 98.5248 30.8574C98.5506 30.7916 98.5486 30.8334 98.521 30.865C98.5473 30.8349 98.5633 30.7735 98.5814 30.738C98.6215 30.659 98.6657 30.5822 98.7137 30.5078C98.7391 30.4684 98.7657 30.4297 98.7932 30.3918C98.8006 30.3816 98.8441 30.3239 98.8046 30.3754C98.7618 30.4313 98.8182 30.3595 98.8276 30.3483C98.8844 30.2804 98.9446 30.2155 99.0082 30.154C99.0419 30.1214 99.0765 30.0898 99.112 30.0593C99.1317 30.0423 99.1523 30.0263 99.172 30.0094C99.2182 29.9696 99.0831 30.0758 99.1668 30.0138C99.2652 29.9408 99.3419 29.8648 99.3757 29.7422C99.4056 29.6334 99.3921 29.4885 99.3298 29.3919C99.2084 29.2035 98.9122 29.0774 98.708 29.2289C97.9429 29.7964 97.4662 30.676 97.458 31.636C97.456 31.8738 97.6685 32.1014 97.9125 32.0905C98.1605 32.0794 98.3648 31.8908 98.367 31.636Z" fill="#263238"/>
<path d="M133.8 64.0203C133.8 64.0203 136.294 64.2398 137.949 67.097C139.605 69.9541 141.228 72.2917 141.228 72.2917L135.873 75.8631L133.8 64.0203Z" fill="#263238"/>
<path opacity="0.7" d="M133.8 64.0203C133.8 64.0203 136.294 64.2398 137.949 67.097C139.605 69.9541 141.228 72.2917 141.228 72.2917L135.873 75.8631L133.8 64.0203Z" fill="white"/>
<path d="M136.913 88.6808C136.316 88.281 135.553 88.2507 134.835 88.2435C129.459 88.1895 124.079 88.6876 118.805 89.7275L117.88 90.1837C117.149 89.7593 116.173 90.0456 115.558 90.6254C114.944 91.2051 114.609 92.0134 114.293 92.7967C111.559 99.5688 108.957 106.413 107.109 113.478C106.681 115.113 106.314 116.937 107.118 118.424C108.057 120.159 110.213 120.769 112.155 121.115C118.5 122.243 124.979 122.312 131.422 122.326C132.989 122.329 134.663 122.297 135.953 121.41C137.76 120.167 138.189 117.721 138.399 115.538C139.169 107.563 139.096 99.505 138.154 91.5482C138.028 90.479 137.808 89.2797 136.913 88.6808Z" fill="#263238"/>
<path d="M130.83 183.451L135.287 183.888L138.582 172.602L131.801 171.864L130.83 183.451Z" fill="#B97964"/>
<path d="M135.933 181.919H134.342C133.982 181.919 133.648 182.101 133.436 182.392C132.518 183.645 131.828 183.171 130.83 181.993C130.196 181.919 130.025 182.647 129.973 182.843L128.783 187.171C128.68 187.532 128.889 187.909 129.25 188.012C129.315 188.03 129.381 188.039 129.448 188.038H142.057C144.062 188.038 144.477 186.017 143.651 185.83C139.937 185.01 137.307 183.916 136.159 182.836C135.946 182.647 136.164 182.505 135.933 181.919Z" fill="#263238"/>
<path d="M139.386 183.15C139.554 183.029 139.654 182.836 139.656 182.63C139.67 182.52 139.62 182.411 139.527 182.35C139.028 181.996 137.038 182.926 136.815 183.035C136.79 183.044 136.77 183.064 136.761 183.089C136.745 183.135 136.769 183.185 136.815 183.202C137.304 183.317 137.803 183.382 138.306 183.394C138.683 183.43 139.061 183.344 139.386 183.15ZM139.402 182.5C139.442 182.525 139.463 182.573 139.454 182.62C139.445 182.769 139.374 182.907 139.256 182.999C138.804 183.337 137.713 183.191 137.126 183.082C137.952 182.719 139.127 182.308 139.402 182.5Z" fill="#01AB6C"/>
<path d="M136.882 183.222C137.48 182.973 138.732 181.991 138.664 181.472C138.654 181.363 138.576 181.233 138.306 181.196C137.215 181.072 136.747 183.03 136.747 183.113C136.736 183.147 136.747 183.184 136.773 183.207C136.794 183.213 136.815 183.213 136.836 183.207L136.882 183.222ZM138.269 181.357C138.472 181.378 138.472 181.451 138.472 181.477C138.529 181.794 137.62 182.609 136.971 182.952C137.106 182.495 137.506 181.352 138.197 181.352L138.269 181.357Z" fill="#01AB6C"/>
<path d="M135.686 184.119C135.668 184.119 135.649 184.114 135.633 184.104C135.585 184.074 135.571 184.011 135.601 183.964C135.912 183.469 136.444 183.126 137.024 183.047C137.083 183.044 137.13 183.079 137.138 183.134C137.145 183.189 137.107 183.24 137.051 183.248C136.53 183.319 136.052 183.627 135.772 184.072C135.753 184.102 135.72 184.119 135.686 184.119Z" fill="#01AB6C"/>
<path d="M136.675 184.863C136.657 184.863 136.638 184.858 136.622 184.848C136.574 184.818 136.56 184.755 136.59 184.708C136.901 184.214 137.433 183.871 138.013 183.792C138.073 183.788 138.119 183.823 138.127 183.878C138.134 183.933 138.096 183.984 138.04 183.992C137.519 184.063 137.041 184.371 136.761 184.816C136.742 184.847 136.709 184.863 136.675 184.863Z" fill="#01AB6C"/>
<path d="M137.906 185.489C137.887 185.489 137.869 185.484 137.852 185.474C137.805 185.444 137.791 185.382 137.82 185.335C138.132 184.839 138.664 184.497 139.243 184.418C139.304 184.414 139.35 184.449 139.357 184.504C139.365 184.56 139.326 184.611 139.271 184.618C138.75 184.689 138.272 184.997 137.992 185.442C137.972 185.473 137.94 185.489 137.906 185.489Z" fill="#01AB6C"/>
<path opacity="0.3" d="M136.841 178.567L136.437 179.951L131.191 179.145L131.286 178.01L136.841 178.567Z" fill="black"/>
<path d="M115.384 183.809L119.841 184.245L123.136 172.96L116.355 172.222L115.384 183.809Z" fill="#B97964"/>
<path d="M120.487 182.277H118.896C118.535 182.277 118.202 182.459 117.99 182.75C117.072 184.003 116.382 183.529 115.384 182.351C114.749 182.277 114.579 183.005 114.527 183.201L113.337 187.528C113.234 187.89 113.443 188.266 113.804 188.37C113.869 188.388 113.935 188.397 114.002 188.396H126.611C128.616 188.396 129.031 186.375 128.205 186.188C124.491 185.367 121.861 184.274 120.713 183.194C120.5 183.004 120.718 182.863 120.487 182.277Z" fill="#263238"/>
<path d="M123.94 183.507C124.108 183.387 124.208 183.194 124.21 182.988C124.224 182.877 124.174 182.768 124.08 182.707C123.582 182.354 121.592 183.284 121.369 183.393C121.344 183.402 121.324 183.422 121.315 183.446C121.299 183.492 121.323 183.543 121.369 183.559C121.858 183.675 122.357 183.739 122.86 183.752C123.237 183.787 123.615 183.702 123.94 183.507ZM123.956 182.858C123.996 182.883 124.017 182.931 124.008 182.977C123.999 183.126 123.928 183.264 123.81 183.357C123.358 183.694 122.267 183.549 121.68 183.44C122.506 183.076 123.68 182.666 123.956 182.858Z" fill="#01AB6C"/>
<path d="M121.436 183.58C122.034 183.331 123.286 182.349 123.218 181.829C123.208 181.72 123.13 181.59 122.86 181.554C121.769 181.429 121.301 183.388 121.301 183.471C121.29 183.505 121.301 183.541 121.327 183.565C121.348 183.571 121.369 183.571 121.389 183.565L121.436 183.58ZM122.823 181.715C123.026 181.736 123.026 181.809 123.026 181.835C123.083 182.151 122.174 182.967 121.525 183.31C121.66 182.853 122.06 181.71 122.751 181.71L122.823 181.715Z" fill="#01AB6C"/>
<path d="M120.24 184.476C120.222 184.476 120.203 184.471 120.187 184.461C120.139 184.431 120.125 184.369 120.155 184.322C120.467 183.827 120.998 183.484 121.578 183.405C121.637 183.4 121.684 183.436 121.692 183.491C121.699 183.546 121.661 183.597 121.606 183.605C121.084 183.676 120.606 183.984 120.326 184.429C120.307 184.46 120.274 184.476 120.24 184.476Z" fill="#01AB6C"/>
<path d="M121.229 185.221C121.211 185.221 121.192 185.216 121.176 185.205C121.128 185.175 121.114 185.113 121.144 185.066C121.456 184.571 121.988 184.228 122.567 184.149C122.627 184.144 122.673 184.181 122.681 184.236C122.688 184.291 122.65 184.342 122.595 184.35C122.074 184.42 121.595 184.728 121.315 185.173C121.296 185.204 121.263 185.221 121.229 185.221Z" fill="#01AB6C"/>
<path d="M122.46 185.847C122.441 185.847 122.423 185.842 122.406 185.832C122.359 185.802 122.345 185.739 122.374 185.692C122.686 185.197 123.218 184.854 123.797 184.775C123.858 184.77 123.904 184.807 123.911 184.861C123.919 184.917 123.88 184.968 123.825 184.975C123.304 185.047 122.825 185.355 122.546 185.8C122.526 185.83 122.493 185.847 122.46 185.847Z" fill="#01AB6C"/>
<path opacity="0.3" d="M115.745 179.503L115.84 178.368L121.395 178.924L120.991 180.308" fill="black"/>
<path opacity="0.2" d="M139.32 97.7891C139.32 97.7891 136.047 101.245 129.632 101.305C123.217 101.364 116.02 97.627 116.02 97.627L116.826 96.2476L135.299 98.2602L138.834 96.2476L139.32 97.7891Z" fill="black"/>
<path d="M139.882 99.7715C139.882 99.7715 143.78 115.742 145.541 129.952C146.078 134.283 146.18 140.075 145.232 144.339L138.111 179.739L129.151 178.841C130.559 163.574 132.521 144.744 133.083 136.733L122.783 104.678L139.882 99.7715Z" fill="#01AB6C"/>
<path opacity="0.2" d="M128.308 121.908C128.278 122.056 132.745 103.797 132.745 103.797C132.745 103.797 133.945 118.7 129.456 125.813L128.308 121.908Z" fill="black"/>
<path d="M115.24 141.193C115.324 140.291 115.409 138.47 115.49 136.073C115.478 136.072 115.464 136.071 115.452 136.07C115.328 132.931 113.947 118.477 113.706 109.173C113.682 103.23 114.649 99.0767 115.895 96.9402C115.959 96.8305 116.018 96.7308 116.072 96.6415C116.28 96.2964 116.409 96.1046 116.409 96.1046C116.704 96.138 116.997 96.1668 117.288 96.191C117.397 96.2002 117.506 96.2088 117.613 96.2169C128.525 97.0229 136.53 92.7192 136.53 92.7192C137.829 95.0027 138.458 94.5294 139.882 99.7715C138.934 101.138 136.023 109.16 130.572 110.952L129.937 118.375C129.694 122.958 129.201 127.486 128.811 131.557L128.431 136.009C128.411 136.3 128.391 136.589 128.374 136.872C128.22 139.423 122.01 181.015 122.01 181.015L113.706 180.894C113.706 180.894 114.098 153.406 115.24 141.193Z" fill="#01AB6C"/>
<path opacity="0.2" d="M138.574 177.436L138.111 179.739L129.151 178.841L129.383 176.341L138.574 177.436Z" fill="black"/>
<path opacity="0.2" d="M122.01 181.015L122.36 178.666L113.706 178.562V180.894L122.01 181.015Z" fill="black"/>
<path d="M114.226 75.8978L111.44 66.3962C113.203 63.7654 121.925 61.7439 121.925 61.7439L127.671 62.0581C127.671 62.0581 129.879 62.5508 131.77 63.1675C134.295 63.9906 135.66 64.6528 136.261 66.0534C136.261 66.0534 137.315 69.1568 136.681 75.5519C136.507 77.3104 136.109 86.591 136.6 89.6112L140.17 96.5954C129.671 104.772 116.229 96.599 116.229 96.599C116.701 95.1551 117.738 91.9573 117.951 90.5463C117.797 88.7462 117.292 87.5641 116.53 84.4121C116.383 83.8036 114.482 76.4889 114.226 75.8978Z" fill="#263238"/>
<path opacity="0.7" d="M114.226 75.8978L111.44 66.3962C113.203 63.7654 121.925 61.7439 121.925 61.7439L127.671 62.0581C127.671 62.0581 129.879 62.5508 131.77 63.1675C134.295 63.9906 135.66 64.6528 136.261 66.0534C136.261 66.0534 137.315 69.1568 136.681 75.5519C136.507 77.3104 136.109 86.591 136.6 89.6112L140.17 96.5954C129.671 104.772 116.229 96.599 116.229 96.599C116.701 95.1551 117.738 91.9573 117.951 90.5463C117.797 88.7462 117.292 87.5641 116.53 84.4121C116.383 83.8036 114.482 76.4889 114.226 75.8978Z" fill="white"/>
<path opacity="0.2" d="M115.317 79.3022H115.829L117.372 74.7461L116.691 85.0648L115.269 79.6637L115.317 79.3022Z" fill="black"/>
<path d="M126.342 92.2853C123.742 90.5002 120.507 89.661 117.366 89.957L115.829 93.9936C120.129 97.8698 125.386 98.3898 131.172 98.2094C131.987 95.2154 128.942 94.0704 126.342 92.2853Z" fill="#263238"/>
<path d="M138.439 89.6864C138.015 88.8926 137.149 88.2611 136.26 88.3988C135.598 88.5014 135.068 88.9906 134.611 89.4806C132.794 91.4261 131.394 93.7597 130.534 96.2789L130.872 98.2095C131.471 97.9639 132.069 97.7182 132.667 97.4726C134.363 96.7763 136.112 96.0445 137.379 94.7198C138.646 93.3949 139.304 91.3031 138.439 89.6864Z" fill="#263238"/>
<path d="M133.736 96.6058C133.736 97.9476 132.648 99.0353 131.307 99.0353C129.965 99.0353 128.877 97.9476 128.877 96.6058C128.877 95.264 129.965 94.1763 131.307 94.1763C132.648 94.1763 133.736 95.264 133.736 96.6058Z" fill="#263238"/>
<path d="M132.361 106.149C132.16 103.264 131.959 100.38 131.757 97.4951L130.628 98.2289C127.09 103.398 125.54 109.891 126.361 116.101C127.87 116.361 129.406 116.46 130.935 116.395C130.504 115.485 130.073 114.574 129.642 113.663C130.976 113.143 131.856 111.81 132.207 110.422C132.558 109.034 132.46 107.577 132.361 106.149Z" fill="#263238"/>
<path d="M137.27 109.194C137.915 108.314 138.035 107.153 137.966 106.064C137.748 102.602 135.745 99.3007 132.775 97.5084L132.292 97.1292C134.017 102.333 133.682 107.965 133.327 113.436C134.486 113.201 135.646 112.966 136.805 112.731C136.448 112.014 136.083 111.19 136.365 110.44C136.547 109.957 136.965 109.61 137.27 109.194Z" fill="#263238"/>
<path d="M128.156 45.1241C128.156 45.1241 129.109 55.6826 129.635 58.716C131.292 60.699 137.847 59.2666 135.282 52.2865C133.928 48.604 133.812 43.9474 131.255 42.0507C127.663 39.3864 128.156 45.1241 128.156 45.1241Z" fill="#263238"/>
<path d="M127.271 62.5773C126.67 61.9769 126.399 61.3531 126.512 60.4794C126.592 59.8078 126.808 59.1097 127.067 58.4299L126.17 57.4551L121.505 53.0771C121.728 56.1055 122.268 60.962 119.958 62.694L127.271 68.6047V62.5773Z" fill="#B97964"/>
<path opacity="0.2" d="M126.488 60.6815C125.223 59.9918 123.819 58.7669 123.929 57.305C123.98 56.6894 124.091 56.1037 124.224 55.7261L126.87 58.9784C126.683 59.5223 126.609 59.8641 126.488 60.6815Z" fill="black"/>
<path d="M120.282 48.2515C120.873 52.8594 121.026 54.817 123.5 57.1547C127.22 60.671 132.697 59.2442 133.481 54.627C134.187 50.4713 133.102 43.634 128.492 41.8555C123.951 40.1036 119.691 43.6435 120.282 48.2515Z" fill="#B97964"/>
<path opacity="0.2" d="M130.389 58.6699C126.741 57.0083 125.311 57.4593 125.578 58.3799C125.7 58.7999 127.345 59.0605 127.345 59.0605C127.345 59.0605 127.714 59.0951 127.888 59.1077C128.045 59.1192 128.146 59.2068 128.138 59.2145C128.013 59.3451 130.266 58.8315 130.389 58.6699Z" fill="black"/>
<path opacity="0.3" d="M132.667 56.7589C132.667 56.7589 132.491 56.5339 132.195 56.6386C131.898 56.7434 131.199 57.2959 131.195 58.2374C131.195 58.2374 131.57 58.0003 131.99 57.6048C132.257 57.353 132.667 56.7589 132.667 56.7589Z" fill="black"/>
<path d="M126.552 49.8758C126.556 50.3095 126.805 50.6779 127.109 50.6985C127.412 50.7192 127.655 50.3844 127.652 49.9507C127.648 49.5169 127.399 49.1485 127.095 49.1279C126.792 49.1071 126.549 49.442 126.552 49.8758Z" fill="#263238"/>
<path d="M131.256 49.4716C131.236 49.8914 131.463 50.2631 131.764 50.3017C132.065 50.3403 132.325 50.0313 132.346 49.6113C132.366 49.1915 132.139 48.8197 131.838 48.7811C131.537 48.7425 131.277 49.0516 131.256 49.4716Z" fill="#263238"/>
<path d="M125.86 49.1631C125.919 49.167 125.978 49.147 126.022 49.1028C126.703 48.4107 127.515 48.6052 127.525 48.6075C127.645 48.6366 127.762 48.5638 127.784 48.4413C127.805 48.319 127.724 48.1952 127.602 48.1644C127.559 48.154 126.54 47.9089 125.694 48.7681C125.61 48.8537 125.615 48.9982 125.705 49.0907C125.749 49.1351 125.804 49.1596 125.86 49.1631Z" fill="#263238"/>
<path d="M133.14 46.9197C133.193 46.902 133.239 46.8654 133.264 46.8131C133.317 46.7052 133.265 46.5722 133.149 46.516C131.982 45.953 131.073 46.4412 131.035 46.4628C130.927 46.5224 130.895 46.6565 130.964 46.7625C131.032 46.8683 131.175 46.9058 131.283 46.8468C131.318 46.8272 132.03 46.4588 132.957 46.9066C133.017 46.9355 133.083 46.9384 133.14 46.9197Z" fill="#263238"/>
<path d="M123.923 40.718C122.336 40.9791 121.336 41.2067 120.086 41.9893C118.835 42.7719 117.497 44.6773 116.768 46.1304C115.728 48.2011 115.652 50.7459 115.604 53.1653C115.573 54.7564 115.578 56.4874 116.387 57.7455C116.931 58.5906 117.775 59.0956 118.641 59.328C119.507 59.5603 120.404 59.5454 121.291 59.5193C122.023 59.4978 122.914 59.3431 123.185 58.5237C123.611 57.2352 122.003 56.0395 122.219 54.6769" fill="#263238"/>
<path d="M119.02 52.0703C119.6 52.9986 120.509 53.5619 121.33 53.7364C122.565 53.9989 123.126 52.0085 122.664 50.7975C122.248 49.7075 121.019 49.0205 119.836 49.3044C118.672 49.5841 118.356 51.0088 119.02 52.0703Z" fill="#B97964"/>
<path d="M129.635 49.1797C129.635 49.1797 130.421 50.884 131.276 51.9333C131.426 52.1167 131.348 52.3951 131.129 52.4847C130.565 52.7156 129.89 52.5497 129.89 52.5497L129.635 49.1797Z" fill="#A24E3F"/>
<path d="M127.003 49.1128L128.076 48.9121C128.076 48.9121 127.458 49.6758 127.003 49.1128Z" fill="#263238"/>
<path d="M131.728 48.7803L132.811 48.6438C132.811 48.6438 132.149 49.3694 131.728 48.7803Z" fill="#263238"/>
<path d="M119.034 45.7263C118.406 46.6324 119.655 49.2647 119.655 49.2647C119.655 49.2647 121.873 48.6052 121.994 51.9457C122.812 52.0811 123.73 48.9621 123.596 45.8269C123.432 44.0554 120.141 44.1267 119.034 45.7263Z" fill="#263238"/>
<path opacity="0.2" d="M121.053 52.5761C121.045 52.5761 121.038 52.5753 121.03 52.5733C120.286 52.3966 119.946 52.0052 119.791 51.7077C119.61 51.3598 119.625 51.0366 119.699 50.8502C119.848 50.475 120.309 50.19 120.756 50.3608C120.808 50.3807 120.834 50.4391 120.814 50.4912C120.794 50.5433 120.734 50.5683 120.684 50.5494C120.353 50.4233 119.998 50.6453 119.886 50.925C119.831 51.0631 119.82 51.3266 119.97 51.6144C120.106 51.8744 120.407 52.2179 121.076 52.3769C121.131 52.3897 121.164 52.4441 121.151 52.4984C121.14 52.5449 121.099 52.5761 121.053 52.5761Z" fill="black"/>
<path d="M132.106 43.155C131.128 41.1218 127.143 39.2326 122.562 41.1959C118.423 42.9635 116.663 49.038 119.655 49.2649C122.647 49.4917 127.466 45.8694 127.466 45.8694L132.106 43.155Z" fill="#263238"/>
<path d="M138.108 79.3199L142.768 79.4274L143.808 81.7974L141.412 84.8324C141.412 84.8324 140.839 84.7979 141.027 83.998C141.173 83.378 141.509 82.8937 141.509 82.8937L138.326 83.8511C137.723 84.0326 137.11 83.596 137.085 82.9663L136.939 79.3022L138.108 79.3199Z" fill="#B97964"/>
<path d="M110.839 70.8095C110.839 70.8095 110.668 73.1014 111.609 75.9919C112.551 78.8823 114.884 86.5929 117.652 88.7161C120.419 90.8393 127.433 87.6658 131.642 85.828C135.81 84.0084 138.032 83.137 138.108 83.1245L136.939 79.3022L121.649 81.5306L115.09 67.5672C115.09 67.5672 110.38 67.5279 110.839 70.8095Z" fill="#B97964"/>
<path opacity="0.2" d="M135.406 79.0132C135.406 79.0132 136.496 81.8587 137.865 82.3299C139.233 82.8011 142.713 82.9347 143.018 79.6596L135.406 79.0132Z" fill="black"/>
<path d="M111.44 66.3961C108.57 69.1703 111.78 79.9054 111.78 79.9054L120.944 77.4912C120.944 77.4912 118.767 69.404 116.577 67.3653C114.721 65.6473 113.016 64.824 111.44 66.3961Z" fill="#263238"/>
<g opacity="0.7">
<path d="M111.44 66.3961C108.57 69.1703 111.78 79.9054 111.78 79.9054L120.944 77.4912C120.944 77.4912 118.767 69.404 116.577 67.3653C114.721 65.6473 113.016 64.824 111.44 66.3961Z" fill="white"/>
</g>
<path d="M129.129 54.0881C129.485 54.0775 129.841 54.0898 130.194 54.1276C130.368 54.1462 130.542 54.1715 130.714 54.2027C130.816 54.2212 131.024 54.2226 131.087 54.3222C131.189 54.4874 131.452 54.3354 131.348 54.1693C131.261 54.0299 131.128 53.9771 130.974 53.9451C130.769 53.9027 130.562 53.87 130.355 53.8434C129.948 53.7914 129.539 53.7729 129.129 53.7851C128.935 53.7909 128.934 54.094 129.129 54.0881Z" fill="#263238"/>
<path opacity="0.2" d="M126.488 60.9244C126.488 60.9317 126.006 61.0812 126.122 61.6015C126.237 62.1219 126.419 62.1879 126.419 62.1879C126.419 62.1879 125.888 62.7578 126.488 63.3855C126.488 63.3855 126.824 63.7324 127.476 63.6415C127.476 63.6415 128.88 65.9954 130.02 66.0862L130.367 66.1523L133.636 73.0022L130.173 60.6816L126.488 60.9244Z" fill="black"/>
<path d="M133.533 63.0211C133.533 63.0211 133.452 59.6788 133.194 59.126C132.936 58.5732 132.623 58.4074 132.623 57.7993C132.623 57.1912 132.733 56.7121 132.383 56.7858C132.033 56.8595 131.701 57.5045 131.609 57.9836C131.517 58.4627 131.72 59.7341 131.72 59.7341C131.72 59.7341 129.085 58.1494 128.034 57.9099C127.159 57.7103 126.118 57.5618 125.784 57.9657C125.642 58.1376 125.72 58.4062 125.914 58.5156C126.071 58.604 126.331 58.7083 126.763 58.8128C128.218 59.1647 128.698 59.4393 128.698 59.4393C128.698 59.4393 127.297 59.3656 126.929 59.6236C126.56 59.8815 126.579 60.0636 126.671 60.3595C126.763 60.6554 127.003 60.8581 127.003 60.8581C127.003 60.8581 126.542 60.7107 126.376 61.3004C126.21 61.89 126.671 62.0927 126.671 62.0927C126.671 62.0927 126.229 62.5166 126.487 63.0509C126.745 63.5853 127.5 63.401 127.5 63.401C127.5 63.401 129.472 65.7965 130.227 65.8518C130.983 65.9071 131.959 65.3727 131.886 65.3727C131.812 65.3727 133.636 63.2536 133.636 63.2536L133.533 63.0211Z" fill="#B97964"/>
<path d="M130.473 65.6986C130.473 65.6986 134.164 76.8775 135.562 79.3023C136.96 81.7271 139.315 82.5128 141.593 81.4901C142.137 81.2456 142.571 80.6373 142.911 79.9055C143.94 77.6942 143.215 76.2533 142.062 74.1043L141.121 72.3518L139.209 73.6056L133.414 62.8071L130.473 65.6986Z" fill="#B97964"/>
</svg>
