<svg width="14" height="14" viewBox="0 0 14 14" fill="none" xmlns="http://www.w3.org/2000/svg">
<path d="M6.29992 11.1999H7.69991V9.79988H6.29992V11.1999ZM6.99991 0C3.13596 0 0 3.13596 0 6.99991C0 10.8639 3.13596 13.9998 6.99991 13.9998C10.8639 13.9998 13.9998 10.8639 13.9998 6.99991C13.9998 3.13596 10.8639 0 6.99991 0ZM6.99991 12.5998C3.91295 12.5998 1.39998 10.0869 1.39998 6.99991C1.39998 3.91295 3.91295 1.39998 6.99991 1.39998C10.0869 1.39998 12.5998 3.91295 12.5998 6.99991C12.5998 10.0869 10.0869 12.5998 6.99991 12.5998ZM6.99991 2.79997C5.45293 2.79997 4.19995 4.05295 4.19995 5.59993H5.59993C5.59993 4.82994 6.22992 4.19995 6.99991 4.19995C7.76991 4.19995 8.3999 4.82994 8.3999 5.59993C8.3999 6.99991 6.29992 6.82492 6.29992 9.09989H7.69991C7.69991 7.52491 9.79988 7.34991 9.79988 5.59993C9.79988 4.05295 8.5469 2.79997 6.99991 2.79997Z" fill="#01AB6C"/>
</svg>
