<svg width="87" height="87" viewBox="0 0 87 87" fill="none" xmlns="http://www.w3.org/2000/svg">
<path d="M43.5 84.0144C66.5403 84.0144 85.2182 73.2311 85.2182 59.9293C85.2182 46.6275 66.5403 35.8442 43.5 35.8442C20.4596 35.8442 1.78174 46.6275 1.78174 59.9293C1.78174 73.2311 20.4596 84.0144 43.5 84.0144Z" fill="#F5F5F5"/>
<path d="M57.5175 80.8736L81.4546 67.0528C81.8705 66.8126 81.8705 66.4229 81.4546 66.1828L38.4331 41.3443C38.1996 41.2258 37.9415 41.1641 37.6797 41.1641C37.4179 41.1641 37.1598 41.2258 36.9263 41.3443L12.9909 55.1668C12.575 55.4069 12.575 55.7967 12.9909 56.0368L56.0106 80.8736C56.2441 80.992 56.5022 81.0538 56.764 81.0538C57.0258 81.0538 57.284 80.992 57.5175 80.8736Z" fill="#E0E0E0"/>
<path d="M22.8619 61.5231L15.1172 57.0426C15.0004 56.9835 14.8713 56.9526 14.7404 56.9526C14.6095 56.9526 14.4805 56.9835 14.3637 57.0426L5.52453 62.146C5.47908 62.1615 5.4396 62.1907 5.41165 62.2298C5.38369 62.2688 5.36865 62.3156 5.36865 62.3635C5.36865 62.4115 5.38369 62.4583 5.41165 62.4973C5.4396 62.5364 5.47908 62.5656 5.52453 62.581L13.2693 67.0615C13.3859 67.1211 13.515 67.1522 13.646 67.1522C13.777 67.1522 13.9061 67.1211 14.0227 67.0615L22.8619 61.9564C22.9067 61.9406 22.9456 61.9113 22.973 61.8725C23.0005 61.8337 23.0153 61.7873 23.0153 61.7398C23.0153 61.6922 23.0005 61.6458 22.973 61.607C22.9456 61.5682 22.9067 61.5389 22.8619 61.5231Z" fill="#E0E0E0"/>
<path d="M77.9677 36.4477L77.2612 36.8549L59.5916 26.655L60.298 26.2461L77.9677 36.4477Z" fill="#BA68C8"/>
<path d="M60.2979 26.2459L77.2611 36.0387L77.2594 20.4465L60.2979 10.6538V26.2459Z" fill="#37474F"/>
<path d="M68.4254 14.9397V31.3479L67.719 30.939V14.5308L68.4254 14.9397Z" fill="#BA68C8"/>
<path opacity="0.2" d="M68.4254 14.9397V31.3479L67.719 30.939V14.5308L68.4254 14.9397Z" fill="black"/>
<path d="M68.7788 14.7339L68.4255 14.9392V31.3474L68.7788 31.1421V14.7339Z" fill="#BA68C8"/>
<path opacity="0.3" d="M68.7788 14.7339L68.4255 14.9392V31.3474L68.7788 31.1421V14.7339Z" fill="black"/>
<path d="M68.4254 14.9394L67.719 14.5305L68.0722 14.3252L68.7787 14.7341L68.4254 14.9394Z" fill="#FAFAFA"/>
<path d="M58.8833 27.0618L77.9676 38.0795V20.0392L58.8833 9.02148V27.0618ZM59.5915 10.2447L77.256 20.4463V36.8545L59.5915 26.6529V10.2447Z" fill="#BA68C8"/>
<path opacity="0.2" d="M58.8833 27.0618L77.9676 38.0795V20.0392L58.8833 9.02148V27.0618ZM59.5915 10.2447L77.256 20.4463V36.8545L59.5915 26.6529V10.2447Z" fill="black"/>
<path d="M59.5916 26.6551L60.298 26.2462V10.654L59.5916 10.2451V26.6551Z" fill="#BA68C8"/>
<path opacity="0.3" d="M59.5916 26.6551L60.298 26.2462V10.654L59.5916 10.2451V26.6551Z" fill="black"/>
<path d="M58.8833 9.02169L59.5915 8.61279L78.6741 19.6305L77.9676 20.0394L58.8833 9.02169Z" fill="#BA68C8"/>
<path d="M78.674 19.6304L77.9675 20.0393V38.0796L78.674 37.6707V19.6304Z" fill="#BA68C8"/>
<path opacity="0.3" d="M78.674 19.6304L77.9675 20.0393V38.0796L78.674 37.6707V19.6304Z" fill="black"/>
<path opacity="0.1" d="M68.4254 15.3466L67.7207 14.9395V15.3466L68.4254 15.7538V15.3466Z" fill="black"/>
<path opacity="0.1" d="M68.4255 15.7538L68.7788 15.5503L68.4255 15.3467V15.7538Z" fill="black"/>
<g opacity="0.6">
<path d="M75.1262 25.4526C75.1496 25.4619 75.1685 25.4801 75.1786 25.5033C75.1887 25.5264 75.1892 25.5526 75.1801 25.5762C75.168 25.5945 75.1499 25.6081 75.1289 25.6146C75.1078 25.6212 75.0852 25.6203 75.0648 25.6122C75.0444 25.604 75.0274 25.589 75.0167 25.5698C75.006 25.5506 75.0023 25.5282 75.0061 25.5066C75.0154 25.4839 75.0331 25.4657 75.0554 25.4557C75.0777 25.4456 75.1031 25.4445 75.1262 25.4526Z" fill="white"/>
<path d="M75.7386 26.032C75.774 26.0457 75.8044 26.0696 75.8262 26.1007C75.848 26.1317 75.86 26.1685 75.8608 26.2065C75.8616 26.2444 75.8511 26.2817 75.8307 26.3136C75.8102 26.3456 75.7808 26.3707 75.746 26.3859C75.7113 26.4011 75.6728 26.4056 75.6355 26.3988C75.5982 26.3921 75.5637 26.3744 75.5364 26.3481C75.5091 26.3217 75.4903 26.2879 75.4823 26.2508C75.4743 26.2137 75.4775 26.1751 75.4915 26.1399C75.5005 26.1165 75.5141 26.0951 75.5315 26.077C75.5488 26.0589 75.5696 26.0444 75.5925 26.0344C75.6155 26.0244 75.6403 26.019 75.6653 26.0186C75.6904 26.0182 75.7153 26.0227 75.7386 26.032Z" fill="white"/>
</g>
<g opacity="0.6">
<path d="M65.65 17.29C65.6736 17.2997 65.6925 17.3182 65.7026 17.3417C65.7127 17.3651 65.7132 17.3915 65.704 17.4153C65.6943 17.4389 65.6758 17.4578 65.6524 17.4679C65.6289 17.4779 65.6025 17.4784 65.5787 17.4693C65.56 17.4571 65.5462 17.4388 65.5395 17.4175C65.5329 17.3963 65.5339 17.3733 65.5423 17.3527C65.5508 17.3321 65.5662 17.3151 65.5858 17.3046C65.6055 17.2941 65.6282 17.2908 65.65 17.2953V17.29Z" fill="white"/>
<path d="M66.2626 17.871C66.2977 17.885 66.3279 17.909 66.3494 17.9402C66.3709 17.9713 66.3827 18.0081 66.3833 18.0459C66.3838 18.0837 66.3732 18.1209 66.3527 18.1527C66.3322 18.1844 66.3027 18.2094 66.268 18.2245C66.2333 18.2395 66.1949 18.2439 66.1577 18.2372C66.1205 18.2304 66.0861 18.2128 66.0589 18.1865C66.0317 18.1603 66.0129 18.1265 66.0049 18.0896C65.9968 18.0526 65.9999 18.0141 66.0137 17.9789C66.0228 17.9553 66.0364 17.9337 66.0539 17.9155C66.0713 17.8972 66.0923 17.8826 66.1155 17.8726C66.1386 17.8625 66.1636 17.8572 66.1889 17.8569C66.2141 17.8567 66.2392 17.8614 66.2626 17.871Z" fill="white"/>
</g>
<path opacity="0.6" d="M66.2626 22.4808C66.2977 22.4948 66.3279 22.5188 66.3494 22.55C66.3709 22.5811 66.3827 22.6179 66.3833 22.6557C66.3838 22.6935 66.3732 22.7307 66.3527 22.7625C66.3322 22.7942 66.3027 22.8192 66.268 22.8343C66.2333 22.8493 66.1949 22.8537 66.1577 22.847C66.1205 22.8402 66.0861 22.8226 66.0589 22.7963C66.0317 22.7701 66.0129 22.7363 66.0049 22.6993C65.9968 22.6624 65.9999 22.6239 66.0137 22.5887C66.0327 22.5416 66.0695 22.5039 66.116 22.4837C66.1626 22.4635 66.2152 22.4625 66.2626 22.4808Z" fill="white"/>
<g opacity="0.3">
<path d="M63.6927 19.5681C63.6927 19.608 63.6809 19.647 63.6587 19.6802C63.6365 19.7134 63.605 19.7393 63.5681 19.7545C63.5313 19.7698 63.4907 19.7738 63.4515 19.766C63.4124 19.7582 63.3764 19.739 63.3482 19.7108C63.32 19.6826 63.3007 19.6466 63.2929 19.6074C63.2852 19.5683 63.2891 19.5277 63.3044 19.4908C63.3197 19.4539 63.3456 19.4224 63.3788 19.4002C63.412 19.3781 63.451 19.3662 63.4909 19.3662C63.5175 19.366 63.5438 19.371 63.5684 19.3811C63.593 19.3912 63.6154 19.406 63.6341 19.4248C63.6529 19.4436 63.6678 19.4659 63.6779 19.4905C63.6879 19.5151 63.693 19.5415 63.6927 19.5681Z" fill="white"/>
<path d="M63.0907 20.1181C63.0907 20.1419 63.0837 20.1651 63.0705 20.1848C63.0573 20.2046 63.0385 20.2199 63.0166 20.229C62.9947 20.2381 62.9705 20.2405 62.9472 20.2359C62.9239 20.2312 62.9025 20.2198 62.8858 20.203C62.869 20.1862 62.8575 20.1648 62.8529 20.1415C62.8483 20.1182 62.8506 20.0941 62.8597 20.0722C62.8688 20.0502 62.8842 20.0315 62.9039 20.0183C62.9237 20.0051 62.9469 19.998 62.9706 19.998C63.0025 19.998 63.033 20.0107 63.0555 20.0332C63.0781 20.0557 63.0907 20.0863 63.0907 20.1181Z" fill="white"/>
<path d="M62.7497 19.3662C62.7515 19.38 62.7504 19.394 62.7464 19.4073C62.7424 19.4206 62.7356 19.4329 62.7265 19.4433C62.7173 19.4538 62.706 19.4622 62.6934 19.4679C62.6807 19.4736 62.667 19.4766 62.6531 19.4766C62.6392 19.4766 62.6255 19.4736 62.6128 19.4679C62.6002 19.4622 62.5889 19.4538 62.5798 19.4433C62.5706 19.4329 62.5638 19.4206 62.5598 19.4073C62.5558 19.394 62.5547 19.38 62.5565 19.3662C62.5597 19.3428 62.5712 19.3214 62.589 19.3058C62.6067 19.2903 62.6295 19.2817 62.6531 19.2817C62.6767 19.2817 62.6995 19.2903 62.7172 19.3058C62.735 19.3214 62.7465 19.3428 62.7497 19.3662Z" fill="white"/>
</g>
<g opacity="0.3">
<path d="M75.4862 22.7763C75.4605 22.782 75.434 22.7825 75.4081 22.7778C75.3822 22.7732 75.3574 22.7634 75.3353 22.7492C75.3131 22.735 75.294 22.7165 75.279 22.6949C75.264 22.6733 75.2534 22.6489 75.2479 22.6232C75.2391 22.5841 75.2421 22.5433 75.2565 22.506C75.271 22.4686 75.2962 22.4364 75.329 22.4135C75.3618 22.3905 75.4007 22.3778 75.4407 22.377C75.4808 22.3762 75.5202 22.3873 75.5538 22.409C75.5875 22.4306 75.614 22.4618 75.63 22.4985C75.6459 22.5353 75.6505 22.5759 75.6433 22.6153C75.636 22.6547 75.6172 22.691 75.5893 22.7197C75.5613 22.7484 75.5254 22.7681 75.4862 22.7763Z" fill="white"/>
<path d="M74.8199 22.3064C74.7888 22.3131 74.7562 22.3072 74.7295 22.2899C74.7027 22.2726 74.6839 22.2454 74.6772 22.2142C74.6705 22.1831 74.6765 22.1505 74.6938 22.1238C74.7111 22.097 74.7383 22.0782 74.7695 22.0715C74.7849 22.0682 74.8008 22.068 74.8163 22.0708C74.8318 22.0737 74.8467 22.0795 74.8599 22.0881C74.8731 22.0967 74.8846 22.1077 74.8935 22.1207C74.9025 22.1337 74.9088 22.1483 74.9121 22.1637C74.9155 22.1792 74.9157 22.1951 74.9129 22.2106C74.91 22.2261 74.9041 22.2409 74.8956 22.2542C74.887 22.2674 74.8759 22.2789 74.8629 22.2878C74.85 22.2968 74.8353 22.3031 74.8199 22.3064Z" fill="white"/>
<path d="M75.4829 21.8141C75.4577 21.8192 75.4316 21.8143 75.4101 21.8003C75.3886 21.7863 75.3735 21.7643 75.368 21.7393C75.3644 21.7208 75.3663 21.7017 75.3734 21.6843C75.3806 21.6668 75.3927 21.6519 75.4083 21.6414C75.4239 21.6309 75.4423 21.6252 75.4611 21.625C75.4799 21.6248 75.4984 21.6302 75.5142 21.6405C75.5299 21.6508 75.5423 21.6655 75.5498 21.6828C75.5572 21.7001 75.5594 21.7192 75.5561 21.7377C75.5528 21.7562 75.544 21.7733 75.531 21.7869C75.518 21.8005 75.5012 21.81 75.4829 21.8141Z" fill="white"/>
</g>
<g opacity="0.3">
<path d="M71.0546 18.6266C71.0546 18.6666 71.0427 18.7056 71.0205 18.7388C70.9984 18.772 70.9668 18.7978 70.93 18.8131C70.8931 18.8284 70.8525 18.8324 70.8133 18.8246C70.7742 18.8168 70.7382 18.7976 70.71 18.7694C70.6818 18.7411 70.6625 18.7052 70.6548 18.666C70.647 18.6269 70.651 18.5863 70.6662 18.5494C70.6815 18.5125 70.7074 18.481 70.7406 18.4588C70.7738 18.4366 70.8128 18.4248 70.8527 18.4248C70.9063 18.4248 70.9576 18.4461 70.9954 18.4839C71.0333 18.5218 71.0546 18.5731 71.0546 18.6266Z" fill="white"/>
<path d="M70.4525 19.1762C70.4525 19.2 70.4455 19.2232 70.4323 19.2429C70.4191 19.2627 70.4003 19.278 70.3784 19.2871C70.3565 19.2962 70.3323 19.2986 70.309 19.294C70.2857 19.2893 70.2644 19.2779 70.2476 19.2611C70.2308 19.2443 70.2193 19.2229 70.2147 19.1996C70.2101 19.1763 70.2125 19.1522 70.2215 19.1303C70.2306 19.1083 70.246 19.0896 70.2658 19.0764C70.2855 19.0632 70.3087 19.0562 70.3325 19.0562C70.3643 19.0562 70.3948 19.0688 70.4174 19.0913C70.4399 19.1138 70.4525 19.1444 70.4525 19.1762Z" fill="white"/>
<path d="M70.1114 18.4247C70.1116 18.4374 70.1093 18.45 70.1046 18.4619C70.0999 18.4737 70.0929 18.4844 70.084 18.4935C70.0751 18.5026 70.0645 18.5098 70.0527 18.5147C70.041 18.5196 70.0284 18.5221 70.0157 18.5221C70.0019 18.524 69.9879 18.5229 69.9746 18.5189C69.9613 18.5149 69.949 18.5081 69.9386 18.4989C69.9281 18.4898 69.9197 18.4785 69.914 18.4658C69.9082 18.4532 69.9053 18.4395 69.9053 18.4256C69.9053 18.4117 69.9082 18.3979 69.914 18.3853C69.9197 18.3726 69.9281 18.3614 69.9386 18.3522C69.949 18.3431 69.9613 18.3363 69.9746 18.3323C69.9879 18.3283 70.0019 18.3271 70.0157 18.329C70.0411 18.329 70.0654 18.3391 70.0834 18.357C70.1013 18.375 70.1114 18.3993 70.1114 18.4247Z" fill="white"/>
</g>
<g opacity="0.3">
<path d="M62.7076 14.2678C62.7076 14.3077 62.6958 14.3467 62.6736 14.3799C62.6514 14.4131 62.6199 14.439 62.583 14.4542C62.5462 14.4695 62.5056 14.4735 62.4664 14.4657C62.4273 14.4579 62.3913 14.4387 62.3631 14.4105C62.3348 14.3823 62.3156 14.3463 62.3078 14.3071C62.3 14.268 62.304 14.2274 62.3193 14.1905C62.3346 14.1536 62.3605 14.1221 62.3937 14.0999C62.4269 14.0778 62.4659 14.0659 62.5058 14.0659C62.5593 14.0659 62.6107 14.0872 62.6485 14.125C62.6864 14.1629 62.7076 14.2142 62.7076 14.2678Z" fill="white"/>
<path d="M62.1056 14.8124C62.1056 14.8362 62.0986 14.8594 62.0854 14.8791C62.0722 14.8989 62.0534 14.9143 62.0315 14.9234C62.0095 14.9325 61.9854 14.9348 61.9621 14.9302C61.9388 14.9256 61.9174 14.9141 61.9006 14.8973C61.8839 14.8805 61.8724 14.8592 61.8678 14.8359C61.8632 14.8126 61.8655 14.7884 61.8746 14.7665C61.8837 14.7446 61.8991 14.7258 61.9188 14.7126C61.9386 14.6994 61.9618 14.6924 61.9855 14.6924C62.0174 14.6924 62.0479 14.705 62.0704 14.7275C62.0929 14.7501 62.1056 14.7806 62.1056 14.8124Z" fill="white"/>
<path d="M61.7699 14.0609C61.7701 14.0736 61.7678 14.0863 61.7631 14.0981C61.7584 14.1099 61.7514 14.1207 61.7424 14.1297C61.7335 14.1388 61.7229 14.146 61.7112 14.1509C61.6995 14.1558 61.6869 14.1584 61.6742 14.1584C61.6604 14.1602 61.6464 14.1591 61.6331 14.1551C61.6198 14.1511 61.6075 14.1443 61.597 14.1351C61.5866 14.126 61.5782 14.1147 61.5724 14.1021C61.5667 14.0894 61.5637 14.0757 61.5637 14.0618C61.5637 14.0479 61.5667 14.0342 61.5724 14.0215C61.5782 14.0089 61.5866 13.9976 61.597 13.9884C61.6075 13.9793 61.6198 13.9725 61.6331 13.9685C61.6464 13.9645 61.6604 13.9634 61.6742 13.9652C61.6995 13.9652 61.7239 13.9753 61.7418 13.9933C61.7598 14.0112 61.7699 14.0355 61.7699 14.0609Z" fill="white"/>
</g>
<g opacity="0.6">
<path d="M72.3127 21.6226C72.3127 21.6604 72.3015 21.6974 72.2805 21.7289C72.2594 21.7604 72.2296 21.7849 72.1946 21.7994C72.1596 21.8139 72.1211 21.8177 72.084 21.8103C72.0469 21.8029 72.0128 21.7847 71.986 21.7579C71.9592 21.7311 71.941 21.697 71.9336 21.6599C71.9262 21.6228 71.93 21.5843 71.9445 21.5493C71.959 21.5143 71.9835 21.4844 72.015 21.4634C72.0465 21.4424 72.0835 21.4312 72.1213 21.4312C72.1721 21.4312 72.2208 21.4513 72.2567 21.4872C72.2926 21.5231 72.3127 21.5718 72.3127 21.6226Z" fill="white"/>
</g>
<path opacity="0.6" d="M70.5222 23.1608C70.5396 23.168 70.5546 23.1801 70.5652 23.1957C70.5758 23.2113 70.5816 23.2297 70.5818 23.2485C70.582 23.2674 70.5766 23.2859 70.5663 23.3017C70.556 23.3175 70.5413 23.3299 70.5239 23.3374C70.5066 23.3448 70.4875 23.347 70.4689 23.3436C70.4503 23.3402 70.4332 23.3314 70.4196 23.3183C70.4061 23.3052 70.3967 23.2884 70.3926 23.27C70.3886 23.2516 70.39 23.2324 70.3969 23.2148C70.4066 23.1912 70.4251 23.1723 70.4485 23.1622C70.4719 23.1522 70.4984 23.1517 70.5222 23.1608Z" fill="white"/>
<path d="M53.9469 43.3576L52.6106 42.585L53.9469 42.1987V43.3576Z" fill="#BA68C8"/>
<path opacity="0.6" d="M53.9469 43.3576L52.6106 42.585L53.9469 42.1987V43.3576Z" fill="black"/>
<path d="M47.2497 46.0668V47.297L39.5415 42.8356V41.6055L47.2497 46.0668Z" fill="#BA68C8"/>
<path opacity="0.6" d="M47.2497 46.0668V47.297L39.5415 42.8356V41.6055L47.2497 46.0668Z" fill="black"/>
<path d="M38.8733 31.9551L46.5815 36.4164V46.451L38.8733 41.9914V31.9551Z" fill="#BA68C8"/>
<path opacity="0.55" d="M38.8733 31.9551L46.5815 36.4164V46.451L38.8733 41.9914V31.9551Z" fill="black"/>
<path d="M46.5815 36.4167L55.285 31.3916V41.4279L46.5815 46.4513V36.4167Z" fill="#BA68C8"/>
<path opacity="0.45" d="M46.5815 36.4167L55.285 31.3916V41.4279L46.5815 46.4513V36.4167Z" fill="black"/>
<path d="M55.285 31.3915L47.575 26.9302L38.8733 31.9553L46.5815 36.4167L55.285 31.3915Z" fill="#BA68C8"/>
<path opacity="0.3" d="M55.285 31.3915L47.575 26.9302L38.8733 31.9553L46.5815 36.4167L55.285 31.3915Z" fill="black"/>
<path d="M47.2498 36.8031L54.6169 32.5488V34.8648L47.2498 39.1191V36.8031Z" fill="#BA68C8"/>
<path opacity="0.2" d="M47.2498 36.8031L54.6169 32.5488V34.8648L47.2498 39.1191V36.8031Z" fill="black"/>
<path opacity="0.2" d="M47.2498 39.8898L54.6169 35.6372V41.0416L47.2498 45.2942V39.8898Z" fill="black"/>
<path d="M47.2498 47.2966L47.9197 46.9104V45.6802L47.2498 46.0665V47.2966Z" fill="#BA68C8"/>
<path opacity="0.55" d="M47.2498 47.2966L47.9197 46.9104V45.6802L47.2498 46.0665V47.2966Z" fill="black"/>
<path d="M53.947 43.3576L54.6152 42.9713V41.8125L53.947 42.1988V43.3576Z" fill="#BA68C8"/>
<path opacity="0.55" d="M53.947 43.3576L54.6152 42.9713V41.8125L53.947 42.1988V43.3576Z" fill="black"/>
<path d="M49.5325 35.9714C49.5325 36.0793 49.8526 35.9818 50.2459 35.7539L51.4952 35.0335C51.8884 34.8056 52.2068 34.5341 52.2068 34.428V34.2349L49.5325 35.78V35.9714Z" fill="#37474F"/>
<path opacity="0.2" d="M54.6169 41.0417L49.9676 38.3203L47.2498 39.8898V45.2942L54.6169 41.0417Z" fill="black"/>
<path d="M17.9934 57.5139L15.1973 55.8992C15.0497 55.8028 14.927 55.6731 14.839 55.5204C14.751 55.3677 14.7003 55.1964 14.6909 55.0205V38.5931C14.7003 38.4169 14.751 38.2454 14.839 38.0925C14.9269 37.9395 15.0497 37.8094 15.1973 37.7127L37.9913 24.5496C38.1484 24.4698 38.3222 24.4282 38.4985 24.4282C38.6747 24.4282 38.8485 24.4698 39.0057 24.5496L41.8019 26.1643C41.9485 26.2597 42.0708 26.388 42.159 26.5391C42.2472 26.6901 42.2989 26.8597 42.3099 27.0343V43.4616C42.2989 43.6362 42.2472 43.8058 42.159 43.9569C42.0708 44.1079 41.9485 44.2363 41.8019 44.3316L19.0079 57.4965C18.8521 57.579 18.679 57.6236 18.5027 57.6266C18.3265 57.6296 18.152 57.591 17.9934 57.5139Z" fill="#455A64"/>
<path d="M42.3169 27.0428V43.4702C42.3062 43.6446 42.2549 43.8142 42.167 43.9652C42.079 44.1163 41.957 44.2447 41.8106 44.3402L19.0166 57.505C18.7365 57.6668 18.5103 57.5346 18.5103 57.211V40.7923C18.5196 40.6164 18.5704 40.4451 18.6583 40.2924C18.7463 40.1397 18.8691 40.01 19.0166 39.9136L41.8106 26.7488C42.089 26.587 42.3169 26.7192 42.3169 27.0428Z" fill="#263238"/>
<path d="M18.8913 57.5676C18.7457 57.6196 18.5911 57.6416 18.4368 57.6324C18.2826 57.6231 18.1317 57.5827 17.9934 57.5137L15.1973 55.899C15.05 55.8023 14.9275 55.6725 14.8395 55.5199C14.7516 55.3672 14.7007 55.1961 14.6909 55.0203V38.5912C14.6967 38.4148 14.7476 38.2429 14.8388 38.0918L18.6494 40.2929C18.558 40.4439 18.5071 40.6159 18.5015 40.7923V57.2196C18.5015 57.4963 18.6686 57.632 18.8913 57.5676Z" fill="#37474F"/>
<path d="M59.2106 73.6104L56.8598 72.2532C56.7812 72.2129 56.6941 72.1919 56.6058 72.1919C56.5174 72.1919 56.4304 72.2129 56.3518 72.2532L54.001 73.6104C53.9286 73.658 53.8689 73.7225 53.827 73.7983C53.8183 73.814 53.8131 73.8314 53.8061 73.8471C53.7742 73.9098 53.7558 73.9786 53.7522 74.0489V77.863C53.7568 77.9469 53.7803 78.0287 53.821 78.1022C53.8616 78.1757 53.9184 78.2391 53.9871 78.2875L54.0045 78.3032L56.3552 79.6604C56.3653 79.6649 56.3758 79.6684 56.3866 79.6708C56.4143 79.6853 56.4435 79.6969 56.4736 79.7056C56.518 79.7164 56.5636 79.7211 56.6093 79.7196C56.6976 79.7217 56.785 79.7013 56.8633 79.6604L59.2141 78.3032C59.2876 78.2546 59.3487 78.1895 59.3925 78.1131C59.4363 78.0366 59.4616 77.951 59.4664 77.863V74.0489C59.4612 73.9608 59.4354 73.8752 59.391 73.799C59.3465 73.7228 59.2847 73.6582 59.2106 73.6104Z" fill="#455A64"/>
<path d="M56.8598 79.6607L59.2105 78.3035C59.2841 78.2549 59.3452 78.1898 59.389 78.1133C59.4328 78.0369 59.4581 77.9512 59.4628 77.8632V74.0492C59.4628 73.8873 59.348 73.823 59.2088 73.903L56.858 75.2602C56.7842 75.3082 56.7228 75.3729 56.6786 75.4491C56.6345 75.5253 56.6089 75.6108 56.604 75.6987V79.518C56.6057 79.6746 56.7241 79.7407 56.8598 79.6607Z" fill="#37474F"/>
<path d="M79.2154 62.0605L76.8647 60.7033C76.786 60.6634 76.6989 60.6426 76.6107 60.6426C76.5224 60.6426 76.4353 60.6634 76.3566 60.7033L74.0059 62.0605C73.933 62.1082 73.8731 62.1734 73.8319 62.2501C73.8239 62.2653 73.8169 62.281 73.811 62.2971C73.7795 62.3599 73.7617 62.4287 73.7588 62.4989V66.313C73.7634 66.3969 73.7869 66.4787 73.8276 66.5522C73.8682 66.6258 73.925 66.6891 73.9937 66.7376C73.9996 66.7433 74.006 66.7486 74.0128 66.7533L76.3618 68.1104C76.3719 68.1149 76.3824 68.1184 76.3932 68.1209C76.4206 68.136 76.4498 68.1477 76.4802 68.1557C76.5246 68.1661 76.5702 68.1714 76.6159 68.1713C76.7043 68.1729 76.7918 68.152 76.8699 68.1104L79.2207 66.7533C79.2943 66.7047 79.3556 66.6396 79.3997 66.5632C79.4438 66.4868 79.4695 66.4011 79.4747 66.313V62.4989C79.4692 62.4106 79.4428 62.3248 79.3978 62.2485C79.3527 62.1723 79.2902 62.1079 79.2154 62.0605Z" fill="#455A64"/>
<path d="M76.8646 68.1104L79.2154 66.7532C79.289 66.7046 79.3504 66.6395 79.3945 66.5631C79.4386 66.4867 79.4642 66.401 79.4694 66.3129V62.4989C79.4694 62.337 79.3546 62.2727 79.2154 62.3527L76.8646 63.7099C76.7906 63.7581 76.729 63.823 76.6848 63.8995C76.6407 63.9761 76.6152 64.0619 76.6106 64.1501V67.9625C76.6106 68.1243 76.7237 68.1904 76.8646 68.1104Z" fill="#37474F"/>
<path d="M41.3007 39.1345L19.5159 51.7112C19.2203 51.9041 18.9743 52.1638 18.7978 52.4695C18.6213 52.7751 18.5192 53.1179 18.4998 53.4704V54.4343C18.5178 54.7882 18.6193 55.1328 18.7959 55.4401C18.9725 55.7473 19.2192 56.0084 19.5159 56.2022L55.5896 77.03C55.9046 77.1896 56.2527 77.2727 56.6058 77.2727C56.9588 77.2727 57.307 77.1896 57.6219 77.03L79.405 64.4515C79.701 64.2591 79.9474 63.9995 80.124 63.6938C80.3006 63.3881 80.4024 63.0449 80.4211 62.6924V61.7284C80.4019 61.376 80.2998 61.033 80.1233 60.7274C79.9467 60.4217 79.7006 60.162 79.405 59.9693L43.3261 39.1345C43.0121 38.9758 42.6652 38.8931 42.3134 38.8931C41.9616 38.8931 41.6147 38.9758 41.3007 39.1345Z" fill="#455A64"/>
<path d="M80.4211 61.7214V62.6854C80.402 63.0376 80.3002 63.3805 80.124 63.6861C79.9478 63.9917 79.702 64.2515 79.4067 64.4445L57.6219 77.0212C57.3091 77.1866 56.9595 77.2699 56.6057 77.2631V73.9501C56.9595 73.9569 57.3091 73.8737 57.6219 73.7083L79.4067 61.1315C79.9287 60.827 79.9635 60.3503 79.5093 60.0249C79.7768 60.2232 79.9972 60.478 80.1548 60.7713C80.3124 61.0645 80.4033 61.389 80.4211 61.7214Z" fill="#263238"/>
<path d="M19.5177 52.884C18.9835 52.5777 18.9574 52.0888 19.4394 51.7651C19.1657 51.9615 18.9393 52.2165 18.7767 52.5115C18.6142 52.8065 18.5195 53.1341 18.4998 53.4703V54.4343C18.5178 54.7882 18.6193 55.1328 18.7959 55.4401C18.9725 55.7473 19.2192 56.0084 19.5159 56.2021L55.5896 77.0299C55.9024 77.1953 56.252 77.2786 56.6058 77.2718V73.9501C56.2525 73.9573 55.9033 73.874 55.5913 73.7083L19.5177 52.884Z" fill="#37474F"/>
<path d="M41.3007 33.6428L19.5159 46.2195C19.2203 46.4124 18.9743 46.6721 18.7978 46.9778C18.6213 47.2834 18.5192 47.6262 18.4998 47.9787V50.0336C18.5192 50.386 18.6213 50.7289 18.7978 51.0345C18.9743 51.3401 19.2203 51.5999 19.5159 51.7927L55.5896 72.6205C55.9046 72.7801 56.2527 72.8633 56.6058 72.8633C56.9588 72.8633 57.307 72.7801 57.6219 72.6205L79.405 60.0421C79.7008 59.8499 79.947 59.5905 80.1236 59.2851C80.3002 58.9797 80.4022 58.6369 80.4211 58.2847V56.2297C80.4024 55.8772 80.3006 55.534 80.124 55.2283C79.9474 54.9226 79.701 54.6629 79.405 54.4706L43.3261 33.6428C43.0121 33.4841 42.6652 33.4014 42.3134 33.4014C41.9616 33.4014 41.6147 33.4841 41.3007 33.6428Z" fill="#BA68C8"/>
<path opacity="0.8" d="M19.5158 47.3921L55.5895 68.2199C55.9045 68.3795 56.2526 68.4627 56.6057 68.4627C56.9588 68.4627 57.3069 68.3795 57.6218 68.2199L79.4049 55.6432C79.9669 55.3196 79.9669 54.7941 79.4049 54.4704L43.326 33.6427C43.0113 33.4831 42.6635 33.3999 42.3107 33.3999C41.9579 33.3999 41.6101 33.4831 41.2954 33.6427L19.5106 46.2194C18.9556 46.543 18.9556 47.0685 19.5158 47.3921Z" fill="white"/>
<path opacity="0.05" d="M23.264 45.1562L28.002 47.9072C28.564 48.2308 29.1295 48.1508 29.9317 47.9072C30.7338 47.6636 33.3943 46.6056 33.3943 46.6056C33.3943 46.6056 33.8258 48.3195 35.6563 50.6564C36.3523 51.5455 37.6625 53.2142 39.8671 54.4043L52.7953 46.8057L42.317 40.7558L43.2688 40.2164C43.977 39.7866 43.8291 39.4194 43.2688 39.0958L37.5007 35.7759L23.2605 44.0548C22.7002 44.3802 22.7037 44.8326 23.264 45.1562Z" fill="black"/>
<path opacity="0.5" d="M80.4211 56.2296V58.2898C80.402 58.6421 80.3002 58.9849 80.124 59.2905C79.9478 59.5962 79.702 59.856 79.4067 60.0489L57.6219 72.6257C57.3091 72.7911 56.9595 72.8743 56.6057 72.8675V68.4618C56.9593 68.4692 57.309 68.3865 57.6219 68.2217L79.4067 55.6433C79.9287 55.3388 79.9635 54.8637 79.5093 54.5366C79.7764 54.7345 79.9965 54.9888 80.1541 55.2814C80.3117 55.574 80.4028 55.8978 80.4211 56.2296Z" fill="white"/>
<path opacity="0.6" d="M19.5177 47.394C18.9835 47.086 18.9574 46.5971 19.4394 46.2734C19.1657 46.4698 18.9393 46.7248 18.7767 47.0198C18.6142 47.3148 18.5195 47.6424 18.4998 47.9786V50.0336C18.5192 50.386 18.6213 50.7289 18.7978 51.0345C18.9743 51.3401 19.2203 51.5998 19.5159 51.7927L55.5896 72.6205C55.9024 72.7859 56.252 72.8692 56.6058 72.8624V68.4619C56.2527 68.4696 55.9035 68.387 55.5913 68.2218L19.5177 47.394Z" fill="white"/>
<path d="M44.0222 38.0641C44.0222 37.4551 43.1104 36.4355 41.9864 35.7864L37.4624 33.1764C36.8342 32.8128 36.2722 32.644 35.8964 32.6701C34.9237 32.6701 31.0348 34.5476 29.1243 35.649C27.2138 36.7504 23.0482 39.4074 22.3992 40.5332C22.1869 40.902 29.7072 46.3587 30.6207 46.1655C32.6687 45.7375 36.3627 43.9784 38.261 42.8213C41.36 40.9316 43.1139 39.3587 43.7316 38.687C44.0222 38.3634 44.0222 38.1929 44.0222 38.0641Z" fill="#F0F0F0"/>
<path d="M33.1139 36.9888C31.7359 37.7805 31.6436 38.7636 32.3205 39.9276C32.7712 40.7037 33.4672 41.7755 34.626 42.2836C35.322 42.5898 35.6474 42.8908 36.1502 43.5103C36.1607 43.5225 36.1676 43.5347 36.1763 43.5468C36.8567 43.1988 37.5248 42.8421 38.1408 42.5028L33.1139 36.9888Z" fill="#E0E0E0"/>
<path d="M24.3461 43.0824L28.8701 45.6924C29.9959 46.3414 30.9059 46.3744 30.9059 45.7654C30.9059 45.1564 29.9959 44.1368 28.8701 43.4878L24.3461 40.8778C23.2221 40.2288 22.3103 40.1957 22.3103 40.8047C22.3103 41.4137 23.2221 42.4334 24.3461 43.0824Z" fill="#E0E0E0"/>
<path d="M47.5508 43.5103L50.7054 45.2903L48.8506 46.9903L46.2632 45.2102L47.5508 43.5103Z" fill="#B16668"/>
<path d="M40.7996 41.4711C42.4943 40.7595 43.2356 40.9787 44.2117 41.4276C45.3653 41.9601 48.3529 43.8636 48.3529 43.8636C48.3529 43.8636 47.3942 45.454 46.4859 45.5601C44.2952 44.3126 40.7996 41.4711 40.7996 41.4711Z" fill="#37474F"/>
<path d="M36.6272 42.9781C35.5345 43.7159 34.6262 44.3336 34.7358 45.3845C34.8454 46.4355 42.9347 52.5481 42.9347 52.5481L49.0682 47.356C49.0682 47.356 45.9014 44.0169 44.2066 42.7049C42.5119 41.393 41.8124 41.0398 39.2824 41.8071C37.5529 42.3343 36.6272 42.9781 36.6272 42.9781Z" fill="#455A64"/>
<path d="M38.5427 35.9049C38.2386 35.3834 37.7398 35.0041 37.156 34.8504C36.5722 34.6967 35.9513 34.7812 35.4299 35.0853C34.9084 35.3894 34.5291 35.8883 34.3754 36.472C34.2217 37.0558 34.3062 37.6767 34.6103 38.1982C34.6312 38.233 34.6538 38.2643 34.6764 38.2974L34.2536 39.6163L33.2096 38.1564C33.1946 38.0334 33.1345 37.9204 33.041 37.8391C32.9475 37.7578 32.8272 37.714 32.7033 37.7162C32.6406 37.7186 32.5791 37.7336 32.5224 37.7605C32.4657 37.7874 32.4151 37.8255 32.3736 37.8725C32.3321 37.9195 32.3006 37.9745 32.281 38.0341C32.2614 38.0936 32.2541 38.1566 32.2596 38.2191L32.9138 38.1964C32.7838 38.3085 32.6914 38.458 32.6493 38.6245C32.5449 39.0456 33.1713 39.799 33.9857 40.4306C33.9857 40.4306 35.1776 41.7426 35.449 41.9131C35.6225 42.0156 35.8289 42.0468 36.0249 42.0001L35.7413 39.1691C36.1812 39.3417 36.6639 39.3731 37.1224 39.2587C37.581 39.1444 37.9925 38.8901 38.2998 38.5311C38.6071 38.1721 38.7949 37.7263 38.8372 37.2557C38.8795 36.785 38.7741 36.3129 38.5358 35.9049H38.5427Z" fill="#263238"/>
<path d="M34.814 40.0461C34.7357 40.1871 34.4295 40.0566 34.1893 39.987C33.9492 39.9174 33.342 39.987 33.3976 40.6395C33.4533 41.292 34.3129 41.72 34.7653 41.6173C35.5431 41.4433 35.3951 40.9614 35.3951 40.9614L36.8689 43.3765C38.2975 43.9472 40.6482 42.4908 39.0648 41.9462L38.642 41.2258C38.9163 41.1139 39.1772 40.9715 39.4198 40.8013C39.86 40.4446 39.9418 39.886 39.7834 39.277C39.5294 38.2992 39.2231 37.5684 38.0591 36.0319C36.7837 34.3476 34.6661 35.5587 33.9457 36.9367C33.2254 38.3148 34.814 40.0461 34.814 40.0461Z" fill="#B16668"/>
<path d="M34.9323 40.2478C34.8714 40.2843 34.419 40.0355 34.1893 39.9868C33.8727 39.9189 33.1453 38.0536 33.1453 38.0536C33.0043 37.9373 32.9003 37.7822 32.8462 37.6076C32.7921 37.4329 32.7902 37.2462 32.8408 37.0705C32.9574 36.5172 33.5873 36.0822 34.024 35.7899C34.8123 35.2679 35.6927 34.6658 35.9955 33.7262C36.0198 33.6532 36.0581 33.5662 36.1347 33.5522C36.1838 33.5522 36.2311 33.5709 36.2669 33.6044C36.4873 33.7977 36.6306 34.064 36.6706 34.3544C36.6706 34.3822 36.6862 34.4153 36.7141 34.4188C36.7419 34.4222 36.7593 34.3996 36.7732 34.3787C36.8459 34.2651 36.8967 34.1388 36.9229 34.0064C36.9594 33.8237 37.3057 34.2326 37.337 34.2917C37.4293 34.4773 37.4833 34.6795 37.4959 34.8864C37.5084 35.0932 37.4793 35.3005 37.4101 35.4958C37.2709 35.8856 36.9211 36.1605 36.601 36.4041C35.9209 36.8713 35.1985 37.2739 34.4434 37.6064C34.2033 37.7056 34.2816 37.9544 34.506 38.6122C34.7079 39.1951 35.1324 40.1242 34.9323 40.2478Z" fill="#263238"/>
<path d="M38.6421 41.2256C38.6421 41.2256 37.3023 41.6832 36.8081 41.7041C36.5187 41.7171 36.2321 41.6431 35.9851 41.4918C36.1708 41.6788 36.3921 41.8268 36.6359 41.9268C37.1178 42.1199 38.8091 41.5127 38.8091 41.5127L38.6421 41.2256Z" fill="#9A4A4D"/>
<path d="M36.8307 38.4976C36.8582 38.585 36.8555 38.6791 36.8231 38.7648C36.7907 38.8506 36.7304 38.9229 36.652 38.9703C36.5735 39.0176 36.4814 39.0373 36.3904 39.026C36.2995 39.0147 36.2149 38.9733 36.1504 38.9082C36.2941 38.9357 36.4428 38.9091 36.568 38.8334C36.6931 38.7566 36.7863 38.6374 36.8307 38.4976Z" fill="#263238"/>
<path d="M38.588 37.502C38.6093 37.5908 38.6003 37.6842 38.5623 37.7672C38.5244 37.8503 38.4597 37.9183 38.3786 37.9604C38.2975 38.0024 38.2047 38.0161 38.1149 37.9992C38.0252 37.9824 37.9436 37.936 37.8833 37.8674C38.0251 37.9031 38.1751 37.8856 38.3049 37.8183C38.4348 37.751 38.5355 37.6384 38.588 37.502Z" fill="#263238"/>
<path d="M36.0581 37.9092L35.6996 38.4051C35.6336 38.3552 35.5894 38.2816 35.5765 38.1999C35.5635 38.1181 35.5827 38.0345 35.63 37.9666C35.6537 37.9339 35.6838 37.9063 35.7184 37.8855C35.7531 37.8648 35.7916 37.8513 35.8317 37.8459C35.8717 37.8405 35.9125 37.8434 35.9514 37.8543C35.9903 37.8651 36.0266 37.8838 36.0581 37.9092Z" fill="#263238"/>
<path d="M37.6519 40.0304L38.2539 39.9277C38.2625 39.9671 38.263 40.0078 38.2555 40.0474C38.248 40.0869 38.2326 40.1246 38.2101 40.1581C38.1877 40.1915 38.1588 40.2201 38.125 40.2421C38.0913 40.2642 38.0534 40.2791 38.0138 40.2862C37.932 40.2989 37.8486 40.2793 37.781 40.2316C37.7135 40.1838 37.6671 40.1117 37.6519 40.0304Z" fill="#9A4A4D"/>
<path d="M38.2643 36.9209L37.6519 36.8426C37.655 36.8026 37.6664 36.7636 37.6851 36.7281C37.7039 36.6925 37.7297 36.6612 37.7609 36.636C37.7922 36.6107 37.8282 36.5921 37.8669 36.5813C37.9056 36.5704 37.9461 36.5676 37.9859 36.5729C38.0681 36.5842 38.1428 36.6266 38.1946 36.6914C38.2464 36.7561 38.2714 36.8383 38.2643 36.9209Z" fill="#263238"/>
<path d="M37.1316 38.0068L37.9616 39.2666L38.5062 38.6385L37.1316 38.0068Z" fill="#9A4A4D"/>
<path opacity="0.1" d="M44.8921 52.8683C44.3242 52.5326 43.7868 52.1478 43.2861 51.7182C42.8877 51.3545 42.5101 50.8673 42.6754 50.354L40.4238 51.6538C40.8188 52.489 41.7601 52.9866 42.5623 53.4442C42.9961 53.6913 43.4329 53.9309 43.8725 54.1629L44.3701 54.4273C46.8549 55.6975 49.4475 56.7607 52.0261 57.8203C52.3411 57.9491 52.6821 58.0813 53.0127 58.003L44.8921 52.8683Z" fill="black"/>
<path d="M33.7422 55.6069V63.3064L56.6058 76.5061V68.4621C56.2519 68.4698 55.9021 68.3865 55.5896 68.2202L33.7422 55.6069Z" fill="#BA68C8"/>
<path opacity="0.3" d="M33.7422 55.6069V63.3064L56.6058 76.5061V68.4621C56.2519 68.4698 55.9021 68.3865 55.5896 68.2202L33.7422 55.6069Z" fill="black"/>
<path d="M79.4067 55.6433C79.9287 55.3388 79.9635 54.8637 79.5093 54.5366C79.7764 54.7345 79.9965 54.9888 80.1541 55.2814C80.3117 55.574 80.4028 55.8978 80.4211 56.2296V62.7564L56.6057 76.5024V68.4618C56.9592 68.4682 57.3086 68.3857 57.6219 68.2217L79.4067 55.6433Z" fill="#BA68C8"/>
<path opacity="0.45" d="M79.4067 55.6433C79.9287 55.3388 79.9635 54.8637 79.5093 54.5366C79.7764 54.7345 79.9965 54.9888 80.1541 55.2814C80.3117 55.574 80.4028 55.8978 80.4211 56.2296V62.7564L56.6057 76.5024V68.4618C56.9592 68.4682 57.3086 68.3857 57.6219 68.2217L79.4067 55.6433Z" fill="black"/>
<path d="M79.405 54.4707L57.5576 41.8574L50.3087 46.0421C47.3699 45.6141 41.901 49.202 40.6326 51.6293L33.7422 55.6069L55.5896 68.2202C55.9046 68.3798 56.2527 68.4629 56.6058 68.4629C56.9589 68.4629 57.307 68.3798 57.6219 68.2202L79.405 55.6434C79.967 55.3198 79.967 54.7943 79.405 54.4707Z" fill="#BA68C8"/>
<path opacity="0.2" d="M79.405 54.4707L57.5576 41.8574L50.3087 46.0421C47.3699 45.6141 41.901 49.202 40.6326 51.6293L33.7422 55.6069L55.5896 68.2202C55.9046 68.3798 56.2527 68.4629 56.6058 68.4629C56.9589 68.4629 57.307 68.3798 57.6219 68.2202L79.405 55.6434C79.967 55.3198 79.967 54.7943 79.405 54.4707Z" fill="black"/>
<path opacity="0.1" d="M79.4051 54.4707L57.5577 41.8574L50.3088 46.0421C52.5239 47.4498 54.6989 48.2589 56.9522 49.5569C58.0397 50.1833 59.3029 51.2064 62.0625 53.0874C62.9673 53.7051 64.0496 54.422 65.1945 54.3054C66.0645 54.2201 66.818 53.6999 67.6514 53.4354C67.8302 53.3709 68.0203 53.3436 68.21 53.3553C69.0365 53.4406 68.9756 54.4341 68.9877 55.0344C69.007 55.9592 68.7481 56.8684 68.2448 57.6444C68.1265 57.8098 68.0447 57.9984 68.0046 58.1978C67.9002 58.8172 68.2047 59.2887 68.7963 59.5497C69.3879 59.8107 71.7108 60.0717 72.8401 59.414L79.4051 55.6243C79.9637 55.3198 79.9637 54.7926 79.4051 54.4707Z" fill="black"/>
<path opacity="0.1" d="M59.837 61.9213C59.373 61.6383 58.9136 61.3454 58.4589 61.0426C58.2849 60.9226 57.4828 60.4006 57.2809 60.2214C57.8708 60.4824 58.4519 60.7434 59.0331 61.0252C59.6699 61.328 60.3137 61.6151 60.9697 61.8726C61.8519 62.2206 63.3152 62.8714 64.0756 61.9422C64.528 61.3889 64.4062 60.5833 64.5559 59.8838C64.7055 59.1843 65.9235 56.8858 64.3958 56.7274C64.2061 56.7167 64.0163 56.7439 63.8372 56.8075C63.0038 57.065 62.2469 57.5853 61.3804 57.6775C60.2354 57.7923 59.0801 57.1694 58.2484 56.4595C57.259 55.6402 56.1967 54.9133 55.0746 54.288C54.9841 54.2358 54.9911 54.274 54.9163 54.1992C55.4016 54.3843 55.8707 54.6096 56.3187 54.8726C56.6667 55.0727 56.9886 55.2937 57.3314 55.492C57.9715 55.8766 58.6325 56.2252 59.3115 56.536C59.9834 56.8573 60.7255 57.0039 61.4691 56.9623C62.3391 56.884 63.1343 56.463 63.9451 56.1411C64.255 55.9927 64.5974 55.925 64.9404 55.9444C65.4833 56.014 65.9374 56.6944 65.9078 57.2199C65.9088 57.2361 65.9088 57.2524 65.9078 57.2686C65.8052 58.156 65.6555 59.0364 65.572 59.9256C65.5228 60.1897 65.5518 60.4625 65.6555 60.7103C65.7402 60.8387 65.8508 60.948 65.9803 61.031C66.1097 61.114 66.2552 61.169 66.4072 61.1923C66.7082 61.2601 67.0197 61.2706 67.312 61.3663C67.351 61.375 67.3863 61.3957 67.4129 61.4254C67.4582 61.4898 67.4129 61.5786 67.366 61.6412C67.0832 61.9837 66.7205 62.2515 66.3098 62.4207C65.9061 62.6052 65.4815 62.7357 65.0744 62.9097C64.7607 63.0658 64.4319 63.1894 64.093 63.2785C63.8758 63.3157 63.6556 63.332 63.4353 63.3273C63.0542 63.3273 62.3113 63.3273 61.1629 62.7009C60.7122 62.4451 60.272 62.1858 59.837 61.9213Z" fill="black"/>
<path opacity="0.2" d="M37.5527 57.8081V65.5215L38.0312 65.7825L38.0295 58.0813L37.5527 57.8081Z" fill="black"/>
<path opacity="0.1" d="M37.5527 57.8078L43.8672 54.1538C45.3967 52.2989 51.1108 47.7993 54.2654 48.1508L61.3716 44.0479L61.8675 44.3384L54.7979 48.4118C51.6363 48.5684 47.0792 51.4933 44.3735 54.42L38.0295 58.074L37.5527 57.8078Z" fill="black"/>
<path d="M49.5291 56.0991C49.3012 56.0138 49.0071 55.8764 48.7565 55.772C48.3532 55.6333 47.9686 55.4451 47.6116 55.2117C47.9509 55.2117 48.1093 55.3457 48.586 55.2395C48.7544 55.2058 48.9044 55.111 49.0071 54.9733C49.0247 54.9518 49.0361 54.926 49.0402 54.8985C49.0506 54.7871 48.901 54.7419 48.7896 54.7245C48.3337 54.6706 47.9527 54.4252 47.5177 54.3034C46.8721 54.1294 46.0108 54.2147 45.5236 54.0163C45.0364 53.818 40.9996 50.7382 40.9996 50.7382C39.859 49.5754 38.8161 48.3207 37.8815 46.9867C36.7018 45.2798 36.1729 44.6116 35.3237 44.3628C34.4537 44.9631 34.4903 45.3755 34.5425 46.1184C34.5947 46.8614 35.2002 47.7958 35.6004 48.4535C36.1694 49.3879 36.6931 49.99 37.6797 51.2706C38.2006 51.9374 38.7973 52.5412 39.458 53.0698C40.4115 53.8388 44.1838 55.7581 44.1838 55.7581C44.1838 55.7581 46.5798 57.8095 48.2728 57.7016C48.7478 57.6703 49.0802 57.5798 49.4334 57.2353C49.764 56.9117 49.9676 56.2661 49.5291 56.0991Z" fill="#B16668"/>
<path d="M35.1185 44.1666C34.2485 44.7443 34.0519 45.8544 34.4904 47.055C34.9289 48.2556 37.3075 51.2066 37.3075 51.2066C37.3075 51.2066 39.2789 50.7368 39.8583 49.2369C39.8583 49.2369 37.913 46.4321 37.3057 45.6195C36.601 44.6764 35.6701 43.9091 35.1185 44.1666Z" fill="#37474F"/>
<path d="M49.839 44.8013L48.2208 45.7983L48.7254 46.1741C48.0677 46.851 46.9575 48.0655 46.6896 48.2151C46.2302 48.4709 45.6073 48.1977 44.9878 48.457C44.572 48.631 44.2327 48.8746 43.789 48.979C43.6794 49.0068 43.535 49.0695 43.5611 49.1791C43.5703 49.2108 43.5884 49.2391 43.6132 49.2609C43.7273 49.3747 43.8774 49.4455 44.0378 49.461C44.5354 49.5114 44.6747 49.3548 45.0174 49.3166C44.691 49.5912 44.3322 49.825 43.9491 50.0126C43.7072 50.1483 43.4375 50.3188 43.2217 50.4319C42.8076 50.6511 43.1156 51.0931 43.5071 51.3176C43.8817 51.5405 44.3142 51.6471 44.7495 51.6238C46.0197 51.549 47.3716 50.2979 47.9685 49.6785C48.1969 49.4397 48.4494 49.2252 48.7219 49.0382C49.5449 48.4779 51.2623 47.2703 51.6172 46.7257C52.0853 46.0071 50.749 45.2502 49.839 44.8013Z" fill="#B16668"/>
<path d="M46.6895 48.2155C46.7752 48.1681 46.8716 48.1433 46.9696 48.1433C47.0676 48.1433 47.164 48.1681 47.2497 48.2155C47.6171 48.4379 47.9176 48.7553 48.1197 49.1342C48.2468 49.4161 48.1197 49.5361 48.1197 49.5361C48.3677 49.4353 48.5797 49.2626 48.7287 49.0402C48.7287 48.852 48.6677 48.6688 48.5547 48.5182C48.3418 48.1963 48.0525 47.932 47.7126 47.7492C47.5761 47.6909 47.4258 47.6728 47.2793 47.697C47.0633 47.8464 46.8654 48.0204 46.6895 48.2155Z" fill="#37474F"/>
<path d="M47.8361 47.9685L47.5229 48.2434C47.5002 48.263 47.4817 48.2869 47.4685 48.3139C47.4553 48.3408 47.4478 48.3702 47.4463 48.4001C47.4448 48.4301 47.4495 48.46 47.46 48.4881C47.4704 48.5162 47.4865 48.5419 47.5072 48.5636L47.8692 48.9551C47.9119 49.0002 47.9701 49.0274 48.0321 49.0313C48.0941 49.0352 48.1553 49.0154 48.2032 48.9759L48.5043 48.7236C48.5274 48.7044 48.5465 48.6807 48.5603 48.6539C48.5742 48.6272 48.5825 48.5979 48.5847 48.5679C48.587 48.5378 48.5832 48.5076 48.5736 48.4791C48.5639 48.4505 48.5486 48.4242 48.5286 48.4017L48.1615 47.9876C48.1207 47.9422 48.0637 47.9146 48.0027 47.911C47.9418 47.9075 47.8819 47.9281 47.8361 47.9685Z" fill="#263238"/>
<path d="M47.8361 47.8883L47.5229 48.1632C47.5002 48.1828 47.4817 48.2068 47.4685 48.2337C47.4553 48.2606 47.4478 48.29 47.4463 48.3199C47.4448 48.3499 47.4495 48.3798 47.46 48.4079C47.4704 48.436 47.4865 48.4617 47.5072 48.4834L47.8692 48.8749C47.9118 48.9183 47.9691 48.9443 48.0299 48.9478C48.0907 48.9514 48.1506 48.9322 48.198 48.894L48.499 48.64C48.5222 48.6209 48.5412 48.5973 48.555 48.5707C48.5688 48.5441 48.5771 48.515 48.5794 48.4851C48.5816 48.4552 48.5779 48.4251 48.5682 48.3967C48.5586 48.3683 48.5434 48.3422 48.5234 48.3198L48.1563 47.9057C48.1157 47.8616 48.0595 47.8351 47.9997 47.8319C47.9399 47.8286 47.8812 47.8489 47.8361 47.8883Z" fill="#455A64"/>
<path d="M48.0484 48.8645C48.0269 48.865 48.0055 48.8609 47.9857 48.8525C47.9659 48.8441 47.9481 48.8316 47.9336 48.8158L47.5716 48.4243C47.5587 48.411 47.5486 48.3952 47.542 48.3778C47.5354 48.3605 47.5325 48.3419 47.5333 48.3234C47.5359 48.2866 47.5527 48.2522 47.5803 48.2277L47.8935 47.9528C47.9196 47.9302 47.953 47.9178 47.9875 47.918C48.008 47.918 48.0283 47.9221 48.0471 47.9302C48.066 47.9383 48.083 47.9501 48.0971 47.9649L48.4643 48.3791C48.4882 48.4071 48.5006 48.4432 48.4991 48.48C48.4976 48.4985 48.4923 48.5166 48.4836 48.533C48.475 48.5495 48.463 48.564 48.4486 48.5757L48.1476 48.8297C48.1195 48.8524 48.0845 48.8647 48.0484 48.8645Z" fill="#BA68C8"/>
<path d="M21.0609 62.3444L19.7246 61.5718L21.0609 61.1855V62.3444Z" fill="#BA68C8"/>
<path opacity="0.6" d="M21.0609 62.3444L19.7246 61.5718L21.0609 61.1855V62.3444Z" fill="black"/>
<path d="M14.3655 65.0536V66.2838L6.65552 61.8225V60.5923L14.3655 65.0536Z" fill="#BA68C8"/>
<path opacity="0.6" d="M14.3655 65.0536V66.2838L6.65552 61.8225V60.5923L14.3655 65.0536Z" fill="black"/>
<path d="M5.9873 50.9419L13.6955 55.4033V65.4378L5.9873 60.9782V50.9419Z" fill="#BA68C8"/>
<path opacity="0.55" d="M5.9873 50.9419L13.6955 55.4033V65.4378L5.9873 60.9782V50.9419Z" fill="black"/>
<path d="M13.6956 55.4035L22.399 50.3784V60.4147L13.6956 65.4381V55.4035Z" fill="#BA68C8"/>
<path opacity="0.45" d="M13.6956 55.4035L22.399 50.3784V60.4147L13.6956 65.4381V55.4035Z" fill="black"/>
<path d="M22.399 50.3783L14.6908 45.917L5.9873 50.9421L13.6955 55.4035L22.399 50.3783Z" fill="#BA68C8"/>
<path opacity="0.3" d="M22.399 50.3783L14.6908 45.917L5.9873 50.9421L13.6955 55.4035L22.399 50.3783Z" fill="black"/>
<path d="M14.3655 55.7897L21.7309 51.5371V53.853L14.3655 58.1056V55.7897Z" fill="#BA68C8"/>
<path opacity="0.2" d="M14.3655 55.7897L21.7309 51.5371V53.853L14.3655 58.1056V55.7897Z" fill="black"/>
<path opacity="0.2" d="M14.3655 58.8766L21.7309 54.624V60.0285L14.3655 64.281V58.8766Z" fill="black"/>
<path d="M14.3655 66.2835L15.0336 65.8972V64.667L14.3655 65.0533V66.2835Z" fill="#BA68C8"/>
<path opacity="0.55" d="M14.3655 66.2835L15.0336 65.8972V64.667L14.3655 65.0533V66.2835Z" fill="black"/>
<path d="M21.061 62.3444L21.7309 61.9582V60.7993L21.061 61.1856V62.3444Z" fill="#BA68C8"/>
<path opacity="0.55" d="M21.061 62.3444L21.7309 61.9582V60.7993L21.061 61.1856V62.3444Z" fill="black"/>
<path d="M16.6465 54.9599C16.6465 55.0661 16.9666 54.9686 17.3599 54.7407L18.6092 54.0203C19.0024 53.7924 19.3209 53.5227 19.3209 53.4148V53.2217L16.6465 54.7668V54.9599Z" fill="#37474F"/>
<path opacity="0.2" d="M21.7309 60.0282L17.0816 57.3086L14.3655 58.8763V64.2808L21.7309 60.0282Z" fill="black"/>
<path d="M11.6477 51.0846C11.6482 51.0373 11.6435 50.99 11.6337 50.9437C11.5201 50.425 11.2142 49.9687 10.7776 49.6665H8.98719C8.54977 49.9678 8.24363 50.4246 8.13111 50.9437C8.12045 50.9899 8.11577 51.0372 8.11719 51.0846C8.11719 51.0933 8.11719 51.109 8.11719 51.109C8.13285 51.356 8.30337 51.6014 8.63919 51.7893C9.02635 51.9857 9.45437 52.0881 9.88851 52.0881C10.3226 52.0881 10.7507 51.9857 11.1378 51.7893C11.465 51.6014 11.6355 51.356 11.6598 51.109C11.6459 51.109 11.6477 51.0916 11.6477 51.0846Z" fill="#263238"/>
<path d="M9.03244 49.6387C8.56438 49.9084 8.56438 50.3469 9.03244 50.6183C9.29548 50.7522 9.58643 50.8219 9.88156 50.8219C10.1767 50.8219 10.4676 50.7522 10.7307 50.6183C11.2005 50.3469 11.2005 49.9084 10.7307 49.6387C10.4676 49.5048 10.1767 49.4351 9.88156 49.4351C9.58643 49.4351 9.29548 49.5048 9.03244 49.6387Z" fill="#37474F"/>
<path d="M10.1253 43.6636H9.63805V49.938C9.63701 49.9617 9.64308 49.9851 9.65549 50.0052C9.6679 50.0254 9.68607 50.0414 9.70766 50.0511C9.76162 50.0783 9.82121 50.0925 9.88166 50.0925C9.9421 50.0925 10.0017 50.0783 10.0557 50.0511C10.0777 50.042 10.0963 50.0262 10.1088 50.0059C10.1213 49.9855 10.1271 49.9618 10.1253 49.938V43.6636Z" fill="#455A64"/>
<path d="M13.365 43.4533L11.7242 39.2773H8.03713L6.39805 43.4533C6.16315 44.1076 6.48505 44.8158 7.36375 45.3221C8.75575 46.1242 11.0073 46.1242 12.3958 45.3221C13.278 44.8158 13.5982 44.1076 13.365 43.4533Z" fill="#BA68C8"/>
<path d="M8.54689 40.2724C8.96066 40.4816 9.41782 40.5906 9.88147 40.5906C10.3451 40.5906 10.8023 40.4816 11.216 40.2724C11.9538 39.8461 11.9538 39.1571 11.216 38.7308C10.8023 38.5216 10.3451 38.4126 9.88147 38.4126C9.41782 38.4126 8.96066 38.5216 8.54689 38.7308C7.81087 39.1501 7.81087 39.8461 8.54689 40.2724Z" fill="#BA68C8"/>
<path opacity="0.6" d="M8.54689 40.2724C8.96066 40.4816 9.41782 40.5906 9.88147 40.5906C10.3451 40.5906 10.8023 40.4816 11.216 40.2724C11.9538 39.8461 11.9538 39.1571 11.216 38.7308C10.8023 38.5216 10.3451 38.4126 9.88147 38.4126C9.41782 38.4126 8.96066 38.5216 8.54689 38.7308C7.81087 39.1501 7.81087 39.8461 8.54689 40.2724Z" fill="white"/>
<path d="M9.88158 40.3229C9.47945 40.332 9.08168 40.2379 8.72622 40.0497C8.45652 39.8948 8.30688 39.7017 8.30688 39.5016C8.30688 39.3015 8.45652 39.1101 8.72622 38.9535C9.08168 38.7652 9.47945 38.6712 9.88158 38.6803C10.2843 38.6713 10.6825 38.7654 11.0387 38.9535C11.3084 39.1101 11.4563 39.3015 11.4563 39.5016C11.4563 39.7017 11.3084 39.8948 11.0387 40.0497C10.6825 40.2378 10.2843 40.3318 9.88158 40.3229Z" fill="#BA68C8"/>
</svg>
