<svg width="70" height="70" viewBox="0 0 70 70" fill="none" xmlns="http://www.w3.org/2000/svg">
<path d="M35 69.5C54.0538 69.5 69.5 54.0538 69.5 35C69.5 15.9462 54.0538 0.5 35 0.5C15.9462 0.5 0.5 15.9462 0.5 35C0.5 54.0538 15.9462 69.5 35 69.5Z" fill="white" stroke="#263238" stroke-linecap="round" stroke-linejoin="round"/>
<path d="M21.5032 24.5418C19.8308 23.9334 18.2291 23.146 16.7259 22.1934C13.566 20.3286 8.78871 20.4092 8.13831 22.0323C7.48791 23.6554 8.46639 25.0253 7.81599 25.8368C7.16559 26.6484 5.70938 26.8096 5.87054 27.6211C6.0317 28.4327 7.59725 28.8356 7.33249 29.3478C7.06772 29.8601 6.11228 30.8041 6.44035 31.2127C6.86185 31.6386 7.32242 32.024 7.81599 32.3639C7.81599 32.3639 8.86928 31.6329 6.92384 33.515C4.97839 35.3971 5.54822 36.4274 5.54822 36.4274C5.54822 36.4274 6.19861 37.3196 5.95111 38.0448C5.70361 38.77 6.6821 39.2593 6.6821 39.2593C7.21805 39.7448 7.54416 40.4198 7.5915 41.1414C7.51092 42.1947 8.39731 43.5703 8.39731 43.5703C8.39731 43.5703 12.0465 44.7215 11.9659 45.297C11.8853 45.8726 11.1543 46.9144 11.3155 47.4842C11.4766 48.054 13.094 47.8871 13.5832 47.8871C14.0725 47.8871 14.556 48.3706 14.4754 49.9132C14.3948 51.4557 15.4424 51.7723 15.4424 51.7723C15.4424 51.7723 18.4411 52.8256 18.5217 53.1479C18.6023 53.4702 17.0655 54.1206 19.4944 54.04C21.9233 53.9594 23.1378 54.2818 22.0845 53.3954C21.0312 52.509 19.8973 50.9665 18.844 50.7995C17.7907 50.6326 16.0122 49.1822 17.3878 48.9404C18.3263 48.8245 19.2787 48.9637 20.1448 49.3433L20.8297 50.2815L23.0975 50.8571C23.0975 50.8571 20.9909 52.0773 22.7752 52.6414C24.5595 53.2054 25.0429 52.4802 25.1235 53.1249C25.2041 53.7695 25.5264 55.1509 25.5264 55.1509C25.5264 55.1509 25.2041 54.748 26.4186 55.1509C27.633 55.5538 27.3913 46.5173 26.6603 45.5963C25.8561 44.7915 24.9597 44.0844 23.9896 43.4897L24.8012 40.8996L24.312 39.0348C24.312 39.0348 16.7259 36.767 21.5032 24.5418Z" fill="#92E3A9" stroke="#263238" stroke-linecap="round" stroke-linejoin="round"/>
<path d="M8.70776 32.3984C8.70776 32.3984 10.895 31.9898 13.3124 31.6675C15.7298 31.3451 14.8491 30.8559 15.983 30.453C17.1169 30.0501 17.6004 30.453 17.6004 30.453" stroke="#263238" stroke-linecap="round" stroke-linejoin="round"/>
<path d="M7.97656 28.5884C8.2183 28.5884 11.5394 28.8359 13.8071 29.0777C16.0749 29.3194 17.2088 28.3467 17.2088 28.3467H18.2621" stroke="#263238" stroke-linecap="round" stroke-linejoin="round"/>
<path d="M9.03003 41.3027C9.03003 41.3027 13.4044 39.363 14.2102 39.363C15.016 39.363 15.5916 40.0882 16.1557 39.0349C16.7197 37.9816 16.3168 37.337 16.8061 36.934C17.2953 36.5311 16.8061 36.606 17.2895 36.5254" stroke="#263238" stroke-linecap="round" stroke-linejoin="round"/>
<path d="M14.5381 46.8911C16.0749 46.4882 15.1137 44.2204 16.8059 44.0592C18.498 43.8981 19.3959 43.9787 20.9327 43.4837C22.4695 42.9887 23.1199 42.5915 23.2005 42.3325" stroke="#263238" stroke-linecap="round" stroke-linejoin="round"/>
<path d="M30.4071 17.8999C30.4071 17.8999 29.9236 15.7933 30.6546 14.6594C31.3856 13.5255 34.298 13.9342 35.2592 14.1759C36.2204 14.4177 37.4464 15.2292 37.4464 13.5313C37.4464 11.8333 37.0435 11.016 36.3931 10.6131C35.7427 10.2102 36.6406 9.31806 35.6678 8.91516C35.2197 8.74603 34.76 8.60946 34.2922 8.5065C33.6418 8.26476 33.3195 6.96971 32.3468 6.96971C31.3741 6.96971 31.374 7.61436 30.81 7.29204C30.2459 6.96971 29.6588 6.14088 29.0257 6.31931C28.4487 6.56508 27.9263 6.92313 27.4889 7.37262C27.1317 7.1353 26.6953 7.04844 26.2744 7.13087C25.624 7.29203 25.5435 7.86185 24.7319 7.86185C23.9203 7.86185 22.7922 6.7107 22.303 7.05029C21.7752 7.37382 21.3315 7.81758 21.0079 8.34534C20.9274 8.66766 19.7935 8.18418 19.31 8.82882C18.8265 9.47347 18.579 10.2102 18.2567 10.3714C17.9344 10.5325 17.1055 10.6937 17.1055 10.9469C17.1055 11.2002 17.2667 11.9197 17.1055 12.1614C16.9183 12.3843 16.6992 12.5783 16.4551 12.737C16.4551 12.737 16.7026 13.7903 16.3746 14.1126C15.8199 14.5139 15.2327 14.8681 14.619 15.1717C14.619 15.1717 15.4249 15.9832 15.022 16.3228C14.619 16.6624 14.0492 16.5646 13.8708 16.8984C13.6924 17.2322 14.1125 18.1934 14.1125 18.1934C14.1125 18.1934 15.6551 19.005 16.4609 19.4942C17.2667 19.9835 17.9229 20.5418 20.3518 19.0856C22.7807 17.6294 25.2096 17.5488 26.1075 18.0323C27.0054 18.5158 28.312 20.3518 28.312 20.3518C28.312 20.3518 29.6819 20.9274 30.4071 17.8999Z" fill="#92E3A9" stroke="#263238" stroke-linecap="round" stroke-linejoin="round"/>
<path d="M31.7654 7.94287C31.4639 8.06605 31.2086 8.28047 31.0352 8.55607C30.8618 8.83167 30.779 9.15462 30.7984 9.47966C30.6836 10.6544 30.4385 11.8127 30.0674 12.9331L29.2559 14.3087" stroke="#263238" stroke-linecap="round" stroke-linejoin="round"/>
<path d="M35.1837 10.1289C34.4694 10.5493 33.8167 11.0665 33.244 11.6657C32.6387 12.3041 31.9886 12.8985 31.2986 13.4442" stroke="#263238" stroke-linecap="round" stroke-linejoin="round"/>
<path d="M22.7173 8.50635C22.7173 8.50635 24.7375 10.613 24.9045 11.908" stroke="#263238" stroke-linecap="round" stroke-linejoin="round"/>
<path d="M18.0205 12.4775C18.6133 13.0445 19.296 13.5094 20.0408 13.8532C20.8523 14.0949 21.8251 14.4287 21.8251 14.4287C21.8251 14.4287 23.7705 15.2403 24.5763 15.5799" stroke="#263238" stroke-linecap="round" stroke-linejoin="round"/>
<path d="M52.5551 39.8404C52.5551 39.8404 54.6214 40.4735 55.2373 41.6707C55.8531 42.8679 54.0458 45.1932 53.3436 45.9127C52.6414 46.6322 51.3406 47.2768 52.8141 48.1287C54.2876 48.9805 55.1912 49.0323 55.8646 48.6755C56.5381 48.3186 56.8661 49.5331 57.7007 48.8942C58.5353 48.2553 58.2072 48.3186 58.7425 47.91C59.2778 47.5013 60.5556 47.8351 61.0448 46.9948C61.5341 46.1544 60.97 45.8436 61.5341 45.504C62.0981 45.1645 63.0824 45.0896 63.2608 44.445C63.338 43.8222 63.2911 43.1904 63.1227 42.5859C63.3152 42.4918 63.487 42.3604 63.6283 42.1994C63.7696 42.0383 63.8775 41.8508 63.9457 41.6477C64.1299 41.003 63.681 40.6519 64.0839 39.921C64.4868 39.19 66.0408 38.8043 66.0005 38.223C65.9879 37.6028 65.826 36.9947 65.5286 36.4502C65.2868 36.22 66.2768 35.4833 65.9602 34.7235C65.6437 33.9638 65.1487 33.4573 65.1487 33.0946C65.1487 32.732 65.4365 31.9435 65.2235 31.8284C65.0105 31.7133 64.3026 31.483 64.1702 31.2528C64.0776 30.9796 64.0234 30.6948 64.009 30.4067C64.009 30.4067 62.973 30.0901 62.8579 29.6469C62.7984 28.9575 62.7984 28.2643 62.8579 27.5749C62.8579 27.5749 61.7528 27.8742 61.6722 27.3619C61.5916 26.8496 61.9485 26.3949 61.7528 26.0956C61.5571 25.7963 60.5095 25.6582 60.5095 25.6582C60.5095 25.6582 59.0361 26.5849 58.2072 27.0396C57.3784 27.4943 56.5611 27.7763 56.6071 30.6082C56.6532 33.44 55.5078 35.5869 54.6444 36.1107C53.7811 36.6344 51.5133 36.8301 51.5133 36.8301C51.5133 36.8301 50.3218 37.7108 52.5551 39.8404Z" fill="#92E3A9" stroke="#263238" stroke-linecap="round" stroke-linejoin="round"/>
<path d="M60.4866 46.0165C60.5312 45.6932 60.4736 45.3641 60.3219 45.0751C60.1702 44.7861 59.9319 44.5518 59.6405 44.4049C58.6723 43.7157 57.7842 42.9203 56.9929 42.0335L56.2043 40.6406" stroke="#263238" stroke-linecap="round" stroke-linejoin="round"/>
<path d="M56.895 47.8699C56.8864 47.0399 56.7644 46.2149 56.5324 45.4179C56.2823 44.5724 56.09 43.7109 55.9568 42.8394" stroke="#263238" stroke-linecap="round" stroke-linejoin="round"/>
<path d="M64.5388 37.8838C64.5388 37.8838 61.7012 38.5802 60.5098 38.0737" stroke="#263238" stroke-linecap="round" stroke-linejoin="round"/>
<path d="M63.4506 31.8286C62.6617 32.0585 61.9166 32.4184 61.2461 32.8934C60.6303 33.469 59.8647 34.1539 59.8647 34.1539C59.8647 34.1539 58.1898 35.4317 57.5049 35.967" stroke="#263238" stroke-linecap="round" stroke-linejoin="round"/>
<path d="M16.3629 30.8211C20.3206 30.8211 23.5289 27.6128 23.5289 23.6552C23.5289 19.6975 20.3206 16.4893 16.3629 16.4893C12.4053 16.4893 9.19702 19.6975 9.19702 23.6552C9.19702 27.6128 12.4053 30.8211 16.3629 30.8211Z" fill="white" stroke="#263238" stroke-linecap="round" stroke-linejoin="round"/>
<path d="M16.3629 30.0442C20.3206 30.0442 23.5289 26.8359 23.5289 22.8783C23.5289 18.9207 20.3206 15.7124 16.3629 15.7124C12.4053 15.7124 9.19702 18.9207 9.19702 22.8783C9.19702 26.8359 12.4053 30.0442 16.3629 30.0442Z" fill="white" stroke="#263238" stroke-linecap="round" stroke-linejoin="round"/>
<path d="M18.8309 28.7922C22.0929 27.4303 23.6333 23.682 22.2714 20.42C20.9096 17.158 17.1612 15.6176 13.8993 16.9795C10.6373 18.3413 9.09691 22.0897 10.4588 25.3516C11.8206 28.6136 15.5689 30.154 18.8309 28.7922Z" fill="white" stroke="#263238" stroke-width="0.75" stroke-linecap="round" stroke-linejoin="round"/>
<path d="M17.0534 22.2279C17.1701 22.226 17.2853 22.2 17.3915 22.1515C17.4977 22.103 17.5928 22.033 17.6706 21.9459C17.7485 21.8589 17.8075 21.7567 17.8439 21.6457C17.8803 21.5347 17.8933 21.4174 17.8822 21.3012C17.8822 20.3803 16.6447 19.6838 15.1943 20.3803C13.7438 21.0767 12.7826 22.3833 13.1279 22.5329C13.4733 22.6826 14.9871 22.4581 14.8547 22.8437C14.7223 23.2294 13.0646 23.1545 12.6502 23.1545C12.5068 23.154 12.3658 23.1917 12.2419 23.2638C12.1179 23.336 12.0154 23.4399 11.9451 23.5648C11.8747 23.6898 11.8389 23.8312 11.8414 23.9746C11.844 24.118 11.8847 24.2581 11.9595 24.3805C12.2991 25.2266 12.1667 24.1503 13.3352 24.1503C14.5036 24.1503 15.4015 24.2251 15.1252 24.4553C14.8489 24.6856 13.4733 25.1518 14.4403 25.3014C15.4072 25.4511 18.711 25.382 18.4348 24.7662C18.1585 24.1503 16.708 23.9143 17.3987 23.6841C18.0894 23.4538 18.7801 23.0682 19.2636 23.1488C19.7471 23.2294 20.4147 22.3775 19.8392 22.1473C19.2636 21.9171 18.0894 22.4581 17.0534 22.2279Z" stroke="#263238" stroke-width="0.75" stroke-linecap="round" stroke-linejoin="round"/>
<path d="M16.8001 18.8377C16.8001 18.8377 15.7238 16.5354 15.8734 17.8362C16.0231 19.137 16.5929 20.0695 16.8001 18.8377Z" stroke="#263238" stroke-width="0.75" stroke-linecap="round" stroke-linejoin="round"/>
<path d="M14.1582 19.8216C14.1582 19.8216 12.397 17.974 12.961 19.1655C13.5251 20.3569 14.3309 21.0649 14.1582 19.8216Z" stroke="#263238" stroke-width="0.75" stroke-linecap="round" stroke-linejoin="round"/>
<path d="M19.4422 19.8216C19.4422 19.8216 21.2035 17.974 20.6394 19.1655C20.0754 20.3569 19.2696 21.0649 19.4422 19.8216Z" stroke="#263238" stroke-width="0.75" stroke-linecap="round" stroke-linejoin="round"/>
<path d="M20.2883 23.69C20.2883 23.69 22.8323 23.4943 21.6179 24.0008C20.4034 24.5073 19.3328 24.5016 20.2883 23.69Z" stroke="#263238" stroke-width="0.75" stroke-linecap="round" stroke-linejoin="round"/>
<path d="M19.2866 25.5312C19.2866 25.5312 21.5889 26.6018 20.2881 26.4522C18.9873 26.3025 18.0549 25.7787 19.2866 25.5312Z" stroke="#263238" stroke-width="0.75" stroke-linecap="round" stroke-linejoin="round"/>
<path d="M17.5946 27.7078C17.5946 27.7078 16.8579 25.2673 16.8234 26.5566C16.7888 27.8459 17.1917 28.8935 17.5946 27.7078Z" stroke="#263238" stroke-width="0.75" stroke-linecap="round" stroke-linejoin="round"/>
<path d="M14.2044 26.5391C14.2044 26.5391 12.8633 28.7147 13.8763 27.8629C14.8893 27.011 15.3613 26.0556 14.2044 26.5391Z" stroke="#263238" stroke-width="0.75" stroke-linecap="round" stroke-linejoin="round"/>
<path d="M27.2128 23.6962C30.7795 23.6962 33.6708 20.8049 33.6708 17.2382C33.6708 13.6716 30.7795 10.7803 27.2128 10.7803C23.6462 10.7803 20.7549 13.6716 20.7549 17.2382C20.7549 20.8049 23.6462 23.6962 27.2128 23.6962Z" fill="white" stroke="#263238" stroke-linecap="round" stroke-linejoin="round"/>
<path d="M27.2128 22.9936C30.7795 22.9936 33.6708 20.1022 33.6708 16.5356C33.6708 12.969 30.7795 10.0776 27.2128 10.0776C23.6462 10.0776 20.7549 12.969 20.7549 16.5356C20.7549 20.1022 23.6462 22.9936 27.2128 22.9936Z" fill="white" stroke="#263238" stroke-linecap="round" stroke-linejoin="round"/>
<path d="M32.8152 17.897C33.569 14.8023 31.6714 11.6824 28.5767 10.9286C25.482 10.1748 22.3622 12.0724 21.6083 15.1671C20.8545 18.2618 22.7521 21.3816 25.8468 22.1354C28.9415 22.8893 32.0614 20.9916 32.8152 17.897Z" fill="white" stroke="#263238" stroke-width="0.75" stroke-linecap="round" stroke-linejoin="round"/>
<path d="M27.8398 15.9479C27.9447 15.9461 28.0481 15.9225 28.1435 15.8786C28.2388 15.8348 28.3241 15.7717 28.3939 15.6933C28.4636 15.6149 28.5164 15.5229 28.5488 15.4231C28.5812 15.3232 28.5926 15.2178 28.5823 15.1134C28.5823 14.2788 27.4657 13.6571 26.1591 14.2788C24.8525 14.9004 23.9892 16.0861 24.3 16.2242C24.6108 16.3623 25.9749 16.1551 25.8483 16.5005C25.7217 16.8458 24.2367 16.7825 23.8625 16.7825C23.7323 16.7812 23.6042 16.8149 23.4915 16.8802C23.3788 16.9455 23.2858 17.0399 23.2222 17.1536C23.1586 17.2672 23.1268 17.3959 23.1301 17.526C23.1334 17.6562 23.1717 17.7831 23.2409 17.8934C23.5517 18.6531 23.4309 17.6804 24.4842 17.6804C25.5375 17.6804 26.349 17.7495 26.0958 17.9624C25.8425 18.1754 24.6108 18.5841 25.4799 18.7222C26.349 18.8603 29.3248 18.7913 29.0773 18.2387C28.8298 17.6862 27.529 17.4732 28.1448 17.266C28.7607 17.0588 29.3881 16.6904 29.8255 16.7825C30.263 16.8746 30.8788 16.0861 30.3205 15.8789C29.7622 15.6717 28.7665 16.1551 27.8398 15.9479Z" stroke="#263238" stroke-width="0.75" stroke-linecap="round" stroke-linejoin="round"/>
<path d="M27.6268 12.8695C27.6268 12.8695 26.6541 10.7859 26.7922 11.9658C26.9304 13.1458 27.4196 14.0206 27.6268 12.8695Z" stroke="#263238" stroke-width="0.75" stroke-linecap="round" stroke-linejoin="round"/>
<path d="M25.2269 13.7781C25.2269 13.7781 23.6383 12.1147 24.1448 13.2026C24.6514 14.2904 25.3823 14.9005 25.2269 13.7781Z" stroke="#263238" stroke-width="0.75" stroke-linecap="round" stroke-linejoin="round"/>
<path d="M29.9866 13.7781C29.9866 13.7781 31.5752 12.1147 31.0629 13.2026C30.5507 14.2904 29.8312 14.9005 29.9866 13.7781Z" stroke="#263238" stroke-width="0.75" stroke-linecap="round" stroke-linejoin="round"/>
<path d="M30.7521 17.2664C30.7521 17.2664 33.0544 17.088 31.9493 17.5485C30.8442 18.0089 29.8888 17.9917 30.7521 17.2664Z" stroke="#263238" stroke-width="0.75" stroke-linecap="round" stroke-linejoin="round"/>
<path d="M29.8429 18.9355C29.8429 18.9355 31.9322 19.9025 30.7523 19.7644C29.5723 19.6262 28.7377 19.1485 29.8429 18.9355Z" stroke="#263238" stroke-width="0.75" stroke-linecap="round" stroke-linejoin="round"/>
<path d="M28.3118 20.8873C28.3118 20.8873 27.6441 18.6828 27.6153 19.8742C27.5866 21.0657 27.9607 21.9521 28.3118 20.8873Z" stroke="#263238" stroke-width="0.75" stroke-linecap="round" stroke-linejoin="round"/>
<path d="M25.2671 19.8332C25.2671 19.8332 24.0584 21.7902 24.9678 21.0247C25.8772 20.2592 26.3089 19.4016 25.2671 19.8332Z" stroke="#263238" stroke-width="0.75" stroke-linecap="round" stroke-linejoin="round"/>
<path d="M58.3105 39.9208C59.5141 40.3492 60.5635 41.1249 61.3261 42.1498C62.0886 43.1746 62.5301 44.4027 62.5947 45.6785C62.6592 46.9544 62.3439 48.2207 61.6887 49.3173C61.0335 50.4139 60.0677 51.2916 58.9136 51.8392C57.7594 52.3869 56.4688 52.58 55.205 52.394C53.9411 52.2081 52.7608 51.6515 51.8133 50.7946C50.8658 49.9377 50.1937 48.8191 49.8821 47.5802C49.5705 46.3414 49.6333 45.0379 50.0626 43.8347C50.6378 42.2223 51.8298 40.9044 53.3764 40.1704C54.923 39.4365 56.6978 39.3467 58.3105 39.9208Z" fill="white" stroke="#263238" stroke-linecap="round" stroke-linejoin="round"/>
<path d="M57.666 39.6959C58.8688 40.1252 59.9174 40.9015 60.6791 41.9267C61.4408 42.9518 61.8814 44.1798 61.9452 45.4554C62.009 46.731 61.6932 47.9968 61.0377 49.0929C60.3821 50.189 59.4163 51.0661 58.2623 51.6133C57.1083 52.1605 55.818 52.3533 54.5545 52.1672C53.291 51.9811 52.111 51.4246 51.1637 50.568C50.2164 49.7113 49.5445 48.593 49.2327 47.3545C48.921 46.116 48.9834 44.8129 49.4122 43.6098C49.9887 41.9971 51.1818 40.679 52.7293 39.9452C54.2769 39.2113 56.0524 39.1217 57.666 39.6959Z" fill="white" stroke="#263238" stroke-linecap="round" stroke-linejoin="round"/>
<path d="M57.4185 40.3471C58.4893 40.731 59.4223 41.4237 60.0997 42.3375C60.7771 43.2514 61.1685 44.3455 61.2245 45.4816C61.2805 46.6178 60.9986 47.7451 60.4144 48.7211C59.8301 49.6972 58.9698 50.4782 57.942 50.9657C56.9141 51.4531 55.7649 51.625 54.6395 51.4597C53.514 51.2944 52.4627 50.7994 51.6184 50.037C50.7741 49.2747 50.1747 48.2793 49.8957 47.1765C49.6168 46.0736 49.6708 44.9129 50.0511 43.8408C50.3044 43.1269 50.6961 42.47 51.2037 41.9077C51.7114 41.3455 52.3251 40.889 53.0095 40.5644C53.694 40.2398 54.4357 40.0536 55.1923 40.0163C55.9489 39.979 56.7055 40.0914 57.4185 40.3471Z" fill="white" stroke="#263238" stroke-width="0.75" stroke-linecap="round" stroke-linejoin="round"/>
<path d="M55.1392 44.9916C55.1734 44.892 55.1866 44.7863 55.1778 44.6813C55.169 44.5763 55.1385 44.4743 55.0881 44.3817C55.0378 44.2892 54.9687 44.2081 54.8854 44.1437C54.802 44.0792 54.7062 44.0328 54.6039 44.0074C53.8211 43.7311 52.8772 44.583 53.0096 46.0104C53.142 47.4378 53.9766 48.6638 54.2125 48.4163C54.4485 48.1688 54.7133 46.8162 54.9953 47.0522C55.2773 47.2882 54.7133 48.6638 54.5924 49.0149C54.4715 49.366 54.5924 50.0107 55.427 49.9704C56.2616 49.9301 55.2946 49.7286 55.6457 48.7329C55.9968 47.7371 56.3422 47.0061 56.4515 47.3054C56.5609 47.6047 56.5379 48.9171 56.9638 48.1458C57.3897 47.3745 58.3221 44.5427 57.7178 44.5945C57.1134 44.6463 56.4746 45.7974 56.4861 45.1413C56.4976 44.4851 56.3825 43.7887 56.5954 43.4146C56.8084 43.0404 56.2961 42.1828 55.9105 42.6433C55.5249 43.1037 55.6515 44.1858 55.1392 44.9916Z" stroke="#263238" stroke-width="0.75" stroke-linecap="round" stroke-linejoin="round"/>
<path d="M52.1925 44.1631C52.1925 44.1631 49.8902 44.3818 51.0413 44.6466C52.1925 44.9113 53.1709 44.7329 52.1925 44.1631Z" stroke="#263238" stroke-width="0.75" stroke-linecap="round" stroke-linejoin="round"/>
<path d="M52.2212 46.7246C52.2212 46.7246 50.1204 47.657 51.3061 47.5419C52.4918 47.4268 53.3263 46.9548 52.2212 46.7246Z" stroke="#263238" stroke-width="0.75" stroke-linecap="round" stroke-linejoin="round"/>
<path d="M53.8212 42.224C53.8212 42.224 52.7851 40.1692 53.6312 41.0095C54.4773 41.8498 54.8227 42.765 53.8212 42.224Z" stroke="#263238" stroke-width="0.75" stroke-linecap="round" stroke-linejoin="round"/>
<path d="M57.3608 42.6903C57.3608 42.6903 57.9364 40.4743 58.0285 41.66C58.1206 42.8457 57.758 43.7494 57.3608 42.6903Z" stroke="#263238" stroke-width="0.75" stroke-linecap="round" stroke-linejoin="round"/>
<path d="M58.6332 44.1059C58.6332 44.1059 60.2391 42.4655 59.7153 43.5303C59.1915 44.5951 58.4606 45.2225 58.6332 44.1059Z" stroke="#263238" stroke-width="0.75" stroke-linecap="round" stroke-linejoin="round"/>
<path d="M59.9682 46.1948C59.9682 46.1948 57.6659 46.0797 58.7768 46.5056C59.8876 46.9316 60.8373 46.897 59.9682 46.1948Z" stroke="#263238" stroke-width="0.75" stroke-linecap="round" stroke-linejoin="round"/>
<path d="M57.9368 48.7218C57.9368 48.7218 59.3758 50.5118 58.9614 49.4009C58.5469 48.2901 57.8793 47.5936 57.9368 48.7218Z" stroke="#263238" stroke-width="0.75" stroke-linecap="round" stroke-linejoin="round"/>
<path d="M31.8691 22.2913C31.8691 22.2913 28.7207 20.8179 26.9364 20.8179C25.1521 20.8179 22.7347 21.8712 21.054 25.6469C19.3733 29.4227 18.4294 33.1294 20.1101 36.3584C21.7907 39.5874 24.9391 41.0781 26.9364 40.658C28.9336 40.2378 30.9251 36.8822 32.6058 31.1092C34.2865 25.3361 33.3368 23.1317 31.8691 22.2913Z" fill="white" stroke="#263238" stroke-linecap="round" stroke-linejoin="round"/>
<path d="M21.0537 25.6469C19.3788 29.4285 18.4291 33.1294 20.1098 36.3584C20.6157 37.4118 21.3472 38.3409 22.2524 39.08C23.1576 39.8191 24.2143 40.3499 25.3475 40.6349C25.1216 40.4756 24.8783 40.3424 24.6223 40.2378C23.5748 39.8176 22.0034 38.2463 21.4739 34.154C20.9444 30.0616 23.1546 26.3837 25.572 23.5519C27.9894 20.72 31.8688 22.2913 31.8688 22.2913C31.8688 22.2913 28.7204 20.8179 26.9361 20.8179C25.1518 20.8179 22.7344 21.8712 21.0537 25.6469Z" fill="white" stroke="#263238" stroke-linecap="round" stroke-linejoin="round"/>
<path d="M27.6844 30.4873C27.6844 30.4873 26.6772 23.5804 27.034 23.3559C27.3909 23.1315 28.9795 21.917 29.1234 23.0681C29.2673 24.2193 27.6844 30.4873 27.6844 30.4873Z" fill="#92E3A9"/>
<path d="M27.1091 30.8438C27.1091 30.8438 26.9652 23.6434 26.0097 24.4377C25.0543 25.232 23.5635 26.6709 24.0643 26.8839C24.565 27.0968 27.1091 30.8438 27.1091 30.8438Z" fill="#92E3A9"/>
<path d="M27.109 30.8445C27.109 30.8445 24.0124 27.535 23.5807 27.6789C23.149 27.8228 22.7864 29.4747 22.7864 30.269C22.7864 31.0633 27.109 30.8445 27.109 30.8445Z" fill="#92E3A9"/>
<path d="M27.1088 30.8442C27.1088 30.8442 23.0049 31.2759 22.5732 31.9263C22.1415 32.5767 21.9976 34.879 22.3545 35.1668C22.7114 35.4546 27.1088 30.8442 27.1088 30.8442Z" fill="#92E3A9"/>
<path d="M27.109 30.8442C27.109 30.8442 22.8612 35.3798 22.9303 36.0244C22.9993 36.6691 24.0124 38.9023 25.0887 38.3267C26.165 37.7511 27.109 30.8442 27.109 30.8442Z" fill="#92E3A9"/>
<path d="M29.9869 22.6538L27.6846 30.5047C27.6846 30.5047 31.1898 26.7404 31.7654 24.795C32.341 22.8495 29.9869 22.6538 29.9869 22.6538Z" fill="#92E3A9"/>
<path d="M27.3965 31.3511C27.3965 31.3511 25.3071 38.4767 25.9575 38.9832C26.6079 39.4897 27.6843 39.4897 28.4728 38.4076C29.2613 37.3256 27.3965 31.3511 27.3965 31.3511Z" fill="#92E3A9"/>
<path d="M27.6846 30.4873C27.6846 30.4873 29.1983 36.9683 29.4861 37.3251C29.7739 37.682 30.9941 35.3106 30.7812 34.0156C30.5682 32.7205 27.6846 30.4873 27.6846 30.4873Z" fill="#92E3A9"/>
<path d="M31.1897 33.0142C31.1897 33.0142 32.4156 30.2745 32.4847 29.1233C32.5538 27.9722 27.6614 30.4932 27.6614 30.4932C29.0359 31.014 30.2516 31.8826 31.1897 33.0142Z" fill="#92E3A9"/>
<path d="M28.8875 29.5611C28.8875 29.5611 32.3409 24.6629 32.4848 25.4572C32.6287 26.2515 32.9165 27.5466 32.7035 27.9034C32.4906 28.2603 28.8875 29.5611 28.8875 29.5611Z" fill="#92E3A9"/>
<path d="M37.843 17.1054C37.843 17.1054 34.6946 15.6377 32.9104 15.6377C31.1261 15.6377 28.7144 16.6852 27.0337 20.4668C25.3531 24.2483 24.4091 27.9147 26.0898 31.1725C27.7705 34.4302 30.9189 35.8922 32.9161 35.4778C34.9134 35.0634 36.9049 31.6963 38.5855 25.9232C40.2662 20.1502 39.3165 17.9458 37.843 17.1054Z" fill="white" stroke="#263238" stroke-linecap="round" stroke-linejoin="round"/>
<path d="M27.0337 20.4668C25.3531 24.2425 24.4091 27.9147 26.0898 31.1725C26.596 32.2262 27.3275 33.1559 28.2326 33.8959C29.1377 34.6359 30.1942 35.168 31.3275 35.4548C31.1027 35.2935 30.8592 35.1602 30.6023 35.0576C29.5548 34.6374 27.9777 33.0604 27.4539 28.968C26.9301 24.8757 29.1346 21.1978 31.5462 18.3659C33.9579 15.5341 37.843 17.1054 37.843 17.1054C37.843 17.1054 34.6946 15.6377 32.9104 15.6377C31.1261 15.6377 28.7144 16.6852 27.0337 20.4668Z" fill="white" stroke="#263238" stroke-linecap="round" stroke-linejoin="round"/>
<path d="M33.6589 25.3023C33.6589 25.3023 32.6517 18.3954 33.0143 18.1709C33.3769 17.9464 34.954 16.7319 35.1036 17.8831C35.2533 19.0342 33.6589 25.3023 33.6589 25.3023Z" fill="#92E3A9"/>
<path d="M33.0833 25.6583C33.0833 25.6583 32.9394 18.4578 32.007 19.2521C31.0746 20.0464 29.555 21.5026 30.0385 21.6983C30.522 21.894 33.0833 25.6583 33.0833 25.6583Z" fill="#92E3A9"/>
<path d="M33.0833 25.6585C33.0833 25.6585 29.9867 22.3489 29.555 22.4928C29.1234 22.6367 28.7607 24.2944 28.7607 25.0829C28.7607 25.8715 33.0833 25.6585 33.0833 25.6585Z" fill="#92E3A9"/>
<path d="M33.0834 25.6582C33.0834 25.6582 28.9795 26.0899 28.5478 26.7403C28.1161 27.3907 27.9722 29.693 28.3291 29.9808C28.686 30.2686 33.0834 25.6582 33.0834 25.6582Z" fill="#92E3A9"/>
<path d="M33.0836 25.6582C33.0836 25.6582 28.8358 30.1995 28.9106 30.8384C28.9855 31.4773 29.987 33.7163 31.0691 33.1407C32.1511 32.5651 33.0836 25.6582 33.0836 25.6582Z" fill="#92E3A9"/>
<path d="M35.9671 17.4741L33.6648 25.325C33.6648 25.325 37.1931 21.578 37.7687 19.6325C38.3442 17.6871 35.9671 17.4741 35.9671 17.4741Z" fill="#92E3A9"/>
<path d="M49.608 16.2651C49.1744 17.4024 49.0648 18.6378 49.2915 19.8337C49.7116 21.618 49.9246 21.9345 49.9246 23.6152C49.9833 24.8929 49.6928 26.1624 49.0843 27.2874C48.5962 28.3612 47.9983 29.3816 47.3 30.3322C46.2467 31.6963 48.031 31.0689 45.5157 32.6345C43.0004 34.2 42.2579 35.1555 42.2579 35.5757C42.2579 35.9958 40.7902 37.5672 44.1516 37.4636C47.5129 37.36 51.8125 31.7941 52.5492 29.0659C53.286 26.3377 54.0169 20.4323 52.9694 18.4638C51.9218 16.4953 50.7592 15.5284 49.608 16.2651Z" fill="#A6A6A6" stroke="#263238" stroke-linecap="round" stroke-linejoin="round"/>
<path d="M50.4424 11.9596C50.6116 11.3494 50.5922 10.7023 50.3867 10.1034C50.1812 9.50449 49.7994 8.98177 49.2912 8.60397C47.5069 7.34346 44.042 8.70757 41.8375 11.6488C39.6331 14.59 39.823 15.8447 39.3165 16.898C38.81 17.9513 30.6023 30.8615 28.3806 36.1107C26.1588 41.36 24.0753 44.5084 24.7084 49.349C25.3415 54.1896 25.7559 58.4834 29.6411 61.108C33.5262 63.7326 33.0945 63.2031 33.5262 63.7268C33.9579 64.2506 34.3666 64.147 36.571 63.2031C38.7755 62.2591 41.5037 62.7829 43.9153 61.2116C46.327 59.6403 48.9574 57.7581 50.1085 55.5422C52.4866 51.3679 54.3552 46.9234 55.6744 42.3039C57.4586 35.7942 58.4026 29.7046 58.5062 27.7131C58.6098 25.7216 60.1869 20.8925 60.2905 18.6881C60.3941 16.4836 60.7106 16.0634 58.4026 13.5424C56.0945 11.0214 53.9937 11.9653 53.0497 12.9093C52.1058 13.8532 49.5963 14.59 49.5963 16.2706C49.5963 17.9513 51.4842 19.5226 51.8007 22.5674C52.1027 24.9038 51.8137 27.2785 50.9604 29.4743C50.0422 31.2699 48.88 32.9299 47.5069 34.407C46.3558 35.5582 43.6218 36.5079 43.311 35.5582C42.7194 33.4302 42.3339 31.2502 42.1598 29.0484C42.16 26.8444 42.7438 24.6798 43.852 22.7746C45.3197 20.0464 46.6839 18.2621 47.7372 16.4778C48.7905 14.6936 49.4984 14.9008 50.4424 11.9596Z" fill="#D1D1D1" stroke="#263238" stroke-linecap="round" stroke-linejoin="round"/>
<path d="M37.843 61.2986C36.4091 61.2602 34.9822 61.5108 33.6471 62.0353C32.4962 61.4014 31.4057 60.6635 30.3893 59.8308C29.2382 58.7775 25.8768 54.3686 26.1934 47.9682C26.5099 41.5678 31.2297 32.1169 32.3866 30.1254C33.5435 28.1339 38.2632 21.204 39.5237 19.1894C40.7842 17.1749 40.8878 16.3519 41.308 14.0438C41.5785 12.5646 43.357 10.4349 44.6003 9.09961C43.5261 9.76183 42.5868 10.6211 41.8318 11.6321C39.6273 14.5964 39.823 15.8454 39.3165 16.8987C38.81 17.952 30.6023 30.8621 28.3806 36.1114C26.1588 41.3606 24.0753 44.509 24.7084 49.3496C25.3415 54.1902 25.7559 58.484 29.6411 61.1086C33.5262 63.7332 33.0945 63.2037 33.5262 63.7275C33.9579 64.2513 34.3666 64.1477 36.571 63.2037C38.7755 62.2598 41.5037 62.7835 43.9153 61.2122C46.327 59.6409 48.9574 57.7588 50.1085 55.5428C49.2682 56.0666 45.5039 58.3746 43.5988 59.6351C41.6936 60.8957 40.4676 61.2986 37.843 61.2986Z" fill="#263238" stroke="#263238" stroke-linecap="round" stroke-linejoin="round"/>
<path d="M35.2532 47.2021C35.9617 47.3833 36.6921 47.4646 37.4231 47.4439" stroke="#263238" stroke-linecap="round" stroke-linejoin="round"/>
<path d="M29.3419 39.8867C29.3419 39.8867 29.2383 43.4553 31.8629 45.5504C32.5083 46.0681 33.2257 46.4888 33.9925 46.7994" stroke="#263238" stroke-linecap="round" stroke-linejoin="round"/>
<path d="M28.3979 47.4448C28.3979 47.4448 31.1262 48.3888 33.227 49.0161C35.3279 49.6435 36.3754 49.3327 36.3754 49.3327" stroke="#263238" stroke-linecap="round" stroke-linejoin="round"/>
<path d="M32.8242 52.3483C33.772 52.4172 34.7246 52.3198 35.6388 52.0605" stroke="#263238" stroke-linecap="round" stroke-linejoin="round"/>
<path d="M27.978 51.4326C29.1859 51.8108 30.4241 52.0842 31.679 52.2499" stroke="#263238" stroke-linecap="round" stroke-linejoin="round"/>
<path d="M38.5801 53.4238C38.5801 53.4238 43.5128 56.4686 46.5576 56.0485" stroke="#263238" stroke-linecap="round" stroke-linejoin="round"/>
<path d="M40.2607 50.593C40.2607 50.593 44.3531 52.6938 48.4454 51.2203C52.5378 49.7469 53.3839 46.915 53.3839 46.915" stroke="#263238" stroke-linecap="round" stroke-linejoin="round"/>
<path d="M51.801 44.9405C52.1602 44.5319 52.4464 44.0647 52.6471 43.5591" stroke="#263238" stroke-linecap="round" stroke-linejoin="round"/>
<path d="M40.5771 47.9796C43.0471 48.8234 45.7437 48.7105 48.1345 47.663C48.9505 47.2865 49.7225 46.8213 50.4368 46.2759" stroke="#263238" stroke-linecap="round" stroke-linejoin="round"/>
<path d="M40.5771 30.332C40.5771 30.332 35.4314 30.6486 32.4902 34.3208" stroke="#263238" stroke-linecap="round" stroke-linejoin="round"/>
<path d="M37.717 28.3748C38.8087 27.9556 39.9439 27.6602 41.1014 27.4941" stroke="#263238" stroke-linecap="round" stroke-linejoin="round"/>
<path d="M34.1711 30.0155C34.8813 29.6143 35.6113 29.2493 36.3583 28.9219" stroke="#263238" stroke-linecap="round" stroke-linejoin="round"/>
<path d="M38.1597 23.9265C39.6536 23.4961 41.1695 23.1464 42.701 22.8789" stroke="#263238" stroke-linecap="round" stroke-linejoin="round"/>
<path d="M45.0554 17.3588C45.3799 17.3187 45.7071 17.3033 46.0339 17.3128" stroke="#263238" stroke-linecap="round" stroke-linejoin="round"/>
<path d="M40.3643 18.6822C41.2553 18.3232 42.1662 18.0157 43.0925 17.7612" stroke="#263238" stroke-linecap="round" stroke-linejoin="round"/>
<path d="M54.2126 19.4136C54.2126 19.4136 57.3668 20.9907 58.0978 23.1951" stroke="#263238" stroke-linecap="round" stroke-linejoin="round"/>
<path d="M54.1147 24.3462C54.1147 24.3462 57.7927 26.447 57.9999 29.4918" stroke="#263238" stroke-linecap="round" stroke-linejoin="round"/>
<path d="M52.5437 32.6401C52.5437 32.6401 55.4791 34.9424 54.846 39.8866" stroke="#263238" stroke-linecap="round" stroke-linejoin="round"/>
<path d="M41.6249 37.3657C41.2351 37.5956 40.9255 37.9398 40.7381 38.3517C40.5507 38.7636 40.4946 39.2231 40.5774 39.668C40.7846 41.3487 41.1011 41.4523 40.7846 41.9703C39.6399 44.7896 38.6579 47.6722 37.8434 50.604C37.511 52.2346 36.9834 53.8193 36.272 55.3237C35.7232 56.4538 35.3672 57.6677 35.2188 58.9153" stroke="#263238" stroke-linecap="round" stroke-linejoin="round"/>
<path d="M44.5663 39.1499C44.5663 39.1499 44.4569 41.3544 43.6166 41.5616C42.9974 41.7433 42.3993 41.9903 41.8323 42.2983L41.1013 45.1301" stroke="#263238" stroke-linecap="round" stroke-linejoin="round"/>
<path d="M39.6272 35.3685C39.6272 35.3685 36.0586 35.1613 33.647 39.1501" stroke="#263238" stroke-linecap="round" stroke-linejoin="round"/>
</svg>
