<svg width="31" height="31" viewBox="0 0 31 31" fill="none" xmlns="http://www.w3.org/2000/svg">
<path d="M27.7709 8.39583H23.6763L21.3125 5.8125H13.5625V8.39583H20.1759L22.5396 10.9792H27.7709V26.4792H7.10421V14.8542H4.52087V26.4792C4.52087 27.9 5.68337 29.0625 7.10421 29.0625H27.7709C29.1917 29.0625 30.3542 27.9 30.3542 26.4792V10.9792C30.3542 9.55833 29.1917 8.39583 27.7709 8.39583ZM10.9792 18.7292C10.9792 22.2942 13.8725 25.1875 17.4375 25.1875C21.0025 25.1875 23.8959 22.2942 23.8959 18.7292C23.8959 15.1642 21.0025 12.2708 17.4375 12.2708C13.8725 12.2708 10.9792 15.1642 10.9792 18.7292ZM17.4375 14.8542C19.5688 14.8542 21.3125 16.5979 21.3125 18.7292C21.3125 20.8604 19.5688 22.6042 17.4375 22.6042C15.3063 22.6042 13.5625 20.8604 13.5625 18.7292C13.5625 16.5979 15.3063 14.8542 17.4375 14.8542ZM7.10421 8.39583H10.9792V5.8125H7.10421V1.9375H4.52087V5.8125H0.645874V8.39583H4.52087V12.2708H7.10421V8.39583Z" fill="black"/>
</svg>
