<svg width="88" height="88" viewBox="0 0 88 88" fill="none" xmlns="http://www.w3.org/2000/svg">
<path d="M41 74.573C59.8465 74.573 75.1246 73.681 75.1246 72.5807C75.1246 71.4804 59.8465 70.5884 41 70.5884C22.1535 70.5884 6.87537 71.4804 6.87537 72.5807C6.87537 73.681 22.1535 74.573 41 74.573Z" fill="#F5F5F5"/>
<path d="M76.1824 50.0967V50.1266H76.1155L75.8339 57.6541L75.4819 65.2221C75.4213 65.9379 75.2874 66.6456 75.0824 67.3341H6.58847C6.38345 66.6456 6.24958 65.9379 6.18895 65.2221L5.83695 57.6541L5.48495 50.1266H5.37231V50.0967H76.1824Z" fill="#263238"/>
<path opacity="0.8" d="M76.1824 50.0967V50.1266H76.1155L75.8339 57.6541L75.4819 65.2221C75.4213 65.9379 75.2874 66.6456 75.0824 67.3341H6.58847C6.38345 66.6456 6.24958 65.9379 6.18895 65.2221L5.83695 57.6541L5.48495 50.1266H5.37231V50.0967H76.1824Z" fill="white"/>
<path d="M5.53247 50.6547C29.0531 50.6759 52.5755 50.6319 76.0962 50.6547" stroke="#263238" stroke-width="0.75" stroke-miterlimit="10"/>
<path d="M5.7489 56.2056C29.1569 57.8072 52.5015 54.5705 75.9043 56.1756" stroke="#263238" stroke-width="0.75" stroke-miterlimit="10"/>
<path d="M6.01648 61.7622C29.2485 63.3338 52.4242 60.1166 75.6544 61.6918" stroke="#263238" stroke-width="0.75" stroke-miterlimit="10"/>
<path d="M6.5885 67.2637C29.4192 67.3358 52.2517 67.2954 75.0824 67.3446" stroke="#263238" stroke-width="0.75" stroke-miterlimit="10"/>
<path d="M7.6709 67.3025L7.54066 67.2884C7.8098 64.5398 7.89681 61.7764 7.80114 59.0164C7.66738 58.0466 7.60226 57.5609 7.47906 56.5911C7.29462 54.4233 7.31524 52.243 7.54066 50.0791L7.6709 50.0985C7.44187 52.2503 7.41947 54.4191 7.60402 56.5753C7.73074 57.5485 7.79586 58.0343 7.93314 59.0076C8.03428 61.7753 7.94667 64.5467 7.6709 67.3025Z" fill="#263238"/>
<path d="M14.2832 67.2955H14.1529C14.7232 61.5227 13.5792 55.8678 14.1529 50.0933H14.2849C13.7006 55.8696 14.8657 61.5209 14.2832 67.2955Z" fill="#263238"/>
<path d="M20.8955 67.2955H20.7599C21.8353 61.4453 19.6811 55.9488 20.7599 50.0933H20.8902C19.806 55.9505 21.9796 61.4435 20.8955 67.2955Z" fill="#263238"/>
<path d="M27.5078 67.2955H27.3758C28.907 61.3731 25.8376 56.0315 27.3758 50.0933H27.5078C25.9608 56.0262 29.0461 61.3713 27.5078 67.2955Z" fill="#263238"/>
<path d="M34.1185 67.2955H33.9882C35.9137 61.3309 32.0522 56.0685 33.9882 50.0933H34.1202C32.1754 56.0685 36.0527 61.3309 34.1185 67.2955Z" fill="#263238"/>
<path d="M40.7307 67.2955H40.5987C42.848 61.3344 38.3389 56.0649 40.5899 50.0933H40.7202C38.4762 56.0649 42.973 61.3326 40.7307 67.2955Z" fill="#263238"/>
<path d="M47.336 67.2955H47.2058C49.1295 61.3326 45.2698 56.0685 47.2058 50.0933H47.336C45.4141 56.0667 49.258 61.3326 47.336 67.2955Z" fill="#263238"/>
<path d="M53.9501 67.2955H53.8198C55.3475 61.3731 52.2834 56.0315 53.8198 50.0933H53.9518C52.4242 56.0227 55.4707 61.3749 53.9501 67.2955Z" fill="#263238"/>
<path d="M60.5607 67.2955H60.4287C61.5023 61.4453 59.3533 55.9488 60.4287 50.0933H60.5589C59.4941 55.947 61.6237 61.447 60.5607 67.2955Z" fill="#263238"/>
<path d="M67.1712 67.2955H67.048C67.6165 61.5227 66.4777 55.8678 67.048 50.0933H67.1782C66.6115 55.8661 67.7273 61.5245 67.1712 67.2955Z" fill="#263238"/>
<path d="M73.78 67.2974H73.6498L73.7026 65.8665C73.736 63.5503 73.678 61.301 73.5178 58.9884C73.472 58.4886 73.4474 58.2386 73.3999 57.7388C73.2652 55.5687 73.3005 53.3914 73.5055 51.2268C73.5636 50.7727 73.5935 50.5439 73.6498 50.0898L73.78 50.1057L73.6392 51.2426C73.4369 53.3986 73.4016 55.5669 73.5336 57.7282L73.648 58.9761C73.8047 61.2922 73.861 63.5521 73.824 65.8718C73.81 66.4385 73.8012 66.7254 73.78 67.2974Z" fill="#263238"/>
<path d="M76.1823 46.2778H5.37402V50.127H76.1823V46.2778Z" fill="#263238"/>
<g opacity="0.5">
<path d="M76.1823 46.2778H5.37402V50.127H76.1823V46.2778Z" fill="white"/>
</g>
<path d="M14.1618 60.3347V58.6627C14.7408 58.6627 15.2178 58.1207 15.2178 57.4554V42.8879C15.2178 42.2226 14.7461 41.6823 14.1618 41.6823C13.5774 41.6823 13.1058 42.2226 13.1058 42.8879V46.1826H11.432V42.8879C11.432 41.3039 12.6534 40.0103 14.1565 40.0103C15.6595 40.0103 16.888 41.3003 16.888 42.8879V57.4554C16.888 59.0429 15.656 60.3347 14.1618 60.3347Z" fill="#263238"/>
<path d="M14.1618 60.3347V58.6627C14.7408 58.6627 15.2178 58.1207 15.2178 57.4554V42.8879C15.2178 42.2226 14.7461 41.6823 14.1618 41.6823C13.5774 41.6823 13.1058 42.2226 13.1058 42.8879V46.1826H11.432V42.8879C11.432 41.3039 12.6534 40.0103 14.1565 40.0103C15.6595 40.0103 16.888 41.3003 16.888 42.8879V57.4554C16.888 59.0429 15.656 60.3347 14.1618 60.3347Z" fill="#263238"/>
<g opacity="0.4">
<path d="M14.1618 60.3347V58.6627C14.7408 58.6627 15.2178 58.1207 15.2178 57.4554V42.8879C15.2178 42.2226 14.7461 41.6823 14.1618 41.6823C13.5774 41.6823 13.1058 42.2226 13.1058 42.8879V46.1826H11.432V42.8879C11.432 41.3039 12.6534 40.0103 14.1565 40.0103C15.6595 40.0103 16.888 41.3003 16.888 42.8879V57.4554C16.888 59.0429 15.656 60.3347 14.1618 60.3347Z" fill="white"/>
</g>
<path d="M16.0485 52.7773H9.41504V53.9829H16.0485V52.7773Z" fill="#263238"/>
<g opacity="0.5">
<path d="M16.0485 52.7773H9.41504V53.9829H16.0485V52.7773Z" fill="white"/>
</g>
<path d="M16.0485 56.6934H9.41504V57.899H16.0485V56.6934Z" fill="#263238"/>
<g opacity="0.5">
<path d="M16.0485 56.6934H9.41504V57.899H16.0485V56.6934Z" fill="white"/>
</g>
<path d="M16.0485 48.8613H9.41504V50.0669H16.0485V48.8613Z" fill="#263238"/>
<g opacity="0.5">
<path d="M16.0485 48.8613H9.41504V50.0669H16.0485V48.8613Z" fill="white"/>
</g>
<path d="M8.26401 60.3347V58.6627C8.84305 58.6627 9.32001 58.1207 9.32001 57.4554V42.8879C9.32001 42.2226 8.84833 41.6823 8.26401 41.6823C7.67969 41.6823 7.20801 42.2226 7.20801 42.8879V46.1826H5.53601V42.8879C5.53601 41.3039 6.75745 40.0103 8.26049 40.0103C9.76353 40.0103 10.985 41.3003 10.985 42.8879V57.4554C10.9815 59.0429 9.75825 60.3347 8.26401 60.3347Z" fill="#263238"/>
<g opacity="0.6">
<path d="M8.26401 60.3347V58.6627C8.84305 58.6627 9.32001 58.1207 9.32001 57.4554V42.8879C9.32001 42.2226 8.84833 41.6823 8.26401 41.6823C7.67969 41.6823 7.20801 42.2226 7.20801 42.8879V46.1826H5.53601V42.8879C5.53601 41.3039 6.75745 40.0103 8.26049 40.0103C9.76353 40.0103 10.985 41.3003 10.985 42.8879V57.4554C10.9815 59.0429 9.75825 60.3347 8.26401 60.3347Z" fill="white"/>
</g>
<path d="M45.6711 47.5747H45.7785L45.6694 47.587C45.5145 47.5958 45.5039 47.5853 45.6711 47.5747Z" fill="#FF8B7B"/>
<path d="M46.6637 53.0269C46.1867 53.0726 45.877 52.3352 45.6816 51.596C45.664 51.5256 45.6464 51.4552 45.6306 51.383C45.62 51.3478 45.613 51.3109 45.6042 51.2757C45.5954 51.2405 45.5901 51.2053 45.5831 51.1736C45.5707 51.1173 45.5602 51.0627 45.5496 51.0099C45.532 50.9254 45.5179 50.8427 45.5038 50.767C45.495 50.7195 45.4863 50.672 45.4792 50.6262C45.4722 50.5805 45.4598 50.5101 45.4528 50.4608C45.4405 50.3834 45.4282 50.3094 45.4176 50.2373C45.2874 49.2253 45.4528 48.7131 45.7907 47.6642C46.4754 47.5797 48.568 47.1168 50.9123 45.6771C51.0672 45.5821 51.2256 45.4818 51.384 45.3762C51.4526 45.3304 51.523 45.2846 51.597 45.2406C53.0314 44.3483 55.3387 43.4507 56.9421 43.3486C57.2008 44.1072 57.1181 44.7566 57.0283 45.3005C56.9527 45.781 56.8858 46.1805 57.0618 46.5219C57.3451 47.0728 57.991 47.3667 58.6282 47.68C58.6282 47.68 58.7461 48.0162 58.5666 48.7184C58.4652 49.0176 58.3318 49.3049 58.1688 49.5755C56.7062 50.9589 55.4795 51.6875 53.1792 52.1838C51.736 52.3264 49.7226 52.5094 46.6637 53.0269Z" fill="#FF8B7B"/>
<path opacity="0.2" d="M54.6647 44.5634L54.6083 43.8594C53.8408 44.1227 53.0927 44.4397 52.3696 44.808L54.6647 44.5634Z" fill="black"/>
<path d="M54.6647 44.5632C54.6216 43.6702 54.4793 42.7848 54.2406 41.9232C54.1182 41.4859 53.9731 41.0553 53.8058 40.6331L53.6756 40.3163C53.6281 40.2125 53.5841 40.1069 53.5348 40.0048C53.4855 39.9027 53.438 39.7971 53.387 39.6951C53.3623 39.644 53.3377 39.593 53.3113 39.5419L53.2726 39.4663L53.2532 39.4293C53.2614 39.4345 53.2708 39.4372 53.2805 39.4372C53.2901 39.4372 53.2996 39.4345 53.3078 39.4293C53.3128 39.4248 53.317 39.4195 53.3201 39.4135H53.3078L53.2866 39.4223L53.2426 39.4381C53.0086 39.5296 52.7727 39.6141 52.5386 39.7039L51.8346 39.9573C51.5988 40.0453 51.3594 40.1227 51.1306 40.2055C50.9018 40.2882 50.6537 40.3656 50.4143 40.4431C49.9338 40.5979 49.4516 40.7458 48.9623 40.876L48.4977 39.8394C48.9236 39.5595 49.3548 39.3008 49.7913 39.0474C50.0078 38.9207 50.226 38.7939 50.446 38.6725C50.666 38.5511 50.8842 38.4243 51.106 38.3064L51.7678 37.9544C51.9913 37.8383 52.2113 37.7203 52.4348 37.6024L52.477 37.5795L52.4982 37.569H52.5087L52.5298 37.5602C52.5862 37.5355 52.6442 37.5091 52.7058 37.488C52.7674 37.4669 52.8255 37.4493 52.8818 37.4335C52.9382 37.4176 53.005 37.4035 53.0684 37.3947C53.3201 37.356 53.5768 37.3649 53.8252 37.4211C54.3339 37.537 54.7802 37.8406 55.0748 38.2712L55.1276 38.3522L55.1558 38.3944L55.2103 38.4824C55.2473 38.5405 55.2825 38.5986 55.3177 38.6584C55.3898 38.7746 55.4567 38.8943 55.5236 39.0104C55.5905 39.1266 55.6521 39.2498 55.7154 39.3712C55.7788 39.4927 55.8386 39.6141 55.8914 39.7373C56.127 40.2325 56.3293 40.7428 56.4969 41.265C56.8386 42.3223 57.0167 43.4257 57.0249 44.5368L54.6647 44.5632Z" fill="#FF8B7B"/>
<path d="M46.6637 42.1504C47.4645 41.9744 48.6666 41.6083 48.9235 40.8287C48.7986 40.3992 48.788 40.2197 48.5522 39.8413C47.9929 39.8796 47.4504 40.0484 46.9681 40.3342C46.4858 40.62 46.0771 41.0147 45.7749 41.4869C46.2378 41.8583 46.2008 41.7791 46.6637 42.1504Z" fill="#FF8B7B"/>
<path d="M55.1698 50.1827L55.0801 47.3755C55.7647 47.4089 56.4705 47.4177 57.1762 47.4336L59.3023 47.4635C60.7262 47.4881 62.1465 47.5075 63.6002 47.6008L63.873 47.6201L64.1494 47.6448L64.4274 47.6694L64.709 47.7046C64.8023 47.7152 64.9009 47.7293 64.9801 47.7363C65.065 47.7433 65.1504 47.7433 65.2353 47.7363C65.405 47.7135 65.5762 47.7029 65.7474 47.7046C66.0854 47.7345 66.425 47.7803 66.7665 47.8067C66.9425 47.8243 67.1097 47.8348 67.2822 47.8472C67.4546 47.8595 67.6254 47.8736 67.7978 47.8859C69.1777 47.9756 70.5839 48.0126 71.9761 48.032L72.0746 48.9331C71.7226 49.0105 71.3706 49.0792 71.0186 49.139L70.4906 49.2253C70.3146 49.2516 70.1386 49.278 69.9626 49.3009C69.2586 49.3995 68.537 49.4769 67.8172 49.528C67.4652 49.5561 67.0956 49.5755 66.733 49.586C66.557 49.586 66.3705 49.6001 66.1874 49.6001H65.9146C65.8231 49.6001 65.7386 49.6001 65.6401 49.6001C65.4565 49.5808 65.2751 49.5449 65.098 49.4928C65.008 49.4718 64.9169 49.456 64.8252 49.4453C64.7284 49.4347 64.6492 49.4347 64.57 49.4329L64.3254 49.4241H63.822H63.5668C62.8839 49.4382 62.1905 49.4787 61.497 49.5315L57.8116 49.8835L57.3082 49.9398L55.1698 50.1827Z" fill="#FF8B7B"/>
<path d="M72.0201 47.9602L74.1022 47.918L75.9431 48.3509L75.9555 48.9194L73.1289 48.9775L71.9708 49.0004L72.0201 47.9602Z" fill="#FF8B7B"/>
<path d="M34.9651 48.6849L33.0819 48.7237C33.0819 48.7237 31.0737 47.7451 29.5073 47.4917C25.7479 46.8757 22.2596 46.5905 21.2441 46.0361L20.1881 47.8595C24.4367 49.183 27.038 49.7075 31.2515 51.1366C34.3086 52.1732 36.3343 51.6752 37.8479 51.4886C37.635 50.6192 37.3798 49.2235 36.931 48.4491L34.9651 48.6849Z" fill="#FF8B7B"/>
<path d="M34.2188 52.2895C31.3528 52.2548 28.5032 52.7254 25.8007 53.6799C24.9066 53.9949 23.877 54.3839 22.7031 54.838C22.4232 55.2868 22.8157 55.6951 22.5359 56.1439C22.5359 56.1439 29.4316 55.9433 32.4975 55.1319C33.9706 54.7412 38.177 54.1586 39.6941 54.0231C42.4186 52.6345 39.7487 50.5031 38.302 50.533L34.2188 52.2895Z" fill="#FF8B7B"/>
<path d="M23.122 54.7078C23.122 54.7078 22.0185 54.1375 21.4465 54.3311C20.8745 54.5247 17.7945 56.7036 17.7945 56.7036C17.7945 56.7036 17.6009 57.214 17.7663 57.3214C17.9318 57.4287 23.0182 56.0894 23.0182 56.0894L23.122 54.7078Z" fill="#FF8B7B"/>
<path d="M45.5972 48.8682C45.5972 48.8682 42.709 48.1835 40.8839 49.0125C39.0588 49.8415 35.7799 51.6771 35.7799 51.6771L36.1565 54.8135L46.6585 53.0271C46.6585 53.0271 45.6852 52.5413 45.5972 48.8682Z" fill="#407BFF"/>
<g opacity="0.2">
<path d="M35.9418 52.9864L35.7852 51.6769C35.9488 51.5854 40.8223 50.6597 40.8223 50.6597L45.5866 51.9726L35.9418 52.9864Z" fill="black"/>
</g>
<path d="M45.7837 47.5674C45.7837 47.5674 43.1737 46.6399 41.2394 47.1679C39.3052 47.6959 36.0105 48.553 36.0105 48.553L35.7887 51.9199C35.7887 51.9199 39.5199 52.5869 42.8586 52.2948L46.0266 51.985C46.0266 51.985 45.3156 48.3858 45.7837 47.5674Z" fill="#407BFF"/>
<path d="M21.9445 46.2881C21.9445 46.2881 20.658 45.1265 20.093 45.3377C19.5281 45.5489 16.0081 48.6676 16.0081 48.6676C16.0081 48.6676 16.0573 49.1463 16.2281 49.2484C16.3988 49.3505 20.4644 47.9442 20.4644 47.9442L21.9445 46.2881Z" fill="#FF8B7B"/>
<path opacity="0.2" d="M58.1794 47.4478L58.2287 47.5463C58.4282 47.9385 58.7561 48.2504 59.1577 48.4301C59.5594 48.6097 60.0104 48.6463 60.4358 48.5337L63.8801 47.6202L58.1794 47.4478Z" fill="black"/>
<path d="M59.5398 45.2319C58.6845 45.5998 57.0758 46.1243 56.3472 45.6262C56.1206 45.9637 55.9698 46.3462 55.905 46.7476C55.8403 47.1489 55.8633 47.5595 55.9723 47.9511C56.1624 48.7167 56.708 48.6411 56.9685 48.4052C56.9843 47.358 57.7306 47.2243 58.4645 47.2507L59.5398 45.2319Z" fill="#FF8B7B"/>
<path d="M45.6817 51.5964C45.6641 51.526 45.6465 51.4556 45.6307 51.3834C45.6201 51.3482 45.6131 51.3113 45.6043 51.2761C45.5955 51.2409 45.5902 51.2057 45.5832 51.174C45.5708 51.1177 45.5603 51.0631 45.5497 51.0103C45.5321 50.9258 45.518 50.8431 45.504 50.7674C45.4952 50.7199 45.4864 50.6724 45.4793 50.6266C45.4723 50.5809 45.46 50.5105 45.4529 50.4612C45.4406 50.3837 45.4283 50.3098 45.4177 50.2377C45.2981 49.5831 45.3191 48.9105 45.4793 48.2647C45.4916 48.2084 45.5057 48.1503 45.5233 48.0887C45.5656 47.9321 45.6148 47.7666 45.6729 47.5871C47.5296 47.3065 49.3112 46.6565 50.9124 45.6757C51.0673 45.5807 51.2257 45.4804 51.3841 45.3748C51.4528 45.329 51.5232 45.2833 51.5971 45.2393C51.9397 45.3373 52.2875 45.4161 52.639 45.4751L52.9012 45.5138C54.267 45.7021 55.6222 45.5807 57.0284 45.2991C56.9528 45.7796 56.4582 47.4111 56.6342 47.7525C56.9176 48.3034 58.6283 47.6786 58.6283 47.6786C58.6283 47.6786 58.7462 48.0148 58.5667 48.717C58.4653 49.0162 58.332 49.3036 58.1689 49.5741C56.5268 51.7319 55.9337 51.8921 53.1793 52.1825C51.7432 52.3338 49.7227 52.5169 46.6673 53.0343C46.1886 53.1082 45.8771 52.3514 45.6817 51.5964Z" fill="#407BFF"/>
<path opacity="0.2" d="M59.1016 46.0612L58.4645 47.2545C58.2935 47.2463 58.1221 47.2534 57.9524 47.2756C57.9224 46.8813 58.2234 46.2689 58.6141 46.1439C58.7702 46.0867 58.9355 46.0587 59.1016 46.0612Z" fill="black"/>
<path d="M62.7114 47.4531C62.3453 47.8051 61.4213 48.1571 61.4125 47.4179C61.4037 46.6787 63.3397 46.8529 62.7114 47.4531Z" fill="#263238"/>
<path d="M60.5959 44.6232C59.4519 45.1037 58.7567 45.3272 58.3677 46.1245C57.7834 47.3266 58.8377 48.5885 60.1066 48.453C61.2489 48.3368 62.9226 47.573 62.9825 46.2671C62.9943 45.9779 62.9327 45.6904 62.8034 45.4315C62.674 45.1726 62.4812 44.9507 62.2428 44.7866C62.0045 44.6224 61.7284 44.5213 61.4404 44.4927C61.1524 44.4642 60.8618 44.5091 60.5959 44.6232Z" fill="#FF8B7B"/>
<path d="M59.8726 44.593L60.0116 44.4839C60.1693 44.7153 60.2799 44.9754 60.3372 45.2495C60.3857 45.455 60.4596 45.6536 60.5572 45.8408L60.4041 45.9288C60.2992 45.7284 60.22 45.5155 60.1682 45.2952C60.1168 45.044 60.0163 44.8054 59.8726 44.593Z" fill="#407BFF"/>
<path d="M62.2503 47.147C62.8434 47.7789 63.4823 46.267 63.3485 45.4064C63.0775 43.6886 61.5604 43.5619 60.8845 43.9667C60.1612 43.4123 58.8482 44.4085 58.4962 45.6105C59.4061 45.2709 61.3351 44.9224 61.3351 44.9224C61.5921 45.9045 61.9441 46.8267 62.2503 47.147Z" fill="#263238"/>
<path d="M59.4624 44.5124C59.3396 44.6052 59.2364 44.7214 59.1588 44.8543C59.0811 44.9872 59.0306 45.1342 59.0101 45.2868C58.9591 45.6968 59.341 45.8429 59.6983 45.6828C60.0203 45.5367 60.4339 45.1548 60.3213 44.7605C60.2966 44.6747 60.2506 44.5965 60.1875 44.5333C60.1243 44.4701 60.0462 44.424 59.9604 44.3992C59.8746 44.3744 59.7839 44.3718 59.6968 44.3916C59.6097 44.4113 59.5291 44.4529 59.4624 44.5124Z" fill="#FF8B7B"/>
<path d="M59.1914 45.4325C59.1642 45.433 59.1378 45.4227 59.1181 45.404C59.0983 45.3852 59.0867 45.3594 59.0858 45.3322C59.0858 45.3048 59.0964 45.2784 59.1155 45.2587C59.1345 45.239 59.1605 45.2275 59.1879 45.2266C59.2014 45.2263 59.2149 45.2288 59.2275 45.2338C59.2401 45.2389 59.2515 45.2463 59.2612 45.2558C59.2709 45.2653 59.2786 45.2767 59.2838 45.2892C59.289 45.3017 59.2917 45.3151 59.2917 45.3287C59.2922 45.3421 59.29 45.3555 59.2851 45.3681C59.2803 45.3807 59.273 45.3922 59.2636 45.4019C59.2543 45.4116 59.243 45.4193 59.2306 45.4245C59.2182 45.4298 59.2049 45.4325 59.1914 45.4325Z" fill="#407BFF"/>
<path d="M62.6481 47.4267C62.6762 47.3314 62.6817 47.2307 62.6639 47.1328C62.5583 46.2528 61.9687 45.1229 61.0799 45.144C60.3513 45.1616 59.3886 45.3499 58.8852 44.8255C58.8324 44.7727 58.8729 44.6653 58.9186 44.6072C59.187 44.2669 59.5293 43.9921 59.9196 43.8037C60.3099 43.6152 60.738 43.5181 61.1714 43.5195C61.6052 43.5297 62.0287 43.6538 62.3994 43.8793C62.7701 44.1048 63.0749 44.4238 63.2834 44.8043C63.4808 45.1904 63.5594 45.6263 63.5093 46.057C63.4592 46.4877 63.2826 46.8939 63.0018 47.2243C62.8241 47.4267 62.6129 47.52 62.6481 47.4267Z" fill="#407BFF"/>
<path opacity="0.3" d="M63.0493 46.2456C63.0493 46.2456 62.7255 45.9763 62.7255 46.008V46.418L62.9983 46.6556L63.0493 46.2456Z" fill="white"/>
<path d="M60.9057 46.5079C60.8106 46.5413 60.7508 46.6188 60.7737 46.6839C60.7966 46.749 60.8916 46.7701 60.9866 46.7367C61.0817 46.7032 61.1415 46.6258 61.1186 46.5607C61.0958 46.4956 61.0007 46.4744 60.9057 46.5079Z" fill="#263238"/>
<path d="M59.6842 47.5904C59.5892 47.6238 59.5294 47.7013 59.5522 47.7664C59.5751 47.8315 59.6702 47.8526 59.7652 47.8192C59.8602 47.7858 59.9201 47.7083 59.8972 47.6432C59.8743 47.5781 59.7793 47.557 59.6842 47.5904Z" fill="#263238"/>
<path d="M61.2929 47.5836C61.1978 47.617 61.138 47.6944 61.1609 47.7596C61.1838 47.8247 61.2788 47.8458 61.3738 47.8124C61.4689 47.7789 61.5287 47.7015 61.5058 47.6364C61.483 47.5712 61.3879 47.5501 61.2929 47.5836Z" fill="#263238"/>
<path d="M61.1891 46.788C61.1559 46.7707 61.1305 46.7415 61.1178 46.7063C61.1051 46.6712 61.106 46.6325 61.1204 46.598C61.1008 46.5948 61.0807 46.5975 61.0626 46.6056C61.0444 46.6137 61.0291 46.627 61.0184 46.6437C60.999 46.6807 61.0307 46.7335 61.0641 46.7599C61.1008 46.7846 61.1454 46.7947 61.1891 46.788Z" fill="#263238"/>
<path d="M61.622 47.8297C61.5854 47.8224 61.553 47.8014 61.5314 47.771C61.5098 47.7405 61.5007 47.703 61.5059 47.666C61.4861 47.6677 61.4673 47.6753 61.4519 47.6879C61.4365 47.7004 61.4252 47.7174 61.4196 47.7364C61.4091 47.7787 61.4548 47.8209 61.4936 47.8385C61.5145 47.8458 61.5366 47.8488 61.5587 47.8473C61.5808 47.8458 61.6023 47.8398 61.622 47.8297Z" fill="#263238"/>
<path d="M61.1222 47.2578C60.8828 47.4734 60.6744 47.721 60.5027 47.9935C60.4349 47.9438 60.3786 47.8803 60.3373 47.8072C60.296 47.7341 60.2708 47.653 60.2633 47.5693L61.1222 47.2578Z" fill="#FF5652"/>
<path d="M61.1345 46.0559C61.1368 46.0662 61.1417 46.0756 61.1488 46.0834C61.1559 46.0911 61.165 46.0968 61.175 46.0999C61.2471 46.1204 61.3132 46.1577 61.368 46.2088C61.4228 46.2599 61.4646 46.3234 61.49 46.3939C61.4949 46.4087 61.5052 46.4212 61.519 46.4287C61.5327 46.4362 61.5488 46.4382 61.5639 46.4343C61.5714 46.4323 61.5783 46.4288 61.5844 46.4241C61.5904 46.4193 61.5955 46.4134 61.5993 46.4067C61.603 46.4 61.6054 46.3926 61.6063 46.385C61.6072 46.3773 61.6065 46.3696 61.6044 46.3622C61.5738 46.2726 61.5219 46.1917 61.4533 46.1264C61.3846 46.0611 61.3012 46.0134 61.2102 45.9873C61.2003 45.9844 61.1899 45.9841 61.1799 45.9864C61.1699 45.9887 61.1607 45.9935 61.1531 46.0004C61.1455 46.0073 61.1398 46.016 61.1365 46.0257C61.1333 46.0355 61.1326 46.0459 61.1345 46.0559Z" fill="#263238"/>
<path d="M61.8296 47.9176C61.8324 47.9277 61.8376 47.937 61.845 47.9445C61.8523 47.952 61.8614 47.9575 61.8714 47.9605C61.8815 47.9635 61.8921 47.9638 61.9024 47.9616C61.9126 47.9593 61.9221 47.9545 61.9299 47.9475C61.9985 47.8828 62.0504 47.8023 62.0811 47.7131C62.1117 47.6239 62.1203 47.5286 62.1059 47.4354C62.1022 47.4202 62.0928 47.4071 62.0797 47.3986C62.0667 47.3901 62.0509 47.3869 62.0355 47.3896C62.0202 47.393 62.0068 47.4023 61.9982 47.4154C61.9897 47.4286 61.9866 47.4446 61.9898 47.46C62.0015 47.5334 61.995 47.6086 61.9707 47.6789C61.9465 47.7492 61.9053 47.8125 61.8507 47.863C61.8431 47.8698 61.8372 47.8782 61.8335 47.8877C61.8298 47.8972 61.8285 47.9075 61.8296 47.9176Z" fill="#263238"/>
<path opacity="0.2" d="M57.8063 49.8888L58.3836 49.3608L61.4917 49.5404L57.8063 49.8888Z" fill="black"/>
<path d="M61.1485 47.5695C61.2013 47.5466 61.24 47.5079 61.291 47.4868C61.2593 47.3519 61.1993 47.2253 61.115 47.1154C61.0896 47.1133 61.0639 47.1164 61.0397 47.1245C61.0155 47.1327 60.9932 47.1458 60.9742 47.1629C61.0684 47.28 61.1286 47.4206 61.1485 47.5695Z" fill="#407BFF"/>
<path d="M60.7737 46.054C60.7349 45.9713 60.5889 45.9079 60.5501 45.8252C60.4445 45.8463 60.434 45.8463 60.3741 45.9361L60.4551 46.1561L60.7737 46.054Z" fill="white"/>
<path d="M61.3526 46.9076C61.3935 46.7197 61.3617 46.5233 61.2638 46.3578C61.1659 46.1923 61.009 46.07 60.8246 46.0153C60.712 45.9801 60.5325 45.9748 60.4621 46.0663C60.2016 46.4043 60.6293 47.33 61.0358 47.2438C61.1139 47.2212 61.1845 47.1781 61.2402 47.119C61.2959 47.0599 61.3347 46.9869 61.3526 46.9076Z" fill="#263238"/>
<path d="M61.7928 48.0921C61.8353 47.9043 61.8031 47.7074 61.703 47.543C61.6378 47.4453 61.5365 47.3775 61.4213 47.3544C61.3062 47.3313 61.1866 47.3548 61.0888 47.4198C60.7649 47.6274 61.0729 48.5145 61.4777 48.4282C61.5553 48.4052 61.6255 48.362 61.6808 48.3029C61.7362 48.2438 61.7748 48.171 61.7928 48.0921Z" fill="#263238"/>
<path opacity="0.2" d="M60.6734 46.9533C60.6448 46.9106 60.6207 46.8652 60.6012 46.8177C60.6012 46.8001 60.5854 46.7825 60.5801 46.7649C60.4939 46.5203 60.5361 46.288 60.6804 46.2264C60.8248 46.1648 61.0483 46.3197 61.1592 46.5784C61.1746 46.6142 61.187 46.6513 61.1961 46.6893C61.2147 46.7557 61.2236 46.8245 61.2225 46.8934C61.2273 46.948 61.2164 47.0028 61.1911 47.0514C61.1659 47.1 61.1273 47.1405 61.08 47.168C60.9568 47.2243 60.7896 47.131 60.6734 46.9533Z" fill="black"/>
<path opacity="0.2" d="M61.2207 48.1886C61.1693 48.1346 61.1287 48.0713 61.101 48.0021C61.1005 47.9992 61.1005 47.9962 61.101 47.9933C61.0113 47.768 61.057 47.5357 61.2084 47.4653C61.3598 47.3949 61.5604 47.5322 61.6625 47.761C61.6854 47.8137 61.7008 47.8694 61.7082 47.9264C61.7185 47.9965 61.7131 48.0681 61.6924 48.1358C61.6837 48.1703 61.6673 48.2022 61.6444 48.2294C61.6216 48.2565 61.5928 48.2781 61.5604 48.2925C61.5 48.3124 61.4349 48.3131 61.3741 48.2945C61.3133 48.2759 61.2597 48.2389 61.2207 48.1886Z" fill="black"/>
<path opacity="0.2" d="M60.6734 46.9534C60.6448 46.9107 60.6206 46.8653 60.6012 46.8178C60.6012 46.8002 60.5854 46.7826 60.5801 46.765V46.7545L61.1978 46.6929C61.2164 46.7593 61.2253 46.8281 61.2242 46.897L60.6734 46.9534Z" fill="white"/>
<path opacity="0.2" d="M61.2207 48.1886C61.1693 48.1346 61.1287 48.0713 61.101 48.002C61.1004 47.9991 61.1004 47.9961 61.101 47.9932L61.7082 47.9316C61.7184 48.0018 61.713 48.0733 61.6924 48.1411L61.2207 48.1886Z" fill="white"/>
<path d="M35.9453 49.5495C38.5572 48.7522 41.1056 48.0429 43.5925 48.1309C43.934 48.1433 44.2807 48.1697 44.6168 48.1961C44.9002 48.2189 45.1871 48.2436 45.4757 48.2559L45.6359 48.2647C45.9016 48.2647 46.1639 48.2647 46.4314 48.2647C48.6191 48.1415 51.0232 46.7476 52.9012 45.5138L52.6389 45.4751C50.8068 46.6666 48.5064 47.9725 46.4208 48.0905C46.1639 48.1045 45.9069 48.1028 45.65 48.0905H45.5197C45.2205 48.0764 44.9231 48.0535 44.6309 48.0306C44.293 48.0042 43.9445 47.9761 43.5996 47.9637C41.1056 47.8775 38.5607 48.5762 35.9576 49.3717L35.9453 49.5495Z" fill="white"/>
<path d="M69.2286 46.2773C65.8248 46.2773 62.4385 49.403 58.5718 49.403C54.5238 49.403 50.9193 46.9478 46.5158 46.9478C41 46.9478 37.3638 49.403 31.2918 49.403C25.8657 49.403 22.52 46.9636 17.1238 46.9636C12.0198 46.9636 5.4198 48.6691 5.4198 48.6691C5.4198 48.6691 12.0198 46.2403 17.1238 46.2403C22.52 46.2403 25.8657 48.3523 31.2918 48.3523C37.3638 48.3523 41 45.5645 46.5158 45.5645C50.9158 45.5645 54.5291 48.3523 58.5718 48.3523C62.4438 48.3523 65.0838 45.5645 68.4876 45.5645C71.7718 45.5645 76.1824 48.3523 76.1824 48.3523C76.1824 48.3523 72.5128 46.2773 69.2286 46.2773Z" fill="#407BFF"/>
<g opacity="0.3">
<path d="M69.2286 46.2773C65.8248 46.2773 62.4385 49.403 58.5718 49.403C54.5238 49.403 50.9193 46.9478 46.5158 46.9478C41 46.9478 37.3638 49.403 31.2918 49.403C25.8657 49.403 22.52 46.9636 17.1238 46.9636C12.0198 46.9636 5.4198 48.6691 5.4198 48.6691C5.4198 48.6691 12.0198 46.2403 17.1238 46.2403C22.52 46.2403 25.8657 48.3523 31.2918 48.3523C37.3638 48.3523 41 45.5645 46.5158 45.5645C50.9158 45.5645 54.5291 48.3523 58.5718 48.3523C62.4438 48.3523 65.0838 45.5645 68.4876 45.5645C71.7718 45.5645 76.1824 48.3523 76.1824 48.3523C76.1824 48.3523 72.5128 46.2773 69.2286 46.2773Z" fill="white"/>
</g>
<path opacity="0.3" d="M76.1824 48.3489L76.1718 48.6498L76.1173 50.0966V50.1265L75.8357 57.654L75.4837 65.222C75.423 65.9378 75.2892 66.6455 75.0841 67.334C74.3819 69.6959 72.9088 71.4946 71.096 72.3359C70.803 72.4672 70.495 72.5624 70.179 72.6193C69.3905 72.7671 68.4736 72.878 67.4 72.9713L67.1536 72.9924C62.1446 73.4394 56.5936 74.0484 46.6285 74.2244C44.8456 74.2578 42.9237 74.279 40.8363 74.2807H40.1534C37.4677 74.2807 34.9139 74.2314 32.5009 74.1505C32.1859 74.1417 31.8744 74.1311 31.5681 74.1188C28.2101 73.9938 25.1301 73.8073 22.3493 73.6084C18.4561 73.3303 15.1473 73.0241 12.4704 72.8182C11.6532 72.7522 10.8606 72.507 10.1489 72.1001C8.53502 71.1902 7.2379 69.4918 6.59374 67.3358C6.38872 66.6473 6.25485 65.9396 6.19422 65.2238L5.84222 57.6558L5.49022 50.1282V50.0983L5.42334 48.671H5.4603L5.49726 48.6622L7.7131 48.1553L7.77646 48.1412L13.4965 46.8159C13.7578 46.7561 14.0241 46.7208 14.292 46.7103L16.3424 46.6311L17.2136 46.5977C17.5081 46.586 17.803 46.6049 18.0936 46.654L27.2931 48.2239L31.6157 48.9578C32.1594 49.0492 32.7156 49.0355 33.2542 48.9174L40.8363 47.2524L45.2363 46.2862L45.5443 46.2193C46.2429 46.0655 46.9688 46.0885 47.6563 46.2862L54.376 48.2239L55.0008 48.3999C57.325 49.0708 59.7967 49.0322 62.0989 48.289C62.402 48.1908 62.6936 48.0598 62.9683 47.8983L64.0665 47.2542C64.4705 47.0165 64.8918 46.8094 65.3267 46.6346C65.6619 46.4966 66.0051 46.3791 66.3545 46.2826C68.7228 45.6321 71.2481 45.883 73.4421 46.9866L75.1387 47.8385L76.163 48.3524L76.1824 48.3489Z" fill="#407BFF"/>
<path opacity="0.4" d="M23.5162 59.9295C23.8496 59.9295 24.1198 59.6592 24.1198 59.3258C24.1198 58.9924 23.8496 58.7222 23.5162 58.7222C23.1828 58.7222 22.9125 58.9924 22.9125 59.3258C22.9125 59.6592 23.1828 59.9295 23.5162 59.9295Z" fill="white"/>
<path opacity="0.4" d="M45.7784 51.7313C46.1118 51.7313 46.382 51.461 46.382 51.1276C46.382 50.7942 46.1118 50.5239 45.7784 50.5239C45.445 50.5239 45.1747 50.7942 45.1747 51.1276C45.1747 51.461 45.445 51.7313 45.7784 51.7313Z" fill="white"/>
<path opacity="0.4" d="M21.9445 51.7313C22.2779 51.7313 22.5482 51.461 22.5482 51.1276C22.5482 50.7942 22.2779 50.5239 21.9445 50.5239C21.6111 50.5239 21.3408 50.7942 21.3408 51.1276C21.3408 51.461 21.6111 51.7313 21.9445 51.7313Z" fill="white"/>
<path opacity="0.4" d="M24.8027 57.9321C24.9699 57.9321 25.1054 57.7966 25.1054 57.6294C25.1054 57.4622 24.9699 57.3267 24.8027 57.3267C24.6355 57.3267 24.5 57.4622 24.5 57.6294C24.5 57.7966 24.6355 57.9321 24.8027 57.9321Z" fill="white"/>
<path opacity="0.4" d="M46.1268 48.9277C46.1268 48.992 46.1077 49.055 46.0719 49.1085C46.0361 49.1621 45.9853 49.2038 45.9258 49.2285C45.8663 49.2531 45.8008 49.2596 45.7377 49.247C45.6745 49.2344 45.6165 49.2034 45.571 49.1579C45.5254 49.1123 45.4944 49.0543 45.4818 48.9912C45.4693 48.928 45.4757 48.8625 45.5004 48.803C45.525 48.7436 45.5667 48.6927 45.6203 48.6569C45.6738 48.6211 45.7368 48.6021 45.8012 48.6021C45.8875 48.6021 45.9704 48.6364 46.0314 48.6974C46.0925 48.7585 46.1268 48.8413 46.1268 48.9277Z" fill="white"/>
<path opacity="0.4" d="M44.7259 50.1914C44.8931 50.1914 45.0287 50.0558 45.0287 49.8887C45.0287 49.7215 44.8931 49.5859 44.7259 49.5859C44.5588 49.5859 44.4232 49.7215 44.4232 49.8887C44.4232 50.0558 44.5588 50.1914 44.7259 50.1914Z" fill="white"/>
<path opacity="0.4" d="M62.9208 55.4221C62.7318 55.4221 62.547 55.3661 62.3898 55.261C62.2327 55.156 62.1102 55.0068 62.0378 54.8321C61.9655 54.6575 61.9466 54.4654 61.9835 54.28C62.0203 54.0946 62.1113 53.9243 62.245 53.7907C62.3787 53.657 62.5489 53.566 62.7343 53.5291C62.9197 53.4922 63.1119 53.5112 63.2865 53.5835C63.4611 53.6558 63.6104 53.7783 63.7154 53.9355C63.8204 54.0926 63.8765 54.2774 63.8765 54.4664C63.8765 54.7199 63.7758 54.963 63.5965 55.1422C63.4173 55.3214 63.1742 55.4221 62.9208 55.4221Z" fill="white"/>
<path opacity="0.4" d="M66.3986 55.0176C66.6824 55.0176 66.9125 54.7875 66.9125 54.5037C66.9125 54.2198 66.6824 53.9897 66.3986 53.9897C66.1147 53.9897 65.8846 54.2198 65.8846 54.5037C65.8846 54.7875 66.1147 55.0176 66.3986 55.0176Z" fill="white"/>
<path opacity="0.4" d="M64.8797 53.2801C65.1431 53.2801 65.3566 53.0665 65.3566 52.8031C65.3566 52.5397 65.1431 52.3262 64.8797 52.3262C64.6163 52.3262 64.4027 52.5397 64.4027 52.8031C64.4027 53.0665 64.6163 53.2801 64.8797 53.2801Z" fill="white"/>
<path opacity="0.4" d="M22.9125 50.4853C23.0796 50.4853 23.2152 50.3498 23.2152 50.1826C23.2152 50.0154 23.0796 49.8799 22.9125 49.8799C22.7453 49.8799 22.6097 50.0154 22.6097 50.1826C22.6097 50.3498 22.7453 50.4853 22.9125 50.4853Z" fill="white"/>
<path opacity="0.4" d="M20.188 49.7055C20.3552 49.7055 20.4907 49.57 20.4907 49.4028C20.4907 49.2356 20.3552 49.1001 20.188 49.1001C20.0208 49.1001 19.8853 49.2356 19.8853 49.4028C19.8853 49.57 20.0208 49.7055 20.188 49.7055Z" fill="white"/>
</svg>
