<svg width="47" height="72" viewBox="0 0 47 72" fill="none" xmlns="http://www.w3.org/2000/svg">
<path d="M23.3354 71.4956C35.9446 71.4956 46.1664 61.2738 46.1664 48.6646C46.1664 36.0554 35.9446 25.8336 23.3354 25.8336C10.7262 25.8336 0.504378 36.0554 0.504378 48.6646C0.504378 61.2738 10.7262 71.4956 23.3354 71.4956Z" fill="white" stroke="#263238" stroke-linecap="round" stroke-linejoin="round"/>
<path d="M45.3245 11.619H41.5993C40.8523 10.807 39.9449 10.1589 38.9346 9.71558C37.9243 9.27225 36.833 9.04335 35.7297 9.04335C34.6264 9.04335 33.5351 9.27225 32.5247 9.71558C31.5144 10.1589 30.6071 10.807 29.8601 11.619H25.9863L27.8299 18.3075C28.1223 20.1752 29.0667 21.8789 30.4956 23.1165C31.9245 24.3541 33.7456 25.0457 35.6359 25.0685C37.5261 25.0913 39.3633 24.4439 40.8217 23.2412C42.2801 22.0384 43.2654 20.358 43.6028 18.498L45.3245 11.619Z" fill="#92E3A9" stroke="#263238" stroke-linecap="round" stroke-linejoin="round"/>
<path d="M35.7298 20.1282C41.1487 20.1282 45.5417 15.7353 45.5417 10.3163C45.5417 4.89732 41.1487 0.504378 35.7298 0.504378C30.3108 0.504378 25.9179 4.89732 25.9179 10.3163C25.9179 15.7353 30.3108 20.1282 35.7298 20.1282Z" fill="#92E3A9" stroke="#263238" stroke-linecap="round" stroke-linejoin="round"/>
<path d="M35.7297 18.8603C40.4482 18.8603 44.2732 15.0352 44.2732 10.3167C44.2732 5.59827 40.4482 1.7732 35.7297 1.7732C31.0113 1.7732 27.1862 5.59827 27.1862 10.3167C27.1862 15.0352 31.0113 18.8603 35.7297 18.8603Z" fill="#92E3A9" stroke="#263238" stroke-linecap="round" stroke-linejoin="round"/>
<path d="M35.7298 3.60858C33.6084 3.60858 31.5738 4.45131 30.0738 5.95139C28.5737 7.45146 27.731 9.486 27.731 11.6074C27.732 12.5571 27.9036 13.4989 28.2375 14.388C28.9717 15.738 30.0563 16.865 31.3772 17.6503C32.6982 18.4356 34.2064 18.8501 35.7431 18.8501C37.2798 18.8501 38.7881 18.4356 40.109 17.6503C41.4299 16.865 42.5146 15.738 43.2487 14.388C43.6997 13.1773 43.8507 11.8754 43.6887 10.5936C43.5268 9.31181 43.0569 8.08833 42.319 7.0278C41.5812 5.96726 40.5974 5.10123 39.4519 4.50378C38.3064 3.90634 37.0332 3.59526 35.7412 3.59715L35.7298 3.60858Z" fill="white" stroke="#263238" stroke-linecap="round" stroke-linejoin="round"/>
<path d="M24.303 36.5416C24.1222 36.8546 23.8526 37.107 23.5284 37.2669C23.2041 37.4268 22.8397 37.4869 22.4813 37.4398C22.1229 37.3926 21.7865 37.2402 21.5146 37.0019C21.2428 36.7636 21.0477 36.45 20.954 36.1008C20.8603 35.7517 20.8723 35.3826 20.9883 35.0402C21.1044 34.6978 21.3193 34.3975 21.606 34.1772C21.8927 33.957 22.2382 33.8267 22.5989 33.8028C22.9597 33.7789 23.3194 33.8624 23.6326 34.0429C24.0523 34.2859 24.3585 34.6853 24.4842 35.1537C24.6099 35.6221 24.5447 36.1212 24.303 36.5416Z" fill="#92E3A9" stroke="#263238" stroke-linecap="round" stroke-linejoin="round"/>
<path d="M24.5426 39.9236C25.5523 39.9236 26.3709 39.105 26.3709 38.0953C26.3709 37.0855 25.5523 36.267 24.5426 36.267C23.5328 36.267 22.7143 37.0855 22.7143 38.0953C22.7143 39.105 23.5328 39.9236 24.5426 39.9236Z" fill="#92E3A9" stroke="#263238" stroke-linecap="round" stroke-linejoin="round"/>
<path d="M24.3525 42.4869C25.3622 42.4869 26.1808 41.6683 26.1808 40.6585C26.1808 39.6488 25.3622 38.8302 24.3525 38.8302C23.3427 38.8302 22.5241 39.6488 22.5241 40.6585C22.5241 41.6683 23.3427 42.4869 24.3525 42.4869Z" fill="#92E3A9" stroke="#263238" stroke-linecap="round" stroke-linejoin="round"/>
<path d="M27.9289 32.6293C27.7485 32.9429 27.4792 33.1959 27.155 33.3563C26.8307 33.5167 26.4662 33.5774 26.1075 33.5306C25.7488 33.4838 25.4121 33.3316 25.1399 33.0933C24.8677 32.8551 24.6723 32.5414 24.5784 32.1921C24.4846 31.8427 24.4964 31.4734 24.6125 31.1308C24.7286 30.7882 24.9438 30.4877 25.2307 30.2675C25.5176 30.0472 25.8635 29.9169 26.2244 29.8933C26.5854 29.8696 26.9453 29.9535 27.2585 30.1344C27.6772 30.3774 27.9827 30.7762 28.1083 31.2436C28.2339 31.7111 28.1694 32.2092 27.9289 32.6293Z" fill="#92E3A9" stroke="#263238" stroke-linecap="round" stroke-linejoin="round"/>
<path d="M30.1951 35.2118C30.0148 35.5254 29.7454 35.7784 29.4212 35.9388C29.097 36.0992 28.7325 36.1599 28.3738 36.1131C28.0151 36.0662 27.6783 35.9141 27.4061 35.6758C27.1339 35.4376 26.9385 35.1239 26.8447 34.7746C26.7508 34.4252 26.7627 34.0559 26.8788 33.7133C26.9949 33.3707 27.21 33.0702 27.497 32.8499C27.7839 32.6296 28.1297 32.4994 28.4907 32.4757C28.8516 32.4521 29.2115 32.536 29.5248 32.7169C29.7328 32.8365 29.9152 32.996 30.0616 33.1861C30.2079 33.3763 30.3153 33.5935 30.3776 33.8253C30.4398 34.057 30.4558 34.2988 30.4245 34.5367C30.3932 34.7746 30.3152 35.004 30.1951 35.2118Z" fill="#92E3A9" stroke="#263238" stroke-linecap="round" stroke-linejoin="round"/>
<path d="M23.6515 30.9916C24.6613 30.9916 25.4798 30.173 25.4798 29.1632C25.4798 28.1535 24.6613 27.3349 23.6515 27.3349C22.6418 27.3349 21.8232 28.1535 21.8232 29.1632C21.8232 30.173 22.6418 30.9916 23.6515 30.9916Z" fill="#92E3A9" stroke="#263238" stroke-linecap="round" stroke-linejoin="round"/>
<path d="M19.8692 29.3041C20.8789 29.3041 21.6975 28.4855 21.6975 27.4757C21.6975 26.466 20.8789 25.6474 19.8692 25.6474C18.8594 25.6474 18.0409 26.466 18.0409 27.4757C18.0409 28.4855 18.8594 29.3041 19.8692 29.3041Z" fill="#92E3A9" stroke="#263238" stroke-linecap="round" stroke-linejoin="round"/>
<path d="M22.4022 41.3136C23.4119 41.3136 24.2305 40.495 24.2305 39.4853C24.2305 38.4755 23.4119 37.657 22.4022 37.657C21.3924 37.657 20.5739 38.4755 20.5739 39.4853C20.5739 40.495 21.3924 41.3136 22.4022 41.3136Z" fill="#92E3A9" stroke="#263238" stroke-linecap="round" stroke-linejoin="round"/>
<path d="M29.0032 37.6646C28.8224 37.9777 28.5528 38.2301 28.2286 38.3899C27.9043 38.5498 27.54 38.61 27.1815 38.5628C26.8231 38.5156 26.4867 38.3632 26.2149 38.1249C25.943 37.8866 25.7479 37.573 25.6542 37.2239C25.5605 36.8747 25.5725 36.5056 25.6885 36.1632C25.8046 35.8208 26.0195 35.5205 26.3062 35.3003C26.5929 35.08 26.9384 34.9497 27.2992 34.9258C27.6599 34.9019 28.0196 34.9855 28.3329 35.1659C28.7525 35.4089 29.0588 35.8084 29.1844 36.2767C29.3101 36.7451 29.2449 37.2442 29.0032 37.6646Z" fill="#92E3A9" stroke="#263238" stroke-linecap="round" stroke-linejoin="round"/>
<path d="M26.0702 34.4153C25.8898 34.7289 25.6205 34.9819 25.2963 35.1423C24.9721 35.3028 24.6075 35.3634 24.2488 35.3166C23.8901 35.2698 23.5534 35.1176 23.2812 34.8794C23.009 34.6411 22.8136 34.3274 22.7198 33.9781C22.6259 33.6288 22.6378 33.2594 22.7539 32.9168C22.87 32.5742 23.0851 32.2738 23.372 32.0535C23.659 31.8332 24.0048 31.7029 24.3658 31.6793C24.7267 31.6556 25.0866 31.7395 25.3999 31.9204C25.8193 32.1627 26.1254 32.5615 26.2511 33.0292C26.3768 33.497 26.3117 33.9955 26.0702 34.4153Z" fill="#92E3A9" stroke="#263238" stroke-linecap="round" stroke-linejoin="round"/>
<path d="M22.0441 33.4327C23.0538 33.4327 23.8724 32.6141 23.8724 31.6044C23.8724 30.5946 23.0538 29.7761 22.0441 29.7761C21.0343 29.7761 20.2158 30.5946 20.2158 31.6044C20.2158 32.6141 21.0343 33.4327 22.0441 33.4327Z" fill="#92E3A9" stroke="#263238" stroke-linecap="round" stroke-linejoin="round"/>
<path d="M19.8579 32.0732C20.8676 32.0732 21.6862 31.2546 21.6862 30.2449C21.6862 29.2352 20.8676 28.4166 19.8579 28.4166C18.8481 28.4166 18.0296 29.2352 18.0296 30.2449C18.0296 31.2546 18.8481 32.0732 19.8579 32.0732Z" fill="#92E3A9" stroke="#263238" stroke-linecap="round" stroke-linejoin="round"/>
<path d="M20.0901 35.9664C21.0999 35.9664 21.9184 35.1478 21.9184 34.1381C21.9184 33.1283 21.0999 32.3098 20.0901 32.3098C19.0804 32.3098 18.2618 33.1283 18.2618 34.1381C18.2618 35.1478 19.0804 35.9664 20.0901 35.9664Z" fill="#92E3A9" stroke="#263238" stroke-linecap="round" stroke-linejoin="round"/>
<path d="M26.9615 34.2404C26.2041 33.2532 25.3644 32.3319 24.4514 31.4865L26.8054 28.5041C26.8054 28.5041 26.6682 27.5328 25.9331 28.2984C25.9331 28.2984 24.8209 29.5401 23.7391 30.8961C23.2975 31.4546 22.8258 31.9887 22.326 32.4959C21.6463 32.3957 20.9778 32.2299 20.3301 32.0007C19.355 31.6198 18.3875 31.0789 18.2466 31.4941C18.1057 31.9093 19.2445 32.1683 19.9568 32.4768C20.5374 32.7094 21.133 32.9028 21.7394 33.0558C21.5035 33.2771 21.2486 33.4772 20.9776 33.6538C20.3796 34.0004 20.0597 34.2137 19.2293 34.6251C18.399 35.0365 17.8962 35.7373 18.3533 35.8021C18.8103 35.8668 22.0518 34.3699 22.924 33.3834L23.7887 32.3968C23.7887 32.3968 24.9694 32.5835 25.457 33.4557C25.9445 34.328 27.67 36.3163 27.9252 35.8706C28.1804 35.425 27.9595 35.604 26.9615 34.2404Z" fill="#A6A6A6" stroke="#263238" stroke-linecap="round" stroke-linejoin="round"/>
<path d="M17.8275 34.0996C18.8373 34.0996 19.6559 33.281 19.6559 32.2713C19.6559 31.2615 18.8373 30.443 17.8275 30.443C16.8178 30.443 15.9992 31.2615 15.9992 32.2713C15.9992 33.281 16.8178 34.0996 17.8275 34.0996Z" fill="#92E3A9" stroke="#263238" stroke-linecap="round" stroke-linejoin="round"/>
<path d="M20.1167 39.3522C21.1265 39.3522 21.945 38.5337 21.945 37.5239C21.945 36.5142 21.1265 35.6956 20.1167 35.6956C19.107 35.6956 18.2884 36.5142 18.2884 37.5239C18.2884 38.5337 19.107 39.3522 20.1167 39.3522Z" fill="#92E3A9" stroke="#263238" stroke-linecap="round" stroke-linejoin="round"/>
<path d="M21.3243 42.1824C21.1434 42.4954 20.8739 42.7478 20.5496 42.9077C20.2254 43.0675 19.861 43.1277 19.5026 43.0805C19.1441 43.0333 18.8077 42.881 18.5359 42.6426C18.264 42.4043 18.0689 42.0908 17.9753 41.7416C17.8816 41.3924 17.8935 41.0233 18.0096 40.6809C18.1256 40.3386 18.3406 40.0383 18.6273 39.818C18.9139 39.5978 19.2595 39.4674 19.6202 39.4435C19.9809 39.4196 20.3406 39.5032 20.6539 39.6837C20.8621 39.8036 21.0446 39.9634 21.191 40.154C21.3373 40.3445 21.4447 40.562 21.507 40.7941C21.5692 41.0261 21.5851 41.2682 21.5538 41.5064C21.5224 41.7446 21.4445 41.9743 21.3243 42.1824Z" fill="#92E3A9" stroke="#263238" stroke-linecap="round" stroke-linejoin="round"/>
<path d="M18.0637 45.4959C19.0735 45.4959 19.892 44.6773 19.892 43.6676C19.892 42.6578 19.0735 41.8393 18.0637 41.8393C17.054 41.8393 16.2354 42.6578 16.2354 43.6676C16.2354 44.6773 17.054 45.4959 18.0637 45.4959Z" fill="#92E3A9" stroke="#263238" stroke-linecap="round" stroke-linejoin="round"/>
<path d="M12.4419 43.0464C13.4517 43.0464 14.2702 42.2278 14.2702 41.2181C14.2702 40.2083 13.4517 39.3898 12.4419 39.3898C11.4322 39.3898 10.6136 40.2083 10.6136 41.2181C10.6136 42.2278 11.4322 43.0464 12.4419 43.0464Z" fill="#92E3A9" stroke="#263238" stroke-linecap="round" stroke-linejoin="round"/>
<path d="M15.5537 44.3458C16.5634 44.3458 17.382 43.5272 17.382 42.5175C17.382 41.5077 16.5634 40.6891 15.5537 40.6891C14.5439 40.6891 13.7253 41.5077 13.7253 42.5175C13.7253 43.5272 14.5439 44.3458 15.5537 44.3458Z" fill="#92E3A9" stroke="#263238" stroke-linecap="round" stroke-linejoin="round"/>
<path d="M13.7179 49.031C14.7276 49.031 15.5462 48.2124 15.5462 47.2026C15.5462 46.1929 14.7276 45.3743 13.7179 45.3743C12.7081 45.3743 11.8896 46.1929 11.8896 47.2026C11.8896 48.2124 12.7081 49.031 13.7179 49.031Z" fill="#92E3A9" stroke="#263238" stroke-linecap="round" stroke-linejoin="round"/>
<path d="M16.5326 46.8903C17.5424 46.8903 18.3609 46.0717 18.3609 45.062C18.3609 44.0523 17.5424 43.2337 16.5326 43.2337C15.5229 43.2337 14.7043 44.0523 14.7043 45.062C14.7043 46.0717 15.5229 46.8903 16.5326 46.8903Z" fill="#92E3A9" stroke="#263238" stroke-linecap="round" stroke-linejoin="round"/>
<path d="M14.5023 45.0807C14.3219 45.3942 14.0526 45.6472 13.7283 45.8077C13.4041 45.9681 13.0396 46.0287 12.6809 45.9819C12.3222 45.9351 11.9855 45.783 11.7133 45.5447C11.4411 45.3064 11.2457 44.9928 11.1518 44.6434C11.0579 44.2941 11.0698 43.9247 11.1859 43.5821C11.302 43.2395 11.5172 42.9391 11.8041 42.7188C12.091 42.4985 12.4369 42.3683 12.7978 42.3446C13.1588 42.3209 13.5187 42.4049 13.8319 42.5858C14.0403 42.705 14.2231 42.8643 14.3697 43.0544C14.5163 43.2446 14.6239 43.4618 14.6862 43.6937C14.7485 43.9256 14.7644 44.1675 14.7328 44.4056C14.7012 44.6436 14.6229 44.873 14.5023 45.0807Z" fill="#92E3A9" stroke="#263238" stroke-linecap="round" stroke-linejoin="round"/>
<path d="M17.8389 42.3797C18.7264 41.898 19.0554 40.7881 18.5737 39.9007C18.0921 39.0132 16.9822 38.6842 16.0947 39.1659C15.2073 39.6475 14.8783 40.7574 15.3599 41.6449C15.8416 42.5324 16.9515 42.8613 17.8389 42.3797Z" fill="#92E3A9" stroke="#263238" stroke-linecap="round" stroke-linejoin="round"/>
<path d="M15.9839 41.4771C15.8035 41.7907 15.5342 42.0437 15.21 42.2041C14.8857 42.3645 14.5212 42.4252 14.1625 42.3784C13.8038 42.3316 13.4671 42.1794 13.1949 41.9412C12.9227 41.7029 12.7273 41.3892 12.6334 41.0399C12.5395 40.6905 12.5514 40.3212 12.6675 39.9786C12.7836 39.636 12.9988 39.3355 13.2857 39.1153C13.5726 38.895 13.9185 38.7647 14.2794 38.7411C14.6404 38.7174 15.0003 38.8013 15.3135 38.9822C15.5216 39.1018 15.704 39.2613 15.8503 39.4515C15.9966 39.6417 16.104 39.8588 16.1663 40.0906C16.2286 40.3223 16.2445 40.5641 16.2132 40.802C16.1819 41.04 16.104 41.2694 15.9839 41.4771Z" fill="#92E3A9" stroke="#263238" stroke-linecap="round" stroke-linejoin="round"/>
<path d="M23.8382 38.2282C24.848 38.2282 25.6665 37.4096 25.6665 36.3999C25.6665 35.3901 24.848 34.5716 23.8382 34.5716C22.8285 34.5716 22.0099 35.3901 22.0099 36.3999C22.0099 37.4096 22.8285 38.2282 23.8382 38.2282Z" fill="#92E3A9" stroke="#263238" stroke-linecap="round" stroke-linejoin="round"/>
<path d="M17.1343 40.4033C18.144 40.4033 18.9626 39.5848 18.9626 38.575C18.9626 37.5653 18.144 36.7467 17.1343 36.7467C16.1245 36.7467 15.306 37.5653 15.306 38.575C15.306 39.5848 16.1245 40.4033 17.1343 40.4033Z" fill="#92E3A9" stroke="#263238" stroke-linecap="round" stroke-linejoin="round"/>
<path d="M14.6853 35.033C15.695 35.033 16.5136 34.2144 16.5136 33.2047C16.5136 32.1949 15.695 31.3764 14.6853 31.3764C13.6755 31.3764 12.857 32.1949 12.857 33.2047C12.857 34.2144 13.6755 35.033 14.6853 35.033Z" fill="#92E3A9" stroke="#263238" stroke-linecap="round" stroke-linejoin="round"/>
<path d="M16.5858 37.318C17.5955 37.318 18.4141 36.4994 18.4141 35.4896C18.4141 34.4799 17.5955 33.6613 16.5858 33.6613C15.5761 33.6613 14.7575 34.4799 14.7575 35.4896C14.7575 36.4994 15.5761 37.318 16.5858 37.318Z" fill="#92E3A9" stroke="#263238" stroke-linecap="round" stroke-linejoin="round"/>
<path d="M12.8948 39.9423C13.9046 39.9423 14.7231 39.1237 14.7231 38.114C14.7231 37.1042 13.9046 36.2857 12.8948 36.2857C11.8851 36.2857 11.0665 37.1042 11.0665 38.114C11.0665 39.1237 11.8851 39.9423 12.8948 39.9423Z" fill="#92E3A9" stroke="#263238" stroke-linecap="round" stroke-linejoin="round"/>
<path d="M16.8257 32.0087C17.8354 32.0087 18.654 31.1901 18.654 30.1804C18.654 29.1706 17.8354 28.3521 16.8257 28.3521C15.8159 28.3521 14.9974 29.1706 14.9974 30.1804C14.9974 31.1901 15.8159 32.0087 16.8257 32.0087Z" fill="#92E3A9" stroke="#263238" stroke-linecap="round" stroke-linejoin="round"/>
<path d="M15.1042 39.63C16.1139 39.63 16.9325 38.8115 16.9325 37.8017C16.9325 36.792 16.1139 35.9734 15.1042 35.9734C14.0945 35.9734 13.2759 36.792 13.2759 37.8017C13.2759 38.8115 14.0945 39.63 15.1042 39.63Z" fill="#92E3A9" stroke="#263238" stroke-linecap="round" stroke-linejoin="round"/>
<path d="M13.1387 37.1126C14.1484 37.1126 14.967 36.294 14.967 35.2843C14.967 34.2745 14.1484 33.4559 13.1387 33.4559C12.1289 33.4559 11.3103 34.2745 11.3103 35.2843C11.3103 36.294 12.1289 37.1126 13.1387 37.1126Z" fill="#92E3A9" stroke="#263238" stroke-linecap="round" stroke-linejoin="round"/>
<path d="M29.3231 38.1942C30.3328 38.1942 31.1514 37.3757 31.1514 36.3659C31.1514 35.3562 30.3328 34.5376 29.3231 34.5376C28.3133 34.5376 27.4948 35.3562 27.4948 36.3659C27.4948 37.3757 28.3133 38.1942 29.3231 38.1942Z" fill="#92E3A9" stroke="#263238" stroke-linecap="round" stroke-linejoin="round"/>
<path d="M26.6492 41.8012C27.659 41.8012 28.4775 40.9826 28.4775 39.9729C28.4775 38.9632 27.659 38.1446 26.6492 38.1446C25.6395 38.1446 24.8209 38.9632 24.8209 39.9729C24.8209 40.9826 25.6395 41.8012 26.6492 41.8012Z" fill="#92E3A9" stroke="#263238" stroke-linecap="round" stroke-linejoin="round"/>
<path d="M22.0196 44.5301C23.0267 44.4568 23.7837 43.581 23.7104 42.5739C23.6372 41.5669 22.7614 40.8098 21.7543 40.8831C20.7472 40.9563 19.9902 41.8321 20.0635 42.8392C20.1367 43.8463 21.0125 44.6033 22.0196 44.5301Z" fill="#92E3A9" stroke="#263238" stroke-linecap="round" stroke-linejoin="round"/>
<path d="M13.9196 32.0161C14.9293 32.0161 15.7479 31.1975 15.7479 30.1878C15.7479 29.178 14.9293 28.3595 13.9196 28.3595C12.9098 28.3595 12.0913 29.178 12.0913 30.1878C12.0913 31.1975 12.9098 32.0161 13.9196 32.0161Z" fill="#92E3A9" stroke="#263238" stroke-linecap="round" stroke-linejoin="round"/>
<path d="M17.6182 35.7334C18.6279 35.7334 19.4465 34.9148 19.4465 33.9051C19.4465 32.8953 18.6279 32.0768 17.6182 32.0768C16.6085 32.0768 15.7899 32.8953 15.7899 33.9051C15.7899 34.9148 16.6085 35.7334 17.6182 35.7334Z" fill="#92E3A9" stroke="#263238" stroke-linecap="round" stroke-linejoin="round"/>
<path d="M12.5028 40.2052C12.322 40.5183 12.0524 40.7707 11.7282 40.9305C11.4039 41.0904 11.0395 41.1506 10.6811 41.1034C10.3227 41.0562 9.98629 40.9038 9.71444 40.6655C9.44259 40.4272 9.2475 40.1136 9.15382 39.7645C9.06014 39.4153 9.07208 39.0462 9.18812 38.7038C9.30417 38.3614 9.51912 38.0611 9.8058 37.8409C10.0925 37.6206 10.438 37.4903 10.7988 37.4664C11.1595 37.4425 11.5192 37.5261 11.8324 37.7065C12.0406 37.8265 12.2231 37.9863 12.3695 38.1768C12.5159 38.3674 12.6233 38.5849 12.6855 38.8169C12.7478 39.049 12.7637 39.2911 12.7323 39.5293C12.701 39.7675 12.623 39.9972 12.5028 40.2052Z" fill="#92E3A9" stroke="#263238" stroke-linecap="round" stroke-linejoin="round"/>
<path d="M10.6249 45.4087C11.6346 45.4087 12.4532 44.5901 12.4532 43.5804C12.4532 42.5706 11.6346 41.7521 10.6249 41.7521C9.61513 41.7521 8.79657 42.5706 8.79657 43.5804C8.79657 44.5901 9.61513 45.4087 10.6249 45.4087Z" fill="#92E3A9" stroke="#263238" stroke-linecap="round" stroke-linejoin="round"/>
<path d="M32.5187 31.8408C32.5187 31.8408 29.3039 37.0515 27.8603 39.3788C26.4167 41.7061 24.0932 43.4811 24.8665 44.2581C25.6397 45.0351 30.9608 49.6897 32.0731 50.2458C33.1853 50.8019 40.8337 39.8245 41.2755 39.1579C41.7174 38.4913 34.9565 32.2827 32.5187 31.8408Z" fill="white" stroke="#263238" stroke-linecap="round" stroke-linejoin="round"/>
<path d="M28.3061 43.7593C28.3061 43.858 28.2768 43.9544 28.222 44.0365C28.1671 44.1185 28.0892 44.1825 27.998 44.2203C27.9069 44.258 27.8065 44.2679 27.7097 44.2486C27.6129 44.2294 27.524 44.1819 27.4542 44.1121C27.3845 44.0423 27.3369 43.9534 27.3177 43.8566C27.2984 43.7598 27.3083 43.6595 27.3461 43.5683C27.3838 43.4771 27.4478 43.3992 27.5299 43.3444C27.6119 43.2895 27.7084 43.2603 27.8071 43.2603C27.9394 43.2603 28.0663 43.3129 28.1599 43.4064C28.2535 43.5 28.3061 43.6269 28.3061 43.7593Z" fill="white" stroke="#263238" stroke-linecap="round" stroke-linejoin="round"/>
<path d="M32.7396 45.9606C32.7396 46.0812 32.7038 46.199 32.6368 46.2992C32.5699 46.3994 32.4747 46.4776 32.3633 46.5237C32.252 46.5698 32.1294 46.5819 32.0112 46.5584C31.893 46.5348 31.7844 46.4768 31.6992 46.3916C31.614 46.3063 31.5559 46.1977 31.5324 46.0795C31.5089 45.9613 31.5209 45.8388 31.5671 45.7274C31.6132 45.6161 31.6913 45.5209 31.7915 45.4539C31.8918 45.3869 32.0096 45.3512 32.1301 45.3512C32.2918 45.3512 32.4468 45.4154 32.5611 45.5297C32.6754 45.644 32.7396 45.799 32.7396 45.9606Z" fill="white" stroke="#263238" stroke-linecap="round" stroke-linejoin="round"/>
<path d="M31.521 41.3212C31.521 41.3966 31.4986 41.4702 31.4568 41.5329C31.4149 41.5955 31.3555 41.6443 31.2859 41.6731C31.2163 41.702 31.1397 41.7095 31.0658 41.6948C30.9919 41.6801 30.924 41.6438 30.8708 41.5906C30.8175 41.5373 30.7812 41.4694 30.7665 41.3956C30.7518 41.3217 30.7594 41.2451 30.7882 41.1755C30.817 41.1059 30.8658 41.0464 30.9285 41.0045C30.9911 40.9627 31.0648 40.9403 31.1401 40.9403C31.2411 40.9403 31.338 40.9805 31.4094 41.0519C31.4809 41.1233 31.521 41.2202 31.521 41.3212Z" fill="white" stroke="#263238" stroke-linecap="round" stroke-linejoin="round"/>
<path d="M33.5168 38.3431C33.5168 38.4418 33.4875 38.5383 33.4327 38.6203C33.3779 38.7024 33.3 38.7663 33.2088 38.8041C33.1176 38.8419 33.0173 38.8518 32.9205 38.8325C32.8237 38.8132 32.7348 38.7657 32.665 38.6959C32.5952 38.6262 32.5477 38.5372 32.5284 38.4405C32.5092 38.3437 32.5191 38.2433 32.5568 38.1522C32.5946 38.061 32.6586 37.9831 32.7406 37.9282C32.8227 37.8734 32.9191 37.8441 33.0178 37.8441C33.1502 37.8441 33.2771 37.8967 33.3707 37.9903C33.4642 38.0839 33.5168 38.2108 33.5168 38.3431Z" fill="white" stroke="#263238" stroke-linecap="round" stroke-linejoin="round"/>
<path d="M38.5067 39.4356C38.5067 39.5343 38.4774 39.6308 38.4226 39.7128C38.3677 39.7949 38.2898 39.8588 38.1986 39.8966C38.1075 39.9344 38.0071 39.9442 37.9103 39.925C37.8135 39.9057 37.7246 39.8582 37.6548 39.7884C37.5851 39.7186 37.5375 39.6297 37.5183 39.5329C37.499 39.4362 37.5089 39.3358 37.5467 39.2447C37.5845 39.1535 37.6484 39.0755 37.7305 39.0207C37.8125 38.9659 37.909 38.9366 38.0077 38.9366C38.14 38.9366 38.2669 38.9892 38.3605 39.0828C38.4541 39.1763 38.5067 39.3033 38.5067 39.4356Z" fill="white" stroke="#263238" stroke-linecap="round" stroke-linejoin="round"/>
<path d="M36.286 42.483C36.286 42.5704 36.26 42.6559 36.2115 42.7285C36.1629 42.8012 36.0939 42.8578 36.0132 42.8913C35.9325 42.9247 35.8436 42.9334 35.7579 42.9164C35.6722 42.8993 35.5935 42.8573 35.5317 42.7955C35.4699 42.7337 35.4278 42.655 35.4108 42.5692C35.3937 42.4835 35.4025 42.3947 35.4359 42.314C35.4694 42.2332 35.526 42.1642 35.5987 42.1157C35.6713 42.0671 35.7567 42.0412 35.8441 42.0412C35.9613 42.0412 36.0737 42.0878 36.1565 42.1706C36.2394 42.2535 36.286 42.3659 36.286 42.483Z" fill="white" stroke="#263238" stroke-linecap="round" stroke-linejoin="round"/>
<path d="M30.7439 39.1578C30.988 39.1578 31.1858 38.96 31.1858 38.716C31.1858 38.4719 30.988 38.2741 30.7439 38.2741C30.4999 38.2741 30.3021 38.4719 30.3021 38.716C30.3021 38.96 30.4999 39.1578 30.7439 39.1578Z" fill="white" stroke="#263238" stroke-linecap="round" stroke-linejoin="round"/>
<path d="M34.846 35.3336C34.846 35.4323 34.8167 35.5288 34.7619 35.6108C34.7071 35.6929 34.6291 35.7568 34.5379 35.7946C34.4468 35.8324 34.3464 35.8422 34.2497 35.823C34.1529 35.8037 34.064 35.7562 33.9942 35.6864C33.9244 35.6166 33.8769 35.5277 33.8576 35.4309C33.8384 35.3341 33.8482 35.2338 33.886 35.1426C33.9238 35.0515 33.9877 34.9735 34.0698 34.9187C34.1518 34.8639 34.2483 34.8346 34.347 34.8346C34.4793 34.8346 34.6062 34.8872 34.6998 34.9808C34.7934 35.0743 34.846 35.2013 34.846 35.3336Z" fill="white" stroke="#263238" stroke-linecap="round" stroke-linejoin="round"/>
<path d="M34.6251 45.5341C34.6251 45.6094 34.6027 45.6831 34.5609 45.7457C34.519 45.8083 34.4595 45.8572 34.3899 45.886C34.3203 45.9148 34.2438 45.9224 34.1699 45.9077C34.096 45.893 34.0281 45.8567 33.9749 45.8034C33.9216 45.7501 33.8853 45.6823 33.8706 45.6084C33.8559 45.5345 33.8635 45.4579 33.8923 45.3883C33.9211 45.3187 33.9699 45.2592 34.0326 45.2174C34.0952 45.1755 34.1689 45.1532 34.2442 45.1532C34.3452 45.1532 34.4421 45.1933 34.5135 45.2647C34.585 45.3362 34.6251 45.4331 34.6251 45.5341Z" fill="white" stroke="#263238" stroke-linecap="round" stroke-linejoin="round"/>
<path d="M38.5522 37.92C38.5522 37.92 33.8558 41.8547 31.757 43.6068C29.6583 45.3589 26.8853 46.315 27.3767 47.2939C27.8681 48.2728 31.4523 54.371 32.3284 55.247C33.2044 56.1231 43.9267 48.1166 44.5552 47.6291C45.1837 47.1415 40.7272 39.1046 38.5522 37.92Z" fill="white" stroke="#263238" stroke-linecap="round" stroke-linejoin="round"/>
<path d="M30.7973 47.9032C30.7665 47.9971 30.7086 48.0798 30.6308 48.1407C30.553 48.2017 30.4589 48.2382 30.3604 48.2456C30.2618 48.253 30.1633 48.2309 30.0773 48.1823C29.9913 48.1336 29.9217 48.0605 29.8773 47.9722C29.8329 47.8839 29.8157 47.7845 29.8279 47.6864C29.8401 47.5883 29.8811 47.4961 29.9458 47.4214C30.0105 47.3467 30.0959 47.2929 30.1912 47.2668C30.2865 47.2406 30.3874 47.2434 30.4811 47.2747C30.6062 47.3165 30.7096 47.406 30.7688 47.5238C30.828 47.6415 30.8383 47.7779 30.7973 47.9032Z" fill="white" stroke="#263238" stroke-linecap="round" stroke-linejoin="round"/>
<path d="M34.3053 51.4075C34.2387 51.5368 34.128 51.6381 33.9933 51.6929C33.8586 51.7478 33.7087 51.7527 33.5707 51.7067C33.4327 51.6607 33.3157 51.5669 33.2409 51.4421C33.166 51.3174 33.1383 51.17 33.1626 51.0266C33.1773 50.9399 33.2106 50.8574 33.2602 50.7848C33.3098 50.7122 33.3745 50.6512 33.4498 50.606C33.5252 50.5607 33.6095 50.5323 33.6969 50.5227C33.7843 50.5131 33.8727 50.5226 33.9562 50.5504C34.0396 50.5782 34.116 50.6237 34.1801 50.6838C34.2443 50.7439 34.2947 50.8172 34.3278 50.8986C34.361 50.9801 34.3762 51.0677 34.3723 51.1555C34.3684 51.2434 34.3455 51.3293 34.3053 51.4075Z" fill="white" stroke="#263238" stroke-linecap="round" stroke-linejoin="round"/>
<path d="M34.6178 46.604C34.5929 46.6743 34.5478 46.7358 34.4883 46.7808C34.4287 46.8258 34.3573 46.8523 34.2828 46.857C34.2083 46.8617 34.1341 46.8444 34.0693 46.8073C34.0046 46.7702 33.9521 46.7149 33.9186 46.6482C33.885 46.5816 33.8717 46.5065 33.8804 46.4324C33.8891 46.3583 33.9194 46.2884 33.9675 46.2313C34.0156 46.1742 34.0794 46.1326 34.151 46.1115C34.2226 46.0904 34.2988 46.0908 34.3702 46.1126C34.4193 46.1277 34.4649 46.1525 34.5042 46.1856C34.5435 46.2188 34.5757 46.2595 34.5989 46.3054C34.622 46.3513 34.6356 46.4015 34.6389 46.4528C34.6421 46.5041 34.6349 46.5555 34.6178 46.604Z" fill="white" stroke="#263238" stroke-linecap="round" stroke-linejoin="round"/>
<path d="M37.4553 44.3916C37.4134 44.5173 37.3232 44.6213 37.2046 44.6806C37.0861 44.7399 36.9488 44.7496 36.823 44.7077C36.6973 44.6658 36.5933 44.5756 36.534 44.4571C36.4747 44.3385 36.465 44.2012 36.5069 44.0754C36.5276 44.0132 36.5605 43.9556 36.6035 43.906C36.6465 43.8564 36.6988 43.8158 36.7575 43.7864C36.8163 43.757 36.8802 43.7395 36.9457 43.7349C37.0111 43.7302 37.0769 43.7385 37.1392 43.7593C37.2014 43.78 37.259 43.8129 37.3086 43.8559C37.3582 43.8989 37.3988 43.9512 37.4282 44.01C37.4575 44.0687 37.475 44.1326 37.4797 44.1981C37.4844 44.2635 37.4761 44.3293 37.4553 44.3916Z" fill="white" stroke="#263238" stroke-linecap="round" stroke-linejoin="round"/>
<path d="M41.8396 47.0157C41.8188 47.078 41.786 47.1355 41.743 47.1851C41.7 47.2347 41.6476 47.2753 41.5889 47.3047C41.5302 47.3341 41.4663 47.3516 41.4008 47.3562C41.3353 47.3609 41.2695 47.3526 41.2073 47.3318C41.145 47.3111 41.0874 47.2782 41.0378 47.2352C40.9882 47.1922 40.9476 47.1399 40.9182 47.0811C40.8889 47.0224 40.8714 46.9585 40.8667 46.893C40.8621 46.8276 40.8704 46.7618 40.8911 46.6995C40.9345 46.5748 41.0249 46.472 41.143 46.4129C41.2611 46.3539 41.3976 46.3433 41.5234 46.3834C41.5858 46.404 41.6434 46.4368 41.6931 46.4798C41.7427 46.5228 41.7834 46.5751 41.8128 46.6339C41.8421 46.6926 41.8596 46.7566 41.8642 46.8221C41.8688 46.8876 41.8604 46.9534 41.8396 47.0157Z" fill="white" stroke="#263238" stroke-linecap="round" stroke-linejoin="round"/>
<path d="M38.773 49.2095C38.7454 49.2922 38.6939 49.365 38.625 49.4185C38.556 49.472 38.4728 49.5039 38.3858 49.5102C38.2987 49.5165 38.2118 49.4969 38.1359 49.4538C38.06 49.4107 37.9985 49.3461 37.9593 49.2682C37.92 49.1902 37.9048 49.1024 37.9154 49.0158C37.926 48.9292 37.962 48.8476 38.0189 48.7815C38.0758 48.7153 38.151 48.6675 38.2351 48.644C38.3191 48.6205 38.4082 48.6224 38.4912 48.6495C38.5466 48.6676 38.5978 48.6965 38.642 48.7345C38.6862 48.7725 38.7224 48.8188 38.7486 48.8708C38.7748 48.9229 38.7904 48.9796 38.7946 49.0377C38.7988 49.0958 38.7915 49.1542 38.773 49.2095Z" fill="white" stroke="#263238" stroke-linecap="round" stroke-linejoin="round"/>
<path d="M35.1203 44.0258C35.102 44.0811 35.073 44.1322 35.035 44.1763C34.997 44.2204 34.9507 44.2565 34.8987 44.2827C34.8467 44.3089 34.79 44.3246 34.732 44.3288C34.6739 44.3331 34.6156 44.3259 34.5603 44.3077C34.5051 44.2894 34.4539 44.2605 34.4098 44.2224C34.3658 44.1844 34.3296 44.1381 34.3034 44.0861C34.2773 44.0341 34.2616 43.9775 34.2573 43.9194C34.253 43.8614 34.2602 43.803 34.2785 43.7478C34.3167 43.6362 34.3972 43.5442 34.5027 43.4915C34.6081 43.4387 34.73 43.4296 34.8422 43.4659C34.8975 43.4839 34.9487 43.5128 34.9928 43.5509C35.0368 43.5889 35.0728 43.6354 35.0987 43.6875C35.1246 43.7396 35.1398 43.7964 35.1435 43.8545C35.1472 43.9126 35.1393 43.9708 35.1203 44.0258Z" fill="white" stroke="#263238" stroke-linecap="round" stroke-linejoin="round"/>
<path d="M39.6606 41.9689C39.6299 42.0628 39.5719 42.1455 39.4941 42.2064C39.4164 42.2674 39.3222 42.3039 39.2237 42.3112C39.1252 42.3186 39.0266 42.2966 38.9406 42.2479C38.8546 42.1993 38.785 42.1262 38.7406 42.0379C38.6962 41.9496 38.679 41.8501 38.6912 41.7521C38.7034 41.654 38.7444 41.5618 38.8091 41.4871C38.8738 41.4124 38.9592 41.3585 39.0545 41.3324C39.1498 41.3063 39.2507 41.3091 39.3444 41.3404C39.4695 41.3821 39.5729 41.4717 39.6321 41.5894C39.6914 41.7072 39.7016 41.8436 39.6606 41.9689Z" fill="white" stroke="#263238" stroke-linecap="round" stroke-linejoin="round"/>
<path d="M36.2324 51.579C36.2173 51.6278 36.1926 51.6729 36.1597 51.7119C36.1269 51.7509 36.0865 51.7829 36.041 51.806C35.9955 51.8291 35.9459 51.8428 35.895 51.8463C35.8442 51.8499 35.7931 51.8432 35.7449 51.8266C35.6957 51.8116 35.6501 51.7867 35.6108 51.7536C35.5715 51.7205 35.5393 51.6797 35.5162 51.6338C35.493 51.5879 35.4794 51.5378 35.4762 51.4865C35.4729 51.4352 35.4801 51.3837 35.4973 51.3353C35.5123 51.2861 35.5372 51.2405 35.5703 51.2012C35.6034 51.1619 35.6442 51.1297 35.6901 51.1066C35.736 51.0834 35.7861 51.0698 35.8374 51.0666C35.8887 51.0634 35.9402 51.0705 35.9886 51.0877C36.0374 51.1031 36.0826 51.1283 36.1215 51.1616C36.1604 51.1949 36.1922 51.2357 36.2149 51.2816C36.2377 51.3274 36.251 51.3774 36.254 51.4285C36.257 51.4796 36.2496 51.5308 36.2324 51.579Z" fill="white" stroke="#263238" stroke-linecap="round" stroke-linejoin="round"/>
<path d="M40.556 46.4402C40.556 46.4402 34.5378 47.6286 31.8715 48.1543C29.2052 48.6799 26.3028 48.1809 26.2609 49.297C26.219 50.413 26.4247 57.4634 26.7751 58.6518C27.1255 59.8402 40.3693 57.9814 41.1616 57.8557C41.9539 57.73 41.8891 48.5276 40.556 46.4402Z" fill="white" stroke="#263238" stroke-linecap="round" stroke-linejoin="round"/>
<path d="M28.9538 51.457C28.9063 51.5044 28.8497 51.5418 28.7875 51.5669C28.7253 51.5919 28.6586 51.6042 28.5915 51.6029C28.5244 51.6016 28.4583 51.5868 28.3971 51.5594C28.3358 51.532 28.2808 51.4925 28.2352 51.4433C28.1895 51.3941 28.1543 51.3362 28.1316 51.273C28.1089 51.2099 28.0991 51.1428 28.1029 51.0758C28.1067 51.0089 28.1239 50.9433 28.1536 50.8832C28.1833 50.823 28.2249 50.7694 28.2758 50.7257C28.3232 50.6783 28.3798 50.6409 28.442 50.6158C28.5042 50.5908 28.5709 50.5785 28.638 50.5798C28.7051 50.5811 28.7712 50.5959 28.8324 50.6233C28.8937 50.6507 28.9487 50.6902 28.9944 50.7394C29.04 50.7886 29.0752 50.8465 29.0979 50.9097C29.1207 50.9728 29.1304 51.0399 29.1266 51.1068C29.1228 51.1738 29.1056 51.2394 29.0759 51.2995C29.0462 51.3597 29.0046 51.4133 28.9538 51.457Z" fill="white" stroke="#263238" stroke-linecap="round" stroke-linejoin="round"/>
<path d="M30.3475 56.218C30.2594 56.3003 30.1488 56.3545 30.0298 56.3739C29.9108 56.3933 29.7887 56.3769 29.679 56.3269C29.5693 56.2769 29.4769 56.1954 29.4135 56.0929C29.3501 55.9903 29.3185 55.8713 29.3228 55.7508C29.3271 55.6303 29.367 55.5138 29.4375 55.416C29.508 55.3182 29.6059 55.2435 29.7189 55.2014C29.8318 55.1592 29.9547 55.1515 30.0721 55.1793C30.1894 55.207 30.2959 55.2689 30.378 55.3572C30.488 55.4754 30.5466 55.6325 30.5409 55.7939C30.5352 55.9553 30.4656 56.1079 30.3475 56.218Z" fill="white" stroke="#263238" stroke-linecap="round" stroke-linejoin="round"/>
<path d="M32.9266 52.158C32.8706 52.2076 32.8014 52.2395 32.7274 52.25C32.6534 52.2604 32.578 52.2489 32.5105 52.2168C32.4431 52.1847 32.3865 52.1335 32.348 52.0695C32.3094 52.0055 32.2905 51.9316 32.2936 51.8569C32.2967 51.7823 32.3217 51.7102 32.3655 51.6497C32.4092 51.5891 32.4698 51.5428 32.5397 51.5164C32.6096 51.49 32.6857 51.4848 32.7586 51.5014C32.8314 51.5179 32.8978 51.5556 32.9494 51.6095C32.9849 51.6466 33.0124 51.6904 33.0305 51.7384C33.0486 51.7863 33.0569 51.8374 33.0547 51.8887C33.0526 51.9399 33.0401 51.9901 33.0181 52.0364C32.9961 52.0827 32.965 52.1241 32.9266 52.158Z" fill="white" stroke="#263238" stroke-linecap="round" stroke-linejoin="round"/>
<path d="M36.4801 51.5827C36.4078 51.6499 36.3172 51.6941 36.2197 51.7097C36.1222 51.7254 36.0223 51.7118 35.9326 51.6706C35.8428 51.6294 35.7673 51.5626 35.7156 51.4785C35.6639 51.3944 35.6383 51.2968 35.642 51.1982C35.6458 51.0996 35.6787 51.0042 35.7366 50.9243C35.7945 50.8444 35.8748 50.7834 35.9674 50.7491C36.06 50.7149 36.1607 50.7088 36.2567 50.7318C36.3527 50.7547 36.4397 50.8056 36.5068 50.8781C36.5966 50.9751 36.6443 51.1038 36.6393 51.2359C36.6343 51.3681 36.577 51.4928 36.4801 51.5827Z" fill="white" stroke="#263238" stroke-linecap="round" stroke-linejoin="round"/>
<path d="M39.0589 55.9936C38.9866 56.0608 38.8959 56.105 38.7985 56.1206C38.701 56.1362 38.6011 56.1226 38.5113 56.0814C38.4216 56.0403 38.3461 55.9734 38.2944 55.8893C38.2427 55.8052 38.2171 55.7077 38.2208 55.609C38.2245 55.5104 38.2574 55.4151 38.3154 55.3351C38.3733 55.2552 38.4536 55.1942 38.5462 55.16C38.6388 55.1257 38.7394 55.1197 38.8354 55.1426C38.9315 55.1656 39.0185 55.2165 39.0856 55.2889C39.1754 55.386 39.223 55.5147 39.218 55.6468C39.213 55.7789 39.1558 55.9036 39.0589 55.9936Z" fill="white" stroke="#263238" stroke-linecap="round" stroke-linejoin="round"/>
<path d="M35.3184 56.4431C35.254 56.5033 35.1731 56.543 35.086 56.5572C34.9989 56.5714 34.9096 56.5595 34.8293 56.5228C34.749 56.4862 34.6815 56.4266 34.6351 56.3515C34.5888 56.2765 34.5657 56.1894 34.5689 56.1012C34.5721 56.013 34.6014 55.9278 34.6531 55.8563C34.7048 55.7848 34.7765 55.7303 34.8593 55.6996C34.942 55.6689 35.0319 55.6634 35.1177 55.6839C35.2036 55.7044 35.2813 55.7499 35.3413 55.8146C35.4214 55.9011 35.4639 56.0158 35.4596 56.1336C35.4553 56.2514 35.4046 56.3627 35.3184 56.4431Z" fill="white" stroke="#263238" stroke-linecap="round" stroke-linejoin="round"/>
<path d="M34.61 50.1508C34.546 50.2103 34.4658 50.2494 34.3795 50.2633C34.2932 50.2772 34.2048 50.2652 34.1253 50.2288C34.0459 50.1924 33.979 50.1333 33.9332 50.0589C33.8873 49.9845 33.8646 49.8982 33.8678 49.8109C33.871 49.7236 33.9 49.6392 33.9511 49.5684C34.0023 49.4975 34.0733 49.4435 34.1552 49.413C34.2371 49.3825 34.3262 49.377 34.4112 49.3971C34.4962 49.4173 34.5733 49.4622 34.6328 49.5262C34.6724 49.5687 34.7032 49.6185 34.7234 49.673C34.7437 49.7274 34.753 49.7852 34.7509 49.8432C34.7487 49.9012 34.7352 49.9583 34.711 50.011C34.6869 50.0638 34.6525 50.1113 34.61 50.1508Z" fill="white" stroke="#263238" stroke-linecap="round" stroke-linejoin="round"/>
<path d="M39.5768 50.5316C39.5293 50.577 39.4731 50.6125 39.4116 50.6358C39.3501 50.6591 39.2846 50.6698 39.2189 50.6673C39.1531 50.6648 39.0886 50.6492 39.029 50.6213C38.9695 50.5934 38.9161 50.5538 38.8722 50.5049C38.805 50.4326 38.7608 50.342 38.7452 50.2445C38.7295 50.147 38.7432 50.0471 38.7843 49.9574C38.8255 49.8676 38.8923 49.7922 38.9764 49.7404C39.0605 49.6887 39.1581 49.6631 39.2567 49.6668C39.3554 49.6706 39.4507 49.7035 39.5306 49.7614C39.6106 49.8193 39.6715 49.8997 39.7058 49.9922C39.7401 50.0848 39.7461 50.1855 39.7231 50.2815C39.7002 50.3775 39.6493 50.4645 39.5768 50.5316Z" fill="white" stroke="#263238" stroke-linecap="round" stroke-linejoin="round"/>
<path d="M31.9514 57.296C31.8958 57.346 31.8268 57.3784 31.7528 57.3894C31.6789 57.4004 31.6034 57.3894 31.5357 57.3577C31.468 57.3261 31.4111 57.2753 31.3721 57.2116C31.3331 57.1479 31.3137 57.0741 31.3163 56.9994C31.3189 56.9247 31.3433 56.8525 31.3867 56.7916C31.4301 56.7308 31.4903 56.684 31.5601 56.6572C31.6298 56.6303 31.7059 56.6246 31.7789 56.6406C31.8518 56.6567 31.9185 56.6939 31.9705 56.7476C32.0061 56.7843 32.034 56.828 32.0524 56.8758C32.0708 56.9236 32.0794 56.9746 32.0776 57.0258C32.0758 57.0771 32.0637 57.1274 32.042 57.1738C32.0204 57.2202 31.9895 57.2618 31.9514 57.296Z" fill="white" stroke="#263238" stroke-linecap="round" stroke-linejoin="round"/>
<path d="M15.9079 57.1287L23.6287 60.6939C25.2304 58.7604 26.1256 56.3389 26.1667 53.8284C26.2079 51.318 25.3926 48.8685 23.8552 46.8835C22.3178 44.8984 20.15 43.4964 17.709 42.9084C15.2681 42.3204 12.6997 42.5816 10.427 43.6488C8.15436 44.716 6.31309 46.5256 5.20662 48.7794C4.10016 51.0332 3.79452 53.5968 4.3401 56.0475C4.88567 58.4983 6.24989 60.6901 8.20795 62.2617C10.166 63.8333 12.601 64.6909 15.1118 64.6933C15.82 64.6923 16.5265 64.6247 17.222 64.4914L15.9079 57.1287Z" fill="white" stroke="#263238" stroke-linecap="round" stroke-linejoin="round"/>
<path d="M15.9078 56.2448L23.6286 59.8062C25.2851 57.7998 26.1802 55.2732 26.1562 52.6715C26.1321 50.0698 25.1905 47.5601 23.4973 45.5847C21.8041 43.6093 19.4679 42.295 16.9005 41.8735C14.3331 41.4519 11.6993 41.9501 9.46323 43.2802C7.22719 44.6104 5.53245 46.6872 4.67769 49.1446C3.82294 51.602 3.86303 54.2822 4.79091 56.7129C5.71879 59.1436 7.4749 61.1687 9.74973 62.4314C12.0246 63.6941 14.6721 64.1133 17.2257 63.6151L15.9078 56.2448Z" fill="white" stroke="#263238" stroke-linecap="round" stroke-linejoin="round"/>
<path d="M6.36641 53.9332C6.86498 53.9332 7.26914 53.5291 7.26914 53.0305C7.26914 52.532 6.86498 52.1278 6.36641 52.1278C5.86785 52.1278 5.46369 52.532 5.46369 53.0305C5.46369 53.5291 5.86785 53.9332 6.36641 53.9332Z" fill="white" stroke="#263238" stroke-linecap="round" stroke-linejoin="round"/>
<path d="M9.3982 56.5874C9.3982 56.6891 9.36804 56.7885 9.31154 56.8731C9.25504 56.9576 9.17473 57.0235 9.08077 57.0625C8.98681 57.1014 8.88342 57.1116 8.78367 57.0917C8.68392 57.0719 8.5923 57.0229 8.52038 56.951C8.44847 56.8791 8.39949 56.7875 8.37965 56.6877C8.35981 56.588 8.37 56.4846 8.40892 56.3906C8.44784 56.2967 8.51375 56.2163 8.59831 56.1598C8.68287 56.1033 8.78228 56.0732 8.88399 56.0732C8.95165 56.0727 9.01875 56.0856 9.08136 56.1113C9.14398 56.137 9.20088 56.1748 9.24873 56.2227C9.29658 56.2705 9.33442 56.3274 9.36008 56.39C9.38575 56.4526 9.39871 56.5197 9.3982 56.5874Z" fill="white" stroke="#263238" stroke-linecap="round" stroke-linejoin="round"/>
<path d="M11.5122 53.3271C11.7731 53.3271 11.9846 53.1156 11.9846 52.8548C11.9846 52.5939 11.7731 52.3824 11.5122 52.3824C11.2514 52.3824 11.0399 52.5939 11.0399 52.8548C11.0399 53.1156 11.2514 53.3271 11.5122 53.3271Z" fill="white" stroke="#263238" stroke-linecap="round" stroke-linejoin="round"/>
<path d="M13.0169 47.7929C13.0177 47.8865 12.9906 47.9781 12.9392 48.0563C12.8878 48.1345 12.8143 48.1956 12.728 48.2319C12.6418 48.2683 12.5467 48.2782 12.4548 48.2604C12.363 48.2426 12.2784 48.1979 12.212 48.132C12.1456 48.0661 12.1002 47.982 12.0817 47.8902C12.0631 47.7985 12.0723 47.7034 12.1079 47.6168C12.1435 47.5303 12.2041 47.4563 12.2818 47.4042C12.3596 47.3522 12.451 47.3244 12.5446 47.3244C12.6692 47.3244 12.7888 47.3736 12.8773 47.4614C12.9657 47.5491 13.0159 47.6683 13.0169 47.7929Z" fill="white" stroke="#263238" stroke-linecap="round" stroke-linejoin="round"/>
<path d="M21.5871 54.0166C21.5855 54.1018 21.5587 54.1847 21.51 54.2547C21.4612 54.3247 21.3928 54.3786 21.3134 54.4097C21.234 54.4407 21.1471 54.4475 21.0638 54.4291C20.9806 54.4106 20.9046 54.3679 20.8457 54.3063C20.7867 54.2447 20.7474 54.1669 20.7327 54.0829C20.718 53.9989 20.7286 53.9124 20.7632 53.8345C20.7977 53.7565 20.8546 53.6905 20.9267 53.645C20.9988 53.5994 21.0828 53.5763 21.1681 53.5785C21.2244 53.5795 21.28 53.5916 21.3317 53.6142C21.3833 53.6368 21.4299 53.6695 21.4689 53.7102C21.5078 53.7509 21.5384 53.799 21.5586 53.8515C21.5789 53.9041 21.5886 53.9602 21.5871 54.0166Z" fill="white" stroke="#263238" stroke-linecap="round" stroke-linejoin="round"/>
<path d="M22.1966 48.6534C22.1966 48.7288 22.1743 48.8024 22.1324 48.8651C22.0906 48.9277 22.0311 48.9765 21.9615 49.0053C21.8919 49.0342 21.8153 49.0417 21.7414 49.027C21.6676 49.0123 21.5997 48.976 21.5464 48.9228C21.4931 48.8695 21.4569 48.8016 21.4422 48.7278C21.4275 48.6539 21.435 48.5773 21.4638 48.5077C21.4927 48.4381 21.5415 48.3786 21.6041 48.3367C21.6668 48.2949 21.7404 48.2725 21.8157 48.2725C21.9168 48.2725 22.0136 48.3127 22.0851 48.3841C22.1565 48.4555 22.1966 48.5524 22.1966 48.6534Z" fill="white" stroke="#263238" stroke-linecap="round" stroke-linejoin="round"/>
<path d="M16.9631 50.6687C17.2008 50.6687 17.3935 50.476 17.3935 50.2383C17.3935 50.0005 17.2008 49.8078 16.9631 49.8078C16.7254 49.8078 16.5327 50.0005 16.5327 50.2383C16.5327 50.476 16.7254 50.6687 16.9631 50.6687Z" fill="white" stroke="#263238" stroke-linecap="round" stroke-linejoin="round"/>
<path d="M26.7215 55.9592C26.7215 55.9592 25.3655 56.5953 24.996 57.8637C24.6266 59.132 25.3198 60.7775 26.173 61.806C27.0262 62.8344 28.1041 64.2399 28.9497 64.5598C31.1361 65.3826 32.016 62.1411 31.597 60.6518C31.4294 60.0462 32.5568 59.4063 31.776 57.3685C30.9952 55.3307 27.9099 54.8584 26.7215 55.9592Z" fill="#92E3A9" stroke="#263238" stroke-linecap="round" stroke-linejoin="round"/>
<path d="M27.4682 55.426C27.3209 55.289 27.1413 55.1916 26.9461 55.143C26.7509 55.0944 26.5465 55.0961 26.3522 55.148C25.8765 55.2818 25.4107 55.4485 24.9581 55.647C24.9581 55.647 25.5637 56.1002 25.9294 56.0583C26.4602 55.8939 26.9752 55.6823 27.4682 55.426Z" fill="#263238"/>
<path d="M27.468 55.426C27.4657 55.0411 27.5105 54.6573 27.6013 54.2833C27.7423 53.811 28.066 53.232 28.0736 52.9539C28.0813 52.6759 28.7669 52.8435 28.5917 53.6319C28.4165 54.4204 27.468 55.426 27.468 55.426Z" fill="#263238"/>
<path d="M26.8778 59.8368L26.8435 59.8749C26.8233 59.8953 26.7993 59.9115 26.7728 59.9225C26.7463 59.9336 26.7179 59.9393 26.6892 59.9393C26.6605 59.9393 26.6321 59.9336 26.6056 59.9225C26.5792 59.9115 26.5551 59.8953 26.5349 59.8749C26.2689 59.5431 26.0283 59.1917 25.815 58.8237C25.786 58.7731 25.778 58.7131 25.793 58.6567C25.808 58.6003 25.8447 58.5522 25.895 58.5228C25.9196 58.5079 25.947 58.4982 25.9754 58.4942C26.0039 58.4902 26.0329 58.492 26.0606 58.4995C26.0884 58.5069 26.1143 58.5199 26.1369 58.5377C26.1595 58.5554 26.1783 58.5776 26.1921 58.6027C26.3888 58.9436 26.6104 59.2695 26.8549 59.5778C26.8851 59.6133 26.9035 59.6573 26.9076 59.7037C26.9117 59.7501 26.9013 59.7966 26.8778 59.8368Z" fill="#263238"/>
<path d="M28.4812 59.1931C28.4661 59.2164 28.4466 59.2364 28.4237 59.2521C28.4008 59.2678 28.375 59.2788 28.3479 59.2845C28.3201 59.2918 28.2911 59.2935 28.2627 59.2894C28.2342 59.2852 28.2069 59.2754 28.1824 59.2605C28.1578 59.2455 28.1366 59.2258 28.1198 59.2024C28.1031 59.1791 28.0913 59.1525 28.0851 59.1245L27.7727 57.7914C27.766 57.7633 27.7648 57.7342 27.7694 57.7058C27.7741 57.6773 27.7843 57.6501 27.7995 57.6256C27.8148 57.6011 27.8347 57.58 27.8582 57.5633C27.8818 57.5466 27.9084 57.5348 27.9365 57.5285C27.9643 57.5217 27.9931 57.5205 28.0214 57.5248C28.0496 57.5292 28.0767 57.5391 28.1011 57.5539C28.1256 57.5688 28.1468 57.5883 28.1637 57.6114C28.1805 57.6345 28.1926 57.6607 28.1993 57.6885L28.5117 59.0217C28.5182 59.0508 28.5189 59.081 28.5137 59.1104C28.5085 59.1399 28.4974 59.168 28.4812 59.1931Z" fill="#263238"/>
<path d="M29.8792 58.6981C29.8527 58.7363 29.8151 58.7656 29.7716 58.7819C29.728 58.7982 29.6805 58.8009 29.6354 58.7895C29.5801 58.7727 29.5334 58.7352 29.505 58.6848C29.4766 58.6345 29.4688 58.5751 29.483 58.5191L29.8144 57.3231C29.8348 57.2728 29.8731 57.2318 29.9217 57.2079C29.9704 57.1841 30.0262 57.1789 30.0785 57.1935C30.1307 57.2081 30.1758 57.2414 30.205 57.2871C30.2343 57.3327 30.2458 57.3876 30.2372 57.4411L29.9058 58.6333C29.8992 58.6558 29.8903 58.6775 29.8792 58.6981Z" fill="#263238"/>
<path d="M27.8378 61.9852C27.8227 62.0096 27.8028 62.0308 27.7793 62.0474C27.7558 62.064 27.7292 62.0756 27.7011 62.0817C27.673 62.0877 27.644 62.088 27.6158 62.0826C27.5875 62.0771 27.5607 62.066 27.5369 62.0499L26.8627 61.6119C26.8145 61.5793 26.781 61.5291 26.7696 61.472C26.7582 61.415 26.7697 61.3557 26.8018 61.3072C26.8336 61.2592 26.8832 61.2258 26.9396 61.2144C26.996 61.2029 27.0547 61.2144 27.1027 61.2462L27.7768 61.6842C27.8248 61.7161 27.8582 61.7656 27.8696 61.8221C27.8811 61.8785 27.8696 61.9372 27.8378 61.9852Z" fill="#263238"/>
<path d="M28.6831 61.1277C28.6603 61.162 28.6287 61.1896 28.5917 61.2076C28.5657 61.2198 28.5376 61.2267 28.5089 61.2279C28.4803 61.2291 28.4517 61.2246 28.4247 61.2147C28.3978 61.2048 28.3731 61.1896 28.3521 61.1701C28.3311 61.1506 28.3141 61.1271 28.3022 61.101L27.9937 60.4497C27.9816 60.4237 27.9747 60.3955 27.9735 60.3669C27.9723 60.3382 27.9768 60.3096 27.9867 60.2827C27.9966 60.2558 28.0117 60.2311 28.0313 60.21C28.0508 60.189 28.0743 60.1721 28.1004 60.1602C28.126 60.1474 28.154 60.1399 28.1826 60.1381C28.2113 60.1364 28.2399 60.1405 28.267 60.1501C28.294 60.1597 28.3188 60.1746 28.3399 60.194C28.361 60.2134 28.378 60.2369 28.3898 60.263L28.6984 60.9143C28.7131 60.9485 28.7194 60.9857 28.7168 61.0229C28.7141 61.06 28.7026 61.0959 28.6831 61.1277Z" fill="#263238"/>
<path d="M30.0659 60.5679C30.0439 60.6007 30.0136 60.6271 29.9782 60.6445C29.9428 60.6619 29.9034 60.6697 29.864 60.667C29.8064 60.6612 29.7533 60.6334 29.7157 60.5894C29.6781 60.5454 29.6589 60.4886 29.6621 60.4308L29.7116 59.8404C29.7139 59.8119 29.7217 59.7841 29.7347 59.7586C29.7477 59.7332 29.7656 59.7105 29.7874 59.6919C29.8091 59.6734 29.8343 59.6593 29.8615 59.6504C29.8887 59.6416 29.9174 59.6382 29.9459 59.6405C29.9744 59.6427 30.0022 59.6506 30.0277 59.6635C30.0532 59.6765 30.0758 59.6944 30.0944 59.7162C30.113 59.7379 30.1271 59.7631 30.1359 59.7903C30.1447 59.8175 30.1481 59.8462 30.1459 59.8747L30.1002 60.4651C30.0969 60.5016 30.0851 60.5368 30.0659 60.5679Z" fill="#263238"/>
<path d="M29.2051 63.3373C29.1916 63.3565 29.1749 63.3733 29.1556 63.3868C29.1335 63.405 29.108 63.4186 29.0806 63.4267C29.0532 63.4349 29.0244 63.4374 28.996 63.4342C28.9675 63.431 28.94 63.4222 28.9151 63.4081C28.8902 63.3941 28.8683 63.3752 28.8509 63.3525L28.3862 62.7659C28.3503 62.7205 28.334 62.6626 28.3408 62.6051C28.3476 62.5476 28.3769 62.4952 28.4224 62.4593C28.4678 62.4234 28.5257 62.4071 28.5832 62.4139C28.6407 62.4207 28.6931 62.45 28.729 62.4955L29.2051 63.1011C29.2279 63.1363 29.24 63.1773 29.24 63.2192C29.24 63.2611 29.2279 63.3021 29.2051 63.3373Z" fill="#263238"/>
<path d="M30.2032 62.8572C30.1774 62.8955 30.1402 62.9247 30.0969 62.9408C30.0535 62.9569 30.0062 62.959 29.9617 62.9468C29.9171 62.9346 29.8775 62.9087 29.8484 62.8729C29.8193 62.837 29.8022 62.7928 29.7994 62.7467L29.769 61.9354C29.7674 61.9066 29.7717 61.8777 29.7814 61.8505C29.7912 61.8234 29.8062 61.7984 29.8257 61.7771C29.8452 61.7559 29.8688 61.7387 29.895 61.7266C29.9212 61.7145 29.9496 61.7078 29.9785 61.7069C30.0073 61.7053 30.0361 61.7095 30.0633 61.7193C30.0905 61.729 30.1154 61.7441 30.1367 61.7636C30.158 61.7831 30.1752 61.8067 30.1872 61.8329C30.1993 61.8591 30.206 61.8875 30.207 61.9163L30.2375 62.7277C30.2397 62.7733 30.2277 62.8186 30.2032 62.8572Z" fill="#263238"/>
<path d="M30.9266 60.4541C30.8996 60.4956 30.8593 60.5269 30.8123 60.5427C30.7653 60.5586 30.7144 60.5583 30.6676 60.5417C30.6131 60.5203 30.569 60.4785 30.5448 60.4252C30.5206 60.3718 30.5182 60.3111 30.5381 60.256C30.7208 59.8054 30.8785 59.3451 31.0104 58.8771C31.0201 58.8213 31.0509 58.7714 31.0964 58.7376C31.1418 58.7039 31.1986 58.6888 31.2548 58.6957C31.311 58.7025 31.3624 58.7307 31.3985 58.7744C31.4345 58.8181 31.4524 58.874 31.4485 58.9305C31.3084 59.4328 31.1419 59.9274 30.9495 60.4122C30.9457 60.4279 30.9378 60.4424 30.9266 60.4541Z" fill="#263238"/>
<path d="M26.8091 58.0426C26.7762 58.0897 26.7276 58.1235 26.6719 58.1378C26.6149 58.1491 26.5557 58.1374 26.5072 58.1053C26.4587 58.0732 26.4249 58.0233 26.4129 57.9664L26.2187 57.0523C26.2084 56.9953 26.2205 56.9366 26.2524 56.8884C26.2844 56.8401 26.3337 56.8061 26.3901 56.7932C26.4184 56.7871 26.4476 56.7868 26.476 56.7921C26.5045 56.7975 26.5315 56.8085 26.5557 56.8244C26.5798 56.8404 26.6005 56.861 26.6165 56.8851C26.6326 56.9092 26.6436 56.9362 26.6491 56.9646L26.8395 57.8788C26.8511 57.9353 26.8402 57.9941 26.8091 58.0426Z" fill="#263238"/>
<path d="M29.2051 57.3002C29.1829 57.3313 29.1543 57.3573 29.1213 57.3764C29.069 57.402 29.0089 57.4065 28.9535 57.3887C28.8981 57.371 28.8517 57.3324 28.8242 57.2811C28.6528 56.9421 28.2528 56.1765 28.2528 56.1765L28.6337 55.9747L29.2089 57.0831C29.2281 57.1162 29.238 57.1539 29.2373 57.1922C29.2366 57.2304 29.2255 57.2678 29.2051 57.3002Z" fill="#263238"/>
<path d="M36.9448 57.601C36.9448 57.601 35.6688 56.8163 34.3928 57.2201C33.1167 57.6238 32.134 59.0865 31.7265 60.3625C31.3189 61.6385 30.7437 63.3106 30.938 64.1943C31.4484 66.4797 34.6442 65.4322 35.6611 64.2705C36.0725 63.7982 37.2266 64.3886 38.5026 62.6212C39.7786 60.8538 38.5179 57.9933 36.9448 57.601Z" fill="#92E3A9" stroke="#263238" stroke-linecap="round" stroke-linejoin="round"/>
<path d="M37.798 57.936C37.8316 57.7376 37.8143 57.5339 37.7476 57.344C37.681 57.1542 37.5673 56.9843 37.4171 56.8504C37.0454 56.523 36.6508 56.2226 36.2363 55.9515C36.2363 55.9515 36.1906 56.7133 36.4267 56.9914C36.8543 57.347 37.3133 57.6632 37.798 57.936Z" fill="#263238"/>
<path d="M37.7981 57.936C38.123 57.7218 38.472 57.5466 38.8379 57.4142C39.2998 57.3322 39.7565 57.2228 40.2054 57.0866C40.4415 56.9418 40.6777 57.6046 39.9235 57.8865C39.1693 58.1683 37.7981 57.936 37.7981 57.936Z" fill="#263238"/>
<path d="M33.7758 59.8522C33.7583 59.8559 33.7401 59.8559 33.7225 59.8522C33.6945 59.846 33.668 59.8341 33.6446 59.8174C33.6212 59.8007 33.6015 59.7794 33.5865 59.7549C33.5716 59.7303 33.5618 59.703 33.5576 59.6746C33.5535 59.6461 33.5552 59.6171 33.5625 59.5894C33.6945 59.1851 33.8575 58.7916 34.0501 58.4124C34.0808 58.3717 34.1249 58.3431 34.1747 58.3317C34.2244 58.3202 34.2765 58.3266 34.322 58.3498C34.3674 58.373 34.4033 58.4115 34.4232 58.4584C34.4431 58.5054 34.4459 58.5579 34.431 58.6066C34.2537 58.9583 34.1022 59.3224 33.9777 59.696C33.9644 59.7397 33.9378 59.7782 33.9016 59.8062C33.8655 59.8342 33.8215 59.8502 33.7758 59.8522Z" fill="#263238"/>
<path d="M35.2041 60.8429C35.1583 60.8467 35.1125 60.836 35.0733 60.8123C35.034 60.7885 35.0033 60.7529 34.9855 60.7106C34.9678 60.6683 34.9638 60.6214 34.9744 60.5767C34.9849 60.5321 35.0093 60.4919 35.0441 60.462L35.9887 59.4716C36.0085 59.4509 36.0321 59.4342 36.0583 59.4226C36.0845 59.411 36.1127 59.4046 36.1414 59.4039C36.17 59.4032 36.1986 59.4081 36.2253 59.4185C36.252 59.4288 36.2765 59.4442 36.2972 59.464C36.318 59.4838 36.3347 59.5074 36.3463 59.5336C36.3579 59.5598 36.3642 59.588 36.3649 59.6167C36.3656 59.6453 36.3607 59.6738 36.3504 59.7006C36.3401 59.7273 36.3246 59.7518 36.3049 59.7725L35.3602 60.7667C35.3413 60.79 35.3176 60.8089 35.2906 60.8221C35.2636 60.8352 35.2341 60.8423 35.2041 60.8429Z" fill="#263238"/>
<path d="M36.3811 61.7408C36.3353 61.7399 36.2908 61.7248 36.254 61.6975C36.2171 61.6702 36.1897 61.6321 36.1754 61.5885C36.1666 61.5612 36.1632 61.5325 36.1655 61.5039C36.1677 61.4753 36.1757 61.4475 36.1888 61.422C36.2019 61.3965 36.2199 61.3738 36.2418 61.3553C36.2637 61.3368 36.289 61.3229 36.3164 61.3142L37.4972 60.9333C37.5522 60.9156 37.612 60.9206 37.6635 60.947C37.7149 60.9734 37.7537 61.0192 37.7714 61.0743C37.7891 61.1293 37.7842 61.1891 37.7577 61.2406C37.7313 61.292 37.6855 61.3308 37.6305 61.3485L36.4497 61.7294L36.3811 61.7408Z" fill="#263238"/>
<path d="M32.511 61.8365C32.4531 61.8355 32.3979 61.8117 32.3573 61.7704C32.3167 61.7291 32.2939 61.6735 32.2939 61.6155V60.8156C32.2898 60.7845 32.2924 60.7528 32.3015 60.7227C32.3106 60.6925 32.3261 60.6647 32.3468 60.6411C32.3676 60.6174 32.3931 60.5985 32.4218 60.5855C32.4504 60.5725 32.4815 60.5658 32.513 60.5658C32.5444 60.5658 32.5755 60.5725 32.6042 60.5855C32.6328 60.5985 32.6584 60.6174 32.6791 60.6411C32.6998 60.6647 32.7153 60.6925 32.7244 60.7227C32.7335 60.7528 32.7361 60.7845 32.732 60.8156V61.6155C32.732 61.6445 32.7263 61.6733 32.7152 61.7001C32.7041 61.7269 32.6878 61.7512 32.6673 61.7717C32.6468 61.7923 32.6224 61.8085 32.5956 61.8196C32.5688 61.8307 32.5401 61.8365 32.511 61.8365Z" fill="#263238"/>
<path d="M33.6919 62.0727C33.6513 62.0725 33.6116 62.0606 33.5777 62.0384C33.553 62.0235 33.5315 62.0039 33.5145 61.9807C33.4974 61.9575 33.4852 61.9311 33.4785 61.9031C33.4717 61.8751 33.4706 61.846 33.4752 61.8176C33.4798 61.7891 33.4901 61.7619 33.5053 61.7375L33.8862 61.1242C33.9169 61.0751 33.9656 61.0401 34.0219 61.0265C34.0781 61.013 34.1375 61.0221 34.1871 61.0519C34.2118 61.0667 34.2333 61.0863 34.2503 61.1095C34.2674 61.1328 34.2796 61.1591 34.2863 61.1871C34.2931 61.2152 34.2942 61.2442 34.2896 61.2726C34.2849 61.3011 34.2747 61.3283 34.2595 61.3528L33.8786 61.966C33.8591 61.9982 33.8318 62.0249 33.7991 62.0436C33.7664 62.0622 33.7296 62.0722 33.6919 62.0727Z" fill="#263238"/>
<path d="M34.9184 62.9223C34.8794 62.9222 34.841 62.9115 34.8075 62.8914C34.774 62.8713 34.7465 62.8425 34.728 62.8081C34.714 62.7829 34.7051 62.7551 34.702 62.7265C34.6988 62.6978 34.7013 62.6688 34.7095 62.6411C34.7177 62.6135 34.7312 62.5877 34.7495 62.5654C34.7677 62.543 34.7902 62.5245 34.8156 62.511L35.3336 62.2253C35.3827 62.2089 35.4359 62.2102 35.4841 62.229C35.5323 62.2479 35.5724 62.283 35.5973 62.3283C35.6222 62.3737 35.6305 62.4263 35.6206 62.4771C35.6107 62.5279 35.5833 62.5736 35.5431 62.6062L35.0251 62.8919C34.9922 62.9096 34.9558 62.92 34.9184 62.9223Z" fill="#263238"/>
<path d="M32.134 63.7222C32.0996 63.7221 32.0658 63.7139 32.0352 63.6982C32.0046 63.6825 31.9782 63.6598 31.9581 63.6319C31.938 63.604 31.9249 63.5718 31.9197 63.5378C31.9145 63.5038 31.9175 63.4691 31.9283 63.4365L32.1645 62.728C32.1828 62.6734 32.2217 62.6281 32.2729 62.6018C32.3242 62.5755 32.3836 62.5702 32.4387 62.5871C32.4936 62.6062 32.5389 62.6459 32.5652 62.6977C32.5915 62.7496 32.5967 62.8096 32.5796 62.8652L32.3435 63.5736C32.3284 63.6171 32.3001 63.6548 32.2625 63.6815C32.225 63.7081 32.18 63.7223 32.134 63.7222Z" fill="#263238"/>
<path d="M33.0786 64.2894C33.0436 64.2897 33.009 64.2816 32.9779 64.2656C32.9467 64.2497 32.9198 64.2265 32.8996 64.198C32.8668 64.1503 32.854 64.0917 32.864 64.0347C32.874 63.9777 32.9059 63.927 32.9529 63.8933L33.6119 63.4209C33.6588 63.3871 33.7173 63.3733 33.7745 63.3826C33.8316 63.3919 33.8827 63.4235 33.9166 63.4705C33.9504 63.5174 33.9642 63.5759 33.9549 63.6331C33.9456 63.6902 33.914 63.7413 33.867 63.7752L33.2043 64.2437C33.1691 64.2733 33.1246 64.2895 33.0786 64.2894Z" fill="#263238"/>
<path d="M35.4861 63.5808C35.4364 63.5804 35.3884 63.5632 35.3497 63.5321C35.311 63.5011 35.2839 63.4578 35.2728 63.4094C35.2603 63.3534 35.2705 63.2947 35.3012 63.2461C35.3319 63.1976 35.3806 63.1632 35.4366 63.1504C35.9134 63.0536 36.385 62.9328 36.8497 62.7886C36.9018 62.7634 36.9617 62.7596 37.0166 62.7781C37.0714 62.7967 37.1168 62.836 37.143 62.8876C37.1561 62.9131 37.1641 62.9409 37.1664 62.9695C37.1687 62.9981 37.1654 63.0268 37.1565 63.0541C37.1476 63.0814 37.1335 63.1066 37.1148 63.1284C37.0962 63.1501 37.0734 63.168 37.0478 63.1809C36.5473 63.3358 36.0387 63.463 35.5242 63.5618L35.4861 63.5808Z" fill="#263238"/>
<path d="M35.2499 58.8158C35.1915 58.8149 35.1356 58.7918 35.0938 58.751C35.0533 58.7091 35.0306 58.6531 35.0306 58.5948C35.0306 58.5366 35.0533 58.4806 35.0938 58.4387L35.7565 57.7683C35.7978 57.728 35.8532 57.7055 35.9108 57.7055C35.9685 57.7055 36.0238 57.728 36.0651 57.7683C36.0859 57.7882 36.1025 57.8121 36.1139 57.8387C36.1252 57.8652 36.1311 57.8937 36.1311 57.9226C36.1311 57.9514 36.1252 57.9799 36.1139 58.0064C36.1025 58.033 36.0859 58.0569 36.0651 58.0768L35.4061 58.7396C35.3866 58.7622 35.3627 58.7806 35.3358 58.7937C35.309 58.8068 35.2798 58.8143 35.2499 58.8158Z" fill="#263238"/>
<path d="M37.2038 60.4348C37.166 60.4359 37.1287 60.4252 37.0972 60.4043C37.072 60.3904 37.0499 60.3716 37.0321 60.3492C37.0143 60.3267 37.0011 60.3008 36.9933 60.2732C36.9855 60.2456 36.9832 60.2167 36.9867 60.1882C36.9901 60.1597 36.9992 60.1322 37.0134 60.1072C37.2038 59.7758 37.6266 59.0216 37.6266 59.0216L38.0075 59.2387C38.0075 59.2387 37.5847 60.0005 37.3943 60.3243C37.3752 60.358 37.3476 60.386 37.3141 60.4055C37.2806 60.4249 37.2425 60.435 37.2038 60.4348Z" fill="#263238"/>
<path d="M27.0265 65.8586C27.0265 65.8586 27.6055 64.4759 27.0265 63.2723C26.4475 62.0687 24.8363 61.3297 23.5108 61.1355C22.1853 60.9412 20.4636 60.6175 19.6066 60.9488C17.4317 61.7982 18.9515 64.7959 20.2541 65.6224C20.7874 65.9614 20.3798 67.1917 22.3224 68.1821C24.265 69.1724 26.8779 67.4698 27.0265 65.8586Z" fill="#92E3A9" stroke="#263238" stroke-linecap="round" stroke-linejoin="round"/>
<path d="M26.8283 66.7502C27.0288 66.7534 27.2269 66.7059 27.404 66.612C27.5812 66.5181 27.7317 66.3809 27.8415 66.2132C28.1064 65.7945 28.3418 65.358 28.5462 64.9067C28.5462 64.9067 27.7844 64.9752 27.5482 65.2533C27.2629 65.7292 27.0219 66.2303 26.8283 66.7502Z" fill="#263238"/>
<path d="M26.8282 66.7498C27.0885 67.0383 27.3136 67.3567 27.4986 67.6983C27.6531 68.1422 27.8324 68.5771 28.0357 69.0009C28.2109 69.2104 27.5938 69.5456 27.2015 68.841C26.8092 68.1363 26.8282 66.7498 26.8282 66.7498Z" fill="#263238"/>
<path d="M24.3142 63.1011C24.3104 63.0835 24.3104 63.0653 24.3142 63.0478C24.3166 63.0192 24.3246 62.9914 24.3378 62.966C24.351 62.9405 24.3691 62.918 24.3911 62.8996C24.413 62.8811 24.4384 62.8673 24.4657 62.8587C24.4931 62.8501 24.5219 62.8471 24.5504 62.8497C24.9701 62.9181 25.384 63.0187 25.7883 63.1506C25.8436 63.1681 25.8898 63.2067 25.9169 63.2581C25.944 63.3094 25.9498 63.3693 25.9331 63.4248C25.9244 63.4527 25.9103 63.4785 25.8916 63.5008C25.8729 63.5232 25.85 63.5416 25.8241 63.5551C25.7983 63.5685 25.7701 63.5767 25.741 63.5792C25.712 63.5817 25.6828 63.5784 25.655 63.5696C25.2817 63.4462 24.8997 63.3507 24.5123 63.2839C24.4635 63.2802 24.4174 63.2601 24.3815 63.227C24.3455 63.1938 24.3218 63.1494 24.3142 63.1011Z" fill="#263238"/>
<path d="M23.5524 64.6247C23.5481 64.5974 23.5493 64.5696 23.5558 64.5428C23.5624 64.516 23.5742 64.4908 23.5905 64.4685C23.6065 64.4445 23.6272 64.424 23.6513 64.4081C23.6754 64.3922 23.7025 64.3813 23.7308 64.376C23.7592 64.3707 23.7884 64.3711 23.8166 64.3771C23.8448 64.3832 23.8715 64.3949 23.8952 64.4114L25.0188 65.1732C25.0694 65.2065 25.1045 65.2586 25.1167 65.3179C25.1288 65.3771 25.1169 65.4388 25.0836 65.4893C25.0503 65.5398 24.9982 65.575 24.9389 65.5872C24.8796 65.5993 24.818 65.5874 24.7674 65.5541L23.6248 64.7733C23.5832 64.7343 23.5575 64.6814 23.5524 64.6247Z" fill="#263238"/>
<path d="M22.8479 65.9386C22.836 65.8858 22.8442 65.8304 22.871 65.7833C22.8978 65.7362 22.9412 65.7009 22.9928 65.6842C23.0443 65.6675 23.1002 65.6706 23.1495 65.6931C23.1988 65.7155 23.238 65.7555 23.2593 65.8053L23.8154 66.9137C23.8303 66.9625 23.8276 67.015 23.8076 67.062C23.7877 67.1089 23.7518 67.1474 23.7064 67.1705C23.661 67.1937 23.6088 67.2002 23.5591 67.1887C23.5094 67.1773 23.4653 67.1487 23.4345 67.108L22.8822 65.9996C22.8673 65.9814 22.8556 65.9608 22.8479 65.9386Z" fill="#263238"/>
<path d="M22.1584 62.1263C22.1507 62.0693 22.1655 62.0116 22.1996 61.9654C22.2338 61.9192 22.2846 61.8881 22.3413 61.8787L23.1373 61.753C23.1916 61.7511 23.2446 61.7692 23.2864 61.8039C23.3281 61.8386 23.3556 61.8875 23.3636 61.9412C23.3716 61.9949 23.3596 62.0496 23.3298 62.095C23.3 62.1404 23.2545 62.1732 23.2021 62.1872L22.4098 62.3091C22.3523 62.3179 22.2936 62.3036 22.2465 62.2694C22.1995 62.2351 22.1678 62.1837 22.1584 62.1263Z" fill="#263238"/>
<path d="M22.1091 63.33C22.096 63.2917 22.096 63.2502 22.1091 63.2119C22.1318 63.1588 22.1744 63.1167 22.2279 63.0946C22.2813 63.0725 22.3412 63.0722 22.3948 63.0938L23.0575 63.3719C23.1107 63.3946 23.1528 63.4372 23.1749 63.4906C23.1969 63.544 23.1972 63.604 23.1756 63.6576C23.1652 63.6845 23.1494 63.7091 23.1292 63.7298C23.109 63.7505 23.0848 63.7668 23.0581 63.7779C23.0314 63.7889 23.0027 63.7944 22.9738 63.794C22.9449 63.7936 22.9164 63.7874 22.8899 63.7756L22.2234 63.4976C22.1921 63.4811 22.1654 63.4572 22.1455 63.4279C22.1255 63.3987 22.1131 63.3651 22.1091 63.33Z" fill="#263238"/>
<path d="M21.4576 64.6701C21.4509 64.6314 21.4552 64.5916 21.47 64.5552C21.4848 64.5188 21.5096 64.4874 21.5414 64.4644C21.5642 64.4471 21.5901 64.4344 21.6177 64.4272C21.6454 64.4199 21.6742 64.4182 21.7025 64.4221C21.7308 64.426 21.7581 64.4354 21.7827 64.4499C21.8074 64.4643 21.8289 64.4835 21.8461 64.5063L22.208 64.9748C22.2422 65.0217 22.257 65.08 22.2491 65.1375C22.2413 65.195 22.2116 65.2472 22.1661 65.2833C22.1434 65.3006 22.1174 65.3133 22.0898 65.3205C22.0621 65.3278 22.0334 65.3295 22.005 65.3256C21.9767 65.3217 21.9495 65.3123 21.9248 65.2978C21.9002 65.2834 21.8786 65.2642 21.8614 65.2414L21.4805 64.7729C21.4641 64.7412 21.4562 64.7057 21.4576 64.6701Z" fill="#263238"/>
<path d="M20.2348 62.0425C20.2311 62.0198 20.2311 61.9966 20.2348 61.9739C20.2451 61.9172 20.2771 61.8667 20.3241 61.8332C20.3711 61.7998 20.4292 61.786 20.4862 61.7949L21.2214 61.9206C21.2496 61.9253 21.2767 61.9356 21.301 61.9508C21.3253 61.966 21.3463 61.9859 21.3629 62.0092C21.3796 62.0325 21.3914 62.0589 21.3979 62.0869C21.4043 62.1148 21.4051 62.1437 21.4004 62.172C21.3956 62.2002 21.3854 62.2273 21.3702 62.2516C21.355 62.2759 21.3351 62.2969 21.3118 62.3135C21.2884 62.3302 21.262 62.342 21.2341 62.3485C21.2062 62.3549 21.1773 62.3557 21.149 62.351L20.4139 62.2253C20.3687 62.2172 20.3273 62.1952 20.2952 62.1624C20.2631 62.1297 20.242 62.0877 20.2348 62.0425Z" fill="#263238"/>
<path d="M19.8235 63.0628C19.8117 63.0147 19.8168 62.9641 19.8377 62.9192C19.8587 62.8744 19.8944 62.838 19.9389 62.8163C19.9833 62.7945 20.0339 62.7885 20.0822 62.7994C20.1305 62.8103 20.1736 62.8374 20.2044 62.8762L20.7758 63.459C20.8089 63.502 20.8249 63.5558 20.8209 63.61C20.8169 63.6642 20.793 63.715 20.7539 63.7527C20.7148 63.7904 20.6632 63.8123 20.6089 63.8144C20.5546 63.8164 20.5014 63.7984 20.4596 63.7637L19.8921 63.1847C19.8562 63.1529 19.832 63.11 19.8235 63.0628Z" fill="#263238"/>
<path d="M20.89 65.3334C20.883 65.2803 20.8955 65.2265 20.9252 65.182C20.9548 65.1374 20.9997 65.1051 21.0514 65.0912C21.1031 65.0772 21.1581 65.0825 21.2061 65.106C21.2542 65.1295 21.2921 65.1697 21.3128 65.2191C21.4806 65.6753 21.6713 66.1228 21.8842 66.5599C21.9169 66.6075 21.9297 66.6662 21.9197 66.7231C21.9098 66.7801 21.8778 66.8309 21.8308 66.8646C21.8076 66.8815 21.7813 66.8936 21.7534 66.9003C21.7254 66.907 21.6965 66.908 21.6681 66.9034C21.6398 66.8988 21.6127 66.8887 21.5883 66.8735C21.5639 66.8583 21.5428 66.8385 21.5261 66.8151C21.292 66.3486 21.0847 65.8692 20.9052 65.3791C20.8985 65.3645 20.8934 65.3492 20.89 65.3334Z" fill="#263238"/>
<path d="M25.5675 64.3691C25.5624 64.3406 25.5632 64.3115 25.5697 64.2833C25.5763 64.2551 25.5885 64.2286 25.6056 64.2053C25.6399 64.1589 25.6909 64.1278 25.7479 64.1185C25.8048 64.1092 25.8631 64.1226 25.9103 64.1558L26.6721 64.7081C26.6955 64.7248 26.7154 64.7459 26.7305 64.7703C26.7457 64.7946 26.7559 64.8218 26.7605 64.8501C26.7651 64.8785 26.764 64.9074 26.7573 64.9354C26.7507 64.9633 26.7385 64.9896 26.7216 65.0128C26.7046 65.0363 26.6832 65.0563 26.6584 65.0715C26.6337 65.0867 26.6063 65.0969 26.5776 65.1015C26.549 65.1061 26.5197 65.105 26.4915 65.0983C26.4632 65.0916 26.4366 65.0793 26.4131 65.0623L25.6513 64.51C25.606 64.4758 25.576 64.4252 25.5675 64.3691Z" fill="#263238"/>
<path d="M24.2762 66.5296C24.2689 66.4931 24.2689 66.4556 24.2762 66.4191C24.2975 66.3646 24.3395 66.3207 24.3931 66.2972C24.4466 66.2736 24.5073 66.2722 24.5619 66.2934L25.7274 66.7314L25.5713 67.1428L24.4057 66.701C24.3711 66.6861 24.341 66.6624 24.3183 66.6324C24.2956 66.6023 24.2811 66.5669 24.2762 66.5296Z" fill="#263238"/>
</svg>
