<svg width="22" height="23" viewBox="0 0 22 23" fill="none" xmlns="http://www.w3.org/2000/svg">
<path d="M14.2084 10.542C14.9678 10.542 15.5834 9.8984 15.5834 9.10449C15.5834 8.31058 14.9678 7.66699 14.2084 7.66699C13.449 7.66699 12.8334 8.31058 12.8334 9.10449C12.8334 9.8984 13.449 10.542 14.2084 10.542Z" fill="#676767"/>
<path d="M7.79171 10.542C8.5511 10.542 9.16671 9.8984 9.16671 9.10449C9.16671 8.31058 8.5511 7.66699 7.79171 7.66699C7.03232 7.66699 6.41671 8.31058 6.41671 9.10449C6.41671 9.8984 7.03232 10.542 7.79171 10.542Z" fill="#676767"/>
<path d="M11 15.3337C9.64337 15.3337 8.47921 14.5574 7.83754 13.417H6.30671C7.04004 15.3816 8.86421 16.7712 11 16.7712C13.1359 16.7712 14.96 15.3816 15.6934 13.417H14.1625C13.5209 14.5574 12.3567 15.3337 11 15.3337ZM10.9909 1.91699C5.93087 1.91699 1.83337 6.21033 1.83337 11.5003C1.83337 16.7903 5.93087 21.0837 10.9909 21.0837C16.06 21.0837 20.1667 16.7903 20.1667 11.5003C20.1667 6.21033 16.06 1.91699 10.9909 1.91699ZM11 19.167C6.94837 19.167 3.66671 15.7362 3.66671 11.5003C3.66671 7.26449 6.94837 3.83366 11 3.83366C15.0517 3.83366 18.3334 7.26449 18.3334 11.5003C18.3334 15.7362 15.0517 19.167 11 19.167Z" fill="#676767"/>
</svg>
