<svg width="30" height="47" viewBox="0 0 30 47" fill="none" xmlns="http://www.w3.org/2000/svg">
<path d="M15 45.5869C23.0081 45.5869 29.5 39.095 29.5 31.0869C29.5 23.0788 23.0081 16.5869 15 16.5869C6.99187 16.5869 0.5 23.0788 0.5 31.0869C0.5 39.095 6.99187 45.5869 15 45.5869Z" fill="white" stroke="#263238" stroke-linecap="round" stroke-linejoin="round"/>
<path d="M28.9653 7.55864H26.5994C26.125 7.04297 25.5487 6.63135 24.9071 6.34979C24.2654 6.06823 23.5723 5.92285 22.8716 5.92285C22.1709 5.92285 21.4778 6.06823 20.8362 6.34979C20.1945 6.63135 19.6182 7.04297 19.1438 7.55864H16.6836L17.8544 11.8066C18.0402 12.9927 18.6399 14.0747 19.5475 14.8607C20.455 15.6467 21.6115 16.086 22.812 16.1005C24.0125 16.1149 25.1794 15.7038 26.1056 14.9399C27.0318 14.176 27.6576 13.1088 27.8719 11.9275L28.9653 7.55864Z" fill="#92E3A9" stroke="#263238" stroke-linecap="round" stroke-linejoin="round"/>
<path d="M22.8717 12.9631C26.3133 12.9631 29.1033 10.1732 29.1033 6.73156C29.1033 3.28996 26.3133 0.5 22.8717 0.5C19.4301 0.5 16.6401 3.28996 16.6401 6.73156C16.6401 10.1732 19.4301 12.9631 22.8717 12.9631Z" fill="#92E3A9" stroke="#263238" stroke-linecap="round" stroke-linejoin="round"/>
<path d="M22.8716 12.1577C25.8683 12.1577 28.2976 9.72838 28.2976 6.73167C28.2976 3.73497 25.8683 1.30566 22.8716 1.30566C19.8749 1.30566 17.4456 3.73497 17.4456 6.73167C17.4456 9.72838 19.8749 12.1577 22.8716 12.1577Z" fill="#92E3A9" stroke="#263238" stroke-linecap="round" stroke-linejoin="round"/>
<path d="M22.8718 2.47211C21.5245 2.47211 20.2324 3.00733 19.2797 3.96003C18.327 4.91273 17.7917 6.20487 17.7917 7.55219C17.7924 8.15534 17.9014 8.75348 18.1135 9.31812C18.5797 10.1755 19.2686 10.8913 20.1075 11.39C20.9464 11.8888 21.9043 12.152 22.8803 12.152C23.8563 12.152 24.8142 11.8888 25.6531 11.39C26.492 10.8913 27.1809 10.1755 27.6471 9.31812C27.9335 8.5492 28.0294 7.72235 27.9266 6.9083C27.8237 6.09424 27.5253 5.3172 27.0567 4.64366C26.588 3.97011 25.9633 3.42009 25.2357 3.04065C24.5082 2.66121 23.6996 2.46365 22.8791 2.46485L22.8718 2.47211Z" fill="white" stroke="#263238" stroke-linecap="round" stroke-linejoin="round"/>
<path d="M15.6146 23.3865C15.4998 23.5853 15.3286 23.7456 15.1226 23.8472C14.9167 23.9487 14.6853 23.9869 14.4576 23.9569C14.23 23.927 14.0164 23.8302 13.8437 23.6788C13.6711 23.5275 13.5472 23.3283 13.4877 23.1066C13.4282 22.8848 13.4357 22.6504 13.5095 22.433C13.5832 22.2155 13.7197 22.0248 13.9017 21.8849C14.0838 21.745 14.3033 21.6623 14.5324 21.6471C14.7615 21.6319 14.9899 21.685 15.1889 21.7996C15.4554 21.9539 15.6499 22.2076 15.7297 22.5051C15.8095 22.8025 15.7681 23.1195 15.6146 23.3865Z" fill="#92E3A9" stroke="#263238" stroke-linecap="round" stroke-linejoin="round"/>
<path d="M15.7666 25.5352C16.4079 25.5352 16.9278 25.0153 16.9278 24.3741C16.9278 23.7328 16.4079 23.2129 15.7666 23.2129C15.1253 23.2129 14.6055 23.7328 14.6055 24.3741C14.6055 25.0153 15.1253 25.5352 15.7666 25.5352Z" fill="#92E3A9" stroke="#263238" stroke-linecap="round" stroke-linejoin="round"/>
<path d="M15.646 27.1631C16.2873 27.1631 16.8072 26.6433 16.8072 26.002C16.8072 25.3607 16.2873 24.8408 15.646 24.8408C15.0047 24.8408 14.4849 25.3607 14.4849 26.002C14.4849 26.6433 15.0047 27.1631 15.646 27.1631Z" fill="#92E3A9" stroke="#263238" stroke-linecap="round" stroke-linejoin="round"/>
<path d="M17.9174 20.9023C17.8029 21.1014 17.6318 21.2621 17.4259 21.364C17.22 21.4659 16.9885 21.5044 16.7607 21.4747C16.5329 21.4449 16.319 21.3483 16.1461 21.197C15.9732 21.0457 15.8492 20.8465 15.7895 20.6246C15.7299 20.4027 15.7375 20.1681 15.8112 19.9506C15.8849 19.733 16.0216 19.5422 16.2038 19.4023C16.386 19.2623 16.6057 19.1796 16.8349 19.1646C17.0642 19.1496 17.2927 19.2029 17.4917 19.3178C17.7576 19.4721 17.9516 19.7253 18.0313 20.0222C18.1111 20.3191 18.0702 20.6355 17.9174 20.9023Z" fill="#92E3A9" stroke="#263238" stroke-linecap="round" stroke-linejoin="round"/>
<path d="M19.3566 22.5429C19.2421 22.742 19.071 22.9027 18.8651 23.0046C18.6592 23.1065 18.4277 23.145 18.1999 23.1153C17.9721 23.0856 17.7582 22.9889 17.5853 22.8376C17.4125 22.6863 17.2884 22.4871 17.2287 22.2652C17.1691 22.0433 17.1767 21.8088 17.2504 21.5912C17.3242 21.3736 17.4608 21.1828 17.643 21.0429C17.8252 20.903 18.0449 20.8203 18.2741 20.8052C18.5034 20.7902 18.7319 20.8435 18.9309 20.9584C19.063 21.0343 19.1789 21.1356 19.2718 21.2564C19.3647 21.3772 19.4329 21.5151 19.4725 21.6623C19.512 21.8095 19.5222 21.963 19.5023 22.1141C19.4824 22.2653 19.4329 22.411 19.3566 22.5429Z" fill="#92E3A9" stroke="#263238" stroke-linecap="round" stroke-linejoin="round"/>
<path d="M15.2007 19.8624C15.842 19.8624 16.3619 19.3425 16.3619 18.7012C16.3619 18.0599 15.842 17.54 15.2007 17.54C14.5594 17.54 14.0396 18.0599 14.0396 18.7012C14.0396 19.3425 14.5594 19.8624 15.2007 19.8624Z" fill="#92E3A9" stroke="#263238" stroke-linecap="round" stroke-linejoin="round"/>
<path d="M12.7986 18.7911C13.4399 18.7911 13.9598 18.2712 13.9598 17.6299C13.9598 16.9886 13.4399 16.4688 12.7986 16.4688C12.1573 16.4688 11.6375 16.9886 11.6375 17.6299C11.6375 18.2712 12.1573 18.7911 12.7986 18.7911Z" fill="#92E3A9" stroke="#263238" stroke-linecap="round" stroke-linejoin="round"/>
<path d="M14.4073 26.418C15.0486 26.418 15.5684 25.8982 15.5684 25.2569C15.5684 24.6156 15.0486 24.0957 14.4073 24.0957C13.766 24.0957 13.2461 24.6156 13.2461 25.2569C13.2461 25.8982 13.766 26.418 14.4073 26.418Z" fill="#92E3A9" stroke="#263238" stroke-linecap="round" stroke-linejoin="round"/>
<path d="M18.5997 24.1004C18.4849 24.2992 18.3137 24.4595 18.1077 24.561C17.9018 24.6626 17.6704 24.7008 17.4428 24.6708C17.2151 24.6408 17.0015 24.5441 16.8288 24.3927C16.6562 24.2414 16.5323 24.0422 16.4728 23.8205C16.4133 23.5987 16.4209 23.3643 16.4946 23.1468C16.5683 22.9294 16.7048 22.7387 16.8868 22.5988C17.0689 22.4589 17.2884 22.3761 17.5175 22.3609C17.7466 22.3458 17.975 22.3988 18.174 22.5135C18.4405 22.6678 18.635 22.9215 18.7148 23.2189C18.7946 23.5164 18.7532 23.8334 18.5997 24.1004Z" fill="#92E3A9" stroke="#263238" stroke-linecap="round" stroke-linejoin="round"/>
<path d="M16.737 22.037C16.6224 22.2362 16.4514 22.3969 16.2455 22.4988C16.0396 22.6006 15.8081 22.6392 15.5802 22.6094C15.3524 22.5797 15.1386 22.4831 14.9657 22.3317C14.7928 22.1804 14.6687 21.9812 14.6091 21.7594C14.5495 21.5375 14.557 21.3029 14.6308 21.0853C14.7045 20.8677 14.8412 20.6769 15.0234 20.537C15.2056 20.3971 15.4252 20.3144 15.6545 20.2994C15.8837 20.2843 16.1123 20.3376 16.3112 20.4525C16.5776 20.6064 16.7721 20.8596 16.8519 21.1567C16.9317 21.4538 16.8904 21.7704 16.737 22.037Z" fill="#92E3A9" stroke="#263238" stroke-linecap="round" stroke-linejoin="round"/>
<path d="M14.18 21.4131C14.8213 21.4131 15.3411 20.8933 15.3411 20.252C15.3411 19.6107 14.8213 19.0908 14.18 19.0908C13.5387 19.0908 13.0188 19.6107 13.0188 20.252C13.0188 20.8933 13.5387 21.4131 14.18 21.4131Z" fill="#92E3A9" stroke="#263238" stroke-linecap="round" stroke-linejoin="round"/>
<path d="M12.7915 20.5499C13.4328 20.5499 13.9527 20.03 13.9527 19.3887C13.9527 18.7474 13.4328 18.2275 12.7915 18.2275C12.1502 18.2275 11.6304 18.7474 11.6304 19.3887C11.6304 20.03 12.1502 20.5499 12.7915 20.5499Z" fill="#92E3A9" stroke="#263238" stroke-linecap="round" stroke-linejoin="round"/>
<path d="M12.939 23.0215C13.5803 23.0215 14.1002 22.5017 14.1002 21.8604C14.1002 21.2191 13.5803 20.6992 12.939 20.6992C12.2977 20.6992 11.7778 21.2191 11.7778 21.8604C11.7778 22.5017 12.2977 23.0215 12.939 23.0215Z" fill="#92E3A9" stroke="#263238" stroke-linecap="round" stroke-linejoin="round"/>
<path d="M17.3031 21.9254C16.822 21.2984 16.2887 20.7133 15.7089 20.1764L17.2039 18.2822C17.2039 18.2822 17.1168 17.6654 16.6499 18.1516C16.6499 18.1516 15.9435 18.9402 15.2565 19.8014C14.976 20.1561 14.6764 20.4953 14.359 20.8174C13.9273 20.7538 13.5028 20.6485 13.0914 20.503C12.4722 20.261 11.8577 19.9175 11.7682 20.1812C11.6787 20.4449 12.402 20.6094 12.8544 20.8053C13.2231 20.953 13.6013 21.0759 13.9865 21.173C13.8367 21.3136 13.6748 21.4407 13.5027 21.5528C13.1229 21.773 12.9197 21.9084 12.3923 22.1697C11.865 22.431 11.5456 22.8761 11.8359 22.9172C12.1262 22.9583 14.1849 22.0076 14.7388 21.3811L15.288 20.7545C15.288 20.7545 16.0379 20.8731 16.3475 21.427C16.6572 21.981 17.753 23.2438 17.9151 22.9607C18.0772 22.6777 17.9369 22.7914 17.3031 21.9254Z" fill="#A6A6A6" stroke="#263238" stroke-linecap="round" stroke-linejoin="round"/>
<path d="M11.502 21.836C12.1433 21.836 12.6631 21.3161 12.6631 20.6748C12.6631 20.0335 12.1433 19.5137 11.502 19.5137C10.8607 19.5137 10.3408 20.0335 10.3408 20.6748C10.3408 21.3161 10.8607 21.836 11.502 21.836Z" fill="#92E3A9" stroke="#263238" stroke-linecap="round" stroke-linejoin="round"/>
<path d="M12.9558 25.1719C13.5971 25.1719 14.117 24.6521 14.117 24.0108C14.117 23.3695 13.5971 22.8496 12.9558 22.8496C12.3146 22.8496 11.7947 23.3695 11.7947 24.0108C11.7947 24.6521 12.3146 25.1719 12.9558 25.1719Z" fill="#92E3A9" stroke="#263238" stroke-linecap="round" stroke-linejoin="round"/>
<path d="M13.7228 26.9695C13.6079 27.1683 13.4367 27.3286 13.2308 27.4302C13.0248 27.5317 12.7934 27.5699 12.5658 27.5399C12.3382 27.51 12.1245 27.4132 11.9519 27.2618C11.7792 27.1105 11.6553 26.9113 11.5958 26.6896C11.5363 26.4678 11.5439 26.2334 11.6176 26.016C11.6913 25.7985 11.8278 25.6078 12.0099 25.4679C12.192 25.328 12.4114 25.2453 12.6405 25.2301C12.8696 25.2149 13.0981 25.268 13.297 25.3826C13.4292 25.4588 13.5451 25.5603 13.6381 25.6813C13.7311 25.8023 13.7993 25.9404 13.8388 26.0878C13.8783 26.2352 13.8885 26.3889 13.8685 26.5402C13.8486 26.6915 13.7991 26.8374 13.7228 26.9695Z" fill="#92E3A9" stroke="#263238" stroke-linecap="round" stroke-linejoin="round"/>
<path d="M11.6519 29.0743C12.2932 29.0743 12.813 28.5544 12.813 27.9131C12.813 27.2718 12.2932 26.752 11.6519 26.752C11.0106 26.752 10.4907 27.2718 10.4907 27.9131C10.4907 28.5544 11.0106 29.0743 11.6519 29.0743Z" fill="#92E3A9" stroke="#263238" stroke-linecap="round" stroke-linejoin="round"/>
<path d="M8.08157 27.5186C8.72286 27.5186 9.24273 26.9987 9.24273 26.3575C9.24273 25.7162 8.72286 25.1963 8.08157 25.1963C7.44028 25.1963 6.92041 25.7162 6.92041 26.3575C6.92041 26.9987 7.44028 27.5186 8.08157 27.5186Z" fill="#92E3A9" stroke="#263238" stroke-linecap="round" stroke-linejoin="round"/>
<path d="M10.0579 28.3438C10.6992 28.3438 11.2191 27.8239 11.2191 27.1826C11.2191 26.5414 10.6992 26.0215 10.0579 26.0215C9.4166 26.0215 8.89673 26.5414 8.89673 27.1826C8.89673 27.8239 9.4166 28.3438 10.0579 28.3438Z" fill="#92E3A9" stroke="#263238" stroke-linecap="round" stroke-linejoin="round"/>
<path d="M8.89187 31.3194C9.53316 31.3194 10.053 30.7995 10.053 30.1582C10.053 29.5169 9.53316 28.9971 8.89187 28.9971C8.25058 28.9971 7.73071 29.5169 7.73071 30.1582C7.73071 30.7995 8.25058 31.3194 8.89187 31.3194Z" fill="#92E3A9" stroke="#263238" stroke-linecap="round" stroke-linejoin="round"/>
<path d="M10.6795 29.96C11.3208 29.96 11.8406 29.4401 11.8406 28.7989C11.8406 28.1576 11.3208 27.6377 10.6795 27.6377C10.0382 27.6377 9.51831 28.1576 9.51831 28.7989C9.51831 29.4401 10.0382 29.96 10.6795 29.96Z" fill="#92E3A9" stroke="#263238" stroke-linecap="round" stroke-linejoin="round"/>
<path d="M9.39008 28.8105C9.27552 29.0096 9.10446 29.1703 8.89855 29.2722C8.69264 29.3741 8.46113 29.4126 8.23332 29.3829C8.00551 29.3531 7.79164 29.2565 7.61877 29.1052C7.4459 28.9539 7.32181 28.7547 7.26219 28.5328C7.20257 28.3109 7.21011 28.0764 7.28385 27.8588C7.35759 27.6412 7.49422 27.4504 7.67645 27.3105C7.85868 27.1705 8.07832 27.0878 8.30757 27.0728C8.53682 27.0578 8.76538 27.1111 8.96432 27.226C9.09669 27.3017 9.21277 27.4028 9.30589 27.5236C9.39901 27.6444 9.46733 27.7824 9.5069 27.9296C9.54648 28.0769 9.55652 28.2306 9.53647 28.3817C9.51642 28.5329 9.46667 28.6786 9.39008 28.8105Z" fill="#92E3A9" stroke="#263238" stroke-linecap="round" stroke-linejoin="round"/>
<path d="M11.5092 27.0946C12.0728 26.7887 12.2817 26.0838 11.9758 25.5202C11.6699 24.9566 10.965 24.7476 10.4014 25.0535C9.83777 25.3594 9.62884 26.0643 9.93474 26.628C10.2406 27.1916 10.9455 27.4005 11.5092 27.0946Z" fill="#92E3A9" stroke="#263238" stroke-linecap="round" stroke-linejoin="round"/>
<path d="M10.331 26.5224C10.2164 26.7215 10.0454 26.8822 9.83947 26.9841C9.63355 27.086 9.40205 27.1245 9.17424 27.0948C8.94643 27.0651 8.73255 26.9684 8.55969 26.8171C8.38682 26.6658 8.26272 26.4666 8.20311 26.2447C8.14349 26.0228 8.15103 25.7883 8.22477 25.5707C8.29852 25.3531 8.43514 25.1623 8.61737 25.0224C8.7996 24.8825 9.01924 24.7998 9.24848 24.7847C9.47773 24.7697 9.70629 24.823 9.90524 24.9379C10.0374 25.0138 10.1532 25.1151 10.2462 25.2359C10.3391 25.3567 10.4073 25.4946 10.4468 25.6418C10.4864 25.789 10.4965 25.9425 10.4766 26.0936C10.4568 26.2447 10.4073 26.3904 10.331 26.5224Z" fill="#92E3A9" stroke="#263238" stroke-linecap="round" stroke-linejoin="round"/>
<path d="M15.3194 24.4581C15.9607 24.4581 16.4805 23.9382 16.4805 23.2969C16.4805 22.6556 15.9607 22.1357 15.3194 22.1357C14.6781 22.1357 14.1582 22.6556 14.1582 23.2969C14.1582 23.9382 14.6781 24.4581 15.3194 24.4581Z" fill="#92E3A9" stroke="#263238" stroke-linecap="round" stroke-linejoin="round"/>
<path d="M11.0615 25.8399C11.7028 25.8399 12.2227 25.32 12.2227 24.6787C12.2227 24.0374 11.7028 23.5176 11.0615 23.5176C10.4203 23.5176 9.90039 24.0374 9.90039 24.6787C9.90039 25.32 10.4203 25.8399 11.0615 25.8399Z" fill="#92E3A9" stroke="#263238" stroke-linecap="round" stroke-linejoin="round"/>
<path d="M9.50638 22.4288C10.1477 22.4288 10.6675 21.9089 10.6675 21.2676C10.6675 20.6263 10.1477 20.1064 9.50638 20.1064C8.86509 20.1064 8.34521 20.6263 8.34521 21.2676C8.34521 21.9089 8.86509 22.4288 9.50638 22.4288Z" fill="#92E3A9" stroke="#263238" stroke-linecap="round" stroke-linejoin="round"/>
<path d="M10.7134 23.8799C11.3547 23.8799 11.8746 23.3601 11.8746 22.7188C11.8746 22.0775 11.3547 21.5576 10.7134 21.5576C10.0721 21.5576 9.55225 22.0775 9.55225 22.7188C9.55225 23.3601 10.0721 23.8799 10.7134 23.8799Z" fill="#92E3A9" stroke="#263238" stroke-linecap="round" stroke-linejoin="round"/>
<path d="M8.36917 25.5469C9.01046 25.5469 9.53033 25.0271 9.53033 24.3858C9.53033 23.7445 9.01046 23.2246 8.36917 23.2246C7.72787 23.2246 7.20801 23.7445 7.20801 24.3858C7.20801 25.0271 7.72787 25.5469 8.36917 25.5469Z" fill="#92E3A9" stroke="#263238" stroke-linecap="round" stroke-linejoin="round"/>
<path d="M10.8657 20.5079C11.507 20.5079 12.0269 19.988 12.0269 19.3467C12.0269 18.7054 11.507 18.1855 10.8657 18.1855C10.2245 18.1855 9.70459 18.7054 9.70459 19.3467C9.70459 19.988 10.2245 20.5079 10.8657 20.5079Z" fill="#92E3A9" stroke="#263238" stroke-linecap="round" stroke-linejoin="round"/>
<path d="M9.77225 25.3487C10.4135 25.3487 10.9334 24.8288 10.9334 24.1875C10.9334 23.5462 10.4135 23.0264 9.77225 23.0264C9.13096 23.0264 8.61108 23.5462 8.61108 24.1875C8.61108 24.8288 9.13096 25.3487 9.77225 25.3487Z" fill="#92E3A9" stroke="#263238" stroke-linecap="round" stroke-linejoin="round"/>
<path d="M8.52396 23.7501C9.16525 23.7501 9.68512 23.2302 9.68512 22.5889C9.68512 21.9476 9.16525 21.4277 8.52396 21.4277C7.88267 21.4277 7.36279 21.9476 7.36279 22.5889C7.36279 23.2302 7.88267 23.7501 8.52396 23.7501Z" fill="#92E3A9" stroke="#263238" stroke-linecap="round" stroke-linejoin="round"/>
<path d="M18.8028 24.4366C19.4441 24.4366 19.9639 23.9167 19.9639 23.2754C19.9639 22.6341 19.4441 22.1143 18.8028 22.1143C18.1615 22.1143 17.6416 22.6341 17.6416 23.2754C17.6416 23.9167 18.1615 24.4366 18.8028 24.4366Z" fill="#92E3A9" stroke="#263238" stroke-linecap="round" stroke-linejoin="round"/>
<path d="M17.1045 26.7276C17.7458 26.7276 18.2657 26.2077 18.2657 25.5664C18.2657 24.9251 17.7458 24.4053 17.1045 24.4053C16.4632 24.4053 15.9434 24.9251 15.9434 25.5664C15.9434 26.2077 16.4632 26.7276 17.1045 26.7276Z" fill="#92E3A9" stroke="#263238" stroke-linecap="round" stroke-linejoin="round"/>
<path d="M14.1642 28.4615C14.8038 28.4149 15.2846 27.8587 15.2381 27.2191C15.1916 26.5795 14.6354 26.0987 13.9958 26.1453C13.3562 26.1918 12.8754 26.748 12.9219 27.3876C12.9684 28.0272 13.5246 28.508 14.1642 28.4615Z" fill="#92E3A9" stroke="#263238" stroke-linecap="round" stroke-linejoin="round"/>
<path d="M9.02004 20.5128C9.66134 20.5128 10.1812 19.9929 10.1812 19.3516C10.1812 18.7103 9.66134 18.1904 9.02004 18.1904C8.37875 18.1904 7.85889 18.7103 7.85889 19.3516C7.85889 19.9929 8.37875 20.5128 9.02004 20.5128Z" fill="#92E3A9" stroke="#263238" stroke-linecap="round" stroke-linejoin="round"/>
<path d="M11.3689 22.8741C12.0102 22.8741 12.5301 22.3542 12.5301 21.7129C12.5301 21.0716 12.0102 20.5518 11.3689 20.5518C10.7276 20.5518 10.2078 21.0716 10.2078 21.7129C10.2078 22.3542 10.7276 22.8741 11.3689 22.8741Z" fill="#92E3A9" stroke="#263238" stroke-linecap="round" stroke-linejoin="round"/>
<path d="M8.12023 25.7146C8.00538 25.9134 7.83417 26.0738 7.62824 26.1753C7.42231 26.2768 7.1909 26.315 6.96326 26.2851C6.73562 26.2551 6.52198 26.1583 6.34933 26.007C6.17668 25.8556 6.05277 25.6565 5.99328 25.4347C5.93378 25.2129 5.94136 24.9785 6.01506 24.7611C6.08877 24.5436 6.22528 24.3529 6.40735 24.213C6.58942 24.0731 6.80888 23.9904 7.03798 23.9752C7.26707 23.96 7.49554 24.0131 7.69448 24.1277C7.82669 24.2039 7.9426 24.3054 8.03556 24.4264C8.12853 24.5474 8.19673 24.6855 8.23628 24.8329C8.27582 24.9803 8.28592 25.134 8.26601 25.2853C8.24609 25.4366 8.19656 25.5825 8.12023 25.7146Z" fill="#92E3A9" stroke="#263238" stroke-linecap="round" stroke-linejoin="round"/>
<path d="M6.92752 29.0186C7.56881 29.0186 8.08867 28.4987 8.08867 27.8575C8.08867 27.2162 7.56881 26.6963 6.92752 26.6963C6.28622 26.6963 5.76636 27.2162 5.76636 27.8575C5.76636 28.4987 6.28622 29.0186 6.92752 29.0186Z" fill="#92E3A9" stroke="#263238" stroke-linecap="round" stroke-linejoin="round"/>
<path d="M20.8323 20.4014C20.8323 20.4014 18.7906 23.7107 17.8737 25.1887C16.9569 26.6668 15.4813 27.7941 15.9723 28.2876C16.4634 28.7811 19.8429 31.7372 20.5493 32.0904C21.2556 32.4436 26.1132 25.4718 26.3938 25.0484C26.6744 24.6251 22.3805 20.682 20.8323 20.4014Z" fill="white" stroke="#263238" stroke-linecap="round" stroke-linejoin="round"/>
<path d="M18.157 27.9712C18.157 28.0339 18.1384 28.0951 18.1036 28.1473C18.0688 28.1994 18.0193 28.24 17.9614 28.264C17.9035 28.288 17.8397 28.2942 17.7783 28.282C17.7168 28.2698 17.6603 28.2396 17.616 28.1953C17.5717 28.151 17.5415 28.0945 17.5293 28.033C17.5171 27.9715 17.5233 27.9078 17.5473 27.8499C17.5713 27.792 17.6119 27.7425 17.664 27.7077C17.7161 27.6729 17.7774 27.6543 17.8401 27.6543C17.9241 27.6543 18.0047 27.6877 18.0642 27.7471C18.1236 27.8065 18.157 27.8871 18.157 27.9712Z" fill="white" stroke="#263238" stroke-linecap="round" stroke-linejoin="round"/>
<path d="M20.9726 29.3695C20.9726 29.446 20.9499 29.5209 20.9074 29.5845C20.8648 29.6482 20.8044 29.6978 20.7337 29.7271C20.6629 29.7564 20.5851 29.764 20.51 29.7491C20.4349 29.7342 20.366 29.6973 20.3118 29.6432C20.2577 29.589 20.2209 29.5201 20.2059 29.445C20.191 29.3699 20.1987 29.2921 20.2279 29.2214C20.2572 29.1506 20.3069 29.0902 20.3705 29.0477C20.4342 29.0051 20.509 28.9824 20.5855 28.9824C20.6882 28.9824 20.7866 29.0232 20.8592 29.0958C20.9318 29.1684 20.9726 29.2668 20.9726 29.3695Z" fill="white" stroke="#263238" stroke-linecap="round" stroke-linejoin="round"/>
<path d="M20.1987 26.4226C20.1987 26.4704 20.1845 26.5172 20.1579 26.557C20.1313 26.5967 20.0935 26.6278 20.0493 26.6461C20.0051 26.6644 19.9565 26.6692 19.9096 26.6598C19.8626 26.6505 19.8195 26.6275 19.7857 26.5936C19.7519 26.5598 19.7288 26.5167 19.7195 26.4698C19.7102 26.4228 19.715 26.3742 19.7333 26.33C19.7516 26.2858 19.7826 26.248 19.8224 26.2214C19.8621 26.1948 19.9089 26.1807 19.9567 26.1807C20.0209 26.1807 20.0824 26.2062 20.1278 26.2515C20.1732 26.2969 20.1987 26.3584 20.1987 26.4226Z" fill="white" stroke="#263238" stroke-linecap="round" stroke-linejoin="round"/>
<path d="M21.4663 24.5317C21.4663 24.5944 21.4477 24.6557 21.4129 24.7078C21.3781 24.7599 21.3286 24.8005 21.2707 24.8245C21.2128 24.8485 21.1491 24.8548 21.0876 24.8426C21.0261 24.8303 20.9697 24.8001 20.9253 24.7558C20.881 24.7115 20.8508 24.655 20.8386 24.5936C20.8264 24.5321 20.8327 24.4684 20.8566 24.4105C20.8806 24.3526 20.9212 24.3031 20.9734 24.2683C21.0255 24.2334 21.0867 24.2148 21.1494 24.2148C21.2335 24.2148 21.3141 24.2482 21.3735 24.3077C21.4329 24.3671 21.4663 24.4477 21.4663 24.5317Z" fill="white" stroke="#263238" stroke-linecap="round" stroke-linejoin="round"/>
<path d="M24.6353 25.2251C24.6353 25.2878 24.6167 25.349 24.5819 25.4012C24.547 25.4533 24.4975 25.4939 24.4396 25.5179C24.3817 25.5419 24.318 25.5481 24.2565 25.5359C24.1951 25.5237 24.1386 25.4935 24.0943 25.4492C24.05 25.4049 24.0198 25.3484 24.0076 25.2869C23.9953 25.2255 24.0016 25.1617 24.0256 25.1038C24.0496 25.0459 24.0902 24.9964 24.1423 24.9616C24.1944 24.9268 24.2557 24.9082 24.3184 24.9082C24.4024 24.9082 24.483 24.9416 24.5425 25.001C24.6019 25.0605 24.6353 25.1411 24.6353 25.2251Z" fill="white" stroke="#263238" stroke-linecap="round" stroke-linejoin="round"/>
<path d="M23.225 27.1605C23.225 27.216 23.2086 27.2703 23.1778 27.3164C23.1469 27.3625 23.1031 27.3985 23.0518 27.4197C23.0005 27.441 22.9441 27.4465 22.8897 27.4357C22.8353 27.4249 22.7852 27.3982 22.746 27.3589C22.7068 27.3197 22.68 27.2697 22.6692 27.2152C22.6584 27.1608 22.6639 27.1044 22.6852 27.0531C22.7064 27.0018 22.7424 26.958 22.7885 26.9272C22.8347 26.8963 22.8889 26.8799 22.9444 26.8799C23.0189 26.8799 23.0902 26.9094 23.1429 26.9621C23.1955 27.0147 23.225 27.0861 23.225 27.1605Z" fill="white" stroke="#263238" stroke-linecap="round" stroke-linejoin="round"/>
<path d="M19.7052 25.0485C19.8602 25.0485 19.9858 24.9229 19.9858 24.7679C19.9858 24.6129 19.8602 24.4873 19.7052 24.4873C19.5502 24.4873 19.4246 24.6129 19.4246 24.7679C19.4246 24.9229 19.5502 25.0485 19.7052 25.0485Z" fill="white" stroke="#263238" stroke-linecap="round" stroke-linejoin="round"/>
<path d="M22.3103 22.6196C22.3103 22.6823 22.2917 22.7436 22.2569 22.7957C22.2221 22.8478 22.1726 22.8884 22.1147 22.9124C22.0568 22.9364 21.9931 22.9427 21.9316 22.9304C21.8701 22.9182 21.8137 22.888 21.7693 22.8437C21.725 22.7994 21.6948 22.7429 21.6826 22.6815C21.6704 22.62 21.6766 22.5563 21.7006 22.4984C21.7246 22.4405 21.7652 22.391 21.8174 22.3561C21.8695 22.3213 21.9307 22.3027 21.9934 22.3027C22.0775 22.3027 22.1581 22.3361 22.2175 22.3956C22.2769 22.455 22.3103 22.5356 22.3103 22.6196Z" fill="white" stroke="#263238" stroke-linecap="round" stroke-linejoin="round"/>
<path d="M22.1701 29.0984C22.1701 29.1462 22.1559 29.193 22.1293 29.2328C22.1027 29.2725 22.065 29.3035 22.0208 29.3218C21.9766 29.3402 21.9279 29.3449 21.881 29.3356C21.8341 29.3263 21.791 29.3032 21.7571 29.2694C21.7233 29.2356 21.7003 29.1925 21.6909 29.1455C21.6816 29.0986 21.6864 29.05 21.7047 29.0058C21.723 28.9616 21.754 28.9238 21.7938 28.8972C21.8336 28.8706 21.8803 28.8564 21.9282 28.8564C21.9924 28.8564 22.0539 28.8819 22.0992 28.9273C22.1446 28.9727 22.1701 29.0342 22.1701 29.0984Z" fill="white" stroke="#263238" stroke-linecap="round" stroke-linejoin="round"/>
<path d="M24.6642 24.2627C24.6642 24.2627 21.6815 26.7616 20.3486 27.8744C19.0157 28.9872 17.2546 29.5944 17.5666 30.2161C17.8787 30.8378 20.1551 34.7107 20.7115 35.2671C21.2679 35.8235 28.0776 30.7386 28.4767 30.4289C28.8759 30.1193 26.0455 25.015 24.6642 24.2627Z" fill="white" stroke="#263238" stroke-linecap="round" stroke-linejoin="round"/>
<path d="M19.7392 30.603C19.7196 30.6626 19.6829 30.7151 19.6335 30.7538C19.5841 30.7925 19.5243 30.8157 19.4617 30.8204C19.3991 30.8251 19.3366 30.8111 19.2819 30.7802C19.2273 30.7493 19.1831 30.7029 19.1549 30.6468C19.1267 30.5907 19.1158 30.5276 19.1235 30.4653C19.1313 30.403 19.1573 30.3444 19.1984 30.297C19.2395 30.2495 19.2937 30.2154 19.3542 30.1988C19.4148 30.1822 19.4789 30.1839 19.5384 30.2038C19.6178 30.2303 19.6835 30.2872 19.7211 30.362C19.7587 30.4368 19.7652 30.5234 19.7392 30.603Z" fill="white" stroke="#263238" stroke-linecap="round" stroke-linejoin="round"/>
<path d="M21.967 32.8289C21.9247 32.911 21.8545 32.9753 21.7689 33.0102C21.6833 33.045 21.5881 33.0481 21.5005 33.0189C21.4128 32.9897 21.3385 32.9301 21.291 32.8509C21.2435 32.7716 21.2258 32.678 21.2413 32.587C21.2506 32.5319 21.2718 32.4795 21.3033 32.4334C21.3348 32.3873 21.3759 32.3486 21.4237 32.3198C21.4716 32.2911 21.5251 32.2731 21.5806 32.267C21.6361 32.2609 21.6923 32.2669 21.7453 32.2845C21.7983 32.3022 21.8468 32.3311 21.8875 32.3693C21.9283 32.4074 21.9603 32.454 21.9813 32.5057C22.0024 32.5574 22.012 32.6131 22.0096 32.6689C22.0071 32.7246 21.9926 32.7792 21.967 32.8289Z" fill="white" stroke="#263238" stroke-linecap="round" stroke-linejoin="round"/>
<path d="M22.1655 29.7787C22.1497 29.8234 22.1211 29.8624 22.0833 29.891C22.0454 29.9196 22.0001 29.9364 21.9528 29.9394C21.9054 29.9424 21.8583 29.9314 21.8172 29.9078C21.7761 29.8843 21.7428 29.8491 21.7214 29.8068C21.7001 29.7645 21.6917 29.7168 21.6972 29.6698C21.7027 29.6227 21.722 29.5783 21.7525 29.542C21.7831 29.5058 21.8236 29.4793 21.8691 29.4659C21.9145 29.4525 21.9629 29.4528 22.0083 29.4666C22.0395 29.4762 22.0684 29.492 22.0934 29.513C22.1184 29.5341 22.1388 29.56 22.1535 29.5891C22.1682 29.6183 22.1768 29.6501 22.1789 29.6827C22.181 29.7153 22.1764 29.7479 22.1655 29.7787Z" fill="white" stroke="#263238" stroke-linecap="round" stroke-linejoin="round"/>
<path d="M23.9675 28.3729C23.9409 28.4528 23.8836 28.5188 23.8083 28.5565C23.733 28.5941 23.6458 28.6003 23.5659 28.5737C23.4861 28.5471 23.42 28.4898 23.3824 28.4145C23.3447 28.3392 23.3385 28.252 23.3652 28.1722C23.3784 28.1326 23.3992 28.096 23.4265 28.0645C23.4538 28.033 23.4871 28.0072 23.5244 27.9886C23.5617 27.9699 23.6022 27.9588 23.6438 27.9559C23.6854 27.9529 23.7272 27.9582 23.7667 27.9714C23.8063 27.9846 23.8428 28.0054 23.8743 28.0327C23.9058 28.06 23.9317 28.0933 23.9503 28.1306C23.9689 28.1679 23.9801 28.2085 23.983 28.25C23.986 28.2916 23.9807 28.3334 23.9675 28.3729Z" fill="white" stroke="#263238" stroke-linecap="round" stroke-linejoin="round"/>
<path d="M26.7519 30.0398C26.7388 30.0794 26.7179 30.1159 26.6906 30.1474C26.6633 30.1789 26.63 30.2047 26.5927 30.2234C26.5555 30.242 26.5149 30.2531 26.4733 30.2561C26.4317 30.259 26.3899 30.2538 26.3504 30.2406C26.3108 30.2274 26.2743 30.2066 26.2428 30.1793C26.2113 30.1519 26.1855 30.1187 26.1668 30.0814C26.1482 30.0441 26.1371 30.0035 26.1341 29.9619C26.1311 29.9203 26.1364 29.8786 26.1496 29.839C26.1772 29.7598 26.2346 29.6945 26.3096 29.657C26.3846 29.6195 26.4713 29.6128 26.5512 29.6382C26.5908 29.6514 26.6274 29.6722 26.6589 29.6995C26.6904 29.7268 26.7163 29.76 26.7349 29.7973C26.7536 29.8346 26.7647 29.8753 26.7676 29.9169C26.7705 29.9585 26.7652 30.0003 26.7519 30.0398Z" fill="white" stroke="#263238" stroke-linecap="round" stroke-linejoin="round"/>
<path d="M24.8046 31.433C24.787 31.4855 24.7543 31.5317 24.7105 31.5657C24.6668 31.5997 24.6139 31.62 24.5586 31.624C24.5033 31.628 24.4481 31.6155 24.3999 31.5881C24.3517 31.5608 24.3127 31.5198 24.2878 31.4703C24.2629 31.4208 24.2532 31.365 24.2599 31.31C24.2666 31.255 24.2895 31.2032 24.3256 31.1611C24.3618 31.1191 24.4095 31.0887 24.4629 31.0738C24.5163 31.0589 24.5729 31.0601 24.6256 31.0774C24.6608 31.0888 24.6933 31.1072 24.7214 31.1313C24.7494 31.1554 24.7724 31.1849 24.7891 31.2179C24.8057 31.251 24.8156 31.287 24.8183 31.3239C24.821 31.3608 24.8163 31.3979 24.8046 31.433Z" fill="white" stroke="#263238" stroke-linecap="round" stroke-linejoin="round"/>
<path d="M22.4846 28.14C22.473 28.1751 22.4546 28.2076 22.4305 28.2356C22.4063 28.2636 22.3769 28.2865 22.3439 28.3032C22.3109 28.3198 22.2749 28.3297 22.238 28.3325C22.2012 28.3352 22.1641 28.3306 22.129 28.319C22.0939 28.3074 22.0614 28.289 22.0334 28.2649C22.0054 28.2407 21.9825 28.2113 21.9659 28.1783C21.9492 28.1453 21.9393 28.1093 21.9366 28.0724C21.9338 28.0356 21.9384 27.9985 21.95 27.9634C21.9743 27.8926 22.0254 27.8341 22.0924 27.8006C22.1593 27.7672 22.2368 27.7613 22.308 27.7844C22.3432 27.7959 22.3757 27.8142 22.4036 27.8384C22.4316 27.8626 22.4545 27.8921 22.4709 27.9252C22.4874 27.9583 22.4971 27.9943 22.4994 28.0312C22.5018 28.0681 22.4967 28.1051 22.4846 28.14Z" fill="white" stroke="#263238" stroke-linecap="round" stroke-linejoin="round"/>
<path d="M25.3681 26.8344C25.3486 26.8941 25.3118 26.9466 25.2624 26.9853C25.213 27.024 25.1532 27.0472 25.0906 27.0519C25.028 27.0566 24.9655 27.0426 24.9108 27.0117C24.8562 26.9807 24.812 26.9343 24.7838 26.8783C24.7556 26.8222 24.7447 26.759 24.7524 26.6967C24.7602 26.6345 24.7862 26.5759 24.8273 26.5284C24.8684 26.481 24.9226 26.4468 24.9832 26.4302C25.0437 26.4136 25.1078 26.4154 25.1673 26.4353C25.2467 26.4618 25.3124 26.5187 25.35 26.5934C25.3876 26.6682 25.3941 26.7549 25.3681 26.8344Z" fill="white" stroke="#263238" stroke-linecap="round" stroke-linejoin="round"/>
<path d="M23.191 32.9382C23.1814 32.9692 23.1657 32.9979 23.1448 33.0226C23.1239 33.0474 23.0983 33.0677 23.0694 33.0824C23.0405 33.097 23.009 33.1058 22.9767 33.108C22.9444 33.1103 22.912 33.106 22.8813 33.0955C22.8501 33.0859 22.8211 33.0701 22.7962 33.0491C22.7712 33.0281 22.7508 33.0022 22.7361 32.973C22.7214 32.9439 22.7128 32.912 22.7107 32.8794C22.7086 32.8469 22.7132 32.8142 22.7241 32.7834C22.7336 32.7522 22.7494 32.7232 22.7705 32.6983C22.7915 32.6733 22.8174 32.6529 22.8465 32.6382C22.8757 32.6235 22.9075 32.6149 22.9401 32.6128C22.9727 32.6107 23.0054 32.6153 23.0361 32.6262C23.0671 32.636 23.0959 32.6519 23.1205 32.6731C23.1452 32.6943 23.1654 32.7202 23.1799 32.7493C23.1943 32.7784 23.2028 32.8102 23.2047 32.8426C23.2066 32.8751 23.2019 32.9076 23.191 32.9382Z" fill="white" stroke="#263238" stroke-linecap="round" stroke-linejoin="round"/>
<path d="M25.9367 29.6738C25.9367 29.6738 22.1146 30.4286 20.4212 30.7624C18.7279 31.0963 16.8845 30.7794 16.8579 31.4881C16.8313 32.1969 16.9619 36.6747 17.1845 37.4294C17.407 38.1842 25.8182 37.0037 26.3214 36.9238C26.8245 36.844 26.7834 30.9995 25.9367 29.6738Z" fill="white" stroke="#263238" stroke-linecap="round" stroke-linejoin="round"/>
<path d="M18.5682 32.8599C18.5381 32.89 18.5022 32.9138 18.4626 32.9297C18.4231 32.9456 18.3808 32.9534 18.3382 32.9526C18.2956 32.9518 18.2536 32.9424 18.2147 32.925C18.1758 32.9075 18.1408 32.8824 18.1118 32.8512C18.0829 32.8199 18.0605 32.7832 18.0461 32.7431C18.0316 32.703 18.0254 32.6604 18.0279 32.6178C18.0303 32.5753 18.0412 32.5337 18.0601 32.4955C18.0789 32.4573 18.1053 32.4232 18.1376 32.3955C18.1678 32.3653 18.2037 32.3416 18.2432 32.3257C18.2827 32.3098 18.3251 32.302 18.3677 32.3028C18.4103 32.3036 18.4523 32.313 18.4912 32.3304C18.5301 32.3478 18.565 32.3729 18.594 32.4042C18.623 32.4354 18.6454 32.4722 18.6598 32.5123C18.6742 32.5524 18.6804 32.595 18.678 32.6375C18.6756 32.6801 18.6646 32.7217 18.6458 32.7599C18.6269 32.7981 18.6005 32.8321 18.5682 32.8599Z" fill="white" stroke="#263238" stroke-linecap="round" stroke-linejoin="round"/>
<path d="M19.4535 35.884C19.3976 35.9362 19.3273 35.9706 19.2517 35.9829C19.1762 35.9952 19.0986 35.9849 19.029 35.9531C18.9593 35.9213 18.9006 35.8696 18.8603 35.8045C18.8201 35.7394 18.8 35.6638 18.8027 35.5872C18.8054 35.5107 18.8308 35.4367 18.8756 35.3746C18.9203 35.3125 18.9825 35.265 19.0543 35.2383C19.126 35.2115 19.2041 35.2066 19.2786 35.2243C19.3531 35.2419 19.4207 35.2812 19.4729 35.3373C19.5428 35.4123 19.58 35.5121 19.5764 35.6146C19.5727 35.7171 19.5286 35.814 19.4535 35.884Z" fill="white" stroke="#263238" stroke-linecap="round" stroke-linejoin="round"/>
<path d="M21.0914 33.3049C21.0559 33.3363 21.0119 33.3566 20.9649 33.3633C20.9179 33.3699 20.8701 33.3626 20.8272 33.3422C20.7844 33.3218 20.7484 33.2893 20.7239 33.2487C20.6994 33.208 20.6874 33.1611 20.6894 33.1137C20.6914 33.0663 20.7073 33.0205 20.7351 32.982C20.7629 32.9436 20.8013 32.9142 20.8457 32.8974C20.8901 32.8807 20.9385 32.8773 20.9847 32.8879C21.031 32.8984 21.0732 32.9223 21.1059 32.9566C21.1284 32.9801 21.146 33.0079 21.1575 33.0384C21.1689 33.0688 21.1742 33.1013 21.1728 33.1338C21.1715 33.1663 21.1636 33.1983 21.1496 33.2277C21.1356 33.2571 21.1158 33.2833 21.0914 33.3049Z" fill="white" stroke="#263238" stroke-linecap="round" stroke-linejoin="round"/>
<path d="M23.3482 32.9407C23.3022 32.9834 23.2447 33.0115 23.1828 33.0214C23.1209 33.0313 23.0574 33.0227 23.0004 32.9965C22.9434 32.9704 22.8955 32.9279 22.8626 32.8745C22.8298 32.8211 22.8135 32.7592 22.8159 32.6965C22.8183 32.6339 22.8392 32.5733 22.876 32.5226C22.9128 32.4718 22.9638 32.4331 23.0226 32.4113C23.0814 32.3895 23.1453 32.3857 23.2063 32.4003C23.2672 32.4149 23.3225 32.4472 23.3651 32.4932C23.4222 32.5548 23.4524 32.6366 23.4492 32.7205C23.4461 32.8044 23.4097 32.8836 23.3482 32.9407Z" fill="white" stroke="#263238" stroke-linecap="round" stroke-linejoin="round"/>
<path d="M24.9861 35.7415C24.9402 35.7842 24.8826 35.8123 24.8207 35.8222C24.7588 35.8321 24.6953 35.8235 24.6384 35.7973C24.5814 35.7712 24.5334 35.7287 24.5006 35.6753C24.4677 35.6219 24.4515 35.56 24.4538 35.4973C24.4562 35.4346 24.4771 35.3741 24.5139 35.3233C24.5507 35.2726 24.6017 35.2339 24.6605 35.2121C24.7193 35.1903 24.7832 35.1865 24.8442 35.2011C24.9052 35.2157 24.9605 35.248 25.0031 35.294C25.0601 35.3556 25.0904 35.4374 25.0872 35.5213C25.084 35.6052 25.0477 35.6844 24.9861 35.7415Z" fill="white" stroke="#263238" stroke-linecap="round" stroke-linejoin="round"/>
<path d="M22.6105 36.027C22.5695 36.0652 22.5182 36.0905 22.4629 36.0995C22.4076 36.1085 22.3508 36.1009 22.2998 36.0776C22.2489 36.0544 22.2059 36.0165 22.1765 35.9689C22.1471 35.9212 22.1324 35.8659 22.1345 35.8099C22.1365 35.7539 22.1551 35.6997 22.1879 35.6543C22.2208 35.6089 22.2663 35.5743 22.3189 35.5548C22.3714 35.5353 22.4285 35.5318 22.483 35.5448C22.5375 35.5579 22.5869 35.5867 22.625 35.6279C22.6758 35.6828 22.7029 35.7556 22.7002 35.8304C22.6974 35.9052 22.6652 35.9759 22.6105 36.027Z" fill="white" stroke="#263238" stroke-linecap="round" stroke-linejoin="round"/>
<path d="M22.1605 32.0302C22.1199 32.0679 22.0689 32.0928 22.0141 32.1016C21.9594 32.1104 21.9032 32.1028 21.8527 32.0797C21.8023 32.0566 21.7598 32.019 21.7307 31.9718C21.7016 31.9246 21.6871 31.8698 21.6892 31.8143C21.6912 31.7588 21.7096 31.7052 21.7421 31.6603C21.7746 31.6153 21.8197 31.5809 21.8717 31.5616C21.9237 31.5422 21.9803 31.5387 22.0343 31.5515C22.0883 31.5643 22.1373 31.5928 22.1751 31.6334C22.2002 31.6604 22.2197 31.6921 22.2326 31.7267C22.2454 31.7612 22.2514 31.798 22.25 31.8348C22.2487 31.8717 22.2401 31.9079 22.2247 31.9414C22.2094 31.9749 22.1876 32.0051 22.1605 32.0302Z" fill="white" stroke="#263238" stroke-linecap="round" stroke-linejoin="round"/>
<path d="M25.3149 32.2721C25.2847 32.3009 25.249 32.3234 25.21 32.3382C25.1709 32.353 25.1293 32.3599 25.0876 32.3583C25.0458 32.3567 25.0048 32.3468 24.967 32.329C24.9292 32.3113 24.8953 32.2862 24.8674 32.2552C24.8247 32.2092 24.7966 32.1517 24.7867 32.0897C24.7768 32.0278 24.7854 31.9644 24.8116 31.9074C24.8377 31.8504 24.8802 31.8025 24.9336 31.7696C24.987 31.7368 25.049 31.7205 25.1116 31.7229C25.1743 31.7253 25.2348 31.7462 25.2856 31.7829C25.3363 31.8197 25.375 31.8707 25.3968 31.9295C25.4186 31.9883 25.4224 32.0523 25.4078 32.1132C25.3933 32.1742 25.3609 32.2295 25.3149 32.2721Z" fill="white" stroke="#263238" stroke-linecap="round" stroke-linejoin="round"/>
<path d="M20.4721 36.5684C20.4368 36.6001 20.393 36.6207 20.346 36.6277C20.2991 36.6346 20.2511 36.6277 20.2081 36.6076C20.1651 36.5875 20.129 36.5552 20.1042 36.5148C20.0794 36.4743 20.0671 36.4274 20.0687 36.38C20.0704 36.3326 20.086 36.2867 20.1135 36.248C20.141 36.2094 20.1793 36.1797 20.2236 36.1626C20.2679 36.1456 20.3162 36.1419 20.3625 36.1521C20.4089 36.1624 20.4512 36.186 20.4842 36.22C20.5069 36.2434 20.5246 36.2711 20.5363 36.3015C20.548 36.3318 20.5534 36.3643 20.5523 36.3968C20.5511 36.4293 20.5435 36.4613 20.5297 36.4908C20.5159 36.5202 20.4963 36.5466 20.4721 36.5684Z" fill="white" stroke="#263238" stroke-linecap="round" stroke-linejoin="round"/>
<path d="M10.2829 36.4617L15.1864 38.726C16.2036 37.498 16.7722 35.9601 16.7983 34.3658C16.8245 32.7714 16.3067 31.2157 15.3303 29.955C14.3538 28.6943 12.9771 27.8039 11.4268 27.4304C9.87658 27.057 8.24537 27.2229 6.802 27.9006C5.35863 28.5784 4.18923 29.7277 3.48652 31.1591C2.7838 32.5905 2.58969 34.2186 2.93618 35.7751C3.28268 37.3316 4.1491 38.7236 5.39266 39.7217C6.63622 40.7199 8.18273 41.2645 9.77731 41.266C10.2271 41.2654 10.6758 41.2225 11.1175 41.1378L10.2829 36.4617Z" fill="white" stroke="#263238" stroke-linecap="round" stroke-linejoin="round"/>
<path d="M10.2826 35.9006L15.1861 38.1625C16.2382 36.8883 16.8066 35.2836 16.7914 33.6312C16.7761 31.9789 16.1781 30.385 15.1027 29.1304C14.0274 27.8759 12.5436 27.0411 10.9131 26.7734C9.28252 26.5056 7.60979 26.822 6.18968 27.6668C4.76957 28.5117 3.69323 29.8306 3.15038 31.3913C2.60752 32.952 2.63298 34.6542 3.22228 36.1979C3.81158 37.7417 4.92689 39.0278 6.37163 39.8298C7.81638 40.6317 9.49783 40.898 11.1196 40.5816L10.2826 35.9006Z" fill="white" stroke="#263238" stroke-linecap="round" stroke-linejoin="round"/>
<path d="M4.22298 34.4328C4.53962 34.4328 4.7963 34.1761 4.7963 33.8595C4.7963 33.5428 4.53962 33.2861 4.22298 33.2861C3.90634 33.2861 3.64966 33.5428 3.64966 33.8595C3.64966 34.1761 3.90634 34.4328 4.22298 34.4328Z" fill="white" stroke="#263238" stroke-linecap="round" stroke-linejoin="round"/>
<path d="M6.14852 36.1186C6.14852 36.1832 6.12936 36.2463 6.09348 36.3C6.0576 36.3537 6.00659 36.3956 5.94692 36.4203C5.88724 36.445 5.82158 36.4515 5.75823 36.4389C5.69488 36.4263 5.63669 36.3952 5.59101 36.3495C5.54534 36.3038 5.51424 36.2456 5.50164 36.1823C5.48903 36.1189 5.49551 36.0533 5.52022 35.9936C5.54494 35.9339 5.5868 35.8829 5.64051 35.847C5.69421 35.8112 5.75735 35.792 5.82194 35.792C5.86491 35.7917 5.90752 35.7999 5.94729 35.8162C5.98706 35.8325 6.0232 35.8565 6.05359 35.8869C6.08397 35.9173 6.10801 35.9535 6.12431 35.9932C6.14061 36.033 6.14884 36.0756 6.14852 36.1186Z" fill="white" stroke="#263238" stroke-linecap="round" stroke-linejoin="round"/>
<path d="M7.49113 34.0482C7.65679 34.0482 7.7911 33.9139 7.7911 33.7482C7.7911 33.5825 7.65679 33.4482 7.49113 33.4482C7.32546 33.4482 7.19116 33.5825 7.19116 33.7482C7.19116 33.9139 7.32546 34.0482 7.49113 34.0482Z" fill="white" stroke="#263238" stroke-linecap="round" stroke-linejoin="round"/>
<path d="M8.44685 30.5329C8.44733 30.5923 8.43014 30.6506 8.39747 30.7002C8.3648 30.7499 8.31812 30.7887 8.26335 30.8118C8.20859 30.8348 8.1482 30.8411 8.08985 30.8298C8.03151 30.8185 7.97783 30.7901 7.93564 30.7483C7.89345 30.7064 7.86464 30.653 7.85287 30.5947C7.8411 30.5365 7.84689 30.476 7.86952 30.4211C7.89215 30.3661 7.9306 30.3191 7.97998 30.2861C8.02936 30.253 8.08745 30.2354 8.14688 30.2354C8.22602 30.2353 8.30195 30.2666 8.35814 30.3224C8.41432 30.3781 8.44621 30.4538 8.44685 30.5329Z" fill="white" stroke="#263238" stroke-linecap="round" stroke-linejoin="round"/>
<path d="M13.8897 34.4853C13.8887 34.5395 13.8717 34.5921 13.8407 34.6366C13.8098 34.681 13.7663 34.7153 13.7159 34.735C13.6654 34.7547 13.6103 34.759 13.5574 34.7473C13.5045 34.7356 13.4563 34.7085 13.4188 34.6693C13.3814 34.6302 13.3564 34.5808 13.3471 34.5275C13.3378 34.4741 13.3445 34.4192 13.3664 34.3697C13.3884 34.3202 13.4245 34.2783 13.4703 34.2493C13.5161 34.2204 13.5694 34.2057 13.6236 34.2071C13.6594 34.2078 13.6947 34.2155 13.7275 34.2298C13.7603 34.2442 13.7899 34.2649 13.8146 34.2907C13.8394 34.3166 13.8588 34.3471 13.8716 34.3805C13.8845 34.4139 13.8906 34.4495 13.8897 34.4853Z" fill="white" stroke="#263238" stroke-linecap="round" stroke-linejoin="round"/>
<path d="M14.2768 31.0798C14.2768 31.1276 14.2626 31.1744 14.236 31.2142C14.2094 31.254 14.1717 31.285 14.1275 31.3033C14.0833 31.3216 14.0346 31.3264 13.9877 31.3171C13.9408 31.3077 13.8977 31.2847 13.8638 31.2509C13.83 31.217 13.807 31.1739 13.7976 31.127C13.7883 31.0801 13.7931 31.0314 13.8114 30.9872C13.8297 30.943 13.8607 30.9052 13.9005 30.8787C13.9403 30.8521 13.987 30.8379 14.0349 30.8379C14.099 30.8379 14.1606 30.8634 14.2059 30.9087C14.2513 30.9541 14.2768 31.0156 14.2768 31.0798Z" fill="white" stroke="#263238" stroke-linecap="round" stroke-linejoin="round"/>
<path d="M10.953 32.3602C11.104 32.3602 11.2264 32.2378 11.2264 32.0868C11.2264 31.9359 11.104 31.8135 10.953 31.8135C10.8021 31.8135 10.6797 31.9359 10.6797 32.0868C10.6797 32.2378 10.8021 32.3602 10.953 32.3602Z" fill="white" stroke="#263238" stroke-linecap="round" stroke-linejoin="round"/>
<path d="M17.1504 35.7197C17.1504 35.7197 16.2892 36.1236 16.0546 36.9292C15.8199 37.7348 16.2602 38.7798 16.8021 39.433C17.344 40.0861 18.0285 40.9787 18.5656 41.182C19.9541 41.7045 20.513 39.6458 20.2469 38.7C20.1404 38.3153 20.8565 37.9089 20.3606 36.6147C19.8646 35.3205 17.9052 35.0205 17.1504 35.7197Z" fill="#92E3A9" stroke="#263238" stroke-linecap="round" stroke-linejoin="round"/>
<path d="M17.6247 35.3809C17.5312 35.2938 17.4171 35.232 17.2931 35.2011C17.1691 35.1702 17.0393 35.1713 16.9159 35.2043C16.6138 35.2893 16.3179 35.3951 16.0305 35.5212C16.0305 35.5212 16.4151 35.809 16.6474 35.7824C16.9845 35.678 17.3116 35.5436 17.6247 35.3809Z" fill="#263238"/>
<path d="M17.6246 35.381C17.6231 35.1365 17.6515 34.8928 17.7092 34.6552C17.7987 34.3553 18.0044 33.9876 18.0092 33.811C18.014 33.6344 18.4495 33.7408 18.3382 34.2416C18.2269 34.7423 17.6246 35.381 17.6246 35.381Z" fill="#263238"/>
<path d="M17.2498 38.1822L17.228 38.2064C17.2152 38.2193 17.1999 38.2296 17.1831 38.2366C17.1663 38.2436 17.1482 38.2472 17.13 38.2472C17.1118 38.2472 17.0938 38.2436 17.077 38.2366C17.0601 38.2296 17.0449 38.2193 17.0321 38.2064C16.8631 37.9956 16.7103 37.7724 16.5749 37.5387C16.5564 37.5066 16.5513 37.4685 16.5609 37.4327C16.5704 37.3969 16.5937 37.3663 16.6256 37.3476C16.6413 37.3382 16.6586 37.332 16.6767 37.3294C16.6948 37.3269 16.7132 37.328 16.7308 37.3328C16.7484 37.3375 16.7649 37.3458 16.7793 37.3571C16.7936 37.3683 16.8056 37.3824 16.8143 37.3984C16.9393 37.6149 17.08 37.8218 17.2353 38.0177C17.2544 38.0402 17.2661 38.0681 17.2687 38.0976C17.2713 38.1271 17.2647 38.1566 17.2498 38.1822Z" fill="#263238"/>
<path d="M18.268 37.774C18.2584 37.7888 18.246 37.8016 18.2315 37.8115C18.217 37.8215 18.2006 37.8285 18.1833 37.8321C18.1657 37.8367 18.1473 37.8378 18.1292 37.8352C18.1112 37.8326 18.0938 37.8263 18.0782 37.8168C18.0626 37.8073 18.0491 37.7948 18.0385 37.78C18.0279 37.7651 18.0204 37.7483 18.0164 37.7305L17.8181 36.8838C17.8138 36.866 17.8131 36.8475 17.816 36.8294C17.8189 36.8114 17.8254 36.7941 17.8351 36.7785C17.8448 36.763 17.8574 36.7495 17.8724 36.7389C17.8873 36.7284 17.9042 36.7209 17.9221 36.7169C17.9397 36.7125 17.958 36.7117 17.976 36.7145C17.9939 36.7173 18.0111 36.7236 18.0266 36.733C18.0421 36.7424 18.0556 36.7548 18.0663 36.7695C18.077 36.7842 18.0847 36.8008 18.089 36.8185L18.2874 37.6651C18.2915 37.6837 18.292 37.7028 18.2886 37.7215C18.2853 37.7402 18.2783 37.7581 18.268 37.774Z" fill="#263238"/>
<path d="M19.1559 37.4588C19.1391 37.4831 19.1152 37.5016 19.0876 37.512C19.0599 37.5224 19.0297 37.5241 19.0011 37.5168C18.966 37.5061 18.9363 37.4823 18.9183 37.4504C18.9003 37.4184 18.8953 37.3807 18.9043 37.3451L19.1148 36.5855C19.1278 36.5536 19.152 36.5276 19.1829 36.5124C19.2139 36.4972 19.2493 36.494 19.2825 36.5032C19.3157 36.5125 19.3443 36.5336 19.3629 36.5626C19.3815 36.5916 19.3887 36.6265 19.3833 36.6605L19.1728 37.4177C19.1687 37.4319 19.163 37.4457 19.1559 37.4588Z" fill="#263238"/>
<path d="M17.8596 39.547C17.85 39.5625 17.8374 39.5759 17.8225 39.5865C17.8076 39.597 17.7907 39.6044 17.7728 39.6083C17.755 39.6121 17.7365 39.6123 17.7186 39.6088C17.7007 39.6054 17.6836 39.5983 17.6685 39.5881L17.2403 39.3099C17.2097 39.2892 17.1884 39.2573 17.1812 39.2211C17.1739 39.1848 17.1813 39.1472 17.2016 39.1164C17.2218 39.0859 17.2533 39.0647 17.2892 39.0574C17.325 39.0502 17.3623 39.0574 17.3927 39.0777L17.8209 39.3558C17.8514 39.3761 17.8726 39.4075 17.8798 39.4434C17.8871 39.4792 17.8798 39.5165 17.8596 39.547Z" fill="#263238"/>
<path d="M18.3964 39.0027C18.3819 39.0245 18.3618 39.042 18.3383 39.0535C18.3218 39.0612 18.3039 39.0656 18.2857 39.0664C18.2675 39.0671 18.2494 39.0643 18.2323 39.058C18.2152 39.0517 18.1995 39.0421 18.1861 39.0297C18.1728 39.0173 18.162 39.0024 18.1545 38.9858L17.9585 38.5721C17.9508 38.5556 17.9464 38.5377 17.9457 38.5195C17.9449 38.5013 17.9478 38.4832 17.9541 38.4661C17.9604 38.449 17.97 38.4333 17.9824 38.4199C17.9948 38.4066 18.0097 38.3958 18.0263 38.3883C18.0426 38.3801 18.0603 38.3754 18.0785 38.3743C18.0967 38.3732 18.1149 38.3757 18.1321 38.3818C18.1492 38.3879 18.165 38.3974 18.1784 38.4098C18.1918 38.4221 18.2026 38.437 18.2101 38.4536L18.4061 38.8672C18.4154 38.8889 18.4194 38.9126 18.4177 38.9362C18.416 38.9597 18.4087 38.9826 18.3964 39.0027Z" fill="#263238"/>
<path d="M19.2745 38.6461C19.2605 38.6669 19.2413 38.6837 19.2188 38.6948C19.1963 38.7058 19.1713 38.7107 19.1463 38.709C19.1097 38.7053 19.0759 38.6877 19.0521 38.6597C19.0282 38.6318 19.016 38.5957 19.018 38.559L19.0495 38.1841C19.0509 38.166 19.0559 38.1483 19.0641 38.1321C19.0724 38.116 19.0838 38.1016 19.0976 38.0898C19.1114 38.078 19.1274 38.069 19.1447 38.0634C19.1619 38.0578 19.1802 38.0556 19.1983 38.0571C19.2164 38.0585 19.234 38.0635 19.2502 38.0717C19.2664 38.08 19.2808 38.0913 19.2926 38.1052C19.3044 38.119 19.3133 38.135 19.3189 38.1522C19.3245 38.1695 19.3267 38.1877 19.3253 38.2058L19.2962 38.5808C19.2941 38.604 19.2867 38.6263 19.2745 38.6461Z" fill="#263238"/>
<path d="M18.7279 40.4058C18.7193 40.418 18.7087 40.4286 18.6964 40.4372C18.6824 40.4488 18.6662 40.4574 18.6488 40.4626C18.6314 40.4678 18.6131 40.4694 18.5951 40.4673C18.577 40.4653 18.5595 40.4597 18.5437 40.4508C18.5279 40.4418 18.514 40.4298 18.5029 40.4154L18.2078 40.0429C18.185 40.014 18.1746 39.9773 18.1789 39.9408C18.1832 39.9042 18.2019 39.8709 18.2308 39.8482C18.2596 39.8254 18.2964 39.815 18.3329 39.8193C18.3694 39.8236 18.4027 39.8423 18.4255 39.8711L18.7279 40.2558C18.7424 40.2781 18.7501 40.3041 18.7501 40.3308C18.7501 40.3574 18.7424 40.3834 18.7279 40.4058Z" fill="#263238"/>
<path d="M19.3617 40.0999C19.3453 40.1242 19.3216 40.1428 19.2941 40.153C19.2666 40.1632 19.2366 40.1646 19.2083 40.1568C19.18 40.1491 19.1548 40.1327 19.1363 40.1099C19.1178 40.0871 19.107 40.059 19.1052 40.0297L19.0859 39.5145C19.0849 39.4962 19.0876 39.4779 19.0938 39.4606C19.1 39.4433 19.1095 39.4275 19.1219 39.414C19.1343 39.4005 19.1493 39.3895 19.1659 39.3819C19.1826 39.3742 19.2006 39.37 19.2189 39.3693C19.2372 39.3684 19.2556 39.371 19.2728 39.3772C19.2901 39.3834 19.3059 39.393 19.3194 39.4054C19.333 39.4178 19.3439 39.4327 19.3515 39.4494C19.3592 39.466 19.3635 39.4841 19.3641 39.5024L19.3834 40.0177C19.3849 40.0467 19.3773 40.0754 19.3617 40.0999Z" fill="#263238"/>
<path d="M19.8212 38.5738C19.804 38.6002 19.7784 38.6201 19.7486 38.6302C19.7187 38.6402 19.6863 38.64 19.6567 38.6295C19.622 38.6159 19.594 38.5894 19.5787 38.5555C19.5633 38.5216 19.5618 38.483 19.5744 38.448C19.6905 38.1619 19.7906 37.8695 19.8744 37.5723C19.8805 37.5369 19.9001 37.5052 19.929 37.4837C19.9578 37.4623 19.9939 37.4527 20.0296 37.4571C20.0653 37.4614 20.098 37.4793 20.1208 37.5071C20.1437 37.5348 20.1551 37.5703 20.1526 37.6062C20.0636 37.9252 19.9579 38.2394 19.8357 38.5472C19.8333 38.5572 19.8283 38.5664 19.8212 38.5738Z" fill="#263238"/>
<path d="M17.2061 37.0427C17.1852 37.0726 17.1543 37.094 17.119 37.1031C17.0828 37.1103 17.0452 37.1029 17.0144 37.0825C16.9836 37.0621 16.9621 37.0304 16.9545 36.9943L16.8311 36.4137C16.8246 36.3775 16.8323 36.3403 16.8526 36.3096C16.8728 36.279 16.9041 36.2573 16.94 36.2492C16.9579 36.2453 16.9765 36.2451 16.9946 36.2485C17.0126 36.2519 17.0298 36.2589 17.0451 36.269C17.0605 36.2791 17.0736 36.2922 17.0838 36.3075C17.094 36.3228 17.101 36.34 17.1045 36.3581L17.2254 36.9386C17.2328 36.9745 17.2259 37.0118 17.2061 37.0427Z" fill="#263238"/>
<path d="M18.7278 36.5713C18.7137 36.5911 18.6956 36.6076 18.6746 36.6197C18.6414 36.636 18.6032 36.6388 18.568 36.6276C18.5329 36.6163 18.5034 36.5918 18.4859 36.5592C18.3771 36.3439 18.123 35.8577 18.123 35.8577L18.365 35.7295L18.7302 36.4334C18.7425 36.4545 18.7487 36.4784 18.7483 36.5027C18.7479 36.527 18.7408 36.5508 18.7278 36.5713Z" fill="#263238"/>
<path d="M23.6433 36.7625C23.6433 36.7625 22.8329 36.2642 22.0225 36.5206C21.2122 36.777 20.588 37.706 20.3292 38.5164C20.0703 39.3267 19.7051 40.3887 19.8284 40.95C20.1526 42.4014 22.1822 41.7362 22.8281 40.9983C23.0894 40.6984 23.8223 41.0733 24.6327 39.9509C25.4431 38.8284 24.6424 37.0117 23.6433 36.7625Z" fill="#92E3A9" stroke="#263238" stroke-linecap="round" stroke-linejoin="round"/>
<path d="M24.1852 36.9752C24.2066 36.8492 24.1956 36.7198 24.1533 36.5992C24.111 36.4787 24.0387 36.3708 23.9433 36.2857C23.7073 36.0778 23.4567 35.887 23.1934 35.7148C23.1934 35.7148 23.1644 36.1987 23.3144 36.3753C23.5859 36.6011 23.8774 36.8019 24.1852 36.9752Z" fill="#263238"/>
<path d="M24.1853 36.9753C24.3917 36.8392 24.6133 36.728 24.8457 36.6439C25.1391 36.5918 25.4291 36.5224 25.7142 36.4358C25.8641 36.3439 26.0141 36.7648 25.5352 36.9438C25.0562 37.1228 24.1853 36.9753 24.1853 36.9753Z" fill="#263238"/>
<path d="M21.6307 38.1919C21.6195 38.1942 21.608 38.1942 21.5968 38.1919C21.579 38.1879 21.5622 38.1804 21.5473 38.1698C21.5325 38.1591 21.52 38.1456 21.5105 38.13C21.501 38.1145 21.4947 38.0971 21.4921 38.079C21.4895 38.061 21.4906 38.0426 21.4952 38.0249C21.579 37.7682 21.6826 37.5183 21.8049 37.2774C21.8244 37.2516 21.8524 37.2334 21.884 37.2262C21.9156 37.2189 21.9487 37.223 21.9776 37.2377C22.0064 37.2524 22.0292 37.2768 22.0418 37.3067C22.0545 37.3365 22.0562 37.3698 22.0468 37.4008C21.9342 37.6242 21.838 37.8554 21.7589 38.0927C21.7504 38.1204 21.7335 38.1449 21.7106 38.1627C21.6876 38.1804 21.6597 38.1906 21.6307 38.1919Z" fill="#263238"/>
<path d="M22.5377 38.8211C22.5087 38.8236 22.4796 38.8168 22.4547 38.8017C22.4297 38.7866 22.4102 38.764 22.3989 38.7371C22.3877 38.7103 22.3852 38.6805 22.3919 38.6521C22.3985 38.6238 22.414 38.5982 22.4361 38.5792L23.0361 37.9503C23.0486 37.9371 23.0636 37.9265 23.0803 37.9191C23.0969 37.9117 23.1148 37.9077 23.133 37.9073C23.1512 37.9068 23.1693 37.91 23.1863 37.9165C23.2033 37.9231 23.2188 37.9329 23.232 37.9454C23.2452 37.958 23.2558 37.973 23.2632 37.9896C23.2705 38.0063 23.2746 38.0242 23.275 38.0424C23.2755 38.0606 23.2723 38.0787 23.2658 38.0957C23.2592 38.1127 23.2494 38.1282 23.2369 38.1414L22.6369 38.7728C22.6249 38.7876 22.6098 38.7996 22.5927 38.8079C22.5755 38.8163 22.5568 38.8208 22.5377 38.8211Z" fill="#263238"/>
<path d="M23.2854 39.3915C23.2562 39.391 23.228 39.3814 23.2046 39.364C23.1812 39.3467 23.1638 39.3225 23.1547 39.2948C23.1491 39.2775 23.1469 39.2592 23.1484 39.2411C23.1498 39.2229 23.1549 39.2052 23.1632 39.189C23.1715 39.1729 23.183 39.1585 23.1969 39.1467C23.2108 39.135 23.2269 39.1261 23.2442 39.1206L23.9942 38.8787C24.0291 38.8675 24.0671 38.8706 24.0998 38.8874C24.1324 38.9042 24.1571 38.9332 24.1683 38.9682C24.1796 39.0032 24.1764 39.0412 24.1597 39.0738C24.1429 39.1065 24.1138 39.1312 24.0788 39.1424L23.3289 39.3843L23.2854 39.3915Z" fill="#263238"/>
<path d="M20.8276 39.4525C20.7908 39.4519 20.7557 39.4368 20.7299 39.4106C20.7041 39.3843 20.6897 39.349 20.6897 39.3122V38.8042C20.6871 38.7844 20.6887 38.7643 20.6945 38.7451C20.7003 38.726 20.7101 38.7084 20.7233 38.6933C20.7364 38.6783 20.7527 38.6663 20.7709 38.658C20.7891 38.6498 20.8088 38.6455 20.8288 38.6455C20.8488 38.6455 20.8685 38.6498 20.8867 38.658C20.9049 38.6663 20.9211 38.6783 20.9343 38.6933C20.9475 38.7084 20.9573 38.726 20.9631 38.7451C20.9689 38.7643 20.9705 38.7844 20.9679 38.8042V39.3122C20.9679 39.3306 20.9643 39.3489 20.9572 39.3659C20.9502 39.3829 20.9398 39.3984 20.9268 39.4114C20.9138 39.4244 20.8983 39.4348 20.8813 39.4418C20.8642 39.4489 20.846 39.4525 20.8276 39.4525Z" fill="#263238"/>
<path d="M21.5774 39.6029C21.5516 39.6028 21.5264 39.5952 21.5048 39.5811C21.4891 39.5717 21.4755 39.5592 21.4647 39.5445C21.4539 39.5297 21.4461 39.5129 21.4418 39.4952C21.4375 39.4774 21.4368 39.4589 21.4398 39.4408C21.4427 39.4228 21.4492 39.4055 21.4589 39.39L21.7008 39.0005C21.7203 38.9693 21.7512 38.9471 21.7869 38.9385C21.8227 38.9299 21.8603 38.9356 21.8919 38.9545C21.9075 38.964 21.9212 38.9764 21.932 38.9912C21.9428 39.0059 21.9506 39.0227 21.9549 39.0405C21.9592 39.0583 21.9599 39.0767 21.9569 39.0948C21.954 39.1128 21.9475 39.1301 21.9378 39.1456L21.6959 39.5351C21.6836 39.5556 21.6662 39.5725 21.6455 39.5844C21.6247 39.5962 21.6013 39.6026 21.5774 39.6029Z" fill="#263238"/>
<path d="M22.3563 40.1414C22.3315 40.1413 22.3072 40.1345 22.2859 40.1217C22.2646 40.1089 22.2472 40.0906 22.2354 40.0688C22.2265 40.0528 22.2209 40.0352 22.2189 40.017C22.2168 39.9988 22.2185 39.9803 22.2236 39.9628C22.2288 39.9452 22.2375 39.9288 22.249 39.9146C22.2606 39.9005 22.2749 39.8887 22.291 39.8801L22.62 39.6987C22.6512 39.6882 22.685 39.6891 22.7156 39.701C22.7462 39.713 22.7717 39.7353 22.7875 39.7641C22.8033 39.7929 22.8086 39.8263 22.8023 39.8586C22.796 39.8908 22.7786 39.9198 22.7531 39.9406L22.4241 40.122C22.4032 40.1333 22.3801 40.1399 22.3563 40.1414Z" fill="#263238"/>
<path d="M20.5881 40.6499C20.5663 40.6499 20.5448 40.6447 20.5254 40.6347C20.506 40.6247 20.4892 40.6103 20.4764 40.5926C20.4637 40.5749 20.4553 40.5544 20.452 40.5328C20.4487 40.5112 20.4506 40.4892 20.4575 40.4685L20.6075 40.0185C20.6191 39.9839 20.6438 39.9551 20.6764 39.9384C20.7089 39.9216 20.7467 39.9183 20.7817 39.929C20.8165 39.9412 20.8453 39.9664 20.862 39.9993C20.8787 40.0322 20.882 40.0703 20.8712 40.1056L20.7212 40.5556C20.7116 40.5832 20.6936 40.6071 20.6698 40.6241C20.6459 40.641 20.6174 40.65 20.5881 40.6499Z" fill="#263238"/>
<path d="M21.188 41.0093C21.1657 41.0095 21.1438 41.0044 21.124 40.9943C21.1042 40.9842 21.0871 40.9694 21.0743 40.9513C21.0534 40.921 21.0453 40.8838 21.0517 40.8476C21.058 40.8114 21.0783 40.7792 21.1081 40.7578L21.5266 40.4578C21.5565 40.4363 21.5936 40.4275 21.6299 40.4334C21.6662 40.4393 21.6987 40.4594 21.7202 40.4892C21.7416 40.5191 21.7504 40.5562 21.7445 40.5925C21.7386 40.6288 21.7185 40.6613 21.6887 40.6828L21.2678 40.9803C21.2454 40.9991 21.2172 41.0094 21.188 41.0093Z" fill="#263238"/>
<path d="M22.7169 40.5601C22.6854 40.5599 22.6549 40.549 22.6303 40.5292C22.6057 40.5095 22.5885 40.482 22.5814 40.4513C22.5735 40.4157 22.58 40.3784 22.5995 40.3476C22.619 40.3167 22.6499 40.2949 22.6855 40.2868C22.9883 40.2253 23.2878 40.1486 23.5829 40.057C23.616 40.041 23.6541 40.0386 23.6889 40.0503C23.7238 40.0621 23.7526 40.0871 23.7692 40.1199C23.7775 40.1361 23.7826 40.1537 23.7841 40.1719C23.7855 40.19 23.7834 40.2083 23.7778 40.2256C23.7722 40.2429 23.7632 40.259 23.7513 40.2728C23.7395 40.2866 23.725 40.2979 23.7087 40.3061C23.3909 40.4045 23.0678 40.4853 22.7411 40.5481L22.7169 40.5601Z" fill="#263238"/>
<path d="M22.567 37.5342C22.5299 37.5337 22.4944 37.519 22.4678 37.4931C22.4421 37.4665 22.4277 37.4309 22.4277 37.3939C22.4277 37.3569 22.4421 37.3213 22.4678 37.2947L22.8888 36.869C22.915 36.8434 22.9501 36.8291 22.9867 36.8291C23.0233 36.8291 23.0585 36.8434 23.0847 36.869C23.0979 36.8816 23.1085 36.8968 23.1157 36.9137C23.1229 36.9305 23.1266 36.9486 23.1266 36.9669C23.1266 36.9853 23.1229 37.0034 23.1157 37.0202C23.1085 37.0371 23.0979 37.0523 23.0847 37.0649L22.6662 37.4858C22.6538 37.5002 22.6386 37.5119 22.6216 37.5202C22.6045 37.5285 22.586 37.5333 22.567 37.5342Z" fill="#263238"/>
<path d="M23.8078 38.5615C23.7838 38.5623 23.7601 38.5555 23.7401 38.5422C23.7242 38.5334 23.7101 38.5215 23.6988 38.5072C23.6875 38.4929 23.6791 38.4765 23.6741 38.459C23.6692 38.4414 23.6678 38.4231 23.6699 38.405C23.6721 38.3869 23.6779 38.3694 23.6869 38.3535C23.8078 38.143 24.0764 37.6641 24.0764 37.6641L24.3183 37.802C24.3183 37.802 24.0498 38.2858 23.9288 38.4914C23.9167 38.5128 23.8991 38.5306 23.8779 38.5429C23.8566 38.5553 23.8324 38.5617 23.8078 38.5615Z" fill="#263238"/>
<path d="M17.3441 42.0067C17.3441 42.0067 17.7118 41.1285 17.3441 40.3641C16.9764 39.5997 15.9532 39.1304 15.1113 39.007C14.2695 38.8836 13.1761 38.678 12.6318 38.8885C11.2505 39.4279 12.2157 41.3317 13.043 41.8567C13.3817 42.072 13.1228 42.8533 14.3566 43.4823C15.5903 44.1113 17.2498 43.0299 17.3441 42.0067Z" fill="#92E3A9" stroke="#263238" stroke-linecap="round" stroke-linejoin="round"/>
<path d="M17.2185 42.5722C17.3458 42.5742 17.4716 42.544 17.5841 42.4844C17.6966 42.4248 17.7922 42.3376 17.862 42.2311C18.0302 41.9652 18.1797 41.688 18.3095 41.4014C18.3095 41.4014 17.8257 41.4449 17.6757 41.6215C17.4945 41.9237 17.3415 42.242 17.2185 42.5722Z" fill="#263238"/>
<path d="M17.2184 42.5732C17.3837 42.7564 17.5266 42.9586 17.6441 43.1756C17.7422 43.4575 17.8561 43.7337 17.9852 44.0029C18.0965 44.136 17.7046 44.3489 17.4554 43.9013C17.2063 43.4538 17.2184 42.5732 17.2184 42.5732Z" fill="#263238"/>
<path d="M15.6217 40.2559C15.6193 40.2448 15.6193 40.2332 15.6217 40.2221C15.6232 40.2039 15.6283 40.1863 15.6367 40.1701C15.6451 40.154 15.6565 40.1396 15.6705 40.1279C15.6844 40.1163 15.7005 40.1074 15.7179 40.102C15.7353 40.0966 15.7536 40.0946 15.7717 40.0963C16.0383 40.1397 16.3011 40.2036 16.5579 40.2874C16.593 40.2985 16.6223 40.323 16.6395 40.3556C16.6567 40.3882 16.6604 40.4263 16.6498 40.4616C16.6443 40.4792 16.6353 40.4956 16.6235 40.5098C16.6116 40.524 16.597 40.5357 16.5806 40.5443C16.5642 40.5528 16.5463 40.558 16.5278 40.5596C16.5094 40.5612 16.4908 40.5591 16.4732 40.5535C16.2361 40.4751 15.9935 40.4145 15.7475 40.3721C15.7165 40.3697 15.6872 40.357 15.6644 40.3359C15.6416 40.3148 15.6265 40.2866 15.6217 40.2559Z" fill="#263238"/>
<path d="M15.1378 41.2228C15.1351 41.2055 15.1359 41.1878 15.14 41.1708C15.1442 41.1538 15.1516 41.1378 15.162 41.1236C15.1722 41.1084 15.1853 41.0954 15.2007 41.0853C15.216 41.0752 15.2331 41.0682 15.2512 41.0649C15.2692 41.0615 15.2877 41.0617 15.3056 41.0656C15.3235 41.0695 15.3405 41.0769 15.3555 41.0874L16.0692 41.5712C16.1012 41.5923 16.1236 41.6254 16.1313 41.663C16.139 41.7007 16.1315 41.7399 16.1103 41.772C16.0891 41.804 16.0561 41.8264 16.0184 41.8341C15.9808 41.8418 15.9416 41.8343 15.9095 41.8131L15.1838 41.3172C15.1574 41.2924 15.1411 41.2588 15.1378 41.2228Z" fill="#263238"/>
<path d="M14.6904 42.057C14.6828 42.0234 14.688 41.9883 14.7051 41.9584C14.7221 41.9285 14.7497 41.906 14.7824 41.8954C14.8151 41.8848 14.8506 41.8868 14.8819 41.901C14.9133 41.9153 14.9381 41.9407 14.9517 41.9723L15.3049 42.6763C15.3143 42.7073 15.3126 42.7406 15.2999 42.7704C15.2873 42.8002 15.2645 42.8247 15.2356 42.8394C15.2068 42.8541 15.1736 42.8582 15.1421 42.8509C15.1105 42.8437 15.0825 42.8255 15.063 42.7997L14.7122 42.0957C14.7027 42.0842 14.6953 42.0711 14.6904 42.057Z" fill="#263238"/>
<path d="M14.2525 39.6366C14.2476 39.6004 14.257 39.5638 14.2787 39.5344C14.3003 39.505 14.3326 39.4853 14.3686 39.4793L14.8742 39.3995C14.9086 39.3983 14.9423 39.4098 14.9688 39.4319C14.9953 39.4539 15.0128 39.4849 15.0179 39.519C15.023 39.5531 15.0153 39.5879 14.9964 39.6167C14.9775 39.6455 14.9486 39.6664 14.9153 39.6753L14.4121 39.7527C14.3756 39.7583 14.3383 39.7492 14.3084 39.7275C14.2785 39.7057 14.2584 39.6731 14.2525 39.6366Z" fill="#263238"/>
<path d="M14.2213 40.4004C14.213 40.3761 14.213 40.3497 14.2213 40.3254C14.2357 40.2916 14.2628 40.2649 14.2967 40.2509C14.3306 40.2369 14.3687 40.2367 14.4027 40.2504L14.8237 40.427C14.8574 40.4414 14.8842 40.4685 14.8982 40.5024C14.9122 40.5363 14.9124 40.5744 14.8987 40.6084C14.892 40.6256 14.882 40.6412 14.8692 40.6543C14.8564 40.6674 14.841 40.6778 14.824 40.6848C14.8071 40.6918 14.7888 40.6953 14.7705 40.6951C14.7521 40.6948 14.734 40.6909 14.7172 40.6834L14.2939 40.5068C14.274 40.4963 14.257 40.4811 14.2444 40.4626C14.2318 40.444 14.2238 40.4227 14.2213 40.4004Z" fill="#263238"/>
<path d="M13.8074 41.2516C13.8031 41.227 13.8058 41.2017 13.8152 41.1786C13.8247 41.1555 13.8404 41.1355 13.8606 41.1209C13.875 41.1099 13.8915 41.1019 13.9091 41.0973C13.9266 41.0927 13.9449 41.0916 13.9629 41.0941C13.9809 41.0965 13.9982 41.1025 14.0138 41.1117C14.0295 41.1209 14.0432 41.1331 14.0541 41.1475L14.2839 41.4451C14.3057 41.4749 14.315 41.5119 14.3101 41.5484C14.3051 41.5849 14.2862 41.6181 14.2573 41.641C14.2429 41.652 14.2264 41.6601 14.2089 41.6647C14.1913 41.6693 14.173 41.6704 14.155 41.6679C14.1371 41.6654 14.1197 41.6594 14.1041 41.6503C14.0884 41.6411 14.0747 41.6289 14.0638 41.6144L13.8219 41.3169C13.8115 41.2967 13.8065 41.2742 13.8074 41.2516Z" fill="#263238"/>
<path d="M13.0308 39.5827C13.0285 39.5683 13.0285 39.5536 13.0308 39.5392C13.0374 39.5032 13.0577 39.4711 13.0875 39.4498C13.1174 39.4286 13.1543 39.4199 13.1905 39.4255L13.6574 39.5053C13.6753 39.5083 13.6925 39.5149 13.7079 39.5245C13.7234 39.5342 13.7367 39.5468 13.7473 39.5616C13.7579 39.5764 13.7654 39.5932 13.7695 39.6109C13.7736 39.6287 13.7741 39.647 13.7711 39.665C13.7681 39.6829 13.7615 39.7001 13.7519 39.7155C13.7422 39.731 13.7296 39.7443 13.7148 39.7549C13.7 39.7655 13.6832 39.773 13.6655 39.7771C13.6477 39.7812 13.6294 39.7817 13.6114 39.7787L13.1445 39.6989C13.1159 39.6937 13.0895 39.6797 13.0692 39.6589C13.0488 39.6381 13.0354 39.6115 13.0308 39.5827Z" fill="#263238"/>
<path d="M12.7696 40.2312C12.7621 40.2007 12.7653 40.1685 12.7786 40.14C12.7919 40.1115 12.8146 40.0884 12.8428 40.0746C12.8711 40.0608 12.9032 40.057 12.9339 40.0639C12.9645 40.0709 12.9919 40.0881 13.0115 40.1127L13.3743 40.4828C13.3954 40.5101 13.4056 40.5443 13.403 40.5787C13.4005 40.6131 13.3853 40.6454 13.3605 40.6693C13.3356 40.6933 13.3028 40.7072 13.2684 40.7085C13.2339 40.7098 13.2001 40.6983 13.1736 40.6763L12.8131 40.3086C12.7903 40.2884 12.775 40.2612 12.7696 40.2312Z" fill="#263238"/>
<path d="M13.447 41.6733C13.4426 41.6396 13.4505 41.6055 13.4693 41.5772C13.4882 41.5489 13.5167 41.5284 13.5495 41.5195C13.5823 41.5106 13.6172 41.514 13.6478 41.5289C13.6783 41.5439 13.7024 41.5694 13.7155 41.6008C13.8221 41.8905 13.9432 42.1747 14.0784 42.4523C14.0992 42.4826 14.1073 42.5198 14.101 42.556C14.0946 42.5922 14.0744 42.6244 14.0445 42.6458C14.0298 42.6566 14.0131 42.6643 13.9953 42.6685C13.9776 42.6727 13.9592 42.6734 13.9412 42.6705C13.9232 42.6676 13.906 42.6611 13.8905 42.6515C13.875 42.6418 13.8616 42.6292 13.851 42.6144C13.7023 42.3181 13.5707 42.0136 13.4567 41.7024C13.4524 41.6931 13.4491 41.6834 13.447 41.6733Z" fill="#263238"/>
<path d="M16.4176 41.0614C16.4144 41.0433 16.4149 41.0248 16.419 41.0069C16.4232 40.989 16.431 40.9721 16.4418 40.9573C16.4636 40.9279 16.496 40.9081 16.5322 40.9022C16.5683 40.8963 16.6054 40.9048 16.6354 40.9259L17.1192 41.2767C17.134 41.2872 17.1466 41.3007 17.1563 41.3161C17.1659 41.3316 17.1724 41.3489 17.1753 41.3669C17.1782 41.3849 17.1775 41.4033 17.1733 41.421C17.1691 41.4387 17.1614 41.4555 17.1506 41.4702C17.1398 41.4851 17.1262 41.4978 17.1105 41.5074C17.0948 41.5171 17.0774 41.5236 17.0592 41.5265C17.041 41.5294 17.0224 41.5287 17.0044 41.5245C16.9865 41.5202 16.9696 41.5124 16.9547 41.5016L16.4709 41.1509C16.4421 41.1291 16.423 41.097 16.4176 41.0614Z" fill="#263238"/>
<path d="M15.5975 42.4329C15.5928 42.4098 15.5928 42.3859 15.5975 42.3628C15.611 42.3281 15.6377 42.3003 15.6717 42.2853C15.7057 42.2704 15.7442 42.2695 15.7789 42.2829L16.5191 42.5611L16.42 42.8224L15.6797 42.5418C15.6577 42.5323 15.6386 42.5173 15.6242 42.4982C15.6098 42.4791 15.6006 42.4566 15.5975 42.4329Z" fill="#263238"/>
</svg>
