<svg width="52" height="52" viewBox="0 0 52 52" fill="none" xmlns="http://www.w3.org/2000/svg">
<path d="M48.5785 48.8625C48.5785 48.877 38.5466 48.8895 26.1748 48.8895C13.803 48.8895 3.76904 48.8802 3.76904 48.8625C3.76904 48.8448 13.7988 48.8354 26.1748 48.8354C38.5508 48.8354 48.5785 48.8479 48.5785 48.8625Z" fill="#263238"/>
<path d="M20.1396 35.5099C20.1396 35.5099 17.1818 37.5192 17.0196 42.2096C16.9655 43.7831 17.7382 48.7928 17.7382 48.7928L35.0365 48.8625L31.8011 35.435L26.3588 34.187L20.1396 35.5099Z" fill="#FF725E"/>
<path d="M26.7478 38.9917L24.3911 48.8228L30.2817 48.8623L26.7478 38.9917Z" fill="#263238"/>
<path d="M26.6582 36.8633C26.6768 36.9694 26.6872 37.0769 26.6894 37.1846C26.7029 37.401 26.7196 37.6672 26.7383 37.9626C26.757 38.2579 26.7674 38.5418 26.7716 38.7405C26.7786 38.8483 26.7762 38.9565 26.7643 39.0639C26.7457 38.9578 26.7353 38.8503 26.7331 38.7426C26.7196 38.5273 26.7029 38.26 26.6842 37.9657C26.6655 37.6714 26.6551 37.3864 26.652 37.1867C26.6443 37.0789 26.6464 36.9707 26.6582 36.8633Z" fill="#263238"/>
<path d="M27.7252 37.9468C27.7252 37.952 27.6868 37.9603 27.6212 37.9967C27.5354 38.0482 27.4669 38.1243 27.4247 38.2151C27.392 38.2804 27.3767 38.353 27.3804 38.4258C27.384 38.4987 27.4064 38.5694 27.4455 38.6311C27.4901 38.7084 27.5572 38.7703 27.6378 38.8086C27.7184 38.8469 27.8087 38.8599 27.8968 38.8458C27.985 38.8317 28.0667 38.7913 28.1314 38.7297C28.196 38.6682 28.2404 38.5884 28.2588 38.5011C28.2771 38.4312 28.2772 38.3578 28.259 38.2878C28.2408 38.2179 28.2049 38.1538 28.1548 38.1017C28.0865 38.0284 27.9977 37.9773 27.9 37.9551C27.8313 37.9395 27.796 37.9437 27.7897 37.9385C27.7835 37.9333 27.8001 37.9385 27.8188 37.9322C27.8471 37.9282 27.8758 37.9282 27.9041 37.9322C28.0095 37.9476 28.107 37.9969 28.1818 38.0726C28.2346 38.1247 28.2751 38.188 28.3004 38.2577C28.3283 38.3395 28.3322 38.4276 28.3118 38.5115C28.2916 38.6089 28.2422 38.6977 28.1702 38.7663C28.0983 38.835 28.0071 38.8801 27.9089 38.8956C27.8107 38.9112 27.7101 38.8965 27.6205 38.8536C27.5308 38.8106 27.4564 38.7413 27.407 38.655C27.3617 38.5816 27.3382 38.4969 27.3394 38.4106C27.3424 38.3381 27.3612 38.2671 27.3945 38.2026C27.4422 38.1072 27.5195 38.0298 27.615 37.9821C27.6402 37.969 27.6672 37.9595 27.6951 37.9541C27.7148 37.9457 27.7242 37.9447 27.7252 37.9468Z" fill="#263238"/>
<path d="M29.6107 43.3141C29.6107 43.3141 29.5722 43.3286 29.5067 43.364C29.4212 43.4156 29.3531 43.4917 29.3112 43.5824C29.2785 43.6476 29.2632 43.7202 29.2669 43.7931C29.2705 43.866 29.293 43.9367 29.332 43.9984C29.3767 44.0756 29.4437 44.1375 29.5243 44.1759C29.6049 44.2142 29.6952 44.2272 29.7833 44.2131C29.8715 44.199 29.9532 44.1585 30.0179 44.097C30.0825 44.0354 30.1269 43.9557 30.1453 43.8684C30.1635 43.7985 30.1636 43.7251 30.1454 43.6551C30.1272 43.5852 30.0913 43.5211 30.0413 43.469C29.9733 43.3958 29.8849 43.3446 29.7875 43.3224C29.7178 43.3068 29.6773 43.3109 29.6773 43.3057C29.6864 43.3017 29.6964 43.2996 29.7064 43.2995C29.7344 43.296 29.7627 43.296 29.7906 43.2995C29.8964 43.3151 29.9943 43.3648 30.0693 43.4409C30.122 43.4925 30.1622 43.5555 30.1869 43.625C30.2158 43.7066 30.2198 43.7949 30.1983 43.8788C30.1789 43.9766 30.1299 44.066 30.0581 44.1352C29.9862 44.2043 29.8949 44.2497 29.7964 44.2653C29.698 44.281 29.5971 44.2661 29.5073 44.2226C29.4176 44.1792 29.3433 44.1093 29.2945 44.0223C29.2483 43.9493 29.2248 43.8643 29.2269 43.7779C29.2295 43.7053 29.2483 43.6342 29.2821 43.5699C29.3297 43.4744 29.4071 43.3971 29.5025 43.3494C29.5279 43.3366 29.5548 43.3271 29.5826 43.3213C29.5916 43.3176 29.6011 43.3152 29.6107 43.3141Z" fill="#263238"/>
<path d="M23.4947 39.416C23.4838 39.4325 23.4713 39.4479 23.4572 39.4618C23.4323 39.4909 23.3948 39.5335 23.3439 39.5866C23.198 39.7355 23.0423 39.8744 22.8779 40.0026C22.3305 40.4222 21.6991 40.7191 21.0267 40.8731C20.6576 40.9616 20.2769 40.9925 19.8983 40.9646C19.5861 40.942 19.2861 40.8341 19.031 40.6526C18.8606 40.5281 18.7238 40.3634 18.6327 40.1731C18.6098 40.1213 18.591 40.0677 18.5765 40.013C18.5706 39.9941 18.5675 39.9745 18.5671 39.9547C18.5723 39.9547 18.5879 40.0338 18.6524 40.1627C18.7479 40.3447 18.8856 40.5013 19.0539 40.6193C19.3052 40.7921 19.5982 40.8945 19.9025 40.9157C20.2761 40.9394 20.6512 40.9072 21.0153 40.82C21.6807 40.6675 22.3071 40.3785 22.8551 39.9714C23.0201 39.8475 23.1781 39.7146 23.3283 39.5731L23.4499 39.4555C23.478 39.4275 23.4926 39.416 23.4947 39.416Z" fill="#263238"/>
<path d="M23.4947 40.3896C23.4838 40.4062 23.4713 40.4215 23.4572 40.4354C23.4323 40.4645 23.3948 40.5082 23.3439 40.5613C22.7113 41.2036 21.9067 41.6496 21.0267 41.8456C20.6576 41.9345 20.277 41.9658 19.8983 41.9382C19.5862 41.9152 19.2863 41.8073 19.031 41.6262C18.8605 41.5024 18.7236 41.3379 18.6327 41.1478C18.6096 41.0957 18.5908 41.0418 18.5765 40.9866C18.5705 40.9678 18.5674 40.9481 18.5671 40.9284C18.5723 40.9284 18.5879 41.0074 18.6524 41.1364C18.7479 41.3187 18.8855 41.4756 19.0539 41.594C19.3053 41.7664 19.5983 41.8684 19.9025 41.8893C20.2761 41.9136 20.6513 41.8813 21.0153 41.7936C21.6804 41.641 22.3068 41.3524 22.8551 40.946C23.0202 40.8219 23.1782 40.6886 23.3283 40.5467L23.4499 40.4292C23.4632 40.4143 23.4783 40.401 23.4947 40.3896Z" fill="#263238"/>
<path d="M23.6475 40.0952C23.6512 40.1088 23.6537 40.1227 23.6548 40.1368C23.6548 40.167 23.6621 40.2086 23.6683 40.2606C23.6808 40.3729 23.6985 40.5331 23.7203 40.7379C23.764 41.1539 23.8472 41.7499 23.8846 42.4955C23.906 42.9023 23.8973 43.31 23.8586 43.7155C23.816 44.1825 23.7111 44.6418 23.5466 45.081C23.3653 45.5694 23.078 46.0117 22.7053 46.3758C22.5074 46.5673 22.285 46.7317 22.0438 46.8646C21.7943 47.0005 21.5247 47.0956 21.2451 47.1464C20.6876 47.237 20.116 47.1311 19.6279 46.8469C19.1728 46.589 18.7892 46.2215 18.512 45.7778C18.2676 45.3767 18.0918 44.9377 17.992 44.4788C17.9031 44.0798 17.855 43.6728 17.8485 43.2641C17.8463 42.6749 17.888 42.0864 17.9733 41.5034C18.0034 41.2954 18.0263 41.1394 18.0419 41.0281C18.0502 40.9761 18.0575 40.9355 18.0617 40.9043C18.0636 40.8902 18.0667 40.8763 18.071 40.8627C18.0724 40.8769 18.0724 40.8912 18.071 40.9054C18.071 40.9366 18.0627 40.9771 18.0565 41.0291C18.043 41.1415 18.0232 41.3016 17.9972 41.5055C17.9212 42.0881 17.8864 42.6755 17.8932 43.2631C17.902 43.6681 17.9514 44.0712 18.0409 44.4663C18.1423 44.9192 18.318 45.3521 18.5609 45.7476C18.8326 46.1842 19.209 46.546 19.656 46.8001C20.1334 47.078 20.6926 47.1813 21.2378 47.0923C21.5117 47.0435 21.7759 46.9504 22.0199 46.8167C22.2572 46.6865 22.4762 46.5253 22.671 46.3373C23.0389 45.9792 23.323 45.5441 23.503 45.0633C23.6665 44.6285 23.7714 44.1738 23.815 43.7113C23.8555 43.3081 23.8663 42.9024 23.8472 42.4976C23.815 41.754 23.7432 41.155 23.7006 40.74C23.6798 40.532 23.6662 40.3708 23.6579 40.2616C23.6579 40.2096 23.6517 40.168 23.6496 40.1368C23.6475 40.1056 23.6475 40.0952 23.6475 40.0952Z" fill="#263238"/>
<g opacity="0.2">
<path d="M18.2353 45.2466C18.4225 45.881 18.5026 46.0453 18.8531 46.5518C19.1767 47.0318 19.6503 47.3909 20.1999 47.5731C20.5927 47.7087 21.0137 47.7416 21.4229 47.6688C21.832 47.596 22.2158 47.4199 22.5378 47.1571C23.1732 46.6256 23.3979 45.8051 23.5081 45.2487C23.2315 45.621 22.9371 46.1503 22.5887 46.4571C22.2403 46.7639 21.7796 47.0323 21.3199 47.1123C20.6959 47.2163 19.9523 47.0291 19.4188 46.6901C18.8853 46.3511 18.5629 45.7437 18.2322 45.2476" fill="black"/>
</g>
<g opacity="0.2">
<path d="M18.6804 41.2124C18.799 41.4769 18.9802 41.7085 19.2083 41.8873C19.4364 42.0662 19.7046 42.1868 19.9898 42.2389C20.5524 42.3429 21.2815 42.165 21.633 41.6367C20.3954 42.0714 19.1651 42.0818 18.6804 41.2124Z" fill="black"/>
</g>
<path d="M28.8505 39.6783C28.824 39.6829 28.7969 39.6829 28.7704 39.6783C28.7 39.6686 28.6304 39.6533 28.5624 39.6326C28.0989 39.4951 27.7014 39.1934 27.4444 38.7839C27.4052 38.7227 27.3704 38.6587 27.3404 38.5926C27.3206 38.5447 27.3113 38.5187 27.3154 38.5166C27.3196 38.5146 27.3716 38.6144 27.4735 38.7631C27.6077 38.9549 27.7704 39.125 27.9561 39.2675C28.1431 39.4083 28.3508 39.5191 28.5717 39.5962C28.7413 39.6492 28.8515 39.669 28.8505 39.6783Z" fill="#263238"/>
<g opacity="0.2">
<path d="M27.4111 38.5845C27.5391 39.0192 28.0216 39.4248 28.4511 39.5673C28.5351 39.5986 28.6248 39.6117 28.7143 39.6058C28.759 39.6027 28.8024 39.5898 28.8416 39.5681C28.8808 39.5463 28.9147 39.5162 28.941 39.4799C29.0315 39.3416 28.9535 39.145 28.8203 39.0473C28.6787 38.9609 28.5208 38.9046 28.3565 38.8819C28.0247 38.805 27.7252 38.9724 27.4507 38.6937" fill="black"/>
</g>
<g opacity="0.2">
<path d="M18.2134 37.7792C18.9892 38.4572 20.0854 38.4864 21.0723 38.1952C22.0593 37.904 22.9194 37.3559 23.7576 36.7568C22.8435 36.9388 22.0635 37.3559 21.141 37.4921C20.2601 37.6221 19.3439 37.6356 18.4775 37.3413" fill="black"/>
</g>
<path d="M33.0917 48.196C33.0859 48.201 33.0792 48.2049 33.0719 48.2074C33.0521 48.2181 33.0316 48.2275 33.0106 48.2355C32.9297 48.2682 32.8446 48.2892 32.7579 48.2979C32.4361 48.3246 32.1152 48.2385 31.8499 48.0546C31.5047 47.8351 31.1906 47.4659 30.8547 47.0562C30.4943 46.6065 30.1705 46.1286 29.8864 45.6272C29.3709 44.715 28.9762 43.7396 28.7123 42.7256C28.6083 42.3366 28.5479 42.0184 28.5095 41.7969C28.4928 41.6929 28.4793 41.6045 28.4689 41.5421C28.4637 41.5125 28.4603 41.4826 28.4585 41.4526C28.4685 41.481 28.4758 41.5103 28.4803 41.54L28.5303 41.7927C28.575 42.0122 28.6447 42.3294 28.7487 42.7152C29.0227 43.7221 29.4206 44.6912 29.9332 45.6002C30.2164 46.0991 30.5376 46.5755 30.8942 47.025C31.2259 47.4347 31.5359 47.8039 31.8707 48.0223C32.1295 48.206 32.4432 48.2959 32.7599 48.2771C32.8737 48.2653 32.9853 48.238 33.0917 48.196Z" fill="#263238"/>
<g opacity="0.2">
<path d="M29.3518 44.3584C29.3518 44.3584 30.8868 46.2886 32.0069 46.7618C32.3865 46.923 32.8046 47.0541 33.0636 47.3744C33.1283 47.4477 33.1762 47.5343 33.2041 47.6281C33.2319 47.7218 33.239 47.8205 33.2248 47.9173C33.2204 47.9402 33.2135 47.9625 33.204 47.9838C33.0428 48.3946 32.268 48.3374 31.9133 48.0774C31.7584 47.9641 31.8499 48.0369 31.7251 47.9433C31.3663 47.6729 29.4454 45.4483 29.3518 44.3584Z" fill="black"/>
</g>
<path d="M22.5752 18.3063L23.5549 18.1118L28.4003 18.169L30.862 18.7098L31.8011 32.4565L20.9175 32.9651L22.5752 18.3063Z" fill="#E0E0E0"/>
<path d="M29.6232 31.8241L29.8551 25.5716L29.4692 18.3218C31.0001 18.7159 33.0936 19.1538 34.2532 20.4756C35.0052 21.3336 35.7425 22.4308 36.0212 24.1978C36.3416 26.2778 36.7638 30.2558 37.028 32.4814" fill="#FF725E"/>
<path d="M31.1625 30.799L23.6381 32.021L23.3718 27.3743L22.9558 18.188C20.7718 18.2774 18.2862 20.0818 17.5406 21.4879C17.0206 22.4634 16.5848 23.597 16.4486 24.6942C16.1875 26.7742 15.7455 30.3383 15.4814 32.5649C15.4015 33.2417 15.4733 33.9277 15.6917 34.5731C15.9101 35.2186 16.2695 35.8073 16.7439 36.2965C17.8359 37.4228 19.5457 37.8128 21.0828 37.4945L32.5394 34.2705L31.1625 30.799Z" fill="#FF725E"/>
<path d="M30.368 30.7157C30.3686 30.7068 30.3704 30.6981 30.3732 30.6897C30.3795 30.671 30.3867 30.646 30.3951 30.6148C30.4169 30.5451 30.446 30.4484 30.4845 30.3246C30.5656 30.0688 30.6811 29.7006 30.8246 29.2451L32.005 25.5594L32.0206 25.5916L30.8007 25.0872L30.7528 25.0674L30.7955 25.0394L31.0773 24.8542L31.9977 24.2531L31.9873 24.2822C31.5193 22.6578 31.1075 21.2246 30.8111 20.194C30.6665 19.6823 30.55 19.2705 30.4679 18.9834C30.4304 18.843 30.4003 18.7338 30.3784 18.6558C30.3694 18.6219 30.3621 18.5938 30.3566 18.5716C30.3532 18.5622 30.3511 18.5524 30.3503 18.5425C30.3503 18.5425 30.3503 18.5508 30.3607 18.5695L30.3878 18.6538C30.4117 18.7307 30.445 18.8389 30.4866 18.9782L30.8454 20.1836L32.0383 24.2677L32.0435 24.2864L32.0268 24.2978L31.1075 24.9L30.8256 25.0841V25.0362L32.0445 25.5427L32.0674 25.5521L32.0601 25.575C31.5796 27.0507 31.1605 28.3351 30.861 29.2555C30.7102 29.711 30.5906 30.0761 30.5063 30.3298C30.4647 30.4526 30.4315 30.5493 30.4086 30.6179C30.3982 30.6481 30.3888 30.672 30.3826 30.6918C30.3787 30.7003 30.3738 30.7083 30.368 30.7157Z" fill="#263238"/>
<g opacity="0.2">
<path d="M32.0318 24.2905C31.9704 24.5161 31.8376 24.7157 31.6532 24.8594C31.5097 24.9416 31.5919 25.0508 31.7104 25.1652C31.8529 25.3024 32.0817 25.3399 32.1868 25.5063C32.2918 25.6727 32.2325 25.863 32.1784 26.0377C31.6575 27.6954 31.0251 29.3159 30.2856 30.8883L32.0318 25.5666L30.814 25.0643L32.0318 24.2905Z" fill="black"/>
</g>
<path d="M23.012 30.8446C23.0069 30.8379 23.0027 30.8306 22.9995 30.8227C22.9923 30.8061 22.9819 30.7853 22.9704 30.7583L22.8581 30.5045C22.7603 30.2799 22.621 29.9564 22.4421 29.5529L21.0392 26.2644L21.0308 26.2457L21.0485 26.2332L22.0105 25.5447V25.5843L21.373 25.0788L21.0901 24.8563L20.9497 24.7523L20.9154 24.7242C20.9082 24.719 20.9015 24.7131 20.8956 24.7065C20.8889 24.6978 20.884 24.6879 20.8811 24.6774C20.8734 24.6464 20.8696 24.6146 20.8696 24.5827C20.876 24.35 20.8976 24.118 20.9341 23.888C20.9975 23.4377 21.0724 23.0051 21.1421 22.5932C21.2898 21.7706 21.4364 21.0332 21.5581 20.4092C21.6798 19.7852 21.789 19.2891 21.8628 18.9439C21.9003 18.7733 21.9304 18.6402 21.9512 18.5455L21.9752 18.4415C21.9769 18.4297 21.9804 18.4181 21.9855 18.4072C21.985 18.4195 21.9832 18.4317 21.9804 18.4436C21.9804 18.4696 21.9689 18.5039 21.9616 18.5476C21.9429 18.6426 21.9169 18.7757 21.8836 18.947C21.815 19.2964 21.7172 19.7977 21.5966 20.4155C21.476 21.0332 21.3345 21.7747 21.1889 22.5995C21.1172 23.0103 21.0433 23.4429 20.9809 23.8922C20.9451 24.1194 20.9239 24.3487 20.9175 24.5786C20.9172 24.6052 20.9203 24.6318 20.9268 24.6576C20.9268 24.6701 20.957 24.6888 20.9788 24.7075L21.1182 24.8178L21.4 25.0414L22.0365 25.5458L22.0646 25.5687L22.0355 25.5895L21.0724 26.2759L21.0807 26.2436L22.4754 29.5363C22.6449 29.9429 22.7801 30.2643 22.8737 30.4941C22.9184 30.6033 22.9538 30.6886 22.9777 30.751L23.0027 30.8175C23.0065 30.8263 23.0097 30.8353 23.012 30.8446Z" fill="#263238"/>
<path d="M32.1098 26.3323L24.5285 25.1627C24.3917 25.1416 24.2637 25.2354 24.2425 25.3722L22.6074 35.9713C22.5863 36.1081 22.6801 36.2361 22.8169 36.2572L30.3983 37.4268C30.5351 37.4479 30.6631 37.3541 30.6842 37.2173L32.3193 26.6182C32.3404 26.4814 32.2466 26.3534 32.1098 26.3323Z" fill="#FF725E"/>
<g opacity="0.2">
<path d="M32.1098 26.3323L24.5285 25.1627C24.3917 25.1416 24.2637 25.2354 24.2425 25.3722L22.6074 35.9713C22.5863 36.1081 22.6801 36.2361 22.8169 36.2572L30.3983 37.4268C30.5351 37.4479 30.6631 37.3541 30.6842 37.2173L32.3193 26.6182C32.3404 26.4814 32.2466 26.3534 32.1098 26.3323Z" fill="black"/>
</g>
<path d="M31.8704 26.5366L24.6951 25.4297L23.1018 35.7574L30.2771 36.8644L31.8704 26.5366Z" fill="#EBEBEB"/>
<path d="M29.7148 26.3676C29.6639 26.2104 29.5703 26.0705 29.4445 25.9634C29.3187 25.8564 29.1656 25.7864 29.0024 25.7612L29.0627 25.3192C29.0872 25.1591 29.0472 24.9959 28.9514 24.8652C28.8557 24.7346 28.7121 24.6473 28.552 24.6224C28.3918 24.5976 28.2282 24.6375 28.0974 24.7333C27.9665 24.829 27.879 24.9728 27.8542 25.1331L27.7835 25.5907L27.6296 25.5699C27.4681 25.5474 27.3036 25.5699 27.154 25.6349C27.0045 25.6998 26.8758 25.8047 26.782 25.938L26.6624 26.1044L29.7824 26.587L29.7148 26.3676ZM28.4252 25.5605C28.3609 25.5507 28.3009 25.522 28.253 25.4781C28.205 25.4342 28.1711 25.3771 28.1556 25.3139C28.1401 25.2508 28.1437 25.1845 28.1659 25.1233C28.1882 25.0622 28.228 25.0091 28.2804 24.9706C28.3329 24.9322 28.3956 24.9101 28.4605 24.9073C28.5255 24.9045 28.5898 24.921 28.6454 24.9548C28.701 24.9885 28.7453 25.038 28.7727 25.097C28.8002 25.1559 28.8095 25.2217 28.7996 25.286C28.786 25.3718 28.739 25.4489 28.6689 25.5003C28.5988 25.5517 28.5112 25.5734 28.4252 25.5605Z" fill="#263238"/>
<path d="M27.1263 27.3054C26.7984 27.2827 26.472 27.2417 26.1487 27.1827C25.823 27.1411 25.4998 27.0821 25.1804 27.0059C25.508 27.0286 25.834 27.0695 26.157 27.1286C26.483 27.1701 26.8066 27.2291 27.1263 27.3054Z" fill="#263238"/>
<path d="M26.0675 27.4783C25.9085 27.4817 25.7496 27.4664 25.5943 27.4325C25.4361 27.4172 25.2801 27.3841 25.1294 27.3337C25.2883 27.3315 25.447 27.3468 25.6026 27.3795C25.7608 27.3947 25.9167 27.4279 26.0675 27.4783Z" fill="#263238"/>
<path d="M30.4968 29.0982C30.4968 29.1128 29.28 28.937 27.7855 28.7072C26.2911 28.4774 25.0815 28.2766 25.0815 28.2621C25.0815 28.2475 26.2973 28.4222 27.7928 28.6531C29.2883 28.884 30.4989 29.0826 30.4968 29.0982Z" fill="#263238"/>
<path d="M30.4167 29.6143C30.4167 29.6288 29.201 29.4541 27.7055 29.2232C26.2099 28.9924 25.0015 28.7937 25.0015 28.7792C25.0015 28.7646 26.2172 28.9393 27.7127 29.1702C29.2083 29.4011 30.4188 29.5997 30.4167 29.6143Z" fill="#263238"/>
<path d="M30.3376 30.131C30.3376 30.1455 29.1208 29.9698 27.6264 29.7399C26.1319 29.5101 24.9224 29.3094 24.9224 29.2948C24.9224 29.2802 26.1392 29.455 27.6347 29.6858C29.1302 29.9167 30.3397 30.1154 30.3376 30.131Z" fill="#263238"/>
<path d="M30.2576 30.6472C30.2576 30.6617 29.0418 30.487 27.5463 30.2561C26.0508 30.0253 24.8423 29.8266 24.8423 29.811C24.8423 29.7954 26.058 29.9722 27.5536 30.2031C29.0491 30.434 30.2638 30.6326 30.2576 30.6472Z" fill="#263238"/>
<path d="M30.1775 31.1626C30.1775 31.1782 28.9617 31.0025 27.4662 30.7716C25.9707 30.5407 24.7622 30.3421 24.7622 30.3275C24.7622 30.3129 25.978 30.4877 27.4735 30.7185C28.969 30.9494 30.1806 31.1481 30.1775 31.1626Z" fill="#263238"/>
<path d="M30.0986 31.6799C30.0986 31.6945 28.8818 31.5197 27.3873 31.2889C25.8929 31.058 24.6833 30.8593 24.6833 30.8437C24.6833 30.8281 25.8991 31.0039 27.3946 31.2348C28.8902 31.4657 30.1007 31.6653 30.0986 31.6799Z" fill="#263238"/>
<path d="M27.3197 31.7276C27.2849 31.7294 27.25 31.7273 27.2157 31.7214C27.146 31.7141 27.0472 31.7016 26.9245 31.685C26.678 31.6517 26.3389 31.6028 25.9656 31.5456C25.5922 31.4884 25.2542 31.4323 25.0098 31.3896C24.8871 31.3688 24.7893 31.3501 24.7207 31.3366C24.685 31.3324 24.65 31.3233 24.6167 31.3095C24.6515 31.3072 24.6864 31.3093 24.7207 31.3158C24.7904 31.3231 24.8892 31.3355 25.0119 31.3522C25.2584 31.3844 25.5974 31.4343 25.9708 31.4915C26.3441 31.5487 26.6821 31.6049 26.9265 31.6475C27.0493 31.6683 27.147 31.6871 27.2157 31.7006C27.2514 31.7048 27.2864 31.7139 27.3197 31.7276Z" fill="#263238"/>
<path d="M30.9306 27.8451C30.7835 27.8496 30.6365 27.8359 30.4928 27.8045C30.3463 27.7912 30.202 27.7598 30.0632 27.7109C30.3567 27.7201 30.648 27.7652 30.9306 27.8451Z" fill="#263238"/>
<path d="M25.9146 32.6627C25.6772 32.6531 25.4408 32.6257 25.2074 32.5805C24.9714 32.5533 24.7377 32.5082 24.5085 32.4453C24.746 32.4548 24.9824 32.4823 25.2157 32.5275C25.4518 32.555 25.6854 32.6002 25.9146 32.6627Z" fill="#263238"/>
<path d="M25.8897 33.139C25.6481 33.1287 25.4075 33.1006 25.17 33.0548C24.9301 33.0276 24.6926 32.9817 24.4597 32.9175C24.701 32.9277 24.9412 32.9559 25.1784 33.0017C25.4187 33.0289 25.6565 33.0748 25.8897 33.139Z" fill="#263238"/>
<path d="M30.0038 33.2218C29.7734 33.2226 29.5443 33.1875 29.3247 33.1178C29.4401 33.1087 29.5561 33.1171 29.6689 33.1428C29.7841 33.1508 29.8972 33.1775 30.0038 33.2218Z" fill="#263238"/>
<path d="M29.9623 33.6475C29.7319 33.6483 29.5028 33.6132 29.2832 33.5435C29.5136 33.5427 29.7427 33.5778 29.9623 33.6475Z" fill="#263238"/>
<path d="M25.1575 33.5298C25.046 33.539 24.9337 33.531 24.8247 33.5059C24.7133 33.4976 24.6041 33.4713 24.5012 33.4279C24.6124 33.418 24.7244 33.4261 24.833 33.4518C24.9447 33.4598 25.0543 33.4862 25.1575 33.5298Z" fill="#263238"/>
<path d="M29.9102 34.1436C29.8268 34.1572 29.7414 34.1533 29.6596 34.1321C29.5752 34.1279 29.4926 34.1059 29.4172 34.0676C29.5005 34.0527 29.5861 34.0563 29.6679 34.078C29.7524 34.0823 29.835 34.1046 29.9102 34.1436Z" fill="#263238"/>
<path d="M24.2859 34.5333C24.3267 34.5297 24.3678 34.5297 24.4086 34.5333L24.7539 34.5437L25.9873 34.5926H26.0154L26.0092 34.6196C25.9783 34.7533 25.9018 34.8721 25.7928 34.9555C25.7351 35.0017 25.6677 35.0341 25.5957 35.0505C25.5237 35.0669 25.4488 35.0668 25.3768 35.0502C25.3 35.0324 25.2287 34.996 25.169 34.9444C25.1094 34.8927 25.0633 34.8273 25.0347 34.7538C25.0085 34.6748 25.0065 34.5898 25.0292 34.5097C25.0518 34.4296 25.0979 34.3581 25.1616 34.3045C25.2083 34.2623 25.2647 34.2323 25.3259 34.2171C25.3412 34.2132 25.3569 34.2108 25.3727 34.2099C25.3896 34.2078 25.4067 34.2078 25.4236 34.2099C25.435 34.2117 25.4458 34.2163 25.455 34.2231C25.4642 34.23 25.4717 34.239 25.4767 34.2494C25.4836 34.2673 25.4857 34.2866 25.4829 34.3055C25.4692 34.422 25.4306 34.5341 25.3696 34.6342C25.3102 34.73 25.232 34.8128 25.1397 34.8775C25.0497 34.945 24.9402 34.9815 24.8277 34.9815C24.7735 34.9777 24.7214 34.9589 24.6773 34.9271C24.6332 34.8953 24.5989 34.8519 24.5781 34.8016C24.5383 34.7101 24.531 34.6077 24.5573 34.5115C24.6189 34.3511 24.7189 34.2082 24.8485 34.0955L24.8766 34.0674V34.1069C24.8932 34.2504 24.8657 34.3955 24.7976 34.5229C24.7469 34.6192 24.676 34.7033 24.5896 34.7694C24.5358 34.8111 24.4758 34.8441 24.4117 34.8671C24.3897 34.8759 24.3666 34.8815 24.3431 34.8838C24.4276 34.8529 24.5066 34.8087 24.5771 34.7527C24.6573 34.6858 24.7228 34.6029 24.7695 34.5094C24.8321 34.3862 24.8556 34.2469 24.8371 34.11L24.8704 34.1204C24.7474 34.2308 24.6528 34.3692 24.5948 34.5239C24.5721 34.6101 24.5794 34.7015 24.6156 34.7829C24.6329 34.8247 24.6615 34.8609 24.6983 34.8874C24.735 34.9138 24.7784 34.9295 24.8236 34.9327C24.9229 34.9316 25.0192 34.8984 25.0981 34.838C25.1861 34.7765 25.26 34.6971 25.315 34.6049C25.37 34.5128 25.4049 34.4101 25.4174 34.3035C25.4197 34.2942 25.4197 34.2846 25.4174 34.2754C25.4174 34.2702 25.4174 34.2681 25.4028 34.266C25.3777 34.2646 25.3524 34.2671 25.328 34.2733C25.2755 34.2866 25.227 34.3123 25.1865 34.3482C25.1315 34.3951 25.0916 34.4573 25.0718 34.5269C25.052 34.5965 25.0532 34.6703 25.0752 34.7392C25.1003 34.8026 25.1399 34.8592 25.1908 34.9045C25.2418 34.9498 25.3026 34.9824 25.3685 34.9999C25.4344 35.0173 25.5035 35.0189 25.5702 35.0047C25.6368 34.9905 25.6992 34.9609 25.7523 34.9181C25.8529 34.8428 25.9239 34.7346 25.953 34.6123L25.9748 34.6404L24.7518 34.5687L24.4065 34.5458C24.3661 34.5441 24.3258 34.54 24.2859 34.5333Z" fill="#263238"/>
<path d="M29.4257 35.3084C29.4091 35.332 29.3892 35.353 29.3664 35.3708C29.3398 35.3936 29.31 35.4125 29.278 35.4269C29.2331 35.4468 29.1823 35.4494 29.1356 35.4342C29.1061 35.4251 29.0804 35.4065 29.0628 35.3812C29.0452 35.3537 29.0352 35.3222 29.0336 35.2897C29.0345 35.2232 29.0394 35.1569 29.0482 35.091C29.0617 34.9496 29.0773 34.7946 29.094 34.6272L29.1387 34.6449L28.7414 35.1825L28.6426 35.3157L28.5781 35.403L28.5937 35.299C28.6364 35.0213 28.6748 34.7624 28.7092 34.5346L28.7476 34.5554C28.5854 34.6921 28.4417 34.8495 28.3202 35.0234C28.2328 35.1493 28.1912 35.2314 28.186 35.2252C28.1911 35.2044 28.1992 35.1844 28.21 35.1659C28.2367 35.112 28.2662 35.0596 28.2984 35.0089C28.4125 34.8265 28.5526 34.6619 28.7144 34.5201L28.7612 34.4795L28.7518 34.5419C28.7206 34.7686 28.6832 35.0286 28.6478 35.3073L28.5989 35.2865L28.7029 35.1534C28.8444 34.9641 28.9785 34.7832 29.1033 34.6178L29.1584 34.5429L29.148 34.6355C29.1283 34.8029 29.1106 34.9579 29.094 35.0983C29.0842 35.162 29.078 35.2263 29.0752 35.2907C29.0736 35.3157 29.0799 35.3406 29.0934 35.3617C29.1069 35.3829 29.1267 35.3992 29.1501 35.4082C29.1861 35.4179 29.2238 35.4186 29.2601 35.4103C29.2964 35.402 29.33 35.3848 29.3581 35.3604C29.3792 35.3412 29.4018 35.3238 29.4257 35.3084Z" fill="#263238"/>
<path d="M29.6088 35.0252C29.2693 35.0504 28.9288 35.0577 28.5885 35.047C28.2485 35.0545 27.9083 35.0441 27.5693 35.0158C27.9084 34.9899 28.2486 34.9823 28.5885 34.9929C28.9289 34.9854 29.2695 34.9962 29.6088 35.0252Z" fill="#263238"/>
<path d="M29.9404 35.3486C29.6713 35.4046 29.399 35.4432 29.125 35.4641C28.8531 35.5024 28.579 35.5232 28.3044 35.5265C28.5732 35.469 28.8457 35.4301 29.1198 35.41C29.3916 35.3711 29.6658 35.3506 29.9404 35.3486Z" fill="#263238"/>
<g opacity="0.2">
<path d="M20.8967 24.6411C20.8842 24.9531 20.9685 25.2714 21.2285 25.4471C20.9029 25.6052 20.7293 25.9838 20.7189 26.3457C20.7085 26.7076 20.8343 27.0591 20.9705 27.395C21.3917 28.4278 22.2903 29.8817 22.9757 30.7615C22.9757 30.7615 22.6283 29.8255 22.5285 29.6061C22.0771 28.6191 21.6788 27.6301 21.2264 26.64C21.1765 26.536 21.087 26.2323 21.087 26.2323C21.1363 26.208 21.1818 26.1769 21.2222 26.1398C21.476 25.9318 22.0261 25.5667 22.0261 25.5667C22.0261 25.5667 20.8967 24.6723 20.8967 24.6411Z" fill="black"/>
</g>
<path d="M20.8811 26.7627C20.8956 26.7627 20.8696 27.9639 20.8218 29.4438C20.7739 30.9237 20.724 32.1239 20.7095 32.1229C20.6949 32.1218 20.7199 30.9227 20.7677 29.4417C20.8155 27.9608 20.8655 26.7617 20.8811 26.7627Z" fill="#263238"/>
<path d="M22.6719 23.6082H22.5679C22.5679 23.5687 22.7187 19.6344 22.8362 18.0681C22.84 17.9582 22.8663 17.8502 22.9133 17.7508C22.9603 17.6514 23.0272 17.5626 23.1097 17.4899C23.4342 17.2122 23.9199 17.2486 23.9417 17.2497L23.9334 17.3537C23.9282 17.3537 23.4696 17.3204 23.1784 17.5689C23.1064 17.6331 23.0483 17.7111 23.0073 17.7983C22.9664 17.8856 22.9436 17.9802 22.9402 18.0765C22.8258 19.6313 22.6771 23.5645 22.6719 23.6082Z" fill="#263238"/>
<path d="M23.6465 30.1895H23.4624V29.9815H23.6465C23.8396 29.9815 24.0247 29.9048 24.1613 29.7683C24.2978 29.6317 24.3745 29.4466 24.3745 29.2535V27.0508H24.5825V29.2535C24.5825 29.5017 24.4839 29.7398 24.3083 29.9154C24.1328 30.0909 23.8947 30.1895 23.6465 30.1895Z" fill="#455A64"/>
<path d="M23.7213 30.1102C23.7169 30.1542 23.6997 30.196 23.6716 30.2301C23.6436 30.2643 23.606 30.2894 23.5637 30.3023C23.5214 30.3151 23.4762 30.3152 23.4339 30.3023C23.3916 30.2895 23.354 30.2644 23.326 30.2303C23.2979 30.1961 23.2806 30.1544 23.2762 30.1103C23.2719 30.0663 23.2807 30.022 23.3015 29.983C23.3223 29.944 23.3543 29.9121 23.3933 29.8912C23.4322 29.8703 23.4765 29.8615 23.5206 29.8658C23.5795 29.8719 23.6336 29.9009 23.6712 29.9467C23.7088 29.9925 23.7268 30.0512 23.7213 30.1102Z" fill="#263238"/>
<path d="M21.8471 30.1841H21.6631C21.4148 30.1841 21.1767 30.0855 21.0012 29.91C20.8257 29.7344 20.7271 29.4964 20.7271 29.2481L20.7354 27.0454H20.9434L20.9351 29.2481C20.9351 29.4412 21.0118 29.6264 21.1483 29.7629C21.2848 29.8994 21.47 29.9761 21.6631 29.9761H21.8471V30.1841Z" fill="#455A64"/>
<path d="M21.5892 30.1042C21.5935 30.148 21.6107 30.1895 21.6385 30.2235C21.6664 30.2575 21.7037 30.2825 21.7458 30.2953C21.7879 30.3081 21.8328 30.3082 21.8749 30.2955C21.917 30.2828 21.9544 30.258 21.9824 30.224C22.0104 30.1901 22.0277 30.1487 22.0321 30.1049C22.0366 30.0612 22.0279 30.0171 22.0073 29.9782C21.9868 29.9394 21.9551 29.9075 21.9164 29.8866C21.8777 29.8657 21.8337 29.8567 21.7899 29.8608C21.7607 29.8636 21.7324 29.872 21.7065 29.8858C21.6806 29.8995 21.6576 29.9182 21.639 29.9408C21.6203 29.9634 21.6064 29.9895 21.5978 30.0175C21.5893 30.0456 21.5863 30.075 21.5892 30.1042Z" fill="#263238"/>
<path d="M20.674 27.2991L20.648 25.7287C20.6283 24.5317 21.5029 23.5447 22.598 23.525C22.8648 23.5226 23.129 23.5764 23.3736 23.6828C23.6181 23.7892 23.8376 23.9459 24.0176 24.1427C24.4003 24.5567 24.615 25.0984 24.6198 25.6622L24.6458 27.2336L24.3338 27.2388L24.3078 25.6674C24.304 25.1807 24.1186 24.713 23.7878 24.3559C23.638 24.1904 23.4547 24.0584 23.2502 23.9688C23.0457 23.8792 22.8245 23.8339 22.6012 23.8359C21.6776 23.8515 20.9372 24.6971 20.958 25.7225L20.984 27.2929L20.674 27.2991Z" fill="#263238"/>
<path d="M29.5578 23.6663C29.5578 23.6247 29.0805 19.5365 28.9432 18.2261L28.9338 18.1304C28.8912 17.6853 28.8413 17.1819 28.3494 17.0488L28.3764 16.9448C28.938 17.0967 28.9931 17.6624 29.0378 18.1169L29.0472 18.2115C29.1834 19.5219 29.6566 23.6102 29.6608 23.6518L29.5578 23.6663Z" fill="#263238"/>
<path d="M30.3992 23.7549C30.835 23.3191 30.835 22.6125 30.3992 22.1767C29.9634 21.741 29.2568 21.741 28.8211 22.1767C28.3853 22.6125 28.3853 23.3191 28.8211 23.7549C29.2569 24.1907 29.9634 24.1907 30.3992 23.7549Z" fill="#263238"/>
<path d="M30.1484 22.9655C30.1484 23.0723 30.1167 23.1767 30.0573 23.2655C29.998 23.3543 29.9136 23.4235 29.8149 23.4643C29.7162 23.5051 29.6077 23.5158 29.5029 23.4949C29.3982 23.4739 29.302 23.4224 29.2266 23.3468C29.1511 23.2712 29.0998 23.175 29.0791 23.0702C29.0584 22.9654 29.0692 22.8569 29.1102 22.7583C29.1512 22.6597 29.2206 22.5754 29.3095 22.5162C29.3984 22.4571 29.5028 22.4256 29.6096 22.4258C29.6805 22.4258 29.7506 22.4397 29.816 22.4669C29.8815 22.494 29.9409 22.5338 29.9909 22.5839C30.041 22.6341 30.0806 22.6936 30.1077 22.7591C30.1347 22.8245 30.1485 22.8947 30.1484 22.9655Z" fill="#455A64"/>
<path d="M23.012 30.8447L21.6111 34.2902L32.7859 37.3884C33.2967 37.5307 33.8328 37.5579 34.3554 37.468C34.8781 37.3781 35.3742 37.1733 35.8081 36.8684C36.9771 36.0437 37.2641 34.6012 37.1216 33.1733L36.9199 31.6549L23.012 30.8447Z" fill="#FF725E"/>
<path d="M34.8514 34.5842C34.84 34.5842 34.8161 34.3492 34.7006 33.9862C34.671 33.8871 34.6363 33.7895 34.5966 33.694C34.5571 33.59 34.502 33.486 34.4469 33.3695C34.3186 33.1287 34.1678 32.9006 33.9966 32.6883C33.8222 32.4786 33.6286 32.2857 33.4183 32.1121C33.3143 32.0362 33.2249 31.9603 33.1302 31.9041C33.0447 31.8452 32.9562 31.7907 32.8651 31.7408C32.5323 31.5568 32.3045 31.486 32.3086 31.4746C32.3631 31.4858 32.4164 31.5021 32.4678 31.5235C32.5299 31.5436 32.5906 31.5676 32.6498 31.5952C32.7194 31.6275 32.8006 31.6597 32.8838 31.7076C32.9772 31.7554 33.0678 31.8085 33.1552 31.8667C33.2519 31.9249 33.3476 32.0008 33.4495 32.0747C33.6646 32.2484 33.8621 32.4428 34.0392 32.655C34.2123 32.8703 34.3635 33.1023 34.4906 33.3476C34.5457 33.4631 34.5998 33.5712 34.6382 33.6784C34.6786 33.7754 34.7133 33.8747 34.7422 33.9758C34.7684 34.0584 34.7896 34.1424 34.8057 34.2275C34.8222 34.292 34.8337 34.3577 34.84 34.424C34.8487 34.477 34.8525 34.5306 34.8514 34.5842Z" fill="#263238"/>
<g opacity="0.2">
<path d="M21.3616 32.3107C20.5088 32.3814 19.8505 32.4594 18.9696 32.5676C18.4195 32.6352 17.8485 32.5967 17.6686 32.0736C17.4887 31.5505 17.6031 30.9514 17.8984 30.4824C18.1938 30.0134 18.6576 28.9224 21.1411 29.7544L21.3616 32.3107Z" fill="black"/>
</g>
<path d="M22.5117 32.1601L22.518 32.1372L22.5419 32.0685L22.6355 31.8065L22.9943 30.8382L22.9995 30.8247H23.013L26.8142 31.1689L30.4916 31.5184L31.6055 31.6297L31.9081 31.6629L31.9861 31.6733C31.9954 31.6736 32.0045 31.6754 32.0132 31.6785H31.9861H31.9071L31.6034 31.6557L30.4875 31.56L26.809 31.2272L23.0099 30.8663L23.0286 30.8538L22.6542 31.8169L22.5502 32.0748L22.5221 32.1413C22.5169 32.1538 22.5128 32.1611 22.5117 32.1601Z" fill="#263238"/>
<g opacity="0.2">
<path d="M27.1096 35.714C28.6967 36.1393 29.6618 35.8929 31.1032 35.1045C31.3985 34.9314 31.682 34.7389 31.9519 34.5284C32.1574 34.3603 32.3402 34.1663 32.4958 33.9512C30.6394 34.6615 29.0971 35.1992 27.1835 35.7337" fill="black"/>
</g>
<path d="M22.5169 32.1229L22.8799 31.1089L22.0365 29.7902C21.9634 29.6759 21.8678 29.5778 21.7555 29.5018C21.6432 29.4258 21.5166 29.3735 21.3833 29.3482L18.28 28.7627C18.2414 28.8789 18.2467 29.0052 18.295 29.1177C18.3433 29.2302 18.4312 29.3211 18.5421 29.3732C18.9487 29.6051 20.7781 30.0305 20.7781 30.0305L17.9607 29.9826C17.9607 29.9826 17.8733 30.3893 18.1926 30.5349C18.5119 30.6805 20.5191 30.7543 20.5191 30.7543L17.9493 31.1162C17.9493 31.1162 17.9347 31.5239 18.5223 31.5322C19.101 31.5253 19.6789 31.4889 20.2539 31.423C20.2777 31.4197 20.3018 31.4258 20.3213 31.4399C20.3407 31.4541 20.3538 31.4753 20.3579 31.4989C20.3614 31.5218 20.3562 31.5452 20.3433 31.5645C20.3304 31.5838 20.3107 31.5975 20.2882 31.6029L18.5795 32.0065C18.5303 32.0175 18.4861 32.0446 18.4538 32.0834C18.4216 32.1222 18.403 32.1706 18.4011 32.2211C18.3992 32.2715 18.4141 32.3211 18.4433 32.3623C18.4726 32.4034 18.5146 32.4337 18.5629 32.4485C18.5938 32.4559 18.6258 32.458 18.6575 32.4547C18.9487 32.4256 20.6876 32.2051 20.6876 32.2051L20.7781 32.4079L22.5169 32.125" fill="#B78876"/>
<path d="M21.2408 31.8099C21.2171 31.7538 21.1849 31.7019 21.1451 31.6559C21.0991 31.609 21.0429 31.5734 20.9808 31.5519C20.9041 31.5285 20.8236 31.5197 20.7437 31.5259C20.571 31.5384 20.415 31.5883 20.2985 31.6029C20.2357 31.6182 20.1701 31.6182 20.1072 31.6029C20.1677 31.5858 20.2292 31.5722 20.2913 31.5623C20.4382 31.5189 20.5885 31.4876 20.7405 31.4687C20.8279 31.4619 20.9157 31.4732 20.9985 31.502C21.0658 31.5281 21.1258 31.5702 21.1732 31.6247C21.1981 31.6482 21.2172 31.6771 21.2289 31.7093C21.2407 31.7414 21.2447 31.7759 21.2408 31.8099Z" fill="#AA6550"/>
<path d="M21.5218 31.0368C21.5166 31.0368 21.5135 31.0087 21.4906 30.964C21.4568 30.902 21.4054 30.8513 21.3429 30.8184C21.1859 30.7269 20.9207 30.757 20.6419 30.7758C20.3632 30.7945 20.1074 30.8361 19.9233 30.86C19.8245 30.8787 19.7243 30.8888 19.6238 30.8902C19.7191 30.858 19.8173 30.8353 19.9171 30.8226C20.1551 30.7758 20.3952 30.7411 20.6367 30.7186C20.7702 30.7064 20.9042 30.7012 21.0382 30.703C21.1511 30.7002 21.2627 30.7275 21.3616 30.782C21.4286 30.8207 21.4806 30.8808 21.5093 30.9526C21.5223 30.9786 21.5267 31.0081 21.5218 31.0368Z" fill="#AA6550"/>
<path d="M21.736 30.5878C21.7336 30.5053 21.7111 30.4246 21.6705 30.3527C21.6241 30.2775 21.5598 30.215 21.4833 30.1707C21.3863 30.12 21.2803 30.0889 21.1713 30.0792C20.9383 30.0574 20.7199 30.0792 20.5608 30.0667C20.4744 30.0666 20.3892 30.046 20.3123 30.0064C20.3123 29.9981 20.4079 30.0262 20.5629 30.0293C20.7179 30.0324 20.9331 30.0033 21.1775 30.0293C21.2938 30.0389 21.4065 30.0745 21.5072 30.1333C21.59 30.1837 21.6575 30.2556 21.7027 30.3413C21.7341 30.3979 21.7502 30.4617 21.7495 30.5264C21.7475 30.5649 21.736 30.5878 21.736 30.5878Z" fill="#AA6550"/>
<path d="M31.8103 30.5844C31.8105 30.5279 31.8157 30.4715 31.8259 30.4159C31.8394 30.3119 31.8654 30.1518 31.9018 29.9604C31.9736 29.5777 32.1005 29.0546 32.2346 28.4774C32.3533 27.9858 32.4439 27.4879 32.5061 26.986C32.5185 26.8893 32.5237 26.8019 32.531 26.725C32.5383 26.648 32.5425 26.5825 32.5445 26.5274C32.544 26.4709 32.5489 26.4145 32.5591 26.3589C32.5658 26.4151 32.5679 26.4718 32.5653 26.5284C32.5653 26.5825 32.5653 26.6501 32.5653 26.727C32.5653 26.804 32.5591 26.8924 32.5477 26.9891C32.4971 27.4947 32.4116 27.9961 32.2918 28.4898C32.1566 29.0681 32.0245 29.5881 31.9434 29.9687C31.9029 30.158 31.8706 30.313 31.8509 30.419C31.8419 30.4752 31.8283 30.5305 31.8103 30.5844Z" fill="#263238"/>
<path d="M32.8888 37.4071C32.8679 37.4067 32.8472 37.4032 32.8274 37.3967L32.6548 37.3582L32.0224 37.2022C31.4889 37.068 30.7536 36.8736 29.9424 36.6489C29.1312 36.4243 28.4043 36.209 27.8791 36.0478L27.2551 35.8544L27.0866 35.7982C27.0702 35.7927 27.0545 35.7853 27.0398 35.7764C27.0604 35.7778 27.0807 35.7819 27.1001 35.7888L27.2717 35.8346L27.8957 36.0124L29.9632 36.598L32.0318 37.1658L32.6558 37.3374L32.8264 37.3863C32.8478 37.391 32.8687 37.398 32.8888 37.4071Z" fill="#263238"/>
<path d="M22.1831 7.24157C22.4119 6.53541 23.584 5.89789 24.2267 5.52765C25.1887 4.97541 26.08 5.08565 26.6291 5.57757C27.6213 4.74557 28.9285 3.94477 30.1817 4.27237C31.4349 4.59997 32.4531 5.88333 32.2243 7.15941C32.0901 7.91133 31.5691 8.58525 31.6003 9.34341C31.6211 9.86341 31.8967 10.3335 32.1203 10.8056C32.3439 11.2778 32.5082 11.8269 32.3127 12.3095C32.1307 12.7577 31.6762 13.0375 31.4318 13.4535C31.2321 13.7946 31.1864 14.2002 31.0585 14.5736C30.5863 15.9568 28.9535 16.7326 27.5121 16.4892C26.0706 16.2459 24.8694 15.1612 24.1841 13.8674C23.4987 12.5736 23.2782 11.0885 23.1992 9.62941" fill="#263238"/>
<path d="M23.2449 8.21633L23.533 19.7499C23.637 21.0718 24.8548 22.0379 26.2692 21.9152C27.6971 21.7925 28.7881 20.61 28.7059 19.2726C28.6196 17.8696 28.5551 16.3897 28.5551 16.3897C28.5551 16.3897 30.3429 15.9737 30.5654 13.59C30.6788 12.3691 30.4812 10.366 30.2742 8.77897C30.2337 8.46256 30.1295 8.15764 29.968 7.88254C29.8065 7.60744 29.591 7.36785 29.3345 7.1782C29.078 6.98855 28.7858 6.85274 28.4755 6.77897C28.1651 6.70519 27.843 6.69496 27.5286 6.74889" fill="#B78876"/>
<path d="M29.7438 10.4833C29.7499 10.562 29.7249 10.6399 29.6741 10.7004C29.6234 10.7609 29.5509 10.799 29.4724 10.8067C29.4341 10.8124 29.3951 10.8104 29.3576 10.8007C29.3202 10.7911 29.2851 10.774 29.2543 10.7505C29.2236 10.7271 29.1979 10.6977 29.1787 10.6641C29.1595 10.6305 29.1473 10.5934 29.1427 10.555C29.1368 10.4762 29.1619 10.3983 29.2126 10.3377C29.2633 10.2772 29.3356 10.2387 29.4141 10.2305C29.4524 10.225 29.4915 10.2272 29.5289 10.2369C29.5664 10.2467 29.6015 10.2639 29.6322 10.2874C29.6629 10.311 29.6886 10.3404 29.7078 10.3741C29.727 10.4077 29.7392 10.4448 29.7438 10.4833Z" fill="#263238"/>
<path d="M30.0445 10.1756C30.0091 10.2172 29.7689 10.0622 29.4434 10.0841C29.1178 10.1059 28.8901 10.2838 28.8526 10.2463C28.8339 10.2297 28.8672 10.1569 28.966 10.0737C29.1008 9.96679 29.2654 9.90429 29.4371 9.8948C29.6061 9.88367 29.7743 9.92626 29.9176 10.0165C30.0226 10.0882 30.0611 10.1558 30.0445 10.1756Z" fill="#263238"/>
<path d="M26.6239 10.8099C26.6303 10.8888 26.6054 10.967 26.5546 11.0277C26.5039 11.0884 26.4313 11.1267 26.3525 11.1344C26.3142 11.1399 26.2751 11.1378 26.2377 11.128C26.2002 11.1182 26.1651 11.1011 26.1344 11.0775C26.1037 11.054 26.078 11.0245 26.0588 10.9909C26.0396 10.9572 26.0274 10.9201 26.0228 10.8817C26.017 10.8029 26.0421 10.725 26.0927 10.6644C26.1434 10.6038 26.2157 10.5654 26.2942 10.5572C26.3326 10.5516 26.3716 10.5538 26.409 10.5636C26.4465 10.5734 26.4816 10.5905 26.5123 10.6141C26.5431 10.6376 26.5688 10.6671 26.5879 10.7007C26.6071 10.7343 26.6193 10.7715 26.6239 10.8099Z" fill="#263238"/>
<path d="M26.8487 10.4427C26.8133 10.4843 26.5731 10.3293 26.2475 10.3512C25.922 10.373 25.6943 10.5509 25.6568 10.5134C25.6381 10.4968 25.6714 10.424 25.7712 10.3408C25.9057 10.2341 26.0699 10.1716 26.2413 10.1619C26.4103 10.1508 26.5785 10.1934 26.7218 10.2836C26.832 10.3543 26.8653 10.4229 26.8487 10.4427Z" fill="#263238"/>
<path d="M28.1839 12.7798C28.1839 12.7621 28.3805 12.7143 28.7039 12.6509C28.7861 12.6373 28.8641 12.6155 28.8745 12.5573C28.8759 12.471 28.8509 12.3865 28.8027 12.3149C28.7122 12.1184 28.6166 11.9135 28.5167 11.6982C28.1174 10.8184 27.822 10.0935 27.8574 10.0779C27.8927 10.0623 28.2453 10.7622 28.6457 11.6379C28.7414 11.8542 28.8339 12.0612 28.9213 12.2619C28.9807 12.3586 29.0036 12.4733 28.9858 12.5853C28.9756 12.6154 28.9587 12.6428 28.9364 12.6653C28.914 12.6878 28.8868 12.7049 28.8568 12.7153C28.8119 12.731 28.765 12.7405 28.7174 12.7434C28.3919 12.784 28.1839 12.7985 28.1839 12.7798Z" fill="#263238"/>
<path d="M28.5561 16.3856C27.4465 16.4743 26.334 16.2533 25.3425 15.7471C25.3425 15.7471 26.2359 17.3351 28.5821 16.9618L28.5561 16.3856Z" fill="#AA6550"/>
<path d="M26.8507 9.16162C26.8236 9.2521 26.496 9.2313 26.1175 9.30202C25.7389 9.37274 25.4363 9.4965 25.3801 9.42058C25.3552 9.38418 25.404 9.29682 25.5226 9.20322C25.681 9.086 25.8649 9.00795 26.0592 8.97546C26.2534 8.93968 26.4533 8.95001 26.6427 9.00562C26.7862 9.05346 26.8611 9.11898 26.8507 9.16162Z" fill="#263238"/>
<path d="M29.8635 9.24057C29.8115 9.31857 29.5817 9.25617 29.3123 9.26969C29.043 9.28321 28.8173 9.35185 28.7601 9.27801C28.7341 9.24161 28.7601 9.16569 28.8641 9.08873C28.9927 8.99624 29.1459 8.94409 29.3043 8.9389C29.4626 8.93372 29.6189 8.97574 29.7533 9.05961C29.8479 9.12929 29.8864 9.20313 29.8635 9.24057Z" fill="#263238"/>
<path d="M27.6806 13.3922C27.9354 13.3922 28.0623 13.4671 28.2786 13.6002C28.3438 13.6345 28.3974 13.6874 28.4326 13.7521C28.4492 13.7985 28.455 13.8482 28.4494 13.8972C28.4438 13.9463 28.427 13.9934 28.4003 14.0349C28.3472 14.1294 28.2681 14.2067 28.1725 14.2577C28.0769 14.3088 27.9686 14.3314 27.8606 14.323C27.7529 14.3117 27.6514 14.267 27.5703 14.1953C27.4892 14.1235 27.4325 14.0282 27.4082 13.9226C27.388 13.8162 27.4039 13.7061 27.4532 13.6097C27.5025 13.5133 27.5826 13.436 27.6806 13.3901" fill="#AA6550"/>
<path d="M28.5448 13.9364C28.5448 13.9613 28.4637 13.9988 28.3212 13.9904C28.141 13.9737 27.9669 13.9169 27.8116 13.824C27.655 13.7369 27.5163 13.6208 27.4029 13.4819C27.3186 13.3779 27.2926 13.2864 27.3145 13.2739C27.3571 13.2458 27.5714 13.4704 27.9083 13.6556C28.0477 13.736 28.1943 13.8032 28.3462 13.8563C28.4626 13.8958 28.5417 13.9093 28.5448 13.9364Z" fill="#263238"/>
<path d="M26.9379 11.906C26.9856 11.906 27.0242 11.8674 27.0242 11.8197C27.0242 11.772 26.9856 11.7334 26.9379 11.7334C26.8902 11.7334 26.8516 11.772 26.8516 11.8197C26.8516 11.8674 26.8902 11.906 26.9379 11.906Z" fill="#AA6550"/>
<path d="M29.4683 11.3964C29.4683 11.4135 29.4632 11.4301 29.4537 11.4443C29.4443 11.4585 29.4308 11.4696 29.415 11.4761C29.3992 11.4827 29.3819 11.4844 29.3651 11.481C29.3484 11.4777 29.333 11.4695 29.3209 11.4574C29.3089 11.4453 29.3006 11.43 29.2973 11.4132C29.294 11.3965 29.2957 11.3791 29.3022 11.3633C29.3088 11.3476 29.3198 11.3341 29.334 11.3246C29.3482 11.3151 29.3649 11.3101 29.382 11.3101C29.4049 11.3101 29.4268 11.3192 29.443 11.3353C29.4592 11.3515 29.4683 11.3735 29.4683 11.3964Z" fill="#AA6550"/>
<path d="M29.9457 11.6213C29.947 11.6335 29.9458 11.6458 29.942 11.6575C29.9383 11.6692 29.9321 11.68 29.9239 11.6891C29.9157 11.6983 29.9057 11.7056 29.8945 11.7106C29.8833 11.7156 29.8711 11.7182 29.8588 11.7182C29.8466 11.7182 29.8344 11.7156 29.8232 11.7106C29.812 11.7056 29.802 11.6983 29.7938 11.6891C29.7856 11.68 29.7794 11.6692 29.7757 11.6575C29.7719 11.6458 29.7707 11.6335 29.772 11.6213C29.7743 11.5999 29.7845 11.5801 29.8005 11.5658C29.8166 11.5514 29.8373 11.5435 29.8588 11.5435C29.8804 11.5435 29.9011 11.5514 29.9172 11.5658C29.9332 11.5801 29.9433 11.5999 29.9457 11.6213Z" fill="#AA6550"/>
<path d="M30.0901 11.2601C30.0901 11.2772 30.0851 11.2939 30.0756 11.3081C30.0661 11.3223 30.0526 11.3334 30.0368 11.3399C30.0211 11.3464 30.0037 11.3481 29.987 11.3448C29.9702 11.3415 29.9548 11.3333 29.9428 11.3212C29.9307 11.3091 29.9225 11.2937 29.9191 11.277C29.9158 11.2602 29.9175 11.2429 29.9241 11.2271C29.9306 11.2113 29.9416 11.1979 29.9558 11.1884C29.97 11.1789 29.9867 11.1738 30.0038 11.1738C30.0267 11.1738 30.0486 11.1829 30.0648 11.1991C30.081 11.2153 30.0901 11.2373 30.0901 11.2601Z" fill="#AA6550"/>
<path d="M26.6291 12.2016C26.6293 12.2189 26.6243 12.2359 26.6148 12.2504C26.6054 12.2649 26.5918 12.2762 26.5759 12.283C26.5599 12.2898 26.5423 12.2917 26.5253 12.2884C26.5083 12.2851 26.4926 12.2769 26.4803 12.2647C26.468 12.2526 26.4596 12.237 26.4561 12.22C26.4526 12.203 26.4543 12.1854 26.4609 12.1694C26.4675 12.1534 26.4787 12.1397 26.4931 12.13C26.5074 12.1204 26.5244 12.1152 26.5417 12.1152C26.5647 12.1152 26.5868 12.1243 26.6031 12.1405C26.6195 12.1566 26.6288 12.1786 26.6291 12.2016Z" fill="#AA6550"/>
<path d="M26.3047 11.8563C26.3047 11.8734 26.2997 11.8901 26.2902 11.9043C26.2807 11.9185 26.2672 11.9296 26.2514 11.9361C26.2357 11.9426 26.2183 11.9443 26.2016 11.941C26.1848 11.9377 26.1694 11.9294 26.1574 11.9174C26.1453 11.9053 26.1371 11.8899 26.1337 11.8732C26.1304 11.8564 26.1321 11.8391 26.1387 11.8233C26.1452 11.8075 26.1562 11.7941 26.1704 11.7846C26.1846 11.7751 26.2013 11.77 26.2184 11.77C26.2413 11.77 26.2633 11.7791 26.2794 11.7953C26.2956 11.8115 26.3047 11.8334 26.3047 11.8563Z" fill="#AA6550"/>
<path d="M27.7189 10.8102C27.7093 10.6876 27.6902 10.5659 27.6617 10.4462C27.5762 10.1209 27.3835 9.83402 27.1147 9.63186C26.9312 9.49249 26.7174 9.39842 26.4907 9.3573C26.2309 9.30975 25.963 9.33237 25.7149 9.42282C25.5811 9.47055 25.4555 9.5386 25.3425 9.62458C25.2229 9.71162 25.1176 9.8169 25.0305 9.93658C24.8448 10.1894 24.7446 10.4949 24.7446 10.8086C24.7446 11.1223 24.8448 11.4279 25.0305 11.6807C25.2028 11.9172 25.4408 12.098 25.7149 12.2007C25.963 12.2911 26.2309 12.3137 26.4907 12.2662C26.7174 12.2251 26.9312 12.131 27.1147 11.9916C27.3832 11.7896 27.5758 11.5032 27.6617 11.1783C27.69 11.0586 27.7091 10.9369 27.7189 10.8143C27.7205 10.8222 27.7205 10.8304 27.7189 10.8383V10.91C27.7189 10.949 27.7158 10.988 27.7096 11.0265C27.7043 11.0792 27.6949 11.1313 27.6815 11.1825C27.6487 11.3253 27.594 11.4621 27.5193 11.5881C27.3407 11.8938 27.0605 12.1272 26.7276 12.2477C26.3947 12.3682 26.03 12.3681 25.6972 12.2475C25.5584 12.1981 25.428 12.128 25.3103 12.0395C25.1858 11.9498 25.0765 11.8405 24.9869 11.716C24.7931 11.4547 24.6885 11.1381 24.6885 10.8128C24.6885 10.4875 24.7931 10.1708 24.9869 9.90954C25.0765 9.78501 25.1858 9.67579 25.3103 9.5861C25.428 9.4976 25.5584 9.42747 25.6972 9.3781C25.9537 9.28605 26.2303 9.2645 26.498 9.3157C26.7096 9.35672 26.9102 9.44228 27.0863 9.56672C27.2623 9.69116 27.4099 9.85162 27.5193 10.0375C27.5938 10.1635 27.6485 10.3003 27.6815 10.4431C27.695 10.4946 27.7044 10.5471 27.7096 10.6001C27.7158 10.6383 27.7189 10.6769 27.7189 10.7155V10.7873C27.7203 10.7949 27.7203 10.8026 27.7189 10.8102Z" fill="white"/>
<path d="M28.3711 10.3556C28.2553 10.3237 28.1354 10.3097 28.0154 10.314C27.8971 10.3354 27.7825 10.3739 27.6753 10.4284C27.6753 10.4284 27.6971 10.3889 27.7554 10.3493C27.8318 10.3 27.9187 10.2694 28.0091 10.2599C28.1001 10.2496 28.1922 10.2617 28.2775 10.2953C28.3419 10.3213 28.3742 10.3493 28.3711 10.3556Z" fill="white"/>
<path d="M27.4205 6.41194C27.2125 8.29122 25.8147 9.9833 24.0113 10.5532C24.5927 11.3915 24.2266 12.9868 24.2412 14.318C24.2557 15.5556 24.2547 15.9092 23.4529 16.5405C22.7904 16.6996 22.4129 14.8848 21.9157 14.3773C21.4186 13.8698 20.9517 13.2447 20.9881 12.5396C21.0057 12.2089 21.1347 11.8927 21.1524 11.5631C21.1732 11.197 21.0557 10.8351 20.9912 10.4783C20.7041 8.88194 21.5278 7.1649 22.9225 6.32978C24.3171 5.49466 26.1693 5.55082 27.5494 6.40466" fill="#263238"/>
<path d="M23.4406 14.1382C23.2677 13.5311 22.9706 12.9666 22.568 12.4804L22.5982 12.5449C22.4738 12.2613 22.2866 12.0097 22.0506 11.8091C21.8146 11.6086 21.5361 11.4644 21.2361 11.3874C20.9362 11.3104 20.6226 11.3026 20.3192 11.3647C20.0158 11.4268 19.7305 11.5571 19.4849 11.7457C19.2393 11.9344 19.0399 12.1764 18.9017 12.4535C18.7634 12.7307 18.6901 13.0356 18.6871 13.3453C18.6842 13.655 18.7517 13.9612 18.8846 14.241C19.0175 14.5207 19.2123 14.7665 19.4543 14.9598C19.2203 14.9078 18.9831 15.1095 18.9343 15.3435C18.9161 15.4626 18.9224 15.584 18.9526 15.7006C18.9828 15.8172 19.0363 15.9264 19.11 16.0216C19.5978 16.7351 20.7033 16.9233 21.398 16.4116C21.9492 16.785 22.7635 16.5676 23.1723 16.0424C23.581 15.5172 23.6288 14.7767 23.4406 14.1382Z" fill="#263238"/>
<path d="M21.2076 11.3851C21.1859 11.3647 21.1661 11.3424 21.1483 11.3185C21.0999 11.2489 21.0646 11.171 21.0443 11.0887C20.9809 10.8734 21.011 10.5333 21.1816 10.1735C21.2743 9.97648 21.4018 9.79785 21.5581 9.64621C21.7292 9.46625 21.9188 9.30485 22.1238 9.1647C22.3506 9.00844 22.5981 8.88453 22.8591 8.79654C23.1285 8.70398 23.4145 8.63222 23.7057 8.55942C23.9969 8.48662 24.2818 8.41486 24.5481 8.32126C24.8047 8.2328 25.0541 8.1243 25.2937 7.99677C25.6992 7.78092 26.0761 7.51541 26.4159 7.20638C26.6449 6.99698 26.8564 6.76915 27.0482 6.52518C27.1169 6.43886 27.1668 6.36918 27.2011 6.31718C27.2173 6.29265 27.2358 6.26967 27.2562 6.24854C27.2427 6.27452 27.2274 6.29954 27.2105 6.32341C27.1782 6.37229 27.1314 6.44405 27.0649 6.53141C26.8784 6.78207 26.6695 7.01529 26.4409 7.22821C26.1007 7.54386 25.7219 7.81504 25.3135 8.03526C25.0719 8.16471 24.8205 8.27495 24.5616 8.36494C24.2922 8.45957 24.0062 8.53238 23.715 8.60622C23.4238 8.68005 23.1389 8.74974 22.8716 8.84021C22.6137 8.92601 22.3687 9.04674 22.1436 9.19901C21.941 9.33714 21.7528 9.49532 21.582 9.67117C21.4298 9.82156 21.3058 9.99804 21.2159 10.1922C21.0443 10.5427 21.0079 10.8745 21.0651 11.0856C21.0916 11.1941 21.1401 11.2961 21.2076 11.3851Z" fill="#455A64"/>
<path d="M27.2541 6.25391C27.2392 6.27476 27.2229 6.29457 27.2053 6.31319C27.172 6.35167 27.121 6.40575 27.0555 6.47543C26.8669 6.66955 26.6664 6.85189 26.4554 7.02143C26.1433 7.27798 25.7959 7.48815 25.4237 7.64543C25.2003 7.72799 24.9699 7.79029 24.7353 7.83159C24.4929 7.88047 24.2402 7.91791 23.9823 7.95743C23.4964 8.01551 23.0165 8.11608 22.5481 8.25799C22.1681 8.38202 21.8152 8.57719 21.5081 8.83311C21.3017 9.00618 21.1314 9.21822 21.0069 9.45711C20.9744 9.52273 20.9456 9.59009 20.9205 9.65887C20.9132 9.6835 20.9031 9.70722 20.8904 9.72959C20.8952 9.70454 20.9018 9.67987 20.9101 9.65575C20.9309 9.58456 20.957 9.51503 20.9881 9.44775C21.1071 9.2017 21.2757 8.98289 21.4832 8.80503C21.7905 8.54134 22.1462 8.33999 22.5305 8.21223C23.0006 8.06533 23.4831 7.96091 23.9719 7.90023C24.2309 7.86175 24.4825 7.82327 24.7228 7.77647C24.9547 7.7363 25.1827 7.67575 25.404 7.59551C25.7725 7.44238 26.1177 7.23828 26.4294 6.98919C26.6422 6.82374 26.846 6.64704 27.0399 6.45983L27.1969 6.30591C27.2142 6.28669 27.2334 6.26927 27.2541 6.25391Z" fill="#455A64"/>
<path d="M29.8948 4.19664C29.8948 4.20808 29.692 4.21536 29.3748 4.30064C29.2888 4.32303 29.2041 4.35011 29.121 4.38176C29.0305 4.41192 28.939 4.45664 28.8402 4.50032C28.4196 4.70344 28.0494 4.99759 27.7565 5.36144C27.6921 5.44776 27.6276 5.5268 27.5777 5.60896C27.5279 5.6822 27.4824 5.75825 27.4414 5.83672C27.2885 6.12376 27.2334 6.32136 27.2251 6.3172C27.232 6.27033 27.2439 6.22431 27.2605 6.17992C27.2754 6.12597 27.2942 6.07315 27.3166 6.02184C27.343 5.95077 27.3736 5.88131 27.4081 5.81384C27.4469 5.73268 27.4911 5.65416 27.5402 5.5788C27.5891 5.4956 27.6525 5.41344 27.717 5.32504C27.8658 5.14063 28.0335 4.97227 28.2173 4.82272C28.4042 4.67756 28.606 4.55275 28.8194 4.4504C28.9128 4.4065 29.0087 4.36795 29.1065 4.33496C29.2612 4.28068 29.4207 4.24099 29.5828 4.2164C29.6377 4.20576 29.6933 4.19915 29.7492 4.19664C29.7975 4.19096 29.8464 4.19096 29.8948 4.19664Z" fill="#455A64"/>
<path d="M31.5702 13.1761C31.5702 13.1761 31.5702 13.1689 31.5858 13.1553L31.6347 13.0981C31.6784 13.0472 31.7439 12.9733 31.8178 12.8704C31.9107 12.7491 31.9812 12.612 32.0258 12.4658C32.0511 12.3749 32.0585 12.2799 32.0476 12.1861C32.0329 12.0814 31.9975 11.9806 31.9436 11.8897C31.8313 11.6952 31.6472 11.5257 31.4787 11.3156C31.0999 10.8415 30.8566 10.2737 30.7746 9.67239C30.7412 9.33547 30.7328 8.99654 30.7497 8.65839C30.7664 8.32322 30.7353 7.98739 30.6571 7.66103C30.574 7.3764 30.4302 7.11318 30.2356 6.88947C30.0409 6.66577 29.8001 6.4869 29.5298 6.36519C29.3056 6.26469 29.0639 6.20888 28.8184 6.20087C28.3614 6.18242 27.9111 6.3151 27.5371 6.57839L27.4747 6.62207C27.4612 6.63143 27.4539 6.63663 27.4529 6.63559C27.5501 6.54595 27.6589 6.4697 27.7763 6.40887C28.0956 6.23752 28.4541 6.15256 28.8163 6.16239C29.0671 6.16856 29.3144 6.2233 29.5443 6.32359C29.8225 6.44644 30.0705 6.62858 30.271 6.85725C30.4715 7.08593 30.6196 7.35563 30.705 7.64751C30.7845 7.97859 30.8164 8.31934 30.7996 8.65943C30.7828 8.99513 30.7908 9.33162 30.8235 9.66615C30.9026 10.2588 31.1405 10.819 31.512 11.2875C31.6763 11.4955 31.8614 11.6681 31.9758 11.8709C32.0313 11.9668 32.0666 12.073 32.0798 12.1829C32.0902 12.2812 32.081 12.3805 32.0528 12.4752C32.0049 12.624 31.9298 12.7626 31.8313 12.8839C31.7718 12.9617 31.7079 13.036 31.6399 13.1065L31.5858 13.1605C31.5813 13.1664 31.5761 13.1716 31.5702 13.1761Z" fill="#455A64"/>
<path d="M31.3289 10.4427C31.3192 10.3201 31.3001 10.1984 31.2717 10.0787C31.1862 9.75347 30.9935 9.46656 30.7247 9.26441C30.5272 9.11584 30.2956 9.01899 30.0512 8.98266C29.8067 8.94633 29.557 8.97168 29.3248 9.05641C29.0508 9.15905 28.8128 9.33985 28.6405 9.57641C28.4547 9.82898 28.3544 10.1343 28.3544 10.4479C28.3544 10.7615 28.4547 11.0669 28.6405 11.3194C28.7271 11.4396 28.8324 11.5449 28.9525 11.6314C29.0658 11.7167 29.1913 11.7844 29.3248 11.8322C29.5194 11.9028 29.7265 11.9321 29.933 11.9182C30.1395 11.9042 30.3409 11.8473 30.5241 11.7511C30.7074 11.6548 30.8685 11.5214 30.9972 11.3594C31.126 11.1973 31.2195 11.0101 31.2717 10.8098C31.3001 10.6902 31.3192 10.5685 31.3289 10.4458C31.3305 10.4541 31.3305 10.4626 31.3289 10.4708C31.3289 10.4895 31.3289 10.5134 31.3289 10.5415C31.3289 10.5805 31.3258 10.6195 31.3196 10.658C31.3142 10.711 31.3048 10.7635 31.2915 10.815C31.2585 10.9578 31.2038 11.0946 31.1292 11.2206C31.0309 11.3883 30.9013 11.5355 30.7476 11.6543C30.5458 11.8099 30.308 11.9121 30.0562 11.9514C29.8044 11.9907 29.5468 11.9657 29.3072 11.879C29.1682 11.8301 29.0377 11.76 28.9203 11.671C28.796 11.5806 28.6869 11.471 28.5968 11.3465C28.403 11.0854 28.2983 10.7689 28.2983 10.4438C28.2983 10.1186 28.403 9.8021 28.5968 9.54105C28.6865 9.41652 28.7958 9.3073 28.9203 9.21761C29.038 9.12911 29.1684 9.05898 29.3072 9.00961C29.5636 8.91725 29.8402 8.89535 30.108 8.94617C30.3203 8.98764 30.5212 9.07406 30.6974 9.19963C30.8735 9.32519 31.0208 9.48699 31.1292 9.67417C31.2039 9.79981 31.2587 9.93629 31.2915 10.0787C31.3048 10.1303 31.3142 10.1828 31.3196 10.2358C31.3258 10.2743 31.3289 10.3132 31.3289 10.3522C31.3289 10.3803 31.3289 10.4042 31.3289 10.424C31.3299 10.4302 31.3299 10.4365 31.3289 10.4427Z" fill="white"/>
<path d="M23.4383 16.5787C23.4199 16.5696 23.4027 16.5581 23.3873 16.5444C23.3551 16.5205 23.3093 16.4841 23.249 16.4404C23.0809 16.3057 22.9231 16.1587 22.7769 16.0005C22.5512 15.767 22.3968 15.4741 22.3317 15.156C22.3102 14.9682 22.3018 14.7792 22.3068 14.5902C22.3103 14.3923 22.2538 14.1979 22.1445 14.0328C22.0221 13.8742 21.8861 13.7267 21.7379 13.5918C21.6005 13.4588 21.4872 13.3029 21.403 13.1311C21.3285 12.9757 21.274 12.8115 21.2408 12.6423C21.2095 12.4957 21.1952 12.346 21.1981 12.1962C21.1981 12.0578 21.2304 11.9372 21.2429 11.8311C21.255 11.7405 21.2571 11.6487 21.2491 11.5576C21.2314 11.4078 21.2023 11.3278 21.2075 11.3257C21.2171 11.3439 21.2247 11.3631 21.2304 11.3829C21.2477 11.439 21.2609 11.4964 21.2699 11.5545C21.2811 11.6474 21.2811 11.7413 21.2699 11.8342C21.2605 11.9382 21.2356 12.063 21.2325 12.1972C21.234 12.5128 21.305 12.8242 21.4405 13.1093C21.5232 13.2754 21.634 13.426 21.7681 13.5544C21.92 13.6905 22.0592 13.8402 22.1841 14.0016C22.2445 14.0885 22.2892 14.1853 22.3161 14.2876C22.34 14.3861 22.3529 14.4869 22.3546 14.5882C22.3495 14.7749 22.3568 14.9619 22.3765 15.1477C22.4368 15.4592 22.5835 15.7475 22.7997 15.9797C22.9425 16.1391 23.0958 16.2888 23.2584 16.4279L23.3998 16.5361C23.414 16.549 23.4269 16.5633 23.4383 16.5787Z" fill="#455A64"/>
<path d="M22.2559 14.1567C22.2578 14.1709 22.2578 14.1852 22.2559 14.1994C22.2559 14.2275 22.2559 14.268 22.2476 14.3211C22.23 14.4705 22.1951 14.6175 22.1436 14.7589C21.9793 15.2336 21.653 15.6352 21.2221 15.8933C20.7911 16.1514 20.283 16.2494 19.787 16.1702C19.6384 16.1477 19.4929 16.1083 19.3533 16.0527C19.3034 16.0339 19.267 16.0131 19.242 16.0017C19.2171 15.9903 19.2046 15.9819 19.2056 15.9799C19.3956 16.05 19.5921 16.1012 19.7922 16.1327C20.0096 16.1608 20.23 16.157 20.4463 16.1213C20.9821 16.0392 21.4644 15.7506 21.79 15.3174C21.9234 15.1436 22.0306 14.9512 22.1083 14.7464C22.1761 14.555 22.2255 14.3575 22.2559 14.1567Z" fill="#455A64"/>
<path d="M21.8555 13.668C21.8511 13.7165 21.841 13.7643 21.8253 13.8104C21.7884 13.938 21.7393 14.0616 21.6787 14.1796C21.4763 14.5716 21.1696 14.9002 20.7926 15.1292C20.4146 15.3556 19.985 15.4816 19.5446 15.4952C19.4122 15.4993 19.2796 15.4923 19.1483 15.4744C19.0999 15.4701 19.0521 15.4603 19.0059 15.4453C19.1848 15.4582 19.3642 15.462 19.5435 15.4568C19.9752 15.4329 20.3946 15.3044 20.7655 15.0824C21.1344 14.8576 21.4378 14.5398 21.6454 14.1609C21.7261 14.0014 21.7963 13.8367 21.8555 13.668Z" fill="#455A64"/>
<path d="M18.8135 12.6319C18.842 12.6097 18.8735 12.5915 18.9071 12.5779C18.9443 12.5578 18.9829 12.5404 19.0225 12.5259C19.0744 12.5041 19.1276 12.4853 19.1816 12.4697C19.3217 12.4277 19.4656 12.3998 19.6112 12.3865C19.7896 12.3709 19.9691 12.3744 20.1468 12.3969C20.3242 12.4219 20.4984 12.4655 20.6668 12.5269C20.8034 12.5794 20.9345 12.6456 21.0578 12.7245C21.1052 12.7543 21.1507 12.7869 21.194 12.8223C21.2285 12.8469 21.2608 12.8744 21.2908 12.9044C21.3185 12.9277 21.3433 12.9542 21.3646 12.9835C21.3573 12.9918 21.2481 12.8795 21.037 12.7567C20.9136 12.684 20.7837 12.6227 20.6491 12.5737C20.4834 12.517 20.3128 12.4759 20.1395 12.451C19.967 12.4293 19.7929 12.4241 19.6195 12.4354C19.4765 12.4465 19.3348 12.4705 19.1962 12.5071C18.9549 12.5695 18.8239 12.6413 18.8135 12.6319Z" fill="#455A64"/>
<path d="M21.2077 12.4398C21.1983 12.4512 20.5421 11.8938 19.7433 11.1918C18.9446 10.4898 18.304 9.91884 18.3133 9.9074C18.3227 9.89596 18.9789 10.4544 19.7787 11.1554C20.5785 11.8564 21.216 12.4294 21.2077 12.4398Z" fill="#FF725E"/>
<path d="M24.2039 11.3011C24.2535 11.2037 24.3273 11.1206 24.4181 11.0598C24.4973 10.9843 24.5948 10.9305 24.701 10.9038C24.6234 10.9765 24.5399 11.0426 24.4514 11.1014C24.3741 11.1742 24.2914 11.241 24.2039 11.3011Z" fill="white"/>
<path d="M21.2834 11.8863C21.2782 11.8798 21.2737 11.8729 21.2699 11.8655C21.2605 11.8478 21.2491 11.827 21.2345 11.8021C21.1942 11.7179 21.1668 11.6282 21.1534 11.5358C21.115 11.1899 21.2135 10.8428 21.428 10.5686C21.4957 10.4767 21.5735 10.3926 21.6599 10.318C21.7546 10.2386 21.857 10.169 21.9656 10.11C22.2067 9.98372 22.4655 9.89466 22.7332 9.84584C23.2958 9.72832 23.9292 9.7564 24.574 9.66072C24.8895 9.61899 25.1957 9.52441 25.4798 9.38096C25.7394 9.23985 25.9741 9.05717 26.1745 8.84016C26.5148 8.47053 26.7873 8.04385 26.9795 7.57968C27.15 7.18552 27.2572 6.85168 27.3352 6.62704L27.4236 6.36392L27.4475 6.29632C27.4499 6.28843 27.4531 6.28077 27.4568 6.27344C27.4568 6.27344 27.4568 6.28176 27.4568 6.29736L27.4381 6.36704L27.3518 6.63744C27.2555 6.96354 27.142 7.28431 27.0117 7.5984C26.8224 8.06976 26.5501 8.50337 26.2078 8.87864C26.0033 9.09958 25.7636 9.28513 25.4985 9.42776C25.2106 9.57487 24.8997 9.67194 24.5792 9.7148C23.926 9.81256 23.2958 9.78136 22.7394 9.89576C22.183 10.0102 21.7056 10.2421 21.455 10.5915C21.2446 10.8559 21.1434 11.1908 21.1721 11.5275C21.1901 11.6522 21.2276 11.7733 21.2834 11.8863Z" fill="#FAFAFA"/>
<path d="M21.944 16.0163C21.9222 16.1602 21.8802 16.3002 21.8192 16.4323C21.7489 16.5911 21.6576 16.7398 21.5478 16.8743C21.402 17.054 21.2234 17.2044 21.0215 17.3173C20.7742 17.4514 20.4978 17.5228 20.2166 17.5253C19.8919 17.5328 19.5728 17.4394 19.3034 17.2581C19.0071 17.053 18.7927 16.7499 18.6982 16.4021C18.6476 16.219 18.637 16.0271 18.667 15.8395C18.6999 15.6464 18.774 15.4627 18.8843 15.3008C19.0641 15.0279 19.3399 14.8327 19.657 14.7537V14.8057C19.3354 14.756 19.0298 14.6317 18.7647 14.4428C18.519 14.2694 18.3232 14.0345 18.1969 13.7616C18.0857 13.5163 18.0382 13.247 18.0586 12.9785C18.0757 12.7464 18.1536 12.523 18.2842 12.3305C18.3942 12.1743 18.5359 12.0432 18.7002 11.9457C18.8223 11.8736 18.9555 11.8223 19.0944 11.7939C19.1813 11.7766 19.27 11.77 19.3586 11.7741L19.4262 11.7814C19.4337 11.7803 19.4414 11.7803 19.449 11.7814C19.3312 11.7753 19.213 11.7844 19.0975 11.8085C18.9622 11.8394 18.8329 11.8925 18.7148 11.9655C18.5572 12.0632 18.4219 12.1929 18.3175 12.3461C18.1925 12.5343 18.119 12.752 18.1043 12.9774C18.0869 13.2385 18.1348 13.4997 18.2437 13.7377C18.3678 14.002 18.5589 14.2293 18.798 14.397C19.0576 14.5798 19.3558 14.7005 19.6695 14.7496L19.8037 14.7704L19.6716 14.8016C19.3674 14.8777 19.1031 15.0656 18.9311 15.3278C18.8251 15.4841 18.7542 15.6615 18.7231 15.8478C18.6946 16.0281 18.7045 16.2124 18.7522 16.3886C18.8424 16.7261 19.0491 17.0208 19.3357 17.2206C19.5963 17.3972 19.905 17.4891 20.2197 17.4837C20.4944 17.4827 20.7647 17.4145 21.007 17.2851C21.2056 17.1766 21.3821 17.0316 21.527 16.8577C21.6373 16.7263 21.7303 16.5812 21.8036 16.4261C21.849 16.3276 21.8876 16.2262 21.919 16.1224C21.9284 16.0891 21.9357 16.0621 21.9409 16.0402L21.944 16.0163Z" fill="#263238"/>
<path d="M21.3314 11.5181C21.3226 11.5155 21.3142 11.5116 21.3065 11.5066L21.2337 11.4682C21.1426 11.416 21.056 11.3565 20.9747 11.2903C20.6725 11.0435 20.442 10.7203 20.307 10.3543C20.1504 9.92044 20.1365 9.44785 20.2675 9.00554C20.3985 8.56324 20.6674 8.17439 21.035 7.89575C21.3292 7.67896 21.66 7.51691 22.0116 7.41735C22.3631 7.3181 22.7237 7.25434 23.088 7.22703C23.4374 7.19375 23.7744 7.17815 24.0947 7.15631C24.3979 7.13723 24.6999 7.10252 24.9995 7.05231C25.2597 7.00758 25.515 6.93793 25.7618 6.84431C26.1201 6.71211 26.4468 6.50627 26.7207 6.24007C26.7928 6.16522 26.8599 6.08566 26.9214 6.00191L26.9693 5.93639C26.9742 5.92839 26.9801 5.92105 26.9869 5.91455C26.9185 6.03856 26.8338 6.15292 26.7353 6.25463C26.4634 6.53019 26.1348 6.74314 25.7722 6.87863C25.5237 6.97526 25.2662 7.04736 25.0037 7.09391C24.7027 7.14458 24.3993 7.1793 24.0947 7.19791C23.4551 7.24887 22.7427 7.25407 22.0303 7.46519C21.6852 7.5632 21.3602 7.72166 21.0704 7.93319C20.7101 8.20526 20.4454 8.58469 20.3146 9.01681C20.1838 9.44893 20.1935 9.91143 20.3424 10.3377C20.4728 10.6978 20.6951 11.0176 20.9872 11.2654C21.0664 11.3331 21.1505 11.395 21.2389 11.4505L21.3075 11.4931C21.3166 11.5003 21.3246 11.5087 21.3314 11.5181Z" fill="#263238"/>
<path d="M32.921 9.9841C32.9091 9.99833 32.8943 10.0099 32.8777 10.0182C32.861 10.0264 32.8428 10.0311 32.8243 10.0319C32.7703 10.033 32.7172 10.0178 32.672 9.9883C32.6267 9.95882 32.5914 9.91641 32.5705 9.86658C32.5545 9.83041 32.5475 9.79091 32.55 9.75143C32.5525 9.71196 32.5646 9.67368 32.5851 9.63986C32.6331 9.55991 32.7062 9.49811 32.7931 9.4641C32.8991 9.42577 33.0131 9.4152 33.1243 9.43341C33.2356 9.45161 33.3403 9.49798 33.4285 9.5681C33.5349 9.64487 33.6168 9.75066 33.6646 9.87282C33.7151 10.0056 33.7252 10.1503 33.6937 10.2888C33.6618 10.439 33.5805 10.5741 33.4628 10.6726C33.3382 10.7759 33.1859 10.8402 33.025 10.8577C32.8533 10.8702 32.681 10.8439 32.5208 10.7809C32.3606 10.7179 32.2166 10.6198 32.0994 10.4937C31.9702 10.3659 31.8693 10.2125 31.803 10.0434C31.7353 9.86756 31.7173 9.6765 31.751 9.49114C31.787 9.30989 31.8435 9.13334 31.9195 8.9649C31.9892 8.7985 32.0536 8.63418 32.1077 8.46986C32.2158 8.15418 32.2857 7.82666 32.3157 7.49434C32.3436 7.1945 32.3254 6.89217 32.2616 6.59786C32.2049 6.34013 32.1046 6.09394 31.9652 5.86986C31.7644 5.54393 31.4761 5.28089 31.1332 5.11066C31.0395 5.06815 30.9425 5.03337 30.8431 5.00666L30.764 4.9869C30.755 4.98508 30.7462 4.98193 30.738 4.97754H30.7651L30.8452 4.9921C30.9473 5.01532 31.0469 5.04841 31.1426 5.0909C31.4932 5.25743 31.7888 5.52088 31.9944 5.8501C32.139 6.07324 32.2446 6.31944 32.3064 6.5781C32.3733 6.87685 32.3937 7.18417 32.3667 7.48914C32.3374 7.82565 32.2676 8.15739 32.1587 8.47714C32.1046 8.64354 32.0391 8.80994 31.9694 8.9753C31.8956 9.14205 31.8405 9.31644 31.8051 9.4953C31.774 9.66994 31.7913 9.84975 31.855 10.0153C31.9178 10.178 32.0146 10.3255 32.1389 10.4479C32.2502 10.5686 32.387 10.6629 32.5394 10.7239C32.6919 10.7849 32.856 10.8111 33.0198 10.8005C33.1724 10.7849 33.317 10.7249 33.4358 10.6279C33.5465 10.5367 33.6234 10.4111 33.6542 10.2711C33.6847 10.1406 33.6764 10.0039 33.6303 9.87802C33.5855 9.76253 33.5091 9.66199 33.4098 9.58786C33.3269 9.52052 33.2281 9.4756 33.1228 9.45739C33.0176 9.43918 32.9094 9.4483 32.8087 9.48386C32.7272 9.51393 32.658 9.57028 32.6121 9.64402C32.5923 9.67455 32.5802 9.70945 32.577 9.7457C32.5737 9.78195 32.5794 9.81844 32.5934 9.85202C32.6123 9.89897 32.6445 9.93935 32.6861 9.96819C32.7277 9.99702 32.7768 10.013 32.8274 10.0143C32.8607 10.0127 32.893 10.0023 32.921 9.9841Z" fill="#263238"/>
<g opacity="0.2">
<path d="M32.2577 33.5215C32.7631 33.379 33.2873 33.8335 33.8 33.716C34.112 33.6432 34.3471 33.3645 34.4885 33.0722C34.6299 32.78 34.7059 32.4576 34.8556 32.1685C35.0054 31.8793 35.255 31.6141 35.5774 31.5694C35.8727 31.5299 36.2232 31.6682 36.4427 31.4654C36.6122 31.3094 36.5893 31.0203 36.4541 30.8341C36.3189 30.648 36.1047 30.5388 35.8977 30.4369C35.6707 30.3129 35.4294 30.2172 35.1791 30.1519C34.9262 30.0876 34.6585 30.1187 34.4271 30.2393C33.9945 30.4909 33.9071 31.0619 33.7813 31.5465C33.7045 31.8875 33.5602 32.2096 33.357 32.494C33.1506 32.7791 32.8448 32.9765 32.5 33.0473C32.3673 33.0521 32.2371 33.0854 32.1183 33.145C32.0091 33.2199 31.9665 33.4071 32.0799 33.4768" fill="black"/>
</g>
<path d="M29.6233 31.6527L31.5182 30.9923L33.2165 28.3371C33.2993 28.2076 33.4077 28.0964 33.5351 28.0102C33.6624 27.924 33.8059 27.8647 33.957 27.8359L37.0031 27.2607C37.0418 27.3768 37.0366 27.503 36.9885 27.6155C36.9404 27.728 36.8527 27.819 36.7421 27.8712C36.3355 28.1031 34.5061 28.5295 34.5061 28.5295L37.3235 28.4817C37.3235 28.4817 37.4098 28.8883 37.0905 29.0339C36.7712 29.1795 34.764 29.2523 34.764 29.2523L37.3359 29.6184C37.3359 29.6184 37.3505 30.0271 36.7629 30.0344C36.1843 30.0292 35.6064 29.9945 35.0313 29.9304C35.0075 29.9268 34.9832 29.9328 34.9637 29.947C34.9442 29.9612 34.9311 29.9825 34.9273 30.0063C34.9235 30.0293 34.9286 30.0528 34.9416 30.0721C34.9545 30.0914 34.9743 30.1051 34.997 30.1103L36.7057 30.5139C36.755 30.5248 36.7992 30.5518 36.8316 30.5905C36.864 30.6293 36.8826 30.6776 36.8846 30.7281C36.8866 30.7785 36.8719 30.8282 36.8428 30.8694C36.8136 30.9106 36.7716 30.941 36.7234 30.9559C36.6921 30.9638 36.6597 30.9659 36.6277 30.9621C36.3375 30.933 34.5976 30.7125 34.5976 30.7125C34.5976 30.7125 33.984 32.8632 33.5867 33.0369C33.1895 33.2106 32.3564 33.2584 32.3564 33.2584L30.5884 33.9583L29.6233 31.6527Z" fill="#B78876"/>
<path d="M37.128 28.4733C37.0794 28.4835 37.0299 28.4884 36.9803 28.4878L36.5768 28.5076C36.2367 28.5221 35.7656 28.5388 35.2466 28.5523L34.5134 28.571C34.3162 28.5628 34.1191 28.591 33.9321 28.6542C33.809 28.7027 33.7044 28.789 33.6336 28.9007C33.6108 28.9437 33.591 28.9882 33.5743 29.0338C33.5722 29.0211 33.5722 29.0081 33.5743 28.9953C33.5823 28.9592 33.5949 28.9243 33.6118 28.8913C33.6795 28.7696 33.786 28.6741 33.9144 28.6199C34.1046 28.5494 34.3065 28.5162 34.5093 28.5221L35.2373 28.4993C35.7573 28.4857 36.2284 28.4753 36.5685 28.4701H36.972C37.024 28.4668 37.0762 28.4679 37.128 28.4733Z" fill="#AA6550"/>
<path d="M37.1705 29.6257C37.1248 29.6275 37.0792 29.6243 37.0342 29.6163L36.6661 29.5695C36.3541 29.529 35.9256 29.4655 35.4524 29.3969C35.2163 29.3636 34.9906 29.321 34.7868 29.3033C34.608 29.2818 34.4268 29.3144 34.2668 29.3969C34.1601 29.4562 34.068 29.5386 33.9974 29.6382C33.9475 29.7089 33.9277 29.7536 33.9236 29.7515C33.9252 29.7396 33.9287 29.728 33.934 29.7172C33.9467 29.6855 33.962 29.6549 33.9797 29.6257C34.0467 29.5179 34.1387 29.428 34.2481 29.3636C34.4132 29.2715 34.6029 29.233 34.7909 29.2534C34.9989 29.269 35.2246 29.3106 35.4617 29.3428C35.9349 29.4135 36.3634 29.4811 36.6723 29.5321L37.0384 29.5955C37.0833 29.6013 37.1275 29.6114 37.1705 29.6257Z" fill="#AA6550"/>
<path d="M35.7404 30.28C35.6399 30.2658 35.5404 30.2443 35.443 30.2155C35.26 30.1708 35.0083 30.1043 34.7296 30.0471C34.6632 30.0315 34.5958 30.0214 34.5278 30.0169C34.4669 30.0193 34.4076 30.0368 34.3552 30.0679C34.262 30.1194 34.1836 30.1938 34.1274 30.2842C34.0808 30.3724 34.0502 30.4682 34.0369 30.5671C34.0282 30.5402 34.0261 30.5117 34.0307 30.4839C34.0361 30.4075 34.0574 30.3332 34.0931 30.2655C34.1489 30.1652 34.2309 30.0818 34.3302 30.0242C34.3899 29.9886 34.4573 29.9679 34.5268 29.9639C34.5985 29.9677 34.6698 29.9775 34.74 29.993C35.0228 30.0523 35.2724 30.124 35.4524 30.1781C35.5515 30.2024 35.648 30.2366 35.7404 30.28Z" fill="#AA6550"/>
<path d="M15.5574 33.0804L21.241 32.3815L31.2094 30.7612L32.4959 33.9946C28.7519 35.2925 24.9101 36.4636 21.1411 37.4932C20.8331 37.5546 20.5191 37.5811 20.2051 37.5722C18.9467 37.5774 15.8434 37.0719 15.5574 33.0804Z" fill="#FF725E"/>
<path d="M32.4957 33.9949C32.486 33.9764 32.4773 33.9573 32.4697 33.9377C32.452 33.8972 32.4291 33.841 32.3979 33.7682C32.3366 33.6164 32.2471 33.398 32.1338 33.1193L31.1884 30.7689L31.2123 30.7824L26.369 31.5915C25.225 31.7881 24.1278 31.916 23.1336 32.0481C22.6354 32.1136 22.1633 32.1791 21.7234 32.2561C21.5029 32.2914 21.2907 32.3261 21.0869 32.3601C20.8916 32.3914 20.6981 32.4337 20.5076 32.4869C19.9337 32.6678 19.4502 33.0605 19.1556 33.5852C19.0749 33.7263 19.0084 33.875 18.957 34.0293C18.9393 34.0823 18.9278 34.1239 18.9206 34.1509C18.917 34.1652 18.9121 34.1791 18.906 34.1925C18.9157 34.1362 18.9293 34.0806 18.9466 34.0261C18.9939 33.8694 19.0577 33.7181 19.1369 33.5748C19.2619 33.3471 19.4228 33.141 19.6132 32.9643C19.8681 32.7312 20.1704 32.556 20.4993 32.4505C20.6912 32.3959 20.886 32.3518 21.0827 32.3185C21.2907 32.281 21.4987 32.2425 21.7192 32.2061C22.1602 32.1333 22.6323 32.0647 23.1294 31.9981C24.1247 31.864 25.2209 31.735 26.3628 31.5374L31.2082 30.7397H31.2258L31.2321 30.7564C31.619 31.7381 31.9372 32.5473 32.1598 33.113L32.4135 33.7661C32.4416 33.84 32.4624 33.8972 32.479 33.9377C32.4957 33.9783 32.4957 33.9949 32.4957 33.9949Z" fill="#263238"/>
<path d="M18.616 37.4008C18.6315 37.4025 18.6468 37.4056 18.6617 37.4102L18.7938 37.4424C18.9103 37.4674 19.0819 37.5069 19.3065 37.5339C19.9412 37.6121 20.5845 37.5812 21.2087 37.4424C21.4063 37.4008 21.6101 37.3447 21.8233 37.2843L22.4868 37.0971L23.9428 36.6811C24.9714 36.3816 26.0998 36.0457 27.2802 35.6786C29.2562 35.065 31.072 34.4639 32.4802 33.9782L32.4677 34.0063C32.0788 33.0183 31.7595 32.2102 31.538 31.6455C31.4288 31.3657 31.3445 31.1463 31.2852 30.9944C31.2572 30.9216 31.2364 30.8655 31.2208 30.8239C31.2052 30.7823 31.201 30.7656 31.201 30.7656C31.201 30.7656 31.2104 30.7843 31.227 30.8218C31.2436 30.8592 31.2665 30.9185 31.2967 30.9903L31.5598 31.6361L32.5072 33.9907L32.5156 34.0115L32.4948 34.0187C31.0845 34.5117 29.2708 35.1159 27.2948 35.7306C26.1144 36.0977 24.9849 36.4326 23.9553 36.73L22.491 37.146L21.8264 37.3291C21.6184 37.3883 21.4104 37.4445 21.2097 37.4851C20.5811 37.6212 19.9336 37.6469 19.2961 37.561C19.0648 37.5296 18.837 37.476 18.616 37.4008Z" fill="#263238"/>
<path d="M20.8185 32.3815C20.7719 32.3938 20.7242 32.4011 20.676 32.4033L20.286 32.4418L19.0006 32.5676L17.7152 32.7049L17.3252 32.7455C17.2778 32.7536 17.2296 32.7564 17.1816 32.7538C17.2279 32.7401 17.2752 32.7304 17.3231 32.7247C17.4146 32.7101 17.5467 32.6904 17.711 32.6675C18.0386 32.6217 18.492 32.5635 18.9944 32.5146C19.4967 32.4657 19.9532 32.4262 20.2829 32.4044C20.4483 32.3929 20.5824 32.3856 20.675 32.3815C20.7228 32.3774 20.7708 32.3774 20.8185 32.3815Z" fill="#263238"/>
<path d="M41.1404 13.5825C41.0364 12.7578 40.3407 11.9892 39.5097 11.9892C39.0199 11.9892 38.5529 12.245 38.218 12.6038C38.0989 12.7245 37.9894 12.8542 37.8904 12.9918C37.82 12.8374 37.738 12.6886 37.645 12.5466C37.3871 12.1306 36.9804 11.7864 36.501 11.6897C35.6856 11.5274 34.8516 12.1431 34.5884 12.9314C34.3253 13.7198 34.5448 14.6038 34.9764 15.313C35.408 16.0223 36.1516 16.951 37.5212 17.4107C38.4645 17.2901 39.7292 16.4529 40.2918 15.8414C40.8544 15.2298 41.2424 14.4072 41.1404 13.5825Z" fill="#FF725E"/>
<path d="M40.841 15.0623H40.814L40.7339 15.0571L40.4219 15.0311L39.2925 14.9271L39.3122 14.9147L38.8422 16.1419L38.813 16.2157L38.7943 16.1387C38.6518 15.5428 38.4906 14.8762 38.3211 14.1731L38.1682 13.5335L38.2161 13.5439L37.3539 14.7295L37.3456 14.7399H37.3362L35.3509 14.5319L34.7893 14.4695L34.6406 14.4508L34.5896 14.4415C34.6069 14.4399 34.6243 14.4399 34.6416 14.4415L34.7903 14.4529L35.354 14.5018L37.3404 14.689L37.3186 14.6994L38.1766 13.5107L38.2109 13.4639L38.2244 13.52C38.2743 13.728 38.3284 13.9433 38.3783 14.1617C38.5458 14.8647 38.7049 15.5324 38.8474 16.1283H38.7995L39.28 14.9043L39.2852 14.8907H39.2998L40.4282 15.0114L40.735 15.0478L40.814 15.0582L40.841 15.0623Z" fill="#FAFAFA"/>
</svg>
