<svg width="43" height="43" viewBox="0 0 43 43" fill="none" xmlns="http://www.w3.org/2000/svg">
<path d="M36.3409 36.3407C44.5373 28.1443 44.5373 14.8552 36.3409 6.65882C28.1445 -1.5376 14.8555 -1.53759 6.65907 6.65883C-1.53734 14.8552 -1.53734 28.1443 6.65907 36.3407C14.8555 44.5371 28.1445 44.5371 36.3409 36.3407Z" fill="white" stroke="#263238" stroke-linecap="round" stroke-linejoin="round"/>
<path d="M25.5364 22.2856C24.9477 22.5932 24.4359 23.0297 24.0394 23.5626C23.6429 24.0955 23.3718 24.7111 23.2464 25.3635C22.7562 27.6535 23.6946 32.4611 26.5134 33.473C29.3321 34.485 32.6341 34.2609 34.8856 31.4456C37.1371 28.6304 37.0635 28.4798 37.5888 27.0162C38.114 25.5526 36.6503 21.8724 34.6615 20.6329C32.6726 19.3933 29.4092 19.1307 29.1395 19.6945C28.8699 20.2582 28.9154 20.5594 28.5023 20.822C28.0891 21.0846 26.2122 21.8549 25.5364 22.2856Z" fill="white" stroke="#263238" stroke-linecap="round" stroke-linejoin="round"/>
<path d="M29.3284 23.169C29.0004 23.1128 28.6632 23.1485 28.3542 23.2721C28.0452 23.3957 27.7764 23.6024 27.5776 23.8693C26.9403 24.8077 26.7898 26.0088 27.203 26.5725C27.6161 27.1363 27.3535 27.8506 28.0293 28.4493C28.7051 29.0481 30.6555 29.6118 31.9335 28.6384C33.2116 27.665 34.5247 24.5451 32.7949 23.4561C31.0652 22.3671 29.6295 21.5163 29.3284 23.169Z" fill="#92E3A9" stroke="#263238" stroke-linecap="round" stroke-linejoin="round"/>
<path d="M24.9725 24.8602C24.9725 24.8602 22.1187 23.6591 20.0913 23.8097C18.0639 23.9603 15.8124 24.8602 14.839 26.6109C13.8656 28.3617 13.5995 30.0635 14.0512 31.3765C14.5029 32.6896 15.3642 32.9172 15.5533 34.1568C15.7424 35.3963 17.7663 37.5358 20.7321 37.3852C23.6979 37.2346 26.2155 36.1456 27.0034 32.4305C27.7912 28.7154 26.9613 26.2468 24.9725 24.8602Z" fill="white" stroke="#263238" stroke-linecap="round" stroke-linejoin="round"/>
<path d="M20.3539 27.8643C20.3539 27.8643 18.8517 28.0114 18.288 29.265C17.7242 30.5185 18.0639 32.2693 18.9638 32.9451C19.8637 33.6209 21.7055 34.1076 22.3428 33.6979C22.9801 33.2882 24.1461 32.4584 24.2581 31.1803C24.3702 29.9022 23.9605 28.5892 23.2462 28.2145C22.5319 27.8398 20.9562 27.5982 20.3539 27.8643Z" fill="#92E3A9" stroke="#263238" stroke-linecap="round" stroke-linejoin="round"/>
<path d="M12.3073 30.4975C11.9564 30.4948 11.6125 30.3982 11.3115 30.2178C11.0104 30.0374 10.7631 29.7798 10.5951 29.4716C6.44576 21.8452 4.84555 15.6615 4.77902 15.4024C4.6504 14.8972 4.72774 14.3616 4.99402 13.9134C5.26029 13.4653 5.6937 13.1412 6.1989 13.0126C6.70409 12.884 7.23969 12.9613 7.68786 13.2276C8.13604 13.4939 8.46008 13.9273 8.5887 14.4325C9.91715 19.0068 11.7479 23.4199 14.0476 27.5913C14.211 27.8903 14.2938 28.2268 14.2879 28.5676C14.2819 28.9083 14.1874 29.2417 14.0136 29.5348C13.8398 29.828 13.5927 30.0709 13.2966 30.2397C13.0006 30.4085 12.6657 30.4974 12.3248 30.4975H12.3073Z" fill="#92E3A9" stroke="#263238" stroke-linecap="round" stroke-linejoin="round"/>
<path d="M10.8088 21.6316L7.30727 19.0229C8.03672 19.2674 8.7404 19.5829 9.40819 19.9648C9.82359 20.2712 10.203 20.6236 10.5392 21.0153" stroke="#263238" stroke-width="0.75" stroke-linecap="round" stroke-linejoin="round"/>
<path d="M12.2234 25.6547L8.72184 23.046C9.45217 23.2882 10.1561 23.6038 10.8228 23.9879C11.2394 24.2941 11.62 24.6465 11.9573 25.0384" stroke="#263238" stroke-width="0.75" stroke-linecap="round" stroke-linejoin="round"/>
<path d="M13.449 29.174L9.94751 26.5653C10.6778 26.8075 11.3817 27.1231 12.0484 27.5073C12.4644 27.8129 12.8439 28.1654 13.1794 28.5577" stroke="#263238" stroke-width="0.75" stroke-linecap="round" stroke-linejoin="round"/>
<path d="M8.60986 16.5715L5.10831 13.9663C5.83839 14.2092 6.54223 14.5247 7.20924 14.9083C7.62522 15.2139 8.00471 15.5664 8.34024 15.9587" stroke="#263238" stroke-width="0.75" stroke-linecap="round" stroke-linejoin="round"/>
<path d="M15.3923 25.4651C15.0383 25.4658 14.6907 25.3709 14.3862 25.1903C14.0817 25.0097 13.8317 24.7502 13.6626 24.4392C9.51325 16.8128 7.91304 10.6291 7.84651 10.3805C7.74262 9.88604 7.83324 9.37058 8.09953 8.94122C8.36582 8.51185 8.7873 8.20159 9.2764 8.07492C9.76551 7.94825 10.2846 8.01491 10.7258 8.26103C11.1671 8.50716 11.4965 8.91384 11.6457 9.39655C12.9737 13.9721 14.8045 18.3864 17.1046 22.5588C17.268 22.8579 17.3508 23.1944 17.3448 23.5351C17.3389 23.8759 17.2444 24.2092 17.0706 24.5024C16.8968 24.7956 16.6497 25.0385 16.3536 25.2073C16.0575 25.3761 15.7226 25.4649 15.3818 25.4651H15.3923Z" fill="#92E3A9" stroke="#263238" stroke-linecap="round" stroke-linejoin="round"/>
<path d="M13.8938 16.6L10.3923 13.9913C11.1224 14.2342 11.8262 14.5497 12.4932 14.9332C12.9083 15.2401 13.2876 15.5924 13.6242 15.9837" stroke="#263238" stroke-width="0.75" stroke-linecap="round" stroke-linejoin="round"/>
<path d="M15.3084 20.6191L11.8069 18.0104C12.5371 18.2543 13.2409 18.5711 13.9078 18.9558C14.3247 19.2604 14.7043 19.613 15.0388 20.0063" stroke="#263238" stroke-width="0.75" stroke-linecap="round" stroke-linejoin="round"/>
<path d="M16.5478 24.1384L13.0463 21.5297C13.7765 21.7737 14.4804 22.0904 15.1472 22.4752C15.5641 22.7797 15.9437 23.1323 16.2782 23.5256" stroke="#263238" stroke-width="0.75" stroke-linecap="round" stroke-linejoin="round"/>
<path d="M11.6946 11.5394L8.19309 8.93074C8.92255 9.17519 9.62623 9.49067 10.294 9.87266C10.7094 10.1791 11.0888 10.5314 11.425 10.9231" stroke="#263238" stroke-width="0.75" stroke-linecap="round" stroke-linejoin="round"/>
<path d="M22.5003 17.4189C22.5003 17.4189 24.097 20.4512 24.1635 20.8749C24.2301 21.2986 25.1089 21.0045 25.1089 21.0045C25.1089 21.0045 32.3781 18.0702 33.7472 16.9952C35.1163 15.9202 37.7915 15.332 37.6935 14.5441C37.5954 13.7563 35.1514 9.03268 34.1079 7.43598C33.0644 5.83928 32.007 2.99953 31.2401 2.7089C30.4733 2.41827 28.9886 3.58779 27.1959 4.56472C25.4031 5.54165 20.3994 6.85472 20.0772 8.22383C19.7551 9.59293 22.5003 17.4189 22.5003 17.4189Z" fill="white" stroke="#263238" stroke-linecap="round" stroke-linejoin="round"/>
<path d="M37.6829 14.5514C37.5884 13.7951 35.3124 9.36913 34.2129 7.62536C35.2984 9.87686 36.7865 12.9897 36.8671 13.2769C37.0001 13.7356 37.1612 14.4184 36.8355 14.7125C36.5099 15.0066 35.5645 15.2027 34.7171 15.5283C33.8697 15.854 25.424 20.0278 25.424 20.0278C25.424 20.0278 24.6747 20.3535 24.5101 20.0593C24.3456 19.7652 21.4498 12.7586 20.4343 10.0519C20.2733 9.62124 20.1612 9.26759 20.0842 8.98046C20.3748 11.372 22.4897 17.4192 22.4897 17.4192C22.4897 17.4192 24.0864 20.4515 24.153 20.8752C24.2195 21.2989 25.0984 21.0047 25.0984 21.0047C25.0984 21.0047 32.3676 18.0705 33.7367 16.9955C35.1058 15.9205 37.781 15.3323 37.6829 14.5514Z" fill="#D1D1D1" stroke="#263238" stroke-linecap="round" stroke-linejoin="round"/>
<path d="M15.7775 3.5598C15.7775 3.5598 14.587 3.34271 14.587 4.6978C14.587 6.0529 14.2614 17.2508 14.7481 17.9021C15.2348 18.5534 16.1487 18.6024 16.6424 18.5499C17.1361 18.4974 25.1932 18.0632 26.5448 18.1717C27.8964 18.2803 28.0609 18.0107 28.0609 17.0337C28.0609 16.0568 28.6562 4.37216 28.3866 4.04652C28.2896 3.87585 28.1474 3.73522 27.9756 3.64009C27.8039 3.54496 27.6093 3.49901 27.4132 3.50728C26.8704 3.50728 21.4605 3.5598 19.7833 3.5598H15.7775Z" fill="white" stroke="#263238" stroke-linecap="round" stroke-linejoin="round"/>
<path d="M28.061 17.0337C28.061 16.0603 28.6563 4.37214 28.3867 4.0465C28.2545 3.85093 28.075 3.69193 27.8649 3.58429H27.8054C27.8885 3.82909 27.954 4.0795 28.0015 4.33362C28.0995 4.82384 27.6093 16.5295 27.5428 17.1142C27.4763 17.699 26.6639 17.5064 24.7066 17.5064C22.7492 17.5064 18.936 17.4399 17.7035 17.7655C16.869 18.0363 15.964 17.9902 15.1614 17.636C14.8112 17.4539 14.5976 16.3649 14.5311 15.9447C14.5731 16.9952 14.6431 17.7375 14.7552 17.8916C15.2419 18.5394 16.1558 18.5919 16.6495 18.5394C17.1432 18.4869 25.2003 18.0527 26.5519 18.1612C27.9035 18.2698 28.061 18.0106 28.061 17.0337Z" fill="#D1D1D1" stroke="#263238" stroke-linecap="round" stroke-linejoin="round"/>
<path d="M16.4357 4.98843C16.4357 5.05021 16.4174 5.1106 16.383 5.16192C16.3486 5.21324 16.2997 5.25318 16.2425 5.27666C16.1854 5.30014 16.1225 5.3061 16.062 5.29379C16.0015 5.28148 15.9459 5.25145 15.9025 5.20752C15.8591 5.16358 15.8297 5.10773 15.818 5.04705C15.8064 4.98637 15.8131 4.9236 15.8372 4.86672C15.8613 4.80984 15.9018 4.76141 15.9535 4.7276C16.0052 4.69378 16.0658 4.6761 16.1276 4.67679C16.2096 4.67771 16.288 4.71095 16.3457 4.76929C16.4034 4.82764 16.4357 4.90638 16.4357 4.98843Z" stroke="#263238" stroke-width="0.75" stroke-linecap="round" stroke-linejoin="round"/>
<path d="M18.4421 6.53262C18.6645 6.53262 18.8448 6.35234 18.8448 6.12994C18.8448 5.90755 18.6645 5.72727 18.4421 5.72727C18.2197 5.72727 18.0394 5.90755 18.0394 6.12994C18.0394 6.35234 18.2197 6.53262 18.4421 6.53262Z" stroke="#263238" stroke-width="0.75" stroke-linecap="round" stroke-linejoin="round"/>
<path d="M16.744 7.95066C16.8813 7.95066 16.9926 7.83936 16.9926 7.70206C16.9926 7.56476 16.8813 7.45345 16.744 7.45345C16.6067 7.45345 16.4954 7.56476 16.4954 7.70206C16.4954 7.83936 16.6067 7.95066 16.744 7.95066Z" stroke="#263238" stroke-width="0.75" stroke-linecap="round" stroke-linejoin="round"/>
<path d="M18.4107 8.75628C18.548 8.75628 18.6593 8.64497 18.6593 8.50767C18.6593 8.37037 18.548 8.25906 18.4107 8.25906C18.2734 8.25906 18.1621 8.37037 18.1621 8.50767C18.1621 8.64497 18.2734 8.75628 18.4107 8.75628Z" stroke="#263238" stroke-width="0.75" stroke-linecap="round" stroke-linejoin="round"/>
<path d="M25.389 6.06743C25.389 6.13668 25.3685 6.20438 25.33 6.26196C25.2915 6.31955 25.2369 6.36443 25.1729 6.39093C25.1089 6.41743 25.0385 6.42437 24.9706 6.41086C24.9026 6.39734 24.8403 6.36399 24.7913 6.31502C24.7423 6.26606 24.709 6.20367 24.6955 6.13574C24.6819 6.06782 24.6889 5.99742 24.7154 5.93343C24.7419 5.86945 24.7868 5.81476 24.8443 5.77629C24.9019 5.73781 24.9696 5.71727 25.0389 5.71727C25.1317 5.71727 25.2208 5.75417 25.2865 5.81984C25.3521 5.8855 25.389 5.97456 25.389 6.06743Z" stroke="#263238" stroke-width="0.75" stroke-linecap="round" stroke-linejoin="round"/>
<path d="M34.8365 14.6807C35.0415 14.6807 35.2076 14.5145 35.2076 14.3095C35.2076 14.1045 35.0415 13.9384 34.8365 13.9384C34.6315 13.9384 34.4653 14.1045 34.4653 14.3095C34.4653 14.5145 34.6315 14.6807 34.8365 14.6807Z" stroke="#263238" stroke-width="0.75" stroke-linecap="round" stroke-linejoin="round"/>
<path d="M33.3868 12.6435C33.5396 12.6435 33.6635 12.5196 33.6635 12.3669C33.6635 12.2141 33.5396 12.0902 33.3868 12.0902C33.2341 12.0902 33.1102 12.2141 33.1102 12.3669C33.1102 12.5196 33.2341 12.6435 33.3868 12.6435Z" stroke="#263238" stroke-width="0.75" stroke-linecap="round" stroke-linejoin="round"/>
<path d="M31.4399 9.27781C31.4399 9.32089 31.4271 9.363 31.4031 9.39877C31.3791 9.43454 31.3449 9.46237 31.3051 9.47869C31.2652 9.49501 31.2214 9.4991 31.1792 9.49044C31.1369 9.48178 31.0983 9.46075 31.0681 9.43003C31.0378 9.39932 31.0174 9.36031 31.0095 9.31797C31.0015 9.27563 31.0063 9.23188 31.0233 9.19227C31.0402 9.15267 31.0686 9.11901 31.1048 9.09558C31.1409 9.07215 31.1832 9.06001 31.2263 9.06071C31.2547 9.0607 31.2827 9.06635 31.3089 9.0773C31.335 9.08825 31.3587 9.1043 31.3786 9.1245C31.3985 9.14471 31.4141 9.16867 31.4247 9.19499C31.4352 9.22131 31.4404 9.24946 31.4399 9.27781Z" stroke="#263238" stroke-width="0.75" stroke-linecap="round" stroke-linejoin="round"/>
<path d="M33.1695 9.86658C33.1695 9.92752 33.1514 9.9871 33.1176 10.0378C33.0837 10.0884 33.0356 10.1279 32.9793 10.1513C32.923 10.1746 32.861 10.1807 32.8013 10.1688C32.7415 10.1569 32.6866 10.1276 32.6435 10.0845C32.6004 10.0414 32.571 9.98647 32.5592 9.92669C32.5473 9.86692 32.5534 9.80497 32.5767 9.74866C32.6 9.69236 32.6395 9.64423 32.6902 9.61038C32.7408 9.57652 32.8004 9.55844 32.8614 9.55844C32.9431 9.55844 33.0215 9.59091 33.0793 9.6487C33.137 9.70648 33.1695 9.78486 33.1695 9.86658Z" stroke="#263238" stroke-width="0.75" stroke-linecap="round" stroke-linejoin="round"/>
</svg>
