<svg width="88" height="88" viewBox="0 0 88 88" fill="none" xmlns="http://www.w3.org/2000/svg">
<path d="M43.9999 74.573C62.8464 74.573 78.1245 73.681 78.1245 72.5807C78.1245 71.4804 62.8464 70.5884 43.9999 70.5884C25.1534 70.5884 9.87524 71.4804 9.87524 72.5807C9.87524 73.681 25.1534 74.573 43.9999 74.573Z" fill="#F5F5F5"/>
<path d="M72.5612 64.0851C72.3098 64.1257 72.0717 64.2254 71.8664 64.3759C71.6611 64.5264 71.4945 64.7235 71.3802 64.951C70.9208 65.7677 69.8508 66.1478 69.2207 66.007C68.9672 65.9542 68.7085 66.0369 68.4005 66.1566L68.1348 66.2605C68.1594 66.176 68.1805 66.0845 68.1999 65.9965C68.2773 65.9542 68.353 65.9085 68.4287 65.8592L68.4797 65.824C69.3597 65.208 69.5058 64.4389 70.5072 63.888C71.5087 63.3371 72.5612 64.0851 72.5612 64.0851Z" fill="#FD8954"/>
<path d="M65.2607 62.1474C65.4686 62.2941 65.6387 62.4879 65.7571 62.7131C65.8755 62.9383 65.9389 63.1884 65.9419 63.4427C65.9964 64.3773 66.7919 65.1887 67.415 65.3471C67.6667 65.4122 67.862 65.5987 68.0873 65.8416L68.2809 66.0511C68.2967 65.9648 68.3143 65.8751 68.3372 65.7853C68.2853 65.7133 68.2371 65.6387 68.1929 65.5618L68.1612 65.5072C67.6332 64.5692 67.8479 63.8141 67.1915 62.8672C66.535 61.9204 65.2607 62.1474 65.2607 62.1474Z" fill="#FD8954"/>
<path d="M68.0872 65.8415C67.9888 66.3219 67.9628 66.8143 68.0098 67.3023C68.1752 69.0395 68.8211 72.2163 68.8211 72.2163C68.8211 72.2163 68.1488 66.7955 68.2808 66.0563C68.2966 65.97 68.3142 65.8803 68.3371 65.7905C68.4136 65.4629 68.5319 65.1464 68.6891 64.8489C69.3491 63.6081 70.3189 63.3459 70.8997 61.9942C71.4805 60.6425 70.3998 59.4404 70.3998 59.4404C70.3998 59.4404 70.428 60.3503 69.4653 61.0244C68.5026 61.6985 68.1611 63.0924 68.4093 63.8633C68.5536 64.3139 68.3371 64.8155 68.1664 65.5019C68.1347 65.6145 68.1118 65.7254 68.0872 65.8415Z" fill="#FD8954"/>
<g opacity="0.4">
<path d="M72.5612 64.0851C72.3098 64.1257 72.0717 64.2254 71.8664 64.3759C71.6611 64.5264 71.4945 64.7235 71.3802 64.951C70.9208 65.7677 69.8508 66.1478 69.2207 66.007C68.9672 65.9542 68.7085 66.0369 68.4005 66.1566L68.1348 66.2605C68.1594 66.176 68.1805 66.0845 68.1999 65.9965C68.2773 65.9542 68.353 65.9085 68.4287 65.8592L68.4797 65.824C69.3597 65.208 69.5058 64.4389 70.5072 63.888C71.5087 63.3371 72.5612 64.0851 72.5612 64.0851Z" fill="white"/>
<path d="M65.2607 62.1474C65.4686 62.2941 65.6387 62.4879 65.7571 62.7131C65.8755 62.9383 65.9389 63.1884 65.9419 63.4427C65.9964 64.3773 66.7919 65.1887 67.415 65.3471C67.6667 65.4122 67.862 65.5987 68.0873 65.8416L68.2809 66.0511C68.2967 65.9648 68.3143 65.8751 68.3372 65.7853C68.2853 65.7133 68.2371 65.6387 68.1929 65.5618L68.1612 65.5072C67.6332 64.5692 67.8479 63.8141 67.1915 62.8672C66.535 61.9204 65.2607 62.1474 65.2607 62.1474Z" fill="white"/>
<path d="M68.0872 65.8415C67.9888 66.3219 67.9628 66.8143 68.0098 67.3023C68.1752 69.0395 68.8211 72.2163 68.8211 72.2163C68.8211 72.2163 68.1488 66.7955 68.2808 66.0563C68.2966 65.97 68.3142 65.8803 68.3371 65.7905C68.4136 65.4629 68.5319 65.1464 68.6891 64.8489C69.3491 63.6081 70.3189 63.3459 70.8997 61.9942C71.4805 60.6425 70.3998 59.4404 70.3998 59.4404C70.3998 59.4404 70.428 60.3503 69.4653 61.0244C68.5026 61.6985 68.1611 63.0924 68.4093 63.8633C68.5536 64.3139 68.3371 64.8155 68.1664 65.5019C68.1347 65.6145 68.1118 65.7254 68.0872 65.8415Z" fill="white"/>
</g>
<path d="M69.7751 70.5987C69.7751 70.5987 70.3172 69.6835 71.1585 69.7398C71.9998 69.7962 72.3764 69.6694 72.3764 69.6694C72.3764 69.6694 71.6038 71.1038 69.7751 70.5987Z" fill="#FD8954"/>
<mask id="mask0_76_3062" style="mask-type:luminance" maskUnits="userSpaceOnUse" x="69" y="69" width="4" height="2">
<path d="M69.7751 70.5987C69.7751 70.5987 70.3172 69.6835 71.1585 69.7398C71.9998 69.7962 72.3764 69.6694 72.3764 69.6694C72.3764 69.6694 71.6038 71.1038 69.7751 70.5987Z" fill="white"/>
</mask>
<g mask="url(#mask0_76_3062)">
<path opacity="0.2" d="M69.7751 70.5987C69.7751 70.5987 70.3172 69.6835 71.1585 69.7398C71.9998 69.7962 72.3764 69.6694 72.3764 69.6694C72.3764 69.6694 71.6038 71.1038 69.7751 70.5987Z" fill="white"/>
</g>
<path d="M69.7999 70.6004C69.7868 70.5951 69.7757 70.5859 69.7682 70.574C69.7611 70.5604 69.7596 70.5445 69.7638 70.5298C69.7681 70.5151 69.7778 70.5025 69.7911 70.4948C70.3335 70.2021 70.9353 70.0366 71.5511 70.0108C71.5662 70.0103 71.5809 70.0157 71.5921 70.0259C71.6033 70.0361 71.61 70.0502 71.6109 70.0653C71.6114 70.073 71.6104 70.0806 71.6079 70.0878C71.6054 70.0951 71.6015 70.1017 71.5964 70.1075C71.5914 70.1132 71.5852 70.1178 71.5783 70.1212C71.5715 70.1245 71.564 70.1265 71.5564 70.1269C70.9577 70.1508 70.3725 70.3115 69.8456 70.5968C69.8314 70.6037 69.815 70.605 69.7999 70.6004Z" fill="#FD8954"/>
<path d="M69.5903 71.34C69.5903 71.34 70.2028 69.7912 69.3299 68.8073C68.4569 67.8235 68.2492 67.2339 68.2492 67.2339C68.2492 67.2339 67.2108 69.5659 69.5903 71.34Z" fill="#FD8954"/>
<g opacity="0.2">
<path d="M69.5903 71.34C69.5903 71.34 70.2028 69.7912 69.3299 68.8073C68.4569 67.8235 68.2492 67.2339 68.2492 67.2339C68.2492 67.2339 67.2108 69.5659 69.5903 71.34Z" fill="white"/>
</g>
<path d="M69.5199 71.2623C69.5102 71.2593 69.5015 71.2536 69.4949 71.2458C69.4884 71.238 69.4842 71.2284 69.4829 71.2183C69.2877 70.1692 68.8628 69.1763 68.2386 68.3108C68.2342 68.3046 68.2311 68.2975 68.2294 68.2901C68.2278 68.2826 68.2276 68.2749 68.2289 68.2674C68.2302 68.2599 68.233 68.2527 68.2371 68.2462C68.2411 68.2398 68.2465 68.2342 68.2527 68.2298C68.2589 68.2254 68.266 68.2223 68.2734 68.2206C68.2809 68.219 68.2886 68.2188 68.2961 68.2201C68.3036 68.2214 68.3108 68.2242 68.3173 68.2283C68.3237 68.2324 68.3293 68.2377 68.3337 68.2439C68.9688 69.1228 69.3999 70.1324 69.5956 71.199C69.5981 71.2141 69.5946 71.2297 69.5857 71.2422C69.5767 71.2548 69.5632 71.2633 69.5481 71.2658C69.5385 71.2673 69.5288 71.266 69.5199 71.2623Z" fill="#FD8954"/>
<path d="M69.5199 71.5124C69.5059 71.5072 69.4944 71.4968 69.4878 71.4833C69.4813 71.4699 69.4801 71.4545 69.4847 71.4402C70.2696 68.8935 70.5935 68.3672 70.6076 68.3461C70.6159 68.3334 70.6288 68.3245 70.6436 68.3212C70.6584 68.3179 70.6739 68.3205 70.6868 68.3285C70.6998 68.3365 70.7091 68.3493 70.7127 68.3642C70.7163 68.379 70.714 68.3946 70.7061 68.4077C70.7061 68.4077 70.3735 68.9533 69.5956 71.4754C69.5932 71.4827 69.5894 71.4895 69.5844 71.4953C69.5793 71.5011 69.5732 71.5059 69.5663 71.5093C69.5595 71.5128 69.552 71.5148 69.5443 71.5153C69.5366 71.5158 69.5289 71.5148 69.5217 71.5124H69.5199Z" fill="#FD8954"/>
<path d="M70.5952 66.4947C70.56 66.6988 70.604 67.4486 70.8082 67.4838C71.0123 67.519 71.2974 66.822 71.3362 66.6179C71.3494 66.5217 71.3246 66.4241 71.2671 66.3459C71.2096 66.2677 71.1239 66.215 71.0282 66.199C70.9324 66.1829 70.8342 66.2049 70.7543 66.2601C70.6745 66.3153 70.6193 66.3994 70.6005 66.4947H70.5952Z" fill="#FD8954"/>
<path d="M70.9455 68.9231C70.979 68.7207 70.9367 67.9692 70.7326 67.9357C70.5284 67.9023 70.2433 68.5975 70.2046 68.7999C70.1965 68.8483 70.198 68.8979 70.2091 68.9457C70.2201 68.9935 70.2405 69.0387 70.269 69.0787C70.2975 69.1186 70.3336 69.1526 70.3753 69.1786C70.4169 69.2046 70.4633 69.2221 70.5117 69.2302C70.5601 69.2383 70.6097 69.2368 70.6575 69.2257C70.7053 69.2147 70.7505 69.1943 70.7905 69.1658C70.8304 69.1373 70.8644 69.1011 70.8904 69.0595C70.9164 69.0179 70.9339 68.9715 70.942 68.9231H70.9455Z" fill="#FD8954"/>
<path d="M69.5552 67.8847C69.7593 67.9182 70.5108 67.8742 70.5443 67.6718C70.5777 67.4694 69.8825 67.1807 69.6784 67.1438C69.5806 67.1274 69.4803 67.1506 69.3996 67.2082C69.3189 67.2658 69.2644 67.3531 69.248 67.4509C69.2317 67.5487 69.2549 67.649 69.3125 67.7297C69.3701 67.8104 69.4574 67.8649 69.5552 67.8812V67.8847Z" fill="#FD8954"/>
<path d="M71.9839 67.5331C71.7798 67.4996 71.0283 67.5436 70.9948 67.7478C70.9614 67.9519 71.6566 68.2371 71.859 68.2758C71.9074 68.284 71.957 68.2826 72.0048 68.2716C72.0527 68.2607 72.098 68.2404 72.138 68.212C72.178 68.1835 72.2121 68.1475 72.2382 68.1059C72.2643 68.0643 72.282 68.018 72.2902 67.9695C72.2984 67.9211 72.297 67.8716 72.286 67.8237C72.2751 67.7758 72.2548 67.7306 72.2264 67.6905C72.1979 67.6505 72.1619 67.6164 72.1203 67.5903C72.0787 67.5642 72.0324 67.5465 71.9839 67.5383V67.5331Z" fill="#FD8954"/>
<path d="M69.7876 66.975C69.9072 67.1422 70.4687 67.6421 70.6376 67.5224C70.8066 67.4027 70.5162 66.7075 70.3948 66.5403C70.3662 66.5004 70.3301 66.4666 70.2885 66.4407C70.2468 66.4148 70.2005 66.3973 70.1521 66.3893C70.1038 66.3813 70.0543 66.3829 70.0065 66.394C69.9588 66.4051 69.9137 66.4255 69.8738 66.4541C69.8339 66.4826 69.8001 66.5187 69.7742 66.5604C69.7483 66.602 69.7308 66.6483 69.7228 66.6967C69.7148 66.7451 69.7164 66.7945 69.7275 66.8423C69.7386 66.8901 69.759 66.9352 69.7876 66.975Z" fill="#FD8954"/>
<path d="M71.7535 68.4446C71.6338 68.2686 71.0706 67.7758 70.9034 67.8955C70.7362 68.0152 71.0248 68.7104 71.1445 68.8776C71.2019 68.9583 71.2891 69.0129 71.3868 69.0295C71.4845 69.046 71.5847 69.023 71.6655 68.9656C71.7462 68.9081 71.8009 68.821 71.8174 68.7233C71.8339 68.6256 71.8109 68.5254 71.7535 68.4446Z" fill="#FD8954"/>
<path d="M70.0357 68.6929C70.2029 68.5732 70.7028 68.01 70.5831 67.8428C70.4634 67.6756 69.77 67.9643 69.601 68.084C69.5272 68.1442 69.4791 68.2302 69.4665 68.3246C69.4538 68.419 69.4776 68.5147 69.5329 68.5922C69.5882 68.6698 69.671 68.7233 69.7644 68.742C69.8578 68.7607 69.9548 68.7431 70.0357 68.6929Z" fill="#FD8954"/>
<path d="M71.5051 66.7268C71.3291 66.8464 70.8363 67.4079 70.956 67.5768C71.0757 67.7458 71.7709 67.4536 71.9381 67.334C71.9799 67.3063 72.0158 67.2706 72.0435 67.2288C72.0712 67.187 72.0902 67.1401 72.0994 67.0908C72.1086 67.0415 72.1077 66.9909 72.0969 66.9419C72.0861 66.893 72.0655 66.8467 72.0364 66.8059C72.0073 66.7651 71.9703 66.7306 71.9275 66.7044C71.8848 66.6782 71.8372 66.6609 71.7876 66.6535C71.738 66.6461 71.6874 66.6488 71.6389 66.6614C71.5904 66.674 71.5449 66.6962 71.5051 66.7268Z" fill="#FD8954"/>
<g opacity="0.6">
<path d="M70.5952 66.4947C70.56 66.6988 70.604 67.4486 70.8082 67.4838C71.0123 67.519 71.2974 66.822 71.3362 66.6179C71.3494 66.5217 71.3246 66.4241 71.2671 66.3459C71.2096 66.2677 71.1239 66.215 71.0282 66.199C70.9324 66.1829 70.8342 66.2049 70.7543 66.2601C70.6745 66.3153 70.6193 66.3994 70.6005 66.4947H70.5952Z" fill="white"/>
<path d="M70.9455 68.9236C70.979 68.7212 70.9367 67.9697 70.7326 67.9362C70.5284 67.9028 70.2433 68.598 70.2046 68.8004C70.1965 68.8488 70.198 68.8983 70.2091 68.9462C70.2201 68.994 70.2405 69.0392 70.269 69.0792C70.2975 69.1191 70.3336 69.1531 70.3753 69.1791C70.4169 69.2051 70.4633 69.2226 70.5117 69.2307C70.5601 69.2388 70.6097 69.2373 70.6575 69.2262C70.7053 69.2152 70.7505 69.1948 70.7905 69.1663C70.8304 69.1377 70.8644 69.1016 70.8904 69.06C70.9164 69.0184 70.9339 68.972 70.942 68.9236H70.9455Z" fill="white"/>
<path d="M69.5552 67.8852C69.7593 67.9187 70.5108 67.8747 70.5443 67.6723C70.5777 67.4699 69.8825 67.1812 69.6784 67.1443C69.5806 67.1279 69.4803 67.1511 69.3996 67.2087C69.3189 67.2663 69.2644 67.3536 69.248 67.4514C69.2317 67.5492 69.2549 67.6495 69.3125 67.7302C69.3701 67.8109 69.4574 67.8654 69.5552 67.8817V67.8852Z" fill="white"/>
<path d="M71.9839 67.5331C71.7798 67.4996 71.0283 67.5436 70.9948 67.7478C70.9614 67.9519 71.6566 68.2371 71.859 68.2758C71.9074 68.284 71.957 68.2826 72.0048 68.2716C72.0527 68.2607 72.098 68.2404 72.138 68.212C72.178 68.1835 72.2121 68.1475 72.2382 68.1059C72.2643 68.0643 72.282 68.018 72.2902 67.9695C72.2984 67.9211 72.297 67.8716 72.286 67.8237C72.2751 67.7758 72.2548 67.7306 72.2264 67.6905C72.1979 67.6505 72.1619 67.6164 72.1203 67.5903C72.0787 67.5642 72.0324 67.5465 71.9839 67.5383V67.5331Z" fill="white"/>
<path d="M69.7876 66.975C69.9072 67.1422 70.4687 67.6421 70.6376 67.5224C70.8066 67.4027 70.5162 66.7075 70.3948 66.5403C70.3662 66.5004 70.3301 66.4666 70.2885 66.4407C70.2468 66.4148 70.2005 66.3973 70.1521 66.3893C70.1038 66.3813 70.0543 66.3829 70.0065 66.394C69.9588 66.4051 69.9137 66.4255 69.8738 66.4541C69.8339 66.4826 69.8001 66.5187 69.7742 66.5604C69.7483 66.602 69.7308 66.6483 69.7228 66.6967C69.7148 66.7451 69.7164 66.7945 69.7275 66.8423C69.7386 66.8901 69.759 66.9352 69.7876 66.975Z" fill="white"/>
<path d="M71.7535 68.4446C71.6338 68.2686 71.0706 67.7758 70.9034 67.8955C70.7362 68.0152 71.0248 68.7104 71.1445 68.8776C71.2019 68.9583 71.2891 69.0129 71.3868 69.0295C71.4845 69.046 71.5847 69.023 71.6655 68.9656C71.7462 68.9081 71.8009 68.821 71.8174 68.7233C71.8339 68.6256 71.8109 68.5254 71.7535 68.4446Z" fill="white"/>
<path d="M70.0357 68.6929C70.2029 68.5732 70.7028 68.01 70.5831 67.8428C70.4634 67.6756 69.77 67.9643 69.601 68.084C69.5272 68.1442 69.4791 68.2302 69.4665 68.3246C69.4538 68.419 69.4776 68.5147 69.5329 68.5922C69.5882 68.6698 69.671 68.7233 69.7644 68.742C69.8578 68.7607 69.9548 68.7431 70.0357 68.6929Z" fill="white"/>
<path d="M71.5051 66.7268C71.3291 66.8464 70.8363 67.4079 70.956 67.5768C71.0757 67.7458 71.7709 67.4536 71.9381 67.334C71.9799 67.3063 72.0158 67.2706 72.0435 67.2288C72.0712 67.187 72.0902 67.1401 72.0994 67.0908C72.1086 67.0415 72.1077 66.9909 72.0969 66.9419C72.0861 66.893 72.0655 66.8467 72.0364 66.8059C72.0073 66.7651 71.9703 66.7306 71.9275 66.7044C71.8848 66.6782 71.8372 66.6609 71.7876 66.6535C71.738 66.6461 71.6874 66.6488 71.6389 66.6614C71.5904 66.674 71.5449 66.6962 71.5051 66.7268Z" fill="white"/>
</g>
<path d="M70.3332 67.6367C70.3191 67.7228 70.3309 67.8112 70.3669 67.8906C70.403 67.97 70.4618 68.037 70.5359 68.083C70.61 68.1291 70.696 68.1522 70.7832 68.1494C70.8704 68.1466 70.9548 68.1181 71.0258 68.0674C71.0968 68.0168 71.1512 67.9462 71.1822 67.8646C71.2131 67.7831 71.2192 67.6942 71.1997 67.6092C71.1803 67.5241 71.136 67.4468 71.0726 67.3869C71.0093 67.3269 70.9295 67.2871 70.8436 67.2724C70.7861 67.2626 70.7273 67.2643 70.6704 67.2773C70.6136 67.2903 70.5599 67.3144 70.5125 67.3483C70.4651 67.3822 70.4248 67.4251 70.394 67.4746C70.3632 67.5241 70.3425 67.5792 70.3332 67.6367Z" fill="#FD8954"/>
<path d="M68.9726 72.5771C69.1609 70.9808 68.5854 69.0994 67.4555 67.9554C67.7513 68.3169 67.9419 68.7529 68.0063 69.2155C67.5889 68.3319 66.8892 67.6123 66.0175 67.1704C66.4514 67.7043 66.7977 68.3037 67.0436 68.9462C66.6596 68.4827 66.1527 68.1369 65.5811 67.9483C66.5738 69.135 67.2533 70.5515 67.5575 72.0685C67.5681 72.1248 67.5364 72.3994 67.5575 72.4539C68.0539 72.5208 68.4639 72.512 68.9726 72.5771Z" fill="#FD8954"/>
<path opacity="0.2" d="M68.9726 72.5771C69.1609 70.9808 68.5854 69.0994 67.4555 67.9554C67.7513 68.3169 67.9419 68.7529 68.0063 69.2155C67.5889 68.3319 66.8892 67.6123 66.0175 67.1704C66.4514 67.7043 66.7977 68.3037 67.0436 68.9462C66.6596 68.4827 66.1527 68.1369 65.5811 67.9483C66.5738 69.135 67.2533 70.5515 67.5575 72.0685C67.5681 72.1248 67.5364 72.3994 67.5575 72.4539C68.0539 72.5208 68.4639 72.512 68.9726 72.5771Z" fill="white"/>
<path d="M68.9075 72.5771C68.8649 72.1747 68.9081 71.7679 69.0343 71.3835C69.1605 70.9992 69.3669 70.6459 69.6397 70.3472C69.497 70.522 69.4051 70.7326 69.3739 70.9561C69.576 70.5302 69.9132 70.183 70.3331 69.9688C70.1242 70.2267 69.9573 70.5159 69.8386 70.8259C70.0234 70.6023 70.2673 70.4352 70.5426 70.3436C70.0643 70.9181 69.737 71.6029 69.5904 72.336C69.5904 72.3624 69.601 72.4944 69.5904 72.512C69.344 72.5489 69.1504 72.5454 68.9075 72.5771Z" fill="#FD8954"/>
<path d="M42.8719 29.3516C42.8925 29.0522 42.9958 28.7643 43.1705 28.5203C43.3451 28.2762 43.5841 28.0854 43.8609 27.9693C44.1377 27.8532 44.4412 27.8163 44.7377 27.8627C45.0343 27.9092 45.312 28.0371 45.5401 28.2322L45.5612 28.2498C46.2405 28.8588 46.6172 29.7265 46.9797 30.566C47.4778 31.7311 47.3423 31.5199 47.8404 32.678C47.9425 32.9156 48.3965 34.2109 48.474 34.4573C49.9101 35.4553 51.7053 37.1079 53.2436 37.8823C53.1873 38.4737 53.2735 38.7852 53.2172 39.3765C50.6898 39.0545 48.8436 38.537 47.5852 37.8348C46.3274 37.1372 45.2908 36.1005 44.5932 34.8428C43.8892 33.4964 43.4369 32.0356 42.9898 30.5836C42.8742 30.1838 42.8342 29.766 42.8719 29.3516Z" fill="#DD8C6A"/>
<path d="M53.1995 37.8842L54.6937 37.6836C54.8612 37.6611 55.0316 37.6776 55.1916 37.732C55.3516 37.7864 55.4969 37.877 55.616 37.9969L56.1035 38.4879C56.2256 38.6109 56.3015 38.7724 56.3181 38.945C56.3348 39.1176 56.2913 39.2906 56.195 39.4348L56.1299 39.5316C56.0311 39.6792 55.8831 39.7869 55.7123 39.8356C55.5414 39.8843 55.3589 39.8707 55.1971 39.7973L54.34 39.4119L53.1731 39.3785L53.1995 37.8842Z" fill="#DD8C6A"/>
<path d="M45.445 62.6614L42.9529 62.6191L43.1606 67.4046L44.9769 67.5647L45.445 62.6614Z" fill="#DD8C6A"/>
<path opacity="0.2" d="M45.4433 62.6633L42.9512 62.6211L43.0409 64.4621L45.2814 64.5219L45.4433 62.6633Z" fill="black"/>
<path d="M42.5921 55.7673C41.5713 52.0467 39.2252 45.7089 40.7776 42.0904L47.7296 41.9707C47.7296 41.9707 48.071 51.2987 47.8545 54.7835C47.6398 58.4126 45.6052 63.888 45.6052 63.888L42.7505 63.9355C42.7505 63.9355 42.182 59.84 42.5921 55.7673Z" fill="#263238"/>
<path opacity="0.2" d="M40.2426 48.3142C40.3746 48.6574 42.1786 53.8564 42.1786 53.8564C42.5136 52.3334 42.6806 50.7782 42.6766 49.2188C42.6661 46.6562 42.4514 44.5601 42.4514 44.5601L39.396 43.5146L40.2426 48.3142Z" fill="black"/>
<path d="M37.0887 62.9166L34.7391 62.0806L33.9207 64.9159L35.2266 67.0825L37.0887 62.9166Z" fill="#DD8C6A"/>
<path opacity="0.2" d="M37.0867 62.9168L34.7371 62.0825L34.2795 63.6683L36.4127 64.4304L37.0867 62.9168Z" fill="black"/>
<path d="M35.4184 55.2644C35.1826 51.4135 33.6408 44.7044 35.9007 41.4854L43.7221 42.9866C43.7221 42.9866 41.6963 52.0084 40.7706 55.3788C39.8131 58.8847 36.9092 63.6613 36.9092 63.6613L34.1055 63.1228C34.1055 63.1228 34.1776 59.1628 35.4184 55.2644Z" fill="#263238"/>
<path d="M35.5662 66.528C35.5614 66.52 35.5588 66.5109 35.5588 66.5016C35.5588 66.4923 35.5614 66.4831 35.5662 66.4752C35.5708 66.4669 35.5778 66.4603 35.5863 66.4562C35.5948 66.4521 35.6044 66.4507 35.6137 66.4523C35.6472 66.4523 36.404 66.5649 36.6011 66.8289C36.6395 66.879 36.6566 66.9423 36.6486 67.0049C36.6467 67.0398 36.6345 67.0733 36.6135 67.1012C36.5925 67.1291 36.5637 67.1501 36.5307 67.1616C36.4057 67.195 36.1787 67.0788 36.0027 66.9328C35.8456 66.8109 35.6995 66.6754 35.5662 66.528ZM35.7176 66.5702C35.971 66.8219 36.3529 67.114 36.499 67.07C36.5184 67.07 36.543 67.0524 36.5518 66.9873C36.5548 66.9687 36.5535 66.9497 36.548 66.9317C36.5425 66.9137 36.533 66.8972 36.5201 66.8835C36.5033 66.8596 36.4824 66.8387 36.4585 66.8219C36.2303 66.6899 35.9787 66.6032 35.7176 66.5667V66.5702Z" fill="#FD8954"/>
<path d="M35.5521 66.5069C35.5496 66.4995 35.5492 66.4915 35.5507 66.4838C35.5522 66.4761 35.5557 66.4689 35.5609 66.4629C35.5785 66.4453 35.934 66.0705 36.2473 66.0634C36.2923 66.0611 36.3373 66.0682 36.3794 66.0842C36.4215 66.1003 36.4599 66.125 36.4919 66.1567C36.5834 66.2412 36.5746 66.3151 36.5465 66.3591C36.4479 66.5527 35.8425 66.5985 35.5908 66.5351C35.5845 66.5333 35.579 66.5296 35.5749 66.5245C35.5653 66.5219 35.5571 66.5155 35.5521 66.5069ZM36.4162 66.2042C36.3711 66.169 36.315 66.1509 36.2578 66.1532C36.0452 66.1966 35.8507 66.3034 35.6999 66.4594C35.9727 66.4946 36.4039 66.4242 36.4778 66.3151C36.4778 66.3028 36.4972 66.2746 36.4373 66.2183L36.4162 66.2042Z" fill="#FD8954"/>
<path d="M35.5766 66.1938L33.9346 64.9178C33.9042 64.8954 33.8675 64.8833 33.8298 64.8833C33.7921 64.8833 33.7554 64.8954 33.7251 64.9178L32.384 66.0266C32.3555 66.0495 32.3319 66.0778 32.3144 66.1099C32.2969 66.142 32.286 66.1772 32.2822 66.2136C32.2785 66.2499 32.2819 66.2866 32.2925 66.3216C32.303 66.3566 32.3203 66.3891 32.3435 66.4174C32.3558 66.4332 32.37 66.4473 32.3858 66.4596C32.9842 66.9084 33.5368 67.285 34.2725 67.8588C35.1419 68.5346 34.8392 68.4678 35.8565 69.2774C36.4654 69.7631 37.1219 69.1506 36.8878 68.9148C35.8107 67.8342 35.9656 67.3766 35.8318 66.5916C35.7974 66.4326 35.7068 66.2914 35.5766 66.1938Z" fill="#FD8954"/>
<path d="M43.5003 27.1639C41.1924 26.9456 38.8674 26.9827 36.5676 27.2748C35.2353 27.4614 34.299 28.2886 34.4556 31.013C34.7196 35.4711 34.2691 38.3029 34.4556 40.6086C34.489 41.0102 34.6536 41.3898 34.9239 41.6887C35.1942 41.9877 35.5553 42.1894 35.9516 42.263C38.1974 42.6854 42.9916 43.4598 45.9326 43.025C46.5581 42.9357 47.1323 42.6292 47.5545 42.159C47.9767 41.6889 48.22 41.0852 48.2417 40.4537C48.4459 34.5401 46.3585 30.5977 45.3606 28.4857C45.1899 28.1243 44.9291 27.8129 44.6033 27.5815C44.2775 27.35 43.8977 27.2062 43.5003 27.1639Z" fill="#FD8954"/>
<path d="M42.7312 27.794C42.4672 27.5335 42.1909 27.6849 42.0607 27.2942C42.0045 26.9855 42.0574 26.6669 42.2103 26.393L39.0546 24.6929C39.1162 25.8527 39.162 26.7626 38.648 27.2308C38.5002 28.0967 39.9135 29.3604 42.066 29.2636C43.5989 29.195 43.1202 28.1689 42.7312 27.794Z" fill="#DD8C6A"/>
<path opacity="0.2" d="M42.1609 26.4934L39.6687 25.8721C40.2988 26.8612 41.4287 27.405 42.0359 27.1639C42.0195 26.9334 42.0626 26.7025 42.1609 26.4934Z" fill="black"/>
<path d="M38.72 22.8589C38.8186 24.4851 38.9189 25.601 39.8658 26.2926C41.7472 27.6707 42.8807 26.7819 43.2679 25.1451C43.6199 23.665 43.4052 21.2467 41.8036 20.6061C41.449 20.4658 41.0648 20.4176 40.6866 20.466C40.3084 20.5143 39.9487 20.6576 39.6408 20.8825C39.333 21.1074 39.0871 21.4066 38.9261 21.7522C38.7651 22.0978 38.6942 22.4785 38.72 22.8589Z" fill="#DD8C6A"/>
<path d="M38.5722 21.3595C38.5159 22.1316 38.4602 22.9048 38.405 23.6792C38.6954 23.8007 38.933 24.0312 39.2199 24.1474C39.3589 23.3659 39.4716 22.6162 39.6124 21.833C40.7476 21.5971 41.9303 21.4071 43.0215 21.8048C42.9702 21.293 42.7494 20.813 42.3942 20.4409C42.039 20.0688 41.5698 19.826 41.0609 19.7509C40.0365 19.6347 38.6479 20.3317 38.5722 21.3595Z" fill="#263238"/>
<path d="M37.9528 24.3992C38.046 24.5802 38.174 24.7411 38.3296 24.8724C38.4851 25.0038 38.6651 25.1032 38.8592 25.1648C39.3872 25.3267 39.4681 24.899 39.3397 24.3992C39.2235 23.9557 39.0035 23.2869 38.472 23.3432C37.9405 23.3995 37.7275 23.9504 37.9528 24.3992Z" fill="#DD8C6A"/>
<path d="M41.0344 23.4084C41.0344 23.5422 41.1066 23.6478 41.1928 23.6478C41.2791 23.6478 41.3512 23.5386 41.3512 23.4049C41.3512 23.2711 41.2808 23.1655 41.1928 23.1655C41.1048 23.1655 41.0362 23.2694 41.0344 23.4084Z" fill="#263238"/>
<path d="M42.4934 23.3957C42.4934 23.5295 42.5638 23.6351 42.6518 23.6351C42.7398 23.6351 42.8102 23.526 42.8102 23.3922C42.8102 23.2585 42.738 23.1511 42.6518 23.1529C42.5656 23.1546 42.4952 23.262 42.4934 23.3957Z" fill="#263238"/>
<path d="M41.9814 23.394L42.249 24.5116C42.3761 24.5561 42.5133 24.5631 42.6444 24.5319C42.7754 24.5007 42.8947 24.4326 42.9882 24.3356C42.9882 24.3356 42.6062 24.047 42.4742 23.9168C42.1627 23.6123 41.9814 23.394 41.9814 23.394Z" fill="#FF5652"/>
<path d="M40.6561 22.9259C40.6425 22.9259 40.6291 22.9223 40.6174 22.9154C40.5997 22.9041 40.5871 22.8863 40.5825 22.8659C40.5779 22.8454 40.5816 22.824 40.5928 22.8062C40.6567 22.6992 40.745 22.6088 40.8505 22.5424C40.9561 22.476 41.0758 22.4356 41.2 22.4243C41.2207 22.4243 41.2405 22.4324 41.2553 22.4469C41.2701 22.4614 41.2787 22.4811 41.2792 22.5018C41.2792 22.5228 41.2708 22.5429 41.256 22.5578C41.2411 22.5726 41.221 22.581 41.2 22.581C41.1017 22.5906 41.0071 22.6235 40.9241 22.6771C40.8411 22.7307 40.7722 22.8033 40.723 22.889C40.7156 22.9 40.7057 22.9092 40.6941 22.9156C40.6824 22.9221 40.6694 22.9256 40.6561 22.9259Z" fill="#263238"/>
<path d="M43.12 22.9418C43.1075 22.9404 43.0955 22.936 43.0851 22.929C43.0747 22.9219 43.0661 22.9124 43.0602 22.9013C43.0182 22.8136 42.9562 22.737 42.8792 22.6777C42.8021 22.6183 42.7122 22.578 42.6167 22.5599C42.606 22.5639 42.5946 22.5656 42.5833 22.5648C42.5719 22.564 42.5609 22.5608 42.5509 22.5554C42.5409 22.5499 42.5322 22.5424 42.5254 22.5333C42.5186 22.5242 42.5138 22.5138 42.5113 22.5027C42.5089 22.4916 42.5089 22.4801 42.5113 22.4689C42.5137 22.4578 42.5185 22.4474 42.5253 22.4383C42.5322 22.4292 42.5409 22.4217 42.5508 22.4162C42.5608 22.4108 42.5719 22.4076 42.5832 22.4068C42.5992 22.4015 42.6165 22.4015 42.6325 22.4068C42.755 22.4261 42.8709 22.4748 42.9705 22.5487C43.0701 22.6225 43.1504 22.7194 43.2045 22.8309C43.2137 22.8491 43.2154 22.8703 43.2092 22.8897C43.2029 22.9092 43.1892 22.9254 43.171 22.9348C43.1555 22.9433 43.1373 22.9458 43.12 22.9418Z" fill="#263238"/>
<path d="M42.1064 25.0769C41.9636 25.0777 41.8221 25.0493 41.6908 24.9933C41.5594 24.9373 41.4409 24.8549 41.3426 24.7513C41.3364 24.7442 41.333 24.7351 41.333 24.7257C41.333 24.7164 41.3364 24.7073 41.3426 24.7002C41.35 24.6939 41.3593 24.6904 41.369 24.6904C41.3787 24.6904 41.3881 24.6939 41.3954 24.7002C41.5042 24.8107 41.6371 24.8945 41.7836 24.9452C41.9301 24.9959 42.0864 25.012 42.2402 24.9924C42.2452 24.9909 42.2504 24.9904 42.2555 24.991C42.2606 24.9917 42.2656 24.9934 42.27 24.996C42.2745 24.9987 42.2783 25.0023 42.2813 25.0065C42.2842 25.0108 42.2863 25.0156 42.2873 25.0206C42.2883 25.0257 42.2882 25.031 42.287 25.036C42.2859 25.0411 42.2837 25.0458 42.2806 25.0499C42.2774 25.0541 42.2735 25.0575 42.269 25.06C42.2644 25.0625 42.2594 25.0641 42.2543 25.0645C42.2054 25.0724 42.156 25.0765 42.1064 25.0769Z" fill="#263238"/>
<path d="M37.4986 29.0982C37.4766 28.7995 37.3722 28.5128 37.1971 28.2699C37.022 28.0269 36.783 27.8372 36.5066 27.7218C36.2303 27.6064 35.9274 27.5699 35.6315 27.6162C35.3356 27.6625 35.0584 27.7898 34.8305 27.9841L34.8111 28.0035C34.13 28.6124 33.7551 29.4801 33.3908 30.3196C32.8927 31.4847 33.0282 31.2735 32.5302 32.4316C32.4281 32.671 31.9758 33.9663 31.8966 34.2127C30.4604 35.2089 29.019 37.1167 27.4807 37.8911C27.5353 38.4825 27.4508 38.794 27.5071 39.3854C30.0345 39.0633 31.8807 38.5459 33.1391 37.8436C34.2215 37.2399 35.0751 35.9375 35.7791 34.5911C36.4831 33.2447 36.9337 31.7751 37.3825 30.3319C37.4968 29.9313 37.5361 29.5131 37.4986 29.0982Z" fill="#DD8C6A"/>
<path d="M27.5247 37.8841L26.0305 37.6835C25.8627 37.6611 25.6921 37.6777 25.5318 37.7321C25.3716 37.7864 25.226 37.877 25.1065 37.9968L24.6207 38.4878C24.4986 38.6109 24.4228 38.7724 24.4061 38.9449C24.3894 39.1175 24.4329 39.2905 24.5292 39.4347L24.5943 39.5315C24.6931 39.6791 24.8411 39.7868 25.012 39.8355C25.1828 39.8842 25.3654 39.8706 25.5271 39.7972L26.3842 39.4118L27.5511 39.3784L27.5247 37.8841Z" fill="#DD8C6A"/>
<g opacity="0.6">
<path d="M43.5512 32.5215C43.5512 32.5215 44.5861 35.1896 44.3819 38.1412L44.3397 38.7343H42.3949L42.5304 37.4372C42.6606 36.1833 42.615 34.9173 42.3949 33.676H41.1523V32.5215H43.5512Z" fill="white"/>
</g>
<path d="M45.0719 67.3185C45.0643 67.3134 45.0583 67.3062 45.0549 67.2977C45.0514 67.2893 45.0506 67.2799 45.0525 67.271C45.0548 67.262 45.0597 67.2538 45.0666 67.2476C45.0735 67.2413 45.082 67.2372 45.0912 67.2358C45.1247 67.2358 45.8832 67.1355 46.1472 67.3379C46.1963 67.3752 46.2291 67.4301 46.2387 67.491C46.2448 67.5242 46.2413 67.5584 46.2285 67.5896C46.2157 67.6208 46.1942 67.6477 46.1666 67.667C46.0539 67.7321 45.8146 67.6776 45.5928 67.5878C45.4114 67.514 45.237 67.4239 45.0719 67.3185ZM45.2303 67.3185C45.54 67.4945 45.9853 67.6705 46.1103 67.5948C46.1279 67.586 46.149 67.5649 46.1384 67.4998C46.1367 67.4812 46.1307 67.4633 46.1209 67.4475C46.1112 67.4316 46.0979 67.4182 46.0821 67.4083C46.059 67.3903 46.0335 67.3755 46.0064 67.3643C45.7534 67.3005 45.4906 67.2856 45.232 67.3203L45.2303 67.3185Z" fill="#FD8954"/>
<path d="M45.0562 67.3079C45.0523 67.3009 45.0503 67.293 45.0503 67.285C45.0503 67.277 45.0523 67.2691 45.0562 67.2621C45.0685 67.241 45.3114 66.7869 45.6123 66.6954C45.6554 66.6814 45.7009 66.6764 45.746 66.6807C45.7911 66.6849 45.8348 66.6983 45.8746 66.72C45.9837 66.7799 45.996 66.852 45.9802 66.896C45.9362 67.109 45.3554 67.3149 45.1002 67.322C45.0944 67.3235 45.0883 67.3235 45.0826 67.322C45.0726 67.3199 45.0634 67.315 45.0562 67.3079ZM45.8094 66.7799C45.756 66.7605 45.6975 66.7605 45.644 66.7799C45.4494 66.8771 45.2896 67.032 45.1864 67.2234C45.4592 67.1847 45.8587 66.9999 45.8904 66.8714C45.8904 66.8591 45.8992 66.8274 45.827 66.7904H45.8024L45.8094 66.7799Z" fill="#FD8954"/>
<path d="M44.9944 66.9981L43.0743 66.2026C43.0393 66.1877 43.0002 66.1854 42.9636 66.196C42.9271 66.2066 42.8953 66.2294 42.8736 66.2607L41.8775 67.6792C41.8349 67.7393 41.8178 67.8137 41.83 67.8863C41.8422 67.9589 41.8827 68.0237 41.9426 68.0664C41.9586 68.0781 41.9757 68.0881 41.9936 68.0964C42.6976 68.3709 43.3224 68.5874 44.1848 68.9464C45.2021 69.3688 44.8888 69.3829 46.0821 69.8968C46.7984 70.2048 47.2701 69.441 46.9815 69.2738C45.6562 68.517 45.6861 68.0418 45.3535 67.3114C45.2764 67.1663 45.1486 67.0548 44.9944 66.9981Z" fill="#FD8954"/>
<path d="M38.479 23.0982C38.4055 23.0974 38.3333 23.0782 38.269 23.0425C38.2047 23.0068 38.1503 22.9557 38.1106 22.8937C38.071 22.8317 38.0474 22.7609 38.042 22.6875C38.0366 22.6141 38.0495 22.5406 38.0795 22.4734C38.5899 21.3664 40.5259 20.68 41.9515 20.7557C43.0075 20.812 43.7309 21.2555 43.9843 22.0018C44.0028 22.0565 44.0103 22.1144 44.0065 22.1721C44.0026 22.2298 43.9874 22.2861 43.9617 22.3379C43.9361 22.3898 43.9004 22.436 43.8569 22.474C43.8134 22.5121 43.7628 22.5412 43.708 22.5597C43.6532 22.5782 43.5953 22.5857 43.5377 22.5818C43.48 22.5779 43.4236 22.5627 43.3718 22.5371C43.32 22.5114 43.2738 22.4758 43.2357 22.4323C43.1977 22.3887 43.1686 22.3381 43.1501 22.2834C42.9741 21.7677 42.2947 21.655 41.904 21.6339C40.6949 21.5688 39.1971 22.1619 38.8856 22.8413C38.8501 22.9189 38.7927 22.9846 38.7205 23.0302C38.6483 23.0759 38.5644 23.0995 38.479 23.0982Z" fill="#FD8954"/>
<g opacity="0.5">
<path d="M38.479 23.0982C38.4055 23.0974 38.3333 23.0782 38.269 23.0425C38.2047 23.0068 38.1503 22.9557 38.1106 22.8937C38.071 22.8317 38.0474 22.7609 38.042 22.6875C38.0366 22.6141 38.0495 22.5406 38.0795 22.4734C38.5899 21.3664 40.5259 20.68 41.9515 20.7557C43.0075 20.812 43.7309 21.2555 43.9843 22.0018C44.0028 22.0565 44.0103 22.1144 44.0065 22.1721C44.0026 22.2298 43.9874 22.2861 43.9617 22.3379C43.9361 22.3898 43.9004 22.436 43.8569 22.474C43.8134 22.5121 43.7628 22.5412 43.708 22.5597C43.6532 22.5782 43.5953 22.5857 43.5377 22.5818C43.48 22.5779 43.4236 22.5627 43.3718 22.5371C43.32 22.5114 43.2738 22.4758 43.2357 22.4323C43.1977 22.3887 43.1686 22.3381 43.1501 22.2834C42.9741 21.7677 42.2947 21.655 41.904 21.6339C40.6949 21.5688 39.1971 22.1619 38.8856 22.8413C38.8501 22.9189 38.7927 22.9846 38.7205 23.0302C38.6483 23.0759 38.5644 23.0995 38.479 23.0982Z" fill="white"/>
</g>
<path d="M25.4515 39.3995L24.6613 39.667C24.6044 39.6851 24.545 39.694 24.4853 39.6934C24.3676 39.6841 24.2564 39.6355 24.1695 39.5556C24.0826 39.4756 24.025 39.3688 24.0059 39.2522C23.9869 39.1357 24.0075 39.0161 24.0644 38.9126C24.1213 38.8092 24.2112 38.7277 24.3198 38.6814L25.1435 38.4033C25.2661 38.5357 25.3575 38.694 25.4108 38.8664C25.4641 39.0388 25.478 39.221 25.4515 39.3995Z" fill="#263238"/>
<path d="M24.2055 39.498L24.0682 39.0914C24.0471 39.0281 24.0101 38.9806 23.9855 38.9841L23.0756 39.1231C23.0192 39.1231 22.9999 39.2164 23.0316 39.315L23.2463 39.9485C23.2797 40.0453 23.3466 40.1017 23.3976 40.0753L24.2037 39.6335C24.2266 39.6212 24.2266 39.5613 24.2055 39.498Z" fill="#263238"/>
<path d="M55.1621 39.3661L55.9524 39.6336C56.0061 39.6522 56.0626 39.6617 56.1196 39.6618C56.238 39.6532 56.35 39.6049 56.4376 39.5248C56.5253 39.4447 56.5833 39.3374 56.6025 39.2202C56.6216 39.103 56.6006 38.9828 56.543 38.879C56.4854 38.7752 56.3945 38.6938 56.285 38.648L55.4613 38.3682C55.3399 38.5015 55.25 38.6604 55.1982 38.8331C55.1464 39.0058 55.1341 39.188 55.1621 39.3661Z" fill="#263238"/>
<path d="M56.4082 39.4648L56.5455 39.0582C56.5666 38.9949 56.6036 38.9473 56.6282 38.9509L57.5381 39.0899C57.5927 39.0987 57.6138 39.1849 57.5804 39.2817L57.3674 39.9153C57.334 40.0121 57.2653 40.0685 57.216 40.0421L56.41 39.6003C56.3871 39.588 56.3871 39.5281 56.4082 39.4648Z" fill="#263238"/>
<path d="M41.9057 73.4804H39.9521C35.883 73.4029 32.4738 71.87 29.818 68.9255C25.4866 64.1242 23.9044 56.338 23.3412 50.6532C22.9708 46.9 22.9067 43.1229 23.1494 39.3592C23.1515 39.3359 23.1628 39.3144 23.1807 39.2993C23.1987 39.2843 23.2219 39.2771 23.2453 39.2792C23.2686 39.2813 23.2902 39.2926 23.3052 39.3105C23.3202 39.3285 23.3275 39.3517 23.3254 39.3751C23.3078 39.5757 21.7167 59.6802 29.9482 68.8076C32.5706 71.7151 35.9322 73.2287 39.9538 73.3044H41.9057C45.7249 73.3044 48.9122 71.9175 51.3833 69.1824C59.4564 60.2399 57.4482 39.5828 57.4271 39.3751C57.4259 39.3637 57.4269 39.3523 57.4302 39.3414C57.4334 39.3304 57.4388 39.3202 57.446 39.3114C57.4532 39.3026 57.4621 39.2952 57.4721 39.2899C57.4822 39.2845 57.4932 39.2811 57.5046 39.28C57.5277 39.2776 57.5508 39.2843 57.5689 39.2988C57.587 39.3133 57.5987 39.3344 57.6014 39.3575C57.9221 43.2 57.9356 47.0619 57.6418 50.9066C57.2001 56.7005 55.7639 64.5924 51.5135 69.3004C49.009 72.0741 45.7759 73.4804 41.9057 73.4804Z" fill="#FD8954"/>
</svg>
