<svg width="148" height="148" viewBox="0 0 148 148" fill="none" xmlns="http://www.w3.org/2000/svg">
<path d="M94.9745 12.7281L94.4625 13.0685C90.1557 15.9368 87.6959 20.8977 88.2316 25.9949C88.3015 26.6518 88.4192 27.3028 88.5839 27.9426C89.2137 30.2573 90.4058 32.3805 92.0542 34.1234C93.7026 35.8663 95.7561 37.1748 98.0322 37.9325C100.72 38.8205 103.781 38.9567 105.962 40.7386C108.798 43.0593 109.058 47.1914 109.097 50.8293C109.135 54.4671 109.393 58.6022 112.252 60.911C114.028 62.3555 116.503 62.7374 118.8 62.5183C124.885 61.9263 130.157 57.4597 132.641 51.9422C135.124 46.4248 135.1 40.0549 133.662 34.1822C131.643 25.9653 126.726 18.2811 119.454 13.8411C112.181 9.40111 102.46 8.62263 94.9745 12.7281Z" fill="#F5F5F5"/>
<path d="M35.2368 36.1015C36.749 29.5148 32.6353 22.9493 26.0485 21.4371C19.4618 19.9249 12.8963 24.0386 11.3841 30.6254C9.87187 37.2121 13.9856 43.7776 20.5724 45.2898C27.1591 46.802 33.7246 42.6883 35.2368 36.1015Z" fill="#F5F5F5"/>
<path d="M138.232 133.173C138.232 133.215 109.476 133.25 74.0001 133.25C38.5245 133.25 9.76807 133.215 9.76807 133.173C9.76807 133.132 38.5185 133.096 74.0001 133.096C109.482 133.096 138.232 133.132 138.232 133.173Z" fill="#263238"/>
<path d="M84.8721 47.5523L84.656 45.1695C83.1184 44.0512 82.0546 42.3982 81.6739 40.5354C81.2931 38.6727 81.6228 36.7349 82.5982 35.1029C83.5736 33.4708 85.1242 32.2627 86.9451 31.7159C88.7661 31.169 90.7257 31.3231 92.4389 32.1477C94.152 32.9723 95.4948 34.4079 96.2032 36.1722C96.9117 37.9366 96.9346 39.9021 96.2675 41.6825C95.6003 43.4629 94.2914 44.9294 92.5979 45.7937C90.9045 46.6581 88.949 46.8577 87.1158 46.3535L84.8721 47.5523Z" fill="white"/>
<path d="M84.8722 47.5524L85.0143 47.4814L85.4435 47.2624L87.1484 46.3744C87.1541 46.3683 87.1572 46.3604 87.1572 46.3522C87.1572 46.3439 87.1541 46.336 87.1484 46.33L87.1218 46.3921C88.3456 46.7315 89.6349 46.759 90.8721 46.472C91.6724 46.2871 92.4365 45.9711 93.1336 45.5367C93.9317 45.0558 94.6342 44.4316 95.2056 43.6956C95.8984 42.7985 96.3835 41.7589 96.6258 40.6517C96.8681 39.5445 96.8615 38.3972 96.6067 37.2928C96.3518 36.1884 95.855 35.1544 95.152 34.2653C94.449 33.3762 93.5574 32.6543 92.5416 32.1516C91.4241 31.5957 90.1867 31.3242 88.9392 31.3612C87.7506 31.3928 86.5851 31.6966 85.5323 32.2492C84.5457 32.7769 83.6876 33.5157 83.0192 34.413C82.1764 35.5341 81.6576 36.865 81.5193 38.2607C81.381 39.6565 81.6285 41.0633 82.2348 42.328C82.7849 43.4735 83.6158 44.4612 84.6502 45.1992L84.6354 45.1785C84.7094 45.9511 84.7686 46.549 84.8071 46.9545C84.8278 47.1469 84.8426 47.2979 84.8544 47.4044C84.8663 47.511 84.8722 47.5524 84.8722 47.5524V47.3896C84.8722 47.2801 84.8544 47.1262 84.8396 46.9308C84.81 46.5224 84.7656 45.9304 84.7094 45.1548C84.7112 45.1512 84.7122 45.1471 84.7122 45.143C84.7122 45.1389 84.7112 45.1348 84.7094 45.1312C83.901 44.5388 83.2185 43.7916 82.7015 42.9331C82.1845 42.0746 81.8433 41.1218 81.6979 40.1302C81.5525 39.1387 81.6056 38.1281 81.8543 37.1572C82.103 36.1864 82.5423 35.2747 83.1465 34.4752C83.8051 33.5961 84.6489 32.8726 85.6181 32.3558C86.65 31.8095 87.793 31.5058 88.96 31.4678C90.1822 31.433 91.3941 31.7004 92.4883 32.2463C93.6925 32.842 94.7155 33.7491 95.451 34.8734C96.1866 35.9977 96.6079 37.2984 96.6713 38.6404C96.7347 39.9825 96.4379 41.3171 95.8117 42.5057C95.1855 43.6944 94.2526 44.6939 93.1099 45.4005C92.4239 45.8316 91.672 46.1476 90.884 46.3359C89.6575 46.6273 88.3779 46.609 87.1603 46.2826C87.156 46.2813 87.1515 46.2808 87.147 46.2813C87.1426 46.2818 87.1383 46.2832 87.1344 46.2854C87.1305 46.2876 87.1271 46.2906 87.1244 46.2942C87.1218 46.2978 87.1199 46.3019 87.1188 46.3063C87.1174 46.3134 87.118 46.3209 87.1206 46.3277C87.1233 46.3345 87.1278 46.3404 87.1336 46.3448V46.2885L85.4701 47.1943L85.038 47.434C84.9225 47.5199 84.8722 47.5524 84.8722 47.5524Z" fill="#263238"/>
<path d="M89.922 35.4402L89.6616 39.2882C89.6492 39.4461 89.5789 39.594 89.4642 39.7033C89.3494 39.8125 89.1983 39.8755 89.04 39.8802C88.8742 39.894 88.7094 39.8441 88.5791 39.7408C88.4487 39.6374 88.3627 39.4883 88.3384 39.3237L87.8856 35.4431C87.8791 35.3716 87.8881 35.2996 87.9118 35.2319C87.9356 35.1641 87.9735 35.1022 88.0232 35.0504C88.0728 34.9985 88.1329 34.9578 88.1996 34.9311C88.2662 34.9044 88.3378 34.8923 88.4095 34.8955H89.41C89.4803 34.8945 89.5501 34.9081 89.6148 34.9356C89.6796 34.963 89.7379 35.0037 89.7861 35.0549C89.8343 35.1062 89.8713 35.1669 89.8947 35.2332C89.9181 35.2996 89.9274 35.37 89.922 35.4402Z" fill="#01AB6C"/>
<path d="M88.208 42.3281C88.3025 42.5694 88.4859 42.7653 88.7205 42.8755C88.9551 42.9856 89.223 43.0016 89.469 42.9201C89.5896 42.886 89.7021 42.8279 89.7998 42.7493C89.8974 42.6707 89.9783 42.5733 90.0374 42.4628C90.0965 42.3522 90.1328 42.2309 90.1439 42.1061C90.1551 41.9812 90.141 41.8554 90.1024 41.7361C90.008 41.4948 89.8246 41.2989 89.59 41.1887C89.3554 41.0786 89.0875 41.0626 88.8415 41.1441C88.7209 41.1782 88.6084 41.2363 88.5107 41.3149C88.413 41.3935 88.3322 41.4909 88.2731 41.6015C88.214 41.712 88.1777 41.8333 88.1666 41.9582C88.1554 42.083 88.1695 42.2088 88.208 42.3281Z" fill="#01AB6C"/>
<path d="M112.255 76.5575C116.269 75.2344 119.554 72.008 121.188 68.1126C122.822 64.2173 122.852 59.721 121.517 55.7102C120.182 51.6994 117.527 48.1859 114.206 45.5752C111.28 49.1459 109.639 53.5962 109.547 58.2114L114.102 60.1177C112.845 60.7922 111.461 61.1955 110.038 61.3017C109.827 64.4918 109.82 67.6922 110.017 70.8832L114.058 71.7712L110.47 72.8634L111.778 76.5398L112.211 76.3" fill="#455A64"/>
<path d="M116.307 52.7681C116.346 52.841 116.377 52.9173 116.402 52.996L116.651 53.659C116.704 53.8041 116.763 53.955 116.825 54.1385C116.887 54.3221 116.935 54.5115 116.997 54.7305C117.109 55.1509 117.266 55.6185 117.364 56.1661L117.542 57.0097C117.601 57.3057 117.63 57.6017 117.678 57.9333C117.787 58.5726 117.823 59.2623 117.876 59.9875C118.027 63.1438 117.543 66.2983 116.452 69.2641C116.183 69.942 115.943 70.5902 115.65 71.1645C115.508 71.4605 115.384 71.7565 115.242 72.0051C115.1 72.2537 114.946 72.5201 114.818 72.7599C114.564 73.2453 114.274 73.6479 114.037 74.0179C113.916 74.1985 113.809 74.3701 113.699 74.5241L113.389 74.9296L112.956 75.4801C112.909 75.5468 112.855 75.6092 112.797 75.6666C112.834 75.5935 112.879 75.5241 112.93 75.4594L113.341 74.8881L113.637 74.4737C113.741 74.3228 113.844 74.1481 113.963 73.9646C114.191 73.5946 114.475 73.1891 114.721 72.7007L115.132 71.9459C115.274 71.6825 115.393 71.3953 115.532 71.1053C115.828 70.531 116.053 69.8828 116.313 69.2109C116.835 67.733 117.223 66.2114 117.473 64.6643C117.697 63.113 117.783 61.5451 117.731 59.9786C117.681 59.2564 117.651 58.5697 117.55 57.9362C117.503 57.6165 117.476 57.3087 117.42 57.0157C117.364 56.7226 117.308 56.4414 117.254 56.1721C117.166 55.6333 117.018 55.1597 116.911 54.7394C116.852 54.5293 116.807 54.3309 116.751 54.1474C116.695 53.9639 116.639 53.8129 116.591 53.6649C116.5 53.3689 116.426 53.1617 116.372 52.996C116.343 52.9223 116.322 52.8459 116.307 52.7681Z" fill="#263238"/>
<g opacity="0.2">
<path d="M112.255 76.5575C116.269 75.2344 119.554 72.008 121.188 68.1126C122.822 64.2173 122.852 59.721 121.517 55.7102C120.182 51.6994 117.527 48.1859 114.206 45.5752C111.28 49.1459 109.639 53.5962 109.547 58.2114L114.102 60.1177C112.845 60.7922 111.461 61.1955 110.038 61.3017C109.827 64.4918 109.82 67.6922 110.017 70.8832L114.058 71.7712L110.47 72.8634L111.778 76.5398L112.211 76.3" fill="black"/>
</g>
<path d="M114.703 75.9801C115.014 71.765 117.349 67.7957 120.732 65.2678C124.116 62.74 128.473 61.6211 132.685 61.9467C136.897 62.2723 140.952 63.9921 144.291 66.585C141.535 70.2881 137.614 72.9578 133.158 74.1656L130.198 70.2081C129.848 71.5909 129.791 73.0319 130.033 74.4379C126.989 75.415 123.885 76.196 120.741 76.7763C120.126 75.543 119.509 74.3096 118.891 73.0763L118.696 76.8207L114.815 76.4389C114.857 76.282 114.901 76.1221 114.943 75.9623" fill="#455A64"/>
<path d="M136.802 66.286C136.72 66.2932 136.636 66.2932 136.554 66.286L135.852 66.2357L135.343 66.1943C135.157 66.1943 134.955 66.1943 134.751 66.1943C134.316 66.1943 133.822 66.1617 133.271 66.1943L132.416 66.2357C132.12 66.2535 131.809 66.3008 131.489 66.3364C130.85 66.3896 130.175 66.5288 129.464 66.656C126.385 67.2844 123.459 68.5103 120.851 70.2643C120.259 70.6816 119.691 71.0664 119.202 71.4838C118.953 71.688 118.702 71.8745 118.483 72.0758L117.849 72.6678C117.438 73.0289 117.112 73.4019 116.807 73.7127C116.659 73.8696 116.511 74.0087 116.39 74.1508L116.065 74.5415L115.606 75.0772C115.555 75.1424 115.499 75.2028 115.437 75.2578C115.481 75.1887 115.53 75.1225 115.582 75.0595C115.689 74.9204 115.834 74.7339 116.017 74.503L116.334 74.1034C116.455 73.9613 116.597 73.8074 116.745 73.6535C117.041 73.3368 117.364 72.9549 117.775 72.5908L118.403 71.9988C118.625 71.7946 118.874 71.6081 119.119 71.4068C119.608 70.9836 120.179 70.5928 120.771 70.1696C123.388 68.3914 126.335 67.1573 129.438 66.5406C130.154 66.4163 130.832 66.2831 131.477 66.2446C131.797 66.212 132.108 66.1676 132.407 66.1528L133.268 66.1203C133.816 66.0848 134.313 66.1203 134.748 66.1203C134.964 66.1203 135.168 66.1203 135.355 66.1469L135.861 66.2002L136.565 66.2801C136.644 66.2769 136.724 66.2789 136.802 66.286Z" fill="#263238"/>
<path d="M114.798 76.7734C108.303 86.9736 107.957 100.776 113.93 111.287C110.611 111.581 107.27 111.544 103.958 111.178C102.532 104.988 102.428 98.5679 103.652 92.3357C104.877 86.1035 107.401 80.1995 111.062 75.0093" fill="#AE7461"/>
<path d="M112.808 77.5314C114.803 73.8077 114.957 69.2049 113.457 65.2563C111.956 61.3077 108.872 58.0309 105.139 56.0507C101.406 54.0705 97.0611 53.3512 92.855 53.7508C93.1956 58.3526 95.0719 62.7067 98.183 66.1147L102.798 64.3387C102.352 65.694 101.628 66.9413 100.672 68.0002C102.718 70.4557 104.92 72.7772 107.264 74.9503L110.816 72.8161C110.203 73.9054 109.588 74.9907 108.972 76.0721L112.459 77.8481L112.604 77.3775" fill="#455A64"/>
<path d="M99.3403 57.5127C99.4185 57.5374 99.4939 57.5701 99.5653 57.6104L100.202 57.9064L100.658 58.1343C100.823 58.2201 100.995 58.3297 101.184 58.4303C101.557 58.6553 101.995 58.8891 102.439 59.2147L103.15 59.7031C103.396 59.8748 103.632 60.079 103.887 60.2773C104.405 60.6651 104.908 61.1417 105.444 61.6301C106.577 62.7274 107.607 63.9274 108.519 65.2146C109.41 66.5159 110.18 67.8961 110.819 69.3379C111.092 70.0128 111.364 70.6462 111.55 71.2678C111.645 71.5638 111.758 71.8598 111.832 72.1558C111.906 72.4518 111.98 72.7241 112.048 72.9905C112.199 73.5174 112.267 74.0117 112.344 74.4409C112.379 74.6541 112.421 74.8553 112.447 75.0329L112.5 75.5421L112.572 76.2436C112.584 76.3249 112.589 76.4071 112.586 76.4893C112.564 76.4098 112.549 76.3286 112.542 76.2465C112.515 76.0749 112.483 75.841 112.441 75.548C112.421 75.397 112.4 75.2283 112.373 75.0448C112.347 74.8613 112.299 74.6629 112.258 74.4528C112.166 74.0295 112.092 73.5381 111.935 73.0142L111.713 72.1854C111.633 71.8894 111.521 71.5934 111.417 71.2974C111.228 70.6817 110.949 70.0513 110.677 69.3823C109.412 66.5053 107.597 63.903 105.334 61.7218C104.802 61.2334 104.307 60.7569 103.795 60.3661C103.544 60.1678 103.31 59.9606 103.067 59.7741L102.368 59.2769C101.93 58.9483 101.495 58.7085 101.128 58.4777C100.942 58.3652 100.773 58.2527 100.61 58.1609L100.16 57.9241L99.5387 57.5897C99.471 57.5681 99.4048 57.5424 99.3403 57.5127Z" fill="#263238"/>
<path d="M112.361 76.8002C115.455 73.9201 119.865 72.5941 124.065 73.0381C128.266 73.4821 132.223 75.6251 135.091 78.7272C137.96 81.8293 139.765 85.8312 140.452 90.0166C135.913 90.8598 131.222 90.1541 127.132 88.0127L127.656 83.1021C126.46 83.8788 125.439 84.8972 124.66 86.0917C121.762 84.7417 118.954 83.2062 116.254 81.4948C116.649 80.1727 117.034 78.8485 117.411 77.5225C116.517 78.3966 115.622 79.2689 114.726 80.1391L112.136 77.2205L112.557 76.9601" fill="#455A64"/>
<path d="M135.159 84.7062C135.097 84.6537 135.038 84.5963 134.985 84.5345L134.502 84.0195L134.159 83.6435C134.029 83.5103 133.878 83.3771 133.721 83.2262C133.404 82.9302 133.061 82.572 132.631 82.2316L131.971 81.6958C131.743 81.5064 131.483 81.3318 131.228 81.1394C130.719 80.7457 130.133 80.3875 129.523 79.9968C126.836 78.3667 123.855 77.2777 120.75 76.7911C120.034 76.6964 119.356 76.5899 118.714 76.5662C118.394 76.5484 118.083 76.5129 117.784 76.5099H116.92C116.375 76.4922 115.881 76.5455 115.44 76.5662C115.221 76.581 115.019 76.5869 114.833 76.6046L114.33 76.6668L113.628 76.7526C113.547 76.7646 113.465 76.7705 113.383 76.7704C113.461 76.7461 113.541 76.7292 113.622 76.7201L114.321 76.6076L114.827 76.5306C115.011 76.5099 115.215 76.4981 115.419 76.4803C115.854 76.4507 116.348 76.3886 116.899 76.4004H117.76C118.056 76.4004 118.373 76.43 118.696 76.4478C119.341 76.4685 120.025 76.5691 120.747 76.6609C123.874 77.1347 126.875 78.2308 129.571 79.8843C130.181 80.281 130.77 80.645 131.276 81.0446C131.533 81.243 131.791 81.4176 132.022 81.613C132.253 81.8083 132.466 81.9948 132.676 82.1724C133.102 82.5187 133.442 82.8858 133.756 83.1877C133.91 83.3416 134.052 83.4837 134.185 83.6169L134.52 84.0017L134.982 84.5375C135.046 84.5881 135.105 84.6446 135.159 84.7062Z" fill="#263238"/>
<path d="M78.419 80.5651C78.0076 80.2069 77.4867 79.8695 76.9539 79.9731C76.4684 80.0708 76.1339 80.5059 75.8942 80.9381C75.3022 82.0333 75.0417 83.7086 75.1335 84.9577L80.6894 83.5014C80.1349 82.3817 79.3632 81.3835 78.419 80.5651Z" fill="#01AB6C"/>
<g opacity="0.3">
<path d="M78.419 80.5651C78.0076 80.2069 77.4867 79.8695 76.9539 79.9731C76.4684 80.0708 76.1339 80.5059 75.8942 80.9381C75.3022 82.0333 75.0417 83.7086 75.1335 84.9577L80.6894 83.5014C80.1349 82.3817 79.3632 81.3835 78.419 80.5651Z" fill="black"/>
</g>
<path d="M86.9528 79.3814C86.6153 78.9492 86.1743 78.5171 85.6267 78.523C85.1324 78.523 84.7209 78.89 84.4042 79.2689C83.5991 80.225 83.0337 81.8234 82.8857 83.0666L88.6163 82.7025C88.2899 81.4952 87.7242 80.3658 86.9528 79.3814Z" fill="#01AB6C"/>
<g opacity="0.3">
<path d="M86.9528 79.3814C86.6153 78.9492 86.1743 78.5171 85.6267 78.523C85.1324 78.523 84.7209 78.89 84.4042 79.2689C83.5991 80.225 83.0337 81.8234 82.8857 83.0666L88.6163 82.7025C88.2899 81.4952 87.7242 80.3658 86.9528 79.3814Z" fill="black"/>
</g>
<path d="M95.676 80.885C95.4777 80.3759 95.1787 79.8312 94.6548 79.6803C94.1812 79.5441 93.681 79.772 93.2695 80.0414C92.2217 80.7281 91.2212 82.0956 90.7209 83.2411L96.3154 84.5435C96.3472 83.2937 96.1298 82.05 95.676 80.885Z" fill="#01AB6C"/>
<g opacity="0.3">
<path d="M95.676 80.885C95.4777 80.3759 95.1787 79.8312 94.6548 79.6803C94.1812 79.5441 93.681 79.772 93.2695 80.0414C92.2217 80.7281 91.2212 82.0956 90.7209 83.2411L96.3154 84.5435C96.3472 83.2937 96.1298 82.05 95.676 80.885Z" fill="black"/>
</g>
<path d="M103.304 86.1005C103.357 85.5558 103.337 84.9372 102.937 84.5642C102.537 84.1913 102.028 84.2031 101.537 84.2682C100.294 84.4044 98.7811 85.171 97.8162 85.9673L102.215 89.6614C102.812 88.5592 103.183 87.3484 103.304 86.1005Z" fill="#01AB6C"/>
<g opacity="0.3">
<path d="M103.304 86.1005C103.357 85.5558 103.337 84.9372 102.937 84.5642C102.537 84.1913 102.028 84.2031 101.537 84.2682C100.294 84.4044 98.7811 85.171 97.8162 85.9673L102.215 89.6614C102.812 88.5592 103.183 87.3484 103.304 86.1005Z" fill="black"/>
</g>
<path d="M108.519 92.5678C108.735 92.0676 108.904 91.4697 108.638 90.9931C108.371 90.5165 107.883 90.3745 107.401 90.2738C106.175 90.0252 104.5 90.2945 103.336 90.7563L106.397 95.6077C107.3 94.7457 108.021 93.7122 108.519 92.5678Z" fill="#01AB6C"/>
<g opacity="0.3">
<path d="M108.519 92.5678C108.735 92.0676 108.904 91.4697 108.638 90.9931C108.371 90.5165 107.883 90.3745 107.401 90.2738C106.175 90.0252 104.5 90.2945 103.336 90.7563L106.397 95.6077C107.3 94.7457 108.021 93.7122 108.519 92.5678Z" fill="black"/>
</g>
<path d="M111.968 100.972C112.317 100.551 112.646 100.024 112.524 99.4916C112.415 99.0121 111.974 98.6865 111.536 98.4556C110.432 97.8636 108.747 97.6594 107.504 97.7778L109.073 103.301C110.183 102.725 111.168 101.933 111.968 100.972Z" fill="#01AB6C"/>
<g opacity="0.3">
<path d="M111.968 100.972C112.317 100.551 112.646 100.024 112.524 99.4916C112.415 99.0121 111.974 98.6865 111.536 98.4556C110.432 97.8636 108.747 97.6594 107.504 97.7778L109.073 103.301C110.183 102.725 111.168 101.933 111.968 100.972Z" fill="black"/>
</g>
<path d="M115.191 107.528C115.36 107.01 115.472 106.4 115.162 105.947C114.883 105.542 114.354 105.403 113.862 105.355C112.619 105.219 110.976 105.651 109.863 106.211L113.368 110.76C114.184 109.814 114.804 108.716 115.191 107.528Z" fill="#01AB6C"/>
<g opacity="0.3">
<path d="M115.191 107.528C115.36 107.01 115.472 106.4 115.162 105.947C114.883 105.542 114.354 105.403 113.862 105.355C112.619 105.219 110.976 105.651 109.863 106.211L113.368 110.76C114.184 109.814 114.804 108.716 115.191 107.528Z" fill="black"/>
</g>
<path d="M121.292 113.486C121.268 112.942 121.156 112.332 120.7 112.006C120.297 111.725 119.75 111.784 119.273 111.909C118.062 112.223 116.677 113.202 115.836 114.129L120.723 117.145C121.154 115.975 121.347 114.732 121.292 113.486Z" fill="#01AB6C"/>
<g opacity="0.3">
<path d="M121.292 113.486C121.268 112.942 121.156 112.332 120.7 112.006C120.297 111.725 119.75 111.784 119.273 111.909C118.062 112.223 116.677 113.202 115.836 114.129L120.723 117.145C121.154 115.975 121.347 114.732 121.292 113.486Z" fill="black"/>
</g>
<path d="M129.861 114.439C129.464 114.063 128.973 113.696 128.425 113.782C127.937 113.856 127.582 114.276 127.321 114.694C126.661 115.756 126.333 117.42 126.362 118.672L131.986 117.488C131.486 116.341 130.764 115.305 129.861 114.439Z" fill="#01AB6C"/>
<g opacity="0.3">
<path d="M129.861 114.439C129.464 114.063 128.973 113.696 128.425 113.782C127.937 113.856 127.582 114.276 127.321 114.694C126.661 115.756 126.333 117.42 126.362 118.672L131.986 117.488C131.486 116.341 130.764 115.305 129.861 114.439Z" fill="black"/>
</g>
<path d="M138.91 112.202C138.516 111.823 138.022 111.459 137.474 111.542C136.986 111.619 136.631 112.036 136.37 112.456C135.71 113.519 135.381 115.182 135.411 116.432L141.035 115.248C140.536 114.101 139.814 113.066 138.91 112.202Z" fill="#01AB6C"/>
<g opacity="0.3">
<path d="M138.91 112.202C138.516 111.823 138.022 111.459 137.474 111.542C136.986 111.619 136.631 112.036 136.37 112.456C135.71 113.519 135.381 115.182 135.411 116.432L141.035 115.248C140.536 114.101 139.814 113.066 138.91 112.202Z" fill="black"/>
</g>
<path d="M61.6864 7.29932C61.4732 6.79612 61.1595 6.26332 60.6326 6.11532C60.156 5.98804 59.6617 6.23076 59.2562 6.51196C58.2261 7.22236 57.2612 8.61652 56.7905 9.76796L62.4145 10.9283C62.4134 9.68246 62.1659 8.44916 61.6864 7.29932Z" fill="#01AB6C"/>
<g opacity="0.3">
<path d="M61.6864 7.29932C61.4732 6.79612 61.1595 6.26332 60.6326 6.11532C60.156 5.98804 59.6617 6.23076 59.2562 6.51196C58.2261 7.22236 57.2612 8.61652 56.7905 9.76796L62.4145 10.9283C62.4134 9.68246 62.1659 8.44916 61.6864 7.29932Z" fill="black"/>
</g>
<path d="M69.1721 13.6488C69.3823 13.1456 69.5451 12.5476 69.2757 12.074C69.033 11.6448 68.515 11.4613 68.0325 11.3666C66.8041 11.1268 65.1317 11.411 63.9744 11.8846L67.0764 16.7183C67.9712 15.8438 68.6835 14.8005 69.1721 13.6488Z" fill="#01AB6C"/>
<g opacity="0.3">
<path d="M69.1721 13.6488C69.3823 13.1456 69.5451 12.5476 69.2757 12.074C69.033 11.6448 68.515 11.4613 68.0325 11.3666C66.8041 11.1268 65.1317 11.411 63.9744 11.8846L67.0764 16.7183C67.9712 15.8438 68.6835 14.8005 69.1721 13.6488Z" fill="black"/>
</g>
<path d="M71.2205 21.7294C71.626 21.3653 72.0256 20.8917 71.9842 20.3471C71.9457 19.8557 71.555 19.4591 71.1554 19.1808C70.1431 18.4438 68.5091 17.9968 67.26 17.9258L68.0207 23.6208C69.2026 23.2097 70.2905 22.5666 71.2205 21.7294Z" fill="#01AB6C"/>
<g opacity="0.3">
<path d="M71.2205 21.7294C71.626 21.3653 72.0256 20.8917 71.9842 20.3471C71.9457 19.8557 71.555 19.4591 71.1554 19.1808C70.1431 18.4438 68.5091 17.9968 67.26 17.9258L68.0207 23.6208C69.2026 23.2097 70.2905 22.5666 71.2205 21.7294Z" fill="black"/>
</g>
<path d="M68.1688 29.9434C68.7134 29.9671 69.3291 29.9138 69.6813 29.4964C70.0336 29.0791 69.9921 28.567 69.9122 28.0816C69.708 26.8472 68.8614 25.3791 68.0148 24.4556L64.5635 29.0465C65.6931 29.5838 66.9191 29.8888 68.1688 29.9434Z" fill="#01AB6C"/>
<g opacity="0.3">
<path d="M68.1688 29.9434C68.7134 29.9671 69.3291 29.9138 69.6813 29.4964C70.0336 29.0791 69.9921 28.567 69.9122 28.0816C69.708 26.8472 68.8614 25.3791 68.0148 24.4556L64.5635 29.0465C65.6931 29.5838 66.9191 29.8888 68.1688 29.9434Z" fill="black"/>
</g>
<path d="M68.8111 35.7096C69.2225 35.3514 69.631 34.8867 69.5984 34.3421C69.5688 33.8507 69.184 33.4541 68.7933 33.1581C67.7958 32.4033 66.1708 31.9208 64.9216 31.835L65.5788 37.5418C66.7671 37.1516 67.8659 36.5288 68.8111 35.7096Z" fill="#01AB6C"/>
<g opacity="0.3">
<path d="M68.8111 35.7096C69.2225 35.3514 69.631 34.8867 69.5984 34.3421C69.5688 33.8507 69.184 33.4541 68.7933 33.1581C67.7958 32.4033 66.1708 31.9208 64.9216 31.835L65.5788 37.5418C66.7671 37.1516 67.8659 36.5288 68.8111 35.7096Z" fill="black"/>
</g>
<path d="M68.9678 44.0002C69.3792 43.642 69.7877 43.1773 69.7552 42.6297C69.7256 42.1383 69.3408 41.7417 68.95 41.4457C67.9525 40.6879 66.3275 40.2054 65.0784 40.1226L65.7355 45.8265C66.924 45.4394 68.023 44.8185 68.9678 44.0002Z" fill="#01AB6C"/>
<g opacity="0.3">
<path d="M68.9678 44.0002C69.3792 43.642 69.7877 43.1773 69.7552 42.6297C69.7256 42.1383 69.3408 41.7417 68.95 41.4457C67.9525 40.6879 66.3275 40.2054 65.0784 40.1226L65.7355 45.8265C66.924 45.4394 68.023 44.8185 68.9678 44.0002Z" fill="black"/>
</g>
<path d="M69.1485 52.2882C69.5599 51.9301 69.9684 51.4653 69.9358 50.9207C69.9062 50.4293 69.5214 50.0327 69.1307 49.7367C68.1332 48.9819 66.5082 48.4994 65.259 48.4136L65.9162 54.1205C67.1045 53.7302 68.2033 53.1074 69.1485 52.2882Z" fill="#01AB6C"/>
<g opacity="0.3">
<path d="M69.1485 52.2882C69.5599 51.9301 69.9684 51.4653 69.9358 50.9207C69.9062 50.4293 69.5214 50.0327 69.1307 49.7367C68.1332 48.9819 66.5082 48.4994 65.259 48.4136L65.9162 54.1205C67.1045 53.7302 68.2033 53.1074 69.1485 52.2882Z" fill="black"/>
</g>
<path d="M69.3172 60.5792C69.7286 60.2211 70.1371 59.7563 70.1045 59.2117C70.0749 58.7174 69.6901 58.3237 69.2994 58.0277C68.3019 57.2699 66.6769 56.7904 65.4277 56.7046L66.0849 62.4085C67.2736 62.0206 68.3726 61.3986 69.3172 60.5792Z" fill="#01AB6C"/>
<g opacity="0.3">
<path d="M69.3172 60.5792C69.7286 60.2211 70.1371 59.7563 70.1045 59.2117C70.0749 58.7174 69.6901 58.3237 69.2994 58.0277C68.3019 57.2699 66.6769 56.7904 65.4277 56.7046L66.0849 62.4085C67.2736 62.0206 68.3726 61.3986 69.3172 60.5792Z" fill="black"/>
</g>
<path d="M69.4859 68.8673C69.8973 68.5092 70.3058 68.0444 70.2732 67.4998C70.2436 67.0084 69.8588 66.6118 69.4681 66.3158C68.4706 65.561 66.8456 65.0785 65.5964 64.9927L66.2536 70.6996C67.4419 70.3093 68.5407 69.6865 69.4859 68.8673Z" fill="#01AB6C"/>
<g opacity="0.3">
<path d="M69.4859 68.8673C69.8973 68.5092 70.3058 68.0444 70.2732 67.4998C70.2436 67.0084 69.8588 66.6118 69.4681 66.3158C68.4706 65.561 66.8456 65.0785 65.5964 64.9927L66.2536 70.6996C67.4419 70.3093 68.5407 69.6865 69.4859 68.8673Z" fill="black"/>
</g>
<path d="M69.6546 77.1583C70.066 76.8002 70.4745 76.3354 70.4419 75.7908C70.4123 75.2965 70.0275 74.9028 69.6368 74.6068C68.6393 73.852 67.0143 73.3695 65.7651 73.2837L66.4223 78.9876C67.611 78.5997 68.71 77.9777 69.6546 77.1583Z" fill="#01AB6C"/>
<g opacity="0.3">
<path d="M69.6546 77.1583C70.066 76.8002 70.4745 76.3354 70.4419 75.7908C70.4123 75.2965 70.0275 74.9028 69.6368 74.6068C68.6393 73.852 67.0143 73.3695 65.7651 73.2837L66.4223 78.9876C67.611 78.5997 68.71 77.9777 69.6546 77.1583Z" fill="black"/>
</g>
<path d="M69.8233 85.4464C70.2347 85.0883 70.6432 84.6235 70.6106 84.0789C70.581 83.5875 70.1992 83.1909 69.8055 82.8949C68.808 82.1401 67.183 81.6576 65.9338 81.5718L66.5998 87.2787C67.7856 86.8885 68.8815 86.2656 69.8233 85.4464Z" fill="#01AB6C"/>
<g opacity="0.3">
<path d="M69.8233 85.4464C70.2347 85.0883 70.6432 84.6235 70.6106 84.0789C70.581 83.5875 70.1992 83.1909 69.8055 82.8949C68.808 82.1401 67.183 81.6576 65.9338 81.5718L66.5998 87.2787C67.7856 86.8885 68.8815 86.2656 69.8233 85.4464Z" fill="black"/>
</g>
<path d="M48.9405 15.1966C48.7647 15.7742 48.4256 16.2887 47.9639 16.6779C47.5022 17.0671 46.9378 17.3144 46.3387 17.3899C43.5119 17.7777 39.1548 19.2399 39.3679 24.6508C39.6905 32.6428 50.6899 31.8762 52.4156 31.7548C54.1412 31.6334 64.6019 28.8451 64.6019 28.8451C64.6019 28.8451 69.992 25.9325 67.8372 18.2779C65.6823 10.6234 59.9399 9.17592 55.3519 9.85968C52.3623 10.3037 49.7279 12.4586 48.9405 15.1966Z" fill="#01AB6C"/>
<path d="M52.4214 31.7696L50.4915 96.8008L68.3521 99.5181L65.2767 25.8467L52.4214 31.7696Z" fill="#01AB6C"/>
<path d="M82.9747 114.768L77.7473 129.544C77.7473 129.544 86.6628 134.431 90.5256 133.392L100.533 116.011C100.533 116.011 88.7704 104.757 82.9747 114.768Z" fill="#01AB6C"/>
<g opacity="0.3">
<path d="M82.9747 114.768L77.7473 129.544C77.7473 129.544 86.6628 134.431 90.5256 133.392L100.533 116.011C100.533 116.011 88.7704 104.757 82.9747 114.768Z" fill="black"/>
</g>
<path d="M76.2346 128.911C76.7059 128.378 77.3235 127.995 78.0106 127.81C78.3457 127.703 78.7056 127.703 79.0407 127.81C79.2223 127.888 79.3863 128.002 79.523 128.145C79.6598 128.288 79.7665 128.457 79.8369 128.642C79.9741 129.012 80.0617 129.399 80.0974 129.793C80.1281 129.946 80.1281 130.104 80.0974 130.258C80.0813 130.334 80.0434 130.404 79.9882 130.459C79.933 130.514 79.863 130.552 79.7866 130.568C79.6975 130.574 79.6082 130.559 79.5261 130.524C78.3799 130.107 77.2806 129.57 76.2465 128.923" fill="#263238"/>
<path d="M79.4255 130.444C79.8972 129.911 80.5145 129.527 81.2015 129.34C81.5374 129.232 81.8987 129.232 82.2346 129.34C82.4161 129.419 82.5801 129.533 82.7169 129.676C82.8537 129.818 82.9604 129.987 83.0308 130.172C83.1683 130.542 83.2559 130.928 83.2913 131.321C83.3194 131.474 83.3194 131.632 83.2913 131.785C83.2747 131.862 83.2366 131.932 83.1816 131.987C83.1265 132.043 83.0568 132.082 82.9805 132.099C82.8914 132.104 82.8024 132.089 82.72 132.055C81.5739 131.635 80.4739 131.098 79.4374 130.453" fill="#263238"/>
<path d="M50.4917 96.7918C50.7285 97.5081 47.1439 124.998 77.2619 121.656C107.38 118.314 110.488 111.379 110.488 111.379C110.488 111.379 110.488 84.422 88.3471 82.421C88.3471 82.421 70.7913 81.1926 67.4436 91.7095L50.4917 96.7918Z" fill="#01AB6C"/>
<path d="M123.748 117.621C118.835 116.686 114.954 112.85 112.258 108.638C109.561 104.426 107.729 99.7075 105.003 95.5132L100.104 114.457C102.647 117.612 105.855 120.166 109.501 121.936C113.146 123.706 117.137 124.647 121.189 124.694C125.241 124.74 129.253 123.89 132.938 122.204C136.622 120.518 139.889 118.039 142.503 114.943C136.16 115.091 129.994 118.808 123.748 117.621Z" fill="#01AB6C"/>
<path d="M64.5279 114.768L59.2976 129.544C59.2976 129.544 68.2131 134.431 72.0789 133.392L82.0866 116.011C82.0866 116.011 70.3206 104.757 64.5279 114.768Z" fill="#01AB6C"/>
<path d="M86.136 115.819C86.2662 116.331 88.5958 132.632 102.12 133.531L105.08 120.735L97.7126 110.112C97.7126 110.112 83.1405 104.056 86.136 115.819Z" fill="#01AB6C"/>
<path d="M57.7849 128.911C58.2567 128.378 58.8741 127.996 59.5609 127.81C59.897 127.703 60.2578 127.703 60.594 127.81C60.7755 127.888 60.9394 128.002 61.0757 128.144C61.2121 128.287 61.318 128.457 61.3872 128.642C61.5272 129.011 61.6149 129.399 61.6477 129.793C61.6773 129.947 61.6773 130.104 61.6477 130.258C61.631 130.334 61.5925 130.404 61.5369 130.46C61.4812 130.515 61.4107 130.553 61.334 130.569C61.2449 130.574 61.1558 130.558 61.0735 130.524C59.9275 130.106 58.8283 129.569 57.7938 128.923" fill="#263238"/>
<path d="M60.9758 130.444C61.4463 129.91 62.0641 129.526 62.7518 129.34C63.0867 129.232 63.447 129.232 63.7819 129.34C63.9635 129.419 64.1275 129.533 64.2642 129.676C64.401 129.818 64.5077 129.987 64.5781 130.172C64.7156 130.542 64.8032 130.928 64.8386 131.32C64.8693 131.474 64.8693 131.632 64.8386 131.785C64.8227 131.862 64.7848 131.932 64.7297 131.988C64.6745 132.044 64.6044 132.082 64.5278 132.099C64.4388 132.104 64.3497 132.089 64.2673 132.055C63.1177 131.633 62.0147 131.093 60.9758 130.444Z" fill="#263238"/>
<path d="M57.2079 24.9201C59.7548 24.9201 61.8196 22.8554 61.8196 20.3085C61.8196 17.7615 59.7548 15.6968 57.2079 15.6968C54.6609 15.6968 52.5962 17.7615 52.5962 20.3085C52.5962 22.8554 54.6609 24.9201 57.2079 24.9201Z" fill="white"/>
<path d="M58.8032 52.1079H55.491V52.3299H58.8032V52.1079Z" fill="white"/>
<path d="M56.761 53.2622H55.4526V53.4842H56.761V53.2622Z" fill="white"/>
<path d="M56.761 54.2451H55.4526V54.4671H56.761V54.2451Z" fill="white"/>
<path d="M56.761 55.2275H55.4526V55.4495H56.761V55.2275Z" fill="white"/>
<path d="M56.761 56.2104H55.4526V56.4324H56.761V56.2104Z" fill="white"/>
<path d="M57.5838 57.1929H55.4526V57.4149H57.5838V57.1929Z" fill="white"/>
<path d="M56.761 58.1758H55.4526V58.3978H56.761V58.1758Z" fill="white"/>
<path d="M56.761 59.1587H55.4526V59.3807H56.761V59.1587Z" fill="white"/>
<path d="M56.761 60.1411H55.4526V60.3631H56.761V60.1411Z" fill="white"/>
<path d="M56.761 61.124H55.4526V61.346H56.761V61.124Z" fill="white"/>
<path d="M58.9632 62.1064H55.4526V62.3284H58.9632V62.1064Z" fill="white"/>
<path d="M56.761 63.0835H55.4526V63.3055H56.761V63.0835Z" fill="white"/>
<path d="M56.761 64.0664H55.4526V64.2884H56.761V64.0664Z" fill="white"/>
<path d="M56.761 65.0488H55.4526V65.2708H56.761V65.0488Z" fill="white"/>
<path d="M56.761 66.0317H55.4526V66.2537H56.761V66.0317Z" fill="white"/>
<path d="M57.5838 67.0142H55.4526V67.2362H57.5838V67.0142Z" fill="white"/>
<path d="M56.761 67.9971H55.4526V68.2191H56.761V67.9971Z" fill="white"/>
<path d="M56.761 68.98H55.4526V69.202H56.761V68.98Z" fill="white"/>
<path d="M56.761 69.9624H55.4526V70.1844H56.761V69.9624Z" fill="white"/>
<path d="M56.761 70.9453H55.4526V71.1673H56.761V70.9453Z" fill="white"/>
<path d="M58.9632 71.9312H55.4526V72.1532H58.9632V71.9312Z" fill="white"/>
<path d="M56.761 72.9404H55.4526V73.1624H56.761V72.9404Z" fill="white"/>
<path d="M56.761 73.9229H55.4526V74.1449H56.761V73.9229Z" fill="white"/>
<path d="M56.761 74.9058H55.4526V75.1278H56.761V74.9058Z" fill="white"/>
<path d="M56.761 75.8887H55.4526V76.1107H56.761V75.8887Z" fill="white"/>
<path d="M57.5838 76.8711H55.4526V77.0931H57.5838V76.8711Z" fill="white"/>
<path d="M56.761 77.854H55.4526V78.076H56.761V77.854Z" fill="white"/>
<path d="M56.761 78.8364H55.4526V79.0584H56.761V78.8364Z" fill="white"/>
<path d="M56.761 79.8223H55.4526V80.0443H56.761V79.8223Z" fill="white"/>
<path d="M56.761 80.8052H55.4526V81.0272H56.761V80.8052Z" fill="white"/>
<path d="M58.9632 81.7876H55.4526V82.0096H58.9632V81.7876Z" fill="white"/>
<path d="M56.761 82.7617H55.4526V82.9837H56.761V82.7617Z" fill="white"/>
<path d="M56.761 83.7441H55.4526V83.9661H56.761V83.7441Z" fill="white"/>
<path d="M56.761 84.7271H55.4526V84.9491H56.761V84.7271Z" fill="white"/>
<path d="M56.761 85.7129H55.4526V85.9349H56.761V85.7129Z" fill="white"/>
<path d="M57.5838 86.6953H55.4526V86.9173H57.5838V86.6953Z" fill="white"/>
<path d="M56.761 87.6782H55.4526V87.9002H56.761V87.6782Z" fill="white"/>
<path d="M56.761 88.6606H55.4526V88.8826H56.761V88.6606Z" fill="white"/>
<path d="M56.761 89.6436H55.4526V89.8656H56.761V89.6436Z" fill="white"/>
<path d="M56.761 90.6265H55.4526V90.8485H56.761V90.6265Z" fill="white"/>
<path d="M58.9632 91.6089H55.4526V91.8309H58.9632V91.6089Z" fill="white"/>
<path d="M58.8032 32.0952H55.491V32.3172H58.8032V32.0952Z" fill="white"/>
<path d="M56.761 33.2466H55.4526V33.4686H56.761V33.2466Z" fill="white"/>
<path d="M56.761 34.2295H55.4526V34.4515H56.761V34.2295Z" fill="white"/>
<path d="M56.761 35.2148H55.4526V35.4368H56.761V35.2148Z" fill="white"/>
<path d="M56.761 36.1978H55.4526V36.4198H56.761V36.1978Z" fill="white"/>
<path d="M57.5838 37.1807H55.4526V37.4027H57.5838V37.1807Z" fill="white"/>
<path d="M56.761 38.1631H55.4526V38.3851H56.761V38.1631Z" fill="white"/>
<path d="M56.761 39.146H55.4526V39.368H56.761V39.146Z" fill="white"/>
<path d="M56.761 40.1289H55.4526V40.3509H56.761V40.1289Z" fill="white"/>
<path d="M56.761 41.1113H55.4526V41.3333H56.761V41.1113Z" fill="white"/>
<path d="M58.9632 42.0942H55.4526V42.3162H58.9632V42.0942Z" fill="white"/>
<path d="M56.761 43.0708H55.4526V43.2928H56.761V43.0708Z" fill="white"/>
<path d="M56.761 44.0537H55.4526V44.2757H56.761V44.0537Z" fill="white"/>
<path d="M56.761 45.0361H55.4526V45.2581H56.761V45.0361Z" fill="white"/>
<path d="M56.761 46.019H55.4526V46.241H56.761V46.019Z" fill="white"/>
<path d="M57.5838 47.002H55.4526V47.224H57.5838V47.002Z" fill="white"/>
<path d="M56.761 47.9844H55.4526V48.2064H56.761V47.9844Z" fill="white"/>
<path d="M56.761 48.9673H55.4526V49.1893H56.761V48.9673Z" fill="white"/>
<path d="M56.761 49.9502H55.4526V50.1722H56.761V49.9502Z" fill="white"/>
<path d="M56.761 50.9326H55.4526V51.1546H56.761V50.9326Z" fill="white"/>
<path d="M55.3252 24.5382C56.1799 24.2159 56.9091 23.6287 57.4062 22.8624C57.9033 22.0961 58.1421 21.1908 58.0879 20.279C58.0337 19.3672 57.6892 18.4967 57.1047 17.7947C56.5203 17.0927 55.7267 16.5961 54.8398 16.3774C54.1157 16.8099 53.5242 17.4328 53.1299 18.1783C52.7356 18.9239 52.5535 19.7634 52.6036 20.6053C52.6537 21.4472 52.934 22.2592 53.4139 22.9527C53.8938 23.6462 54.555 24.1946 55.3252 24.5382Z" fill="#263238"/>
<path d="M87.0239 120.197C86.9698 120.183 86.9172 120.165 86.867 120.14C86.7694 120.096 86.6184 120.04 86.4349 119.945C85.9123 119.689 85.4105 119.392 84.9342 119.057C83.347 117.956 82.0511 116.486 81.158 114.773C80.265 113.06 79.8015 111.156 79.8074 109.224C79.8081 108.642 79.8536 108.061 79.9436 107.486C79.9732 107.282 80.0117 107.125 80.0324 107.019C80.0406 106.964 80.0555 106.91 80.0768 106.859C80.0768 106.859 80.0531 107.087 80.0028 107.492C79.937 108.067 79.9093 108.646 79.9199 109.224C79.9398 111.136 80.4097 113.017 81.2917 114.714C82.1736 116.411 83.4427 117.877 84.9963 118.992C85.469 119.331 85.9634 119.638 86.4763 119.912C86.6635 119.998 86.8463 120.093 87.0239 120.197Z" fill="#263238"/>
<path d="M105.08 120.735C105.08 120.735 105.056 120.715 105.018 120.667L104.855 120.46L104.263 119.649L102.135 116.725L102.108 116.689L102.135 116.651C103.688 114.423 104.775 111.903 105.329 109.244C105.883 106.585 105.893 103.842 105.358 101.179C105.302 100.915 105.255 100.708 105.222 100.548C105.202 100.476 105.189 100.401 105.184 100.326C105.212 100.396 105.235 100.469 105.252 100.542C105.293 100.699 105.346 100.906 105.417 101.164C105.595 101.937 105.721 102.721 105.796 103.511C105.895 104.683 105.889 105.862 105.779 107.034C105.438 110.513 104.216 113.849 102.227 116.725V116.651L104.299 119.611L104.873 120.439C104.932 120.528 104.979 120.599 105.018 120.661L105.08 120.735Z" fill="#263238"/>
<path d="M61.8462 121.878C61.851 121.84 61.861 121.803 61.8758 121.768C61.9024 121.685 61.9379 121.585 61.9823 121.472C62.0771 121.206 62.228 120.821 62.4323 120.345C62.9943 119.052 63.6554 117.805 64.4095 116.615V116.695C63.8856 115.94 63.3055 115.111 62.7845 114.194C62.1928 113.199 61.7735 112.111 61.5443 110.976C61.3726 110.042 61.4059 109.081 61.6419 108.161C61.801 107.542 62.0851 106.962 62.4767 106.456C62.582 106.319 62.6988 106.192 62.8259 106.074C62.8667 106.03 62.9124 105.99 62.9621 105.956C62.9292 106.007 62.8905 106.053 62.8467 106.095C62.7667 106.181 62.6572 106.314 62.524 106.492C62.1593 107.003 61.8951 107.578 61.7455 108.188C61.5304 109.094 61.5092 110.035 61.6834 110.95C61.9178 112.066 62.3359 113.137 62.9207 114.117C63.4357 115.025 64.0099 115.854 64.5279 116.612L64.5546 116.653L64.5279 116.692C63.7711 117.873 63.0975 119.105 62.5122 120.38C62.2961 120.851 62.1333 121.23 62.0238 121.49C61.9724 121.623 61.9131 121.752 61.8462 121.878Z" fill="#263238"/>
<path d="M102.283 132.273C101.814 131.889 101.241 131.653 100.637 131.596C100.045 131.581 99.3849 131.957 99.2813 132.552C99.1777 133.147 99.6306 133.709 100.086 134.126C100.569 134.568 101.084 134.973 101.626 135.34C101.653 135.379 101.693 135.408 101.739 135.421C101.785 135.434 101.834 135.431 101.878 135.413C101.922 135.395 101.958 135.362 101.981 135.32C102.005 135.279 102.013 135.23 102.004 135.183C102.138 134.245 102.271 133.309 102.401 132.371" fill="#263238"/>
<path d="M102.798 129.414C102.327 129.029 101.754 128.793 101.149 128.733C100.557 128.719 99.9 129.097 99.7934 129.689C99.6869 130.281 100.146 130.847 100.599 131.264C101.081 131.708 101.597 132.115 102.141 132.481C102.221 132.534 102.324 132.59 102.41 132.543C102.496 132.495 102.505 132.407 102.517 132.321C102.65 131.385 102.783 130.447 102.913 129.512" fill="#263238"/>
<path d="M44.7434 21.3861V21.3269C44.7504 21.2244 44.7289 21.122 44.6812 21.0309C44.6515 20.9399 44.5984 20.8583 44.5273 20.7941C44.4634 20.7227 44.3817 20.6696 44.2905 20.6402C44.1996 20.5918 44.0973 20.5693 43.9945 20.5751L43.7991 20.6017C43.675 20.6368 43.5618 20.703 43.4706 20.7941L43.3551 20.9421C43.2895 21.0555 43.2548 21.1841 43.2545 21.3151V21.3743C43.2481 21.4771 43.2706 21.5797 43.3196 21.6703C43.3514 21.7605 43.403 21.8424 43.4706 21.9101C43.5382 21.9777 43.6201 22.0293 43.7103 22.061C43.8011 22.1097 43.9035 22.1322 44.0063 22.1261L44.2046 22.0995C44.3277 22.0655 44.4399 22.0002 44.5302 21.9101L44.6457 21.7591C44.7126 21.6463 44.7474 21.5173 44.7463 21.3861H44.7434Z" fill="#263238"/>
<path d="M41.4813 22.2354C42.4315 22.2354 42.4345 20.7554 41.4813 20.7554C40.5282 20.7554 40.5253 22.2354 41.4813 22.2354Z" fill="#263238"/>
<g opacity="0.3">
<path d="M44.0032 25.9326C45.6117 24.8072 47.377 23.9245 49.2424 23.313C49.4841 23.819 49.6083 24.3731 49.6057 24.9338C49.6032 25.4946 49.4739 26.0475 49.2276 26.5512C48.7125 27.5428 47.6085 27.8714 46.4925 27.8803C45.3766 27.8891 44.3643 26.9923 44.0032 25.9326Z" fill="black"/>
</g>
<g opacity="0.3">
<path d="M60.3099 11.902C59.9311 11.384 59.0046 11.014 58.3001 10.8689C57.7128 10.6968 57.0834 10.7388 56.5241 10.9873C56.3542 11.0464 56.2012 11.146 56.0785 11.2776C55.9557 11.4091 55.8669 11.5685 55.8196 11.7421C55.8045 11.8755 55.8198 12.0106 55.8644 12.1373C55.909 12.2639 55.9817 12.3788 56.0771 12.4732C56.2695 12.6614 56.4981 12.8084 56.7491 12.9054C57.6964 13.3121 58.744 13.4256 59.7564 13.231C59.9085 13.2197 60.0559 13.1732 60.1869 13.0951C60.3179 13.017 60.429 12.9095 60.5112 12.7811C60.5574 12.6297 60.5631 12.4689 60.5278 12.3147C60.4925 12.1604 60.4174 12.0181 60.3099 11.902Z" fill="white"/>
</g>
<g opacity="0.3">
<path d="M61.7187 13.9413C61.5045 13.7204 61.2238 13.5759 60.9195 13.5299C60.6848 13.4591 60.4324 13.476 60.2091 13.5773C60.1421 13.6007 60.0817 13.6398 60.0328 13.6913C59.9839 13.7427 59.9479 13.8051 59.9279 13.8733C59.9209 13.9273 59.9267 13.9821 59.9447 14.0335C59.9626 14.0849 59.9924 14.1314 60.0315 14.1693C60.1074 14.2445 60.1981 14.303 60.2979 14.3409C60.6714 14.4993 61.083 14.5446 61.4819 14.4712C61.5419 14.4659 61.5997 14.4468 61.6511 14.4155C61.7024 14.3842 61.7458 14.3415 61.7779 14.2906C61.7989 14.2322 61.8045 14.1694 61.7941 14.1082C61.7837 14.047 61.7578 13.9896 61.7187 13.9413Z" fill="white"/>
</g>
<g opacity="0.3">
<path d="M62.885 12.488C62.8067 12.3928 62.7094 12.315 62.5993 12.2594C62.4892 12.2039 62.3688 12.1718 62.2456 12.1654L62.0059 12.0825C61.8944 12.0853 61.7869 12.1248 61.7002 12.1949C61.6135 12.2651 61.5524 12.3619 61.5263 12.4703C61.5066 12.5769 61.5136 12.6868 61.5466 12.7901C61.5797 12.8934 61.6378 12.9869 61.7158 13.0623C61.8764 13.2163 62.0858 13.3095 62.3078 13.3257C62.4096 13.3419 62.5137 13.3346 62.6122 13.3044C62.7107 13.2741 62.801 13.2217 62.8761 13.1511C62.9494 13.0565 62.99 12.9407 62.9916 12.821C62.9932 12.7014 62.9557 12.5845 62.885 12.488Z" fill="white"/>
</g>
<g opacity="0.3">
<path d="M93.5358 86.8702C92.6478 85.6862 90.5196 84.7982 88.8857 84.4785C87.5222 84.0773 86.0604 84.1749 84.7624 84.7538C84.0046 85.0942 83.2676 85.6803 83.1344 86.5002C83.0999 86.8088 83.1352 87.1211 83.2377 87.4142C83.3402 87.7072 83.5072 87.9735 83.7264 88.1933C84.1707 88.6287 84.6996 88.9682 85.2804 89.1909C87.4693 90.1328 89.8908 90.3947 92.2305 89.9427C92.9231 89.8065 93.6868 89.5431 93.9828 88.9008C94.2788 88.2585 93.971 87.4593 93.5358 86.8702Z" fill="white"/>
</g>
<g opacity="0.3">
<path d="M96.792 91.5883C96.4456 91.1117 95.5902 90.7595 94.942 90.6352C94.3978 90.4751 93.8144 90.5139 93.2962 90.7447C93.1401 90.7998 92.9996 90.8918 92.8867 91.0129C92.7739 91.1341 92.6919 91.2807 92.648 91.4403C92.6345 91.5633 92.6488 91.6878 92.6898 91.8046C92.7308 91.9213 92.7974 92.0275 92.8848 92.1152C93.0629 92.2882 93.2744 92.4231 93.5064 92.5118C94.3788 92.888 95.3447 92.9912 96.2769 92.8078C96.4175 92.7976 96.5538 92.7549 96.6751 92.683C96.7963 92.6111 96.8992 92.5119 96.9755 92.3934C97.017 92.2548 97.022 92.1077 96.9898 91.9666C96.9577 91.8255 96.8895 91.6952 96.792 91.5883Z" fill="white"/>
</g>
<g opacity="0.3">
<path d="M99.4942 88.2229C99.1568 87.7671 98.029 87.3349 97.4637 87.2905C97.2075 87.2984 96.9608 87.3893 96.7606 87.5494C96.5604 87.7095 96.4176 87.9303 96.3537 88.1785C96.3025 88.431 96.3155 88.6923 96.3915 88.9385C96.4676 89.1847 96.6042 89.4078 96.7888 89.5875C97.1674 89.9425 97.6564 90.1568 98.1741 90.1943C98.4105 90.2319 98.6524 90.2149 98.8812 90.1446C99.11 90.0743 99.3197 89.9526 99.4942 89.7888C99.6678 89.5647 99.7619 89.2893 99.7619 89.0059C99.7619 88.7224 99.6678 88.447 99.4942 88.2229Z" fill="white"/>
</g>
<g opacity="0.3">
<path d="M84.4044 90.6027C84.1587 90.2712 83.3358 89.9604 82.9244 89.9219C82.736 89.9264 82.5544 89.9929 82.4078 90.1112C82.2611 90.2295 82.1576 90.3929 82.1133 90.576C82.0754 90.7601 82.0845 90.9507 82.1399 91.1302C82.1952 91.3098 82.2951 91.4725 82.4301 91.6032C82.7047 91.8671 83.0626 92.0272 83.4424 92.056C83.6147 92.0841 83.7912 92.072 83.958 92.0206C84.1249 91.9693 84.2776 91.8801 84.4044 91.76C84.5347 91.5953 84.6057 91.3914 84.6057 91.1814C84.6057 90.9713 84.5347 90.7674 84.4044 90.6027Z" fill="white"/>
</g>
<g opacity="0.3">
<path d="M95.2025 124.705C94.9894 124.036 94.1606 123.317 93.4738 122.929C92.9209 122.542 92.2483 122.365 91.5765 122.429C91.3801 122.432 91.1874 122.483 91.0148 122.577C90.8422 122.671 90.6947 122.805 90.5849 122.967C90.5207 123.1 90.4873 123.246 90.4873 123.394C90.4873 123.541 90.5207 123.687 90.5849 123.82C90.7176 124.084 90.9041 124.317 91.1325 124.504C91.9737 125.258 93.0227 125.742 94.1428 125.892C94.3053 125.933 94.4751 125.936 94.6389 125.901C94.8028 125.865 94.9562 125.793 95.087 125.688C95.1904 125.548 95.2554 125.384 95.2756 125.212C95.2959 125.039 95.2707 124.865 95.2025 124.705Z" fill="white"/>
</g>
<g opacity="0.3">
<path d="M95.9572 127.318C95.8093 127.014 95.5675 126.766 95.2675 126.611C95.0475 126.457 94.7799 126.387 94.5127 126.412C94.4343 126.413 94.3573 126.433 94.2882 126.47C94.2191 126.507 94.1601 126.561 94.1161 126.626C94.0906 126.679 94.0774 126.737 94.0774 126.796C94.0774 126.855 94.0906 126.913 94.1161 126.966C94.1703 127.07 94.2448 127.163 94.3351 127.238C94.6717 127.538 95.0901 127.731 95.5369 127.792C95.6015 127.808 95.6689 127.809 95.7341 127.795C95.7992 127.781 95.8603 127.753 95.9128 127.712C95.9535 127.656 95.979 127.59 95.9868 127.521C95.9946 127.452 95.9844 127.382 95.9572 127.318Z" fill="white"/>
</g>
<g opacity="0.3">
<path d="M97.6799 126.215C97.5049 125.898 97.236 125.644 96.9103 125.486C96.7936 125.451 96.6686 125.455 96.5543 125.497C96.44 125.539 96.3425 125.618 96.2768 125.72C96.2145 125.826 96.1801 125.945 96.177 126.067C96.1739 126.19 96.2021 126.311 96.2591 126.419C96.3747 126.636 96.5619 126.806 96.7889 126.901C96.8892 126.954 97.0004 126.984 97.1139 126.987C97.2274 126.99 97.34 126.967 97.4431 126.919C97.5571 126.846 97.6427 126.737 97.6858 126.609C97.7289 126.48 97.7268 126.341 97.6799 126.215Z" fill="white"/>
</g>
<g opacity="0.3">
<path d="M64.1077 125.255C64.7826 125.054 65.5166 124.237 65.9192 123.559C66.3158 123.014 66.5057 122.346 66.455 121.674C66.4558 121.477 66.4089 121.283 66.3181 121.108C66.2274 120.933 66.0956 120.783 65.934 120.67C65.8009 120.607 65.6553 120.574 65.5078 120.574C65.3603 120.574 65.2146 120.607 65.0815 120.67C64.8167 120.8 64.581 120.982 64.3889 121.206C63.6186 122.033 63.1152 123.073 62.9444 124.19C62.8993 124.351 62.8924 124.521 62.9242 124.685C62.9561 124.849 63.0258 125.004 63.1279 125.137C63.2669 125.24 63.4304 125.305 63.6021 125.326C63.7739 125.347 63.9481 125.322 64.1077 125.255Z" fill="white"/>
</g>
<g opacity="0.3">
<path d="M67.266 124.877C67.5721 124.734 67.825 124.497 67.9882 124.202C68.1454 123.984 68.2209 123.718 68.2014 123.45C68.2012 123.372 68.1822 123.294 68.1462 123.225C68.1102 123.155 68.058 123.096 67.9942 123.05C67.9413 123.024 67.883 123.01 67.824 123.01C67.7649 123.01 67.7066 123.024 67.6538 123.05C67.5488 123.102 67.4553 123.175 67.3785 123.263C67.0701 123.59 66.8687 124.003 66.8013 124.447C66.7836 124.512 66.7811 124.58 66.794 124.645C66.8068 124.711 66.8346 124.773 66.8753 124.826C66.9306 124.867 66.9956 124.894 67.0641 124.903C67.1325 124.911 67.202 124.902 67.266 124.877Z" fill="white"/>
</g>
<g opacity="0.3">
<path d="M65.6231 126.392C65.9405 126.22 66.1984 125.956 66.3631 125.634C66.4021 125.518 66.4014 125.392 66.3613 125.277C66.3211 125.161 66.2437 125.062 66.1411 124.995C66.0364 124.932 65.9177 124.896 65.7956 124.891C65.6736 124.886 65.5522 124.912 65.4426 124.965C65.2242 125.078 65.0508 125.262 64.9512 125.486C64.8964 125.586 64.8653 125.697 64.8601 125.81C64.855 125.923 64.876 126.037 64.9216 126.141C64.9943 126.254 65.1025 126.34 65.2295 126.386C65.3564 126.431 65.4949 126.434 65.6231 126.392Z" fill="white"/>
</g>
<path d="M58.4184 13.2904C58.3489 13.5048 58.2335 13.7015 58.0801 13.8666C57.9267 14.0317 57.7391 14.1614 57.5304 14.2465C57.0335 14.4896 56.4953 14.6372 55.9439 14.6816C55.3993 14.7458 54.8475 14.7096 54.3159 14.5751C54.0991 14.53 53.8945 14.4391 53.7158 14.3084C53.5371 14.1777 53.3885 14.0102 53.2799 13.8173C53.1052 13.4325 53.2296 12.9293 53.6528 12.506C54.209 12.0044 54.9105 11.693 55.6556 11.6169C56.4007 11.5408 57.1507 11.704 57.7968 12.0828C58.2912 12.432 58.5102 12.879 58.4184 13.2904Z" fill="#263238"/>
<path d="M61.55 91.8015C61.55 92.1241 61.3132 92.3935 60.7923 92.3935C60.5464 92.3971 60.3047 92.3292 60.0967 92.1981L60.2654 91.8755C60.4151 91.9841 60.5955 92.0421 60.7804 92.0412C60.9936 92.0412 61.1238 91.9524 61.1238 91.8044C61.1238 91.6564 61.0291 91.5676 60.6976 91.5676H60.2328L60.3276 90.5405H61.4376V90.8809H60.6798L60.6532 91.2243H60.8012C61.3369 91.2361 61.55 91.4789 61.55 91.8015Z" fill="white"/>
<path d="M61.7219 91.4637C61.7219 90.8717 62.0534 90.5225 62.5004 90.5225C62.9474 90.5225 63.2818 90.8629 63.2818 91.4637C63.2818 92.0646 62.9503 92.405 62.5004 92.405C62.0505 92.405 61.7219 92.0557 61.7219 91.4637ZM62.8586 91.4637C62.8586 91.0493 62.7135 90.8717 62.5004 90.8717C62.2873 90.8717 62.1482 91.0434 62.1482 91.4637C62.1482 91.8841 62.2932 92.0557 62.5004 92.0557C62.7076 92.0557 62.8586 91.8781 62.8586 91.4637Z" fill="white"/>
<path d="M61.6775 82.0245C61.6751 82.1107 61.6549 82.1954 61.6183 82.2734C61.5817 82.3515 61.5295 82.4211 61.4647 82.478C61.4 82.535 61.3243 82.578 61.2422 82.6043C61.1602 82.6307 61.0736 82.6399 60.9878 82.6313C60.4846 82.6313 60.1738 82.3176 60.1738 81.7285C60.1604 81.6009 60.1748 81.4718 60.216 81.3503C60.2573 81.2287 60.3244 81.1175 60.4127 81.0244C60.5011 80.9313 60.6085 80.8584 60.7278 80.8108C60.847 80.7632 60.9751 80.7421 61.1033 80.7488C61.2801 80.744 61.4549 80.787 61.6094 80.8731L61.4525 81.1691C61.351 81.1046 61.2323 81.0726 61.1121 81.0773C61.0424 81.0727 60.9725 81.0833 60.9073 81.1084C60.8421 81.1335 60.7831 81.1724 60.7344 81.2225C60.6857 81.2726 60.6485 81.3327 60.6253 81.3986C60.6021 81.4645 60.5935 81.5347 60.6001 81.6042C60.6606 81.549 60.7316 81.5064 60.8089 81.4789C60.8862 81.4515 60.9681 81.4397 61.05 81.4444C61.1297 81.4396 61.2095 81.4509 61.2847 81.4778C61.3599 81.5046 61.4289 81.5464 61.4875 81.6006C61.5461 81.6548 61.5932 81.7203 61.6258 81.7932C61.6585 81.866 61.6761 81.9447 61.6775 82.0245ZM61.269 82.0452C61.2689 82.0062 61.2605 81.9675 61.2443 81.9319C61.2281 81.8964 61.2046 81.8646 61.1752 81.8389C61.1458 81.8131 61.1112 81.7939 61.0738 81.7825C61.0364 81.7712 60.997 81.7679 60.9582 81.7729C60.8806 81.768 60.8043 81.7938 60.7455 81.8448C60.6868 81.8957 60.6505 81.9678 60.6445 82.0452C60.6445 82.2021 60.7599 82.3176 60.9641 82.3176C61.0028 82.3227 61.042 82.3194 61.0793 82.308C61.1166 82.2966 61.1509 82.2774 61.1801 82.2515C61.2093 82.2257 61.2326 82.194 61.2484 82.1584C61.2643 82.1228 61.2723 82.0842 61.272 82.0452H61.269Z" fill="white"/>
<path d="M61.8313 81.6962C61.8313 81.1042 62.1628 80.7549 62.6098 80.7549C63.0567 80.7549 63.3912 81.0953 63.3912 81.6962C63.3912 82.297 63.0597 82.6374 62.6098 82.6374C62.1599 82.6374 61.8313 82.2882 61.8313 81.6962ZM62.9679 81.6962C62.9679 81.2818 62.8199 81.1042 62.6098 81.1042C62.3996 81.1042 62.2575 81.2758 62.2575 81.6962C62.2575 82.1165 62.4026 82.2882 62.6098 82.2882C62.817 82.2882 62.9679 82.1046 62.9679 81.6962Z" fill="white"/>
<path d="M61.5976 70.8921V71.1674L60.9227 72.7155H60.4639L61.1181 71.2355H60.5261V71.5315H60.1501V70.8921H61.5976Z" fill="white"/>
<path d="M61.7336 71.8036C61.7336 71.2116 62.0681 70.8623 62.5151 70.8623C62.962 70.8623 63.2936 71.2027 63.2936 71.8036C63.2936 72.4045 62.965 72.7449 62.5151 72.7449C62.0652 72.7449 61.7336 72.4045 61.7336 71.8036ZM62.8703 71.8036C62.8703 71.3892 62.7252 71.2116 62.5151 71.2116C62.3049 71.2116 62.1599 71.3833 62.1599 71.8036C62.1599 72.2239 62.3049 72.3956 62.5151 72.3956C62.7252 72.3956 62.8703 72.2239 62.8703 71.8036Z" fill="white"/>
<path d="M61.6981 62.1391C61.6981 62.4824 61.4021 62.6985 60.9285 62.6985C60.4549 62.6985 60.1619 62.4824 60.1619 62.1391C60.1613 62.0486 60.187 61.9598 60.2359 61.8837C60.2847 61.8075 60.3547 61.7471 60.4372 61.7099C60.3717 61.6717 60.3177 61.6168 60.2807 61.5506C60.2437 61.4845 60.2252 61.4097 60.227 61.334C60.227 61.0143 60.523 60.813 60.9285 60.813C61.334 60.813 61.633 61.0143 61.633 61.334C61.6342 61.4099 61.6151 61.4848 61.5776 61.5509C61.5401 61.617 61.4857 61.6719 61.4199 61.7099C61.5036 61.7457 61.5748 61.8057 61.6244 61.8821C61.6739 61.9585 61.6996 62.048 61.6981 62.1391ZM61.2719 62.1243C61.2719 61.9644 61.1387 61.8667 60.9285 61.8667C60.7184 61.8667 60.5881 61.9644 60.5881 62.1243C60.5881 62.2841 60.7184 62.3877 60.9285 62.3877C61.1387 62.3877 61.2719 62.2871 61.2719 62.1243ZM60.6473 61.3517C60.6473 61.4908 60.7568 61.5767 60.9433 61.5767C61.1298 61.5767 61.2393 61.4908 61.2393 61.3517C61.2393 61.2126 61.1268 61.1238 60.9433 61.1238C60.7598 61.1238 60.6473 61.2096 60.6473 61.3517Z" fill="white"/>
<path d="M61.8906 61.7572C61.8906 61.1652 62.2221 60.813 62.6691 60.813C63.1161 60.813 63.4505 61.1563 63.4505 61.7572C63.4505 62.3581 63.122 62.6985 62.6691 62.6985C62.2162 62.6985 61.8906 62.3581 61.8906 61.7572ZM63.0273 61.7572C63.0273 61.3428 62.8822 61.1652 62.6691 61.1652C62.456 61.1652 62.3169 61.3369 62.3169 61.7572C62.3169 62.1775 62.4619 62.3492 62.6691 62.3492C62.8763 62.3492 63.0273 62.1598 63.0273 61.7572Z" fill="white"/>
<path d="M61.5264 52.2201C61.5403 52.348 61.5262 52.4774 61.4852 52.5993C61.4442 52.7213 61.3771 52.8328 61.2887 52.9263C61.2003 53.0197 61.0927 53.0929 60.9733 53.1406C60.8538 53.1884 60.7254 53.2096 60.5969 53.2029C60.4206 53.2081 60.2464 53.164 60.0937 53.0756L60.2506 52.7796C60.3521 52.844 60.4709 52.876 60.591 52.8713C60.6612 52.8756 60.7314 52.8645 60.7968 52.8389C60.8623 52.8133 60.9214 52.7738 60.9701 52.7232C61.0188 52.6725 61.0559 52.6119 61.0788 52.5455C61.1018 52.4791 61.1101 52.4085 61.1031 52.3386C61.0424 52.3948 60.9711 52.4384 60.8933 52.4669C60.8156 52.4954 60.7329 52.5081 60.6502 52.5043C60.5715 52.5091 60.4926 52.4981 60.4182 52.472C60.3438 52.4459 60.2753 52.4051 60.2169 52.3522C60.1584 52.2993 60.1111 52.2352 60.0778 52.1637C60.0444 52.0922 60.0257 52.0148 60.0227 51.936C60.0271 51.8511 60.0487 51.768 60.0861 51.6917C60.1236 51.6154 60.1762 51.5475 60.2407 51.4922C60.3052 51.4368 60.3802 51.3951 60.4613 51.3697C60.5424 51.3442 60.6278 51.3355 60.7124 51.344C61.2185 51.3174 61.5264 51.6341 61.5264 52.2201ZM61.0557 51.9034C61.0557 51.7466 60.9403 51.6341 60.739 51.6341C60.7011 51.6301 60.6627 51.6341 60.6264 51.6459C60.5902 51.6577 60.5568 51.677 60.5284 51.7026C60.5001 51.7281 60.4774 51.7593 60.4619 51.7942C60.4464 51.829 60.4384 51.8668 60.4384 51.9049C60.4384 51.9431 60.4464 51.9808 60.4619 52.0156C60.4774 52.0505 60.5001 52.0817 60.5284 52.1072C60.5568 52.1328 60.5902 52.1521 60.6264 52.1639C60.6627 52.1757 60.7011 52.1797 60.739 52.1757C60.8171 52.1815 60.8943 52.156 60.9536 52.105C61.013 52.0539 61.0497 51.9815 61.0557 51.9034Z" fill="white"/>
<path d="M61.7307 52.2616C61.7307 51.6696 62.0622 51.3174 62.5092 51.3174C62.9561 51.3174 63.2906 51.6578 63.2906 52.2616C63.2906 52.8655 62.9591 53.2029 62.5092 53.2029C62.0593 53.2029 61.7307 52.8625 61.7307 52.2616ZM62.8674 52.2616C62.8674 51.8472 62.7223 51.6696 62.5092 51.6696C62.2961 51.6696 62.157 51.8413 62.157 52.2616C62.157 52.6819 62.302 52.8536 62.5092 52.8536C62.7164 52.8536 62.8674 52.6879 62.8674 52.2616Z" fill="white"/>
<path d="M60.7746 41.3218V43.1422H60.3543V41.6622H59.9902V41.3218H60.7746Z" fill="white"/>
<path d="M61.0913 42.2303C61.0913 41.6383 61.4258 41.2891 61.8727 41.2891C62.3197 41.2891 62.6542 41.6295 62.6542 42.2303C62.6542 42.8312 62.3227 43.1716 61.8727 43.1716C61.4228 43.1716 61.0913 42.8312 61.0913 42.2303ZM62.2309 42.2303C62.2309 41.8189 62.0829 41.6383 61.8727 41.6383C61.6626 41.6383 61.5205 41.81 61.5205 42.2303C61.5205 42.6507 61.6655 42.8223 61.8727 42.8223C62.0799 42.8223 62.2309 42.6447 62.2309 42.2303Z" fill="white"/>
<path d="M62.8584 42.2303C62.8584 41.6383 63.1929 41.2891 63.6398 41.2891C64.0868 41.2891 64.4213 41.6295 64.4213 42.2303C64.4213 42.8312 64.0898 43.1716 63.6398 43.1716C63.1899 43.1716 62.8584 42.8312 62.8584 42.2303ZM63.995 42.2303C63.995 41.8189 63.85 41.6383 63.6398 41.6383C63.4297 41.6383 63.2846 41.81 63.2846 42.2303C63.2846 42.6507 63.4326 42.8223 63.6398 42.8223C63.847 42.8223 63.995 42.6447 63.995 42.2303Z" fill="white"/>
<path d="M60.8753 30.9229V32.7433H60.4549V31.2633H60.0879V30.9258L60.8753 30.9229Z" fill="white"/>
<path d="M61.8965 30.9229V32.7433H61.4732V31.2633H61.1091V30.9258L61.8965 30.9229Z" fill="white"/>
<path d="M62.2131 31.8319C62.2131 31.2399 62.5447 30.8906 62.9916 30.8906C63.4386 30.8906 63.7731 31.231 63.7731 31.8319C63.7731 32.4328 63.4445 32.7732 62.9916 32.7732C62.5387 32.7732 62.2131 32.4328 62.2131 31.8319ZM63.3498 31.8319C63.3498 31.4205 63.2047 31.2399 62.9916 31.2399C62.7785 31.2399 62.6394 31.4116 62.6394 31.8319C62.6394 32.2522 62.7844 32.4239 62.9916 32.4239C63.1988 32.4239 63.3439 32.2463 63.3439 31.8319H63.3498Z" fill="white"/>
</svg>
