<svg width="88" height="88" viewBox="0 0 88 88" fill="none" xmlns="http://www.w3.org/2000/svg">
<path d="M13.39 79.4797C-2.44999 70.3383 -2.44999 55.5156 13.39 46.3741C29.23 37.2327 54.8961 37.2327 70.7308 46.3741C86.5655 55.5156 86.5708 70.3383 70.7308 79.4797C54.8908 88.6212 29.2247 88.6212 13.39 79.4797Z" fill="#FAFAFA"/>
<path d="M70.4421 7.15967L83.1177 14.4901L83.1159 36.5622L70.4421 29.2301V7.15967Z" fill="#F0F0F0"/>
<path d="M82.6934 17.1496C82.6934 16.0197 81.6374 14.1154 81.2045 13.8655L70.1165 7.45557V29.4063L82.6864 36.6768L82.6934 17.1496Z" fill="#FAFAFA"/>
<path d="M81.3366 34.3198L71.3767 28.5593V9.62695L81.3366 15.3874V34.3198ZM71.5844 28.4414L81.1359 33.9678V15.5071L71.5861 9.98951L71.5844 28.4414Z" fill="#BA68C8"/>
<path d="M70.1764 7.54505L81.1799 13.9039C81.5548 14.1204 82.6425 15.9649 82.6425 17.1423V36.585L70.1782 29.369V7.54505M70.0726 7.36905V29.4359L82.7446 36.7663V17.1494C82.7446 15.9825 81.6604 14.0694 81.2292 13.8194L70.0708 7.36377L70.0726 7.36905Z" fill="#E0E0E0"/>
<path d="M81.231 13.8193C81.935 14.3843 81.407 15.8099 81.407 15.8099C81.407 15.8099 82.741 15.7747 82.741 17.2355C82.7463 15.2115 82.0582 14.2981 81.231 13.8193Z" fill="#E0E0E0"/>
<path d="M73.4429 13.5202V13.8264L73.6189 13.9813V15.3294L72.9537 13.235L72.6228 13.045L72.4468 12.9429V13.2509L72.6228 13.404V15.2238L72.4468 15.1746V15.4878L73.1297 15.8821V15.5688L72.9537 15.4157V14.0658L73.6189 16.1602L73.9481 16.3502V14.1714L74.1241 14.2206V13.9144L73.9481 13.8123L73.4429 13.5202ZM75.2698 16.7198L74.7418 16.4136V15.692L75.2962 16.0158V15.6216L74.7383 15.2995V14.6606L75.2663 14.9651L75.2804 15.2766L75.5338 15.4245V14.7205L74.4074 14.0798L74.2314 13.9778V14.284L74.4074 14.4389V16.2587L74.2314 16.2094V16.5157L75.5373 17.269V16.565L75.2857 16.4206L75.2698 16.7198ZM76.6778 15.6885L76.8028 15.7958L76.5089 17.151L76.4895 17.276L76.4684 17.1246L76.1762 15.4333L76.3012 15.472V15.164L75.6993 14.812V15.1182L75.8348 15.2256L76.3223 17.7107L76.662 17.9061L77.1477 15.9824L77.2868 16.0352V15.7325L76.6831 15.3805L76.6778 15.6885ZM78.4202 18.5362L77.8922 18.2282V17.5066L78.4519 17.8286V17.4362L77.8922 17.1141V16.4752L78.4202 16.7814L78.4361 17.093L78.6719 17.2478V16.5438L77.5455 15.8926L77.3695 15.7906V16.0986L77.5455 16.2517V18.075L77.3695 18.0258V18.3302L78.6737 19.0835V18.3901L78.422 18.244L78.4202 18.5362ZM80.3034 19.7118C80.2703 19.6874 80.2452 19.6537 80.2313 19.615C80.2161 19.5691 80.2089 19.5209 80.2101 19.4725V19.344C80.2118 19.2019 80.1904 19.0604 80.1468 18.9251C80.1034 18.7962 80.0311 18.6788 79.9356 18.5819C79.9751 18.5796 80.0135 18.568 80.0477 18.5481C80.082 18.5283 80.1111 18.5006 80.1327 18.4675C80.1823 18.3772 80.2055 18.2747 80.1996 18.1718C80.2013 17.9487 80.1462 17.7288 80.0394 17.533C79.937 17.3447 79.7848 17.1882 79.5994 17.0806L79.0327 16.755L78.8567 16.653V16.961L79.0327 17.1141V18.9374L78.8567 18.8882V19.1838L79.5396 19.5781V19.2736L79.3636 19.1187V18.4499L79.6346 18.6048C79.7129 18.6577 79.7741 18.7323 79.8106 18.8195C79.8545 18.923 79.8761 19.0345 79.874 19.1469V19.293C79.8728 19.4237 79.8948 19.5536 79.9391 19.6766C79.9806 19.79 80.0619 19.8845 80.1679 19.9424L80.3439 20.0427V19.7347L80.3034 19.7118ZM79.8001 18.2264C79.7543 18.2598 79.6857 18.251 79.5924 18.1982L79.3636 18.0662V17.3306L79.5994 17.4661C79.6872 17.5171 79.7573 17.5939 79.8001 17.6861C79.8465 17.7833 79.87 17.8899 79.8687 17.9976C79.8687 18.1114 79.8458 18.1853 79.8001 18.2194V18.2264Z" fill="#BA68C8"/>
<path d="M73.1015 18.9534L73.2951 19.0889V19.4409C73.2691 19.4474 73.2419 19.4474 73.2159 19.4409C73.169 19.4306 73.1244 19.4121 73.0839 19.3863C72.9534 19.3045 72.8552 19.1802 72.8058 19.0343C72.7388 18.8555 72.706 18.6656 72.709 18.4746V18.4007C72.6968 18.2379 72.731 18.075 72.8076 17.9308C72.8733 17.8346 72.9648 17.8205 73.0821 17.8886C73.1341 17.9179 73.1815 17.9547 73.2229 17.9977C73.2606 18.0388 73.2931 18.0843 73.3197 18.1332L73.3567 18.4324L73.5573 18.5468V18.1279C73.4999 18.0067 73.4265 17.8936 73.3391 17.7918C73.2576 17.6943 73.16 17.6115 73.0504 17.5471C72.9864 17.4945 72.9043 17.4691 72.8217 17.4763C72.7391 17.4835 72.6626 17.5229 72.6087 17.5858C72.4748 17.7786 72.4125 18.012 72.4327 18.2458V18.3162C72.431 18.6026 72.4911 18.8859 72.6087 19.147C72.6963 19.3686 72.8515 19.557 73.0522 19.6855C73.1465 19.7494 73.2569 19.7854 73.3708 19.7894C73.4411 19.7898 73.5092 19.7648 73.5626 19.719V18.9234L73.1015 18.6559V18.9534ZM73.6999 18.2106L73.8442 18.3374V19.8263L73.6999 19.7858V20.034L74.2578 20.3561V20.1079L74.1135 19.9812V18.4922L74.2578 18.5327V18.2828L73.6999 17.9519V18.2106ZM75.1448 19.0449L75.2469 19.1311L75.0076 20.2399L74.9917 20.342L74.9741 20.2171L74.7295 18.8319L74.8333 18.8636V18.6119L74.3405 18.3286V18.5785L74.4514 18.6647L74.8492 20.6958L75.1272 20.8577L75.525 19.2842L75.6376 19.3265V19.0783L75.1448 18.7932V19.0449ZM76.581 21.1305L76.5687 21.3716L76.134 21.1199V20.5268L76.5898 20.7908V20.4705L76.134 20.2065V19.6785L76.5652 19.9266L76.5775 20.1818L76.7834 20.3015V19.7331L75.8629 19.205L75.7204 19.1223V19.3722L75.8629 19.499V20.9879L75.7204 20.9474V21.1974L76.7869 21.8134V21.2449L76.581 21.1305Z" fill="#BA68C8"/>
<path d="M77.8992 20.3843V20.6342L77.7549 20.5937V21.6779C77.7514 21.7992 77.7761 21.9197 77.8271 22.0299C77.8693 22.1199 77.9381 22.1948 78.0242 22.2446C78.1087 22.2939 78.1738 22.2974 78.2231 22.2587C78.2523 22.2215 78.2738 22.1788 78.2862 22.1332C78.2986 22.0875 78.3017 22.0398 78.2952 21.9929V20.9088L78.1509 20.7838V20.5321L78.7088 20.856V21.1059L78.5645 21.0654V22.1478C78.5645 22.3819 78.5152 22.5315 78.4149 22.6001C78.3535 22.6335 78.2835 22.6477 78.2139 22.6412C78.1443 22.6346 78.0783 22.6074 78.0242 22.5632C77.857 22.4656 77.7214 22.322 77.6335 22.1496C77.5321 21.9571 77.4807 21.7423 77.4839 21.5248V20.4424L77.3413 20.3156V20.064L77.4839 20.1467L77.7549 20.3033L77.8992 20.3843Z" fill="#BA68C8"/>
<path d="M79.4305 21.268C79.5883 21.3604 79.7151 21.4976 79.7948 21.6623C79.8838 21.8341 79.9297 22.025 79.9286 22.2184C79.9381 22.2911 79.931 22.365 79.9078 22.4345C79.8847 22.504 79.846 22.5673 79.7948 22.6197C79.7068 22.6901 79.5854 22.6796 79.4305 22.5898L79.2034 22.4596V22.9189L79.3478 23.0456V23.2956L78.7881 22.9735V22.7236L78.9324 22.764V21.2751L78.7881 21.1484V20.8984L78.9324 20.9812L79.4305 21.268ZM79.2034 22.148L79.4305 22.2783C79.5062 22.3223 79.5625 22.324 79.6065 22.2783C79.6513 22.2188 79.672 22.1447 79.6646 22.0706C79.6652 21.9743 79.6454 21.8789 79.6065 21.7908C79.5712 21.7074 79.5093 21.6381 79.4305 21.5936L79.2034 21.4634V22.148Z" fill="#BA68C8"/>
<path d="M80.344 23.1545L80.073 22.9996V21.6479L80.344 21.8046V23.1545ZM80.344 23.8708L80.073 23.7142V23.3499L80.344 23.5047V23.8708Z" fill="#BA68C8"/>
<path d="M79.068 26.6307C79.0616 26.255 78.9758 25.885 78.8163 25.5448C78.7478 25.3994 78.6602 25.2639 78.5558 25.1418C78.4508 25.0276 78.327 24.9324 78.1897 24.8602C78.0446 24.7765 77.9173 24.6653 77.8149 24.5328C77.7181 24.4114 77.6265 24.2811 77.5333 24.1526C77.3397 23.8886 77.1461 23.6862 76.9225 23.6387C76.8408 23.6306 76.7626 23.6015 76.6955 23.5542C76.6253 23.4876 76.5659 23.4104 76.5195 23.3254C76.5054 23.3043 76.4949 23.2814 76.4825 23.2603L76.4086 23.1318C76.3603 23.0491 76.3074 22.9692 76.2502 22.8925C76.2196 22.8509 76.1861 22.8115 76.1499 22.7746C76.0933 22.6998 76.0178 22.6415 75.9312 22.6057C75.8446 22.5698 75.75 22.5576 75.6571 22.5704C75.6532 22.5708 75.6496 22.5727 75.647 22.5756C75.6444 22.5785 75.643 22.5823 75.643 22.5862C75.6432 22.5919 75.6448 22.5973 75.6475 22.6022C75.6503 22.6071 75.6542 22.6113 75.6589 22.6144C75.6658 22.6159 75.673 22.6159 75.68 22.6144C75.7939 22.6317 75.8997 22.684 75.9827 22.764C76.0883 22.8626 76.1801 22.9751 76.2555 23.0984C76.2889 23.1512 76.3224 23.2058 76.3541 23.2621L76.4192 23.38C76.4302 23.4019 76.4425 23.423 76.4561 23.4434C76.4811 23.4834 76.5081 23.5222 76.5371 23.5595L76.5776 23.607L76.6251 23.6616C76.643 23.679 76.6618 23.6955 76.6814 23.7109C76.7748 23.781 76.8856 23.8242 77.0017 23.8358C77.1113 23.8692 77.2086 23.9341 77.2816 24.0224C77.4576 24.2178 77.6107 24.4835 77.7849 24.6947C77.8658 24.7938 77.9586 24.8825 78.0613 24.9587C78.1352 25.0115 78.2091 25.0485 78.2848 25.0942C78.2652 25.0915 78.2453 25.0927 78.2263 25.0978C78.2072 25.103 78.1894 25.1119 78.1739 25.1242C78.151 25.1418 78.1299 25.1611 78.107 25.1752C78.0838 25.1853 78.0619 25.1983 78.0419 25.2139C78.0382 25.2215 78.0371 25.23 78.0386 25.2383C78.0402 25.2465 78.0445 25.254 78.0507 25.2597C78.076 25.2707 78.1032 25.2763 78.1308 25.2763C78.1583 25.2763 78.1856 25.2707 78.2109 25.2597C78.262 25.2411 78.3181 25.2411 78.3693 25.2597C78.4251 25.2849 78.4787 25.3149 78.5294 25.3494L78.5769 25.3794C78.6985 25.5772 78.7832 25.7954 78.8269 26.0235C78.8892 26.3487 78.9116 26.6803 78.8937 27.0109C78.8889 27.3172 78.8595 27.6227 78.8057 27.9243C78.7654 28.2067 78.6723 28.479 78.5312 28.7269C78.4749 28.8078 78.3886 28.887 78.276 28.792C78.1737 28.6895 78.0977 28.564 78.0542 28.4259C78.0542 28.3362 78.0542 28.2411 78.0542 28.1549V28.0053C78.0718 27.9894 78.0701 27.9402 78.0718 27.905C78.0736 27.8698 78.0718 27.7994 78.0841 27.7466C78.093 27.6478 78.1131 27.5504 78.144 27.4562C78.144 27.4386 78.1317 27.3858 78.1211 27.4104C78.0924 27.4752 78.0695 27.5423 78.0525 27.611C78.0525 27.3981 78.0401 27.1851 78.0261 26.9669C78.0155 26.8349 77.9997 26.7029 77.9979 26.5726V26.2752C77.9979 26.064 77.9803 25.8528 77.9662 25.6363C77.9662 25.6134 77.9486 25.6046 77.9486 25.6275C77.9486 25.8211 77.9486 26.013 77.9486 26.2083C77.9486 26.3086 77.9486 26.4072 77.9486 26.5058C77.9486 26.6043 77.9363 26.7152 77.9293 26.8208C77.9064 27.2133 77.8835 27.6075 77.8624 28L77.8518 28.2728C77.8563 28.3539 77.8486 28.4351 77.8289 28.5139C77.7832 28.6318 77.5861 28.5139 77.4893 28.4682C77.3544 28.4019 77.2264 28.3223 77.1073 28.2306C77.0155 28.1634 76.9417 28.0745 76.8926 27.9718C76.8926 27.9507 76.8926 27.9278 76.8926 27.905C76.9032 27.6885 76.9067 27.4667 76.9085 27.245C76.9188 26.806 76.8882 26.367 76.8169 25.9338C76.7765 25.7085 76.7325 25.4832 76.6691 25.2544C76.637 25.1343 76.5964 25.0167 76.5477 24.9024C76.4861 24.7598 76.428 24.6067 76.3576 24.4677C76.3576 24.4554 76.347 24.4677 76.3576 24.4818C76.3875 24.575 76.4245 24.6578 76.4456 24.7616C76.4667 24.8654 76.4808 24.9376 76.5019 25.0274C76.5459 25.2157 76.5917 25.4022 76.6251 25.5888C76.6846 25.9615 76.7181 26.3379 76.7254 26.7152C76.736 27.0936 76.7254 27.4632 76.7061 27.8222C76.7079 27.8781 76.6965 27.9336 76.6726 27.9842C76.6392 28.0317 76.5653 27.9842 76.5107 27.9525C76.3678 27.8813 76.2291 27.802 76.0953 27.7149C76.0206 27.6723 75.9557 27.6144 75.9051 27.5449C75.8544 27.4754 75.8191 27.396 75.8014 27.3118C75.7584 27.0909 75.7372 26.8663 75.7381 26.6413C75.7389 26.6348 75.7389 26.6283 75.7381 26.6219C75.8173 26.2875 75.7381 25.8686 75.6254 25.448C75.5087 24.9663 75.3515 24.4953 75.1555 24.04C75.1361 23.9925 75.1062 24.003 75.1203 24.0506C75.3456 24.7827 75.6747 25.6451 75.6113 26.3122C75.6113 26.3925 75.5932 26.4719 75.5585 26.5443C75.5238 26.6168 75.4733 26.6806 75.4107 26.731C75.3869 26.7358 75.3628 26.7387 75.3385 26.7398C75.2966 26.7414 75.2546 26.7379 75.2136 26.7293C75.1605 26.7195 75.1086 26.7042 75.0587 26.6835C75.0376 26.6835 75.0182 26.6659 74.9971 26.6571L74.9355 26.636C74.9197 26.636 74.9232 26.673 74.9355 26.6853C74.9753 26.7234 75.0196 26.7565 75.0675 26.7838C75.1012 26.8026 75.1359 26.8196 75.1713 26.8349C75.124 26.8549 75.0725 26.8631 75.0213 26.8588C74.9701 26.8546 74.9207 26.8379 74.8774 26.8102C74.7643 26.6934 74.6836 26.549 74.6433 26.3914C74.5061 26.0165 74.3793 25.6398 74.2667 25.2597C74.2121 25.0749 74.1558 24.8866 74.1136 24.7C74.067 24.5277 74.061 24.347 74.096 24.172C74.1282 24.0132 74.1154 23.8487 74.059 23.6968C73.9727 23.4928 73.9342 23.2716 73.9468 23.0504C73.9593 22.8292 74.0224 22.6138 74.1312 22.4208C74.1616 22.3255 74.2237 22.2436 74.3072 22.1885C74.4128 22.1374 74.536 22.2325 74.6592 22.3398C74.9109 22.5616 75.2101 22.8326 75.4265 22.7006C75.4582 22.6813 75.4054 22.5722 75.372 22.5669C75.2067 22.5477 75.0519 22.4762 74.9302 22.3627C74.804 22.2275 74.6681 22.1016 74.5237 21.9861C74.2597 21.8101 74.0784 21.9544 73.9675 22.1832C73.838 22.4421 73.7631 22.7249 73.7475 23.0139C73.7422 23.2029 73.7709 23.3912 73.832 23.5701C73.8617 23.6495 73.887 23.7306 73.9077 23.813C73.9209 23.9049 73.9137 23.9987 73.8865 24.0875C73.8578 24.3239 73.8788 24.5637 73.9481 24.7915C73.9392 24.8198 73.9322 24.8486 73.927 24.8778C73.9199 24.927 73.9099 24.9758 73.8971 25.0238C73.8686 25.1281 73.8333 25.2304 73.7915 25.3301C73.7038 25.4932 73.6522 25.6733 73.6401 25.8581C73.6596 26.1008 73.719 26.3387 73.8161 26.5621C73.9041 26.8243 73.9921 27.0901 74.0889 27.3506C74.1646 27.5514 74.2839 27.7329 74.4382 27.882C74.5925 28.0311 74.778 28.1442 74.9813 28.213C75.1741 28.2902 75.3627 28.3777 75.5462 28.4752C75.7157 28.5908 75.892 28.696 76.0742 28.7902C76.2291 28.8448 76.3277 28.7656 76.3664 28.5896C76.4035 28.4377 76.4148 28.2806 76.3998 28.125C76.5265 28.2006 76.6691 28.2816 76.7712 28.2534C76.7948 28.2456 76.8162 28.2323 76.8337 28.2145C76.8511 28.1968 76.8641 28.1751 76.8715 28.1514C76.9423 28.263 77.0302 28.3627 77.132 28.447C77.2523 28.5481 77.3847 28.6338 77.5262 28.7022C77.6269 28.7636 77.7399 28.802 77.8571 28.8149C77.9469 28.8149 77.9979 28.755 78.0331 28.667C78.0992 28.8361 78.2242 28.9755 78.3851 29.0595C78.6403 29.1493 78.7635 28.8448 78.8497 28.6142C79.0508 27.9735 79.1249 27.2998 79.068 26.6307ZM76.208 28.4418C76.2018 28.501 76.1742 28.5561 76.1305 28.5966C76.0725 28.6301 75.9933 28.5808 75.9211 28.5333C75.768 28.433 75.6184 28.3291 75.4635 28.2482C75.3597 28.1936 75.2541 28.1461 75.1502 28.0986C75.1502 28.0704 75.1502 28.044 75.1502 28.0141V27.905C75.1486 27.8344 75.1515 27.7639 75.159 27.6938C75.159 27.6515 75.1749 27.6322 75.2118 27.6427C75.2404 27.6534 75.268 27.6664 75.2945 27.6814C75.355 27.7116 75.4138 27.7451 75.4705 27.7818C75.5739 27.8458 75.6727 27.917 75.7662 27.9947C75.8137 28.0325 75.8584 28.0736 75.9 28.1179C75.9347 28.1535 75.966 28.1924 75.9933 28.2341C76.0065 28.2556 76.0212 28.2762 76.0373 28.2957C76.0373 28.2957 76.0461 28.2957 76.0373 28.2798C75.9849 28.1245 75.8962 27.9839 75.7785 27.8698C75.6637 27.7579 75.5347 27.6614 75.3949 27.5829C75.3254 27.5418 75.2531 27.5059 75.1784 27.4755C75.115 27.4526 75.064 27.4597 75.0499 27.5406C75.041 27.6272 75.041 27.7145 75.0499 27.8011C75.0499 27.8539 75.0499 27.9067 75.0622 27.9595C75.0745 28.0123 75.0781 28.037 75.0851 28.0739L74.9531 28.0176C74.7864 27.9581 74.631 27.8706 74.4937 27.7589C74.3387 27.608 74.2269 27.4184 74.1699 27.2098C74.0872 26.9704 74.008 26.731 73.927 26.4917C73.8421 26.2996 73.8012 26.0909 73.8073 25.881C73.8508 25.6991 73.9127 25.5222 73.9921 25.353C74.0101 25.2916 74.0248 25.2293 74.0361 25.1664C74.0485 25.2069 74.0608 25.2474 74.0713 25.2878C74.14 25.5166 74.2139 25.7472 74.2913 25.976C74.2416 25.9446 74.1858 25.9242 74.1277 25.9162C74.0938 25.9129 74.0597 25.919 74.0291 25.9338C74.012 25.9399 73.9968 25.9505 73.9851 25.9644C73.9733 25.9783 73.9654 25.995 73.9622 26.013C73.9622 26.013 73.9622 26.0376 73.971 26.0429C73.9779 26.046 73.9854 26.0477 73.993 26.0477C74.0006 26.0477 74.0081 26.046 74.015 26.0429H74.0625C74.1046 26.0461 74.146 26.055 74.1857 26.0693C74.2169 26.0798 74.247 26.0934 74.2755 26.1098H74.2861L74.3072 26.1238H74.3177C74.3074 26.1422 74.2992 26.1617 74.2931 26.1819C74.2771 26.2223 74.2688 26.2652 74.2685 26.3086C74.265 26.3537 74.265 26.399 74.2685 26.4442C74.2685 26.4987 74.2896 26.5533 74.3001 26.6078C74.3107 26.6624 74.323 26.6342 74.3213 26.6078C74.3184 26.5892 74.3184 26.5702 74.3213 26.5515L74.3371 26.4776C74.3446 26.4471 74.354 26.4171 74.3653 26.3878C74.3741 26.3614 74.3811 26.335 74.3917 26.3086V26.2981C74.4163 26.3667 74.4409 26.4354 74.4673 26.5022C74.5253 26.6808 74.6248 26.8431 74.7577 26.9757C74.8062 27.0216 74.8646 27.0555 74.9285 27.0747C74.9924 27.094 75.0599 27.098 75.1256 27.0866C75.2887 27.0853 75.4467 27.0296 75.5744 26.9282C75.5689 27.2266 75.6644 27.5181 75.8454 27.7554C75.9589 27.8717 76.0902 27.9691 76.2344 28.044C76.2494 28.1771 76.2405 28.3118 76.208 28.4418Z" fill="#455A64"/>
<path d="M76.2747 23.2056C76.2043 23.2056 76.1639 23.3024 76.1463 23.3816C76.1391 23.4336 76.1391 23.4863 76.1463 23.5382C76.1556 23.6192 76.1691 23.6997 76.1867 23.7794C76.1867 23.8058 76.2096 23.811 76.2096 23.7882C76.2096 23.7301 76.2096 23.6738 76.2096 23.6122C76.2113 23.5647 76.2178 23.5175 76.229 23.4714C76.2384 23.44 76.2526 23.4103 76.2712 23.3834C76.2906 23.3587 76.317 23.3446 76.3328 23.3165C76.3487 23.2883 76.3064 23.2038 76.2747 23.2056Z" fill="#455A64"/>
<path d="M75.0973 23.3218C75.0973 23.3042 75.0973 23.2848 75.0868 23.2655C75.081 23.2494 75.0763 23.2329 75.0727 23.2162C75.0727 23.2021 75.0727 23.1898 75.0621 23.1757L75.0515 23.1458C75.0392 23.1176 75.0252 23.0895 75.0111 23.0631C74.9924 23.0298 74.9712 22.998 74.9477 22.968C74.9289 22.9431 74.9077 22.9202 74.8844 22.8994C74.8563 22.8711 74.821 22.851 74.7823 22.8413C74.7541 22.8413 74.7453 22.8677 74.7576 22.9082C74.7656 22.9298 74.7769 22.95 74.7911 22.968C74.8023 22.9805 74.8153 22.9912 74.8298 22.9997L74.8685 23.0349L74.8808 23.049L74.8967 23.0666L74.9213 23.1053C74.9318 23.1189 74.9406 23.1337 74.9477 23.1493C74.9525 23.156 74.9566 23.163 74.96 23.1704L74.9776 23.1968C74.9935 23.2285 75.0076 23.2619 75.0216 23.2936C75.0383 23.3302 75.0524 23.3678 75.0639 23.4063C75.0639 23.4221 75.0797 23.4467 75.0938 23.4503C75.1079 23.4538 75.1096 23.4344 75.1061 23.4168C75.1026 23.3992 75.1026 23.357 75.0973 23.3218Z" fill="#455A64"/>
<path d="M23.1353 81.4772L46.0716 68.235L27.1587 57.2983L4.22412 70.5582L23.1353 81.4772Z" fill="#E6E6E6"/>
<path d="M75.0131 62.9619C76.5971 63.8718 76.5971 65.3502 75.0131 66.2602C73.4291 67.1701 70.8754 67.1718 69.2984 66.2602C67.7214 65.3485 67.7144 63.8718 69.2984 62.9619C70.8824 62.052 73.4344 62.0502 75.0131 62.9619Z" fill="#E6E6E6"/>
<path d="M65.7168 67.4533C70.8419 70.4119 70.8419 75.2096 65.7168 78.1682C60.5916 81.1267 52.2827 81.1267 47.1576 78.1682C42.0324 75.2096 42.0324 70.4119 47.1576 67.4533C52.2827 64.4947 60.5916 64.4947 65.7168 67.4533Z" fill="#E6E6E6"/>
<path d="M50.0229 61.3555C50.1849 64.2419 50.3749 66.3944 50.3081 67.9027C50.3081 68.0435 51.4169 68.6999 52.3743 68.5556C53.3317 68.4113 53.594 68.0822 53.5957 67.9819C53.5957 67.6299 54.0481 67.1828 54.0745 66.8361C54.2176 65.0415 54.4757 63.2579 54.8471 61.4963L50.0229 61.3555Z" fill="#FFA8A7"/>
<path d="M64.4988 62.4644L60.1428 62.0068C60.5529 64.191 60.9876 66.4561 61.3044 67.9908C61.3886 68.4512 61.5105 68.9039 61.6687 69.3443C61.8571 70.3316 64.2155 70.4988 64.7188 68.9395L64.6449 67.5984C64.6115 66.3611 64.5428 64.3089 64.4988 62.4644Z" fill="#FFA8A7"/>
<path d="M45.0315 72.8643C44.9682 72.8643 44.9066 73.5595 45.2674 73.834C45.6845 74.1526 46.8866 74.6489 48.4248 74.3779C49.9631 74.1068 50.3802 73.7812 50.9733 73.2427C51.5664 72.7041 52.1085 72.1444 52.8019 71.9596C53.4461 71.7836 54.4229 71.4827 54.6218 71.2767C54.8207 71.0708 54.7467 70.1943 54.7467 70.1943L45.0315 72.8643Z" fill="#263238"/>
<path d="M54.1237 66.4155C54.1237 66.4155 54.1783 66.4155 54.2293 66.625C54.2891 66.8626 54.3771 67.5631 54.5003 67.9538C54.6898 68.7881 54.7691 69.6437 54.7362 70.4987C54.6728 70.951 53.3423 71.296 52.677 71.5811C52.0117 71.8662 51.5154 72.2464 50.8413 72.8483C50.0539 73.5322 49.0656 73.9417 48.0253 74.0152C46.8303 74.0645 45.4645 73.7512 45.1283 73.2232C44.713 72.5703 44.6232 71.9296 46.3603 71.0391C46.6877 70.8631 47.6909 70.2259 48.0799 69.9602C48.5066 69.6747 48.9034 69.3468 49.2643 68.9816C49.4163 68.8297 49.5602 68.6699 49.6955 68.5029C49.7999 68.3504 49.8745 68.1797 49.9155 67.9995C50.0035 67.6757 49.9419 67.3307 49.9789 66.9981C49.9803 66.9668 49.99 66.9364 50.0071 66.9101C50.0274 66.8867 50.0535 66.8691 50.0827 66.8591C50.3624 66.7711 50.6573 66.7423 50.9487 66.7746C51.2471 66.7869 51.5429 66.8372 51.8287 66.9242C51.9887 66.953 52.1343 67.0349 52.2423 67.1565C52.3031 67.2518 52.3366 67.362 52.3391 67.4751C52.3399 67.5876 52.3487 67.6999 52.3655 67.8112C52.371 67.8519 52.3888 67.89 52.4165 67.9203C52.4799 67.9767 52.5731 67.9203 52.6224 67.8763C52.7881 67.6938 52.9382 67.4978 53.0712 67.2902C53.1504 67.1846 53.5218 67.1019 53.6239 67.0174C53.7259 66.933 54.0463 66.9118 54.0744 66.7957C54.1076 66.6717 54.1242 66.5439 54.1237 66.4155Z" fill="#37474F"/>
<path d="M50.8377 72.8486C51.088 72.6144 51.3519 72.3952 51.6279 72.1921C51.6279 72.1921 49.7782 73.014 48.907 72.4931C48.3455 72.1569 48.5814 71.7028 48.5867 71.562C48.5919 71.4212 47.2244 70.8809 46.6947 70.8457C46.5521 70.9319 46.4324 71.0023 46.3567 71.0411C44.6267 71.9316 44.7164 72.5723 45.1247 73.2252C45.4609 73.7532 46.4571 74.1281 48.0023 74.0542C49.0516 73.9639 50.0447 73.5416 50.8377 72.8486Z" fill="#455A64"/>
<path d="M48.7117 71.1414C47.6328 71.6272 48.1133 71.8049 48.423 71.8331C48.7328 71.8612 50.2429 70.9091 51.3288 69.978C52.4605 69.0065 53.4408 67.991 53.8597 67.6355C54.0163 67.5017 54.1853 67.3398 54.3331 67.1884C54.2926 66.9526 54.2574 66.7361 54.2293 66.6252C54.2122 66.5273 54.1718 66.4349 54.1114 66.356L54.0744 66.796C53.9934 66.884 53.791 66.9051 53.6045 66.972C53.3863 67.0204 53.1891 67.1369 53.0413 67.3046C52.9114 67.5034 52.7716 67.6954 52.6224 67.8801C51.723 69.1174 49.7905 70.6574 48.7117 71.1414Z" fill="#263238"/>
<path d="M48.4935 71.671C48.5188 71.6693 48.5429 71.6594 48.5622 71.6429C48.5722 71.6332 48.5802 71.6216 48.5857 71.6087C48.5911 71.5959 48.594 71.5821 48.594 71.5681C48.594 71.5541 48.5911 71.5403 48.5857 71.5274C48.5802 71.5146 48.5722 71.503 48.5622 71.4933C48.2863 71.2415 47.9606 71.0505 47.6061 70.9328C47.2516 70.8152 46.8764 70.7735 46.5047 70.8104C46.4763 70.8148 46.4508 70.8301 46.4336 70.8532C46.4165 70.8763 46.4092 70.9052 46.4132 70.9336C46.4155 70.9476 46.4206 70.9611 46.4282 70.9731C46.4358 70.9851 46.4457 70.9955 46.4573 71.0037C46.4689 71.0119 46.482 71.0177 46.4959 71.0208C46.5098 71.0239 46.5242 71.0241 46.5382 71.0216C47.2914 70.9054 48.138 71.3525 48.4002 71.6358C48.4119 71.6487 48.4264 71.6586 48.4426 71.6647C48.4588 71.6708 48.4763 71.673 48.4935 71.671Z" fill="#F0F0F0"/>
<path d="M49.428 71.0936C49.4532 71.0929 49.4774 71.0836 49.4966 71.0672C49.5074 71.0581 49.5162 71.047 49.5227 71.0344C49.5291 71.0219 49.533 71.0082 49.5341 70.9941C49.5353 70.9801 49.5337 70.9659 49.5293 70.9525C49.525 70.9391 49.5181 70.9266 49.5089 70.9159C49.2386 70.6585 48.9171 70.4607 48.5654 70.3355C48.2137 70.2103 47.8396 70.1604 47.4674 70.189C47.4533 70.1905 47.4397 70.1948 47.4273 70.2017C47.4149 70.2086 47.4041 70.2179 47.3954 70.2291C47.3867 70.2402 47.3803 70.253 47.3766 70.2667C47.373 70.2804 47.3721 70.2947 47.3741 70.3087C47.376 70.3228 47.3807 70.3365 47.388 70.3488C47.3953 70.3611 47.4049 70.3718 47.4164 70.3803C47.4279 70.3889 47.441 70.395 47.4548 70.3984C47.4687 70.4018 47.4832 70.4024 47.4973 70.4002C48.2523 70.3016 49.0813 70.7663 49.3435 71.0567C49.3541 71.0685 49.3672 71.078 49.3817 71.0844C49.3963 71.0907 49.4121 71.0939 49.428 71.0936Z" fill="#F0F0F0"/>
<path d="M50.2869 70.4462C50.3118 70.4447 50.3354 70.4348 50.3538 70.4181C50.3639 70.4082 50.3719 70.3964 50.3774 70.3834C50.3829 70.3704 50.3858 70.3565 50.3858 70.3424C50.3858 70.3283 50.3829 70.3143 50.3774 70.3013C50.3719 70.2883 50.3639 70.2765 50.3538 70.2667C50.0779 70.0152 49.752 69.8247 49.3975 69.7077C49.043 69.5906 48.6678 69.5496 48.2964 69.5873C48.2686 69.5918 48.2437 69.6071 48.2272 69.6298C48.2107 69.6526 48.2039 69.681 48.2084 69.7088C48.2128 69.7365 48.2281 69.7614 48.2509 69.7779C48.2736 69.7944 48.302 69.8012 48.3298 69.7968C49.0831 69.6806 49.9296 70.1276 50.1919 70.411C50.2037 70.4241 50.2185 70.4342 50.2351 70.4403C50.2516 70.4464 50.2694 70.4485 50.2869 70.4462Z" fill="#F0F0F0"/>
<path d="M51.0402 69.8618C51.0652 69.8617 51.0895 69.853 51.1088 69.8372C51.1199 69.8283 51.1291 69.8173 51.1358 69.8048C51.1426 69.7924 51.1467 69.7786 51.148 69.7645C51.1493 69.7504 51.1478 69.7361 51.1435 69.7226C51.1392 69.7091 51.1322 69.6966 51.1229 69.6858C50.8589 69.4239 50.5427 69.2204 50.1949 69.0885C49.8472 68.9566 49.4756 68.8993 49.1042 68.9202C49.0901 68.9216 49.0764 68.9257 49.0638 68.9323C49.0513 68.939 49.0402 68.948 49.0312 68.959C49.0222 68.97 49.0155 68.9826 49.0114 68.9962C49.0073 69.0098 49.0059 69.024 49.0074 69.0382C49.0114 69.0667 49.0262 69.0925 49.0489 69.1102C49.0716 69.128 49.1002 69.1362 49.1288 69.1332C49.8856 69.0487 50.7128 69.5292 50.9628 69.8231C50.9725 69.8344 50.9843 69.8436 50.9976 69.8502C51.0109 69.8569 51.0254 69.8608 51.0402 69.8618Z" fill="#F0F0F0"/>
<path d="M51.8551 69.1772C51.8801 69.1768 51.9042 69.1682 51.9237 69.1526C51.9347 69.1438 51.9438 69.133 51.9505 69.1208C51.9572 69.1085 51.9615 69.095 51.963 69.0811C51.9644 69.0672 51.9631 69.0531 51.9591 69.0397C51.9551 69.0263 51.9484 69.0138 51.9396 69.003C51.5048 68.475 50.5316 68.1406 49.7237 68.2374C49.7096 68.2384 49.6958 68.2424 49.6832 68.249C49.6707 68.2556 49.6596 68.2647 49.6507 68.2757C49.6418 68.2868 49.6352 68.2996 49.6314 68.3132C49.6277 68.3269 49.6267 68.3412 49.6287 68.3553C49.6322 68.3835 49.6468 68.4092 49.6692 68.4267C49.6917 68.4442 49.7201 68.452 49.7484 68.4486C50.4788 68.3623 51.3834 68.6721 51.7706 69.1367C51.7808 69.1493 51.7937 69.1595 51.8083 69.1665C51.8229 69.1735 51.8389 69.1771 51.8551 69.1772Z" fill="#F0F0F0"/>
<path d="M61.5862 74.691C61.6372 75.7065 61.7903 76.3806 62.1476 76.979C62.5049 77.5774 63.1807 77.7675 63.8707 77.5985C64.5606 77.4296 65.4547 76.9684 65.6483 76.0955C65.8419 75.2225 65.8243 74.6206 65.6659 73.6772L61.5862 74.691Z" fill="#263238"/>
<path d="M64.645 67.5967C64.8844 67.6759 64.9354 69.0645 65.0885 70.4303C65.254 71.8946 65.5092 72.3381 65.657 73.5384C65.833 74.9112 65.7257 75.3688 65.2399 76.1943C64.7541 77.0197 63.0487 77.8205 62.2197 76.6272C61.5439 75.6557 61.5457 74.737 61.6178 73.3677C61.6841 72.2823 61.6883 71.194 61.6301 70.1082C61.5826 69.0804 61.0581 68.1018 61.3045 67.9962C61.2605 68.0173 61.4524 68.7002 61.4682 68.7671C61.4963 68.9008 61.5456 69.0291 61.6143 69.1472C61.7463 69.3408 61.8132 69.0293 61.8149 68.9096C61.8149 68.7072 61.7498 68.5453 61.9082 68.3816C62.032 68.2731 62.1771 68.1916 62.3341 68.1423C62.5013 68.0768 62.6747 68.0285 62.8516 67.998C63.2138 67.9434 63.5805 67.9257 63.9463 67.9452C64.0251 67.9412 64.1038 67.955 64.1766 67.9854C64.2494 68.0159 64.3144 68.0623 64.3669 68.1212C64.3868 68.154 64.3999 68.1905 64.4057 68.2285C64.4338 68.3623 64.4162 68.5013 64.4426 68.6351C64.4514 68.6738 64.4655 68.7706 64.5007 68.7935C64.5359 68.8164 64.5957 68.8076 64.5975 68.7812C64.5993 68.7548 64.6697 67.8343 64.645 67.5967Z" fill="#37474F"/>
<path d="M65.6024 73.0703C65.6288 73.2674 65.7555 74.503 65.3982 74.737C65.011 74.9887 64.8051 73.9591 64.8051 73.9591C64.8051 73.9591 63.9022 73.6757 62.5822 74.2425C62.6473 74.4554 62.4396 75.1541 62.0788 75.0028C61.718 74.8514 61.6142 73.505 61.6124 73.4857C61.5473 74.7986 61.5632 75.6839 62.2196 76.6273C63.0486 77.8206 64.754 77.0198 65.2398 76.1943C65.7256 75.3689 65.8259 74.9113 65.6569 73.5385C65.6481 73.4012 65.6252 73.1935 65.6024 73.0703Z" fill="#455A64"/>
<path d="M64.7013 74.0453C64.7013 74.5416 65.1483 74.3744 65.2205 73.6775C65.3296 72.6338 65.0761 71.6341 65.0885 70.4303C64.9353 69.0645 64.9283 67.6143 64.6449 67.5967C64.6537 67.8343 64.5974 68.7741 64.5974 68.7741C64.6784 69.7949 64.9389 70.9917 64.8896 72.0424C64.8473 72.97 64.6995 73.5508 64.7013 74.0453Z" fill="#263238"/>
<path d="M62.7354 74.2302C62.6457 73.7427 62.489 73.6037 62.3957 72.6797C62.3025 71.7557 61.8079 70.0995 61.6213 69.0998C61.5703 68.7901 61.3063 67.9998 61.3045 67.9893C61.1285 68.0737 61.2922 68.6475 61.426 69.267C61.5597 69.8865 61.653 70.2649 61.7375 70.851C61.9733 72.032 61.9997 73.2851 62.1546 73.968C62.3095 74.6509 62.8322 74.7177 62.7354 74.2302Z" fill="#263238"/>
<path d="M62.6228 74.2528C62.6355 74.2509 62.6479 74.2474 62.6597 74.2422C63.3438 73.9278 64.114 73.8533 64.8457 74.031C64.8727 74.0377 64.9013 74.0337 64.9255 74.0199C64.9497 74.0062 64.9677 73.9837 64.9759 73.9571C64.9796 73.9437 64.9807 73.9297 64.979 73.9159C64.9773 73.9021 64.9729 73.8887 64.966 73.8766C64.9592 73.8645 64.95 73.8539 64.939 73.8454C64.928 73.8368 64.9154 73.8305 64.902 73.8269C64.1199 73.6319 63.2946 73.7121 62.5647 74.0539C62.543 74.0652 62.5259 74.0836 62.5163 74.1061C62.5067 74.1286 62.5052 74.1537 62.512 74.1772C62.5189 74.2007 62.5337 74.221 62.5539 74.2348C62.5741 74.2486 62.5984 74.255 62.6228 74.2528Z" fill="#F0F0F0"/>
<path d="M62.343 73.2675C62.3551 73.2656 62.367 73.262 62.3782 73.2569C62.3887 73.2569 63.6542 72.6814 64.9284 72.9859C64.9424 72.9908 64.9572 72.9928 64.972 72.9917C64.9867 72.9905 65.0011 72.9863 65.0141 72.9793C65.0271 72.9722 65.0385 72.9625 65.0476 72.9508C65.0566 72.9391 65.0631 72.9256 65.0665 72.9112C65.07 72.8968 65.0704 72.8818 65.0677 72.8672C65.065 72.8527 65.0593 72.8389 65.0509 72.8266C65.0426 72.8144 65.0317 72.8041 65.0191 72.7964C65.0065 72.7886 64.9924 72.7836 64.9777 72.7817C63.6295 72.4596 62.3377 73.0439 62.2884 73.0668C62.2758 73.0727 62.2644 73.081 62.255 73.0912C62.2456 73.1015 62.2384 73.1135 62.2336 73.1266C62.2289 73.1397 62.2268 73.1536 62.2274 73.1675C62.2281 73.1814 62.2314 73.195 62.2374 73.2076C62.2471 73.2269 62.2623 73.2429 62.2811 73.2536C62.2999 73.2642 62.3214 73.2691 62.343 73.2675Z" fill="#F0F0F0"/>
<path d="M65.0798 72.1833C65.1 72.1816 65.1193 72.174 65.1352 72.1615C65.1512 72.149 65.1631 72.1321 65.1696 72.1129C65.1786 72.0865 65.1768 72.0577 65.1646 72.0326C65.1524 72.0075 65.1308 71.9883 65.1044 71.9791C63.8372 71.5391 62.1617 72.1217 62.1124 72.1551C62.0905 72.1694 62.0746 72.1914 62.0679 72.2167C62.0613 72.2421 62.0642 72.269 62.0763 72.2923C62.0884 72.3155 62.1087 72.3335 62.1333 72.3426C62.1578 72.3518 62.1849 72.3514 62.2092 72.3417C62.2216 72.3417 63.8601 71.7715 65.0411 72.1833C65.0539 72.1853 65.067 72.1853 65.0798 72.1833Z" fill="#F0F0F0"/>
<path d="M64.8807 71.2944C64.9003 71.2921 64.9188 71.2845 64.9344 71.2724C64.9499 71.2603 64.9618 71.2441 64.9687 71.2257C64.9738 71.2128 64.9762 71.199 64.9758 71.1851C64.9755 71.1713 64.9723 71.1576 64.9666 71.145C64.9608 71.1323 64.9526 71.121 64.9424 71.1116C64.9322 71.1022 64.9202 71.0949 64.9071 71.0902C63.5115 70.5798 62.07 71.3349 62.0207 71.3648C62.0087 71.3717 61.9981 71.3809 61.9897 71.392C61.9813 71.403 61.9752 71.4157 61.9718 71.4291C61.9683 71.4426 61.9676 71.4566 61.9697 71.4703C61.9717 71.4841 61.9765 71.4972 61.9838 71.5091C61.9981 71.5331 62.0213 71.5504 62.0483 71.5574C62.0754 71.5643 62.104 71.5602 62.1281 71.5461C62.1387 71.5461 63.5361 70.8121 64.835 71.2873C64.8497 71.2924 64.8652 71.2947 64.8807 71.2944Z" fill="#F0F0F0"/>
<path d="M64.8016 70.2101C64.8212 70.2086 64.8398 70.2015 64.8555 70.1896C64.8711 70.1777 64.8829 70.1616 64.8896 70.1432C64.8947 70.1304 64.8972 70.1167 64.8969 70.1029C64.8967 70.0891 64.8937 70.0755 64.8881 70.0629C64.8825 70.0503 64.8745 70.0389 64.8645 70.0294C64.8545 70.02 64.8427 70.0126 64.8298 70.0077C63.5221 69.5079 61.9786 70.2805 61.924 70.3122C61.9075 70.3288 61.897 70.3503 61.8941 70.3735C61.8912 70.3967 61.8961 70.4202 61.908 70.4403C61.9198 70.4604 61.938 70.476 61.9597 70.4847C61.9814 70.4934 62.0054 70.4946 62.0279 70.4882C62.0402 70.4882 63.5415 69.7331 64.7541 70.1978C64.7688 70.2054 64.7851 70.2096 64.8016 70.2101Z" fill="#EBEBEB"/>
<path d="M56.0772 46.0525L55.6935 51.6246C55.8669 52.9034 55.9194 54.1957 55.8502 55.4843C55.7164 57.3745 54.7519 62.8341 54.2979 64.8352C53.6713 65.19 52.9639 65.3775 52.2438 65.3797C51.5237 65.3818 50.8152 65.1986 50.1865 64.8475C50.1865 64.8475 49.4825 53.5413 49.3628 50.8819C49.2431 48.2225 48.8489 37.9406 50.0492 32.7539L62.2443 33.1429C62.2443 33.1429 63.5343 34.9469 63.6927 38.3349C63.8511 41.7229 63.4587 51.6211 63.4587 51.6211C64.7734 55.6691 64.5886 58.3091 64.6783 65.8401C64.1248 66.2279 63.4802 66.4655 62.8074 66.5297C62.1346 66.5939 61.4566 66.4824 60.8398 66.2062C60.8398 66.2062 58.9601 58.7737 58.2385 55.7624C57.8865 54.3245 56.7654 49.3665 56.0772 46.0525Z" fill="#37474F"/>
<path d="M64.6484 62.554C64.3615 62.4836 64.1591 62.1721 64.094 61.6916C64.0729 61.5438 64.05 61.3554 64.0218 61.1337C63.8353 59.6799 63.4938 56.973 62.8849 54.7167C62.1809 52.0891 62.0049 50.4927 62.114 47.8914C62.1597 46.8566 62.1474 45.4943 62.1333 44.1778C62.114 42.1978 62.0946 40.151 62.2882 39.4434C62.4519 38.8433 62.9588 38.4649 63.4956 38.0654L63.6716 37.9386C63.6716 37.8665 63.661 37.7943 63.654 37.7222L63.3917 37.921C62.8532 38.3206 62.297 38.7342 62.1157 39.3959C61.9169 40.1281 61.9397 42.0958 61.9573 44.1796C61.9697 45.4943 61.9837 46.853 61.938 47.8756C61.8218 50.4998 62.0031 52.0996 62.7141 54.7554C63.3161 56.9994 63.6593 59.6993 63.8458 61.1478C63.874 61.3695 63.8969 61.5596 63.918 61.7074C63.9954 62.2812 64.2577 62.6526 64.6378 62.7282H64.6537L64.6484 62.554Z" fill="#263238"/>
<path d="M54.2891 62.232C53.8298 61.88 54.0375 60.6339 54.2363 59.4336C54.2715 59.2312 54.305 59.027 54.3349 58.8264C54.6464 56.8147 54.7168 54.2205 54.5109 52.5203C54.3754 51.4168 53.8527 48.3526 54.2944 45.4469C54.5162 43.9755 54.7467 42.4549 54.9157 41.0856L54.7397 41.0645C54.5637 42.4302 54.3419 43.9509 54.1184 45.4205C53.6767 48.3385 54.1959 51.415 54.3349 52.5414C54.5443 54.2293 54.4739 56.8024 54.1589 58.8C54.1272 58.9989 54.0938 59.203 54.0603 59.4037C53.8421 60.7149 53.6362 61.9521 54.18 62.3745C54.308 62.4701 54.4639 62.5208 54.6235 62.5189C54.6723 62.5184 54.7211 62.5155 54.7696 62.5101C54.7802 62.4485 54.7925 62.3851 54.8031 62.3235C54.7156 62.3435 54.6251 62.3457 54.5368 62.3299C54.4485 62.3142 54.3643 62.2809 54.2891 62.232Z" fill="#263238"/>
<path d="M54.9772 39.6128L56.0772 46.0527L55.6936 51.6248L55.3169 45.8168L54.2328 40.1848C54.2328 40.1848 51.9905 39.4703 51.4502 37.1611C52.5625 39.0373 54.9772 39.6128 54.9772 39.6128Z" fill="#263238"/>
<path d="M52.7314 19.6188C51.3797 19.5871 50.2076 20.0271 49.6479 20.9828C49.0882 21.9385 48.6676 23.4714 48.4423 23.9431C48.217 24.4148 47.9143 24.7809 47.4884 25.733C47.1364 26.5321 46.6735 27.8609 46.6735 27.8609L41.9514 26.6429L41.1929 28.4874C41.1929 28.4874 42.7276 29.5153 43.773 30.1365C44.7475 30.7313 45.7715 31.2406 46.8337 31.6589C47.5729 31.9335 48.2417 32.1113 48.7697 31.4988C49.2977 30.8863 51.9641 25.8052 51.9641 25.8052L52.7314 19.6188Z" fill="#FFA8A7"/>
<path d="M38.632 26.423L38.8837 26.3491L37.7749 26.2505L37.1255 26.2874L38.632 26.423Z" fill="#37474F"/>
<path d="M37.7749 24.7718V26.2502L37.1255 26.2871V24.4585L37.7749 24.7718Z" fill="#263238"/>
<path d="M38.8837 23.3938L38.3874 22.8887L37.1255 24.4586L37.7749 24.7719L38.8837 23.3938Z" fill="#37474F"/>
<path d="M39.9926 23.4924L39.894 23.0242L38.3875 22.8887L38.8838 23.3938L39.9926 23.4924Z" fill="#455A64"/>
<path d="M39.9927 24.971V23.4926L38.8839 23.394L37.7751 24.7721V26.2505L38.8839 26.3491L39.9927 24.971Z" fill="#455A64"/>
<path d="M37.1257 26.2874L36.251 25.7823V23.9536L37.1257 24.4587V26.2874Z" fill="#263238"/>
<path d="M38.3876 22.8889L37.1257 24.4588L36.251 23.9537L37.5129 22.3838L38.3876 22.8889Z" fill="#37474F"/>
<path d="M39.894 23.0244L39.0193 22.5193L37.5127 22.3838L38.3874 22.8889L39.894 23.0244Z" fill="#455A64"/>
<path opacity="0.2" d="M37.145 25.3741C37.145 25.0732 37.1555 24.7704 37.1555 24.4695L37.7821 23.6951L38.3998 22.9189C38.8979 22.9576 39.396 22.9946 39.8941 23.0245C39.3943 22.9647 38.8909 22.9119 38.3893 22.8608H38.3682V22.8802L37.7328 23.6616L37.1045 24.4484V24.4642C37.1045 24.7687 37.1045 25.0732 37.1151 25.3794C37.1256 25.6856 37.1291 25.9884 37.1362 26.2928C37.1362 25.9831 37.1362 25.6786 37.145 25.3741Z" fill="black"/>
<path d="M37.5128 22.3838L37.145 22.4559L36.0942 23.7636L36.2509 23.9537L37.5128 22.3838Z" fill="#37474F"/>
<path d="M36.0942 25.2861L36.2509 25.7824V23.9538L36.0942 23.7637V25.2861Z" fill="#263238"/>
<g opacity="0.2">
<path d="M36.2562 25.7823C36.2439 25.4778 36.2334 25.1733 36.2298 24.8688C36.2263 24.5643 36.2298 24.2581 36.2298 23.9536V23.936V23.9272C36.4393 23.6667 36.6522 23.3992 36.8652 23.1458C37.0782 22.8923 37.2964 22.6319 37.5182 22.3784C37.3175 22.6495 37.1151 22.917 36.9074 23.181C36.6998 23.445 36.4921 23.709 36.2826 23.9695V23.9483C36.2826 24.2528 36.2826 24.5573 36.2826 24.8635C36.2826 25.1698 36.2562 25.4778 36.2562 25.7823Z" fill="black"/>
</g>
<path opacity="0.1" d="M39.9927 23.4926L38.9139 23.4662L37.8526 24.8003L37.8385 26.2083L38.8839 26.3491L37.7751 26.2505V24.7721L38.8839 23.394L39.9927 23.4926Z" fill="white"/>
<path d="M36.5676 24.9587H36.55H36.5324C36.5265 24.9627 36.5216 24.9682 36.5184 24.9746C36.516 24.9844 36.516 24.9947 36.5184 25.0045C36.5168 25.0162 36.5168 25.028 36.5184 25.0397C36.5222 25.0526 36.5275 25.065 36.5342 25.0767C36.5414 25.089 36.5503 25.1002 36.5606 25.1101C36.5703 25.1218 36.5823 25.1314 36.5958 25.1383C36.6032 25.144 36.6119 25.1478 36.6211 25.1493C36.6303 25.1509 36.6397 25.1501 36.6486 25.1471C36.6627 25.14 36.6697 25.1242 36.6697 25.0996C36.6712 25.0914 36.6712 25.0831 36.6697 25.0749V25.052L36.6609 25.0309C36.6603 25.0262 36.6603 25.0215 36.6609 25.0168V24.8884C36.6598 24.8865 36.6593 24.8844 36.6593 24.8822C36.6593 24.88 36.6598 24.8779 36.6609 24.876C36.6639 24.8746 36.6672 24.8739 36.6706 24.8739C36.6739 24.8739 36.6772 24.8746 36.6803 24.876L37.0182 25.096C37.0255 25.1009 37.032 25.1069 37.0376 25.1136C37.0387 25.12 37.0387 25.1266 37.0376 25.133V25.485C37.0386 25.4869 37.0392 25.489 37.0392 25.4912C37.0392 25.4933 37.0386 25.4954 37.0376 25.4973C37.0313 25.4995 37.0245 25.4995 37.0182 25.4973L36.9179 25.4392C36.9108 25.4355 36.9048 25.43 36.9003 25.4234C36.898 25.4165 36.898 25.4091 36.9003 25.4023V25.1682L36.814 25.1136C36.8211 25.1276 36.8265 25.1424 36.8299 25.1576C36.8325 25.1728 36.8325 25.1883 36.8299 25.2034C36.8308 25.2307 36.8254 25.2578 36.814 25.2826C36.8057 25.3029 36.79 25.3192 36.77 25.3284C36.7476 25.3349 36.7238 25.3349 36.7014 25.3284C36.6672 25.3209 36.6345 25.3078 36.6046 25.2896C36.5676 25.2687 36.5339 25.2426 36.5043 25.2122C36.4752 25.1849 36.4503 25.1534 36.4304 25.1189C36.4112 25.0868 36.3958 25.0525 36.3846 25.0168C36.3757 24.9835 36.371 24.9492 36.3705 24.9147C36.3694 24.8835 36.3748 24.8523 36.3864 24.8232C36.3951 24.8028 36.4107 24.786 36.4304 24.7757C36.4506 24.7659 36.4732 24.7622 36.4955 24.7652C36.5221 24.7694 36.5477 24.7784 36.5711 24.7916C36.5767 24.7953 36.5815 24.8001 36.5852 24.8056C36.5867 24.8108 36.5867 24.8163 36.5852 24.8215V24.9271C36.5852 24.9365 36.5852 24.9417 36.5852 24.9429L36.5676 24.9587Z" fill="#455A64"/>
<path d="M42.2277 27.5033C42.2766 27.5257 42.3305 27.5346 42.384 27.5294C42.4375 27.5241 42.4886 27.5048 42.5322 27.4734C42.6574 27.3915 42.7615 27.2813 42.8361 27.1516C42.9107 27.022 42.9537 26.8765 42.9617 26.7272C42.9673 26.6737 42.9585 26.6198 42.9362 26.5709C42.9139 26.5219 42.879 26.4799 42.8349 26.4491L39.1829 24.3371C39.1341 24.3148 39.0801 24.3058 39.0267 24.311C38.9732 24.3163 38.9221 24.3356 38.8785 24.367C38.7536 24.4492 38.6497 24.5595 38.5751 24.6891C38.5006 24.8187 38.4574 24.964 38.449 25.1133C38.4432 25.1667 38.4519 25.2208 38.4742 25.2697C38.4965 25.3186 38.5316 25.3606 38.5757 25.3913L42.2277 27.5033Z" fill="#F0F0F0"/>
<path d="M42.9618 26.7275C42.9723 26.6739 42.9658 26.6184 42.9431 26.5687C42.9205 26.519 42.8829 26.4776 42.8356 26.4502C42.7884 26.4229 42.7337 26.411 42.6793 26.4162C42.625 26.4215 42.5736 26.4435 42.5324 26.4794C42.407 26.5612 42.3026 26.6714 42.2277 26.801C42.1528 26.9307 42.1094 27.0761 42.1012 27.2256C42.0902 27.2795 42.0965 27.3355 42.1192 27.3857C42.1418 27.4358 42.1797 27.4776 42.2274 27.505C42.2751 27.5325 42.3302 27.5442 42.3849 27.5386C42.4397 27.533 42.4913 27.5103 42.5324 27.4738C42.6575 27.3919 42.7617 27.2816 42.8363 27.152C42.9109 27.0223 42.9539 26.8769 42.9618 26.7275Z" fill="#FAFAFA"/>
<path d="M41.4639 27.0619L41.3179 26.9775C41.2739 26.9467 41.2391 26.9046 41.2171 26.8556C41.1951 26.8067 41.1867 26.7527 41.1929 26.6994C41.2007 26.5502 41.2437 26.405 41.3183 26.2756C41.3929 26.1462 41.4971 26.0363 41.6223 25.9549C41.6659 25.9235 41.7171 25.9042 41.7706 25.8989C41.824 25.8937 41.8779 25.9027 41.9268 25.925L42.0711 26.0095C42.0224 25.9868 41.9684 25.9776 41.9148 25.9828C41.8613 25.9881 41.8101 26.0076 41.7667 26.0394C41.6414 26.1208 41.5373 26.2307 41.4626 26.3601C41.388 26.4895 41.345 26.6347 41.3372 26.7839C41.3316 26.8373 41.3404 26.8913 41.3627 26.9402C41.385 26.9891 41.4199 27.0311 41.4639 27.0619Z" fill="#E0E0E0"/>
<path d="M39.4629 25.9072L39.3186 25.8227C39.2746 25.792 39.2398 25.7499 39.2178 25.7009C39.1958 25.6519 39.1874 25.598 39.1936 25.5446C39.2014 25.3955 39.2444 25.2503 39.319 25.1209C39.3937 24.9915 39.4979 24.8816 39.6231 24.8002C39.6663 24.7687 39.7172 24.7494 39.7704 24.7441C39.8236 24.7389 39.8772 24.7479 39.9258 24.7702L40.0719 24.8547C40.0231 24.832 39.9691 24.8228 39.9156 24.8281C39.862 24.8334 39.8108 24.8529 39.7674 24.8846C39.6422 24.9661 39.538 25.076 39.4633 25.2053C39.3887 25.3347 39.3457 25.4799 39.338 25.6291C39.3325 25.6824 39.3412 25.7361 39.3631 25.7849C39.3851 25.8337 39.4195 25.8759 39.4629 25.9072Z" fill="#E0E0E0"/>
<path d="M40.8321 26.6938L39.9521 26.1904C39.9082 26.1596 39.8733 26.1175 39.8513 26.0686C39.8293 26.0196 39.821 25.9656 39.8272 25.9123C39.8345 25.7631 39.8773 25.6177 39.952 25.4882C40.0267 25.3588 40.1311 25.2489 40.2566 25.1678C40.3001 25.1361 40.3512 25.1166 40.4048 25.1113C40.4583 25.106 40.5123 25.1152 40.5611 25.1379L41.4411 25.6413C41.3922 25.619 41.3383 25.61 41.2848 25.6152C41.2314 25.6205 41.1802 25.6398 41.1366 25.6712C41.0117 25.7529 40.9077 25.8629 40.8331 25.9922C40.7585 26.1216 40.7154 26.2666 40.7072 26.4157C40.7017 26.4689 40.7104 26.5227 40.7324 26.5715C40.7543 26.6203 40.7887 26.6625 40.8321 26.6938Z" fill="#E0E0E0"/>
<path d="M44.2148 29.6439L44.4665 29.5717L43.3577 29.4731L42.7083 29.5101L44.2148 29.6439Z" fill="#37474F"/>
<path d="M43.3577 27.9944V29.4728L42.7083 29.5098V27.6812L43.3577 27.9944Z" fill="#263238"/>
<path d="M44.4665 26.6164L43.9702 26.1113L42.7083 27.6812L43.3577 27.9945L44.4665 26.6164Z" fill="#37474F"/>
<path d="M45.5753 26.715L45.4768 26.2451L43.9702 26.1113L44.4665 26.6164L45.5753 26.715Z" fill="#455A64"/>
<path d="M45.5753 28.1937V26.7153L44.4665 26.6167L43.3577 27.9948V29.4732L44.4665 29.5717L45.5753 28.1937Z" fill="#455A64"/>
<path d="M42.7082 29.51L41.8335 29.0049V27.1763L42.7082 27.6814V29.51Z" fill="#263238"/>
<path d="M43.9701 26.1116L42.7082 27.6815L41.8335 27.1764L43.0954 25.6064L43.9701 26.1116Z" fill="#37474F"/>
<path d="M45.4767 26.2453L44.602 25.7402L43.0955 25.6064L43.9702 26.1116L45.4767 26.2453Z" fill="#455A64"/>
<path opacity="0.2" d="M42.7276 28.5945C42.7276 28.2936 42.7382 27.9926 42.7382 27.6916L43.3647 26.9172L43.9825 26.1411C44.48 26.1798 44.978 26.2144 45.4767 26.2449C44.9769 26.1868 44.4735 26.1323 43.9719 26.083H43.9578L43.9473 26.0953L43.3119 26.8768L42.6836 27.6635V27.6723V27.6828C42.6836 27.9873 42.6836 28.2918 42.6942 28.5963C42.7047 28.9008 42.7082 29.207 42.7153 29.5115C42.7135 29.2052 42.7258 28.899 42.7276 28.5945Z" fill="black"/>
<path d="M43.0956 25.6064L42.7277 25.6786L41.677 26.9845L41.8336 27.1764L43.0956 25.6064Z" fill="#37474F"/>
<path d="M41.677 28.5068L41.8336 29.0049V27.1762L41.677 26.9844V28.5068Z" fill="#263238"/>
<g opacity="0.2">
<path d="M41.8336 29.005C41.8213 28.7005 41.8107 28.3943 41.8072 28.0898C41.8037 27.7853 41.8072 27.4808 41.8072 27.1764V27.164V27.1552C42.0167 26.893 42.2296 26.6272 42.4426 26.3738C42.6555 26.1204 42.8738 25.8599 43.0955 25.6064C42.8949 25.8757 42.6925 26.1344 42.4848 26.409C42.2771 26.6836 42.0695 26.937 41.86 27.1975V27.1764C41.86 27.4808 41.86 27.7853 41.86 28.0898C41.86 28.3943 41.8442 28.7005 41.8336 29.005Z" fill="black"/>
</g>
<path opacity="0.1" d="M45.5753 26.7153L44.4964 26.6889L43.4351 28.0229L43.421 29.4309L44.4665 29.5717L43.3577 29.4732V27.9948L44.4665 26.6167L45.5753 26.7153Z" fill="white"/>
<path d="M42.1504 28.1796H42.1328C42.127 28.1782 42.1209 28.1782 42.1152 28.1796C42.1119 28.1811 42.1089 28.1833 42.1065 28.186C42.104 28.1887 42.1022 28.1919 42.1011 28.1954C42.0989 28.2047 42.0989 28.2143 42.1011 28.2236C42.0994 28.2358 42.0994 28.2483 42.1011 28.2605C42.1049 28.2734 42.1103 28.2858 42.1169 28.2975C42.1241 28.3094 42.1324 28.3205 42.1416 28.3309C42.1528 28.3417 42.1652 28.3511 42.1785 28.3591C42.1859 28.3648 42.1946 28.3686 42.2038 28.3702C42.213 28.3717 42.2225 28.3709 42.2313 28.3679C42.2454 28.3609 42.2524 28.345 42.2524 28.3204C42.2541 28.3122 42.2541 28.3039 42.2524 28.2957C42.2524 28.2869 42.2524 28.2799 42.2524 28.2729L42.2436 28.2517C42.2432 28.2471 42.2432 28.2423 42.2436 28.2377V28.1092C42.2436 28.1092 42.2436 28.0986 42.2436 28.0969C42.2467 28.0954 42.25 28.0947 42.2533 28.0947C42.2567 28.0947 42.26 28.0954 42.263 28.0969L42.5921 28.3362C42.5998 28.3406 42.6064 28.3466 42.6115 28.3538C42.6129 28.3602 42.6129 28.3668 42.6115 28.3732V28.7252C42.6123 28.7268 42.6127 28.7286 42.6127 28.7305C42.6127 28.7323 42.6123 28.7341 42.6115 28.7357C42.6053 28.7382 42.5983 28.7382 42.5921 28.7357L42.4918 28.6777C42.4843 28.6737 42.4782 28.6676 42.4742 28.6601C42.4694 28.6546 42.4664 28.6479 42.4654 28.6407V28.4013L42.3809 28.3468C42.388 28.3607 42.3934 28.3755 42.3968 28.3908C42.3994 28.4059 42.3994 28.4214 42.3968 28.4365C42.3977 28.4638 42.3923 28.4909 42.3809 28.5157C42.3721 28.5357 42.3565 28.5519 42.3369 28.5615C42.314 28.5689 42.2894 28.5689 42.2665 28.5615C42.2327 28.5548 42.2004 28.5417 42.1715 28.5228C42.1342 28.503 42.1004 28.4775 42.0712 28.4471C42.0425 28.4194 42.0177 28.388 41.9972 28.3538C41.9781 28.3217 41.9627 28.2874 41.9515 28.2517C41.9416 28.218 41.9369 28.183 41.9374 28.1479C41.9363 28.1172 41.9417 28.0866 41.9532 28.0581C41.962 28.0377 41.9776 28.0209 41.9972 28.0106C42.0171 27.9999 42.0401 27.9961 42.0624 28.0001C42.089 28.0043 42.1146 28.0133 42.138 28.0265C42.144 28.0297 42.1489 28.0346 42.1521 28.0405C42.1542 28.0456 42.1542 28.0513 42.1521 28.0564V28.1602C42.1521 28.1602 42.1521 28.1761 42.1521 28.1778L42.1504 28.1796Z" fill="#455A64"/>
<path d="M41.3196 26.1449C41.4126 26.0403 41.539 25.9711 41.6772 25.949C41.8154 25.9269 41.9571 25.9532 42.0781 26.0235L42.1344 26.0552C42.1344 26.0552 42.1978 25.6416 41.9954 25.4796C41.8693 25.3804 41.7216 25.3123 41.5642 25.2808C41.5535 25.1951 41.5259 25.1124 41.483 25.0375C41.4401 24.9626 41.3827 24.8969 41.3143 24.8443C41.1468 24.7662 40.9617 24.7334 40.7775 24.7492C40.7352 24.6401 40.6669 24.5428 40.5786 24.4659C40.4167 24.3128 40.2266 24.2212 39.4698 24.3814C38.713 24.5416 38.2624 24.7827 38.2501 25.0555C38.2378 25.3283 38.4121 26.7116 38.5617 27.0689C38.7113 27.4262 39.2216 27.6092 39.6704 27.868C40.1192 28.1267 40.7898 28.3062 41.4304 28.6564L41.6716 27.6708V27.1921L41.4568 27.0689C41.3804 27.0246 41.3147 26.9639 41.2645 26.8911C41.2144 26.8184 41.181 26.7354 41.1669 26.6481C41.1528 26.5609 41.1582 26.4716 41.1827 26.3867C41.2073 26.3018 41.2504 26.2234 41.309 26.1572L41.3196 26.1449Z" fill="#FFA8A7"/>
<path d="M53.99 19.4885C53.99 19.4885 57.019 19.1224 58.742 19.6521L61.5052 20.5005C61.9118 21.0179 62.2462 22.7269 62.0631 23.8445C61.9065 24.7949 61.1409 28.7725 60.9684 29.9869C61.8484 31.6395 62.9871 34.5998 62.9871 34.5998C60.5231 36.8878 51.2356 37.0885 49.6481 34.3798C49.6481 34.3798 49.935 32.5952 50.1514 30.5712C50.1849 29.3128 50.0775 28.3817 50.0494 27.6883C50.0494 27.6883 49.1694 26.884 49.1201 25.1944C49.0919 24.1525 49.2679 23.5523 50.6407 21.9014C52.0135 20.2505 52.7281 19.6257 52.7281 19.6257L53.99 19.4885Z" fill="#BA68C8"/>
<path opacity="0.2" d="M53.2456 27.641C54.4776 29.049 57.4203 28.4964 58.1877 26.937C57.8797 29.3359 53.8194 29.4837 53.2456 27.641Z" fill="black"/>
<path opacity="0.3" d="M61.0353 35.6207C60.4985 34.2004 59.4865 31.3967 59.2313 29.8127C58.8793 27.6268 60.62 23.8375 60.62 23.8375L62.072 23.7988V23.8375C61.9153 24.7879 61.1497 28.7655 60.9772 29.9799C61.8572 31.6326 62.996 34.5929 62.996 34.5929C62.5401 35.0083 61.859 35.3532 61.0353 35.6207Z" fill="white"/>
<path d="M55.9188 17.2095C55.2056 16.8116 54.5437 16.3282 53.9476 15.7698C53.6115 15.4477 53.5428 14.9901 53.4619 14.5537C53.3874 14.095 53.2145 13.6579 52.955 13.2724C52.8131 13.0304 52.6166 12.8249 52.3812 12.6722C52.2052 12.5737 51.9835 12.5385 51.811 12.4241C51.6698 12.3249 51.5681 12.1791 51.5237 12.0124C51.4792 11.8457 51.495 11.6687 51.5681 11.5124C51.4422 11.6205 51.3454 11.7585 51.2865 11.9137C51.2598 11.9919 51.2594 12.0768 51.2854 12.1553C51.3115 12.2339 51.3626 12.3017 51.4308 12.3484C51.2645 12.3169 51.1136 12.2304 51.0025 12.1026C50.8913 11.9749 50.8265 11.8135 50.8184 11.6444C50.8181 11.4735 50.8602 11.3053 50.941 11.1548C51.0218 11.0043 51.1387 10.8762 51.2812 10.782C51.4942 10.6341 51.8092 10.518 51.8638 10.2293C51.8724 10.104 51.8581 9.97818 51.8216 9.85799C51.7755 9.6343 51.7789 9.40325 51.8316 9.18103C51.8843 8.9588 51.9849 8.75078 52.1264 8.57154C52.2679 8.39229 52.4469 8.24616 52.6508 8.14338C52.8548 8.0406 53.0787 7.98366 53.307 7.97655C53.7277 7.98503 54.1484 7.96091 54.5654 7.90439C54.972 7.82871 55.3715 7.75303 55.7833 7.69143C56.1911 7.62548 56.6065 7.62192 57.0153 7.68087C58.2808 7.84455 59.6553 8.84951 59.9035 10.1449C60.105 10.1563 60.301 10.2148 60.4758 10.3157C60.6507 10.4165 60.7994 10.5569 60.9102 10.7257C61.2454 11.2766 61.4016 11.918 61.3572 12.5613C61.2112 14.2157 60.6691 15.1485 59.5849 16.1817C59.0428 16.6991 58.4638 17.2605 58.1646 17.954C58.066 18.1775 58.1646 18.306 57.8584 18.2708C57.5521 18.2356 57.2336 17.9681 56.9784 17.822L55.9188 17.2095Z" fill="#263238"/>
<path d="M59.5637 16.1094C59.7904 16.1337 60.0097 16.204 60.2084 16.3157C60.4071 16.4275 60.5809 16.5786 60.7194 16.7597C60.8578 16.9408 60.958 17.1481 61.0138 17.3692C61.0696 17.5902 61.0798 17.8203 61.0439 18.0454C61.009 17.6264 60.8143 17.237 60.5001 16.9577C60.1875 16.6787 59.8014 16.4955 59.3877 16.4297C59.6711 16.5564 59.8189 16.8697 59.8893 17.1724C60.0226 17.7633 59.9408 18.3823 59.6588 18.9183C59.7468 18.6129 59.7631 18.2913 59.7063 17.9785C59.6925 17.6663 59.6222 17.3592 59.4986 17.0721C59.43 16.9383 59.3385 16.8169 59.2804 16.6761C59.2474 16.6081 59.2302 16.5335 59.2302 16.4579C59.2302 16.3823 59.2474 16.3076 59.2804 16.2396" fill="#263238"/>
<path d="M61.2113 13.5521C61.4593 13.5402 61.6979 13.4537 61.8959 13.3039C61.9938 13.2286 62.0678 13.1265 62.1091 13.01C62.1503 12.8935 62.1569 12.7676 62.1282 12.6474C62.3089 12.7225 62.5094 12.7352 62.6981 12.6836C62.8868 12.6319 63.0529 12.5189 63.1702 12.3623C63.2805 12.2014 63.3546 12.0185 63.3874 11.8261C63.4202 11.6338 63.4109 11.4366 63.3602 11.2482C63.4769 11.4385 63.548 11.6531 63.5682 11.8753C63.5883 12.0975 63.5569 12.3214 63.4764 12.5295C63.7691 11.9676 63.884 11.33 63.8057 10.7012C63.7274 10.0725 63.4597 9.48249 63.0382 9.00952C62.5102 8.434 61.609 8.08024 60.9262 8.48152C60.5913 8.19615 60.1634 8.04355 59.7235 8.05263C59.2836 8.06171 58.8624 8.23185 58.5396 8.5308C58.1735 8.89336 58.2809 9.11864 58.2087 9.6308C58.1502 10.1452 58.1903 10.6661 58.3266 11.1655C58.4325 11.6706 58.6489 12.1461 58.9602 12.5577C59.6026 13.3162 60.2186 13.6471 61.2113 13.5521Z" fill="#263238"/>
<path d="M58.4691 18.8324C58.4286 17.9524 58.4233 16.6218 58.4233 16.6218C58.5641 16.8471 59.3931 17.2132 60.0513 16.4458C60.8081 15.557 60.7553 14.8618 60.3311 14.3708C59.8383 13.8041 58.8862 13.8551 58.4233 14.6453C57.7827 14.7316 57.5873 13.7477 58.154 12.8853C58.1311 12.1233 57.0188 12.0546 57.1702 10.0693C55.5862 10.7188 53.5481 9.36534 52.566 11.0391C52.3161 11.5882 51.9923 12.4577 51.9271 14.0505C51.8374 16.2153 52.2545 17.2484 52.9286 17.6285C53.3299 17.8556 53.7118 18.0087 54.5126 18.0193C54.5126 18.0193 54.5267 18.5754 54.5372 18.9785C54.546 19.2724 54.458 19.4431 54.0796 19.4924C53.6889 19.9394 52.7455 20.7437 54.8329 21.0077C57.5239 21.3474 58.983 20.1401 59.2663 19.8268C58.5588 19.5892 58.4937 19.3868 58.4691 18.8324Z" fill="#FFA8A7"/>
<path d="M57.4446 14.5871C57.3338 15.0166 57.508 15.534 57.9093 15.7259C57.8036 15.4784 57.7583 15.2093 57.7773 14.9409C57.786 14.8059 57.8244 14.6746 57.8898 14.5562C57.9552 14.4378 58.046 14.3354 58.1557 14.2563C58.2437 14.1982 58.3422 14.1595 58.4302 14.0996C58.475 14.073 58.5138 14.0373 58.5441 13.9949C58.5744 13.9525 58.5956 13.9042 58.6062 13.8532C58.6696 13.3657 58.1064 13.6948 57.955 13.818C57.7083 14.0143 57.5297 14.2835 57.4446 14.5871Z" fill="#263238"/>
<path d="M55.5333 15.6641L54.384 15.9105C54.3968 15.9875 54.4251 16.0611 54.4671 16.1269C54.5091 16.1927 54.564 16.2494 54.6284 16.2934C54.6929 16.3375 54.7656 16.368 54.8421 16.3833C54.9187 16.3985 54.9975 16.3982 55.074 16.3821C55.2283 16.3448 55.3623 16.2492 55.4479 16.1154C55.5335 15.9816 55.5641 15.8199 55.5333 15.6641Z" fill="#B16668"/>
<path d="M55.4401 15.9123C55.2894 15.8925 55.1366 15.926 55.008 16.007C54.8794 16.088 54.7832 16.2114 54.7361 16.3558C54.8403 16.3965 54.9541 16.4057 55.0634 16.3822C55.1736 16.3568 55.2744 16.3012 55.3546 16.2216C55.4348 16.142 55.4913 16.0416 55.5175 15.9317C55.4921 15.9237 55.4663 15.9172 55.4401 15.9123Z" fill="#F28F8F"/>
<path d="M52.5854 11.9859L53.4918 11.9753C53.4943 11.9162 53.4846 11.8572 53.4633 11.8019C53.4421 11.7466 53.4099 11.6963 53.3685 11.6539C53.3271 11.6116 53.2776 11.5781 53.2228 11.5556C53.168 11.5331 53.1093 11.522 53.0501 11.523C52.928 11.5257 52.8116 11.5753 52.7251 11.6614C52.6386 11.7476 52.5886 11.8638 52.5854 11.9859Z" fill="#263238"/>
<path d="M56.8375 12.4471L55.9575 12.1849C55.9717 12.1266 55.9976 12.0718 56.0337 12.0239C56.0697 11.976 56.1151 11.9359 56.1672 11.9061C56.2192 11.8763 56.2768 11.8574 56.3363 11.8505C56.3959 11.8437 56.4562 11.8491 56.5137 11.8663C56.6316 11.9034 56.7309 11.9843 56.7911 12.0923C56.8514 12.2003 56.868 12.3272 56.8375 12.4471Z" fill="#263238"/>
<path d="M53.4917 13.2143C53.4886 13.3147 53.4467 13.41 53.3748 13.4802C53.303 13.5504 53.2067 13.5901 53.1063 13.591C53.0573 13.5919 53.0085 13.583 52.9631 13.5647C52.9176 13.5463 52.8762 13.519 52.8416 13.4843C52.8069 13.4497 52.7796 13.4083 52.7613 13.3628C52.7429 13.3174 52.734 13.2686 52.7349 13.2196C52.7394 13.1201 52.7819 13.0262 52.8536 12.9571C52.9253 12.888 53.0208 12.8491 53.1204 12.8483C53.169 12.8471 53.2174 12.8557 53.2626 12.8736C53.3079 12.8915 53.3491 12.9183 53.3837 12.9525C53.4184 12.9867 53.4458 13.0275 53.4643 13.0724C53.4829 13.1174 53.4922 13.1657 53.4917 13.2143Z" fill="#263238"/>
<path d="M56.2163 13.54C56.2131 13.6408 56.1711 13.7366 56.0989 13.8071C56.0267 13.8776 55.93 13.9175 55.8291 13.9184C55.7805 13.9193 55.7323 13.9105 55.6871 13.8925C55.642 13.8745 55.6009 13.8477 55.5663 13.8136C55.5317 13.7795 55.5043 13.7388 55.4856 13.6939C55.467 13.649 55.4575 13.6009 55.4578 13.5523C55.4605 13.4516 55.5022 13.3559 55.5741 13.2853C55.646 13.2147 55.7425 13.1748 55.8432 13.1739C55.8919 13.173 55.9402 13.1817 55.9855 13.1997C56.0307 13.2177 56.0719 13.2445 56.1066 13.2786C56.1414 13.3127 56.169 13.3534 56.1878 13.3982C56.2066 13.4431 56.2163 13.4913 56.2163 13.54Z" fill="#263238"/>
<path d="M53.0112 14.3988L54.208 15.0553L54.773 12.6177L53.0112 14.3988Z" fill="#F28F8F"/>
<path d="M54.5161 18.0049C55.9611 18.0049 57.3761 17.6529 57.7598 17.0352C57.7209 17.2229 57.6378 17.3987 57.5176 17.548C57.3973 17.6974 57.2432 17.816 57.0681 17.894C56.2075 18.2953 54.5249 18.3604 54.5249 18.3604L54.5161 18.0049Z" fill="#F28F8F"/>
<path d="M68.457 40.8004L68.2053 40.7265L69.3141 40.6279L69.9636 40.6649L68.457 40.8004Z" fill="#37474F"/>
<path d="M69.3142 39.1497V40.6281L69.9636 40.6651V38.8364L69.3142 39.1497Z" fill="#263238"/>
<path d="M68.2053 37.7712L68.7016 37.2661L69.9636 38.836L69.3141 39.1493L68.2053 37.7712Z" fill="#37474F"/>
<path d="M67.0967 37.8698L67.1952 37.4016L68.7018 37.2661L68.2055 37.7712L67.0967 37.8698Z" fill="#455A64"/>
<path d="M67.0967 39.3484V37.87L68.2055 37.7715L69.3143 39.1496V40.628L68.2055 40.7265L67.0967 39.3484Z" fill="#455A64"/>
<path d="M69.9636 40.6648L70.8401 40.1597V38.3311L69.9636 38.8362V40.6648Z" fill="#263238"/>
<path d="M68.7017 37.2664L69.9636 38.8363L70.8401 38.3312L69.5764 36.7612L68.7017 37.2664Z" fill="#37474F"/>
<path d="M67.1953 37.4019L68.07 36.8968L69.5766 36.7612L68.7019 37.2664L67.1953 37.4019Z" fill="#455A64"/>
<path opacity="0.2" d="M69.9654 40.6648C69.9654 40.3603 69.983 40.0558 69.9847 39.7514C69.9865 39.4469 69.9953 39.1424 69.9953 38.8362V38.8256L69.367 38.0389L68.7316 37.2574L68.7228 37.2451H68.707C68.2054 37.2962 67.7037 37.349 67.2021 37.4088C67.7002 37.3789 68.1983 37.3419 68.6964 37.3032L69.3141 38.0794L69.9407 38.8555C69.9407 39.1565 69.9407 39.4574 69.9513 39.7584C69.9618 40.0594 69.9583 40.3603 69.9654 40.6648Z" fill="black"/>
<path d="M69.5764 36.7612L69.9443 36.8334L70.995 38.1411L70.8401 38.3312L69.5764 36.7612Z" fill="#37474F"/>
<path d="M70.995 39.6635L70.8401 40.1598V38.3312L70.995 38.1411V39.6635Z" fill="#263238"/>
<g opacity="0.2">
<path d="M70.8401 40.1598C70.8507 39.8553 70.8613 39.5508 70.8648 39.2464C70.8683 38.9419 70.8648 38.6374 70.8736 38.3312V38.3206V38.31C70.6624 38.0496 70.45 37.7897 70.2365 37.5304C70.0217 37.2716 69.8053 37.0147 69.5835 36.7612C69.7841 37.0323 69.9877 37.2998 70.1942 37.5638C70.4019 37.8278 70.6096 38.0918 70.8208 38.3523L70.812 38.3312C70.812 38.6374 70.812 38.9419 70.8208 39.2464C70.8296 39.5508 70.8278 39.8553 70.8401 40.1598Z" fill="black"/>
</g>
<path opacity="0.1" d="M67.0967 37.87L68.1756 37.8436L69.2368 39.1795L69.2509 40.5857L68.2055 40.7265L69.3143 40.628V39.1496L68.2055 37.7715L67.0967 37.87Z" fill="white"/>
<path d="M64.8614 41.8881C64.8129 41.9108 64.7592 41.92 64.7059 41.9148C64.6526 41.9095 64.6018 41.8899 64.5587 41.8582C64.4335 41.7765 64.3293 41.6666 64.2544 41.5373C64.1795 41.408 64.136 41.2629 64.1275 41.1137C64.1217 41.06 64.1304 41.0057 64.1527 40.9565C64.175 40.9073 64.21 40.865 64.2542 40.8339L67.9062 38.7219C67.9551 38.6995 68.009 38.6905 68.0625 38.6958C68.1159 38.7011 68.1671 38.7204 68.2107 38.7518C68.3354 38.8333 68.4392 38.943 68.5138 39.072C68.5884 39.201 68.6316 39.3457 68.6401 39.4945C68.6459 39.548 68.6372 39.602 68.6149 39.6509C68.5926 39.6999 68.5575 39.7419 68.5134 39.7726L64.8614 41.8881Z" fill="#F0F0F0"/>
<path d="M64.1275 41.1069C64.1166 41.0529 64.1229 40.9969 64.1456 40.9468C64.1682 40.8966 64.2061 40.8549 64.2537 40.8274C64.3014 40.8 64.3566 40.7882 64.4113 40.7938C64.466 40.7995 64.5176 40.8221 64.5588 40.8587C64.684 40.9401 64.7882 41.05 64.8628 41.1794C64.9374 41.3088 64.9804 41.454 64.9882 41.6032C64.9987 41.6568 64.9921 41.7123 64.9695 41.762C64.9469 41.8117 64.9093 41.8532 64.862 41.8805C64.8147 41.9078 64.7601 41.9197 64.7057 41.9145C64.6514 41.9092 64.6 41.8872 64.5588 41.8513C64.4336 41.7697 64.3294 41.6598 64.2545 41.5305C64.1796 41.4012 64.1361 41.256 64.1275 41.1069Z" fill="#FAFAFA"/>
<path d="M65.627 41.4394L65.7713 41.3549C65.8152 41.3245 65.8499 41.2827 65.8719 41.234C65.8939 41.1854 65.9024 41.1317 65.8963 41.0786C65.8888 40.9292 65.846 40.7836 65.7713 40.6539C65.6967 40.5242 65.5923 40.414 65.4669 40.3324C65.4236 40.301 65.3728 40.2816 65.3196 40.2764C65.2664 40.2711 65.2127 40.2801 65.1641 40.3025L65.0181 40.3869C65.0669 40.3646 65.1209 40.3556 65.1743 40.3609C65.2278 40.3661 65.2789 40.3855 65.3225 40.4169C65.4477 40.4984 65.5518 40.6083 65.6264 40.7377C65.701 40.867 65.7441 41.0122 65.752 41.1613C65.7574 41.2146 65.7488 41.2683 65.7268 41.3172C65.7049 41.366 65.6705 41.4081 65.627 41.4394Z" fill="#E0E0E0"/>
<path d="M67.6263 40.2846L67.7706 40.2002C67.8144 40.1695 67.8492 40.1277 67.8714 40.0792C67.8937 40.0306 67.9026 39.977 67.8973 39.9238C67.8891 39.7743 67.8457 39.6289 67.7708 39.4992C67.6959 39.3696 67.5915 39.2594 67.4661 39.1776C67.4229 39.1462 67.372 39.1268 67.3188 39.1216C67.2656 39.1163 67.212 39.1253 67.1634 39.1477L67.0173 39.2322C67.0662 39.2098 67.1201 39.2008 67.1736 39.2061C67.2271 39.2114 67.2782 39.2307 67.3218 39.2621C67.4472 39.3433 67.5516 39.4531 67.6262 39.5826C67.7009 39.712 67.7438 39.8573 67.7513 40.0066C67.7575 40.0599 67.7491 40.1139 67.7271 40.1628C67.7051 40.2118 67.6703 40.2539 67.6263 40.2846Z" fill="#E0E0E0"/>
<path d="M66.2625 41.0734L67.1425 40.5683C67.1865 40.5376 67.2213 40.4955 67.2433 40.4465C67.2653 40.3976 67.2736 40.3436 67.2674 40.2902C67.2599 40.141 67.2171 39.9957 67.1424 39.8663C67.0678 39.7368 66.9634 39.627 66.838 39.5458C66.7947 39.5143 66.7439 39.495 66.6907 39.4897C66.6375 39.4845 66.5838 39.4935 66.5353 39.5158L65.6553 40.0192C65.7042 39.9969 65.7581 39.9879 65.8115 39.9931C65.865 39.9984 65.9162 40.0177 65.9598 40.0491C66.0849 40.131 66.189 40.2413 66.2636 40.3709C66.3382 40.5006 66.3813 40.646 66.3892 40.7954C66.3944 40.8488 66.3855 40.9026 66.3632 40.9515C66.341 41.0003 66.3062 41.0424 66.2625 41.0734Z" fill="#E0E0E0"/>
<path d="M62.8745 44.0213L62.6228 43.9491L63.7316 43.8506L64.3828 43.8875L62.8745 44.0213Z" fill="#37474F"/>
<path d="M63.7314 42.3719V43.8503L64.3826 43.8872L64.3809 42.0586L63.7314 42.3719Z" fill="#263238"/>
<path d="M62.6228 40.9939L63.1191 40.4888L64.381 42.0587L63.7316 42.372L62.6228 40.9939Z" fill="#37474F"/>
<path d="M61.5139 41.0924L61.6125 40.6243L63.119 40.4888L62.6227 40.9939L61.5139 41.0924Z" fill="#455A64"/>
<path d="M61.5139 42.5711V41.0927L62.6227 40.9941L63.7315 42.3722V43.8506L62.6227 43.9492L61.5139 42.5711Z" fill="#455A64"/>
<path opacity="0.1" d="M61.5139 41.0928L61.609 42.5219L62.6227 43.9493L61.5139 42.5712V41.0928Z" fill="white"/>
<path d="M64.3826 43.8875L65.2573 43.3824L65.2556 41.5537L64.3809 42.0588L64.3826 43.8875Z" fill="#263238"/>
<path d="M63.1191 40.489L64.3811 42.0589L65.2558 41.5538L63.9956 39.9839L63.1191 40.489Z" fill="#37474F"/>
<path d="M61.6125 40.6245L62.4873 40.1194L63.9956 39.9839L63.1191 40.489L61.6125 40.6245Z" fill="#455A64"/>
<path opacity="0.2" d="M64.381 43.8875C64.381 43.583 64.4004 43.2785 64.4021 42.974C64.4039 42.6695 64.4127 42.3633 64.4127 42.0588V42.0483L63.7844 41.2615L63.142 40.4801L63.1332 40.4678H63.1173C62.6157 40.5188 62.1124 40.5716 61.6125 40.6315C62.1106 40.6015 62.6087 40.5646 63.1068 40.5259L63.7245 41.302L64.3511 42.0764C64.3511 42.3774 64.3511 42.6783 64.3617 42.9811C64.3722 43.2838 64.3757 43.583 64.381 43.8875Z" fill="black"/>
<path d="M63.9956 39.9839L64.3617 40.056L65.4124 41.3637L65.2558 41.5538L63.9956 39.9839Z" fill="#37474F"/>
<path d="M65.4123 42.8844L65.2574 43.3825L65.2556 41.5538L65.4123 41.3638V42.8844Z" fill="#263238"/>
<g opacity="0.2">
<path d="M65.2574 43.3824C65.2679 43.0779 65.2785 42.7734 65.282 42.4689C65.2855 42.1644 65.282 41.8582 65.2908 41.5537V41.5361V41.5273C65.0796 41.2651 64.8667 40.9993 64.6537 40.7459C64.4407 40.4924 64.2225 40.232 64.0007 39.9785C64.2014 40.2496 64.4055 40.5065 64.6114 40.7811C64.8174 41.0556 65.0268 41.3091 65.2363 41.5696V41.5484C65.2363 41.8529 65.2362 42.1574 65.245 42.4636C65.2538 42.7699 65.245 43.0779 65.2574 43.3824Z" fill="black"/>
</g>
<path opacity="0.1" d="M61.5139 41.0927L62.5928 41.0663L63.6541 42.4004L63.6682 43.8084L62.6227 43.9492L63.7315 43.8506V42.3722L62.6227 40.9941L61.5139 41.0927Z" fill="white"/>
<path d="M67.4575 38.141C67.4047 37.2522 67.2639 34.2038 67.1917 33.2587C67.0985 32.0162 67.1037 31.3227 66.9964 30.5483C66.8785 29.6806 66.1516 27.5035 65.5074 25.4162C64.6749 22.7216 64.4162 22.1126 63.7809 21.4966C63.0575 20.7926 62.2954 20.6166 61.0212 20.3491C59.8578 21.421 60.5354 24.7773 61.1197 25.835C61.7041 26.8928 63.0997 30.3248 63.0997 30.3248L64.0889 34.7547C64.3476 35.9022 64.6309 37.055 64.6309 37.055C64.733 37.6112 65.0287 38.3381 64.8597 38.9136C64.6908 39.4891 64.4461 40.1597 64.4461 40.1597L64.7753 40.5698L65.2029 40.2794C65.4015 40.3583 65.5736 40.492 65.6993 40.6648C65.8753 40.9376 65.7609 41.36 65.6271 41.4392L65.4124 41.5624V42.8842C65.631 43.0024 65.8617 43.0968 66.1005 43.1658C66.4314 43.2485 66.4525 43.127 66.7218 42.9722C66.9911 42.8173 67.1407 42.9722 67.373 42.8331C67.6053 42.6941 67.6617 42.4371 67.813 42.372C67.9157 42.3336 68.008 42.2718 68.0825 42.1914C68.1571 42.111 68.2119 42.0144 68.2425 41.9091C68.3533 41.6029 68.3797 40.8302 68.4185 40.4149C68.4572 39.9995 67.498 38.8309 67.4575 38.141Z" fill="#FFA8A7"/>
<path d="M35.2317 28.1322C35.105 27.9562 34.9748 27.796 34.8551 27.6218C34.6355 27.3034 34.4396 26.9692 34.269 26.6221C34.0838 26.2417 33.9285 25.8474 33.8044 25.4429C33.6739 25.051 33.5657 24.652 33.4805 24.2479C33.4805 24.2479 33.47 24.2373 33.47 24.2479C33.4745 24.6539 33.5235 25.0581 33.6161 25.4535C33.7215 25.8549 33.8629 26.246 34.0385 26.6221C34.2193 27.012 34.4349 27.3849 34.6826 27.7362C34.9392 28.1056 35.2543 28.4308 35.6154 28.6989C35.626 28.6989 35.626 28.6883 35.6154 28.6831C35.4852 28.5018 35.3637 28.3135 35.2317 28.1322ZM36.3053 27.525C35.9077 27.0932 35.5713 26.6087 35.3057 26.0853C35.1869 25.8347 35.0881 25.5752 35.01 25.3091C34.929 25.0311 34.8745 24.7477 34.7953 24.4679C34.7953 24.4573 34.7777 24.4432 34.7724 24.4679C34.7222 24.7687 34.7384 25.0768 34.8199 25.3707C34.8886 25.6648 34.9907 25.95 35.1244 26.2208C35.3839 26.766 35.7843 27.232 36.2842 27.5707C36.3124 27.5813 36.3229 27.5443 36.3053 27.525Z" fill="#E0E0E0"/>
</svg>
