<svg width="58" height="58" viewBox="0 0 58 58" fill="none" xmlns="http://www.w3.org/2000/svg">
<g clip-path="url(#clip0_80_29262)">
<path d="M54.5596 54.8807C54.5596 54.8981 43.115 54.9109 29.0013 54.9109C14.8876 54.9109 3.44067 54.8981 3.44067 54.8807C3.44067 54.8633 14.8829 54.8506 29.0013 54.8506C43.1196 54.8506 54.5596 54.868 54.5596 54.8807Z" fill="#263238"/>
<path d="M52.613 54.881C52.5653 54.8085 52.5264 54.7306 52.497 54.649C52.4343 54.5017 52.3531 54.301 52.265 54.069C52.1768 53.837 52.1026 53.6595 52.033 53.489C51.996 53.4107 51.965 53.3296 51.9402 53.2466C51.9954 53.314 52.04 53.3895 52.0724 53.4705C52.1432 53.6155 52.2302 53.8185 52.3195 54.0505C52.4088 54.2825 52.4842 54.4855 52.5364 54.6305C52.5708 54.711 52.5965 54.795 52.613 54.881Z" fill="#263238"/>
<path d="M53.1468 54.9039C53.1294 54.9039 53.0702 54.5177 52.9623 54.0444C52.8544 53.5711 52.7419 53.1953 52.7582 53.1895C52.8009 53.2649 52.8337 53.3456 52.8556 53.4296C52.9066 53.5815 52.9716 53.7938 53.0215 54.0316C53.0714 54.2694 53.1108 54.4875 53.1305 54.6453C53.1472 54.7304 53.1527 54.8174 53.1468 54.9039Z" fill="#263238"/>
<path d="M54.0933 53.293C54.1096 53.3022 53.9356 53.6502 53.7592 54.0945C53.5829 54.5388 53.4681 54.9065 53.4507 54.9065C53.4583 54.8215 53.4762 54.7378 53.504 54.6571C53.6176 54.2617 53.7703 53.8785 53.9599 53.5134C53.9947 53.4345 54.0396 53.3604 54.0933 53.293Z" fill="#263238"/>
<path d="M26.2021 54.881C25.9331 54.4883 25.6972 54.0739 25.4968 53.6421C25.767 54.0341 26.003 54.4486 26.2021 54.881Z" fill="#263238"/>
<path d="M26.7033 54.8682C26.5604 54.3875 26.4572 53.896 26.3948 53.3984C26.5362 53.8794 26.6394 54.3709 26.7033 54.8682Z" fill="#263238"/>
<path d="M27.7602 53.5562C27.6597 53.7884 27.5402 54.0119 27.4029 54.2243C27.2835 54.4471 27.1466 54.6601 26.9934 54.8612C27.094 54.6294 27.2135 54.4063 27.3507 54.1942C27.4706 53.9713 27.6075 53.758 27.7602 53.5562Z" fill="#263238"/>
<path d="M6.45898 54.8809C6.32828 54.7112 6.21408 54.5294 6.11794 54.338C6.00369 54.157 5.90697 53.9655 5.8291 53.7661C5.95933 53.9361 6.0735 54.1179 6.17014 54.309C6.28385 54.4903 6.38054 54.6817 6.45898 54.8809Z" fill="#263238"/>
<path d="M6.73853 53.0815C6.80292 53.3772 6.84825 53.6767 6.87425 53.9782C6.91977 54.277 6.94457 54.5785 6.94849 54.8807C6.83904 54.2862 6.7689 53.6852 6.73853 53.0815Z" fill="#263238"/>
<path d="M7.82884 53.6538C7.7954 53.8661 7.74179 54.0746 7.66876 54.2767C7.61527 54.4846 7.54225 54.687 7.45068 54.8811C7.48435 54.6693 7.53795 54.4611 7.61076 54.2593C7.66563 54.0515 7.7386 53.8489 7.82884 53.6538Z" fill="#263238"/>
<path d="M16.4397 51.0402C16.5267 51.0816 16.6044 51.1401 16.6682 51.2122C16.732 51.2844 16.7805 51.3687 16.8109 51.4601C16.8704 51.6437 16.8874 51.8385 16.8608 52.0297C16.8179 52.3997 16.6079 52.7721 16.3829 53.0679C16.0708 52.7964 16.0001 52.322 15.978 52.0795C15.9444 51.6956 16.1172 50.9822 16.442 51.0355" fill="#455A64"/>
<path d="M16.7434 53.6721C16.7221 53.5665 16.7293 53.4572 16.7642 53.3553C16.799 53.2534 16.8603 53.1625 16.9418 53.0921C17.0241 53.023 17.1192 52.9709 17.2218 52.9388C17.3243 52.9068 17.4322 52.8954 17.5392 52.9053C17.5889 52.9043 17.6382 52.9142 17.6837 52.9342C17.7292 52.9542 17.7697 52.984 17.8025 53.0213C17.8262 53.0616 17.8387 53.1075 17.8387 53.1542C17.8387 53.2009 17.8262 53.2467 17.8025 53.287C17.7556 53.3676 17.6879 53.4341 17.6065 53.4795C17.3374 53.6489 17.045 53.7626 16.74 53.6709" fill="#455A64"/>
<path d="M16.3445 54.8057C16.3465 54.7803 16.3503 54.7551 16.3561 54.7303C16.3654 54.6769 16.3781 54.6073 16.3932 54.525C16.4282 54.2965 16.4999 54.0752 16.6055 53.8696C16.7151 53.6639 16.8777 53.4913 17.0764 53.3696C17.1365 53.3336 17.2008 53.3052 17.2678 53.2849C17.286 53.2788 17.3046 53.2741 17.3235 53.271C17.3363 53.271 17.3421 53.271 17.3432 53.271C17.2535 53.3003 17.1672 53.3392 17.0857 53.387C16.8942 53.5116 16.737 53.6823 16.6287 53.8835C16.5253 54.0871 16.4522 54.3048 16.4118 54.5296C16.3932 54.6154 16.3781 54.685 16.3665 54.7338C16.3623 54.7586 16.3549 54.7828 16.3445 54.8057Z" fill="#263238"/>
<path d="M16.3562 51.5898C16.3574 51.601 16.3574 51.6123 16.3562 51.6235L16.362 51.7186C16.362 51.801 16.3713 51.9204 16.3759 52.0666C16.3852 52.3624 16.3921 52.7719 16.391 53.2266C16.3898 53.6813 16.3782 54.0873 16.3655 54.3866C16.3597 54.5351 16.3539 54.6546 16.3481 54.7346C16.3481 54.7729 16.3481 54.8042 16.3423 54.8297C16.3434 54.8405 16.3434 54.8514 16.3423 54.8622C16.341 54.851 16.341 54.8397 16.3423 54.8286C16.3423 54.8042 16.3423 54.7729 16.3423 54.7334C16.3423 54.6476 16.3481 54.5281 16.3515 54.3854C16.3585 54.0896 16.3666 53.6802 16.3689 53.2254C16.3713 52.7707 16.3689 52.3647 16.3608 52.0654C16.3608 51.9204 16.3608 51.801 16.3608 51.7174V51.62C16.3562 51.6014 16.3562 51.5898 16.3562 51.5898Z" fill="#263238"/>
<path d="M16.2053 53.8971C16.1674 53.6737 16.077 53.4626 15.9415 53.281C15.8059 53.0995 15.6292 52.9528 15.4258 52.8531C15.3214 52.8032 15.1857 52.7707 15.0998 52.8531C15.014 52.9354 15.0337 53.0688 15.0755 53.1767C15.167 53.3998 15.3224 53.5908 15.5222 53.7258C15.722 53.8608 15.9572 53.9337 16.1984 53.9353" fill="#455A64"/>
<path d="M15.4756 53.2012C15.4986 53.2085 15.5208 53.2182 15.5417 53.2302C15.5674 53.2416 15.5922 53.2547 15.616 53.2696C15.6487 53.2881 15.6804 53.3082 15.7111 53.3299C15.749 53.3548 15.7854 53.3819 15.8201 53.4111C15.8608 53.444 15.8996 53.4793 15.9361 53.5167C16.0196 53.6021 16.0931 53.6967 16.1554 53.7986C16.2156 53.9019 16.2643 54.0116 16.3004 54.1257C16.3157 54.1755 16.3277 54.2263 16.3363 54.2777C16.3454 54.3221 16.3516 54.367 16.3549 54.4122C16.3571 54.4508 16.3571 54.4896 16.3549 54.5282C16.3549 54.5607 16.3549 54.5897 16.3549 54.6129C16.3541 54.637 16.3514 54.6611 16.3468 54.6848C16.3468 54.6848 16.3468 54.5816 16.3329 54.418C16.3279 54.3736 16.3205 54.3294 16.3108 54.2858C16.3009 54.2356 16.2881 54.186 16.2725 54.1373C16.2365 54.0253 16.1882 53.9175 16.1287 53.816C16.0673 53.7158 15.9954 53.6224 15.9141 53.5376C15.8778 53.4998 15.8391 53.4646 15.7981 53.432C15.7649 53.4023 15.73 53.3744 15.6937 53.3485C15.5661 53.2441 15.4733 53.207 15.4756 53.2012Z" fill="#263238"/>
<path d="M47.7723 49.9242C47.8871 49.9791 47.9895 50.0567 48.0737 50.1521C48.1578 50.2476 48.2218 50.3591 48.2618 50.4798C48.3411 50.722 48.3637 50.9792 48.3279 51.2315C48.2723 51.7199 47.995 52.2129 47.6957 52.6026C47.2851 52.2442 47.1911 51.6178 47.1621 51.2976C47.1181 50.7919 47.3454 49.8488 47.7723 49.9242Z" fill="#455A64"/>
<path d="M48.1737 53.4076C48.1463 53.2681 48.156 53.1239 48.2018 52.9893C48.2476 52.8548 48.3279 52.7346 48.4347 52.6408C48.5435 52.5494 48.6693 52.4805 48.8049 52.4381C48.9405 52.3957 49.0832 52.3806 49.2246 52.3937C49.2906 52.3928 49.3559 52.4064 49.416 52.4334C49.4761 52.4605 49.5296 52.5004 49.5726 52.5503C49.6041 52.6027 49.6212 52.6625 49.6222 52.7236C49.6232 52.7846 49.6081 52.8449 49.5784 52.8983C49.5163 53.0048 49.4271 53.0929 49.3198 53.1535C48.9637 53.3774 48.5774 53.5282 48.1748 53.4064" fill="#455A64"/>
<path d="M47.6472 54.9039C47.6495 54.8703 47.6546 54.8369 47.6623 54.8041L47.711 54.5327C47.7578 54.2311 47.8526 53.939 47.9917 53.6673C48.1362 53.3961 48.3505 53.1682 48.6123 53.0073C48.6921 52.9586 48.7774 52.9197 48.8664 52.8913C48.8904 52.8839 48.9148 52.8777 48.9395 52.8727C48.9479 52.8712 48.9565 52.8712 48.965 52.8727C48.7616 52.9383 48.5733 53.044 48.4114 53.1834C48.2494 53.3229 48.117 53.4933 48.0219 53.6847C47.8852 53.9537 47.789 54.2414 47.7365 54.5385C47.711 54.6545 47.6913 54.7438 47.6751 54.8076C47.6692 54.8406 47.6599 54.8729 47.6472 54.9039Z" fill="#263238"/>
<path d="M47.6621 50.6572C47.6658 50.6716 47.6677 50.6864 47.6679 50.7013C47.6679 50.7338 47.6703 50.7755 47.6749 50.8266C47.6807 50.9356 47.6877 51.0945 47.6935 51.2906C47.7062 51.6827 47.7155 52.2186 47.7132 52.8195C47.7109 53.4203 47.6958 53.9574 47.6807 54.3483C47.6726 54.5444 47.6645 54.7021 47.6575 54.8123C47.6575 54.8634 47.6575 54.9051 47.6494 54.9376C47.6511 54.9523 47.6511 54.9671 47.6494 54.9817C47.6481 54.967 47.6481 54.9523 47.6494 54.9376C47.6494 54.9051 47.6494 54.8634 47.6494 54.8123C47.6494 54.6963 47.6563 54.5409 47.661 54.3483C47.6703 53.9574 47.6807 53.4203 47.6842 52.8206C47.6877 52.2209 47.6842 51.6838 47.6737 51.2929C47.6737 51.1003 47.6737 50.9449 47.6668 50.8289C47.6668 50.7767 47.6668 50.7349 47.6668 50.7025C47.6642 50.6875 47.6626 50.6724 47.6621 50.6572Z" fill="#263238"/>
<path d="M47.4626 53.7079C47.4136 53.412 47.2945 53.1322 47.1153 52.8916C46.9361 52.6511 46.702 52.4569 46.4325 52.3252C46.2945 52.2591 46.1159 52.2162 46.0022 52.3183C45.8885 52.4203 45.9152 52.6036 45.9697 52.7463C46.0905 53.0411 46.2958 53.2934 46.5599 53.4716C46.8239 53.6498 47.1348 53.7457 47.4533 53.7474" fill="#455A64"/>
<path d="M46.4986 52.7861C46.529 52.795 46.5582 52.8075 46.5856 52.8233C46.6194 52.8394 46.6523 52.8572 46.6842 52.8766C46.7275 52.9004 46.7693 52.9268 46.8095 52.9555C46.8595 52.9885 46.9076 53.0246 46.9533 53.0634C47.0069 53.1064 47.0581 53.1525 47.1064 53.2014C47.33 53.4266 47.4952 53.703 47.5878 54.0065C47.6078 54.0728 47.6241 54.1402 47.6366 54.2083C47.6481 54.2669 47.6563 54.3262 47.6609 54.3858C47.6679 54.4403 47.6609 54.4902 47.6679 54.5343C47.67 54.5729 47.67 54.6116 47.6679 54.6503C47.6673 54.6818 47.6638 54.7133 47.6574 54.7442C47.6493 54.7442 47.6632 54.6085 47.6389 54.3962C47.6319 54.3429 47.625 54.2802 47.611 54.2211C47.5971 54.1619 47.5797 54.0935 47.56 54.025C47.5121 53.8774 47.4483 53.7354 47.3698 53.6016C47.2883 53.4693 47.1935 53.3457 47.0867 53.2327C47.0396 53.1839 46.99 53.1374 46.9382 53.0935C46.8907 53.0506 46.842 53.0158 46.799 52.9833C46.6192 52.8488 46.4951 52.7931 46.4986 52.7861Z" fill="#263238"/>
<path d="M48.6689 10.4585C48.6689 10.4585 48.5842 10.4295 48.4276 10.3947C48.2063 10.346 47.978 10.3374 47.7536 10.3692C47.4209 10.4129 47.1068 10.5483 46.8465 10.7601C46.5273 11.02 46.302 11.3774 46.205 11.7775V11.7891L46.1865 11.861L46.1586 11.7925C46.0023 11.4131 45.7351 11.0896 45.3919 10.8645C45.11 10.6835 44.7866 10.5774 44.4523 10.556C44.2273 10.5398 44.0012 10.5606 43.783 10.6175C43.6287 10.6581 43.551 10.694 43.5452 10.6894C43.5635 10.6781 43.5829 10.6687 43.6032 10.6615C43.6601 10.6369 43.7186 10.616 43.7783 10.5989C44.0517 10.5185 44.3391 10.4976 44.6213 10.5377C44.9034 10.5777 45.1737 10.6777 45.4139 10.8309C45.7673 11.0577 46.0423 11.3878 46.2016 11.7763H46.1552V11.7647C46.2539 11.3534 46.486 10.9863 46.8152 10.7207C47.0818 10.5061 47.4034 10.3706 47.7432 10.3298C47.9716 10.3012 48.2033 10.3154 48.4264 10.3715C48.4868 10.3861 48.5461 10.4047 48.6039 10.4272C48.6264 10.4358 48.6481 10.4463 48.6689 10.4585Z" fill="#263238"/>
<path d="M49.33 6.00207C49.33 6.00207 49.2825 5.98815 49.1966 5.97075C49.0752 5.9462 48.9504 5.94267 48.8278 5.96031C48.6465 5.98471 48.4757 6.05946 48.3348 6.17607C48.1613 6.31738 48.039 6.51179 47.9868 6.72939V6.73519L47.9682 6.80827L47.9404 6.73983C47.8558 6.53308 47.7106 6.35676 47.5239 6.23407C47.3709 6.13485 47.1954 6.0758 47.0135 6.06239C46.8905 6.0524 46.7667 6.06259 46.647 6.09255C46.5611 6.11343 46.5159 6.13199 46.5147 6.12735C46.5136 6.12271 46.5252 6.12039 46.5461 6.10995C46.5768 6.09549 46.6086 6.08347 46.6412 6.07399C46.7623 6.03641 46.8892 6.02069 47.0158 6.02759C47.2051 6.03653 47.3887 6.09492 47.5483 6.19695C47.7445 6.32262 47.8972 6.5057 47.9856 6.72127H47.9392C47.9937 6.49265 48.1227 6.28863 48.3058 6.14127C48.4303 6.04267 48.576 5.97437 48.7314 5.94176C48.8868 5.90914 49.0477 5.91311 49.2013 5.95335C49.2344 5.96203 49.267 5.97288 49.2987 5.98583C49.3196 5.99511 49.3312 5.99975 49.33 6.00207Z" fill="#263238"/>
<path d="M41.7797 5.72363C41.7797 5.72363 41.7333 5.77583 41.6497 5.86979C41.5328 6.00297 41.4272 6.14577 41.3342 6.29667C41.0241 6.795 40.8612 7.37086 40.8644 7.95779V7.97867H40.8157C40.7262 7.40313 40.4579 6.87031 40.0489 6.45559C39.9269 6.32953 39.7929 6.2157 39.6487 6.11571C39.5467 6.04495 39.4875 6.00899 39.4898 5.99971C39.5058 6.00442 39.5211 6.01146 39.5351 6.02059C39.5629 6.03799 39.607 6.05887 39.6592 6.09367C39.8092 6.18896 39.9484 6.30019 40.0745 6.42543C40.2632 6.60971 40.4239 6.82077 40.5512 7.05183C40.7093 7.33538 40.8154 7.64496 40.8644 7.96591H40.8157V7.95779C40.8118 7.36234 40.9815 6.77865 41.3041 6.27811C41.401 6.1275 41.5121 5.9865 41.6358 5.85703C41.6787 5.81063 41.7159 5.77931 41.7402 5.75611C41.7516 5.7433 41.7649 5.73234 41.7797 5.72363Z" fill="#263238"/>
<path d="M28.6912 17.0284C27.7551 16.1847 26.5616 16.9096 25.9236 17.3958C25.2856 17.882 24.9952 18.5794 24.8368 19.2658C24.6784 19.9522 24.6278 20.6584 24.3671 21.325C24.0514 22.1324 23.4321 22.865 23.2902 23.7065C23.1395 24.5942 23.5377 25.5314 23.2132 26.3872C23.0251 26.8833 22.6115 27.3024 22.2672 27.7424C21.9229 28.1824 21.6402 28.6917 21.7502 29.2065C21.9097 29.9622 22.8502 30.4792 23.7797 30.7674C24.5376 31.0039 25.356 31.1513 26.159 31.0853C26.962 31.0193 27.7485 30.7223 28.1918 30.2053C28.5724 29.7653 28.6736 29.2153 28.6901 28.6796C28.744 26.9526 28.0301 25.2575 27.7166 23.5404C27.3382 21.4449 27.8673 19.0183 28.6945 17.0251" fill="#263238"/>
<path d="M23.156 30.5969C23.1484 30.5866 23.1417 30.5755 23.1362 30.5639C23.1241 30.5419 23.1032 30.51 23.0823 30.4649C23.0229 30.333 22.9857 30.1921 22.9723 30.048C22.9554 29.8197 22.9758 29.59 23.0328 29.3682C23.1074 29.0758 23.2049 28.7896 23.3243 28.5124C23.9864 26.9025 24.4854 25.2302 24.8137 23.5206C24.9938 22.5799 25.1216 21.6298 25.1965 20.6749C25.2306 20.2349 25.2603 19.8136 25.3252 19.4242C25.3795 19.0616 25.4824 18.7079 25.631 18.3726C25.7601 18.0979 25.9345 17.8469 26.1469 17.6301C26.3067 17.4674 26.4926 17.3324 26.6969 17.2308C26.8274 17.169 26.9653 17.1243 27.1072 17.0977C27.1556 17.09 27.193 17.0867 27.2172 17.0834C27.23 17.0822 27.2429 17.0822 27.2557 17.0834L27.2183 17.0922L27.1083 17.1109C26.9689 17.1418 26.8337 17.1895 26.7057 17.2528C26.5049 17.3567 26.3221 17.4923 26.1645 17.6543C25.9572 17.8702 25.7877 18.1193 25.6629 18.3913C25.5185 18.7243 25.419 19.075 25.367 19.4341C25.3043 19.8213 25.2768 20.2404 25.2438 20.6815C25.1722 21.6388 25.0455 22.5912 24.8643 23.5338C24.5362 25.247 24.0307 26.9214 23.3562 28.53C23.2361 28.805 23.1365 29.0885 23.0581 29.3781C22.9999 29.5964 22.9765 29.8225 22.9888 30.048C23.0071 30.2404 23.064 30.427 23.156 30.5969Z" fill="#455A64"/>
<path d="M23.1833 28.1892L27.1323 28.022L32.4607 29.8183L35.8828 31.2219L31.6698 46.0972L32.3122 48.1762H20.2397L20.7831 36.8935L23.1833 28.1892Z" fill="#FF725E"/>
<g opacity="0.3">
<path d="M31.362 46.2234C30.9902 43.711 30.6187 41.1986 30.2477 38.6862C30.1795 38.2242 30.0948 37.7281 29.7604 37.4025C29.4436 37.0923 28.9739 37.0098 28.5328 36.9548C27.5428 36.8338 26.4868 36.7986 25.6134 37.2771C24.8742 37.6819 24.3682 38.4024 23.9062 39.1086C22.5092 41.2459 21.6358 42.182 20.5116 44.4744L20.3301 46.2861C21.4686 45.9363 22.5554 44.8209 23.1901 43.8166C23.8248 42.8123 24.2802 41.6969 24.8709 40.6596C25.2768 39.949 25.7916 39.245 26.5451 38.9271C26.9708 38.7467 27.5274 38.7335 27.8299 39.0811C27.9522 39.2414 28.0378 39.4265 28.0807 39.6234C28.4195 40.8246 28.5207 42.0808 28.8122 43.2941C29.1037 44.5074 29.6295 45.7273 30.6129 46.4962C30.7174 46.5891 30.8432 46.6549 30.9792 46.6876C31.0474 46.7022 31.1185 46.6958 31.1831 46.6693C31.2477 46.6428 31.3027 46.5975 31.3411 46.5391C31.3802 46.4385 31.3875 46.3283 31.362 46.2234Z" fill="black"/>
</g>
<path d="M18.262 33.8452C18.262 33.7352 20.0033 28.189 23.1834 28.189L22.2077 34.8297L18.262 33.8452Z" fill="#FF725E"/>
<path d="M35.883 31.2217C35.883 31.2217 36.873 32.0687 37.0237 32.7782C37.1744 33.4877 37.3482 36.967 37.3482 36.967L33.4839 36.6997L35.883 31.2217Z" fill="#FF725E"/>
<path d="M22.5553 31.0898C22.558 31.1143 22.558 31.1391 22.5553 31.1635L22.5289 31.3714C22.5058 31.5518 22.4662 31.8114 22.4134 32.1348C22.3034 32.7783 22.1373 33.6627 21.9371 34.6362C21.7369 35.6097 21.5609 36.493 21.4454 37.1332C21.3904 37.4489 21.3442 37.7063 21.3123 37.8933L21.2749 38.1001C21.2719 38.1245 21.2664 38.1485 21.2584 38.1716C21.2557 38.1472 21.2557 38.1224 21.2584 38.0979C21.265 38.044 21.2738 37.9758 21.2848 37.89C21.3079 37.7085 21.3475 37.45 21.3948 37.1266C21.5048 36.4831 21.6709 35.5987 21.87 34.6241C22.0691 33.6495 22.2473 32.7684 22.3617 32.1271C22.4178 31.8125 22.4629 31.554 22.4959 31.3681C22.5113 31.2834 22.5234 31.2141 22.5333 31.1613C22.5379 31.1368 22.5453 31.1128 22.5553 31.0898Z" fill="#263238"/>
<path d="M34.4451 33.6582C34.4459 33.7117 34.4415 33.7651 34.4319 33.8177C34.4198 33.9211 34.3989 34.0685 34.3714 34.2511C34.3153 34.6163 34.224 35.119 34.1173 35.6723C34.0106 36.2256 33.9149 36.7162 33.8423 37.0891C33.8093 37.2629 33.7829 37.407 33.7609 37.5192C33.754 37.5723 33.7419 37.6247 33.7246 37.6754C33.7246 37.6216 33.7294 37.5678 33.7389 37.5148C33.7521 37.4125 33.7741 37.2651 33.8027 37.0825C33.861 36.7173 33.9534 36.2146 34.0612 35.6613C34.169 35.108 34.2603 34.6174 34.3307 34.2445C34.3626 34.0707 34.3901 33.9266 34.4099 33.8144C34.4176 33.7615 34.4293 33.7093 34.4451 33.6582Z" fill="#263238"/>
<path d="M35.9764 31.38C35.9764 31.38 35.9665 31.391 35.9456 31.4086L35.8488 31.4867C35.7194 31.5807 35.5804 31.6607 35.4341 31.7254C35.2015 31.8258 34.9541 31.8878 34.7015 31.9091C34.3657 31.9379 34.0276 31.8921 33.7115 31.7749C33.3584 31.644 33.0339 31.3877 32.6665 31.16C32.4793 31.0391 32.274 30.9488 32.0582 30.8927C31.8281 30.8414 31.5902 30.8347 31.3575 30.8729C30.8757 30.9433 30.4027 31.1556 29.8912 31.3129C29.36 31.481 28.7956 31.5153 28.2479 31.4128C27.7003 31.3103 27.1864 31.0743 26.7518 30.7255C26.5531 30.5534 26.3647 30.3698 26.1875 30.1755C26.0201 29.9922 25.8235 29.838 25.6056 29.719C25.3933 29.6168 25.1615 29.5613 24.9258 29.5562C24.7026 29.5507 24.4795 29.5695 24.2603 29.6123C23.8346 29.6948 23.4485 29.8246 23.0833 29.8983C22.7563 29.9772 22.4168 29.9907 22.0845 29.9379C21.834 29.8916 21.5984 29.7852 21.3981 29.6277C21.2715 29.5279 21.1695 29.4003 21.1 29.2548C21.082 29.2176 21.0669 29.179 21.0549 29.1393C21.0472 29.1129 21.0439 29.0986 21.0439 29.0986C21.0507 29.111 21.0566 29.1239 21.0615 29.1371C21.0747 29.175 21.0909 29.2118 21.1099 29.2471C21.1829 29.3876 21.2858 29.5104 21.4113 29.6068C21.6109 29.7586 21.8441 29.8601 22.0911 29.9027C22.4192 29.952 22.7538 29.9359 23.0756 29.8554C23.4364 29.7795 23.8214 29.6475 24.2515 29.5628C24.4741 29.5173 24.701 29.497 24.928 29.5023C25.1711 29.5071 25.4104 29.5638 25.6298 29.6684C25.8537 29.7893 26.0556 29.947 26.2271 30.1348C26.4031 30.3267 26.59 30.5081 26.787 30.6782C27.2146 31.0209 27.72 31.2528 28.2586 31.3535C28.7972 31.4543 29.3523 31.4207 29.8747 31.2557C30.3818 31.1028 30.8581 30.8894 31.3498 30.8157C31.5892 30.7766 31.8338 30.7841 32.0703 30.8377C32.2908 30.8964 32.5005 30.9896 32.6918 31.1138C33.0614 31.3459 33.3804 31.6011 33.7258 31.732C34.0363 31.8489 34.3685 31.8965 34.6993 31.8717C34.9492 31.8532 35.1946 31.7953 35.4264 31.7001C35.5724 31.6377 35.712 31.5615 35.8433 31.4724L35.9423 31.3987L35.9764 31.38Z" fill="#FAFAFA"/>
<path d="M21.9559 33.4661C21.9559 33.4661 21.9438 33.4727 21.9196 33.4782C21.8836 33.4879 21.8467 33.4938 21.8096 33.4958C21.6762 33.5043 21.5426 33.4836 21.418 33.4353C21.2336 33.3646 21.0644 33.2593 20.9197 33.1251C20.7536 32.9777 20.5952 32.7951 20.4203 32.6147C20.2608 32.4425 20.0724 32.2995 19.8637 32.1923C19.6935 32.1078 19.501 32.0793 19.3137 32.1109C19.1868 32.1314 19.068 32.1866 18.9705 32.2704C18.9023 32.3309 18.8759 32.3804 18.8704 32.3727C18.8739 32.3605 18.8795 32.3489 18.8869 32.3386C18.906 32.3076 18.9289 32.2792 18.9551 32.2539C19.0513 32.1595 19.1734 32.0959 19.306 32.0713C19.5027 32.0319 19.7069 32.0574 19.8879 32.1439C20.1042 32.2515 20.2991 32.3976 20.4632 32.5751C20.6403 32.7566 20.7932 32.9403 20.9571 33.0855C21.0958 33.2179 21.2576 33.3238 21.4345 33.3979C21.5999 33.4637 21.7791 33.4871 21.9559 33.4661Z" fill="#FAFAFA"/>
<path d="M33.3891 36.4953C33.2491 36.5824 33.0987 36.6515 32.9414 36.701C32.511 36.8418 32.0511 36.8665 31.6082 36.7725C31.302 36.7104 31.0104 36.5906 30.7491 36.4194C30.4582 36.213 30.1918 35.9743 29.9549 35.7077C29.6967 35.4153 29.4109 35.1486 29.1013 34.9113C28.7593 34.6709 28.35 34.545 27.932 34.5516C27.5134 34.5701 27.0991 34.6441 26.7 34.7716C26.3084 34.8816 25.93 35.0026 25.5637 35.0774C24.4649 35.3011 23.3255 35.2155 22.2725 34.8299C22.124 34.7716 22.0096 34.7265 21.9348 34.6891L21.849 34.6495C21.8292 34.6396 21.8193 34.6352 21.8204 34.6341C21.8311 34.6358 21.8415 34.6392 21.8512 34.644L21.9392 34.6792C22.0162 34.7122 22.1306 34.754 22.2802 34.809C22.7021 34.9547 23.1383 35.055 23.5815 35.1082C24.2386 35.1887 24.9046 35.1608 25.5527 35.0257C25.9179 34.9498 26.2919 34.8288 26.6846 34.7177C27.0887 34.5889 27.5082 34.515 27.932 34.4977C28.1485 34.4955 28.3641 34.5267 28.5711 34.5901C28.7719 34.6527 28.9616 34.7466 29.1332 34.8684C29.4459 35.1076 29.7337 35.3778 29.9923 35.6747C30.2261 35.9392 30.4888 36.1769 30.7755 36.3831C31.0313 36.5526 31.3168 36.6724 31.617 36.7362C32.0542 36.8325 32.5089 36.8143 32.937 36.6834C33.0528 36.6475 33.166 36.6037 33.2758 36.5525L33.3605 36.5107C33.3693 36.5043 33.3789 36.4991 33.3891 36.4953Z" fill="#FAFAFA"/>
<path d="M37.248 34.4043C37.248 34.4043 37.248 34.4164 37.2337 34.4362C37.2173 34.4653 37.1989 34.4932 37.1787 34.5198C37.103 34.6176 37.0111 34.7017 36.907 34.7684C36.7513 34.869 36.5735 34.9301 36.3889 34.9466C36.1637 34.9548 35.9392 34.9174 35.7289 34.8366C35.5247 34.7592 35.31 34.7128 35.092 34.6991C34.914 34.6964 34.7373 34.7301 34.5728 34.7981C34.4219 34.8645 34.2812 34.9519 34.1548 35.0577C34.1548 35.0577 34.1548 35.0467 34.1757 35.0291C34.1979 35.004 34.2218 34.9805 34.2472 34.9587C34.3398 34.8772 34.4444 34.8104 34.5574 34.7607C34.7257 34.6864 34.908 34.6489 35.092 34.6507C35.3178 34.6613 35.5405 34.7073 35.752 34.7871C35.9558 34.8649 36.1729 34.9023 36.3911 34.8971C36.5678 34.884 36.7389 34.8293 36.8905 34.7376C37.0277 34.6475 37.1486 34.5348 37.248 34.4043Z" fill="#FAFAFA"/>
<path d="M33.0362 39.7973C33.0249 39.7991 33.0134 39.7991 33.0021 39.7973L32.9009 39.7907C32.7713 39.7851 32.6415 39.7899 32.5126 39.805C32.3093 39.8317 32.109 39.8773 31.9142 39.9414C31.6843 40.0129 31.4313 40.1163 31.1519 40.2329C30.8493 40.3683 30.5376 40.4826 30.2191 40.575C29.8511 40.6877 29.4614 40.7104 29.0828 40.641C28.8793 40.5946 28.6851 40.5139 28.5086 40.4023C28.3271 40.2923 28.1577 40.1603 27.9806 40.0349C27.8054 39.9019 27.6144 39.791 27.4119 39.7049C27.2016 39.6246 26.9766 39.5905 26.7519 39.6048C26.2932 39.629 25.8719 39.7951 25.4704 39.97C25.0924 40.1542 24.6975 40.3015 24.2912 40.41C23.9152 40.4938 23.5244 40.4847 23.1527 40.3836C22.8313 40.2959 22.5248 40.161 22.243 39.9832C22.01 39.8376 21.7892 39.6731 21.583 39.4915C21.4004 39.3331 21.253 39.1879 21.132 39.068C21.011 38.9481 20.9208 38.8535 20.8592 38.7897L20.7899 38.7149C20.7745 38.6984 20.7668 38.6896 20.7679 38.6885L20.7943 38.7105L20.8669 38.7809L21.1474 39.0526C21.4856 39.3896 21.8584 39.6901 22.2595 39.9491C22.5393 40.1219 22.8428 40.2531 23.1604 40.3385C23.5248 40.4351 23.9072 40.4419 24.2747 40.3583C24.6774 40.2486 25.0689 40.1013 25.444 39.9183C25.8411 39.7423 26.2734 39.5718 26.7442 39.5476C26.977 39.5333 27.2102 39.5685 27.4284 39.651C27.6347 39.7363 27.8295 39.8472 28.0081 39.981C28.1863 40.1075 28.3557 40.2384 28.5328 40.3462C28.7035 40.4556 28.8918 40.5349 29.0894 40.5805C29.46 40.6497 29.8417 40.6289 30.2026 40.52C30.5196 40.4311 30.8301 40.3209 31.1321 40.19C31.4126 40.08 31.6678 39.97 31.9021 39.9051C32.0995 39.8429 32.3025 39.8002 32.5082 39.7775C32.6842 39.7566 32.8623 39.7632 33.0362 39.7973Z" fill="#FAFAFA"/>
<path d="M31.7678 45.2107C31.6664 45.0762 31.5455 44.9576 31.4092 44.8587C31.2489 44.7476 31.0696 44.6667 30.8801 44.62C30.6279 44.5553 30.3639 44.5519 30.1101 44.6101C29.803 44.6881 29.5262 44.8558 29.3148 45.0919C29.1938 45.2118 29.0739 45.3438 28.9397 45.4703C28.8046 45.6075 28.6458 45.7192 28.4711 45.8003C28.2829 45.8793 28.0756 45.9015 27.8749 45.8641C27.6685 45.8238 27.4717 45.7443 27.2952 45.6298C26.9278 45.4098 26.6418 45.0677 26.3206 44.7652C26.1651 44.612 25.9915 44.4783 25.8036 44.367C25.6208 44.2622 25.4188 44.1953 25.2096 44.1701C24.8097 44.1352 24.4071 44.1924 24.0326 44.3373C23.6718 44.466 23.344 44.6332 23.0305 44.7773C22.7421 44.9163 22.4407 45.0268 22.1307 45.1073C21.6729 45.229 21.1866 45.1826 20.7601 44.9764C20.6475 44.9192 20.5444 44.845 20.4543 44.7564C20.4311 44.7334 20.4091 44.7091 20.3883 44.6838C20.3809 44.6754 20.3739 44.6666 20.3674 44.6574C20.4834 44.7799 20.6196 44.8814 20.77 44.9577C21.1918 45.1461 21.6661 45.1811 22.1109 45.0567C22.4176 44.976 22.7157 44.8655 23.0008 44.7267C23.3121 44.5848 23.6399 44.4154 24.0051 44.2867C24.3873 44.1377 24.7987 44.0786 25.2074 44.114C25.4239 44.1396 25.633 44.2084 25.8223 44.3164C26.0139 44.4301 26.1912 44.5664 26.3503 44.7223C26.6803 45.0292 26.9575 45.3647 27.315 45.5814C27.4856 45.692 27.6756 45.7692 27.8749 45.8091C28.0655 45.8457 28.2626 45.825 28.4414 45.7497C28.6102 45.6733 28.764 45.5675 28.8957 45.4373C29.0288 45.313 29.1487 45.1821 29.2719 45.0611C29.4905 44.8207 29.7758 44.651 30.0914 44.5738C30.352 44.5162 30.6226 44.5226 30.8801 44.5925C31.074 44.6431 31.2566 44.7301 31.418 44.8488C31.4506 44.8701 31.4812 44.8944 31.5093 44.9214C31.5357 44.9456 31.5632 44.9676 31.5852 44.9896C31.627 45.038 31.6655 45.0754 31.6952 45.1095L31.7513 45.1909C31.7573 45.197 31.7629 45.2037 31.7678 45.2107Z" fill="#FAFAFA"/>
<g opacity="0.3">
<path d="M34.664 30.5003C34.5513 30.3571 34.4051 30.2438 34.2383 30.1703C32.794 29.3904 31.0483 28.4477 29.4291 28.209C29.0012 29.4355 28.7383 30.849 28.1223 31.9853C28.0398 32.1382 27.9507 32.3065 27.9859 32.477C28.0266 32.6728 28.2169 32.796 28.3973 32.8829C29.287 33.3046 30.3058 33.3642 31.2386 33.049L31.2518 33.5759C31.6529 33.6932 32.0754 33.7176 32.4873 33.6472C32.8992 33.5768 33.2897 33.4135 33.629 33.1696C33.9683 32.9257 34.2476 32.6077 34.4456 32.2397C34.6436 31.8717 34.7552 31.4634 34.7718 31.0459C34.7928 30.8573 34.7551 30.6668 34.664 30.5003Z" fill="black"/>
</g>
<path d="M32.4433 18.3022C32.6424 18.3339 32.8225 18.439 32.9481 18.5967C33.0737 18.7545 33.1357 18.9536 33.122 19.1547L32.1121 30.0007C32.0296 31.2844 30.1178 31.9136 28.745 31.8146C27.359 31.7156 27.3469 31.0325 27.3898 29.8104C27.4591 27.7688 27.4998 27.0021 27.4998 27.0142C27.4998 27.0263 25.7618 26.6336 25.5143 24.3269C25.3911 23.1796 25.5441 21.3173 25.7179 19.7971C25.8719 18.4287 26.8662 16.7897 28.2269 17.0097L32.4433 18.3022Z" fill="#FFBE9D"/>
<path d="M26.6384 21.5197C26.6341 21.5961 26.6597 21.6712 26.7098 21.7291C26.7599 21.787 26.8305 21.8232 26.9068 21.8299C26.944 21.8346 26.9818 21.8319 27.0179 21.8219C27.054 21.8118 27.0878 21.7947 27.1172 21.7714C27.1466 21.7482 27.171 21.7193 27.1891 21.6864C27.2072 21.6536 27.2186 21.6175 27.2225 21.5802C27.2271 21.5039 27.2017 21.4287 27.1518 21.3708C27.1019 21.3129 27.0314 21.2767 26.9552 21.27C26.9179 21.2651 26.8801 21.2677 26.8438 21.2777C26.8076 21.2876 26.7737 21.3047 26.7441 21.328C26.7146 21.3513 26.69 21.3802 26.6719 21.4132C26.6537 21.4461 26.6423 21.4823 26.6384 21.5197Z" fill="#263238"/>
<path d="M26.0666 20.8699C26.1007 20.9106 26.3317 20.7599 26.6474 20.7742C26.9631 20.7885 27.1864 20.9601 27.2227 20.9238C27.2403 20.9073 27.2073 20.8358 27.1127 20.7577C26.9812 20.6559 26.8212 20.5974 26.6551 20.5905C26.4907 20.5816 26.3278 20.6251 26.1898 20.7148C26.0864 20.7841 26.0501 20.8523 26.0666 20.8699Z" fill="#263238"/>
<path d="M29.6382 21.797C29.6339 21.8735 29.6595 21.9486 29.7096 22.0065C29.7597 22.0644 29.8303 22.1005 29.9066 22.1072C29.9437 22.112 29.9815 22.1093 30.0176 22.0992C30.0538 22.0892 30.0875 22.072 30.1169 22.0488C30.1463 22.0255 30.1708 21.9966 30.1889 21.9638C30.207 21.9309 30.2183 21.8948 30.2223 21.8575C30.2269 21.7812 30.2015 21.7061 30.1516 21.6482C30.1017 21.5902 30.0311 21.5541 29.955 21.5473C29.9177 21.5424 29.8798 21.545 29.8436 21.555C29.8073 21.565 29.7734 21.5821 29.7439 21.6054C29.7144 21.6286 29.6898 21.6576 29.6716 21.6905C29.6535 21.7234 29.6421 21.7596 29.6382 21.797Z" fill="#263238"/>
<path d="M29.195 21.1028C29.2291 21.1424 29.4601 20.9928 29.7758 21.006C30.0915 21.0192 30.3148 21.193 30.3511 21.1556C30.3687 21.1391 30.3357 21.0687 30.2411 20.9906C30.1097 20.8884 29.9498 20.8296 29.7835 20.8223C29.619 20.8138 29.4561 20.8577 29.3182 20.9477C29.2148 21.017 29.1785 21.0797 29.195 21.1028Z" fill="#263238"/>
<path d="M27.9102 23.2888C27.9102 23.2712 27.7188 23.2272 27.402 23.17C27.3228 23.1579 27.2469 23.1381 27.2359 23.082C27.2336 22.9983 27.2566 22.9159 27.3019 22.8455C27.3877 22.6541 27.4775 22.4535 27.5714 22.2438C27.9476 21.3869 28.2237 20.6796 28.1885 20.6653C28.1533 20.651 27.8222 21.333 27.446 22.191L27.1864 22.7971C27.1304 22.8914 27.1098 23.0025 27.1281 23.1106C27.1379 23.1392 27.1539 23.1653 27.175 23.187C27.1962 23.2087 27.2218 23.2254 27.2502 23.236C27.2945 23.2497 27.3403 23.2582 27.3866 23.2613C27.7056 23.2954 27.9102 23.3064 27.9102 23.2888Z" fill="#263238"/>
<path d="M27.4976 27.0199C28.5742 27.0916 29.6496 26.8631 30.604 26.3599C30.604 26.3599 29.7482 27.9362 27.469 27.6051L27.4976 27.0199Z" fill="#EB996E"/>
<path d="M28.0014 24.0567C28.0653 23.9842 28.1466 23.9291 28.2376 23.8966C28.3286 23.8641 28.4264 23.8552 28.5217 23.8708C28.5911 23.8807 28.6577 23.9046 28.7176 23.9409C28.7775 23.9771 28.8295 24.0251 28.8704 24.082C28.91 24.1366 28.9318 24.2021 28.933 24.2696C28.9342 24.337 28.9146 24.4032 28.877 24.4593C28.8233 24.5135 28.7546 24.5504 28.6797 24.5653C28.6048 24.5802 28.5272 24.5724 28.4568 24.5429C28.3107 24.4826 28.178 24.394 28.0663 24.2821C28.032 24.255 28.003 24.2218 27.9805 24.1843C27.9703 24.166 27.9656 24.1453 27.9667 24.1244C27.9679 24.1036 27.975 24.0835 27.9871 24.0666" fill="#EB996E"/>
<path d="M28.8243 23.5548C28.7737 23.5482 28.755 23.8914 28.4492 24.1202C28.1434 24.349 27.7804 24.2918 27.776 24.3402C27.7694 24.3622 27.8541 24.4117 28.0081 24.4238C28.2086 24.4361 28.4071 24.3777 28.5691 24.2588C28.725 24.1447 28.83 23.9741 28.8617 23.7836C28.8815 23.6406 28.8485 23.5537 28.8243 23.5548Z" fill="#263238"/>
<path d="M29.064 19.8488C29.1003 19.9324 29.4127 19.8741 29.7856 19.8972C30.1585 19.9203 30.4643 20.0072 30.5083 19.9236C30.5281 19.8862 30.472 19.8081 30.3466 19.7322C30.1797 19.6396 29.9939 19.5863 29.8032 19.5764C29.6126 19.5665 29.4222 19.6002 29.2466 19.675C29.1124 19.7377 29.0486 19.8092 29.064 19.8488Z" fill="#263238"/>
<path d="M26.1073 20.4673C26.1546 20.5465 26.3889 20.5036 26.6573 20.5388C26.9257 20.574 27.149 20.6565 27.2073 20.5894C27.2359 20.5575 27.2073 20.4794 27.1193 20.3991C26.9963 20.2975 26.8458 20.235 26.687 20.2198C26.5291 20.1995 26.3689 20.2275 26.2272 20.3001C26.1282 20.3595 26.0864 20.4288 26.1073 20.4673Z" fill="#263238"/>
<path d="M32.1495 22.6251C32.1968 22.1389 32.7435 21.8397 33.1538 22.1048C33.3738 22.25 33.5432 22.5272 33.4959 23.0431C33.3727 24.4192 32.0175 24.0111 32.0186 23.9715C32.0197 23.9319 32.0901 23.1938 32.1495 22.6251Z" fill="#FFBE9D"/>
<path d="M32.4851 23.4886C32.4917 23.4886 32.5082 23.5073 32.5467 23.5293C32.6011 23.5593 32.6652 23.5664 32.7249 23.5491C32.8756 23.5084 33.0186 23.2895 33.0472 23.042C33.0617 22.9242 33.0497 22.8047 33.012 22.6922C33.0026 22.6481 32.9829 22.607 32.9544 22.5721C32.9258 22.5373 32.8894 22.5098 32.8481 22.492C32.8211 22.4822 32.7915 22.4823 32.7645 22.4921C32.7376 22.502 32.715 22.521 32.7007 22.5459C32.6787 22.5822 32.6853 22.6108 32.6776 22.6119C32.6699 22.613 32.6501 22.5866 32.6666 22.5305C32.6771 22.4971 32.6988 22.4683 32.7282 22.4491C32.7686 22.4243 32.8171 22.416 32.8635 22.426C32.919 22.4423 32.9694 22.4726 33.0099 22.514C33.0503 22.5555 33.0794 22.6066 33.0945 22.6625C33.1429 22.7866 33.1596 22.9208 33.1429 23.053C33.1099 23.3291 32.9438 23.5755 32.7403 23.6151C32.7017 23.6233 32.6619 23.6225 32.6237 23.6127C32.5855 23.603 32.5501 23.5846 32.5203 23.559C32.4851 23.5216 32.4807 23.4897 32.4851 23.4886Z" fill="#EB996E"/>
<path d="M35.0349 28.4355C34.9249 27.4895 35.3044 26.8812 35.2967 25.9286C35.2879 24.7615 35.0239 23.458 34.7973 22.3118C34.5773 21.1843 34.2286 20.202 33.8249 19.1218C33.4212 18.0416 32.3729 16.9669 31.3059 16.4818C30.3643 16.055 29.1345 16.1727 28.4096 16.8602C28.3565 16.8635 28.3032 16.8635 28.2501 16.8602C26.6364 16.7227 26.4131 17.9085 26.4131 17.9085C27.4152 16.9724 28.0994 17.7985 28.0994 17.7985C28.7088 17.1671 29.723 17.7127 30.0728 18.3111C30.5656 19.1548 30.6118 19.6575 30.7405 20.0986C31.0639 21.2041 32.0605 21.4241 31.9967 22.5747C31.923 24.0487 31.0837 25.185 30.9693 26.6568C30.9439 27.0888 30.8839 27.5181 30.79 27.9405C30.6613 28.3915 28.6461 31.7905 29.9309 32.0765C29.9783 32.0783 30.0258 32.0758 30.0728 32.0688L31.5028 31.9907L32.6556 31.2515L32.6193 32.0072L34.5102 32.1348C34.97 31.7454 35.1009 31.092 35.0536 30.498C35.0063 29.904 35.1064 29.0273 35.0349 28.4355Z" fill="#263238"/>
<path d="M28.0398 17.681C28.0446 17.6642 28.0512 17.6479 28.0596 17.6326C28.075 17.6018 28.097 17.5567 28.1289 17.5006C28.2152 17.3375 28.3265 17.1891 28.4589 17.0606C28.5528 16.9721 28.6657 16.9063 28.7889 16.8681C28.9332 16.8266 29.0866 16.8301 29.2289 16.878C29.5325 16.9781 29.7866 17.2289 29.9989 17.5083C30.3624 17.9915 30.6719 18.5131 30.9218 19.0637C31.0208 19.2738 31.0967 19.4443 31.1484 19.5631C31.1704 19.6181 31.1902 19.6632 31.2056 19.7006C31.221 19.738 31.2243 19.749 31.2221 19.7501C31.2112 19.7364 31.2023 19.7212 31.1957 19.705L31.1275 19.573L30.8855 19.0824C30.6263 18.5397 30.3142 18.0239 29.9538 17.5424C29.7415 17.2663 29.4951 17.0232 29.2102 16.9275C29.0774 16.8807 28.9334 16.8757 28.7977 16.9132C28.6794 16.9474 28.5703 17.008 28.4787 17.0903C28.3448 17.2121 28.2295 17.3529 28.1366 17.5083C28.1074 17.5675 28.075 17.6252 28.0398 17.681Z" fill="#455A64"/>
<path d="M30.1476 18.4398C30.1388 18.4398 30.0728 18.2924 29.9375 18.0647C29.8573 17.9324 29.7696 17.805 29.6746 17.683C29.5606 17.533 29.4257 17.4 29.2742 17.2881C29.199 17.2298 29.1118 17.1888 29.019 17.1682C28.9328 17.1565 28.8452 17.1719 28.7682 17.2122C28.6341 17.2864 28.513 17.3819 28.4096 17.4949C28.3157 17.6041 28.2119 17.7042 28.0994 17.7941C28.1206 17.7614 28.1453 17.7312 28.1731 17.7039C28.2215 17.6478 28.2908 17.5653 28.381 17.4663C28.4841 17.3456 28.6073 17.2437 28.7451 17.1649C28.8317 17.1179 28.9312 17.0998 29.0289 17.1132C29.1299 17.1346 29.225 17.1782 29.3072 17.2408C29.4629 17.3563 29.6008 17.4942 29.7164 17.65C29.8107 17.7757 29.8963 17.9076 29.9727 18.0449C30.0234 18.1374 30.0693 18.2325 30.1102 18.3298C30.1277 18.3646 30.1403 18.4016 30.1476 18.4398Z" fill="#455A64"/>
<path d="M32.3178 31.232C32.3216 31.2183 32.3275 31.2053 32.3354 31.1935C32.3486 31.166 32.3673 31.1297 32.3904 31.0835C32.4135 31.0373 32.4476 30.9735 32.4828 30.9064C32.518 30.8393 32.5554 30.7524 32.5994 30.6611C32.8396 30.136 33.0275 29.5884 33.1604 29.0265C33.3552 28.1924 33.453 27.3387 33.4519 26.4822C33.4459 25.4332 33.3354 24.3874 33.1219 23.3604C32.9019 22.2604 32.6115 21.2418 32.3321 20.3145C32.0527 19.3872 31.814 18.5457 31.4609 17.9044C31.1986 17.3883 30.8038 16.9513 30.3169 16.6383C30.1832 16.5565 30.0417 16.4884 29.8945 16.4348C29.845 16.415 29.8043 16.4051 29.7845 16.3963C29.7707 16.3926 29.7575 16.3874 29.7449 16.3809L29.7856 16.3897C29.812 16.3974 29.8527 16.4062 29.9033 16.4238C30.0536 16.4734 30.1982 16.539 30.3345 16.6196C30.8278 16.9312 31.2279 17.3701 31.4928 17.8901C31.8536 18.5358 32.0923 19.3828 32.3794 20.3046C32.6665 21.2264 32.9547 22.2571 33.1747 23.3549C33.3905 24.3852 33.5011 25.4349 33.5047 26.4877C33.5038 27.3477 33.4015 28.2047 33.2 29.0408C33.0628 29.6041 32.8682 30.1518 32.6192 30.6754L32.4982 30.9196L32.4014 31.0945C32.375 31.1385 32.3552 31.1737 32.3398 31.2045C32.3332 31.2142 32.3258 31.2234 32.3178 31.232Z" fill="#455A64"/>
<path d="M32.7149 31.8269L32.7413 31.7928C32.7604 31.7686 32.7868 31.7367 32.8205 31.6971L32.9503 31.542L33.1131 31.322C33.4502 30.8422 33.7135 30.3146 33.8941 29.7567C34.1631 28.9289 34.2968 28.063 34.2901 27.1926C34.2695 26.128 34.1218 25.0696 33.8501 24.04C33.5828 22.94 33.2572 21.9082 32.991 20.96C32.7248 20.0118 32.5092 19.1549 32.2265 18.4674C32.1028 18.1575 31.9557 17.8574 31.7865 17.5698C31.6572 17.3537 31.51 17.1487 31.3465 16.9571C31.2443 16.8355 31.134 16.7208 31.0165 16.6139L30.9252 16.5292C30.9142 16.5205 30.9043 16.5105 30.8955 16.4995C30.9073 16.5068 30.9184 16.5153 30.9285 16.5248L31.0242 16.6051C31.1461 16.7087 31.26 16.8212 31.3652 16.9417C31.5318 17.1326 31.6819 17.3372 31.814 17.5533C31.9862 17.8409 32.1358 18.1414 32.2617 18.452C32.5499 19.1406 32.7732 20.0008 33.0394 20.9457C33.3056 21.8906 33.6356 22.9257 33.904 24.0257C34.1724 25.1257 34.344 26.2048 34.3341 27.1915C34.3415 28.0672 34.2055 28.9382 33.9315 29.7699C33.7468 30.3298 33.4767 30.8578 33.1307 31.3352C33.068 31.4177 33.0119 31.4903 32.9635 31.5552L32.8282 31.707L32.7446 31.7994L32.7149 31.8269Z" fill="#455A64"/>
<path d="M31.7171 28.3245C31.6469 28.2135 31.5956 28.0916 31.5653 27.9637C31.4825 27.6136 31.4882 27.2485 31.5818 26.9011C31.6434 26.6619 31.7278 26.4291 31.8337 26.2059C31.9437 25.9639 32.0779 25.7142 32.2154 25.4502C32.3622 25.1772 32.4887 24.8938 32.5938 24.6021C32.707 24.2906 32.7578 23.9598 32.7434 23.6286C32.7174 23.297 32.6433 22.9709 32.5234 22.6606C32.4134 22.3581 32.2825 22.0743 32.1582 21.8037C31.9085 21.2647 31.683 20.7785 31.4982 20.3682L31.0582 19.3991L30.9405 19.134L30.9108 19.0647C30.9042 19.0493 30.902 19.0405 30.9031 19.0405C30.9086 19.0471 30.913 19.0546 30.9163 19.0625C30.9262 19.0801 30.9372 19.1021 30.9504 19.1296L31.0791 19.3892C31.1891 19.6213 31.3464 19.9491 31.5389 20.3517C31.7314 20.7543 31.9613 21.2438 32.2154 21.7817C32.3408 22.0512 32.4728 22.3317 32.585 22.6419C32.706 22.9572 32.7801 23.2885 32.805 23.6253C32.82 23.9641 32.7677 24.3024 32.651 24.6208C32.5444 24.9147 32.4157 25.2 32.266 25.4744C32.1274 25.7384 31.9921 25.9859 31.881 26.2257C31.7747 26.4458 31.6889 26.6752 31.6247 26.911C31.529 27.2523 31.5176 27.6116 31.5917 27.9582C31.6143 28.0517 31.6441 28.1433 31.6808 28.2321C31.6952 28.262 31.7073 28.2929 31.7171 28.3245Z" fill="#455A64"/>
<path d="M18.8142 33.9839C18.8142 33.9839 17.778 38.2948 17.635 39.3981C17.4458 40.8556 17.0245 43.1667 17.4062 44.0819C17.7879 44.9971 19.0408 45.5471 19.8042 45.3568C20.5676 45.1665 25.1843 38.5753 25.1843 38.418L23.696 36.7394L21.2155 38.418L21.8667 34.7462L18.8142 33.9839Z" fill="#FFBE9D"/>
<path d="M29.207 29.792H26.1072C25.8921 29.792 25.7178 29.9663 25.7178 30.1814V36.7935C25.7178 37.0086 25.8921 37.1829 26.1072 37.1829H29.207C29.422 37.1829 29.5964 37.0086 29.5964 36.7935V30.1814C29.5964 29.9663 29.422 29.792 29.207 29.792Z" fill="#455A64"/>
<path d="M28.2402 34.0596C27.9542 34.0112 27.3943 34.108 27.3943 34.108L25.4121 34.3896L26.0072 33.6537C26.0072 33.6537 27.6308 33.3633 27.9707 33.2665C27.9966 33.2614 28.0212 33.2512 28.0431 33.2365C28.0651 33.2218 28.0839 33.203 28.0985 33.181C28.1131 33.159 28.1233 33.1343 28.1283 33.1084C28.1334 33.0825 28.1333 33.0559 28.128 33.03C28.1158 32.9457 28.0729 32.8688 28.0075 32.8142C27.9422 32.7596 27.8589 32.7311 27.7738 32.7341L25.5474 32.7814L24.0206 34.1146V36.077L23.5806 36.8217L25.1052 38.4596C25.1052 38.4596 26.1535 37.8931 26.2503 37.6753C26.3082 37.5463 26.3332 37.4049 26.3229 37.2639L27.6209 36.8239C27.693 36.8 27.7551 36.7525 27.797 36.689C27.8389 36.6256 27.8582 36.5499 27.8519 36.4741V36.4378L26.2019 36.3157L27.9982 36.0055C28.0536 35.996 28.1037 35.9666 28.1391 35.9229C28.1745 35.8792 28.1928 35.8241 28.1907 35.7679C28.1885 35.7117 28.166 35.6582 28.1274 35.6173C28.0887 35.5764 28.0366 35.551 27.9806 35.5457L25.8906 35.3466L27.6286 34.7636C27.9196 34.6777 28.2047 34.573 28.4822 34.4501C28.6384 34.3687 28.5625 34.1179 28.2402 34.0596Z" fill="#FFBE9D"/>
<path d="M21.53 38.2036C21.4964 38.2383 21.4596 38.2696 21.42 38.2971C21.3452 38.3543 21.2341 38.4346 21.0966 38.5336C20.8227 38.7305 20.4366 38.9945 20.0384 39.3168C19.8382 39.4796 19.6567 39.6468 19.4994 39.7997C19.3612 39.9381 19.2319 40.085 19.1122 40.2397C18.9087 40.5081 18.8141 40.6951 18.8042 40.6896C18.8195 40.643 18.8402 40.5983 18.8658 40.5565C18.8918 40.505 18.9208 40.455 18.9527 40.4069C18.9916 40.341 19.0338 40.2771 19.0792 40.2155C19.1955 40.0542 19.3234 39.9016 19.462 39.759C19.6328 39.5855 19.8131 39.4218 20.0021 39.2684C20.4047 38.9439 20.7941 38.6843 21.0735 38.4984L21.4035 38.2784C21.4428 38.249 21.4853 38.2239 21.53 38.2036Z" fill="#EB996E"/>
<path d="M27.8606 30.6772C27.8606 30.7125 27.8501 30.7469 27.8305 30.7762C27.8109 30.8055 27.7831 30.8284 27.7505 30.8419C27.718 30.8553 27.6822 30.8589 27.6476 30.852C27.613 30.8451 27.5813 30.8282 27.5563 30.8032C27.5314 30.7783 27.5145 30.7466 27.5076 30.712C27.5007 30.6774 27.5042 30.6416 27.5177 30.609C27.5312 30.5765 27.554 30.5486 27.5833 30.5291C27.6127 30.5095 27.6471 30.499 27.6823 30.499C27.7296 30.499 27.7749 30.5178 27.8084 30.5512C27.8418 30.5846 27.8606 30.63 27.8606 30.6772Z" fill="#E0E0E0"/>
<path d="M31.4664 34.4077L30.483 32.8974C30.483 32.8974 28.2544 32.1604 27.9728 32.2132C27.7594 32.2528 27.7286 32.5608 27.7264 32.7049C27.7264 32.75 27.7264 32.7786 27.7264 32.7786L28.0135 32.9722L29.3236 33.2131L30.0936 33.74L29.5678 33.4936L28.0278 33.2549C27.9224 33.236 27.8139 33.249 27.7159 33.2921C27.618 33.3352 27.5351 33.4065 27.4778 33.4969C27.4536 33.5376 27.4778 33.5541 27.4701 33.5959C27.4514 33.7928 28.0927 33.9842 28.0927 33.9842L29.2488 34.3263L29.6536 35.0743L28.2324 34.6343C28.2324 34.6343 27.359 34.9236 27.3018 35.0369C27.2446 35.1502 27.8969 35.4362 27.9497 35.4384C28.0025 35.4406 29.0618 35.9301 29.0618 35.9301L28.019 35.973L26.897 36.182L27.3579 36.402L28.2379 36.512L28.9925 36.8805L28.9573 37.5647C28.9573 37.5647 29.2873 38.2676 29.5975 38.4447C29.9077 38.6218 31.1694 36.9047 31.1694 36.9047L31.2574 36.0797L31.4675 35.3097L31.3575 34.8389L31.4664 34.4077Z" fill="#FFBE9D"/>
<path d="M29.5964 38.4445L31.2101 46.0037C31.2101 46.0037 31.7007 47.5954 33.4728 47.5954C35.0997 47.5954 35.6959 44.5253 35.6959 44.5253L37.1116 36.9507L33.9403 36.6724L33.0702 41.156L31.1694 36.9001L29.5964 38.4445Z" fill="#FFBE9D"/>
<path d="M34.1636 45.4032C34.1619 45.341 34.1659 45.2788 34.1757 45.2173C34.1823 45.1579 34.1889 45.0853 34.1922 44.9973C34.1955 44.9093 34.2054 44.8158 34.2032 44.7091C34.2077 44.4598 34.197 44.2103 34.1713 43.9622C34.1369 43.6584 34.0814 43.3574 34.0052 43.0613C33.9259 42.7661 33.8259 42.4768 33.706 42.1956C33.606 41.9669 33.4925 41.7443 33.3661 41.529C33.3144 41.4355 33.2561 41.3563 33.2143 41.2848C33.1725 41.2133 33.1285 41.1528 33.0933 41.1044C33.0544 41.0556 33.0202 41.0034 32.991 40.9482C33.035 40.9924 33.0751 41.0402 33.1109 41.0912C33.1573 41.1475 33.2007 41.2062 33.2407 41.2672C33.2891 41.3376 33.3507 41.4157 33.4013 41.5081C33.5335 41.7223 33.6515 41.945 33.7544 42.1747C33.8777 42.4577 33.9803 42.7492 34.0613 43.047C34.1382 43.3457 34.1923 43.6498 34.223 43.9567C34.2472 44.2071 34.2542 44.4589 34.2439 44.7102C34.2439 44.8202 34.2307 44.9148 34.2241 44.9995C34.2175 45.0842 34.2076 45.1568 34.1977 45.2195C34.1905 45.2815 34.1791 45.3429 34.1636 45.4032Z" fill="#EB996E"/>
<path d="M37.3481 36.9672C37.3419 36.9442 37.3382 36.9206 37.3371 36.8968C37.3319 36.844 37.3253 36.7758 37.3173 36.6922C37.3019 36.5074 37.281 36.2522 37.2546 35.9398C37.2018 35.3051 37.1358 34.4262 37.0478 33.4582C37.0192 33.17 36.9972 32.8873 36.9521 32.6244C36.8812 32.3823 36.7538 32.1606 36.5803 31.9776C36.313 31.6756 36.0151 31.402 35.6915 31.1614L35.2185 30.959L35.0931 30.9029C35.0785 30.8967 35.0645 30.8894 35.0513 30.8809C35.0513 30.8809 35.0678 30.8809 35.0975 30.8941L35.2251 30.9414L35.7047 31.1295C36.0362 31.3654 36.3405 31.6373 36.6122 31.9402C36.7936 32.1288 36.9265 32.3587 36.9994 32.6101C37.0467 32.8785 37.0687 33.1601 37.0973 33.4483C37.1853 34.4174 37.2458 35.2963 37.2876 35.9321C37.3063 36.2456 37.3217 36.5008 37.3327 36.6867L37.3415 36.8913C37.3461 36.9163 37.3483 36.9417 37.3481 36.9672Z" fill="#263238"/>
<path d="M18.3839 17.1111C21.1542 17.1111 23.3999 14.8732 23.3999 12.1127C23.3999 9.35212 21.1542 7.11426 18.3839 7.11426C15.6137 7.11426 13.3679 9.35212 13.3679 12.1127C13.3679 14.8732 15.6137 17.1111 18.3839 17.1111Z" fill="#FAFAFA"/>
<path d="M23.6541 15.7305C23.606 15.7426 23.5587 15.7573 23.5122 15.7745C23.3879 15.8272 23.2829 15.9171 23.2119 16.0319C23.1623 16.1098 23.1304 16.1977 23.1184 16.2893C23.1074 16.3937 23.1265 16.499 23.1734 16.5929C23.222 16.7044 23.3036 16.7982 23.4073 16.8618C23.511 16.9254 23.6316 16.9556 23.753 16.9484C23.8744 16.9412 23.9907 16.8969 24.0861 16.8216C24.1815 16.7462 24.2515 16.6433 24.2866 16.5269C24.3223 16.4281 24.3284 16.3211 24.3042 16.2189C24.2821 16.1295 24.2404 16.0461 24.1821 15.9747C24.0976 15.8689 23.9823 15.792 23.8521 15.7547C23.8039 15.7425 23.7551 15.7334 23.7058 15.7272C23.7058 15.7272 23.719 15.7272 23.7454 15.7272C23.7611 15.7257 23.777 15.7257 23.7927 15.7272C23.8142 15.7291 23.8356 15.7328 23.8565 15.7382C23.9939 15.7716 24.1167 15.8488 24.2063 15.9582C24.2698 16.032 24.3157 16.1193 24.3405 16.2134C24.3676 16.3225 24.3626 16.4371 24.3262 16.5434C24.2856 16.6609 24.2137 16.7651 24.1183 16.8448C24.0177 16.935 23.8896 16.9885 23.7547 16.9965C23.6199 17.0045 23.4863 16.9665 23.3758 16.8888C23.2712 16.8213 23.1874 16.7261 23.1338 16.6138C23.0838 16.5115 23.0651 16.3967 23.0799 16.2838C23.0932 16.1894 23.1274 16.0992 23.18 16.0198C23.2569 15.9018 23.37 15.8118 23.5023 15.7635C23.5227 15.7557 23.5437 15.7495 23.565 15.7448C23.5802 15.741 23.5956 15.7384 23.6112 15.7371C23.6409 15.7294 23.6541 15.7283 23.6541 15.7305Z" fill="#263238"/>
<path d="M23.3923 12.5232C23.3923 12.5232 23.3923 12.4957 23.3923 12.4418C23.3923 12.3879 23.3923 12.3076 23.3923 12.2042C23.3923 12.1514 23.3923 12.0942 23.3923 12.0282C23.3923 11.9622 23.3824 11.894 23.378 11.8181C23.3736 11.7422 23.3648 11.6597 23.3582 11.5717C23.3561 11.5266 23.3502 11.4817 23.3406 11.4375C23.3318 11.3913 23.3241 11.344 23.3153 11.2945C23.2355 10.8187 23.0842 10.3577 22.8665 9.9272C22.5827 9.35477 22.1913 8.84236 21.7137 8.418L21.5113 8.242C21.4398 8.1859 21.3639 8.132 21.2913 8.0803L21.1813 7.9989C21.1443 7.96961 21.105 7.94348 21.0636 7.9208L20.815 7.7767C20.7732 7.7525 20.7314 7.7272 20.6885 7.7041L20.5554 7.6436L20.2837 7.5193C20.1913 7.4808 20.0934 7.4533 19.9966 7.4181L19.8514 7.3686C19.8272 7.3609 19.803 7.351 19.7777 7.3444L19.7018 7.3268C19.4972 7.27229 19.2892 7.2315 19.0792 7.2047C18.9692 7.1926 18.8658 7.1739 18.7569 7.1673L18.4269 7.1585C18.3719 7.1585 18.3169 7.1585 18.2597 7.1585L18.0925 7.1706C17.9825 7.1805 17.8725 7.1849 17.7548 7.1992C17.5261 7.23158 17.2997 7.27899 17.0772 7.3411L16.9078 7.3895C16.8792 7.3972 16.8506 7.4038 16.8231 7.4137L16.7406 7.4456L16.4106 7.5754C16.3006 7.6238 16.1906 7.6854 16.0872 7.736C16.0344 7.7646 15.9772 7.7877 15.9266 7.8207L15.7715 7.9186C15.5621 8.05228 15.3615 8.19925 15.1709 8.3586L14.897 8.6171L14.8288 8.682C14.8068 8.7051 14.787 8.7293 14.765 8.7524L14.6396 8.8965L14.5142 9.0395L14.4042 9.1957L14.2942 9.3519L14.2381 9.43C14.2205 9.4575 14.2051 9.4861 14.1886 9.5136C14.1237 9.6236 14.0577 9.7336 13.9928 9.8513C13.9279 9.969 13.8828 10.0889 13.8289 10.2077C13.4079 11.197 13.3222 12.2968 13.5847 13.3394L13.6947 13.7178C13.7416 13.8403 13.7889 13.9613 13.8366 14.0808L13.8718 14.171L13.9158 14.2579L14.0027 14.4295L14.0896 14.6011L14.1919 14.7628L14.2931 14.9234L14.3448 15.0037L14.4031 15.0785L14.633 15.3766C14.7948 15.5585 14.9675 15.7304 15.15 15.8914L15.2875 16.0113C15.3337 16.052 15.3854 16.0839 15.4338 16.1213C15.5328 16.1917 15.6285 16.2654 15.7286 16.3303L16.0377 16.5107L16.1136 16.5547L16.1939 16.5921L16.3545 16.6658C16.5643 16.762 16.7804 16.844 17.0013 16.9111C17.1113 16.943 17.2213 16.965 17.3313 16.9914L17.4941 17.0299C17.5491 17.042 17.6041 17.0453 17.6591 17.0541L17.9891 17.0959C18.0991 17.1058 18.2091 17.1036 18.3191 17.1091C18.5306 17.1155 18.7423 17.1074 18.9527 17.0849H19.0308L19.1067 17.0717L19.2585 17.0453C19.3586 17.0266 19.4598 17.0145 19.5577 16.9903L19.8448 16.91L19.9867 16.8704L20.1231 16.8187L20.3904 16.7142C20.4348 16.6982 20.4778 16.6787 20.5191 16.6559L20.6434 16.5932C20.7259 16.5514 20.8084 16.5118 20.8876 16.4678L21.1153 16.3248C21.6533 15.9801 22.1195 15.5344 22.4881 15.0125C22.5299 14.9553 22.5706 14.9025 22.6091 14.8442L22.7103 14.6715L22.8071 14.5054C22.8225 14.4779 22.8401 14.4515 22.8533 14.424C22.8665 14.3965 22.8797 14.369 22.8918 14.3415L23.037 14.0269C23.0799 13.9257 23.1085 13.8245 23.147 13.731C23.1635 13.6848 23.1789 13.6386 23.1943 13.5946C23.211 13.5526 23.2239 13.5091 23.2328 13.4648C23.2537 13.379 23.2724 13.2987 23.29 13.225C23.3076 13.1513 23.3263 13.082 23.3373 13.0182L23.3615 12.8455C23.3758 12.7421 23.3868 12.664 23.3945 12.6101C23.4022 12.5562 23.4066 12.5298 23.4066 12.5298C23.4066 12.5298 23.4066 12.5562 23.3989 12.6101C23.3912 12.664 23.3824 12.7432 23.3703 12.8466C23.3637 12.8983 23.3571 12.9566 23.3494 13.0204C23.3417 13.0842 23.3197 13.1524 23.3043 13.2272C23.2889 13.302 23.268 13.3823 23.2482 13.4692C23.2397 13.5139 23.2272 13.5577 23.2108 13.6001C23.1954 13.6441 23.18 13.6903 23.1646 13.7376C23.1305 13.8311 23.103 13.9323 23.0601 14.0346C23.0172 14.1369 22.9666 14.2403 22.916 14.3514C22.9039 14.3789 22.8907 14.4064 22.8786 14.435C22.8665 14.4636 22.8478 14.4889 22.8324 14.5164L22.7356 14.6836L22.6344 14.8574C22.597 14.9146 22.5552 14.9674 22.5145 15.0279C22.1446 15.5524 21.677 16.0005 21.1373 16.3479L20.9096 16.4931C20.8293 16.5371 20.7457 16.5767 20.6632 16.6196L20.5378 16.6834C20.496 16.7063 20.4527 16.7261 20.408 16.7428L20.1396 16.8473C20.0934 16.8649 20.0483 16.8836 20.0021 16.9001L19.8602 16.9408L19.5709 17.0222C19.4719 17.0464 19.3707 17.0596 19.2695 17.0783L19.1166 17.1058C19.0913 17.1058 19.066 17.1157 19.0396 17.1179L18.9615 17.1245C18.7493 17.1474 18.5358 17.1558 18.3224 17.1498C18.2124 17.1498 18.1024 17.1498 17.9924 17.1377L17.6624 17.0948C17.6074 17.0871 17.5524 17.0827 17.4963 17.0717L17.3313 17.0332C17.2213 17.0057 17.1113 16.9848 17.0013 16.9529C16.7786 16.885 16.5607 16.8024 16.349 16.7054L16.1873 16.6317L16.1059 16.5943L16.0289 16.5492L15.7 16.3666C15.5988 16.3006 15.502 16.2258 15.4019 16.1554C15.3535 16.1191 15.3007 16.0872 15.2545 16.0454L15.1159 15.9233C14.9275 15.7594 14.75 15.5834 14.5846 15.3964L14.3514 15.0961L14.2931 15.0213L14.2414 14.9399L14.1391 14.7782L14.0357 14.6154L13.9477 14.4427L13.8597 14.2689L13.8157 14.1809L13.7794 14.0907C13.7321 13.9686 13.6848 13.8465 13.6364 13.7233C13.588 13.6001 13.566 13.4703 13.5264 13.3416C13.2613 12.2894 13.3483 11.1794 13.7739 10.1813L13.9389 9.8205C14.0049 9.7105 14.0709 9.5939 14.1358 9.4806C14.1534 9.4531 14.1688 9.4245 14.1864 9.397L14.2425 9.3178L14.3525 9.1594L14.4625 9.0021L14.6 8.8591L14.7265 8.7139C14.7485 8.6908 14.7683 8.6655 14.7903 8.6424L14.8596 8.5775L15.1412 8.3201C15.333 8.1598 15.5355 8.0128 15.7473 7.8801L15.9035 7.7811C15.9552 7.7481 16.0135 7.725 16.0652 7.6964C16.1752 7.6425 16.2852 7.5864 16.3952 7.5347L16.7318 7.4038L16.8143 7.3719C16.8429 7.362 16.8715 7.3554 16.9001 7.3466L17.0717 7.2993C17.296 7.23671 17.5242 7.18894 17.7548 7.1563C17.8648 7.142 17.9825 7.1376 18.0958 7.1288L18.2641 7.1167C18.3202 7.1167 18.3741 7.1167 18.4324 7.1167L18.7624 7.1255C18.8724 7.1332 18.9824 7.1519 19.0924 7.1651C19.3041 7.1912 19.5136 7.23237 19.7194 7.2883L19.7953 7.307C19.8206 7.3136 19.8448 7.3235 19.8701 7.3312L20.0164 7.3818C20.1132 7.4159 20.2122 7.4445 20.3057 7.4841L20.5785 7.6095L20.7127 7.6711C20.7567 7.6942 20.7985 7.7206 20.8403 7.7448L21.09 7.8911C21.1309 7.91456 21.1702 7.94065 21.2077 7.9692L21.3177 8.0517C21.3936 8.1067 21.4695 8.1617 21.5377 8.2156C21.6059 8.2695 21.6741 8.3355 21.7412 8.3938C22.2207 8.82213 22.6129 9.33907 22.8962 9.9162C23.1121 10.3498 23.2605 10.8139 23.3362 11.2923C23.3439 11.3407 23.3527 11.388 23.3604 11.4353C23.3695 11.4799 23.3754 11.5251 23.378 11.5706C23.378 11.6586 23.389 11.74 23.3945 11.817C23.4 11.894 23.4066 11.9633 23.4077 12.0282L23.4011 12.2042C23.4011 12.3076 23.3945 12.3868 23.3923 12.4418C23.3901 12.4968 23.3923 12.5232 23.3923 12.5232Z" fill="#263238"/>
<path d="M16.8307 10.9112H17.7107C17.7107 10.9112 17.7107 10.1764 18.4741 10.1632C18.6213 10.1579 18.7666 10.1985 18.8896 10.2796C19.0126 10.3606 19.1073 10.478 19.1605 10.6153C19.2066 10.73 19.225 10.854 19.2141 10.9771C19.2032 11.1002 19.1634 11.219 19.0978 11.3237C18.9493 11.569 18.6248 11.7912 18.0341 11.6878V13.6612H18.8998V12.5051C18.8998 12.5051 20.1098 12.1916 20.1098 10.8551C20.1098 9.57585 18.9614 9.27885 18.4708 9.27885C18.0946 9.27665 16.8142 9.36685 16.8307 10.9112Z" fill="#263238"/>
<path d="M18.9065 14.0684H18.0276V14.889H18.9065V14.0684Z" fill="#263238"/>
</g>
<defs>
<clipPath id="clip0_80_29262">
<rect width="58" height="58" fill="white"/>
</clipPath>
</defs>
</svg>
