<svg width="14" height="14" viewBox="0 0 14 14" fill="none" xmlns="http://www.w3.org/2000/svg">
<path d="M6.41675 10.4998H7.58341V9.33317H6.41675V10.4998ZM7.00008 1.1665C3.78008 1.1665 1.16675 3.77984 1.16675 6.99984C1.16675 10.2198 3.78008 12.8332 7.00008 12.8332C10.2201 12.8332 12.8334 10.2198 12.8334 6.99984C12.8334 3.77984 10.2201 1.1665 7.00008 1.1665ZM7.00008 11.6665C4.42758 11.6665 2.33341 9.57234 2.33341 6.99984C2.33341 4.42734 4.42758 2.33317 7.00008 2.33317C9.57258 2.33317 11.6667 4.42734 11.6667 6.99984C11.6667 9.57234 9.57258 11.6665 7.00008 11.6665ZM7.00008 3.49984C5.71091 3.49984 4.66675 4.544 4.66675 5.83317H5.83341C5.83341 5.1915 6.35841 4.6665 7.00008 4.6665C7.64175 4.6665 8.16675 5.1915 8.16675 5.83317C8.16675 6.99984 6.41675 6.854 6.41675 8.74984H7.58341C7.58341 7.43734 9.33341 7.2915 9.33341 5.83317C9.33341 4.544 8.28925 3.49984 7.00008 3.49984Z" fill="#676767"/>
</svg>
