<svg width="51" height="51" viewBox="0 0 51 51" fill="none" xmlns="http://www.w3.org/2000/svg">
<path d="M25.5 50.5C39.3071 50.5 50.5 39.3071 50.5 25.5C50.5 11.6929 39.3071 0.5 25.5 0.5C11.6929 0.5 0.5 11.6929 0.5 25.5C0.5 39.3071 11.6929 50.5 25.5 50.5Z" fill="white" stroke="#263238" stroke-linecap="round" stroke-linejoin="round"/>
<path d="M15.7197 17.9209C14.5078 17.4801 13.3472 16.9095 12.2579 16.2192C9.96812 14.8679 6.50634 14.9263 6.03503 16.1024C5.56373 17.2786 6.27277 18.2713 5.80147 18.8594C5.33016 19.4475 4.27494 19.5642 4.39172 20.1523C4.5085 20.7404 5.64296 21.0324 5.4511 21.4036C5.25925 21.7748 4.56689 22.4588 4.80463 22.7549C5.11006 23.0636 5.44381 23.3429 5.80147 23.5891C5.80147 23.5891 6.56472 23.0594 5.15498 24.4233C3.74523 25.7871 4.15815 26.5337 4.15815 26.5337C4.15815 26.5337 4.62945 27.1802 4.45011 27.7057C4.27076 28.2312 4.97981 28.5858 4.97981 28.5858C5.36818 28.9376 5.60449 29.4267 5.6388 29.9496C5.5804 30.7129 6.22271 31.7097 6.22271 31.7097C6.22271 31.7097 8.86703 32.5439 8.80864 32.961C8.75024 33.3781 8.22055 34.133 8.33733 34.5459C8.45411 34.9588 9.62612 34.8378 9.98064 34.8378C10.3352 34.8378 10.6855 35.1882 10.6271 36.306C10.5687 37.4238 11.3278 37.6532 11.3278 37.6532C11.3278 37.6532 13.5008 38.4164 13.5592 38.65C13.6176 38.8836 12.504 39.3549 14.2641 39.2965C16.0242 39.2381 16.9042 39.4717 16.141 38.8293C15.3777 38.187 14.556 37.0692 13.7928 36.9483C13.0295 36.8273 11.7407 35.7763 12.7376 35.6011C13.4176 35.5171 14.1078 35.618 14.7354 35.8931L15.2317 36.5729L16.875 36.99C16.875 36.99 15.3485 37.8742 16.6415 38.283C17.9344 38.6917 18.2848 38.1662 18.3432 38.6333C18.4016 39.1004 18.6351 40.1014 18.6351 40.1014C18.6351 40.1014 18.4016 39.8095 19.2816 40.1014C20.1616 40.3934 19.9865 33.8452 19.4568 33.1779C18.874 32.5946 18.2244 32.0823 17.5215 31.6513L18.1096 29.7745L17.7551 28.4231C17.7551 28.4231 12.2579 26.7798 15.7197 17.9209Z" fill="#92E3A9" stroke="#263238" stroke-linecap="round" stroke-linejoin="round"/>
<path d="M6.44751 23.6147C6.44751 23.6147 8.03243 23.3186 9.78418 23.085C11.5359 22.8514 10.8978 22.4969 11.7194 22.205C12.5411 21.913 12.8915 22.205 12.8915 22.205" stroke="#263238" stroke-linecap="round" stroke-linejoin="round"/>
<path d="M5.91772 20.8539C6.0929 20.8539 8.49946 21.0332 10.1428 21.2084C11.7861 21.3836 12.6077 20.6787 12.6077 20.6787H13.371" stroke="#263238" stroke-linecap="round" stroke-linejoin="round"/>
<path d="M6.68115 30.0673C6.68115 30.0673 9.85099 28.6617 10.4349 28.6617C11.0188 28.6617 11.4359 29.1872 11.8447 28.424C12.2534 27.6607 11.9614 27.1936 12.316 26.9016C12.6705 26.6096 12.316 26.6639 12.6663 26.6055" stroke="#263238" stroke-linecap="round" stroke-linejoin="round"/>
<path d="M10.6724 34.1168C11.786 33.8248 11.0894 32.1815 12.3157 32.0647C13.5419 31.9479 14.1925 32.0063 15.3062 31.6476C16.4198 31.289 16.8911 31.0012 16.9495 30.8135" stroke="#263238" stroke-linecap="round" stroke-linejoin="round"/>
<path d="M22.1718 13.109C22.1718 13.109 21.8214 11.5824 22.3511 10.7608C22.8808 9.93914 24.9913 10.2353 25.6878 10.4104C26.3843 10.5856 27.2727 11.1737 27.2727 9.94331C27.2727 8.71291 26.9808 8.12065 26.5095 7.82869C26.0381 7.53673 26.6888 6.89025 25.9839 6.59829C25.6592 6.47574 25.3261 6.37677 24.9871 6.30216C24.5158 6.12699 24.2822 5.18855 23.5774 5.18855C22.8725 5.18855 22.8725 5.65569 22.4637 5.42212C22.055 5.18855 21.6296 4.58795 21.1708 4.71725C20.7527 4.89534 20.3741 5.15479 20.0572 5.48051C19.7983 5.30854 19.4821 5.2456 19.1771 5.30533C18.7058 5.42212 18.6474 5.83503 18.0593 5.83503C17.4712 5.83503 16.6538 5.00086 16.2992 5.24694C15.9168 5.48138 15.5952 5.80295 15.3608 6.18538C15.3024 6.41895 14.4808 6.0686 14.1304 6.53573C13.7801 7.00287 13.6007 7.53673 13.3671 7.65352C13.1336 7.7703 12.533 7.88708 12.533 8.0706C12.533 8.25412 12.6498 8.77547 12.533 8.95065C12.3973 9.11219 12.2385 9.25274 12.0617 9.36773C12.0617 9.36773 12.241 10.131 12.0033 10.3646C11.6014 10.6553 11.1758 10.912 10.7312 11.132C10.7312 11.132 11.3151 11.7201 11.0231 11.9662C10.7312 12.2122 10.3183 12.1413 10.189 12.3832C10.0597 12.6252 10.3641 13.3217 10.3641 13.3217C10.3641 13.3217 11.4819 13.9098 12.0658 14.2643C12.6498 14.6188 13.1252 15.0234 14.8853 13.9682C16.6454 12.9129 18.4055 12.8546 19.0562 13.2049C19.7068 13.5553 20.6536 14.8857 20.6536 14.8857C20.6536 14.8857 21.6463 15.3028 22.1718 13.109Z" fill="#92E3A9" stroke="#263238" stroke-linecap="round" stroke-linejoin="round"/>
<path d="M23.1561 5.89355C22.9377 5.98282 22.7527 6.13819 22.627 6.3379C22.5014 6.53761 22.4414 6.77164 22.4554 7.00717C22.3723 7.85841 22.1946 8.69775 21.9257 9.50967L21.3376 10.5065" stroke="#263238" stroke-linecap="round" stroke-linejoin="round"/>
<path d="M25.6332 7.47754C25.1156 7.78218 24.6426 8.15693 24.2276 8.59115C23.789 9.05376 23.3179 9.48446 22.8179 9.87994" stroke="#263238" stroke-linecap="round" stroke-linejoin="round"/>
<path d="M16.5994 6.30176C16.5994 6.30176 18.0633 7.82829 18.1843 8.76672" stroke="#263238" stroke-linecap="round" stroke-linejoin="round"/>
<path d="M13.196 9.17969C13.6256 9.59055 14.1203 9.92739 14.66 10.1765C15.2481 10.3517 15.953 10.5936 15.953 10.5936C15.953 10.5936 17.3627 11.1817 17.9466 11.4278" stroke="#263238" stroke-linecap="round" stroke-linejoin="round"/>
<path d="M38.2211 29.0074C38.2211 29.0074 39.7184 29.4662 40.1647 30.3337C40.611 31.2013 39.3013 32.8863 38.7925 33.4076C38.2836 33.929 37.341 34.3961 38.4088 35.0134C39.4765 35.6307 40.1313 35.6682 40.6193 35.4096C41.1073 35.1511 41.345 36.0311 41.9498 35.5681C42.5546 35.1052 42.3168 35.1511 42.7047 34.8549C43.0926 34.5588 44.0185 34.8007 44.3731 34.1918C44.7276 33.5828 44.3188 33.3576 44.7276 33.1115C45.1363 32.8654 45.8495 32.8112 45.9788 32.3441C46.0348 31.8928 46.0008 31.4349 45.8787 30.9969C46.0182 30.9287 46.1428 30.8335 46.2452 30.7168C46.3475 30.6001 46.4257 30.4642 46.4752 30.3171C46.6086 29.8499 46.2833 29.5955 46.5753 29.0658C46.8672 28.5361 47.9933 28.2567 47.9642 27.8354C47.955 27.3859 47.8377 26.9453 47.6221 26.5508C47.447 26.384 48.1643 25.8501 47.935 25.2995C47.7056 24.749 47.3469 24.382 47.3469 24.1192C47.3469 23.8564 47.5554 23.285 47.4011 23.2016C47.2468 23.1182 46.7337 22.9514 46.6378 22.7845C46.5707 22.5865 46.5314 22.3802 46.521 22.1714C46.521 22.1714 45.7703 21.942 45.6869 21.6209C45.6437 21.1213 45.6437 20.6189 45.6869 20.1194C45.6869 20.1194 44.8861 20.3362 44.8277 19.965C44.7693 19.5938 45.0279 19.2643 44.8861 19.0475C44.7443 18.8306 43.9852 18.7305 43.9852 18.7305C43.9852 18.7305 42.9174 19.402 42.3168 19.7315C41.7162 20.061 41.124 20.2653 41.1573 22.3174C41.1907 24.3694 40.3607 25.9252 39.7351 26.3047C39.1095 26.6843 37.4661 26.8261 37.4661 26.8261C37.4661 26.8261 36.6028 27.4642 38.2211 29.0074Z" fill="#92E3A9" stroke="#263238" stroke-linecap="round" stroke-linejoin="round"/>
<path d="M43.9686 33.4825C44.0009 33.2482 43.9591 33.0097 43.8492 32.8003C43.7393 32.5909 43.5666 32.4211 43.3555 32.3146C42.6538 31.8152 42.0103 31.2388 41.4369 30.5963L40.8655 29.5869" stroke="#263238" stroke-linecap="round" stroke-linejoin="round"/>
<path d="M41.3661 34.825C41.3599 34.2235 41.2715 33.6257 41.1034 33.0482C40.9222 32.4355 40.7828 31.8113 40.6863 31.1797" stroke="#263238" stroke-linecap="round" stroke-linejoin="round"/>
<path d="M46.9049 27.5898C46.9049 27.5898 44.8487 28.0945 43.9854 27.7275" stroke="#263238" stroke-linecap="round" stroke-linejoin="round"/>
<path d="M46.1163 23.2021C45.5447 23.3688 45.0048 23.6295 44.5189 23.9738C44.0726 24.3908 43.5179 24.8872 43.5179 24.8872C43.5179 24.8872 42.3042 25.8131 41.8079 26.201" stroke="#263238" stroke-linecap="round" stroke-linejoin="round"/>
<path d="M11.9949 22.4723C14.8628 22.4723 17.1876 20.1475 17.1876 17.2796C17.1876 14.4118 14.8628 12.0869 11.9949 12.0869C9.12709 12.0869 6.80225 14.4118 6.80225 17.2796C6.80225 20.1475 9.12709 22.4723 11.9949 22.4723Z" fill="white" stroke="#263238" stroke-linecap="round" stroke-linejoin="round"/>
<path d="M11.9949 21.9098C14.8628 21.9098 17.1876 19.585 17.1876 16.7171C17.1876 13.8493 14.8628 11.5244 11.9949 11.5244C9.12709 11.5244 6.80225 13.8493 6.80225 16.7171C6.80225 19.585 9.12709 21.9098 11.9949 21.9098Z" fill="white" stroke="#263238" stroke-linecap="round" stroke-linejoin="round"/>
<path d="M13.7833 21.0016C16.1471 20.0148 17.2633 17.2986 16.2764 14.9348C15.2896 12.5711 12.5734 11.4548 10.2096 12.4417C7.84589 13.4285 6.72968 16.1447 7.71652 18.5085C8.70336 20.8722 11.4196 21.9884 13.7833 21.0016Z" fill="white" stroke="#263238" stroke-width="0.75" stroke-linecap="round" stroke-linejoin="round"/>
<path d="M12.4951 16.2452C12.5797 16.2438 12.6632 16.225 12.7401 16.1898C12.8171 16.1547 12.886 16.1039 12.9424 16.0409C12.9988 15.9778 13.0416 15.9037 13.0679 15.8233C13.0943 15.7429 13.1038 15.6579 13.0957 15.5737C13.0957 14.9063 12.199 14.4016 11.1479 14.9063C10.0969 15.411 9.40036 16.3578 9.65061 16.4662C9.90086 16.5747 10.9978 16.412 10.9019 16.6914C10.8059 16.9709 9.60473 16.9167 9.30443 16.9167C9.20051 16.9163 9.09836 16.9436 9.00854 16.9959C8.91871 17.0481 8.84445 17.1234 8.79344 17.214C8.74243 17.3045 8.71651 17.407 8.71835 17.5109C8.7202 17.6148 8.74974 17.7164 8.80393 17.805C9.05001 18.4182 8.95408 17.6382 9.80076 17.6382C10.6474 17.6382 11.2981 17.6924 11.0979 17.8593C10.8977 18.0261 9.90086 18.3639 10.6016 18.4724C11.3023 18.5808 13.6963 18.5308 13.4961 18.0845C13.2959 17.6382 12.2449 17.4672 12.7454 17.3004C13.2459 17.1335 13.7464 16.8541 14.0967 16.9125C14.4471 16.9709 14.9309 16.3536 14.5138 16.1868C14.0967 16.0199 13.2459 16.412 12.4951 16.2452Z" stroke="#263238" stroke-width="0.75" stroke-linecap="round" stroke-linejoin="round"/>
<path d="M12.3117 13.7887C12.3117 13.7887 11.5318 12.1204 11.6402 13.063C11.7487 14.0056 12.1616 14.6813 12.3117 13.7887Z" stroke="#263238" stroke-width="0.75" stroke-linecap="round" stroke-linejoin="round"/>
<path d="M10.3972 14.5009C10.3972 14.5009 9.12097 13.1621 9.52971 14.0254C9.93845 14.8888 10.5224 15.4018 10.3972 14.5009Z" stroke="#263238" stroke-width="0.75" stroke-linecap="round" stroke-linejoin="round"/>
<path d="M14.2265 14.5009C14.2265 14.5009 15.5027 13.1621 15.094 14.0254C14.6853 14.8888 14.1013 15.4018 14.2265 14.5009Z" stroke="#263238" stroke-width="0.75" stroke-linecap="round" stroke-linejoin="round"/>
<path d="M14.8393 17.3043C14.8393 17.3043 16.6828 17.1625 15.8028 17.5295C14.9227 17.8965 14.147 17.8924 14.8393 17.3043Z" stroke="#263238" stroke-width="0.75" stroke-linecap="round" stroke-linejoin="round"/>
<path d="M14.1134 18.6387C14.1134 18.6387 15.7817 19.4144 14.8391 19.306C13.8965 19.1976 13.2208 18.818 14.1134 18.6387Z" stroke="#263238" stroke-width="0.75" stroke-linecap="round" stroke-linejoin="round"/>
<path d="M12.8873 20.216C12.8873 20.216 12.3534 18.4475 12.3284 19.3818C12.3034 20.3161 12.5953 21.0752 12.8873 20.216Z" stroke="#263238" stroke-width="0.75" stroke-linecap="round" stroke-linejoin="round"/>
<path d="M10.4307 19.3689C10.4307 19.3689 9.45891 20.9455 10.193 20.3282C10.927 19.7109 11.269 19.0185 10.4307 19.3689Z" stroke="#263238" stroke-width="0.75" stroke-linecap="round" stroke-linejoin="round"/>
<path d="M19.8572 17.3086C22.4417 17.3086 24.5368 15.2134 24.5368 12.6289C24.5368 10.0444 22.4417 7.94922 19.8572 7.94922C17.2727 7.94922 15.1775 10.0444 15.1775 12.6289C15.1775 15.2134 17.2727 17.3086 19.8572 17.3086Z" fill="white" stroke="#263238" stroke-linecap="round" stroke-linejoin="round"/>
<path d="M19.8572 16.7998C22.4417 16.7998 24.5368 14.7046 24.5368 12.1201C24.5368 9.53559 22.4417 7.44043 19.8572 7.44043C17.2727 7.44043 15.1775 9.53559 15.1775 12.1201C15.1775 14.7046 17.2727 16.7998 19.8572 16.7998Z" fill="white" stroke="#263238" stroke-linecap="round" stroke-linejoin="round"/>
<path d="M23.9169 13.1062C24.4631 10.8637 23.088 8.60292 20.8455 8.05666C18.603 7.51041 16.3422 8.88551 15.796 11.128C15.2497 13.3706 16.6248 15.6313 18.8673 16.1776C21.1099 16.7238 23.3706 15.3487 23.9169 13.1062Z" fill="white" stroke="#263238" stroke-width="0.75" stroke-linecap="round" stroke-linejoin="round"/>
<path d="M20.3114 11.6942C20.3874 11.6928 20.4624 11.6757 20.5315 11.644C20.6006 11.6122 20.6624 11.5665 20.7129 11.5097C20.7635 11.4529 20.8017 11.3862 20.8252 11.3139C20.8487 11.2415 20.8569 11.1651 20.8494 11.0894C20.8494 10.4847 20.0403 10.0342 19.0935 10.4847C18.1467 10.9351 17.5211 11.7943 17.7463 11.8944C17.9716 11.9945 18.9601 11.8443 18.8683 12.0946C18.7765 12.3448 17.7005 12.299 17.4294 12.299C17.335 12.298 17.2421 12.3225 17.1605 12.3698C17.0788 12.4171 17.0114 12.4855 16.9654 12.5678C16.9193 12.6502 16.8962 12.7434 16.8986 12.8377C16.901 12.9321 16.9287 13.024 16.9789 13.1039C17.2041 13.6545 17.1165 12.9496 17.8798 12.9496C18.6431 12.9496 19.2312 12.9997 19.0476 13.154C18.8641 13.3083 17.9716 13.6044 18.6014 13.7045C19.2312 13.8046 21.3875 13.7546 21.2081 13.3542C21.0288 12.9538 20.0862 12.7995 20.5325 12.6493C20.9787 12.4992 21.4334 12.2322 21.7503 12.299C22.0673 12.3657 22.5136 11.7943 22.109 11.6441C21.7045 11.494 20.9829 11.8443 20.3114 11.6942Z" stroke="#263238" stroke-width="0.75" stroke-linecap="round" stroke-linejoin="round"/>
<path d="M20.157 9.46389C20.157 9.46389 19.4521 7.95405 19.5522 8.80907C19.6523 9.66409 20.0068 10.2981 20.157 9.46389Z" stroke="#263238" stroke-width="0.75" stroke-linecap="round" stroke-linejoin="round"/>
<path d="M18.4179 10.123C18.4179 10.123 17.2667 8.91762 17.6338 9.70591C18.0008 10.4942 18.5305 10.9363 18.4179 10.123Z" stroke="#263238" stroke-width="0.75" stroke-linecap="round" stroke-linejoin="round"/>
<path d="M21.8672 10.123C21.8672 10.123 23.0183 8.91762 22.6471 9.70591C22.2759 10.4942 21.7546 10.9363 21.8672 10.123Z" stroke="#263238" stroke-width="0.75" stroke-linecap="round" stroke-linejoin="round"/>
<path d="M22.4218 12.6496C22.4218 12.6496 24.0901 12.5204 23.2893 12.854C22.4885 13.1877 21.7961 13.1752 22.4218 12.6496Z" stroke="#263238" stroke-width="0.75" stroke-linecap="round" stroke-linejoin="round"/>
<path d="M21.7631 13.8584C21.7631 13.8584 23.2771 14.5591 22.422 14.459C21.567 14.3589 20.9623 14.0127 21.7631 13.8584Z" stroke="#263238" stroke-width="0.75" stroke-linecap="round" stroke-linejoin="round"/>
<path d="M20.6535 15.2732C20.6535 15.2732 20.1697 13.6758 20.1488 14.5392C20.128 15.4025 20.3991 16.0449 20.6535 15.2732Z" stroke="#263238" stroke-width="0.75" stroke-linecap="round" stroke-linejoin="round"/>
<path d="M18.4471 14.5088C18.4471 14.5088 17.5712 15.9269 18.2302 15.3722C18.8892 14.8175 19.202 14.196 18.4471 14.5088Z" stroke="#263238" stroke-width="0.75" stroke-linecap="round" stroke-linejoin="round"/>
<path d="M42.3918 29.0659C43.2639 29.3763 44.0243 29.9384 44.5769 30.6811C45.1295 31.4237 45.4494 32.3136 45.4962 33.2381C45.543 34.1627 45.3145 35.0803 44.8397 35.8749C44.3649 36.6696 43.665 37.3056 42.8287 37.7024C41.9924 38.0993 41.0572 38.2392 40.1413 38.1044C39.2255 37.9697 38.3702 37.5664 37.6836 36.9454C36.997 36.3245 36.51 35.5139 36.2842 34.6162C36.0584 33.7185 36.1039 32.7739 36.415 31.9021C36.8318 30.7337 37.6955 29.7786 38.8163 29.2468C39.937 28.715 41.2231 28.6499 42.3918 29.0659Z" fill="white" stroke="#263238" stroke-linecap="round" stroke-linejoin="round"/>
<path d="M41.9248 28.903C42.7964 29.214 43.5562 29.7766 44.1081 30.5194C44.6601 31.2623 44.9794 32.1522 45.0256 33.0765C45.0719 34.0008 44.843 34.9181 44.368 35.7123C43.893 36.5066 43.1931 37.1422 42.3569 37.5387C41.5207 37.9353 40.5856 38.0749 39.67 37.9401C38.7544 37.8053 37.8994 37.402 37.213 36.7812C36.5265 36.1605 36.0396 35.3501 35.8137 34.4527C35.5878 33.5552 35.633 32.6109 35.9438 31.7391C36.3615 30.5704 37.226 29.6153 38.3475 29.0836C39.4689 28.5518 40.7555 28.4868 41.9248 28.903Z" fill="white" stroke="#263238" stroke-linecap="round" stroke-linejoin="round"/>
<path d="M41.7454 29.3737C42.5213 29.6519 43.1974 30.1538 43.6883 30.8161C44.1791 31.4783 44.4628 32.2711 44.5034 33.0944C44.544 33.9177 44.3397 34.7346 43.9163 35.4419C43.493 36.1491 42.8695 36.7151 42.1247 37.0683C41.3799 37.4215 40.5472 37.5461 39.7316 37.4263C38.916 37.3066 38.1543 36.9478 37.5424 36.3954C36.9306 35.843 36.4962 35.1217 36.2941 34.3225C36.092 33.5234 36.1312 32.6823 36.4067 31.9054C36.5902 31.388 36.8741 30.912 37.2419 30.5046C37.6098 30.0972 38.0545 29.7664 38.5505 29.5312C39.0464 29.296 39.584 29.161 40.1322 29.134C40.6805 29.1069 41.2287 29.1884 41.7454 29.3737Z" fill="white" stroke="#263238" stroke-width="0.75" stroke-linecap="round" stroke-linejoin="round"/>
<path d="M40.0935 32.7401C40.1183 32.6679 40.1279 32.5913 40.1215 32.5153C40.1151 32.4392 40.093 32.3652 40.0565 32.2982C40.02 32.2311 39.97 32.1724 39.9096 32.1257C39.8492 32.079 39.7797 32.0453 39.7056 32.0269C39.1384 31.8267 38.4544 32.444 38.5503 33.4784C38.6463 34.5127 39.251 35.4011 39.422 35.2218C39.593 35.0424 39.7849 34.0623 39.9893 34.2333C40.1936 34.4043 39.7849 35.4011 39.6973 35.6555C39.6097 35.91 39.6973 36.3771 40.3021 36.3479C40.9068 36.3187 40.2061 36.1727 40.4606 35.4512C40.715 34.7296 40.9652 34.1999 41.0445 34.4168C41.1237 34.6337 41.1071 35.5846 41.4157 35.0257C41.7243 34.4669 42.4 32.4148 41.9621 32.4523C41.5241 32.4899 41.0612 33.324 41.0695 32.8486C41.0779 32.3731 40.9944 31.8684 41.1488 31.5973C41.3031 31.3262 40.9319 30.7048 40.6524 31.0384C40.373 31.3721 40.4647 32.1562 40.0935 32.7401Z" stroke="#263238" stroke-width="0.75" stroke-linecap="round" stroke-linejoin="round"/>
<path d="M37.9584 32.1396C37.9584 32.1396 36.29 32.2981 37.1242 32.49C37.9584 32.6819 38.6674 32.5526 37.9584 32.1396Z" stroke="#263238" stroke-width="0.75" stroke-linecap="round" stroke-linejoin="round"/>
<path d="M37.9792 33.9961C37.9792 33.9961 36.4569 34.6718 37.3161 34.5884C38.1753 34.5049 38.78 34.1629 37.9792 33.9961Z" stroke="#263238" stroke-width="0.75" stroke-linecap="round" stroke-linejoin="round"/>
<path d="M39.1385 30.7343C39.1385 30.7343 38.3878 29.2454 39.0009 29.8543C39.614 30.4632 39.8643 31.1264 39.1385 30.7343Z" stroke="#263238" stroke-width="0.75" stroke-linecap="round" stroke-linejoin="round"/>
<path d="M41.7036 31.0727C41.7036 31.0727 42.1207 29.4669 42.1874 30.3261C42.2542 31.1853 41.9914 31.8401 41.7036 31.0727Z" stroke="#263238" stroke-width="0.75" stroke-linecap="round" stroke-linejoin="round"/>
<path d="M42.6256 32.0984C42.6256 32.0984 43.7893 30.9097 43.4098 31.6813C43.0302 32.4529 42.5005 32.9076 42.6256 32.0984Z" stroke="#263238" stroke-width="0.75" stroke-linecap="round" stroke-linejoin="round"/>
<path d="M43.5929 33.6128C43.5929 33.6128 41.9245 33.5294 42.7295 33.838C43.5345 34.1467 44.2226 34.1217 43.5929 33.6128Z" stroke="#263238" stroke-width="0.75" stroke-linecap="round" stroke-linejoin="round"/>
<path d="M42.1209 35.4439C42.1209 35.4439 43.1636 36.741 42.8633 35.936C42.563 35.131 42.0792 34.6264 42.1209 35.4439Z" stroke="#263238" stroke-width="0.75" stroke-linecap="round" stroke-linejoin="round"/>
<path d="M23.2314 16.2904C23.2314 16.2904 20.9499 15.2227 19.657 15.2227C18.364 15.2227 16.6123 15.9859 15.3944 18.722C14.1765 21.4581 13.4925 24.1441 14.7103 26.4839C15.9282 28.8238 18.2097 29.904 19.657 29.5995C21.1042 29.2951 22.5473 26.8635 23.7652 22.6801C24.9831 18.4968 24.2949 16.8993 23.2314 16.2904Z" fill="white" stroke="#263238" stroke-linecap="round" stroke-linejoin="round"/>
<path d="M15.394 18.722C14.1803 21.4622 13.4921 24.1441 14.71 26.4839C15.0766 27.2472 15.6067 27.9205 16.2626 28.4561C16.9185 28.9916 17.6843 29.3763 18.5055 29.5828C18.3417 29.4674 18.1654 29.3708 17.9799 29.2951C17.2208 28.9906 16.0822 27.852 15.6985 24.8865C15.3148 21.921 16.9164 19.2559 18.6681 17.2038C20.4199 15.1518 23.231 16.2904 23.231 16.2904C23.231 16.2904 20.9496 15.2227 19.6566 15.2227C18.3637 15.2227 16.6119 15.9859 15.394 18.722Z" fill="white" stroke="#263238" stroke-linecap="round" stroke-linejoin="round"/>
<path d="M20.1989 22.2302C20.1989 22.2302 19.469 17.2252 19.7276 17.0626C19.9862 16.8999 21.1373 16.0199 21.2416 16.854C21.3458 17.6882 20.1989 22.2302 20.1989 22.2302Z" fill="#92E3A9"/>
<path d="M19.7819 22.4873C19.7819 22.4873 19.6776 17.2695 18.9853 17.8451C18.2929 18.4207 17.2127 19.4634 17.5755 19.6177C17.9384 19.7721 19.7819 22.4873 19.7819 22.4873Z" fill="#92E3A9"/>
<path d="M19.7817 22.4896C19.7817 22.4896 17.5378 20.0914 17.225 20.1957C16.9122 20.3 16.6494 21.497 16.6494 22.0726C16.6494 22.6481 19.7817 22.4896 19.7817 22.4896Z" fill="#92E3A9"/>
<path d="M19.7817 22.4883C19.7817 22.4883 16.8079 22.8011 16.4951 23.2724C16.1822 23.7437 16.078 25.412 16.3366 25.6206C16.5952 25.8291 19.7817 22.4883 19.7817 22.4883Z" fill="#92E3A9"/>
<path d="M19.7818 22.4883C19.7818 22.4883 16.7037 25.7749 16.7538 26.242C16.8038 26.7092 17.5379 28.3275 18.3178 27.9104C19.0978 27.4933 19.7818 22.4883 19.7818 22.4883Z" fill="#92E3A9"/>
<path d="M21.8673 16.5537L20.199 22.2427C20.199 22.2427 22.739 19.515 23.1561 18.1053C23.5732 16.6955 21.8673 16.5537 21.8673 16.5537Z" fill="#92E3A9"/>
<path d="M19.9903 22.8555C19.9903 22.8555 18.4763 28.019 18.9476 28.386C19.4189 28.753 20.1989 28.753 20.7703 27.9689C21.3417 27.1848 19.9903 22.8555 19.9903 22.8555Z" fill="#92E3A9"/>
<path d="M20.199 22.2305C20.199 22.2305 21.2959 26.9268 21.5044 27.1854C21.713 27.444 22.5972 25.7256 22.4429 24.7872C22.2886 23.8488 20.199 22.2305 20.199 22.2305Z" fill="#92E3A9"/>
<path d="M22.7389 24.0611C22.7389 24.0611 23.6272 22.0758 23.6773 21.2416C23.7273 20.4074 20.1821 22.2343 20.1821 22.2343C21.1781 22.6116 22.0591 23.2411 22.7389 24.0611Z" fill="#92E3A9"/>
<path d="M21.0706 21.5584C21.0706 21.5584 23.5731 18.009 23.6773 18.5846C23.7816 19.1602 23.9901 20.0986 23.8358 20.3572C23.6815 20.6158 21.0706 21.5584 21.0706 21.5584Z" fill="#92E3A9"/>
<path d="M27.5602 12.5333C27.5602 12.5333 25.2788 11.4697 23.9858 11.4697C22.6928 11.4697 20.9453 12.2288 19.7274 14.9691C18.5095 17.7093 17.8255 20.3661 19.0434 22.7268C20.2612 25.0875 22.5427 26.1469 23.99 25.8466C25.4372 25.5463 26.8804 23.1064 28.0982 18.923C29.3161 14.7397 28.6279 13.1422 27.5602 12.5333Z" fill="white" stroke="#263238" stroke-linecap="round" stroke-linejoin="round"/>
<path d="M19.7274 14.9691C18.5095 17.7051 17.8255 20.3661 19.0434 22.7268C19.4102 23.4904 19.9403 24.1641 20.5961 24.7003C21.2519 25.2365 22.0176 25.6221 22.8388 25.8299C22.6759 25.7131 22.4995 25.6164 22.3133 25.5421C21.5542 25.2377 20.4114 24.0948 20.0318 21.1294C19.6523 18.1639 21.2497 15.4988 22.9973 13.4467C24.7449 11.3947 27.5602 12.5333 27.5602 12.5333C27.5602 12.5333 25.2788 11.4697 23.9858 11.4697C22.6928 11.4697 20.9453 12.2288 19.7274 14.9691Z" fill="white" stroke="#263238" stroke-linecap="round" stroke-linejoin="round"/>
<path d="M24.5281 18.4724C24.5281 18.4724 23.7982 13.4674 24.061 13.3048C24.3237 13.1421 25.4665 12.262 25.575 13.0962C25.6834 13.9304 24.5281 18.4724 24.5281 18.4724Z" fill="#92E3A9"/>
<path d="M24.111 18.7304C24.111 18.7304 24.0067 13.5127 23.331 14.0883C22.6553 14.6639 21.5542 15.7191 21.9046 15.8609C22.2549 16.0027 24.111 18.7304 24.111 18.7304Z" fill="#92E3A9"/>
<path d="M24.1111 18.7309C24.1111 18.7309 21.8672 16.3326 21.5543 16.4369C21.2415 16.5412 20.9788 17.7424 20.9788 18.3138C20.9788 18.8852 24.1111 18.7309 24.1111 18.7309Z" fill="#92E3A9"/>
<path d="M24.1113 18.7305C24.1113 18.7305 21.1375 19.0433 20.8246 19.5146C20.5118 19.9859 20.4076 21.6542 20.6662 21.8628C20.9247 22.0713 24.1113 18.7305 24.1113 18.7305Z" fill="#92E3A9"/>
<path d="M24.1112 18.7305C24.1112 18.7305 21.0332 22.0213 21.0874 22.4842C21.1416 22.9472 21.8673 24.5696 22.6514 24.1526C23.4356 23.7355 24.1112 18.7305 24.1112 18.7305Z" fill="#92E3A9"/>
<path d="M26.2008 12.7998L24.5325 18.4888C24.5325 18.4888 27.0892 15.7736 27.5063 14.3639C27.9234 12.9541 26.2008 12.7998 26.2008 12.7998Z" fill="#92E3A9"/>
<path d="M36.0856 11.9248C35.7714 12.7489 35.692 13.6441 35.8562 14.5107C36.1607 15.8036 36.315 16.033 36.315 17.2509C36.3575 18.1768 36.147 19.0967 35.7061 19.9119C35.3524 20.6901 34.9191 21.4295 34.4131 22.1183C33.6498 23.1068 34.9428 22.6522 33.1202 23.7866C31.2975 24.9211 30.7595 25.6134 30.7595 25.9179C30.7595 26.2224 29.6959 27.361 32.1317 27.286C34.5674 27.2109 37.683 23.1777 38.2169 21.2007C38.7508 19.2237 39.2805 14.9444 38.5214 13.518C37.7623 12.0916 36.9198 11.3909 36.0856 11.9248Z" fill="#A6A6A6" stroke="#263238" stroke-linecap="round" stroke-linejoin="round"/>
<path d="M36.69 8.80418C36.8126 8.36204 36.7985 7.89314 36.6496 7.45914C36.5008 7.02514 36.224 6.64635 35.8558 6.37258C34.5629 5.45917 32.052 6.44766 30.4546 8.57896C28.8571 10.7103 28.9948 11.6195 28.6277 12.3828C28.2607 13.146 22.3131 22.5012 20.7032 26.305C19.0932 30.1088 17.5834 32.3903 18.0422 35.8979C18.501 39.4056 18.8013 42.5171 21.6166 44.419C24.4319 46.3209 24.1191 45.9371 24.4319 46.3167C24.7447 46.6962 25.0408 46.6212 26.6383 45.9371C28.2357 45.2531 30.2127 45.6327 31.9602 44.494C33.7078 43.3554 35.6139 41.9915 36.4481 40.3858C38.1713 37.3609 39.5254 34.1403 40.4813 30.7928C41.7742 26.0756 42.4582 21.6629 42.5333 20.2198C42.6084 18.7767 43.7512 15.2773 43.8263 13.6799C43.9014 12.0825 44.1307 11.778 42.4582 9.95116C40.7857 8.12433 39.2634 8.80835 38.5794 9.49237C37.8954 10.1764 36.0769 10.7103 36.0769 11.9281C36.0769 13.146 37.4449 14.2847 37.6743 16.491C37.8931 18.184 37.6837 19.9049 37.0654 21.496C36.4 22.7972 35.5578 24 34.5629 25.0704C33.7287 25.9046 31.7475 26.5928 31.5223 25.9046C31.0936 24.3626 30.8143 22.7829 30.6881 21.1874C30.6882 19.5903 31.1113 18.0217 31.9144 16.6412C32.9779 14.6642 33.9664 13.3712 34.7297 12.0783C35.4929 10.7853 36.006 10.9355 36.69 8.80418Z" fill="#D1D1D1" stroke="#263238" stroke-linecap="round" stroke-linejoin="round"/>
<path d="M27.56 44.5568C26.521 44.529 25.4869 44.7106 24.5195 45.0906C23.6855 44.6313 22.8953 44.0966 22.1588 43.4932C21.3246 42.7299 18.8889 39.5351 19.1182 34.8971C19.3476 30.2591 22.7677 23.4106 23.6061 21.9675C24.4444 20.5244 27.8645 15.5027 28.7779 14.0429C29.6913 12.5831 29.7664 11.9867 30.0709 10.3142C30.2669 9.24229 31.5557 7.69908 32.4566 6.73145C31.6782 7.21132 30.9975 7.83397 30.4504 8.56661C28.853 10.7146 28.9948 11.6197 28.6278 12.3829C28.2607 13.1462 22.3131 22.5014 20.7032 26.3052C19.0932 30.109 17.5834 32.3904 18.0422 35.8981C18.501 39.4058 18.8013 42.5172 21.6166 44.4191C24.4319 46.321 24.1191 45.9373 24.4319 46.3169C24.7447 46.6964 25.0408 46.6213 26.6383 45.9373C28.2357 45.2533 30.2127 45.6328 31.9602 44.4942C33.7078 43.3556 35.6139 41.9917 36.4481 40.3859C35.8391 40.7655 33.1114 42.438 31.7309 43.3514C30.3503 44.2648 29.4619 44.5568 27.56 44.5568Z" fill="#263238" stroke="#263238" stroke-linecap="round" stroke-linejoin="round"/>
<path d="M25.6836 34.3418C26.197 34.473 26.7263 34.532 27.256 34.517" stroke="#263238" stroke-linecap="round" stroke-linejoin="round"/>
<path d="M21.3998 29.041C21.3998 29.041 21.3247 31.6269 23.2266 33.1451C23.6943 33.5202 24.2142 33.8251 24.7698 34.0502" stroke="#263238" stroke-linecap="round" stroke-linejoin="round"/>
<path d="M20.7158 34.5176C20.7158 34.5176 22.6928 35.2016 24.2152 35.6562C25.7375 36.1108 26.4966 35.8856 26.4966 35.8856" stroke="#263238" stroke-linecap="round" stroke-linejoin="round"/>
<path d="M23.9233 38.0708C24.6101 38.1208 25.3004 38.0502 25.9629 37.8623" stroke="#263238" stroke-linecap="round" stroke-linejoin="round"/>
<path d="M20.4116 37.4072C21.2869 37.6813 22.1842 37.8794 23.0935 37.9995" stroke="#263238" stroke-linecap="round" stroke-linejoin="round"/>
<path d="M28.0942 38.8506C28.0942 38.8506 31.6687 41.057 33.875 40.7525" stroke="#263238" stroke-linecap="round" stroke-linejoin="round"/>
<path d="M29.3123 36.799C29.3123 36.799 32.2777 38.3213 35.2432 37.2536C38.2087 36.1858 38.8218 34.1338 38.8218 34.1338" stroke="#263238" stroke-linecap="round" stroke-linejoin="round"/>
<path d="M37.6746 32.7032C37.9348 32.4071 38.1422 32.0685 38.2877 31.7021" stroke="#263238" stroke-linecap="round" stroke-linejoin="round"/>
<path d="M29.5413 34.9045C31.3311 35.516 33.2852 35.4341 35.0176 34.6751C35.6089 34.4023 36.1684 34.0652 36.6859 33.6699" stroke="#263238" stroke-linecap="round" stroke-linejoin="round"/>
<path d="M29.5414 22.1172C29.5414 22.1172 25.8127 22.3466 23.6814 25.0076" stroke="#263238" stroke-linecap="round" stroke-linejoin="round"/>
<path d="M27.469 20.6987C28.26 20.3949 29.0827 20.1809 29.9214 20.0605" stroke="#263238" stroke-linecap="round" stroke-linejoin="round"/>
<path d="M24.8994 21.8882C25.414 21.5974 25.943 21.3329 26.4843 21.0957" stroke="#263238" stroke-linecap="round" stroke-linejoin="round"/>
<path d="M27.7896 17.4759C28.8721 17.1641 29.9706 16.9107 31.0803 16.7168" stroke="#263238" stroke-linecap="round" stroke-linejoin="round"/>
<path d="M32.7866 12.716C33.0218 12.6869 33.2588 12.6758 33.4957 12.6826" stroke="#263238" stroke-linecap="round" stroke-linejoin="round"/>
<path d="M29.3872 13.6761C30.0329 13.416 30.6929 13.1932 31.3642 13.0088" stroke="#263238" stroke-linecap="round" stroke-linejoin="round"/>
<path d="M39.4221 14.2051C39.4221 14.2051 41.7077 15.3479 42.2374 16.9453" stroke="#263238" stroke-linecap="round" stroke-linejoin="round"/>
<path d="M39.3511 17.7793C39.3511 17.7793 42.0162 19.3017 42.1664 21.508" stroke="#263238" stroke-linecap="round" stroke-linejoin="round"/>
<path d="M38.2129 23.79C38.2129 23.79 40.34 25.4584 39.8812 29.0411" stroke="#263238" stroke-linecap="round" stroke-linejoin="round"/>
<path d="M30.3006 27.2139C30.0181 27.3804 29.7938 27.6299 29.658 27.9283C29.5222 28.2268 29.4815 28.5598 29.5415 28.8822C29.6916 30.1001 29.921 30.1752 29.6917 30.5505C28.8622 32.5935 28.1506 34.6823 27.5603 36.8068C27.3195 37.9884 26.9372 39.1367 26.4217 40.2269C26.024 41.0458 25.766 41.9255 25.6584 42.8295" stroke="#263238" stroke-linecap="round" stroke-linejoin="round"/>
<path d="M32.432 28.5068C32.432 28.5068 32.3527 30.1043 31.7438 30.2544C31.2951 30.3861 30.8617 30.5651 30.4508 30.7883L29.9211 32.8403" stroke="#263238" stroke-linecap="round" stroke-linejoin="round"/>
<path d="M28.853 25.767C28.853 25.767 26.2671 25.6168 24.5195 28.5072" stroke="#263238" stroke-linecap="round" stroke-linejoin="round"/>
</svg>
