<svg width="173" height="173" viewBox="0 0 173 173" fill="none" xmlns="http://www.w3.org/2000/svg">
<path d="M93.2504 15.9194L94.5825 16.4211L93.4269 16.7498C93.0393 16.8606 92.7349 17.1547 92.6103 17.5353L92.1916 18.8155L91.6761 17.5318C91.5481 17.2135 91.292 16.9644 90.9703 16.8467L89.8008 16.4211L91.0671 15.9021C91.3751 15.7776 91.6138 15.5285 91.7349 15.2205L92.1916 14.0303L92.5203 15.1375C92.6276 15.5008 92.8975 15.7914 93.2504 15.9229V15.9194Z" fill="#E0E0E0"/>
<path d="M130.961 48.3916L132.293 48.8933L131.138 49.222C130.75 49.3327 130.446 49.6268 130.321 50.0074L129.902 51.2876L129.387 50.004C129.259 49.6856 129.003 49.4365 128.681 49.3189L127.511 48.8933L128.778 48.3743C129.086 48.2497 129.325 48.0006 129.446 47.6927L129.902 46.5024L130.231 47.6096C130.338 47.9729 130.608 48.2636 130.961 48.3951V48.3916Z" fill="#E0E0E0"/>
<path d="M136.019 92.6797L137.352 93.1814L136.196 93.5101C135.808 93.6208 135.504 93.9149 135.379 94.2955L134.961 95.5757L134.445 94.292C134.317 93.9737 134.061 93.7246 133.739 93.607L132.57 93.1814L133.836 92.6624C134.144 92.5378 134.383 92.2887 134.504 91.9808L134.961 90.7905L135.289 91.8977C135.397 92.261 135.667 92.5517 136.019 92.6831V92.6797Z" fill="#E0E0E0"/>
<path d="M120.865 77.7115L121.775 78.0541L120.982 78.279C120.719 78.3551 120.508 78.5558 120.422 78.8153L120.135 79.6906L119.782 78.8118C119.695 78.5938 119.519 78.4243 119.297 78.3447L118.498 78.0541L119.363 77.6977C119.574 77.6112 119.737 77.4416 119.82 77.2306L120.135 76.4175L120.36 77.1752C120.432 77.4243 120.619 77.6216 120.861 77.7115H120.865Z" fill="#E0E0E0"/>
<path d="M52.8168 79.3482L53.7268 79.6908L52.9345 79.9157C52.6715 79.9918 52.4605 80.1925 52.374 80.452L52.0868 81.3274L51.7339 80.4485C51.6474 80.2305 51.4709 80.061 51.2495 79.9814L50.4502 79.6908L51.3152 79.3344C51.5263 79.2479 51.6889 79.0784 51.7719 78.8673L52.0868 78.0542L52.3117 78.8119C52.3843 79.0611 52.5712 79.2583 52.8134 79.3482H52.8168Z" fill="#E0E0E0"/>
<path d="M38.9526 102.534L39.8626 102.876L39.0702 103.101C38.8073 103.177 38.5962 103.378 38.5097 103.638L38.2225 104.513L37.8696 103.634C37.7831 103.416 37.6066 103.247 37.3852 103.167L36.5859 102.876L37.4544 102.52C37.6655 102.433 37.8281 102.264 37.9111 102.053L38.226 101.24L38.4509 101.997C38.5235 102.247 38.7104 102.444 38.9526 102.534Z" fill="#E0E0E0"/>
<path d="M53.08 11.1377L54.4121 11.6394L53.2564 11.9681C52.8689 12.0788 52.5644 12.3729 52.4399 12.7535L52.0212 14.0337L51.5057 12.7501C51.3777 12.4317 51.1216 12.1826 50.7999 12.065L49.6304 11.6394L50.8967 11.1204C51.2047 10.9958 51.4434 10.7467 51.5645 10.4388L52.0212 9.24854L52.3499 10.3557C52.4572 10.719 52.7271 11.0097 53.08 11.1412V11.1377Z" fill="#E0E0E0"/>
<path d="M150.448 66.0308L151.78 66.5325L150.624 66.8612C150.237 66.9719 149.932 67.266 149.808 67.6466L149.389 68.9268L148.873 67.6431C148.745 67.3248 148.489 67.0757 148.168 66.958L146.998 66.5325L148.264 66.0135C148.572 65.8889 148.811 65.6398 148.932 65.3318L149.389 64.1416L149.718 65.2488C149.825 65.6121 150.095 65.9027 150.448 66.0342V66.0308Z" fill="#E0E0E0"/>
<path d="M146.739 135.355L148.071 135.857L146.915 136.185C146.528 136.296 146.223 136.59 146.099 136.971L145.68 138.251L145.164 136.967C145.036 136.649 144.78 136.4 144.459 136.282L143.289 135.857L144.555 135.338C144.863 135.213 145.102 134.964 145.223 134.656L145.68 133.466L146.009 134.573C146.116 134.936 146.386 135.227 146.739 135.358V135.355Z" fill="#E0E0E0"/>
<path d="M44.4333 144.15L45.7654 144.652L44.6097 144.981C44.2222 145.092 43.9177 145.386 43.7932 145.766L43.3745 147.046L42.859 145.763C42.7309 145.444 42.4749 145.195 42.1531 145.078L40.9836 144.652L42.25 144.133C42.5579 144.009 42.7967 143.759 42.9178 143.451L43.3745 142.261L43.7032 143.368C43.8105 143.732 44.0803 144.022 44.4333 144.154V144.15Z" fill="#E0E0E0"/>
<path d="M37.6484 61.8335L38.9805 62.3352L37.8248 62.6639C37.4373 62.7746 37.1328 63.0687 37.0083 63.4493L36.5896 64.7295L36.0741 63.4459C35.946 63.1275 35.69 62.8784 35.3682 62.7608L34.1987 62.3352L35.4651 61.8162C35.773 61.6916 36.0118 61.4425 36.1329 61.1346L36.5896 59.9443L36.9183 61.0515C37.0256 61.4148 37.2954 61.7055 37.6484 61.837V61.8335Z" fill="#E0E0E0"/>
<path d="M17.9989 99.5269L19.331 100.029L18.1754 100.357C17.7879 100.468 17.4834 100.762 17.3588 101.143L16.9402 102.423L16.4246 101.139C16.2966 100.821 16.0406 100.572 15.7188 100.454L14.5493 100.029L15.8157 99.5096C16.1236 99.385 16.3624 99.1359 16.4835 98.8279L16.9402 97.6377L17.2689 98.7449C17.3761 99.1082 17.646 99.3988 17.9989 99.5303V99.5269Z" fill="#E0E0E0"/>
<path d="M106.447 34.178L106.949 34.3683L106.513 34.4929C106.367 34.5344 106.253 34.6451 106.205 34.787L106.046 35.2679L105.852 34.7835C105.803 34.6624 105.707 34.569 105.585 34.5275L105.146 34.3683L105.623 34.1711C105.738 34.1227 105.831 34.0293 105.876 33.9151L106.049 33.4688L106.174 33.8839C106.215 34.0189 106.315 34.1296 106.45 34.178H106.447Z" fill="#E0E0E0"/>
<path d="M116.087 56.6019L116.588 56.7922L116.152 56.9167C116.007 56.9583 115.893 57.069 115.844 57.2108L115.685 57.6918L115.491 57.2074C115.443 57.0863 115.346 56.9929 115.225 56.9513L114.786 56.7922L115.263 56.595C115.377 56.5465 115.471 56.4531 115.516 56.3389L115.689 55.8926L115.813 56.3078C115.855 56.4427 115.955 56.5534 116.09 56.6019H116.087Z" fill="#E0E0E0"/>
<path d="M29.2094 81.4071L29.7111 81.5974L29.2751 81.7219C29.1298 81.7634 29.0156 81.8742 28.9672 82.016L28.808 82.497L28.6143 82.0126C28.5658 81.8915 28.469 81.798 28.3479 81.7565L27.9084 81.5974L28.3859 81.4001C28.5001 81.3517 28.5935 81.2583 28.6385 81.1441L28.8115 80.6978L28.9361 81.113C28.9776 81.2479 29.0779 81.3586 29.2129 81.4071H29.2094Z" fill="#E0E0E0"/>
<path d="M28.7907 126.999L29.8979 127.414L28.936 127.688C28.6142 127.778 28.3617 128.023 28.2579 128.338L27.9119 129.4L27.4828 128.335C27.3756 128.072 27.1645 127.864 26.8946 127.767L25.9224 127.414L26.9742 126.982C27.2302 126.878 27.4309 126.674 27.5278 126.414L27.9084 125.425L28.1817 126.345C28.2717 126.646 28.4966 126.888 28.7907 126.999Z" fill="#E0E0E0"/>
<path d="M114.052 22.2754L114.785 22.5522L114.149 22.7322C113.934 22.791 113.768 22.9536 113.699 23.1647L113.467 23.8705L113.184 23.1612C113.114 22.9847 112.972 22.8498 112.793 22.7841L112.146 22.5488L112.844 22.2616C113.014 22.1924 113.145 22.0575 113.211 21.8845L113.464 21.2271L113.644 21.836C113.703 22.0367 113.851 22.1959 114.049 22.2685L114.052 22.2754Z" fill="#E0E0E0"/>
<path d="M40.1291 39.3887L40.8626 39.6655L40.226 39.8454C40.0115 39.9043 39.8454 40.0669 39.7762 40.2779L39.5444 40.9838L39.2607 40.2745C39.1915 40.098 39.0496 39.9631 38.8697 39.8973L38.2227 39.6621L38.9216 39.3749C39.0911 39.3057 39.2226 39.1707 39.2883 38.9977L39.5409 38.3403L39.7208 38.9493C39.7797 39.15 39.9284 39.3091 40.1257 39.3818L40.1291 39.3887Z" fill="#E0E0E0"/>
<path d="M148.655 111.817L149.389 112.094L148.752 112.274C148.538 112.332 148.372 112.495 148.303 112.706L148.071 113.412L147.787 112.703C147.718 112.526 147.576 112.391 147.396 112.326L146.749 112.09L147.448 111.803C147.617 111.734 147.749 111.599 147.815 111.426L148.067 110.769L148.247 111.378C148.306 111.578 148.455 111.737 148.652 111.81L148.655 111.817Z" fill="#E0E0E0"/>
<path d="M127.252 150.313L127.985 150.589L127.349 150.769C127.134 150.828 126.968 150.991 126.899 151.202L126.667 151.908L126.383 151.198C126.314 151.022 126.172 150.887 125.992 150.821L125.345 150.586L126.044 150.299C126.214 150.23 126.345 150.095 126.411 149.922L126.664 149.264L126.844 149.873C126.902 150.074 127.051 150.233 127.248 150.306L127.252 150.313Z" fill="#E0E0E0"/>
<path d="M108.499 86.7249C93.2539 86.583 79.4554 86.455 69.456 86.3581C64.4667 86.3339 60.4288 86.3166 57.6228 86.3027C56.2319 86.3027 55.1523 86.3097 54.405 86.3097C54.0451 86.3131 53.7683 86.3166 53.5677 86.32C53.3808 86.3235 53.2839 86.3304 53.2839 86.3339C53.2839 86.3373 53.3808 86.3443 53.5677 86.3512C53.7649 86.3546 54.0451 86.3616 54.405 86.3719C55.1523 86.3823 56.2319 86.3927 57.6228 86.41C60.4288 86.4238 64.4667 86.4446 69.456 86.4723C79.4554 86.4792 93.2539 86.4861 108.502 86.4965C123.74 86.4965 137.542 86.5138 147.531 86.5865C152.527 86.6211 156.568 86.666 159.361 86.7214C160.758 86.7491 161.841 86.7733 162.578 86.8044C163.315 86.8321 163.699 86.8598 163.699 86.8875C163.699 86.9152 163.312 86.9394 162.578 86.9601C161.841 86.9809 160.758 86.9982 159.361 87.0086C156.565 87.0328 152.524 87.0397 147.527 87.0224C137.538 86.9947 123.74 86.8771 108.499 86.7214V86.7249Z" fill="#EBEBEB"/>
<path d="M108.194 90.067C93.1571 87.6208 79.549 85.4098 69.6845 83.8079C64.7609 83.0328 60.775 82.4031 58.0035 81.9671C56.6299 81.7595 55.5608 81.6004 54.8238 81.4897C54.4674 81.4412 54.1906 81.4032 53.9969 81.3755C53.81 81.3513 53.7131 81.3409 53.7131 81.3478C53.7131 81.3547 53.8066 81.3755 53.9899 81.4101C54.1872 81.4447 54.457 81.4931 54.8134 81.5554C55.5504 81.6765 56.6161 81.853 57.9862 82.0813C60.7542 82.5207 64.7402 83.1505 69.6637 83.9324C79.542 85.4479 93.171 87.5377 108.232 89.849C123.287 92.1465 136.916 94.2501 146.773 95.8279C151.7 96.6168 155.686 97.2742 158.44 97.7482C159.817 97.9869 160.883 98.1772 161.606 98.3156C162.329 98.454 162.707 98.5405 162.7 98.5682C162.696 98.5959 162.309 98.5613 161.579 98.4713C160.849 98.3814 159.773 98.2326 158.392 98.0354C155.627 97.6375 151.635 97.032 146.701 96.2639C136.836 94.7276 123.225 92.5271 108.194 90.0705V90.067Z" fill="#EBEBEB"/>
<path d="M107.357 93.3228C92.9045 88.6068 79.8223 84.3372 70.3419 81.2439C65.6051 79.725 61.768 78.4932 59.1073 77.6386C57.7855 77.2234 56.7545 76.9016 56.0452 76.6802C55.7026 76.5764 55.4362 76.4968 55.2459 76.4415C55.066 76.3896 54.9726 76.3653 54.9691 76.3723C54.9656 76.3792 55.0556 76.4138 55.2355 76.4761C55.4224 76.5418 55.6853 76.6283 56.0244 76.7459C56.7302 76.9778 57.7544 77.3168 59.0692 77.7493C61.7334 78.6074 65.5671 79.8392 70.3003 81.3616C79.8119 84.3683 92.9288 88.5203 107.426 93.1048C121.92 97.6789 135.04 101.838 144.517 104.907C149.258 106.44 153.088 107.699 155.728 108.588C157.046 109.035 158.07 109.384 158.762 109.633C159.454 109.882 159.811 110.024 159.8 110.052C159.79 110.08 159.416 109.986 158.71 109.785C158.004 109.585 156.966 109.277 155.634 108.869C152.97 108.052 149.123 106.844 144.375 105.332C134.885 102.305 121.799 98.0457 107.353 93.3228H107.357Z" fill="#EBEBEB"/>
<path d="M106.001 96.406C92.4894 89.5379 80.2652 83.3237 71.4007 78.8188C66.9684 76.594 63.3804 74.7914 60.8892 73.5388C59.6505 72.9264 58.6852 72.4524 58.0209 72.1237C57.6991 71.968 57.45 71.8504 57.27 71.7639C57.1005 71.6843 57.0105 71.6462 57.0071 71.6531C57.0071 71.6601 57.0867 71.705 57.2527 71.795C57.4257 71.8884 57.6714 72.0164 57.9897 72.1825C58.6506 72.5216 59.6055 73.0095 60.8373 73.6392C63.3285 74.8917 66.9131 76.6978 71.3453 78.9261C80.2479 83.3514 92.5344 89.4583 106.108 96.2053C119.682 102.938 131.961 109.056 140.826 113.536C145.258 115.775 148.835 117.602 151.299 118.886C152.531 119.526 153.482 120.031 154.126 120.38C154.766 120.73 155.098 120.927 155.084 120.951C155.07 120.975 154.717 120.827 154.05 120.519C153.385 120.211 152.41 119.747 151.161 119.142C148.659 117.927 145.057 116.145 140.615 113.924C131.729 109.481 119.498 103.278 105.997 96.4025L106.001 96.406Z" fill="#EBEBEB"/>
<path d="M104.163 99.2464C91.9217 90.413 80.8463 82.417 72.8191 76.6215C68.7985 73.7497 65.5461 71.4246 63.2868 69.8087C62.1623 69.0164 61.2869 68.4005 60.6814 67.9749C60.3873 67.7743 60.1589 67.6186 59.9963 67.5044C59.8406 67.4006 59.761 67.3487 59.7576 67.3556C59.7576 67.3591 59.8268 67.4213 59.9755 67.5321C60.1347 67.6497 60.3527 67.8123 60.6399 68.0268C61.2384 68.4628 62.1034 69.0891 63.2176 69.8987C65.4769 71.5145 68.7293 73.8431 72.7464 76.7149C80.829 82.4377 91.9806 90.3369 104.302 99.063C116.626 107.775 127.771 115.681 135.805 121.453C139.822 124.338 143.064 126.688 145.289 128.328C146.403 129.148 147.261 129.791 147.839 130.234C148.417 130.677 148.711 130.923 148.693 130.943C148.676 130.964 148.351 130.764 147.742 130.359C147.133 129.954 146.247 129.348 145.109 128.56C142.836 126.982 139.562 124.674 135.532 121.806C127.47 116.069 116.387 108.083 104.16 99.243L104.163 99.2464Z" fill="#EBEBEB"/>
<path d="M101.894 101.772C91.2161 91.1951 81.5558 81.6213 74.5493 74.684C71.0374 71.2378 68.1967 68.4525 66.2211 66.5149C65.235 65.5634 64.4703 64.823 63.9409 64.3109C63.6814 64.0652 63.4842 63.8784 63.3423 63.7435C63.2074 63.6154 63.1347 63.5532 63.1278 63.5601C63.1244 63.5635 63.1866 63.6362 63.3147 63.7677C63.4531 63.9061 63.6434 64.1033 63.8925 64.3559C64.4149 64.8749 65.1692 65.6292 66.138 66.5945C68.1102 68.5321 70.9509 71.3209 74.4593 74.7705C81.5281 81.6455 91.2784 91.1328 102.056 101.617C112.834 112.087 122.581 121.581 129.591 128.497C133.099 131.954 135.923 134.763 137.86 136.722C138.829 137.701 139.577 138.466 140.075 138.992C140.573 139.517 140.826 139.801 140.808 139.822C140.788 139.839 140.497 139.594 139.964 139.102C139.428 138.611 138.649 137.877 137.653 136.926C135.66 135.023 132.795 132.248 129.273 128.805C122.228 121.92 112.557 112.353 101.894 101.776V101.772Z" fill="#EBEBEB"/>
<path d="M99.2501 103.928C90.396 91.8662 82.3826 80.9499 76.5768 73.0369C73.66 69.1029 71.2968 65.9197 69.6568 63.7088C68.8367 62.6188 68.1966 61.7711 67.7572 61.1864C67.5427 60.9061 67.3732 60.6916 67.2555 60.5359C67.1413 60.3906 67.0791 60.3179 67.0756 60.3214C67.0721 60.3214 67.124 60.4044 67.2278 60.5567C67.342 60.7158 67.4977 60.9373 67.7053 61.2245C68.1378 61.8161 68.7606 62.6742 69.5668 63.7745C71.2034 65.9854 73.5631 69.1721 76.4799 73.1096C82.3619 80.9707 90.4756 91.8143 99.4439 103.8C108.416 115.771 116.522 126.625 122.342 134.518C125.252 138.462 127.594 141.666 129.193 143.891C129.992 145.005 130.608 145.873 131.016 146.465C131.425 147.06 131.629 147.378 131.608 147.396C131.587 147.413 131.338 147.122 130.888 146.555C130.439 145.988 129.785 145.147 128.954 144.057C127.29 141.877 124.906 138.704 121.975 134.77C116.118 126.906 108.094 115.993 99.2536 103.928H99.2501Z" fill="#EBEBEB"/>
<path d="M96.2918 105.651C89.486 92.3919 83.3307 80.3892 78.8673 71.6908C76.6183 67.3623 74.7983 63.8573 73.5354 61.4249C72.8988 60.2243 72.404 59.2901 72.0649 58.6431C71.8954 58.3352 71.7674 58.0964 71.6739 57.9234C71.584 57.7608 71.5356 57.6812 71.5286 57.6847C71.5217 57.6847 71.5598 57.7746 71.6428 57.9407C71.7293 58.1137 71.8504 58.3594 72.0061 58.6742C72.3383 59.3247 72.8158 60.2658 73.4316 61.4768C74.6945 63.9092 76.511 67.4177 78.7566 71.7461C83.303 80.403 89.5725 92.3504 96.4994 105.547C103.437 118.733 109.696 130.687 114.177 139.365C116.419 143.704 118.214 147.223 119.436 149.665C120.048 150.887 120.515 151.838 120.823 152.489C121.131 153.139 121.28 153.485 121.256 153.496C121.232 153.509 121.031 153.184 120.678 152.558C120.325 151.932 119.816 151.001 119.169 149.797C117.875 147.389 116.031 143.894 113.772 139.566C109.253 130.905 103.084 118.909 96.2918 105.651Z" fill="#EBEBEB"/>
<path d="M93.0914 106.904C88.5173 92.7695 84.3791 79.9744 81.3793 70.7051C79.8604 66.086 78.6286 62.3492 77.774 59.7507C77.3415 58.4671 77.0024 57.4706 76.7706 56.7786C76.653 56.4464 76.563 56.1904 76.5007 56.0105C76.4384 55.8375 76.4038 55.751 76.3969 55.751C76.39 55.751 76.4142 55.8444 76.4661 56.0209C76.5215 56.2077 76.601 56.4637 76.7048 56.7994C76.9263 57.4914 77.2481 58.4948 77.6598 59.7853C78.511 62.3803 79.7393 66.1206 81.2547 70.7397C84.3411 79.9848 88.6003 92.7384 93.3059 106.834C98.0219 120.917 102.271 133.677 105.288 142.933C106.796 147.559 108.004 151.309 108.814 153.908C109.218 155.205 109.526 156.219 109.727 156.908C109.928 157.596 110.018 157.963 109.99 157.97C109.962 157.977 109.821 157.627 109.571 156.956C109.322 156.281 108.973 155.285 108.526 153.998C107.637 151.423 106.381 147.687 104.852 143.068C101.79 133.826 97.6413 121.034 93.081 106.904H93.0914Z" fill="#EBEBEB"/>
<path d="M89.7281 107.654C87.4999 92.994 85.4862 79.7283 84.0226 70.113C83.2683 65.3209 82.6594 61.4388 82.2372 58.7469C82.0158 57.4148 81.8463 56.3768 81.7286 55.6606C81.6663 55.3146 81.6214 55.0482 81.5868 54.8579C81.5522 54.6779 81.5314 54.5845 81.5279 54.588C81.521 54.588 81.5279 54.6814 81.5522 54.8648C81.5798 55.0551 81.6144 55.325 81.6629 55.671C81.7701 56.3906 81.9224 57.4286 82.1231 58.7642C82.5452 61.4595 83.1507 65.3382 83.9015 70.1338C85.4516 79.7353 87.5933 92.9836 89.96 107.623C92.337 122.252 94.4649 135.504 95.9492 145.105C96.6931 149.904 97.2744 153.793 97.655 156.485C97.8453 157.831 97.9872 158.876 98.0737 159.585C98.1602 160.294 98.1913 160.672 98.1636 160.675C98.1359 160.678 98.0494 160.312 97.9145 159.609C97.7796 158.907 97.5927 157.869 97.3609 156.53C96.9007 153.852 96.2641 149.97 95.5029 145.174C93.977 135.58 91.9495 122.314 89.7351 107.661L89.7281 107.654Z" fill="#EBEBEB"/>
<path d="M86.282 107.879C86.4204 93.0632 86.5449 79.6523 86.6349 69.9331C86.6556 65.0857 86.6729 61.1586 86.6833 58.4321C86.6799 57.0827 86.6764 56.0309 86.6729 55.3043C86.6695 54.9548 86.6626 54.6849 86.6626 54.4912C86.6591 54.3078 86.6522 54.2144 86.6453 54.2144C86.6383 54.2144 86.6349 54.3078 86.628 54.4912C86.6245 54.6849 86.6176 54.9548 86.6072 55.3043C86.5968 56.0309 86.5864 57.0792 86.5691 58.4321C86.5553 61.1586 86.538 65.0822 86.5138 69.9331C86.5138 79.6523 86.5138 93.0632 86.5138 107.879C86.5242 122.691 86.5138 136.102 86.4446 145.811C86.4134 150.665 86.3685 154.596 86.3131 157.309C86.2854 158.665 86.2577 159.72 86.2301 160.436C86.2024 161.153 86.1747 161.526 86.147 161.526C86.1193 161.526 86.0951 161.149 86.0744 160.436C86.0536 159.72 86.0363 158.668 86.0225 157.309C85.9948 154.592 85.9879 150.665 85.9982 145.807C86.019 136.099 86.1332 122.688 86.282 107.875V107.879Z" fill="#EBEBEB"/>
<path d="M82.8429 107.589C85.3479 92.9736 87.6177 79.746 89.2612 70.1583C90.057 65.3731 90.7005 61.4979 91.1469 58.8061C91.3579 57.4705 91.524 56.4325 91.6347 55.7163C91.6866 55.3703 91.7247 55.1039 91.7524 54.9101C91.7766 54.7267 91.787 54.6333 91.7801 54.6333C91.7731 54.6333 91.7524 54.7233 91.7178 54.9032C91.6832 55.0935 91.6313 55.3599 91.569 55.7024C91.4444 56.4187 91.2645 57.4532 91.0292 58.7853C90.5794 61.4772 89.9324 65.3489 89.1332 70.1376C87.5796 79.7391 85.4379 92.9874 83.0678 107.623C80.7115 122.256 78.5594 135.504 76.9401 145.085C76.1305 149.877 75.4592 153.748 74.9714 156.423C74.7292 157.759 74.532 158.797 74.3901 159.499C74.2482 160.201 74.1583 160.568 74.1306 160.561C74.1029 160.558 74.1375 160.181 74.2309 159.471C74.3244 158.762 74.4731 157.717 74.6773 156.375C75.0856 153.69 75.7049 149.804 76.4903 145.012C78.0646 135.424 80.3205 122.193 82.8394 107.585L82.8429 107.589Z" fill="#EBEBEB"/>
<path d="M79.4934 106.772C84.3374 92.7209 88.7213 80.0054 91.8975 70.7914C93.458 66.1862 94.7209 62.4598 95.5997 59.8682C96.0253 58.5811 96.354 57.5812 96.5824 56.8926C96.6896 56.557 96.7692 56.301 96.828 56.1141C96.8799 55.9377 96.9076 55.8477 96.9007 55.8442C96.8938 55.8442 96.8592 55.9307 96.7934 56.1003C96.7277 56.2837 96.6343 56.5362 96.5166 56.8684C96.2779 57.5569 95.9319 58.55 95.4856 59.8302C94.6067 62.4182 93.3404 66.1447 91.773 70.7499C88.6832 79.995 84.4205 92.7486 79.7114 106.841C75.0162 120.93 70.7431 133.684 67.591 142.898C66.0167 147.507 64.7227 151.23 63.8093 153.793C63.3525 155.077 62.9892 156.07 62.7367 156.741C62.4806 157.413 62.3353 157.762 62.3076 157.752C62.2799 157.745 62.3768 157.378 62.581 156.693C62.7886 156.008 63.1034 154.997 63.5221 153.703C64.3594 151.112 65.5981 147.372 67.1551 142.759C70.2622 133.532 74.6356 120.813 79.49 106.772H79.4934Z" fill="#EBEBEB"/>
<path d="M76.3172 105.457C83.3756 92.3229 89.7593 80.4343 94.3888 71.8189C96.6758 67.5112 98.527 64.0201 99.8141 61.5981C100.44 60.394 100.932 59.4563 101.267 58.8093C101.426 58.4944 101.548 58.2522 101.637 58.0792C101.721 57.9132 101.759 57.8267 101.752 57.8267C101.745 57.8267 101.696 57.9062 101.606 58.0654C101.513 58.2349 101.378 58.4737 101.208 58.7816C100.862 59.4252 100.357 60.3525 99.7103 61.5496C98.4231 63.9716 96.5686 67.4593 94.2781 71.767C89.7282 80.4239 83.4552 92.3644 76.5213 105.564C69.6013 118.761 63.3145 130.701 58.7127 139.317C56.4118 143.624 54.533 147.105 53.2148 149.499C52.5574 150.697 52.0384 151.624 51.6785 152.247C51.3187 152.869 51.118 153.191 51.0938 153.181C51.0696 153.167 51.2218 152.824 51.5367 152.177C51.8515 151.53 52.329 150.586 52.9518 149.368C54.1974 146.939 56.0278 143.434 58.3114 139.116C62.8751 130.48 69.2519 118.584 76.3172 105.46V105.457Z" fill="#EBEBEB"/>
<path d="M73.3971 103.675C82.4796 91.7726 90.7005 81.0051 96.6587 73.1959C99.61 69.2861 102.001 66.1236 103.662 63.9265C104.475 62.8332 105.108 61.982 105.547 61.3938C105.755 61.1066 105.914 60.8887 106.028 60.7295C106.136 60.5773 106.188 60.5011 106.184 60.4977C106.181 60.4942 106.118 60.5669 106.001 60.7122C105.88 60.8644 105.71 61.079 105.492 61.3592C105.046 61.9405 104.399 62.7813 103.568 63.8643C101.907 66.0614 99.5132 69.2238 96.5583 73.1301C90.6729 80.9878 82.5557 91.8314 73.5839 103.813C64.626 115.795 56.4984 126.632 50.5645 134.445C47.5993 138.351 45.1842 141.503 43.4958 143.666C42.6515 144.749 41.9907 145.586 41.5374 146.147C41.0807 146.707 40.8316 146.994 40.8073 146.98C40.7866 146.963 40.9907 146.645 41.4059 146.057C41.8211 145.465 42.4439 144.603 43.257 143.496C44.8798 141.285 47.2499 138.102 50.2012 134.185C56.0971 126.348 64.3111 115.57 73.3971 103.682V103.675Z" fill="#EBEBEB"/>
<path d="M70.7951 101.471C81.6733 91.0878 91.5135 81.6904 98.6481 74.8811C102.191 71.4661 105.056 68.7016 107.049 66.7847C108.028 65.8263 108.789 65.0824 109.315 64.5669C109.568 64.3143 109.758 64.1205 109.897 63.9821C110.028 63.8507 110.09 63.778 110.087 63.7746C110.083 63.7711 110.011 63.8334 109.872 63.9579C109.727 64.0929 109.526 64.2762 109.267 64.5184C108.734 65.0236 107.959 65.7606 106.966 66.7017C104.973 68.6185 102.105 71.3831 98.5581 74.7946C91.4859 81.6697 81.7321 91.1501 70.9542 101.63C60.1902 112.114 50.4226 121.591 43.3123 128.411C39.7589 131.822 36.8663 134.57 34.856 136.452C33.8492 137.393 33.0638 138.12 32.524 138.607C31.9842 139.092 31.6901 139.337 31.6694 139.32C31.6486 139.299 31.9047 139.019 32.4098 138.497C32.915 137.978 33.6693 137.217 34.6484 136.248C36.6033 134.31 39.4578 131.525 42.9974 128.099C50.0766 121.249 59.9134 111.841 70.7916 101.471H70.7951Z" fill="#EBEBEB"/>
<path d="M68.5772 98.9038C80.9847 90.2919 92.2124 82.4965 100.35 76.8463C104.395 74.0091 107.672 71.7117 109.945 70.1166C111.066 69.3174 111.938 68.698 112.54 68.269C112.827 68.0579 113.049 67.8953 113.208 67.7811C113.356 67.6704 113.433 67.6116 113.429 67.6047C113.429 67.6012 113.343 67.6496 113.187 67.7534C113.024 67.8642 112.796 68.0164 112.498 68.2171C111.889 68.6357 111.007 69.2447 109.876 70.0267C107.599 71.6217 104.322 73.9157 100.278 76.7494C92.1917 82.4723 81.0401 90.3645 68.7156 99.0872C56.4049 107.813 45.2429 115.699 37.1258 121.363C33.0672 124.193 29.7733 126.47 27.4827 128.027C26.3375 128.805 25.4448 129.404 24.8324 129.802C24.22 130.2 23.8913 130.397 23.8774 130.376C23.8601 130.355 24.1577 130.113 24.739 129.674C25.3202 129.234 26.1887 128.601 27.3097 127.791C29.5518 126.172 32.8146 123.85 36.8593 121.003C44.9488 115.304 56.1731 107.502 68.5772 98.9004V98.9038Z" fill="#EBEBEB"/>
<path d="M66.8021 96.0285C80.4414 89.406 92.7833 83.4133 101.731 79.071C106.184 76.8843 109.786 75.1128 112.291 73.881C113.526 73.2617 114.488 72.7807 115.152 72.4486C115.47 72.2859 115.716 72.1579 115.893 72.0679C116.059 71.9814 116.142 71.933 116.138 71.9261C116.138 71.9192 116.048 71.9572 115.875 72.0368C115.695 72.1199 115.446 72.2375 115.121 72.3897C114.453 72.7115 113.484 73.1786 112.239 73.7772C109.734 75.0055 106.128 76.7736 101.675 78.9603C92.7694 83.3822 80.483 89.4856 66.9059 96.2257C53.3427 102.976 41.0493 109.069 32.1225 113.429C27.6591 115.609 24.04 117.356 21.528 118.546C20.272 119.141 19.2929 119.598 18.6251 119.896C17.9573 120.197 17.6009 120.342 17.5871 120.318C17.5732 120.293 17.9054 120.1 18.5524 119.757C19.196 119.415 20.1544 118.916 21.3931 118.287C23.867 117.027 27.4654 115.231 31.9184 113.034C40.8244 108.637 53.1663 102.634 66.8021 96.025V96.0285Z" fill="#EBEBEB"/>
<path d="M65.5082 92.9179C80.0506 88.4648 93.209 84.4339 102.748 81.5137C107.499 80.0328 111.346 78.8357 114.014 78.0018C115.332 77.5797 116.36 77.251 117.069 77.0261C117.412 76.9119 117.671 76.8254 117.861 76.7631C118.038 76.7008 118.128 76.6662 118.128 76.6628C118.128 76.6559 118.031 76.6801 117.851 76.732C117.661 76.7873 117.394 76.8635 117.048 76.9638C116.336 77.1783 115.305 77.4932 113.976 77.8945C111.305 78.7249 107.457 79.9186 102.707 81.3961C93.1951 84.4028 80.0748 88.5479 65.5774 93.1324C51.0904 97.7238 37.9632 101.862 28.4412 104.803C23.6803 106.273 19.8224 107.446 17.1478 108.239C15.8122 108.633 14.7708 108.934 14.0615 109.128C13.3522 109.322 12.9785 109.412 12.9681 109.384C12.9612 109.356 13.3176 109.218 14.013 108.976C14.705 108.734 15.7327 108.391 17.0544 107.958C19.7047 107.093 23.5453 105.869 28.2994 104.381C37.8075 101.398 50.9658 97.357 65.5048 92.9179H65.5082Z" fill="#EBEBEB"/>
<path d="M64.7367 89.6481C79.8188 87.4753 93.465 85.5065 103.357 84.081C108.288 83.3475 112.281 82.7524 115.052 82.3372C116.422 82.1226 117.491 81.9566 118.228 81.8389C118.585 81.7801 118.858 81.7317 119.052 81.7005C119.239 81.6659 119.332 81.6486 119.332 81.6417C119.332 81.6348 119.235 81.6417 119.048 81.6659C118.851 81.6901 118.578 81.7282 118.218 81.7732C117.481 81.877 116.408 82.0292 115.035 82.223C112.263 82.6347 108.27 83.2264 103.336 83.9564C93.4581 85.4719 79.8292 87.5583 64.7678 89.8661C49.7168 92.1843 36.0844 94.2638 26.2061 95.7101C21.2652 96.4332 17.2655 97.0041 14.4975 97.3743C13.1135 97.5612 12.0374 97.6961 11.3073 97.7826C10.5773 97.8656 10.1898 97.8968 10.1863 97.8691C10.1828 97.8414 10.56 97.7584 11.2831 97.6269C12.0063 97.4954 13.0754 97.312 14.4525 97.0871C17.2066 96.6373 21.1995 96.018 26.1369 95.2741C36.0083 93.7828 49.658 91.8037 64.7332 89.6447L64.7367 89.6481Z" fill="#EBEBEB"/>
<path d="M64.5013 86.3023C79.7461 86.4269 93.5446 86.5376 103.544 86.6207C108.533 86.638 112.571 86.6518 115.377 86.6622C116.768 86.6587 117.848 86.6553 118.595 86.6518C118.955 86.6449 119.232 86.6414 119.432 86.6414C119.619 86.638 119.716 86.631 119.716 86.6276C119.716 86.6207 119.619 86.6172 119.432 86.6103C119.235 86.6068 118.955 86.5999 118.595 86.593C117.848 86.5861 116.768 86.5722 115.377 86.5584C112.571 86.548 108.533 86.5307 103.544 86.5099C93.5446 86.5169 79.7461 86.5238 64.5013 86.5342C49.2635 86.5549 35.4616 86.5515 25.4725 86.4926C20.4763 86.465 16.435 86.4234 13.6428 86.375C12.245 86.3508 11.162 86.3231 10.425 86.2989C9.68801 86.2712 9.30396 86.2435 9.30396 86.2193C9.30396 86.1916 9.69148 86.1674 10.425 86.1466C11.162 86.1259 12.245 86.1086 13.6428 86.0947C16.4385 86.0671 20.4798 86.0567 25.476 86.0636C35.465 86.0809 49.267 86.1812 64.5048 86.3162L64.5013 86.3023Z" fill="#EBEBEB"/>
<path d="M64.8025 82.9604C79.8431 85.3858 93.4547 87.5829 103.319 89.1745C108.246 89.9461 112.232 90.5689 115 91.0014C116.374 91.2056 117.443 91.3647 118.18 91.4754C118.536 91.5239 118.813 91.5619 119.007 91.5896C119.194 91.6138 119.291 91.6242 119.291 91.6173C119.291 91.6104 119.197 91.5896 119.014 91.555C118.817 91.5204 118.547 91.472 118.19 91.4097C117.453 91.2886 116.388 91.1121 115.017 90.8872C112.249 90.4513 108.264 89.825 103.336 89.0534C93.4547 87.5483 79.8258 85.4758 64.761 83.1818C49.703 80.9017 36.0706 78.8153 26.2131 77.2479C21.2826 76.4659 17.2967 75.812 14.546 75.3414C13.1689 75.1062 12.1032 74.9159 11.3801 74.7775C10.6569 74.6391 10.2798 74.5526 10.2867 74.5283C10.2902 74.5007 10.6777 74.5353 11.4078 74.6252C12.1378 74.7152 13.2139 74.8605 14.5944 75.0577C17.359 75.4522 21.3553 76.0507 26.2858 76.8154C36.1537 78.3378 49.7688 80.5245 64.799 82.9604H64.8025Z" fill="#EBEBEB"/>
<path d="M65.6363 79.7008C80.0956 84.3995 93.1813 88.6519 102.665 91.7347C107.405 93.2502 111.243 94.475 113.907 95.3262C115.228 95.7379 116.26 96.0597 116.969 96.2812C117.315 96.385 117.578 96.4645 117.768 96.5199C117.948 96.5718 118.041 96.596 118.045 96.5891C118.045 96.5822 117.958 96.5476 117.778 96.4853C117.592 96.4196 117.329 96.3331 116.99 96.2154C116.284 95.9836 115.26 95.648 113.941 95.2155C111.277 94.3609 107.443 93.1326 102.703 91.6171C93.1883 88.6207 80.0645 84.486 65.5602 79.9188C51.0593 75.3655 37.9355 71.2204 28.4551 68.1617C23.7149 66.6359 19.8812 65.3799 17.2413 64.4941C15.9195 64.0513 14.8988 63.6983 14.2068 63.4527C13.5148 63.207 13.1585 63.0617 13.1654 63.0375C13.1758 63.0098 13.5494 63.1032 14.2553 63.3039C14.9611 63.5046 15.9991 63.8125 17.3312 64.2173C19.9989 65.0304 23.8464 66.2311 28.5935 67.7396C38.0912 70.7533 51.1804 74.9987 65.6294 79.7043L65.6363 79.7008Z" fill="#EBEBEB"/>
<path d="M66.9855 76.6178C80.5037 83.4686 92.7383 89.669 101.606 94.16C106.042 96.3814 109.633 98.1771 112.125 99.4262C113.363 100.035 114.329 100.509 114.996 100.838C115.322 100.994 115.567 101.111 115.747 101.198C115.917 101.277 116.007 101.315 116.01 101.308C116.01 101.305 115.931 101.257 115.765 101.167C115.588 101.073 115.346 100.945 115.028 100.779C114.367 100.44 113.408 99.9521 112.18 99.3258C109.689 98.0768 106.097 96.2741 101.665 94.0528C92.7556 89.6378 80.4622 83.5482 66.8817 76.8151C53.3012 70.0992 41.0113 63.9958 32.1433 59.5289C27.7076 57.2937 24.1265 55.4703 21.663 54.1936C20.4312 53.5535 19.4762 53.0518 18.8361 52.7023C18.1926 52.3529 17.8639 52.1591 17.8743 52.1349C17.8881 52.1107 18.241 52.2594 18.9088 52.5639C19.5731 52.8684 20.5488 53.332 21.7979 53.9375C24.2995 55.1485 27.9048 56.9235 32.3509 59.1414C41.2396 63.5702 53.4811 69.7636 66.989 76.6178H66.9855Z" fill="#EBEBEB"/>
<path d="M68.8194 73.7741C81.0713 82.5937 92.1571 90.5759 100.195 96.361C104.219 99.2294 107.475 101.548 109.737 103.16C110.865 103.949 111.741 104.565 112.346 104.99C112.64 105.191 112.869 105.347 113.031 105.457C113.187 105.561 113.267 105.613 113.27 105.606C113.273 105.603 113.201 105.54 113.052 105.43C112.893 105.312 112.675 105.149 112.388 104.935C111.789 104.502 110.924 103.873 109.81 103.067C107.551 101.454 104.295 99.129 100.274 96.2607C92.1848 90.5448 81.0228 82.6629 68.6914 73.9506C56.3565 65.2522 45.2015 57.3599 37.1604 51.599C33.1399 48.7203 29.8944 46.3744 27.6662 44.7344C26.5521 43.9143 25.6905 43.2742 25.1127 42.8314C24.5349 42.3885 24.2408 42.1463 24.2546 42.1221C24.2719 42.1013 24.5972 42.302 25.2061 42.7033C25.8151 43.1082 26.7008 43.7137 27.8392 44.4991C30.1159 46.0734 33.389 48.3777 37.4234 51.2426C45.4921 56.9689 56.5883 64.9442 68.8263 73.7672L68.8194 73.7741Z" fill="#EBEBEB"/>
<path d="M71.0857 71.2447C81.7771 81.808 91.4513 91.368 98.4647 98.2984C101.98 101.738 104.828 104.523 106.803 106.457C107.789 107.409 108.558 108.149 109.087 108.658C109.346 108.9 109.544 109.09 109.689 109.225C109.827 109.35 109.897 109.415 109.903 109.408C109.907 109.405 109.845 109.332 109.717 109.201C109.578 109.062 109.388 108.865 109.139 108.613C108.616 108.094 107.862 107.343 106.89 106.378C104.914 104.443 102.07 101.655 98.5581 98.2119C91.4824 91.3438 81.7183 81.8703 70.93 71.4004C60.1383 60.9443 50.3811 51.4604 43.3608 44.5542C39.8489 41.1012 37.022 38.2951 35.081 36.3402C34.1122 35.3645 33.3648 34.5998 32.8631 34.0739C32.3614 33.548 32.1088 33.2642 32.1296 33.2469C32.1504 33.2296 32.441 33.4753 32.9773 33.9666C33.5136 34.4579 34.2921 35.188 35.292 36.1395C37.2885 38.039 40.1568 40.8105 43.6825 44.2497C50.7375 51.1248 60.4186 60.6813 71.0961 71.2481L71.0857 71.2447Z" fill="#EBEBEB"/>
<path d="M73.7291 69.0888C82.6006 81.14 90.6243 92.0494 96.444 99.9521C99.3677 103.883 101.731 107.062 103.374 109.273C104.198 110.363 104.835 111.207 105.277 111.792C105.495 112.072 105.661 112.287 105.779 112.443C105.893 112.588 105.956 112.661 105.959 112.657C105.962 112.657 105.911 112.574 105.807 112.422C105.693 112.263 105.537 112.041 105.329 111.754C104.897 111.162 104.271 110.304 103.468 109.204C101.828 106.993 99.4646 103.81 96.5444 99.8794C90.652 92.0252 82.5245 81.1919 73.5423 69.2169C64.5532 57.2557 56.4326 46.412 50.6025 38.5301C47.6857 34.5892 45.3398 31.3887 43.7379 29.1639C42.9351 28.0533 42.3193 27.1848 41.911 26.5897C41.4992 25.9946 41.2951 25.6762 41.3193 25.6589C41.3435 25.6416 41.5892 25.9323 42.0425 26.4963C42.4923 27.0602 43.1462 27.9045 43.9801 28.9909C45.6478 31.1707 48.0352 34.3401 50.9693 38.2706C56.8374 46.1283 64.875 57.0308 73.7291 69.0854V69.0888Z" fill="#EBEBEB"/>
<path d="M76.684 67.3591C83.5071 80.6109 89.6798 92.6033 94.1535 101.295C96.4095 105.62 98.2329 109.121 99.4992 111.554C100.136 112.754 100.631 113.689 100.973 114.332C101.143 114.64 101.271 114.879 101.364 115.052C101.454 115.214 101.503 115.294 101.509 115.291C101.516 115.291 101.475 115.201 101.395 115.034C101.309 114.861 101.188 114.616 101.032 114.301C100.7 113.65 100.219 112.709 99.603 111.502C98.3367 109.069 96.5167 105.568 94.2643 101.239C89.7074 92.586 83.4206 80.649 76.4764 67.4595C69.5218 54.2803 63.2454 42.3364 58.7543 33.6622C56.5087 29.3268 54.7061 25.808 53.4812 23.3687C52.8688 22.1473 52.3983 21.1993 52.0903 20.5488C51.7824 19.8983 51.6301 19.5523 51.6544 19.5419C51.6786 19.5281 51.8793 19.8533 52.2322 20.4796C52.5851 21.1058 53.0972 22.0366 53.7442 23.2407C55.0417 25.6454 56.8893 29.14 59.1556 33.4684C63.6848 42.1219 69.8713 54.1108 76.6771 67.3626L76.684 67.3591Z" fill="#EBEBEB"/>
<path d="M79.8811 66.1032C84.4725 80.2338 88.628 93.022 91.6382 102.288C93.164 106.903 94.3993 110.64 95.2573 113.235C95.6933 114.519 96.0289 115.515 96.2642 116.204C96.3818 116.536 96.4718 116.789 96.5341 116.972C96.5964 117.145 96.631 117.232 96.6379 117.232C96.6448 117.232 96.6206 117.138 96.5687 116.962C96.5133 116.775 96.4337 116.519 96.3299 116.183C96.1085 115.491 95.7867 114.488 95.3715 113.197C94.5169 110.602 93.2817 106.862 91.7627 102.246C88.6626 93.0047 84.3895 80.2546 79.6631 66.1655C74.9298 52.0867 70.6637 39.3332 67.6327 30.0811C66.1172 25.4551 64.9062 21.7079 64.0931 19.1095C63.6848 17.812 63.3769 16.8016 63.1762 16.1131C62.9755 15.4246 62.8821 15.0578 62.9098 15.0509C62.9375 15.044 63.0793 15.3934 63.3285 16.0647C63.5776 16.7394 63.9305 17.7358 64.3768 19.023C65.2695 21.5972 66.529 25.3305 68.0652 29.9496C71.1377 39.1878 75.3035 51.9725 79.8811 66.0997V66.1032Z" fill="#EBEBEB"/>
<path d="M83.2441 65.3524C85.4896 80.009 87.5241 93.2711 88.9981 102.886C89.7558 107.679 90.3717 111.557 90.8007 114.253C91.0222 115.585 91.1952 116.623 91.3128 117.339C91.3751 117.685 91.4235 117.951 91.4547 118.142C91.4893 118.322 91.51 118.415 91.517 118.411C91.5239 118.411 91.517 118.318 91.4927 118.135C91.4651 117.944 91.4305 117.675 91.382 117.329C91.2748 116.609 91.1191 115.571 90.9184 114.235C90.4928 111.54 89.8804 107.661 89.1261 102.869C87.5622 93.2677 85.4031 80.0228 83.0192 65.3905C80.6249 50.765 78.4762 37.5167 76.9815 27.9152C76.2341 23.1162 75.6459 19.2271 75.2619 16.5387C75.0681 15.1928 74.9263 14.1479 74.8398 13.4386C74.7533 12.7293 74.7221 12.3521 74.7498 12.3487C74.7775 12.3452 74.864 12.712 74.9989 13.4143C75.1339 14.1167 75.3242 15.1547 75.556 16.4937C76.0196 19.1718 76.6597 23.0504 77.4313 27.8495C78.971 37.444 81.0159 50.7062 83.2476 65.3559L83.2441 65.3524Z" fill="#EBEBEB"/>
<path d="M86.6904 65.1204C86.5727 79.9362 86.4655 93.3471 86.3893 103.066C86.3755 107.914 86.3617 111.841 86.3547 114.567C86.3617 115.917 86.3651 116.969 86.3686 117.695C86.3755 118.045 86.379 118.314 86.3824 118.508C86.3859 118.692 86.3928 118.785 86.3997 118.785C86.4066 118.785 86.4101 118.692 86.417 118.508C86.4205 118.314 86.4274 118.045 86.4343 117.695C86.4412 116.969 86.4551 115.92 86.4689 114.567C86.4793 111.841 86.4931 107.917 86.5104 103.066C86.4966 93.3471 86.4828 79.9362 86.462 65.1204C86.4309 50.3116 86.4274 36.8972 86.4828 27.1885C86.5104 22.3341 86.5485 18.4035 86.5969 15.6909C86.6212 14.3346 86.6488 13.2793 86.6731 12.563C86.7007 11.8468 86.7284 11.4731 86.7561 11.4731C86.7838 11.4731 86.808 11.8503 86.8322 12.563C86.853 13.2793 86.8737 14.3311 86.8876 15.6909C86.9187 18.407 86.9326 22.3341 86.9256 27.1885C86.9153 36.8972 86.8218 50.3082 86.6904 65.1204Z" fill="#EBEBEB"/>
<path d="M90.1296 65.4078C87.6419 80.0263 85.3929 93.2573 83.7632 102.848C82.9743 107.637 82.3342 111.512 81.8913 114.204C81.6803 115.54 81.5177 116.578 81.4069 117.294C81.355 117.64 81.317 117.906 81.2893 118.1C81.2651 118.283 81.2547 118.377 81.2616 118.377C81.2685 118.377 81.2893 118.287 81.3239 118.107C81.3585 117.917 81.4069 117.65 81.4727 117.308C81.5972 116.592 81.7772 115.557 82.009 114.225C82.4553 111.533 83.0954 107.658 83.8878 102.873C85.4275 93.2677 87.5554 80.0194 89.9012 65.3801C92.2367 50.7443 94.375 37.4959 95.9805 27.9117C96.7832 23.1196 97.451 19.2444 97.9319 16.5699C98.1741 15.2308 98.3679 14.1963 98.5097 13.4939C98.6516 12.7915 98.7381 12.4248 98.7658 12.4282C98.7934 12.4317 98.7588 12.8088 98.6689 13.5181C98.5755 14.2274 98.4267 15.2724 98.226 16.6148C97.8212 19.3033 97.2088 23.1854 96.4268 27.9809C94.8663 37.5721 92.6243 50.8066 90.1296 65.4147V65.4078Z" fill="#EBEBEB"/>
<path d="M93.4822 66.2174C88.659 80.2754 84.2925 92.9943 81.1266 102.215C79.573 106.824 78.3136 110.55 77.4382 113.142C77.0161 114.429 76.6874 115.429 76.459 116.121C76.3518 116.457 76.2722 116.713 76.2134 116.899C76.1615 117.076 76.1372 117.166 76.1407 117.169C76.1476 117.169 76.1822 117.083 76.248 116.913C76.3137 116.73 76.4071 116.477 76.5248 116.145C76.7635 115.457 77.1095 114.464 77.5524 113.183C78.4278 110.595 79.6907 106.865 81.2477 102.26C84.3236 93.0116 88.569 80.2546 93.2608 66.1551C97.9387 52.0591 102.195 39.302 105.333 30.0846C106.9 25.4759 108.187 21.7495 109.101 19.1821C109.557 17.8985 109.917 16.9055 110.17 16.2308C110.422 15.5595 110.571 15.2101 110.595 15.2204C110.623 15.2274 110.526 15.5941 110.322 16.2792C110.118 16.9677 109.8 17.9746 109.384 19.2721C108.551 21.8636 107.315 25.6039 105.765 30.2195C102.669 39.4508 98.3124 52.1767 93.4788 66.2208L93.4822 66.2174Z" fill="#EBEBEB"/>
<path d="M96.6551 67.5285C89.614 80.6731 83.2441 92.5685 78.6285 101.187C76.3484 105.499 74.5007 108.99 73.2171 111.415C72.5908 112.619 72.1029 113.557 71.7673 114.207C71.6082 114.522 71.4871 114.764 71.4006 114.937C71.321 115.104 71.2795 115.19 71.2864 115.19C71.2933 115.19 71.3417 115.11 71.4317 114.951C71.5251 114.782 71.6566 114.543 71.8296 114.235C72.1756 113.592 72.6773 112.661 73.3243 111.467C74.608 109.045 76.4591 105.554 78.7427 101.246C83.2788 92.5858 89.5379 80.635 96.4544 67.4282C103.357 54.2248 109.627 42.2774 114.218 33.6551C116.512 29.344 118.387 25.8632 119.702 23.4654C120.36 22.2683 120.875 21.341 121.235 20.7147C121.595 20.0919 121.795 19.7701 121.82 19.7805C121.844 19.7944 121.692 20.1404 121.377 20.7839C121.062 21.4309 120.588 22.379 119.965 23.5934C118.723 26.0258 116.896 29.5308 114.619 33.8523C110.066 42.4954 103.707 54.3978 96.6586 67.5285H96.6551Z" fill="#EBEBEB"/>
<path d="M99.5823 69.3073C90.5136 81.2201 82.31 92.0014 76.3622 99.8141C73.4143 103.727 71.0304 106.893 69.373 109.094C68.5599 110.191 67.9268 111.042 67.4908 111.63C67.2832 111.917 67.124 112.139 67.0099 112.294C66.9026 112.447 66.8507 112.526 66.8542 112.526C66.8576 112.526 66.9199 112.457 67.0375 112.312C67.1586 112.159 67.3282 111.945 67.5462 111.665C67.9925 111.083 68.6361 110.239 69.4665 109.156C71.1238 106.959 73.5147 103.793 76.4626 99.8833C82.3377 92.0153 90.441 81.1647 99.3955 69.1723C108.336 57.18 116.45 46.3329 122.373 38.5133C125.335 34.6035 127.747 31.448 129.428 29.282C130.269 28.199 130.93 27.3617 131.383 26.7977C131.836 26.2372 132.089 25.95 132.11 25.9639C132.131 25.9812 131.926 26.2995 131.511 26.8877C131.096 27.4793 130.473 28.3409 129.664 29.4481C128.044 31.6625 125.678 34.8457 122.733 38.7693C116.848 46.6131 108.648 57.4014 99.5754 69.3038L99.5823 69.3073Z" fill="#EBEBEB"/>
<path d="M102.188 71.5078C91.3231 81.9051 81.4933 91.3129 74.3691 98.1325C70.833 101.551 67.9681 104.319 65.9786 106.243C64.9995 107.201 64.2383 107.949 63.7158 108.464C63.4667 108.717 63.2729 108.91 63.1345 109.049C63.0065 109.18 62.9408 109.253 62.9442 109.256C62.9477 109.26 63.0203 109.198 63.1587 109.073C63.3041 108.938 63.5047 108.755 63.7642 108.513C64.2971 108.004 65.0721 107.27 66.0651 106.326C68.0546 104.406 70.9195 101.638 74.4591 98.2225C81.521 91.3406 91.2643 81.8463 102.028 71.3521C112.782 60.858 122.532 51.3672 129.636 44.5406C133.186 41.1256 136.071 38.3749 138.082 36.4892C139.085 35.5446 139.87 34.818 140.41 34.3336C140.95 33.8457 141.244 33.6001 141.261 33.6208C141.282 33.6416 141.026 33.9219 140.521 34.4443C140.016 34.9668 139.265 35.7245 138.286 36.6968C136.331 38.6378 133.483 41.4266 129.947 44.8555C122.878 51.7166 113.052 61.1348 102.188 71.5182V71.5078Z" fill="#EBEBEB"/>
<path d="M104.405 74.0749C92.0118 82.7042 80.7945 90.5099 72.6635 96.1705C68.6222 99.0146 65.349 101.316 63.0793 102.911C61.9582 103.71 61.0898 104.333 60.4877 104.762C60.2005 104.973 59.9791 105.135 59.8199 105.25C59.6712 105.36 59.595 105.423 59.5985 105.426C59.5985 105.429 59.685 105.381 59.8407 105.277C60.0033 105.166 60.2317 105.014 60.5292 104.814C61.1382 104.391 62.017 103.782 63.1519 103.001C65.4251 101.405 68.6983 99.1046 72.743 96.2639C80.8187 90.5342 91.9633 82.6246 104.277 73.8881C116.578 65.1447 127.729 57.2455 135.84 51.5746C139.895 48.7374 143.185 46.4572 145.472 44.8968C146.618 44.1183 147.507 43.5162 148.119 43.1183C148.728 42.7204 149.06 42.5197 149.074 42.544C149.091 42.5647 148.794 42.8069 148.213 43.2463C147.631 43.6858 146.766 44.3224 145.645 45.132C143.403 46.7548 140.144 49.0799 136.103 51.9309C128.02 57.6365 116.81 65.4561 104.412 74.0715L104.405 74.0749Z" fill="#EBEBEB"/>
<path d="M106.187 76.9468C92.555 83.5865 80.2201 89.5931 71.2795 93.9458C66.8299 96.1394 63.2281 97.9144 60.7265 99.1496C59.4913 99.769 58.5329 100.253 57.8685 100.586C57.5502 100.752 57.3046 100.876 57.1281 100.966C56.962 101.053 56.879 101.101 56.8824 101.108C56.8824 101.115 56.9724 101.077 57.1454 100.997C57.3253 100.914 57.5744 100.797 57.8997 100.644C58.5674 100.323 59.5362 99.852 60.7818 99.2534C63.2834 98.0217 66.8853 96.2501 71.3383 94.06C80.2374 89.6277 92.517 83.5104 106.084 76.7496C119.64 69.9818 131.923 63.8749 140.846 59.5049C145.306 57.3182 148.925 55.5675 151.434 54.3738C152.69 53.7786 153.666 53.3219 154.333 53.0209C155.001 52.7199 155.357 52.5746 155.371 52.5988C155.385 52.623 155.053 52.8168 154.406 53.1628C153.762 53.5088 152.804 54.0036 151.569 54.6367C149.095 55.8996 145.5 57.6988 141.05 59.9029C132.151 64.3109 119.816 70.3313 106.187 76.9537V76.9468Z" fill="#EBEBEB"/>
<path d="M107.482 80.0539C92.9461 84.5242 79.7911 88.5724 70.2554 91.503C65.5083 92.9908 61.6607 94.1914 58.9931 95.0287C57.6748 95.4509 56.6472 95.783 55.9379 96.0079C55.5954 96.1221 55.3359 96.2086 55.1456 96.2709C54.9691 96.3331 54.8792 96.3678 54.8792 96.3712C54.8792 96.3781 54.976 96.3539 55.156 96.302C55.3463 96.2467 55.6127 96.1705 55.9587 96.0667C56.6714 95.8488 57.7025 95.5374 59.0277 95.1325C61.6988 94.2987 65.5429 93.0981 70.2935 91.6172C79.8015 88.6001 92.9149 84.4342 107.409 79.8359C121.889 75.2272 135.013 71.0717 144.528 68.1203C149.285 66.6429 153.143 65.4665 155.814 64.6707C157.15 64.2728 158.191 63.9718 158.897 63.778C159.606 63.5843 159.98 63.4943 159.99 63.5185C159.997 63.5427 159.641 63.6846 158.946 63.9268C158.254 64.169 157.226 64.5115 155.904 64.9475C153.257 65.816 149.417 67.0443 144.666 68.539C135.162 71.5319 122.01 75.5905 107.478 80.0469L107.482 80.0539Z" fill="#EBEBEB"/>
<path d="M108.26 83.3235C93.1813 85.5171 79.5351 87.4997 69.6464 88.939C64.7159 89.6795 60.7265 90.2815 57.9551 90.6967C56.5849 90.9147 55.5158 91.0808 54.7788 91.1984C54.4224 91.2572 54.1491 91.3057 53.9553 91.3368C53.7685 91.3714 53.675 91.3887 53.675 91.3956C53.675 91.4025 53.7719 91.3956 53.9588 91.3714C54.156 91.3472 54.4293 91.3091 54.7892 91.2641C55.5261 91.1603 56.5987 91.0081 57.9724 90.8109C60.7438 90.3957 64.7367 89.8006 69.6672 89.0601C79.5455 87.5343 93.1709 85.4271 108.229 83.102C123.276 80.7631 136.905 78.6698 146.784 77.2096C151.721 76.4796 155.721 75.9052 158.489 75.5315C159.873 75.3447 160.949 75.2063 161.679 75.1198C162.409 75.0333 162.797 75.0022 162.8 75.0298C162.803 75.0575 162.426 75.1406 161.703 75.272C160.98 75.407 159.911 75.5869 158.534 75.8153C155.78 76.2685 151.787 76.8948 146.853 77.6421C136.981 79.1438 123.335 81.1402 108.263 83.32L108.26 83.3235Z" fill="#EBEBEB"/>
<path d="M157.561 160.783C157.561 160.831 125.743 160.873 86.5034 160.873C47.2636 160.873 15.4385 160.831 15.4385 160.783C15.4385 160.734 47.2497 160.693 86.5034 160.693C125.757 160.693 157.561 160.734 157.561 160.783Z" fill="#455A64"/>
<path d="M55.5505 38.4889C53.1077 41.4369 50.3951 44.1599 47.4541 46.613C49.9003 46.1252 52.2427 45.1287 54.2876 43.7066C51.5403 46.959 48.762 50.2668 46.9731 54.1281C54.5332 51.3394 60.6401 44.8865 63.0137 37.188L55.5539 38.4889H55.5505Z" fill="#263238"/>
<path d="M61.6677 43.5441L66.491 39.4094C68.2763 37.8455 74.3625 33.5932 75.2102 31.3788C76.0579 29.1644 76.0856 26.5521 74.8815 24.5072C73.7535 22.5904 71.6983 21.3828 69.5842 20.6943C64.1105 18.9055 53.2253 22.6769 48.973 26.5625C47.2741 28.116 45.8728 30.1159 45.5234 32.3926C45.1532 34.8042 46.807 37.9597 49.0387 38.9493C54.2564 41.2675 59.1627 41.0599 61.2352 40.5443" fill="#263238"/>
<path d="M61.2386 40.5404C61.2386 40.5404 61.0898 40.5854 60.8165 40.6338C60.5432 40.6857 60.1453 40.7376 59.6539 40.7895C58.6678 40.8899 57.2942 40.9418 55.7822 40.8207C54.2702 40.6961 52.9242 40.4228 51.9658 40.1667C51.4883 40.0387 51.1043 39.9211 50.8448 39.8242C50.5818 39.7308 50.44 39.6754 50.4434 39.665C50.4469 39.6547 50.5957 39.6858 50.8621 39.7585C51.1285 39.8311 51.516 39.9315 51.9935 40.0422C52.9519 40.2671 54.2944 40.5197 55.7926 40.6408C57.2908 40.7619 58.654 40.7307 59.6366 40.6615C60.128 40.6269 60.5259 40.5923 60.7992 40.5646C61.0725 40.537 61.2282 40.5266 61.2282 40.5404H61.2386Z" fill="#455A64"/>
<path d="M49.2256 26.4686C49.2256 26.4686 49.2982 26.4583 49.4332 26.4548C49.5681 26.4548 49.7723 26.4444 50.0318 26.4548C50.5508 26.4652 51.3016 26.524 52.2185 26.6866C54.0419 27.0015 56.5504 27.8423 58.8444 29.5411C61.1418 31.24 62.6781 33.3921 63.5119 35.046C63.934 35.8764 64.2108 36.5753 64.3735 37.0701C64.46 37.3157 64.5084 37.5095 64.5499 37.641C64.588 37.7725 64.6018 37.8417 64.5984 37.8451C64.5914 37.8451 64.5638 37.7794 64.5153 37.6514C64.4634 37.5233 64.4046 37.333 64.3077 37.0943C64.1243 36.6099 63.8337 35.9214 63.3977 35.1048C62.5431 33.4786 61.0069 31.3646 58.7371 29.6865C56.4674 28.0049 54.0004 27.1572 52.1943 26.8112C51.2877 26.6347 50.5438 26.5552 50.0283 26.524C49.7723 26.4998 49.5681 26.4998 49.4332 26.4894C49.2982 26.4825 49.2256 26.4721 49.2256 26.4686Z" fill="#455A64"/>
<path d="M56.5537 22.4967C56.5537 22.4967 56.6195 22.4898 56.7475 22.4967C56.872 22.5071 57.0623 22.5036 57.2976 22.5417C57.7751 22.5936 58.4602 22.7424 59.2629 23.0503C60.0656 23.3583 60.9721 23.86 61.8648 24.5658C62.7575 25.2716 63.6225 26.192 64.3595 27.2819C65.8196 29.479 66.4839 31.8041 66.8541 33.4649C67.0375 34.3022 67.1517 34.9839 67.2174 35.4579C67.252 35.6932 67.2728 35.88 67.2866 36.0046C67.3005 36.1291 67.3039 36.1949 67.297 36.1983C67.2901 36.1983 67.2763 36.136 67.2486 36.0115C67.2209 35.8696 67.1863 35.6897 67.1448 35.4717C67.0583 35.0012 66.9268 34.323 66.7261 33.4961C66.3282 31.8491 65.6466 29.5517 64.2072 27.3857C63.4841 26.3131 62.6329 25.4031 61.761 24.7007C60.8856 23.9984 60.0033 23.4932 59.2145 23.1749C58.429 22.8531 57.7578 22.6905 57.2872 22.6178C56.8167 22.5417 56.5537 22.5209 56.5537 22.5036V22.4967Z" fill="#455A64"/>
<path d="M68.3628 22.8843C68.3628 22.8843 68.4458 22.8566 68.605 22.822C68.7642 22.7874 68.9994 22.739 69.3039 22.6836C69.9129 22.5764 70.7986 22.4103 71.9128 22.3792C73.0165 22.348 74.3936 22.4795 75.7084 23.1957C76.3589 23.5521 76.9713 24.0746 77.4107 24.7631C77.8605 25.4413 78.1096 26.2717 78.1719 27.1263C78.2861 28.8459 77.691 30.4756 76.7844 31.6381C75.8814 32.818 74.7742 33.6034 73.8158 34.157C72.8504 34.7106 72.0131 35.0462 71.4353 35.2677C71.1446 35.3749 70.9163 35.4545 70.7606 35.5029C70.6049 35.5514 70.5218 35.5756 70.5218 35.5687C70.5218 35.5618 70.598 35.5272 70.7502 35.4683C70.9163 35.3991 71.1377 35.3126 71.4111 35.2019C71.9785 34.9632 72.8054 34.6103 73.7535 34.0463C74.6946 33.4858 75.7776 32.6969 76.653 31.5378C77.5318 30.396 78.1062 28.8044 77.992 27.1401C77.9297 26.3132 77.691 25.5139 77.2619 24.86C76.8433 24.1991 76.2585 23.6905 75.6288 23.341C74.359 22.6352 73.0096 22.4899 71.9162 22.5037C70.8159 22.521 69.9267 22.6663 69.3178 22.7528C69.0271 22.7978 68.7918 22.8324 68.6119 22.8566C68.4493 22.8809 68.3663 22.8878 68.3628 22.8809V22.8843Z" fill="#263238"/>
<path d="M64.4114 25.8599C64.4114 25.8599 64.3872 25.846 64.3457 25.8149L64.1657 25.6696C64.0204 25.5277 63.799 25.3166 63.5914 24.9879C63.3803 24.6627 63.1693 24.2233 63.0516 23.6835C62.9374 23.1438 62.9063 22.4967 63.0793 21.8117C63.2523 21.1335 63.6467 20.4346 64.2661 19.8844C64.8785 19.3343 65.6951 18.9191 66.6154 18.7772C67.5358 18.625 68.5426 18.8222 69.4353 19.2824C70.328 19.7495 71.1203 20.4726 71.7258 21.348C72.3313 22.2269 72.7258 23.1991 73.006 24.1575C73.2828 25.1194 73.4489 26.0675 73.57 26.974C73.8088 28.787 73.6877 30.4824 73.2067 31.7938C72.7327 33.1086 71.975 33.9978 71.3798 34.4856C70.7778 34.9804 70.3626 35.1223 70.3626 35.1223C70.3488 35.1015 70.7536 34.9389 71.3349 34.4337C71.9092 33.9355 72.6393 33.0497 73.0891 31.7522C73.5458 30.4582 73.6565 28.7939 73.4074 26.9947C73.2863 26.0951 73.1133 25.154 72.84 24.206C72.5632 23.2614 72.1722 22.3064 71.5805 21.4484C70.9923 20.5937 70.2207 19.8914 69.3592 19.4381C68.4942 18.9883 67.5323 18.798 66.6466 18.9399C65.7608 19.0713 64.9685 19.4658 64.3733 19.9952C63.7713 20.5211 63.3872 21.1889 63.2108 21.8428C63.0343 22.5002 63.0551 23.1299 63.1589 23.6593C63.2661 24.1921 63.4634 24.6212 63.6606 24.9464C64.0619 25.6004 64.446 25.8356 64.4218 25.8564L64.4114 25.8599Z" fill="#263238"/>
<path d="M54.6162 37.565C54.6162 37.565 54.5401 37.5858 54.3947 37.61C54.2494 37.6342 54.0314 37.6688 53.7512 37.6965C53.1907 37.7519 52.3706 37.7934 51.3603 37.7069C50.3535 37.6204 49.1598 37.392 47.9003 36.9353C47.2706 36.7069 46.6305 36.4163 45.9938 36.0599C45.3572 35.707 44.7171 35.278 44.1981 34.6863C43.9421 34.3887 43.7276 34.0566 43.5857 33.7002C43.4473 33.3404 43.3746 32.9598 43.385 32.5861C43.3989 31.8353 43.6895 31.1467 44.077 30.5931C44.4749 30.0395 44.9801 29.6174 45.5198 29.3406C46.0596 29.0707 46.6063 28.9254 47.1114 28.8631C48.1252 28.7351 48.9487 28.8839 49.4954 29.005C49.7722 29.0707 49.9798 29.133 50.1216 29.1814C50.2635 29.2299 50.3362 29.2576 50.3327 29.2645C50.3327 29.2714 50.2531 29.2541 50.1113 29.216C49.9694 29.1814 49.7549 29.1295 49.4815 29.0742C48.9348 28.9738 48.1183 28.8493 47.1287 28.9877C46.6374 29.0569 46.108 29.2091 45.589 29.4721C45.0769 29.742 44.5926 30.1537 44.2154 30.6865C43.8487 31.2194 43.5753 31.8802 43.5649 32.5861C43.558 32.939 43.6272 33.2919 43.7587 33.631C43.8936 33.9666 44.0978 34.2815 44.3434 34.5652C44.8417 35.1326 45.4645 35.5513 46.0907 35.9008C46.717 36.2537 47.3502 36.5443 47.9695 36.7727C49.2117 37.2329 50.388 37.4681 51.3845 37.5719C52.381 37.6723 53.1976 37.655 53.7546 37.6204C54.3152 37.5858 54.6231 37.5408 54.6266 37.5581L54.6162 37.565Z" fill="#263238"/>
<path d="M48.5542 32.5413C48.5542 32.5413 48.5057 32.4894 48.4296 32.3752C48.3535 32.2645 48.2428 32.0984 48.1044 31.8839C47.8276 31.4514 47.4331 30.8252 47.0041 30.0086C46.5854 29.1955 46.1287 28.1817 45.9038 26.9776C45.7931 26.3756 45.7516 25.7286 45.8173 25.0608C45.8865 24.3999 46.0733 23.701 46.5024 23.1163C46.9349 22.5315 47.5819 22.1544 48.2393 22.0125C48.9002 21.8603 49.5576 21.888 50.1596 21.9849C50.7651 22.0887 51.3222 22.272 51.8204 22.4796C52.3221 22.6838 52.7754 22.8983 53.1906 23.0851C54.021 23.4657 54.713 23.7287 55.2077 23.8498C55.7025 23.9778 55.9828 24.002 55.9828 24.0193C55.9828 24.0263 55.9101 24.0193 55.7752 24.0124C55.6402 24.002 55.443 23.9744 55.1904 23.919C54.6853 23.8187 53.9794 23.5695 53.1387 23.2028C52.2944 22.8533 51.3152 22.3412 50.1319 22.1475C49.5437 22.0575 48.9071 22.0333 48.2774 22.1821C47.6511 22.3205 47.0491 22.6769 46.6442 23.2201C46.2429 23.7702 46.0595 24.438 45.9903 25.0781C45.9246 25.7251 45.9626 26.3548 46.0664 26.9465C46.2775 28.1298 46.7169 29.1332 47.1183 29.9498C47.5265 30.7663 47.9071 31.403 48.1632 31.8459C48.2843 32.0535 48.3812 32.223 48.4607 32.3545C48.5265 32.4721 48.5611 32.5344 48.5542 32.5379V32.5413Z" fill="#263238"/>
<path d="M72.5701 29.2231C74.3727 28.9497 76.1027 28.192 77.5282 27.0571C77.5282 27.9809 77.1615 28.9013 76.5248 29.5726C75.8882 30.2438 74.9851 30.6521 74.0613 30.6936" fill="#263238"/>
<path d="M96.4233 67.7018C96.5444 66.5323 97.5098 65.5185 97.4129 64.3456C97.3368 63.4287 96.6344 62.709 96.1915 61.8994C94.5065 58.82 96.669 54.6403 94.8975 51.6128L95.3507 63.6121C95.6068 64.612 95.4303 65.6639 95.3369 66.6915C95.2435 67.7191 95.2504 68.8263 95.8178 69.6878C96.3818 70.5494 97.6897 70.9923 98.482 70.3314C97.2641 70.1584 96.2988 68.9266 96.4268 67.7018H96.4233Z" fill="#263238"/>
<path d="M65.4459 75.2619C65.3248 74.0924 64.3595 73.0786 64.4563 71.9057C64.5325 70.9888 65.2349 70.2691 65.6777 69.4594C67.3628 66.3835 65.2002 62.2004 66.9718 59.1729L66.5185 71.1721C66.2625 72.1721 66.4389 73.2239 66.5323 74.2515C66.6258 75.2792 66.6188 76.3863 66.0514 77.2479C65.4874 78.1094 64.1795 78.5523 63.3872 77.8914C64.6051 77.7184 65.5705 76.4867 65.4424 75.2619H65.4459Z" fill="#263238"/>
<path d="M57.0278 45.1771C61.0311 39.0875 65.8439 35.4095 72.9542 34.6518C76.9678 34.2262 80.0403 34.1812 82.9121 35.1292C85.694 36.0461 88.3512 37.2675 90.3027 39.6411C92.6209 42.461 94.645 45.6684 95.3577 49.2841C96.0913 52.9967 96.1397 56.692 95.7176 59.7748C95.2055 63.522 93.261 69.3521 91.3856 72.5976L85.2857 73.9193C80.1752 74.5559 74.9956 75.1926 69.8956 74.4314C64.7955 73.6702 59.6955 71.3312 56.6196 67.0581C52.3465 61.1208 53.0212 51.2667 57.0278 45.1771Z" fill="#263238"/>
<path d="M66.0409 45.305L77.9606 39.2915L81.2234 39.378C88.4894 38.7552 94.2123 46.3188 94.7832 52.1973C95.4198 58.7263 95.9353 66.7258 95.3264 71.6356C94.1015 81.507 85.9083 83.0501 85.9083 83.0501C85.9083 83.0501 86.4446 90.5168 86.794 93.7657L68.456 91.8281L63.0723 48.9103C62.9754 47.118 64.266 45.5506 66.0409 45.3015V45.305Z" fill="#FFBF9D"/>
<path d="M80.5937 70.6666C80.6145 70.151 80.8601 69.6736 81.1923 69.331C81.8601 68.6459 82.9119 68.4902 83.7354 68.9573C84.5589 69.4244 85.0986 70.4797 85.0433 71.5108C84.6627 72.1475 84.0329 72.6111 83.3029 72.7391C83.1887 72.7599 83.0745 72.7737 82.9603 72.7806C82.3998 72.8152 81.8151 72.6768 81.3514 72.3032C80.8878 71.9295 80.566 71.2998 80.5937 70.6631V70.6666Z" fill="#FF9A6C"/>
<path d="M91.0639 60.415C91.1089 61.0794 90.5864 61.6676 89.8944 61.7264C89.2024 61.7887 88.6038 61.3008 88.5589 60.6365C88.5139 59.9722 89.0363 59.384 89.7283 59.3251C90.4203 59.2629 91.0189 59.7542 91.0674 60.415H91.0639Z" fill="#263238"/>
<path d="M92.856 55.6645C92.7072 55.834 91.728 55.1593 90.3717 55.2112C89.0188 55.2424 88.0466 55.9724 87.8943 55.8098C87.8182 55.7406 87.9705 55.4361 88.3891 55.1074C88.8043 54.7787 89.5206 54.45 90.3648 54.4223C91.209 54.3981 91.9287 54.6853 92.3474 54.9898C92.7764 55.2942 92.9252 55.5884 92.8525 55.6645H92.856Z" fill="#263238"/>
<path d="M85.1333 67.0133C85.1229 66.9372 85.9602 66.7608 87.32 66.5428C87.666 66.4944 87.9912 66.4148 88.0397 66.176C88.1123 65.9234 87.9566 65.5567 87.7733 65.1588C87.4203 64.3319 87.0501 63.4669 86.6591 62.5569C85.1091 58.8547 83.9776 55.803 84.1264 55.7441C84.2752 55.6819 85.6523 58.6332 87.2024 62.3389C87.576 63.2523 87.9324 64.1243 88.2715 64.9546C88.4168 65.3422 88.6556 65.7816 88.4964 66.3075C88.4134 66.5705 88.1642 66.7642 87.9463 66.8334C87.7283 66.9096 87.5311 66.9199 87.3615 66.9338C85.9914 67.0549 85.1402 67.0895 85.1298 67.0133H85.1333Z" fill="#263238"/>
<path d="M85.9188 83.0401C85.9188 83.0401 79.3275 83.6906 72.6497 79.9814C72.6497 79.9814 76.2965 86.8253 86.0918 85.5693L85.9188 83.0401Z" fill="#FF9A6C"/>
<path d="M81.1785 68.0857C81.3965 68.0649 81.4518 69.5354 82.7459 70.5388C84.0364 71.5422 85.6004 71.3242 85.6177 71.5284C85.6419 71.6183 85.2786 71.8259 84.6177 71.8674C83.9707 71.9124 83.0157 71.736 82.2234 71.1235C81.4345 70.5111 81.0747 69.6669 81.002 69.0648C80.9259 68.4524 81.0781 68.0822 81.1785 68.0857Z" fill="#263238"/>
<path d="M91.9772 50.1319C91.7592 50.471 90.7143 50.2842 89.5067 50.426C88.2923 50.5298 87.3027 50.9208 87.0259 50.6336C86.9014 50.4918 87.0259 50.1665 87.4342 49.8171C87.8356 49.4711 88.5414 49.1389 89.3753 49.0559C90.2091 48.9728 90.9634 49.1562 91.4236 49.4122C91.8907 49.6717 92.0706 49.9658 91.9772 50.1319Z" fill="#263238"/>
<path d="M76.2757 61.1518C76.2999 61.8161 76.8812 62.3455 77.5766 62.3316C78.2721 62.3178 78.8153 61.7711 78.7911 61.1068C78.7669 60.4425 78.1821 59.9131 77.4901 59.9235C76.7947 59.9339 76.2515 60.484 76.2757 61.1483V61.1518Z" fill="#263238"/>
<path d="M74.563 56.7684C74.7291 56.9207 75.6321 56.1491 76.985 56.0557C78.3344 55.9415 79.3758 56.5677 79.5108 56.3913C79.5765 56.3117 79.3966 56.028 78.9433 55.7443C78.497 55.4605 77.7462 55.208 76.9054 55.2737C76.0646 55.3394 75.3761 55.6993 74.992 56.0453C74.5976 56.3947 74.4799 56.6992 74.563 56.7684Z" fill="#263238"/>
<path d="M73.6703 53.2288C73.9575 53.516 74.9782 53.125 76.2341 53.0178C77.4832 52.8725 78.5662 53.0593 78.7876 52.7202C78.8845 52.5576 78.6942 52.26 78.2098 52.004C77.7323 51.748 76.9504 51.5646 76.0888 51.6511C75.2273 51.7376 74.5007 52.0697 74.0889 52.4157C73.6668 52.7617 73.5457 53.0904 73.6737 53.2323L73.6703 53.2288Z" fill="#263238"/>
<path d="M66.2106 65.1825C66.1829 64.4525 65.2798 62.757 64.5532 62.6671C62.6156 62.4318 59.1452 62.7052 59.2802 67.6045C59.4636 74.2996 66.1483 72.7357 66.1552 72.5419C66.1587 72.3932 66.304 67.7049 66.2106 65.1825Z" fill="#FFBF9D"/>
<path d="M64.2418 70.1475C64.2107 70.1268 64.1276 70.234 63.9339 70.3275C63.7436 70.4209 63.4149 70.4901 63.0619 70.369C62.3457 70.1302 61.7195 69.023 61.6572 67.8155C61.6226 67.2065 61.7333 66.6218 61.9374 66.1374C62.1277 65.6426 62.4357 65.2897 62.7921 65.217C63.145 65.1236 63.401 65.3312 63.491 65.5181C63.5844 65.7014 63.5463 65.8398 63.5809 65.8468C63.6017 65.8641 63.7228 65.7326 63.6605 65.4558C63.6294 65.3243 63.5463 65.1686 63.3837 65.044C63.2211 64.9195 62.9824 64.8572 62.7332 64.8918C62.2177 64.9437 61.7679 65.4281 61.543 65.9644C61.2904 66.5007 61.152 67.1581 61.1901 67.8432C61.2697 69.1926 61.9963 70.4347 62.972 70.6873C63.446 70.798 63.837 70.6458 64.0342 70.4797C64.2383 70.3102 64.2695 70.1579 64.2453 70.1475H64.2418Z" fill="#FF9A6C"/>
<path d="M63.9929 63.2796L67.0654 67.8053C72.7156 52.09 64.8648 49.3601 70.3455 46.5332C79.21 41.9626 82.8984 37.5649 84.5384 39.5683C84.5384 39.5683 79.3484 37.9559 73.9992 39.3641C68.6501 40.7723 58.5849 44.4123 59.315 50.8063C60.0451 57.2004 63.9929 63.2796 63.9929 63.2796Z" fill="#263238"/>
<path d="M82.8706 35.586C75.1652 34.4131 66.0688 46.0456 66.0688 46.0456L66.2418 52.713C73.6705 53.2286 83.272 45.3605 88.8253 39.8868C88.8253 39.8868 90.576 36.759 82.8706 35.586Z" fill="#263238"/>
<path d="M53.7409 55.7441C53.7409 55.7441 53.734 55.7129 53.734 55.6541C53.734 55.5849 53.7305 55.4984 53.727 55.3946C53.7167 55.1663 53.7305 54.8272 53.7616 54.3947C53.8274 53.5262 54.0142 52.2772 54.4052 50.7686C54.6059 50.0178 54.8377 49.1978 55.1664 48.3362C55.5159 47.4851 55.9484 46.6062 56.4604 45.7135C57.4881 43.9282 58.8686 42.1013 60.5986 40.4682C62.3251 38.8281 64.2316 37.5549 66.0792 36.6449C67.0031 36.1882 67.9096 35.8145 68.7746 35.5135C69.643 35.2159 70.4665 34.9945 71.2243 34.818C72.7467 34.4824 74.0026 34.3578 74.8711 34.3128C75.3036 34.2852 75.6427 34.2852 75.871 34.2852H76.1305C76.1894 34.2886 76.2205 34.2921 76.2205 34.2955C76.2205 34.2955 76.1894 34.3025 76.1305 34.3059C76.0613 34.3094 75.9748 34.3163 75.871 34.3198C75.6427 34.3301 75.3071 34.344 74.8746 34.382C74.0096 34.4512 72.7605 34.5931 71.2519 34.9426C70.5011 35.1259 69.6811 35.3578 68.823 35.6553C67.9649 35.9598 67.0653 36.3369 66.1519 36.7937C64.3216 37.7071 62.4359 38.9735 60.7232 40.5997C59.007 42.2224 57.6299 44.0285 56.6058 45.7966C56.0937 46.6823 55.6577 47.5543 55.3083 48.3916C54.9796 49.2358 54.7408 50.0558 54.5332 50.7997C54.1249 52.2945 53.9243 53.5366 53.8343 54.3981C53.7962 54.8306 53.7686 55.1663 53.7686 55.3946C53.7651 55.4984 53.7616 55.5849 53.7582 55.6541C53.7547 55.7129 53.7513 55.7441 53.7478 55.7441H53.7409Z" fill="#455A64"/>
<path d="M60.3252 40.6857C60.3252 40.6857 60.3425 40.665 60.3841 40.6338C60.436 40.5958 60.4948 40.5473 60.5709 40.492C60.7508 40.3605 60.993 40.184 61.301 39.9591C61.9445 39.5093 62.9099 38.9004 64.1624 38.2603C65.4253 37.6444 66.9754 36.9904 68.7711 36.4887C70.5634 35.9905 72.5979 35.6514 74.7465 35.5718C79.0577 35.4023 82.919 36.4161 85.4691 37.5959C86.0988 37.9212 86.6143 38.3225 86.9742 38.762C87.334 39.2014 87.5347 39.6581 87.6281 40.0422C87.725 40.4297 87.7111 40.7445 87.6869 40.9487C87.6592 41.1563 87.6143 41.2566 87.6143 41.2566C87.5831 41.2566 87.7596 40.8172 87.5589 40.0595C87.4586 39.6858 87.2544 39.2464 86.8946 38.8242C86.5382 38.4056 86.0296 38.0215 85.4068 37.7067C82.8741 36.5683 79.03 35.5788 74.75 35.7483C72.6152 35.8279 70.598 36.16 68.8126 36.6444C67.0273 37.1323 65.4806 37.7689 64.2177 38.371C62.9652 38.9938 61.993 39.582 61.339 40.0145C61.0242 40.2255 60.775 40.3951 60.5917 40.5196C60.5121 40.5715 60.4463 40.6131 60.3944 40.6477C60.3495 40.6753 60.3252 40.6892 60.3218 40.6857H60.3252Z" fill="#455A64"/>
<path d="M59.9307 41.4127C59.9307 41.4127 60.0033 41.3573 60.1486 41.2708C60.3113 41.1739 60.5223 41.0494 60.7887 40.8902C61.3493 40.5719 62.19 40.1532 63.2626 39.7173C64.3456 39.309 65.6639 38.8938 67.1724 38.6239C68.6775 38.3506 70.3695 38.2225 72.1341 38.3298C73.8987 38.4336 75.5629 38.7588 77.0265 39.2121C78.4832 39.6688 79.7807 40.1913 80.7218 40.8867C81.1924 41.2293 81.573 41.5995 81.8532 41.9697C82.1335 42.3399 82.3065 42.7067 82.4103 43.0146C82.5037 43.326 82.5348 43.5786 82.5418 43.7516C82.5418 43.9212 82.5418 44.0111 82.5348 44.0111C82.5072 44.0111 82.5452 43.6444 82.3445 43.0389C82.2338 42.7413 82.0574 42.3884 81.7771 42.032C81.4968 41.6756 81.1162 41.3192 80.6491 40.9905C79.7184 40.3228 78.4278 39.8176 76.9781 39.3713C75.5249 38.9318 73.8745 38.6135 72.1237 38.5097C70.3729 38.4059 68.6983 38.527 67.2036 38.79C65.7054 39.0495 64.3906 39.4474 63.3111 39.8384C62.2385 40.257 61.3977 40.6549 60.8268 40.9525C60.5535 41.0978 60.3389 41.2154 60.1729 41.3019C60.0206 41.3815 59.941 41.4196 59.9376 41.4127H59.9307Z" fill="#455A64"/>
<path d="M54.2114 50.9067C54.2114 50.9067 54.4051 51.0105 54.7338 51.2251C54.8965 51.3323 55.0971 51.4638 55.3393 51.6057C55.5781 51.7475 55.8445 51.9205 56.1559 52.0831C56.7649 52.4291 57.5122 52.8028 58.3599 53.1765C59.2111 53.5398 60.166 53.8927 61.1937 54.1903C62.2213 54.4809 63.2212 54.6885 64.1347 54.8338C65.0516 54.9688 65.882 55.0484 66.5809 55.076C66.9303 55.1003 67.2487 55.0968 67.5255 55.1037C67.8057 55.1141 68.0445 55.1072 68.2417 55.1037C68.6327 55.0968 68.8506 55.1003 68.8541 55.1106C68.8541 55.1245 68.6396 55.1452 68.2451 55.1729C68.0479 55.1902 67.8092 55.2041 67.5289 55.2041C67.2487 55.2041 66.9303 55.2214 66.5774 55.2041C65.8716 55.1902 65.0343 55.1245 64.1104 54.9999C63.1866 54.8615 62.1798 54.6608 61.1452 54.3667C60.1107 54.0657 59.1488 53.7024 58.2942 53.3287C57.443 52.9447 56.6991 52.5572 56.0936 52.1939C55.7857 52.0209 55.5227 51.8409 55.2874 51.6922C55.0522 51.5434 54.8549 51.4015 54.6958 51.2839C54.3775 51.0521 54.2045 50.9171 54.2114 50.9067Z" fill="#455A64"/>
<path d="M66.5082 68.9059C66.3871 67.7364 65.4217 66.7226 65.5186 65.5497C65.5947 64.6328 66.2971 63.9131 66.74 63.1035C68.425 60.0275 66.2625 55.8444 68.034 52.8169L67.5808 64.8162C67.3247 65.8161 67.5012 66.868 67.5946 67.8956C67.688 68.9232 67.6811 70.0304 67.1137 70.8919C66.5497 71.7535 65.2418 72.1964 64.4495 71.5355C65.6674 71.3625 66.6327 70.1307 66.5047 68.9059H66.5082Z" fill="#263238"/>
<path d="M69.9439 51.6923C69.9439 51.6923 69.7536 51.7027 69.4145 51.6923C69.2449 51.6888 69.0339 51.675 68.7917 51.6473C68.5495 51.6196 68.2727 51.5989 67.9717 51.5435C67.3662 51.457 66.6534 51.3013 65.8714 51.0799C65.0964 50.8481 64.2556 50.5436 63.4079 50.1457C62.5637 49.7443 61.7921 49.2911 61.1209 48.8413C60.4531 48.3811 59.8787 47.9313 59.4255 47.5195C59.1902 47.3223 58.9999 47.1216 58.8234 46.9521C58.647 46.786 58.5051 46.6303 58.3944 46.5023C58.166 46.2463 58.0449 46.1044 58.0553 46.094C58.0657 46.0871 58.2041 46.2151 58.4463 46.4539C58.5674 46.575 58.7162 46.7203 58.8961 46.8794C59.076 47.0421 59.2732 47.2324 59.512 47.4227C59.9721 47.8206 60.55 48.2565 61.2143 48.7029C61.8855 49.1423 62.6502 49.5852 63.4875 49.9831C64.3283 50.374 65.1552 50.682 65.9199 50.9207C66.688 51.1491 67.3938 51.3152 67.9924 51.419C68.29 51.4812 68.5633 51.5124 68.8021 51.547C69.0408 51.585 69.2484 51.6058 69.4179 51.6231C69.757 51.6577 69.9439 51.6854 69.9439 51.6958V51.6923Z" fill="#455A64"/>
<path d="M111.018 148.14C111.018 148.14 109.367 132.103 110.551 122.833C111.734 113.564 98.1568 89.2677 98.1568 89.2677L86.5104 87.8214C86.1956 96.987 67.9095 87.1675 67.9095 87.1675L61.4185 89.6656L53.5366 93.3955L63.0447 152.243C63.0447 152.243 58.6228 158.509 57.8201 160.786H99.264L112.277 160.737L111.021 148.143L111.018 148.14Z" fill="#01AB6C"/>
<g opacity="0.3">
<path d="M62.0483 142.337C62.0483 142.337 64.8163 148.818 68.7123 150.323C86.2441 157.105 108.803 143.697 108.803 143.697L104.323 137.957L71.8401 148.289L62.0483 142.334V142.337Z" fill="black"/>
</g>
<path d="M54.0038 94.2606C54.0038 94.2606 47.6927 94.0841 47.5751 107.931C47.4575 121.778 63.4358 145.012 66.1588 147.299C68.8818 149.586 71.9923 151.126 80.196 149.887C90.486 148.337 104.323 142.922 104.323 142.922L96.2227 134.296L75.9471 132.874L62.9617 102.274C62.9617 102.274 59.0935 93.662 54.0038 94.264V94.2606Z" fill="#FFBF9D"/>
<path d="M118.367 143.69C121.456 143.832 124.453 142.427 126.193 139.87C127.114 138.521 127.826 136.902 127.826 135.141C127.826 130.203 124.512 123.221 123.802 120.574C123.093 117.924 111.658 97.5166 105.184 93.5549C103.731 92.6657 100.904 92.0117 100.904 92.0117L112.201 128.522L87.2405 132.687L89.9808 142.389L118.367 143.694V143.69Z" fill="#FFBF9D"/>
<path d="M108.43 123.491L125.889 117.979C125.889 117.979 108.025 89.171 97.6482 89.209L108.43 123.494V123.491Z" fill="#01AB6C"/>
<path d="M104.322 129.836L108.163 122.325L108.46 118.436C108.53 117.508 109.021 116.664 109.793 116.142L114.197 113.163C114.197 113.163 115.706 113.343 115.239 114.529C114.771 115.72 112.491 117.858 112.491 117.858L111.145 121.674L113.332 117.799L116.526 116.194L119.681 116.432C119.681 116.432 120.266 117.858 118.806 117.92H117.228L114.83 119.882L113.332 123.567L115.588 120L118.92 118.795L121.024 119.346C121.024 119.346 121.608 120.297 120.557 120.415C119.505 120.532 118.802 120.532 118.802 120.532L116.872 121.674L115.176 125.29L118.159 122.792L122.017 122.325C122.017 122.325 122.66 123.269 121.667 123.626C120.674 123.982 118.685 125.051 118.685 125.051L116.522 127.726L104.322 129.833V129.836Z" fill="#FFBF9D"/>
<path d="M104.322 129.836C104.762 129.757 108.931 129.016 116.512 127.67L116.477 127.691C117.159 126.847 117.879 125.951 118.636 125.013L118.643 125.003L118.654 124.996C119.332 124.636 120.038 124.269 120.782 123.923C120.968 123.837 121.159 123.754 121.352 123.674C121.546 123.587 121.754 123.539 121.906 123.421C122.069 123.311 122.152 123.127 122.148 122.934C122.141 122.74 122.062 122.536 121.958 122.366L122.027 122.397C120.82 122.546 119.515 122.705 118.169 122.871L118.211 122.854C117.28 123.636 116.27 124.484 115.232 125.356L114.951 125.591L115.107 125.259C115.637 124.124 116.211 122.895 116.799 121.64L116.809 121.615L116.83 121.601C117.429 121.245 118.09 120.854 118.757 120.46L118.778 120.449H118.802C119.304 120.442 119.834 120.404 120.37 120.349C120.505 120.335 120.636 120.321 120.757 120.287C120.882 120.255 120.982 120.186 121.041 120.093C121.162 119.903 121.072 119.608 120.951 119.391L121.003 119.429C120.346 119.256 119.626 119.069 118.899 118.878H118.951C117.899 119.256 116.768 119.667 115.619 120.083L115.664 120.048C114.948 121.179 114.183 122.39 113.408 123.615L113.249 123.532C113.54 122.819 113.851 122.051 114.163 121.28C114.356 120.799 114.554 120.321 114.744 119.844L114.751 119.823L114.768 119.809C115.574 119.148 116.374 118.494 117.166 117.847L117.19 117.827H117.221C117.533 117.827 117.844 117.827 118.152 117.827C118.456 117.82 118.782 117.847 119.058 117.795C119.339 117.74 119.595 117.577 119.664 117.304C119.74 117.041 119.692 116.73 119.595 116.467L119.671 116.522C118.605 116.443 117.553 116.363 116.515 116.283L116.56 116.273C115.481 116.816 114.415 117.349 113.367 117.878L113.401 117.844C112.654 119.166 111.924 120.456 111.215 121.719L111.062 121.65C111.526 120.342 111.972 119.072 112.412 117.834L112.419 117.816L112.433 117.802C113.235 117.031 113.997 116.242 114.63 115.394C114.924 114.972 115.266 114.519 115.246 114.038C115.235 113.799 115.073 113.602 114.872 113.474C114.668 113.346 114.426 113.27 114.19 113.235L114.239 113.225C113.266 113.882 112.325 114.515 111.422 115.124C110.969 115.429 110.526 115.726 110.094 116.02C109.647 116.297 109.263 116.622 109 117.041C108.734 117.453 108.575 117.917 108.53 118.384C108.492 118.858 108.454 119.321 108.419 119.771C108.346 120.674 108.281 121.529 108.218 122.332V122.342L108.211 122.352C105.782 127.034 104.495 129.518 104.326 129.84C104.488 129.514 105.748 127.016 108.121 122.307L108.115 122.325C108.173 121.522 108.236 120.667 108.305 119.764C108.339 119.311 108.374 118.847 108.409 118.373C108.454 117.889 108.616 117.404 108.893 116.975C109.163 116.543 109.578 116.19 110.018 115.913C110.45 115.619 110.893 115.318 111.343 115.014C112.246 114.401 113.183 113.765 114.152 113.107L114.176 113.09H114.201C114.46 113.135 114.713 113.211 114.945 113.353C115.173 113.491 115.374 113.733 115.387 114.024C115.412 114.308 115.301 114.574 115.183 114.809C115.052 115.045 114.91 115.27 114.747 115.484C114.107 116.346 113.346 117.135 112.536 117.917L112.557 117.885C112.121 119.121 111.675 120.39 111.215 121.702L111.062 121.633C111.772 120.37 112.502 119.079 113.246 117.757L113.26 117.733L113.284 117.723C114.332 117.197 115.394 116.661 116.474 116.117L116.495 116.107H116.519C117.557 116.187 118.609 116.266 119.674 116.346H119.733L119.75 116.401C119.861 116.702 119.917 117.027 119.827 117.356C119.744 117.699 119.401 117.92 119.086 117.972C118.757 118.031 118.456 118 118.145 118.007C117.834 118.007 117.522 118.007 117.211 118.007L117.266 117.986C116.474 118.633 115.675 119.287 114.868 119.948L114.896 119.913C114.702 120.39 114.509 120.868 114.315 121.349C114 122.12 113.689 122.889 113.401 123.601L113.242 123.518C114.017 122.293 114.782 121.082 115.502 119.951L115.519 119.927L115.547 119.916C116.695 119.501 117.827 119.093 118.879 118.712L118.903 118.702L118.93 118.709C119.657 118.899 120.377 119.086 121.034 119.259L121.069 119.269L121.086 119.301C121.162 119.435 121.214 119.57 121.245 119.719C121.273 119.868 121.266 120.041 121.176 120.183C120.982 120.477 120.629 120.491 120.377 120.518C119.834 120.574 119.304 120.612 118.792 120.619L118.837 120.608C118.169 121.003 117.508 121.394 116.906 121.747L116.941 121.709C116.353 122.965 115.775 124.19 115.242 125.324L115.118 125.228C116.156 124.359 117.169 123.515 118.1 122.733L118.117 122.719H118.142C119.488 122.553 120.792 122.397 121.999 122.252L122.044 122.245L122.069 122.283C122.19 122.48 122.273 122.691 122.283 122.927C122.294 123.158 122.176 123.408 121.982 123.532C121.792 123.671 121.581 123.715 121.397 123.799C121.207 123.875 121.017 123.961 120.833 124.044C120.09 124.387 119.384 124.75 118.709 125.106L118.73 125.089C117.969 126.027 117.245 126.919 116.56 127.76L116.547 127.778H116.526C108.931 129.054 104.755 129.757 104.315 129.829L104.322 129.836Z" fill="#FF9A6C"/>
<path d="M89.9806 142.261C89.9806 142.261 85.4307 145.171 80.296 145.022C75.1614 144.873 70.6115 146.562 69.9506 146.091C69.2898 145.62 69.2171 144.8 69.9506 144.427C70.6842 144.053 73.7947 143.607 73.7947 143.607L76.4797 142.489C76.4797 142.489 67.3107 143.309 66.5771 142.936C65.8436 142.562 65.1101 142.039 65.4042 141.219C65.6983 140.399 66.4318 140.399 66.4318 140.399C66.4318 140.399 64.4527 140.475 64.5254 139.652C64.598 138.832 65.3315 138.085 65.6256 137.936C65.9197 137.787 69.7673 136.195 69.7673 136.195L74.7151 135.195L69.9645 135.002L65.8125 136.178C65.8125 136.178 64.1551 136.368 64.5254 134.95C64.8956 133.531 69.9576 131.964 69.9576 131.964L76.4139 131.511C76.4139 131.511 71.4246 130.77 70.9125 129.203C70.4004 127.635 71.2793 126.739 71.2793 126.739C71.2793 126.739 74.8016 128.158 76.4866 128.455C78.1751 128.753 80.2268 129.424 82.9429 130.545C85.659 131.666 87.2472 132.559 87.2472 132.559" fill="#FFBF9D"/>
<path d="M87.2438 132.559C87.2438 132.559 87.1539 132.514 86.9739 132.424C86.7906 132.334 86.5276 132.203 86.1851 132.03C85.4896 131.691 84.4551 131.206 83.0918 130.646C81.7286 130.096 80.0574 129.414 78.0437 128.86C77.5385 128.725 77.0126 128.601 76.4659 128.504C75.9123 128.4 75.3553 128.241 74.7878 128.065C73.6529 127.708 72.4731 127.279 71.2482 126.795L71.3209 126.781C70.9126 127.258 70.7431 127.961 70.8434 128.629C70.9022 128.964 70.9714 129.314 71.2067 129.559C71.4385 129.812 71.7396 130.009 72.0579 130.175C72.7014 130.507 73.4107 130.743 74.1443 130.943C74.8778 131.141 75.639 131.307 76.4175 131.428L77.0818 131.532L76.4106 131.58C74.3588 131.725 72.1963 131.878 69.9542 132.037H69.9715C68.6809 132.455 67.3696 132.943 66.1274 133.611C65.8195 133.781 65.515 133.967 65.2382 134.182C64.9683 134.396 64.6915 134.649 64.6016 134.964C64.5151 135.293 64.5324 135.673 64.8057 135.87C65.0721 136.064 65.4527 136.106 65.7953 136.078H65.7814C67.0928 135.708 68.501 135.31 69.93 134.902H69.9577C71.4662 134.96 73.0786 135.026 74.7082 135.092L75.4521 135.123L74.7221 135.272C73.601 135.5 72.4004 135.742 71.1929 135.985C70.7189 136.081 70.2448 136.175 69.7743 136.272H69.7916C68.4007 136.85 67.027 137.427 65.6707 137.998C65.3801 138.164 65.1344 138.458 64.9441 138.749C64.7573 139.04 64.605 139.393 64.612 139.714C64.6189 139.86 64.7365 139.977 64.8818 140.054C65.0272 140.133 65.1967 140.182 65.3697 140.216C65.7122 140.285 66.0721 140.303 66.4215 140.299V140.476C66.1586 140.49 65.8818 140.628 65.7088 140.839C65.5323 141.05 65.4147 141.334 65.4216 141.6C65.4285 141.87 65.5842 142.119 65.7918 142.309C65.9994 142.503 66.2485 142.655 66.5011 142.79C66.5669 142.828 66.6291 142.856 66.681 142.87C66.7468 142.88 66.816 142.898 66.8852 142.901C67.027 142.918 67.1724 142.922 67.3142 142.929C67.6014 142.939 67.892 142.936 68.1792 142.929C68.757 142.918 69.3279 142.894 69.8954 142.867C72.1651 142.749 74.3588 142.576 76.4625 142.396L76.978 142.351L76.5005 142.548C75.5871 142.929 74.6909 143.302 73.8156 143.666H73.8052L73.7948 143.673C72.8087 143.821 71.8434 143.981 70.9161 144.192C70.6843 144.247 70.4559 144.302 70.2345 144.379C70.013 144.448 69.8123 144.548 69.667 144.711C69.5252 144.873 69.4629 145.088 69.4975 145.299C69.5321 145.507 69.6393 145.707 69.7916 145.859C69.8642 145.929 69.9577 146.019 70.0338 146.05C70.1237 146.081 70.2345 146.091 70.3417 146.091C70.5597 146.091 70.7811 146.064 70.9991 146.036C71.4351 145.974 71.8641 145.894 72.2897 145.814C73.1374 145.655 73.9609 145.496 74.7636 145.372C76.369 145.116 77.888 144.967 79.2962 144.953C79.6491 144.949 79.9917 144.953 80.3307 144.963C80.6664 144.96 80.9951 144.963 81.3134 144.953C81.6317 144.929 81.9466 144.911 82.251 144.88C82.5555 144.839 82.8496 144.804 83.1368 144.759C85.4342 144.368 87.1366 143.645 88.2714 143.133C88.8354 142.87 89.2575 142.645 89.5413 142.489C89.6797 142.413 89.7835 142.354 89.8596 142.309C89.9322 142.268 89.9668 142.251 89.9668 142.251C89.9668 142.251 89.8319 142.348 89.5516 142.51C89.2714 142.673 88.8527 142.901 88.2887 143.174C87.1608 143.7 85.4585 144.437 83.1506 144.846C82.8635 144.894 82.5659 144.929 82.2614 144.974C81.9569 145.008 81.6386 145.026 81.3168 145.05C80.9951 145.064 80.6629 145.06 80.3238 145.064C79.9882 145.06 79.6457 145.053 79.2927 145.06C77.8914 145.084 76.3794 145.233 74.7774 145.496C73.9782 145.624 73.1547 145.783 72.307 145.946C71.8814 146.026 71.4524 146.109 71.013 146.174C70.7915 146.205 70.5701 146.233 70.3348 146.233C70.2172 146.233 70.0995 146.226 69.975 146.181C69.9092 146.154 69.8573 146.115 69.8158 146.077C69.7674 146.043 69.7258 145.998 69.6843 145.956C69.5148 145.787 69.3902 145.565 69.3487 145.32C69.3072 145.071 69.3868 144.804 69.5528 144.614C69.7189 144.424 69.9542 144.309 70.1826 144.237C70.4109 144.157 70.6427 144.102 70.8746 144.043C71.8122 143.828 72.7776 143.666 73.7671 143.514H73.7498C74.6252 143.154 75.5213 142.78 76.4348 142.396L76.4728 142.552C74.3692 142.735 72.1755 142.912 69.9023 143.033C69.3349 143.06 68.7605 143.088 68.1792 143.098C67.8886 143.105 67.5979 143.105 67.3038 143.098C67.1585 143.095 67.0097 143.088 66.861 143.071C66.7883 143.064 66.7087 143.05 66.6326 143.036C66.5426 143.012 66.4734 142.974 66.4112 142.939C66.1482 142.797 65.8887 142.642 65.6638 142.431C65.4389 142.226 65.2451 141.936 65.2382 141.6C65.2313 141.271 65.3628 140.967 65.5669 140.718C65.778 140.472 66.079 140.31 66.4181 140.292V140.469C66.0548 140.476 65.6915 140.458 65.3282 140.382C65.1483 140.344 64.9649 140.296 64.7919 140.202C64.6258 140.116 64.4459 139.95 64.4286 139.721C64.4251 139.31 64.5877 138.964 64.7884 138.642C64.9995 138.33 65.2348 138.033 65.5842 137.829C66.944 137.258 68.3245 136.677 69.7189 136.092H69.7362C70.2068 135.991 70.6808 135.895 71.1548 135.801C72.3624 135.556 73.563 135.313 74.684 135.088L74.6979 135.265C73.0647 135.199 71.4558 135.133 69.9473 135.071H69.975C68.546 135.473 67.1343 135.87 65.823 136.244H65.8091C65.4285 136.272 65.0272 136.244 64.6915 136.002C64.5255 135.884 64.4182 135.684 64.3905 135.49C64.3525 135.293 64.3905 135.099 64.4286 134.915C64.5497 134.524 64.8472 134.268 65.1275 134.04C65.4181 133.819 65.7261 133.628 66.0409 133.455C67.3038 132.777 68.6186 132.293 69.9196 131.867H69.9369C72.179 131.708 74.3415 131.559 76.3933 131.417L76.3863 131.57C75.5975 131.442 74.8363 131.276 74.0958 131.075C73.3588 130.871 72.6392 130.632 71.9818 130.289C71.6531 130.116 71.3417 129.912 71.0891 129.639C70.9645 129.501 70.8676 129.331 70.8157 129.155C70.7604 128.982 70.7223 128.809 70.6946 128.632C70.5943 127.93 70.7638 127.196 71.2136 126.674L71.2413 126.643L71.2863 126.66C72.5077 127.144 73.6841 127.58 74.812 127.94C75.376 128.117 75.9296 128.279 76.4728 128.383C77.023 128.483 77.5524 128.608 78.0575 128.746C80.0782 129.314 81.7493 130.002 83.1057 130.563C84.462 131.134 85.4965 131.628 86.1851 131.978C86.5311 132.154 86.7906 132.293 86.967 132.39C87.14 132.487 87.2265 132.542 87.2265 132.542L87.2438 132.559Z" fill="#FF9A6C"/>
<path d="M76.248 138.925C76.248 138.967 75.6564 138.988 74.7083 139.046C73.7603 139.105 72.4489 139.216 71.0165 139.437C69.5841 139.659 68.3004 139.946 67.3766 140.178C66.4528 140.406 65.8819 140.569 65.8715 140.527C65.8611 140.493 66.4112 140.268 67.3281 139.988C68.245 139.707 69.5322 139.386 70.9784 139.161C72.4247 138.939 73.7499 138.856 74.7049 138.849C75.6633 138.842 76.2515 138.894 76.2515 138.929L76.248 138.925Z" fill="#FF9A6C"/>
<path d="M53.3428 131.002L72.2656 124.238C72.2656 124.238 68.4077 105.928 62.6053 99.1946C57.2042 92.925 54.969 92.5168 52.9 93.7208C50.9624 94.8488 43.9489 99.3018 48.1009 114.422C52.2529 129.542 53.3428 131.006 53.3428 131.006V131.002Z" fill="#01AB6C"/>
<path d="M88.1194 148.565C88.1194 148.565 88.0086 148.613 87.7941 148.676C87.5485 148.741 87.2336 148.831 86.8426 148.939C86.0157 149.157 84.8081 149.444 83.303 149.724C81.7979 149.994 79.9884 150.271 77.9643 150.381C75.9436 150.478 73.6912 150.454 71.3903 149.935C70.2381 149.696 69.1482 149.288 68.1551 148.786C67.65 148.544 67.2002 148.229 66.7538 147.925C66.3248 147.586 65.9477 147.216 65.5982 146.838C64.2177 145.316 63.1658 143.801 62.2731 142.538C61.3908 141.264 60.7127 140.213 60.2525 139.479C60.038 139.13 59.8685 138.849 59.7335 138.628C59.6193 138.431 59.564 138.323 59.5709 138.32C59.5778 138.316 59.6505 138.41 59.7819 138.597C59.9273 138.808 60.1141 139.081 60.3459 139.417C60.8338 140.13 61.5362 141.164 62.4358 142.42C63.3457 143.662 64.4149 145.167 65.7851 146.659C66.1311 147.029 66.5013 147.385 66.9096 147.707C67.3455 147.998 67.7849 148.302 68.2797 148.537C69.252 149.025 70.3176 149.423 71.4525 149.658C73.7119 150.17 75.9471 150.202 77.9539 150.122C79.9641 150.029 81.7668 149.773 83.2719 149.53C84.777 149.274 85.9845 149.018 86.8218 148.831C87.2163 148.745 87.5346 148.676 87.7837 148.62C88.0052 148.575 88.1228 148.555 88.1228 148.565H88.1194Z" fill="#263238"/>
<path d="M73.8883 127.712C73.8468 127.729 72.6462 124.767 71.2103 121.096C69.7744 117.425 64.6501 108.585 64.6917 108.567C64.7332 108.55 69.9266 117.363 71.3625 121.034C72.7984 124.705 73.9264 127.694 73.8849 127.712H73.8883Z" fill="#263238"/>
<path d="M101.599 99.5264C101.599 99.5264 101.648 99.5783 101.724 99.6821C101.811 99.8032 101.921 99.9589 102.056 100.149C102.347 100.554 102.745 101.153 103.229 101.9C104.181 103.402 105.457 105.519 106.464 108.048C107.475 110.578 107.987 113.003 108.274 114.757C108.412 115.636 108.509 116.349 108.561 116.844C108.585 117.075 108.603 117.262 108.62 117.415C108.63 117.546 108.634 117.615 108.627 117.615C108.62 117.615 108.606 117.55 108.582 117.418L108.492 116.854C108.419 116.363 108.305 115.653 108.149 114.778C107.831 113.034 107.302 110.63 106.295 108.114C105.295 105.599 104.039 103.481 103.118 101.966C102.648 101.211 102.267 100.602 101.994 100.187C101.869 99.99 101.769 99.8309 101.689 99.7028C101.62 99.5921 101.589 99.5298 101.593 99.5264H101.599Z" fill="#263238"/>
<path d="M115.692 143.645C115.692 143.693 109.931 143.441 102.831 143.081C95.7312 142.721 89.9773 142.385 89.9807 142.337C89.9807 142.289 95.7416 142.541 102.842 142.901C109.941 143.261 115.695 143.596 115.692 143.645Z" fill="#FF9A6C"/>
<path d="M118.799 127.414C118.799 127.414 118.771 127.425 118.72 127.435C118.654 127.449 118.578 127.463 118.481 127.48C118.256 127.518 117.948 127.574 117.564 127.639C116.751 127.778 115.599 127.971 114.184 128.214C111.319 128.708 107.385 129.387 103.039 130.137C98.6862 130.888 94.7418 131.556 91.8803 132.009C90.4514 132.238 89.2923 132.411 88.4895 132.528C88.0986 132.58 87.7906 132.625 87.5657 132.653L87.3235 132.681C87.2682 132.687 87.2405 132.687 87.2405 132.684C87.2405 132.684 87.2682 132.674 87.3201 132.663C87.3858 132.649 87.4619 132.636 87.5588 132.618C87.7837 132.58 88.0916 132.525 88.4757 132.459C89.2888 132.321 90.441 132.127 91.8561 131.885C94.721 131.39 98.655 130.712 103.004 129.961C107.357 129.21 111.301 128.542 114.159 128.089C115.588 127.861 116.747 127.688 117.55 127.57C117.941 127.518 118.249 127.473 118.474 127.446C118.571 127.435 118.65 127.425 118.716 127.418C118.771 127.411 118.799 127.411 118.799 127.414Z" fill="#FF9A6C"/>
</svg>
