<svg width="19" height="46" viewBox="0 0 19 46" fill="none" xmlns="http://www.w3.org/2000/svg">
<mask id="path-1-inside-1_0_24" fill="white">
<path fill-rule="evenodd" clip-rule="evenodd" d="M0 29.8691H16C16 32.9512 15.1286 35.8298 13.6186 38.2718C14.9936 40.8136 16.8053 43.1759 19 45.2431C15.7236 46.331 12.0545 46.2851 8.61947 44.8483C8.12799 44.6427 7.65342 44.4138 7.19651 44.1632C5.03322 45.2545 2.58838 45.8691 0 45.8691V29.8691Z"/>
</mask>
<path fill-rule="evenodd" clip-rule="evenodd" d="M0 29.8691H16C16 32.9512 15.1286 35.8298 13.6186 38.2718C14.9936 40.8136 16.8053 43.1759 19 45.2431C15.7236 46.331 12.0545 46.2851 8.61947 44.8483C8.12799 44.6427 7.65342 44.4138 7.19651 44.1632C5.03322 45.2545 2.58838 45.8691 0 45.8691V29.8691Z" fill="#E7FECC"/>
<path d="M16 29.8691V29.3691H16.5V29.8691H16ZM0 29.8691H-0.5V29.3691H0V29.8691ZM13.6186 38.2718L13.1788 38.5097L13.0411 38.2551L13.1933 38.0088L13.6186 38.2718ZM19 45.2431L19.3428 44.8791L19.9527 45.4536L19.1576 45.7176L19 45.2431ZM8.61947 44.8483L8.8124 44.387L8.61947 44.8483ZM7.19651 44.1632L6.97131 43.7168L7.20621 43.5983L7.4369 43.7248L7.19651 44.1632ZM0 45.8691V46.3691H-0.5V45.8691H0ZM16 30.3691H0V29.3691H16V30.3691ZM13.1933 38.0088C14.6558 35.6435 15.5 32.8557 15.5 29.8691H16.5C16.5 33.0467 15.6013 36.016 14.0439 38.5347L13.1933 38.0088ZM14.0584 38.0339C15.4077 40.5282 17.1865 42.848 19.3428 44.8791L18.6572 45.6071C16.4242 43.5037 14.5795 41.0991 13.1788 38.5097L14.0584 38.0339ZM19.1576 45.7176C15.7709 46.8421 11.9772 46.7947 8.42653 45.3096L8.8124 44.387C12.1319 45.7754 15.6763 45.8198 18.8424 44.7686L19.1576 45.7176ZM8.42653 45.3096C7.91881 45.0972 7.4284 44.8606 6.95611 44.6017L7.4369 43.7248C7.87844 43.9669 8.33716 44.1883 8.8124 44.387L8.42653 45.3096ZM0 45.3691C2.50839 45.3691 4.87627 44.7737 6.97131 43.7168L7.4217 44.6097C5.19017 45.7354 2.66838 46.3691 0 46.3691V45.3691ZM0.5 29.8691V45.8691H-0.5V29.8691H0.5Z" fill="#9BA9B0" mask="url(#path-1-inside-1_0_24)"/>
<mask id="path-3-inside-2_0_24" fill="white">
<path d="M16 16C16 7.16343 8.83656 0 0 0V30.8695H16V16Z"/>
</mask>
<path d="M16 16C16 7.16343 8.83656 0 0 0V30.8695H16V16Z" fill="#E7FECC"/>
<path d="M16.5 16C16.5 6.8873 9.1127 -0.5 0 -0.5H-0.5L0.5 0.5H0C8.56041 0.5 15.5 7.43959 15.5 16H16.5ZM0 30.8695H16H0ZM16.5 30.8695V16C16.5 6.8873 9.1127 -0.5 0 -0.5V0.5C8.56041 0.5 15.5 7.43959 15.5 16V30.8695H16.5ZM-0.5 -0.5V30.8695H0.5V0.00766395C0.33338 0.00260505 0.166695 -1.4573e-08 -1.90735e-06 0L-0.5 -0.5Z" fill="#9BA9B0" mask="url(#path-3-inside-2_0_24)"/>
</svg>
